ISO-10303-21;
HEADER;
FILE_DESCRIPTION(('FreeCAD Model'),'2;1');
FILE_NAME('Open CASCADE Shape Model','2025-11-15T21:49:10',(''),(''),
  'Open CASCADE STEP processor 7.8','FreeCAD','Unknown');
FILE_SCHEMA(('AUTOMOTIVE_DESIGN { 1 0 10303 214 1 1 1 1 }'));
ENDSEC;
DATA;
#1 = APPLICATION_PROTOCOL_DEFINITION('international standard',
  'automotive_design',2000,#2);
#2 = APPLICATION_CONTEXT(
  'core data for automotive mechanical design processes');
#3 = SHAPE_DEFINITION_REPRESENTATION(#4,#10);
#4 = PRODUCT_DEFINITION_SHAPE('','',#5);
#5 = PRODUCT_DEFINITION('design','',#6,#9);
#6 = PRODUCT_DEFINITION_FORMATION('','',#7);
#7 = PRODUCT('68000-202HLF','68000-202HLF','',(#8));
#8 = PRODUCT_CONTEXT('',#2,'mechanical');
#9 = PRODUCT_DEFINITION_CONTEXT('part definition',#2,'design');
#10 = SHAPE_REPRESENTATION('',(#11,#15,#19,#23),#27);
#11 = AXIS2_PLACEMENT_3D('',#12,#13,#14);
#12 = CARTESIAN_POINT('',(0.,0.,0.));
#13 = DIRECTION('',(0.,0.,1.));
#14 = DIRECTION('',(1.,0.,-0.));
#15 = AXIS2_PLACEMENT_3D('',#16,#17,#18);
#16 = CARTESIAN_POINT('',(0.,0.,0.));
#17 = DIRECTION('',(0.,-1.,-2.22044604925E-16));
#18 = DIRECTION('',(1.,0.,0.));
#19 = AXIS2_PLACEMENT_3D('',#20,#21,#22);
#20 = CARTESIAN_POINT('',(0.,0.,0.));
#21 = DIRECTION('',(0.,-1.,-2.22044604925E-16));
#22 = DIRECTION('',(1.,0.,0.));
#23 = AXIS2_PLACEMENT_3D('',#24,#25,#26);
#24 = CARTESIAN_POINT('',(2.54,5.689581133159E-16,0.));
#25 = DIRECTION('',(0.,-1.,-2.22044604925E-16));
#26 = DIRECTION('',(1.,0.,0.));
#27 = ( GEOMETRIC_REPRESENTATION_CONTEXT(3) 
GLOBAL_UNCERTAINTY_ASSIGNED_CONTEXT((#31)) GLOBAL_UNIT_ASSIGNED_CONTEXT(
(#28,#29,#30)) REPRESENTATION_CONTEXT('Context #1',
  '3D Context with UNIT and UNCERTAINTY') );
#28 = ( LENGTH_UNIT() NAMED_UNIT(*) SI_UNIT(.MILLI.,.METRE.) );
#29 = ( NAMED_UNIT(*) PLANE_ANGLE_UNIT() SI_UNIT($,.RADIAN.) );
#30 = ( NAMED_UNIT(*) SI_UNIT($,.STERADIAN.) SOLID_ANGLE_UNIT() );
#31 = UNCERTAINTY_MEASURE_WITH_UNIT(LENGTH_MEASURE(1.E-07),#28,
  'distance_accuracy_value','confusion accuracy');
#32 = PRODUCT_RELATED_PRODUCT_CATEGORY('part',$,(#7));
#33 = SHAPE_DEFINITION_REPRESENTATION(#34,#40);
#34 = PRODUCT_DEFINITION_SHAPE('','',#35);
#35 = PRODUCT_DEFINITION('design','',#36,#39);
#36 = PRODUCT_DEFINITION_FORMATION('','',#37);
#37 = PRODUCT('68000 gold body_02','68000 gold body_02','',(#38));
#38 = PRODUCT_CONTEXT('',#2,'mechanical');
#39 = PRODUCT_DEFINITION_CONTEXT('part definition',#2,'design');
#40 = ADVANCED_BREP_SHAPE_REPRESENTATION('',(#11,#41),#1433);
#41 = MANIFOLD_SOLID_BREP('',#42);
#42 = CLOSED_SHELL('',(#43,#85,#127,#169,#211,#253,#295,#337,#379,#419,
    #459,#669,#879,#901,#923,#945,#967,#989,#1006,#1023,#1035,#1051,
    #1063,#1081,#1091,#1107,#1119,#1137,#1147,#1169,#1186,#1203,#1215,
    #1231,#1243,#1261,#1271,#1287,#1299,#1317,#1327,#1339,#1351,#1363,
    #1380,#1392,#1409,#1421));
#43 = ADVANCED_FACE('',(#44),#80,.T.);
#44 = FACE_BOUND('',#45,.T.);
#45 = EDGE_LOOP('',(#46,#57,#65,#74));
#46 = ORIENTED_EDGE('',*,*,#47,.F.);
#47 = EDGE_CURVE('',#48,#50,#52,.T.);
#48 = VERTEX_POINT('',#49);
#49 = CARTESIAN_POINT('',(1.93,2.55,0.755));
#50 = VERTEX_POINT('',#51);
#51 = CARTESIAN_POINT('',(1.93,2.55,0.345));
#52 = CIRCLE('',#53,0.205);
#53 = AXIS2_PLACEMENT_3D('',#54,#55,#56);
#54 = CARTESIAN_POINT('',(1.93,2.55,0.55));
#55 = DIRECTION('',(0.,1.,0.));
#56 = DIRECTION('',(0.,-0.,1.));
#57 = ORIENTED_EDGE('',*,*,#58,.T.);
#58 = EDGE_CURVE('',#48,#59,#61,.T.);
#59 = VERTEX_POINT('',#60);
#60 = CARTESIAN_POINT('',(1.93,2.35,0.755));
#61 = LINE('',#62,#63);
#62 = CARTESIAN_POINT('',(1.93,2.55,0.755));
#63 = VECTOR('',#64,1.);
#64 = DIRECTION('',(-0.,-1.,-0.));
#65 = ORIENTED_EDGE('',*,*,#66,.F.);
#66 = EDGE_CURVE('',#67,#59,#69,.T.);
#67 = VERTEX_POINT('',#68);
#68 = CARTESIAN_POINT('',(1.93,2.35,0.345));
#69 = CIRCLE('',#70,0.205);
#70 = AXIS2_PLACEMENT_3D('',#71,#72,#73);
#71 = CARTESIAN_POINT('',(1.93,2.35,0.55));
#72 = DIRECTION('',(0.,-1.,0.));
#73 = DIRECTION('',(0.,0.,1.));
#74 = ORIENTED_EDGE('',*,*,#75,.F.);
#75 = EDGE_CURVE('',#50,#67,#76,.T.);
#76 = LINE('',#77,#78);
#77 = CARTESIAN_POINT('',(1.93,2.55,0.345));
#78 = VECTOR('',#79,1.);
#79 = DIRECTION('',(-0.,-1.,-0.));
#80 = CYLINDRICAL_SURFACE('',#81,0.205);
#81 = AXIS2_PLACEMENT_3D('',#82,#83,#84);
#82 = CARTESIAN_POINT('',(1.93,2.55,0.55));
#83 = DIRECTION('',(-0.,-1.,-0.));
#84 = DIRECTION('',(0.,0.,-1.));
#85 = ADVANCED_FACE('',(#86),#122,.T.);
#86 = FACE_BOUND('',#87,.T.);
#87 = EDGE_LOOP('',(#88,#99,#107,#116));
#88 = ORIENTED_EDGE('',*,*,#89,.T.);
#89 = EDGE_CURVE('',#90,#92,#94,.T.);
#90 = VERTEX_POINT('',#91);
#91 = CARTESIAN_POINT('',(1.93,0.2,0.345));
#92 = VERTEX_POINT('',#93);
#93 = CARTESIAN_POINT('',(1.93,0.2,0.755));
#94 = CIRCLE('',#95,0.205);
#95 = AXIS2_PLACEMENT_3D('',#96,#97,#98);
#96 = CARTESIAN_POINT('',(1.93,0.2,0.55));
#97 = DIRECTION('',(0.,-1.,0.));
#98 = DIRECTION('',(0.,0.,1.));
#99 = ORIENTED_EDGE('',*,*,#100,.T.);
#100 = EDGE_CURVE('',#92,#101,#103,.T.);
#101 = VERTEX_POINT('',#102);
#102 = CARTESIAN_POINT('',(1.93,0.,0.755));
#103 = LINE('',#104,#105);
#104 = CARTESIAN_POINT('',(1.93,2.55,0.755));
#105 = VECTOR('',#106,1.);
#106 = DIRECTION('',(-0.,-1.,-0.));
#107 = ORIENTED_EDGE('',*,*,#108,.F.);
#108 = EDGE_CURVE('',#109,#101,#111,.T.);
#109 = VERTEX_POINT('',#110);
#110 = CARTESIAN_POINT('',(1.93,0.,0.345));
#111 = CIRCLE('',#112,0.205);
#112 = AXIS2_PLACEMENT_3D('',#113,#114,#115);
#113 = CARTESIAN_POINT('',(1.93,0.,0.55));
#114 = DIRECTION('',(0.,-1.,0.));
#115 = DIRECTION('',(0.,0.,1.));
#116 = ORIENTED_EDGE('',*,*,#117,.F.);
#117 = EDGE_CURVE('',#90,#109,#118,.T.);
#118 = LINE('',#119,#120);
#119 = CARTESIAN_POINT('',(1.93,2.55,0.345));
#120 = VECTOR('',#121,1.);
#121 = DIRECTION('',(-0.,-1.,-0.));
#122 = CYLINDRICAL_SURFACE('',#123,0.205);
#123 = AXIS2_PLACEMENT_3D('',#124,#125,#126);
#124 = CARTESIAN_POINT('',(1.93,2.55,0.55));
#125 = DIRECTION('',(-0.,-1.,-0.));
#126 = DIRECTION('',(0.,0.,-1.));
#127 = ADVANCED_FACE('',(#128),#164,.T.);
#128 = FACE_BOUND('',#129,.T.);
#129 = EDGE_LOOP('',(#130,#141,#149,#158));
#130 = ORIENTED_EDGE('',*,*,#131,.F.);
#131 = EDGE_CURVE('',#132,#134,#136,.T.);
#132 = VERTEX_POINT('',#133);
#133 = CARTESIAN_POINT('',(0.61,2.55,-0.345));
#134 = VERTEX_POINT('',#135);
#135 = CARTESIAN_POINT('',(0.61,2.55,-0.755));
#136 = CIRCLE('',#137,0.205);
#137 = AXIS2_PLACEMENT_3D('',#138,#139,#140);
#138 = CARTESIAN_POINT('',(0.61,2.55,-0.55));
#139 = DIRECTION('',(0.,1.,0.));
#140 = DIRECTION('',(0.,-0.,1.));
#141 = ORIENTED_EDGE('',*,*,#142,.T.);
#142 = EDGE_CURVE('',#132,#143,#145,.T.);
#143 = VERTEX_POINT('',#144);
#144 = CARTESIAN_POINT('',(0.61,2.35,-0.345));
#145 = LINE('',#146,#147);
#146 = CARTESIAN_POINT('',(0.61,2.55,-0.345));
#147 = VECTOR('',#148,1.);
#148 = DIRECTION('',(-0.,-1.,-0.));
#149 = ORIENTED_EDGE('',*,*,#150,.F.);
#150 = EDGE_CURVE('',#151,#143,#153,.T.);
#151 = VERTEX_POINT('',#152);
#152 = CARTESIAN_POINT('',(0.61,2.35,-0.755));
#153 = CIRCLE('',#154,0.205);
#154 = AXIS2_PLACEMENT_3D('',#155,#156,#157);
#155 = CARTESIAN_POINT('',(0.61,2.35,-0.55));
#156 = DIRECTION('',(0.,-1.,0.));
#157 = DIRECTION('',(0.,0.,1.));
#158 = ORIENTED_EDGE('',*,*,#159,.F.);
#159 = EDGE_CURVE('',#134,#151,#160,.T.);
#160 = LINE('',#161,#162);
#161 = CARTESIAN_POINT('',(0.61,2.55,-0.755));
#162 = VECTOR('',#163,1.);
#163 = DIRECTION('',(-0.,-1.,-0.));
#164 = CYLINDRICAL_SURFACE('',#165,0.205);
#165 = AXIS2_PLACEMENT_3D('',#166,#167,#168);
#166 = CARTESIAN_POINT('',(0.61,2.55,-0.55));
#167 = DIRECTION('',(-0.,-1.,-0.));
#168 = DIRECTION('',(0.,0.,-1.));
#169 = ADVANCED_FACE('',(#170),#206,.T.);
#170 = FACE_BOUND('',#171,.T.);
#171 = EDGE_LOOP('',(#172,#183,#191,#200));
#172 = ORIENTED_EDGE('',*,*,#173,.T.);
#173 = EDGE_CURVE('',#174,#176,#178,.T.);
#174 = VERTEX_POINT('',#175);
#175 = CARTESIAN_POINT('',(0.61,0.2,-0.755));
#176 = VERTEX_POINT('',#177);
#177 = CARTESIAN_POINT('',(0.61,0.2,-0.345));
#178 = CIRCLE('',#179,0.205);
#179 = AXIS2_PLACEMENT_3D('',#180,#181,#182);
#180 = CARTESIAN_POINT('',(0.61,0.2,-0.55));
#181 = DIRECTION('',(0.,-1.,0.));
#182 = DIRECTION('',(0.,0.,1.));
#183 = ORIENTED_EDGE('',*,*,#184,.T.);
#184 = EDGE_CURVE('',#176,#185,#187,.T.);
#185 = VERTEX_POINT('',#186);
#186 = CARTESIAN_POINT('',(0.61,0.,-0.345));
#187 = LINE('',#188,#189);
#188 = CARTESIAN_POINT('',(0.61,2.55,-0.345));
#189 = VECTOR('',#190,1.);
#190 = DIRECTION('',(-0.,-1.,-0.));
#191 = ORIENTED_EDGE('',*,*,#192,.F.);
#192 = EDGE_CURVE('',#193,#185,#195,.T.);
#193 = VERTEX_POINT('',#194);
#194 = CARTESIAN_POINT('',(0.61,0.,-0.755));
#195 = CIRCLE('',#196,0.205);
#196 = AXIS2_PLACEMENT_3D('',#197,#198,#199);
#197 = CARTESIAN_POINT('',(0.61,0.,-0.55));
#198 = DIRECTION('',(0.,-1.,0.));
#199 = DIRECTION('',(0.,0.,1.));
#200 = ORIENTED_EDGE('',*,*,#201,.F.);
#201 = EDGE_CURVE('',#174,#193,#202,.T.);
#202 = LINE('',#203,#204);
#203 = CARTESIAN_POINT('',(0.61,2.55,-0.755));
#204 = VECTOR('',#205,1.);
#205 = DIRECTION('',(-0.,-1.,-0.));
#206 = CYLINDRICAL_SURFACE('',#207,0.205);
#207 = AXIS2_PLACEMENT_3D('',#208,#209,#210);
#208 = CARTESIAN_POINT('',(0.61,2.55,-0.55));
#209 = DIRECTION('',(-0.,-1.,-0.));
#210 = DIRECTION('',(0.,0.,-1.));
#211 = ADVANCED_FACE('',(#212),#248,.T.);
#212 = FACE_BOUND('',#213,.T.);
#213 = EDGE_LOOP('',(#214,#225,#233,#242));
#214 = ORIENTED_EDGE('',*,*,#215,.F.);
#215 = EDGE_CURVE('',#216,#218,#220,.T.);
#216 = VERTEX_POINT('',#217);
#217 = CARTESIAN_POINT('',(-0.61,2.55,0.755));
#218 = VERTEX_POINT('',#219);
#219 = CARTESIAN_POINT('',(-0.61,2.55,0.345));
#220 = CIRCLE('',#221,0.205);
#221 = AXIS2_PLACEMENT_3D('',#222,#223,#224);
#222 = CARTESIAN_POINT('',(-0.61,2.55,0.55));
#223 = DIRECTION('',(0.,1.,0.));
#224 = DIRECTION('',(0.,-0.,1.));
#225 = ORIENTED_EDGE('',*,*,#226,.T.);
#226 = EDGE_CURVE('',#216,#227,#229,.T.);
#227 = VERTEX_POINT('',#228);
#228 = CARTESIAN_POINT('',(-0.61,2.35,0.755));
#229 = LINE('',#230,#231);
#230 = CARTESIAN_POINT('',(-0.61,2.55,0.755));
#231 = VECTOR('',#232,1.);
#232 = DIRECTION('',(-0.,-1.,-0.));
#233 = ORIENTED_EDGE('',*,*,#234,.F.);
#234 = EDGE_CURVE('',#235,#227,#237,.T.);
#235 = VERTEX_POINT('',#236);
#236 = CARTESIAN_POINT('',(-0.61,2.35,0.345));
#237 = CIRCLE('',#238,0.205);
#238 = AXIS2_PLACEMENT_3D('',#239,#240,#241);
#239 = CARTESIAN_POINT('',(-0.61,2.35,0.55));
#240 = DIRECTION('',(0.,-1.,0.));
#241 = DIRECTION('',(0.,0.,1.));
#242 = ORIENTED_EDGE('',*,*,#243,.F.);
#243 = EDGE_CURVE('',#218,#235,#244,.T.);
#244 = LINE('',#245,#246);
#245 = CARTESIAN_POINT('',(-0.61,2.55,0.345));
#246 = VECTOR('',#247,1.);
#247 = DIRECTION('',(-0.,-1.,-0.));
#248 = CYLINDRICAL_SURFACE('',#249,0.205);
#249 = AXIS2_PLACEMENT_3D('',#250,#251,#252);
#250 = CARTESIAN_POINT('',(-0.61,2.55,0.55));
#251 = DIRECTION('',(-0.,-1.,-0.));
#252 = DIRECTION('',(0.,0.,-1.));
#253 = ADVANCED_FACE('',(#254),#290,.T.);
#254 = FACE_BOUND('',#255,.T.);
#255 = EDGE_LOOP('',(#256,#267,#275,#284));
#256 = ORIENTED_EDGE('',*,*,#257,.T.);
#257 = EDGE_CURVE('',#258,#260,#262,.T.);
#258 = VERTEX_POINT('',#259);
#259 = CARTESIAN_POINT('',(-0.61,0.2,0.345));
#260 = VERTEX_POINT('',#261);
#261 = CARTESIAN_POINT('',(-0.61,0.2,0.755));
#262 = CIRCLE('',#263,0.205);
#263 = AXIS2_PLACEMENT_3D('',#264,#265,#266);
#264 = CARTESIAN_POINT('',(-0.61,0.2,0.55));
#265 = DIRECTION('',(0.,-1.,0.));
#266 = DIRECTION('',(0.,0.,1.));
#267 = ORIENTED_EDGE('',*,*,#268,.T.);
#268 = EDGE_CURVE('',#260,#269,#271,.T.);
#269 = VERTEX_POINT('',#270);
#270 = CARTESIAN_POINT('',(-0.61,0.,0.755));
#271 = LINE('',#272,#273);
#272 = CARTESIAN_POINT('',(-0.61,2.55,0.755));
#273 = VECTOR('',#274,1.);
#274 = DIRECTION('',(-0.,-1.,-0.));
#275 = ORIENTED_EDGE('',*,*,#276,.F.);
#276 = EDGE_CURVE('',#277,#269,#279,.T.);
#277 = VERTEX_POINT('',#278);
#278 = CARTESIAN_POINT('',(-0.61,0.,0.345));
#279 = CIRCLE('',#280,0.205);
#280 = AXIS2_PLACEMENT_3D('',#281,#282,#283);
#281 = CARTESIAN_POINT('',(-0.61,0.,0.55));
#282 = DIRECTION('',(0.,-1.,0.));
#283 = DIRECTION('',(0.,0.,1.));
#284 = ORIENTED_EDGE('',*,*,#285,.F.);
#285 = EDGE_CURVE('',#258,#277,#286,.T.);
#286 = LINE('',#287,#288);
#287 = CARTESIAN_POINT('',(-0.61,2.55,0.345));
#288 = VECTOR('',#289,1.);
#289 = DIRECTION('',(-0.,-1.,-0.));
#290 = CYLINDRICAL_SURFACE('',#291,0.205);
#291 = AXIS2_PLACEMENT_3D('',#292,#293,#294);
#292 = CARTESIAN_POINT('',(-0.61,2.55,0.55));
#293 = DIRECTION('',(-0.,-1.,-0.));
#294 = DIRECTION('',(0.,0.,-1.));
#295 = ADVANCED_FACE('',(#296),#332,.T.);
#296 = FACE_BOUND('',#297,.T.);
#297 = EDGE_LOOP('',(#298,#309,#317,#326));
#298 = ORIENTED_EDGE('',*,*,#299,.F.);
#299 = EDGE_CURVE('',#300,#302,#304,.T.);
#300 = VERTEX_POINT('',#301);
#301 = CARTESIAN_POINT('',(-1.93,2.55,-0.345));
#302 = VERTEX_POINT('',#303);
#303 = CARTESIAN_POINT('',(-1.93,2.55,-0.755));
#304 = CIRCLE('',#305,0.205);
#305 = AXIS2_PLACEMENT_3D('',#306,#307,#308);
#306 = CARTESIAN_POINT('',(-1.93,2.55,-0.55));
#307 = DIRECTION('',(0.,1.,0.));
#308 = DIRECTION('',(0.,-0.,1.));
#309 = ORIENTED_EDGE('',*,*,#310,.T.);
#310 = EDGE_CURVE('',#300,#311,#313,.T.);
#311 = VERTEX_POINT('',#312);
#312 = CARTESIAN_POINT('',(-1.93,2.35,-0.345));
#313 = LINE('',#314,#315);
#314 = CARTESIAN_POINT('',(-1.93,2.55,-0.345));
#315 = VECTOR('',#316,1.);
#316 = DIRECTION('',(-0.,-1.,-0.));
#317 = ORIENTED_EDGE('',*,*,#318,.F.);
#318 = EDGE_CURVE('',#319,#311,#321,.T.);
#319 = VERTEX_POINT('',#320);
#320 = CARTESIAN_POINT('',(-1.93,2.35,-0.755));
#321 = CIRCLE('',#322,0.205);
#322 = AXIS2_PLACEMENT_3D('',#323,#324,#325);
#323 = CARTESIAN_POINT('',(-1.93,2.35,-0.55));
#324 = DIRECTION('',(0.,-1.,0.));
#325 = DIRECTION('',(0.,0.,1.));
#326 = ORIENTED_EDGE('',*,*,#327,.F.);
#327 = EDGE_CURVE('',#302,#319,#328,.T.);
#328 = LINE('',#329,#330);
#329 = CARTESIAN_POINT('',(-1.93,2.55,-0.755));
#330 = VECTOR('',#331,1.);
#331 = DIRECTION('',(-0.,-1.,-0.));
#332 = CYLINDRICAL_SURFACE('',#333,0.205);
#333 = AXIS2_PLACEMENT_3D('',#334,#335,#336);
#334 = CARTESIAN_POINT('',(-1.93,2.55,-0.55));
#335 = DIRECTION('',(-0.,-1.,-0.));
#336 = DIRECTION('',(0.,0.,-1.));
#337 = ADVANCED_FACE('',(#338),#374,.T.);
#338 = FACE_BOUND('',#339,.T.);
#339 = EDGE_LOOP('',(#340,#351,#359,#368));
#340 = ORIENTED_EDGE('',*,*,#341,.T.);
#341 = EDGE_CURVE('',#342,#344,#346,.T.);
#342 = VERTEX_POINT('',#343);
#343 = CARTESIAN_POINT('',(-1.93,0.2,-0.755));
#344 = VERTEX_POINT('',#345);
#345 = CARTESIAN_POINT('',(-1.93,0.2,-0.345));
#346 = CIRCLE('',#347,0.205);
#347 = AXIS2_PLACEMENT_3D('',#348,#349,#350);
#348 = CARTESIAN_POINT('',(-1.93,0.2,-0.55));
#349 = DIRECTION('',(0.,-1.,0.));
#350 = DIRECTION('',(0.,0.,1.));
#351 = ORIENTED_EDGE('',*,*,#352,.T.);
#352 = EDGE_CURVE('',#344,#353,#355,.T.);
#353 = VERTEX_POINT('',#354);
#354 = CARTESIAN_POINT('',(-1.93,0.,-0.345));
#355 = LINE('',#356,#357);
#356 = CARTESIAN_POINT('',(-1.93,2.55,-0.345));
#357 = VECTOR('',#358,1.);
#358 = DIRECTION('',(-0.,-1.,-0.));
#359 = ORIENTED_EDGE('',*,*,#360,.F.);
#360 = EDGE_CURVE('',#361,#353,#363,.T.);
#361 = VERTEX_POINT('',#362);
#362 = CARTESIAN_POINT('',(-1.93,0.,-0.755));
#363 = CIRCLE('',#364,0.205);
#364 = AXIS2_PLACEMENT_3D('',#365,#366,#367);
#365 = CARTESIAN_POINT('',(-1.93,0.,-0.55));
#366 = DIRECTION('',(0.,-1.,0.));
#367 = DIRECTION('',(0.,0.,1.));
#368 = ORIENTED_EDGE('',*,*,#369,.F.);
#369 = EDGE_CURVE('',#342,#361,#370,.T.);
#370 = LINE('',#371,#372);
#371 = CARTESIAN_POINT('',(-1.93,2.55,-0.755));
#372 = VECTOR('',#373,1.);
#373 = DIRECTION('',(-0.,-1.,-0.));
#374 = CYLINDRICAL_SURFACE('',#375,0.205);
#375 = AXIS2_PLACEMENT_3D('',#376,#377,#378);
#376 = CARTESIAN_POINT('',(-1.93,2.55,-0.55));
#377 = DIRECTION('',(-0.,-1.,-0.));
#378 = DIRECTION('',(0.,0.,-1.));
#379 = ADVANCED_FACE('',(#380),#414,.F.);
#380 = FACE_BOUND('',#381,.T.);
#381 = EDGE_LOOP('',(#382,#392,#400,#408));
#382 = ORIENTED_EDGE('',*,*,#383,.F.);
#383 = EDGE_CURVE('',#384,#386,#388,.T.);
#384 = VERTEX_POINT('',#385);
#385 = CARTESIAN_POINT('',(2.23804086405,2.35,-1.205));
#386 = VERTEX_POINT('',#387);
#387 = CARTESIAN_POINT('',(0.30195913595,2.35,-1.205));
#388 = LINE('',#389,#390);
#389 = CARTESIAN_POINT('',(2.54,2.35,-1.205));
#390 = VECTOR('',#391,1.);
#391 = DIRECTION('',(-1.,0.,8.537024980201E-17));
#392 = ORIENTED_EDGE('',*,*,#393,.T.);
#393 = EDGE_CURVE('',#384,#394,#396,.T.);
#394 = VERTEX_POINT('',#395);
#395 = CARTESIAN_POINT('',(2.23804086405,0.2,-1.205));
#396 = LINE('',#397,#398);
#397 = CARTESIAN_POINT('',(2.23804086405,2.35,-1.205));
#398 = VECTOR('',#399,1.);
#399 = DIRECTION('',(0.,-1.,0.));
#400 = ORIENTED_EDGE('',*,*,#401,.T.);
#401 = EDGE_CURVE('',#394,#402,#404,.T.);
#402 = VERTEX_POINT('',#403);
#403 = CARTESIAN_POINT('',(0.30195913595,0.2,-1.205));
#404 = LINE('',#405,#406);
#405 = CARTESIAN_POINT('',(2.54,0.2,-1.205));
#406 = VECTOR('',#407,1.);
#407 = DIRECTION('',(-1.,0.,8.537024980201E-17));
#408 = ORIENTED_EDGE('',*,*,#409,.T.);
#409 = EDGE_CURVE('',#402,#386,#410,.T.);
#410 = LINE('',#411,#412);
#411 = CARTESIAN_POINT('',(0.30195913595,2.35,-1.205));
#412 = VECTOR('',#413,1.);
#413 = DIRECTION('',(-0.,1.,0.));
#414 = PLANE('',#415);
#415 = AXIS2_PLACEMENT_3D('',#416,#417,#418);
#416 = CARTESIAN_POINT('',(2.54,2.35,-1.205));
#417 = DIRECTION('',(8.537024980201E-17,-0.,1.));
#418 = DIRECTION('',(1.,0.,-8.537024980201E-17));
#419 = ADVANCED_FACE('',(#420),#454,.F.);
#420 = FACE_BOUND('',#421,.T.);
#421 = EDGE_LOOP('',(#422,#432,#440,#448));
#422 = ORIENTED_EDGE('',*,*,#423,.T.);
#423 = EDGE_CURVE('',#424,#426,#428,.T.);
#424 = VERTEX_POINT('',#425);
#425 = CARTESIAN_POINT('',(-2.23804086405,0.2,1.205));
#426 = VERTEX_POINT('',#427);
#427 = CARTESIAN_POINT('',(-0.30195913595,0.2,1.205));
#428 = LINE('',#429,#430);
#429 = CARTESIAN_POINT('',(-2.54,0.2,1.205));
#430 = VECTOR('',#431,1.);
#431 = DIRECTION('',(1.,0.,-8.537024980201E-17));
#432 = ORIENTED_EDGE('',*,*,#433,.T.);
#433 = EDGE_CURVE('',#426,#434,#436,.T.);
#434 = VERTEX_POINT('',#435);
#435 = CARTESIAN_POINT('',(-0.30195913595,2.35,1.205));
#436 = LINE('',#437,#438);
#437 = CARTESIAN_POINT('',(-0.30195913595,2.35,1.205));
#438 = VECTOR('',#439,1.);
#439 = DIRECTION('',(0.,1.,0.));
#440 = ORIENTED_EDGE('',*,*,#441,.F.);
#441 = EDGE_CURVE('',#442,#434,#444,.T.);
#442 = VERTEX_POINT('',#443);
#443 = CARTESIAN_POINT('',(-2.23804086405,2.35,1.205));
#444 = LINE('',#445,#446);
#445 = CARTESIAN_POINT('',(-2.54,2.35,1.205));
#446 = VECTOR('',#447,1.);
#447 = DIRECTION('',(1.,0.,-8.537024980201E-17));
#448 = ORIENTED_EDGE('',*,*,#449,.T.);
#449 = EDGE_CURVE('',#442,#424,#450,.T.);
#450 = LINE('',#451,#452);
#451 = CARTESIAN_POINT('',(-2.23804086405,2.35,1.205));
#452 = VECTOR('',#453,1.);
#453 = DIRECTION('',(0.,-1.,0.));
#454 = PLANE('',#455);
#455 = AXIS2_PLACEMENT_3D('',#456,#457,#458);
#456 = CARTESIAN_POINT('',(-2.54,2.35,1.205));
#457 = DIRECTION('',(-8.537024980201E-17,0.,-1.));
#458 = DIRECTION('',(-1.,0.,8.537024980201E-17));
#459 = ADVANCED_FACE('',(#460,#556,#566,#576,#586,#596,#630),#664,.T.);
#460 = FACE_BOUND('',#461,.T.);
#461 = EDGE_LOOP('',(#462,#470,#478,#486,#494,#502,#508,#509,#517,#525,
    #533,#541,#549,#555));
#462 = ORIENTED_EDGE('',*,*,#463,.F.);
#463 = EDGE_CURVE('',#464,#434,#466,.T.);
#464 = VERTEX_POINT('',#465);
#465 = CARTESIAN_POINT('',(0.,2.35,0.55));
#466 = LINE('',#467,#468);
#467 = CARTESIAN_POINT('',(0.,2.35,0.55));
#468 = VECTOR('',#469,1.);
#469 = DIRECTION('',(-0.418659737537,0.,0.908143173825));
#470 = ORIENTED_EDGE('',*,*,#471,.F.);
#471 = EDGE_CURVE('',#472,#464,#474,.T.);
#472 = VERTEX_POINT('',#473);
#473 = CARTESIAN_POINT('',(0.30195913595,2.35,1.205));
#474 = LINE('',#475,#476);
#475 = CARTESIAN_POINT('',(0.,2.35,0.55));
#476 = VECTOR('',#477,1.);
#477 = DIRECTION('',(-0.418659737537,-0.,-0.908143173825));
#478 = ORIENTED_EDGE('',*,*,#479,.T.);
#479 = EDGE_CURVE('',#472,#480,#482,.T.);
#480 = VERTEX_POINT('',#481);
#481 = CARTESIAN_POINT('',(2.23804086405,2.35,1.205));
#482 = LINE('',#483,#484);
#483 = CARTESIAN_POINT('',(-2.54,2.35,1.205));
#484 = VECTOR('',#485,1.);
#485 = DIRECTION('',(1.,0.,-8.537024980201E-17));
#486 = ORIENTED_EDGE('',*,*,#487,.F.);
#487 = EDGE_CURVE('',#488,#480,#490,.T.);
#488 = VERTEX_POINT('',#489);
#489 = CARTESIAN_POINT('',(2.54,2.35,0.55));
#490 = LINE('',#491,#492);
#491 = CARTESIAN_POINT('',(2.54,2.35,0.55));
#492 = VECTOR('',#493,1.);
#493 = DIRECTION('',(-0.418659737537,0.,0.908143173825));
#494 = ORIENTED_EDGE('',*,*,#495,.T.);
#495 = EDGE_CURVE('',#488,#496,#498,.T.);
#496 = VERTEX_POINT('',#497);
#497 = CARTESIAN_POINT('',(2.54,2.35,-0.55));
#498 = LINE('',#499,#500);
#499 = CARTESIAN_POINT('',(2.54,2.35,1.205));
#500 = VECTOR('',#501,1.);
#501 = DIRECTION('',(0.,0.,-1.));
#502 = ORIENTED_EDGE('',*,*,#503,.F.);
#503 = EDGE_CURVE('',#384,#496,#504,.T.);
#504 = LINE('',#505,#506);
#505 = CARTESIAN_POINT('',(2.54,2.35,-0.55));
#506 = VECTOR('',#507,1.);
#507 = DIRECTION('',(0.418659737537,-0.,0.908143173825));
#508 = ORIENTED_EDGE('',*,*,#383,.T.);
#509 = ORIENTED_EDGE('',*,*,#510,.F.);
#510 = EDGE_CURVE('',#511,#386,#513,.T.);
#511 = VERTEX_POINT('',#512);
#512 = CARTESIAN_POINT('',(0.,2.35,-0.55));
#513 = LINE('',#514,#515);
#514 = CARTESIAN_POINT('',(0.,2.35,-0.55));
#515 = VECTOR('',#516,1.);
#516 = DIRECTION('',(0.418659737537,0.,-0.908143173825));
#517 = ORIENTED_EDGE('',*,*,#518,.F.);
#518 = EDGE_CURVE('',#519,#511,#521,.T.);
#519 = VERTEX_POINT('',#520);
#520 = CARTESIAN_POINT('',(-0.30195913595,2.35,-1.205));
#521 = LINE('',#522,#523);
#522 = CARTESIAN_POINT('',(0.,2.35,-0.55));
#523 = VECTOR('',#524,1.);
#524 = DIRECTION('',(0.418659737537,-0.,0.908143173825));
#525 = ORIENTED_EDGE('',*,*,#526,.T.);
#526 = EDGE_CURVE('',#519,#527,#529,.T.);
#527 = VERTEX_POINT('',#528);
#528 = CARTESIAN_POINT('',(-2.23804086405,2.35,-1.205));
#529 = LINE('',#530,#531);
#530 = CARTESIAN_POINT('',(2.54,2.35,-1.205));
#531 = VECTOR('',#532,1.);
#532 = DIRECTION('',(-1.,0.,8.537024980201E-17));
#533 = ORIENTED_EDGE('',*,*,#534,.F.);
#534 = EDGE_CURVE('',#535,#527,#537,.T.);
#535 = VERTEX_POINT('',#536);
#536 = CARTESIAN_POINT('',(-2.54,2.35,-0.55));
#537 = LINE('',#538,#539);
#538 = CARTESIAN_POINT('',(-2.54,2.35,-0.55));
#539 = VECTOR('',#540,1.);
#540 = DIRECTION('',(0.418659737537,0.,-0.908143173825));
#541 = ORIENTED_EDGE('',*,*,#542,.T.);
#542 = EDGE_CURVE('',#535,#543,#545,.T.);
#543 = VERTEX_POINT('',#544);
#544 = CARTESIAN_POINT('',(-2.54,2.35,0.55));
#545 = LINE('',#546,#547);
#546 = CARTESIAN_POINT('',(-2.54,2.35,-1.205));
#547 = VECTOR('',#548,1.);
#548 = DIRECTION('',(0.,0.,1.));
#549 = ORIENTED_EDGE('',*,*,#550,.F.);
#550 = EDGE_CURVE('',#442,#543,#551,.T.);
#551 = LINE('',#552,#553);
#552 = CARTESIAN_POINT('',(-2.54,2.35,0.55));
#553 = VECTOR('',#554,1.);
#554 = DIRECTION('',(-0.418659737537,-0.,-0.908143173825));
#555 = ORIENTED_EDGE('',*,*,#441,.T.);
#556 = FACE_BOUND('',#557,.T.);
#557 = EDGE_LOOP('',(#558,#559));
#558 = ORIENTED_EDGE('',*,*,#66,.T.);
#559 = ORIENTED_EDGE('',*,*,#560,.T.);
#560 = EDGE_CURVE('',#59,#67,#561,.T.);
#561 = CIRCLE('',#562,0.205);
#562 = AXIS2_PLACEMENT_3D('',#563,#564,#565);
#563 = CARTESIAN_POINT('',(1.93,2.35,0.55));
#564 = DIRECTION('',(0.,-1.,0.));
#565 = DIRECTION('',(0.,0.,1.));
#566 = FACE_BOUND('',#567,.T.);
#567 = EDGE_LOOP('',(#568,#569));
#568 = ORIENTED_EDGE('',*,*,#150,.T.);
#569 = ORIENTED_EDGE('',*,*,#570,.T.);
#570 = EDGE_CURVE('',#143,#151,#571,.T.);
#571 = CIRCLE('',#572,0.205);
#572 = AXIS2_PLACEMENT_3D('',#573,#574,#575);
#573 = CARTESIAN_POINT('',(0.61,2.35,-0.55));
#574 = DIRECTION('',(0.,-1.,0.));
#575 = DIRECTION('',(0.,0.,1.));
#576 = FACE_BOUND('',#577,.T.);
#577 = EDGE_LOOP('',(#578,#579));
#578 = ORIENTED_EDGE('',*,*,#234,.T.);
#579 = ORIENTED_EDGE('',*,*,#580,.T.);
#580 = EDGE_CURVE('',#227,#235,#581,.T.);
#581 = CIRCLE('',#582,0.205);
#582 = AXIS2_PLACEMENT_3D('',#583,#584,#585);
#583 = CARTESIAN_POINT('',(-0.61,2.35,0.55));
#584 = DIRECTION('',(0.,-1.,0.));
#585 = DIRECTION('',(0.,0.,1.));
#586 = FACE_BOUND('',#587,.T.);
#587 = EDGE_LOOP('',(#588,#589));
#588 = ORIENTED_EDGE('',*,*,#318,.T.);
#589 = ORIENTED_EDGE('',*,*,#590,.T.);
#590 = EDGE_CURVE('',#311,#319,#591,.T.);
#591 = CIRCLE('',#592,0.205);
#592 = AXIS2_PLACEMENT_3D('',#593,#594,#595);
#593 = CARTESIAN_POINT('',(-1.93,2.35,-0.55));
#594 = DIRECTION('',(0.,-1.,0.));
#595 = DIRECTION('',(0.,0.,1.));
#596 = FACE_BOUND('',#597,.T.);
#597 = EDGE_LOOP('',(#598,#608,#616,#624));
#598 = ORIENTED_EDGE('',*,*,#599,.F.);
#599 = EDGE_CURVE('',#600,#602,#604,.T.);
#600 = VERTEX_POINT('',#601);
#601 = CARTESIAN_POINT('',(-1.59,2.35,0.32));
#602 = VERTEX_POINT('',#603);
#603 = CARTESIAN_POINT('',(-0.95,2.35,0.32));
#604 = LINE('',#605,#606);
#605 = CARTESIAN_POINT('',(-0.95,2.35,0.32));
#606 = VECTOR('',#607,1.);
#607 = DIRECTION('',(1.,-0.,-1.694065894509E-16));
#608 = ORIENTED_EDGE('',*,*,#609,.F.);
#609 = EDGE_CURVE('',#610,#600,#612,.T.);
#610 = VERTEX_POINT('',#611);
#611 = CARTESIAN_POINT('',(-1.59,2.35,-0.32));
#612 = LINE('',#613,#614);
#613 = CARTESIAN_POINT('',(-1.59,2.35,0.32));
#614 = VECTOR('',#615,1.);
#615 = DIRECTION('',(-0.,-0.,1.));
#616 = ORIENTED_EDGE('',*,*,#617,.F.);
#617 = EDGE_CURVE('',#618,#610,#620,.T.);
#618 = VERTEX_POINT('',#619);
#619 = CARTESIAN_POINT('',(-0.95,2.35,-0.32));
#620 = LINE('',#621,#622);
#621 = CARTESIAN_POINT('',(-0.95,2.35,-0.32));
#622 = VECTOR('',#623,1.);
#623 = DIRECTION('',(-1.,0.,8.470329472543E-17));
#624 = ORIENTED_EDGE('',*,*,#625,.F.);
#625 = EDGE_CURVE('',#602,#618,#626,.T.);
#626 = LINE('',#627,#628);
#627 = CARTESIAN_POINT('',(-0.95,2.35,0.32));
#628 = VECTOR('',#629,1.);
#629 = DIRECTION('',(-1.694065894509E-16,0.,-1.));
#630 = FACE_BOUND('',#631,.T.);
#631 = EDGE_LOOP('',(#632,#642,#650,#658));
#632 = ORIENTED_EDGE('',*,*,#633,.T.);
#633 = EDGE_CURVE('',#634,#636,#638,.T.);
#634 = VERTEX_POINT('',#635);
#635 = CARTESIAN_POINT('',(1.59,2.35,0.32));
#636 = VERTEX_POINT('',#637);
#637 = CARTESIAN_POINT('',(0.95,2.35,0.32));
#638 = LINE('',#639,#640);
#639 = CARTESIAN_POINT('',(5.421010862428E-17,2.35,0.32));
#640 = VECTOR('',#641,1.);
#641 = DIRECTION('',(-1.,0.,1.694065894509E-16));
#642 = ORIENTED_EDGE('',*,*,#643,.T.);
#643 = EDGE_CURVE('',#636,#644,#646,.T.);
#644 = VERTEX_POINT('',#645);
#645 = CARTESIAN_POINT('',(0.95,2.35,-0.32));
#646 = LINE('',#647,#648);
#647 = CARTESIAN_POINT('',(0.95,2.35,0.));
#648 = VECTOR('',#649,1.);
#649 = DIRECTION('',(0.,0.,-1.));
#650 = ORIENTED_EDGE('',*,*,#651,.T.);
#651 = EDGE_CURVE('',#644,#652,#654,.T.);
#652 = VERTEX_POINT('',#653);
#653 = CARTESIAN_POINT('',(1.59,2.35,-0.32));
#654 = LINE('',#655,#656);
#655 = CARTESIAN_POINT('',(-2.710505431214E-17,2.35,-0.32));
#656 = VECTOR('',#657,1.);
#657 = DIRECTION('',(1.,0.,-8.470329472543E-17));
#658 = ORIENTED_EDGE('',*,*,#659,.T.);
#659 = EDGE_CURVE('',#652,#634,#660,.T.);
#660 = LINE('',#661,#662);
#661 = CARTESIAN_POINT('',(1.59,2.35,-2.693564772269E-16));
#662 = VECTOR('',#663,1.);
#663 = DIRECTION('',(1.694065894509E-16,-0.,1.));
#664 = PLANE('',#665);
#665 = AXIS2_PLACEMENT_3D('',#666,#667,#668);
#666 = CARTESIAN_POINT('',(0.,2.35,0.));
#667 = DIRECTION('',(0.,1.,0.));
#668 = DIRECTION('',(0.,-0.,1.));
#669 = ADVANCED_FACE('',(#670,#680,#690,#724,#820,#830,#840),#874,.F.);
#670 = FACE_BOUND('',#671,.T.);
#671 = EDGE_LOOP('',(#672,#673));
#672 = ORIENTED_EDGE('',*,*,#89,.F.);
#673 = ORIENTED_EDGE('',*,*,#674,.F.);
#674 = EDGE_CURVE('',#92,#90,#675,.T.);
#675 = CIRCLE('',#676,0.205);
#676 = AXIS2_PLACEMENT_3D('',#677,#678,#679);
#677 = CARTESIAN_POINT('',(1.93,0.2,0.55));
#678 = DIRECTION('',(0.,-1.,0.));
#679 = DIRECTION('',(0.,0.,1.));
#680 = FACE_BOUND('',#681,.T.);
#681 = EDGE_LOOP('',(#682,#683));
#682 = ORIENTED_EDGE('',*,*,#173,.F.);
#683 = ORIENTED_EDGE('',*,*,#684,.F.);
#684 = EDGE_CURVE('',#176,#174,#685,.T.);
#685 = CIRCLE('',#686,0.205);
#686 = AXIS2_PLACEMENT_3D('',#687,#688,#689);
#687 = CARTESIAN_POINT('',(0.61,0.2,-0.55));
#688 = DIRECTION('',(0.,-1.,0.));
#689 = DIRECTION('',(0.,0.,1.));
#690 = FACE_BOUND('',#691,.T.);
#691 = EDGE_LOOP('',(#692,#702,#710,#718));
#692 = ORIENTED_EDGE('',*,*,#693,.F.);
#693 = EDGE_CURVE('',#694,#696,#698,.T.);
#694 = VERTEX_POINT('',#695);
#695 = CARTESIAN_POINT('',(-1.59,0.2,0.32));
#696 = VERTEX_POINT('',#697);
#697 = CARTESIAN_POINT('',(-1.59,0.2,-0.32));
#698 = LINE('',#699,#700);
#699 = CARTESIAN_POINT('',(-1.59,0.2,0.));
#700 = VECTOR('',#701,1.);
#701 = DIRECTION('',(0.,0.,-1.));
#702 = ORIENTED_EDGE('',*,*,#703,.F.);
#703 = EDGE_CURVE('',#704,#694,#706,.T.);
#704 = VERTEX_POINT('',#705);
#705 = CARTESIAN_POINT('',(-0.95,0.2,0.32));
#706 = LINE('',#707,#708);
#707 = CARTESIAN_POINT('',(5.421010862428E-17,0.2,0.32));
#708 = VECTOR('',#709,1.);
#709 = DIRECTION('',(-1.,0.,1.694065894509E-16));
#710 = ORIENTED_EDGE('',*,*,#711,.F.);
#711 = EDGE_CURVE('',#712,#704,#714,.T.);
#712 = VERTEX_POINT('',#713);
#713 = CARTESIAN_POINT('',(-0.95,0.2,-0.32));
#714 = LINE('',#715,#716);
#715 = CARTESIAN_POINT('',(-0.95,0.2,1.609362599783E-16));
#716 = VECTOR('',#717,1.);
#717 = DIRECTION('',(1.694065894509E-16,-0.,1.));
#718 = ORIENTED_EDGE('',*,*,#719,.F.);
#719 = EDGE_CURVE('',#696,#712,#720,.T.);
#720 = LINE('',#721,#722);
#721 = CARTESIAN_POINT('',(-2.710505431214E-17,0.2,-0.32));
#722 = VECTOR('',#723,1.);
#723 = DIRECTION('',(1.,0.,-8.470329472543E-17));
#724 = FACE_BOUND('',#725,.T.);
#725 = EDGE_LOOP('',(#726,#736,#742,#743,#751,#759,#767,#775,#783,#789,
    #790,#798,#806,#814));
#726 = ORIENTED_EDGE('',*,*,#727,.T.);
#727 = EDGE_CURVE('',#728,#730,#732,.T.);
#728 = VERTEX_POINT('',#729);
#729 = CARTESIAN_POINT('',(0.30195913595,0.2,1.205));
#730 = VERTEX_POINT('',#731);
#731 = CARTESIAN_POINT('',(0.,0.2,0.55));
#732 = LINE('',#733,#734);
#733 = CARTESIAN_POINT('',(-0.20911164054,0.2,9.64017867092E-02));
#734 = VECTOR('',#735,1.);
#735 = DIRECTION('',(-0.418659737537,0.,-0.908143173825));
#736 = ORIENTED_EDGE('',*,*,#737,.T.);
#737 = EDGE_CURVE('',#730,#426,#738,.T.);
#738 = LINE('',#739,#740);
#739 = CARTESIAN_POINT('',(0.20911164054,0.2,9.64017867092E-02));
#740 = VECTOR('',#741,1.);
#741 = DIRECTION('',(-0.418659737537,0.,0.908143173825));
#742 = ORIENTED_EDGE('',*,*,#423,.F.);
#743 = ORIENTED_EDGE('',*,*,#744,.T.);
#744 = EDGE_CURVE('',#424,#745,#747,.T.);
#745 = VERTEX_POINT('',#746);
#746 = CARTESIAN_POINT('',(-2.54,0.2,0.55));
#747 = LINE('',#748,#749);
#748 = CARTESIAN_POINT('',(-2.303910661919,0.2,1.062117363021));
#749 = VECTOR('',#750,1.);
#750 = DIRECTION('',(-0.418659737537,0.,-0.908143173825));
#751 = ORIENTED_EDGE('',*,*,#752,.F.);
#752 = EDGE_CURVE('',#753,#745,#755,.T.);
#753 = VERTEX_POINT('',#754);
#754 = CARTESIAN_POINT('',(-2.54,0.2,-0.55));
#755 = LINE('',#756,#757);
#756 = CARTESIAN_POINT('',(-2.54,0.2,-1.205));
#757 = VECTOR('',#758,1.);
#758 = DIRECTION('',(0.,0.,1.));
#759 = ORIENTED_EDGE('',*,*,#760,.T.);
#760 = EDGE_CURVE('',#753,#761,#763,.T.);
#761 = VERTEX_POINT('',#762);
#762 = CARTESIAN_POINT('',(-2.23804086405,0.2,-1.205));
#763 = LINE('',#764,#765);
#764 = CARTESIAN_POINT('',(-2.303910661919,0.2,-1.062117363021));
#765 = VECTOR('',#766,1.);
#766 = DIRECTION('',(0.418659737537,0.,-0.908143173825));
#767 = ORIENTED_EDGE('',*,*,#768,.F.);
#768 = EDGE_CURVE('',#769,#761,#771,.T.);
#769 = VERTEX_POINT('',#770);
#770 = CARTESIAN_POINT('',(-0.30195913595,0.2,-1.205));
#771 = LINE('',#772,#773);
#772 = CARTESIAN_POINT('',(2.54,0.2,-1.205));
#773 = VECTOR('',#774,1.);
#774 = DIRECTION('',(-1.,0.,8.537024980201E-17));
#775 = ORIENTED_EDGE('',*,*,#776,.T.);
#776 = EDGE_CURVE('',#769,#777,#779,.T.);
#777 = VERTEX_POINT('',#778);
#778 = CARTESIAN_POINT('',(0.,0.2,-0.55));
#779 = LINE('',#780,#781);
#780 = CARTESIAN_POINT('',(0.20911164054,0.2,-9.64017867092E-02));
#781 = VECTOR('',#782,1.);
#782 = DIRECTION('',(0.418659737537,-0.,0.908143173825));
#783 = ORIENTED_EDGE('',*,*,#784,.T.);
#784 = EDGE_CURVE('',#777,#402,#785,.T.);
#785 = LINE('',#786,#787);
#786 = CARTESIAN_POINT('',(-0.20911164054,0.2,-9.64017867092E-02));
#787 = VECTOR('',#788,1.);
#788 = DIRECTION('',(0.418659737537,0.,-0.908143173825));
#789 = ORIENTED_EDGE('',*,*,#401,.F.);
#790 = ORIENTED_EDGE('',*,*,#791,.T.);
#791 = EDGE_CURVE('',#394,#792,#794,.T.);
#792 = VERTEX_POINT('',#793);
#793 = CARTESIAN_POINT('',(2.54,0.2,-0.55));
#794 = LINE('',#795,#796);
#795 = CARTESIAN_POINT('',(2.303910661919,0.2,-1.062117363021));
#796 = VECTOR('',#797,1.);
#797 = DIRECTION('',(0.418659737537,-0.,0.908143173825));
#798 = ORIENTED_EDGE('',*,*,#799,.F.);
#799 = EDGE_CURVE('',#800,#792,#802,.T.);
#800 = VERTEX_POINT('',#801);
#801 = CARTESIAN_POINT('',(2.54,0.2,0.55));
#802 = LINE('',#803,#804);
#803 = CARTESIAN_POINT('',(2.54,0.2,1.205));
#804 = VECTOR('',#805,1.);
#805 = DIRECTION('',(0.,0.,-1.));
#806 = ORIENTED_EDGE('',*,*,#807,.T.);
#807 = EDGE_CURVE('',#800,#808,#810,.T.);
#808 = VERTEX_POINT('',#809);
#809 = CARTESIAN_POINT('',(2.23804086405,0.2,1.205));
#810 = LINE('',#811,#812);
#811 = CARTESIAN_POINT('',(2.303910661919,0.2,1.062117363021));
#812 = VECTOR('',#813,1.);
#813 = DIRECTION('',(-0.418659737537,0.,0.908143173825));
#814 = ORIENTED_EDGE('',*,*,#815,.F.);
#815 = EDGE_CURVE('',#728,#808,#816,.T.);
#816 = LINE('',#817,#818);
#817 = CARTESIAN_POINT('',(-2.54,0.2,1.205));
#818 = VECTOR('',#819,1.);
#819 = DIRECTION('',(1.,0.,-8.537024980201E-17));
#820 = FACE_BOUND('',#821,.T.);
#821 = EDGE_LOOP('',(#822,#823));
#822 = ORIENTED_EDGE('',*,*,#341,.F.);
#823 = ORIENTED_EDGE('',*,*,#824,.F.);
#824 = EDGE_CURVE('',#344,#342,#825,.T.);
#825 = CIRCLE('',#826,0.205);
#826 = AXIS2_PLACEMENT_3D('',#827,#828,#829);
#827 = CARTESIAN_POINT('',(-1.93,0.2,-0.55));
#828 = DIRECTION('',(0.,-1.,0.));
#829 = DIRECTION('',(0.,0.,1.));
#830 = FACE_BOUND('',#831,.T.);
#831 = EDGE_LOOP('',(#832,#833));
#832 = ORIENTED_EDGE('',*,*,#257,.F.);
#833 = ORIENTED_EDGE('',*,*,#834,.F.);
#834 = EDGE_CURVE('',#260,#258,#835,.T.);
#835 = CIRCLE('',#836,0.205);
#836 = AXIS2_PLACEMENT_3D('',#837,#838,#839);
#837 = CARTESIAN_POINT('',(-0.61,0.2,0.55));
#838 = DIRECTION('',(0.,-1.,0.));
#839 = DIRECTION('',(0.,0.,1.));
#840 = FACE_BOUND('',#841,.T.);
#841 = EDGE_LOOP('',(#842,#852,#860,#868));
#842 = ORIENTED_EDGE('',*,*,#843,.F.);
#843 = EDGE_CURVE('',#844,#846,#848,.T.);
#844 = VERTEX_POINT('',#845);
#845 = CARTESIAN_POINT('',(0.95,0.2,0.32));
#846 = VERTEX_POINT('',#847);
#847 = CARTESIAN_POINT('',(0.95,0.2,-0.32));
#848 = LINE('',#849,#850);
#849 = CARTESIAN_POINT('',(0.95,0.2,0.));
#850 = VECTOR('',#851,1.);
#851 = DIRECTION('',(0.,0.,-1.));
#852 = ORIENTED_EDGE('',*,*,#853,.F.);
#853 = EDGE_CURVE('',#854,#844,#856,.T.);
#854 = VERTEX_POINT('',#855);
#855 = CARTESIAN_POINT('',(1.59,0.2,0.32));
#856 = LINE('',#857,#858);
#857 = CARTESIAN_POINT('',(5.421010862428E-17,0.2,0.32));
#858 = VECTOR('',#859,1.);
#859 = DIRECTION('',(-1.,0.,1.694065894509E-16));
#860 = ORIENTED_EDGE('',*,*,#861,.F.);
#861 = EDGE_CURVE('',#862,#854,#864,.T.);
#862 = VERTEX_POINT('',#863);
#863 = CARTESIAN_POINT('',(1.59,0.2,-0.32));
#864 = LINE('',#865,#866);
#865 = CARTESIAN_POINT('',(1.59,0.2,-2.693564772269E-16));
#866 = VECTOR('',#867,1.);
#867 = DIRECTION('',(1.694065894509E-16,-0.,1.));
#868 = ORIENTED_EDGE('',*,*,#869,.F.);
#869 = EDGE_CURVE('',#846,#862,#870,.T.);
#870 = LINE('',#871,#872);
#871 = CARTESIAN_POINT('',(-2.710505431214E-17,0.2,-0.32));
#872 = VECTOR('',#873,1.);
#873 = DIRECTION('',(1.,0.,-8.470329472543E-17));
#874 = PLANE('',#875);
#875 = AXIS2_PLACEMENT_3D('',#876,#877,#878);
#876 = CARTESIAN_POINT('',(0.,0.2,0.));
#877 = DIRECTION('',(0.,1.,0.));
#878 = DIRECTION('',(0.,-0.,1.));
#879 = ADVANCED_FACE('',(#880),#896,.F.);
#880 = FACE_BOUND('',#881,.T.);
#881 = EDGE_LOOP('',(#882,#883,#889,#890));
#882 = ORIENTED_EDGE('',*,*,#799,.T.);
#883 = ORIENTED_EDGE('',*,*,#884,.T.);
#884 = EDGE_CURVE('',#792,#496,#885,.T.);
#885 = LINE('',#886,#887);
#886 = CARTESIAN_POINT('',(2.54,0.,-0.55));
#887 = VECTOR('',#888,1.);
#888 = DIRECTION('',(-0.,1.,-0.));
#889 = ORIENTED_EDGE('',*,*,#495,.F.);
#890 = ORIENTED_EDGE('',*,*,#891,.F.);
#891 = EDGE_CURVE('',#800,#488,#892,.T.);
#892 = LINE('',#893,#894);
#893 = CARTESIAN_POINT('',(2.54,0.,0.55));
#894 = VECTOR('',#895,1.);
#895 = DIRECTION('',(-0.,1.,-0.));
#896 = PLANE('',#897);
#897 = AXIS2_PLACEMENT_3D('',#898,#899,#900);
#898 = CARTESIAN_POINT('',(2.54,2.35,1.205));
#899 = DIRECTION('',(-1.,0.,0.));
#900 = DIRECTION('',(0.,0.,1.));
#901 = ADVANCED_FACE('',(#902),#918,.F.);
#902 = FACE_BOUND('',#903,.T.);
#903 = EDGE_LOOP('',(#904,#905,#911,#912));
#904 = ORIENTED_EDGE('',*,*,#526,.F.);
#905 = ORIENTED_EDGE('',*,*,#906,.T.);
#906 = EDGE_CURVE('',#519,#769,#907,.T.);
#907 = LINE('',#908,#909);
#908 = CARTESIAN_POINT('',(-0.30195913595,2.35,-1.205));
#909 = VECTOR('',#910,1.);
#910 = DIRECTION('',(0.,-1.,0.));
#911 = ORIENTED_EDGE('',*,*,#768,.T.);
#912 = ORIENTED_EDGE('',*,*,#913,.T.);
#913 = EDGE_CURVE('',#761,#527,#914,.T.);
#914 = LINE('',#915,#916);
#915 = CARTESIAN_POINT('',(-2.23804086405,0.,-1.205));
#916 = VECTOR('',#917,1.);
#917 = DIRECTION('',(-0.,1.,-0.));
#918 = PLANE('',#919);
#919 = AXIS2_PLACEMENT_3D('',#920,#921,#922);
#920 = CARTESIAN_POINT('',(2.54,2.35,-1.205));
#921 = DIRECTION('',(8.537024980201E-17,-0.,1.));
#922 = DIRECTION('',(1.,0.,-8.537024980201E-17));
#923 = ADVANCED_FACE('',(#924),#940,.F.);
#924 = FACE_BOUND('',#925,.T.);
#925 = EDGE_LOOP('',(#926,#927,#933,#934));
#926 = ORIENTED_EDGE('',*,*,#542,.F.);
#927 = ORIENTED_EDGE('',*,*,#928,.T.);
#928 = EDGE_CURVE('',#535,#753,#929,.T.);
#929 = LINE('',#930,#931);
#930 = CARTESIAN_POINT('',(-2.54,2.35,-0.55));
#931 = VECTOR('',#932,1.);
#932 = DIRECTION('',(0.,-1.,0.));
#933 = ORIENTED_EDGE('',*,*,#752,.T.);
#934 = ORIENTED_EDGE('',*,*,#935,.T.);
#935 = EDGE_CURVE('',#745,#543,#936,.T.);
#936 = LINE('',#937,#938);
#937 = CARTESIAN_POINT('',(-2.54,0.,0.55));
#938 = VECTOR('',#939,1.);
#939 = DIRECTION('',(-0.,1.,-0.));
#940 = PLANE('',#941);
#941 = AXIS2_PLACEMENT_3D('',#942,#943,#944);
#942 = CARTESIAN_POINT('',(-2.54,2.35,-1.205));
#943 = DIRECTION('',(1.,0.,0.));
#944 = DIRECTION('',(0.,0.,-1.));
#945 = ADVANCED_FACE('',(#946),#962,.F.);
#946 = FACE_BOUND('',#947,.T.);
#947 = EDGE_LOOP('',(#948,#949,#955,#956));
#948 = ORIENTED_EDGE('',*,*,#479,.F.);
#949 = ORIENTED_EDGE('',*,*,#950,.T.);
#950 = EDGE_CURVE('',#472,#728,#951,.T.);
#951 = LINE('',#952,#953);
#952 = CARTESIAN_POINT('',(0.30195913595,2.35,1.205));
#953 = VECTOR('',#954,1.);
#954 = DIRECTION('',(0.,-1.,0.));
#955 = ORIENTED_EDGE('',*,*,#815,.T.);
#956 = ORIENTED_EDGE('',*,*,#957,.T.);
#957 = EDGE_CURVE('',#808,#480,#958,.T.);
#958 = LINE('',#959,#960);
#959 = CARTESIAN_POINT('',(2.23804086405,2.35,1.205));
#960 = VECTOR('',#961,1.);
#961 = DIRECTION('',(0.,1.,0.));
#962 = PLANE('',#963);
#963 = AXIS2_PLACEMENT_3D('',#964,#965,#966);
#964 = CARTESIAN_POINT('',(-2.54,2.35,1.205));
#965 = DIRECTION('',(-8.537024980201E-17,0.,-1.));
#966 = DIRECTION('',(-1.,0.,8.537024980201E-17));
#967 = ADVANCED_FACE('',(#968),#984,.T.);
#968 = FACE_BOUND('',#969,.T.);
#969 = EDGE_LOOP('',(#970,#971,#977,#978));
#970 = ORIENTED_EDGE('',*,*,#693,.T.);
#971 = ORIENTED_EDGE('',*,*,#972,.F.);
#972 = EDGE_CURVE('',#610,#696,#973,.T.);
#973 = LINE('',#974,#975);
#974 = CARTESIAN_POINT('',(-1.59,2.35,-0.32));
#975 = VECTOR('',#976,1.);
#976 = DIRECTION('',(0.,-1.,0.));
#977 = ORIENTED_EDGE('',*,*,#609,.T.);
#978 = ORIENTED_EDGE('',*,*,#979,.T.);
#979 = EDGE_CURVE('',#600,#694,#980,.T.);
#980 = LINE('',#981,#982);
#981 = CARTESIAN_POINT('',(-1.59,2.35,0.32));
#982 = VECTOR('',#983,1.);
#983 = DIRECTION('',(0.,-1.,0.));
#984 = PLANE('',#985);
#985 = AXIS2_PLACEMENT_3D('',#986,#987,#988);
#986 = CARTESIAN_POINT('',(-1.59,2.35,0.32));
#987 = DIRECTION('',(1.,0.,0.));
#988 = DIRECTION('',(0.,0.,-1.));
#989 = ADVANCED_FACE('',(#990),#1001,.T.);
#990 = FACE_BOUND('',#991,.T.);
#991 = EDGE_LOOP('',(#992,#993,#994,#995));
#992 = ORIENTED_EDGE('',*,*,#703,.T.);
#993 = ORIENTED_EDGE('',*,*,#979,.F.);
#994 = ORIENTED_EDGE('',*,*,#599,.T.);
#995 = ORIENTED_EDGE('',*,*,#996,.T.);
#996 = EDGE_CURVE('',#602,#704,#997,.T.);
#997 = LINE('',#998,#999);
#998 = CARTESIAN_POINT('',(-0.95,2.35,0.32));
#999 = VECTOR('',#1000,1.);
#1000 = DIRECTION('',(0.,-1.,0.));
#1001 = PLANE('',#1002);
#1002 = AXIS2_PLACEMENT_3D('',#1003,#1004,#1005);
#1003 = CARTESIAN_POINT('',(-0.95,2.35,0.32));
#1004 = DIRECTION('',(-1.694065894509E-16,0.,-1.));
#1005 = DIRECTION('',(-1.,0.,1.694065894509E-16));
#1006 = ADVANCED_FACE('',(#1007),#1018,.T.);
#1007 = FACE_BOUND('',#1008,.T.);
#1008 = EDGE_LOOP('',(#1009,#1010,#1011,#1012));
#1009 = ORIENTED_EDGE('',*,*,#711,.T.);
#1010 = ORIENTED_EDGE('',*,*,#996,.F.);
#1011 = ORIENTED_EDGE('',*,*,#625,.T.);
#1012 = ORIENTED_EDGE('',*,*,#1013,.T.);
#1013 = EDGE_CURVE('',#618,#712,#1014,.T.);
#1014 = LINE('',#1015,#1016);
#1015 = CARTESIAN_POINT('',(-0.95,2.35,-0.32));
#1016 = VECTOR('',#1017,1.);
#1017 = DIRECTION('',(0.,-1.,0.));
#1018 = PLANE('',#1019);
#1019 = AXIS2_PLACEMENT_3D('',#1020,#1021,#1022);
#1020 = CARTESIAN_POINT('',(-0.95,2.35,0.32));
#1021 = DIRECTION('',(-1.,0.,1.694065894509E-16));
#1022 = DIRECTION('',(1.694065894509E-16,0.,1.));
#1023 = ADVANCED_FACE('',(#1024),#1030,.T.);
#1024 = FACE_BOUND('',#1025,.T.);
#1025 = EDGE_LOOP('',(#1026,#1027,#1028,#1029));
#1026 = ORIENTED_EDGE('',*,*,#719,.T.);
#1027 = ORIENTED_EDGE('',*,*,#1013,.F.);
#1028 = ORIENTED_EDGE('',*,*,#617,.T.);
#1029 = ORIENTED_EDGE('',*,*,#972,.T.);
#1030 = PLANE('',#1031);
#1031 = AXIS2_PLACEMENT_3D('',#1032,#1033,#1034);
#1032 = CARTESIAN_POINT('',(-0.95,2.35,-0.32));
#1033 = DIRECTION('',(8.470329472543E-17,0.,1.));
#1034 = DIRECTION('',(1.,0.,-8.470329472543E-17));
#1035 = ADVANCED_FACE('',(#1036),#1046,.F.);
#1036 = FACE_BOUND('',#1037,.T.);
#1037 = EDGE_LOOP('',(#1038,#1039));
#1038 = ORIENTED_EDGE('',*,*,#360,.T.);
#1039 = ORIENTED_EDGE('',*,*,#1040,.T.);
#1040 = EDGE_CURVE('',#353,#361,#1041,.T.);
#1041 = CIRCLE('',#1042,0.205);
#1042 = AXIS2_PLACEMENT_3D('',#1043,#1044,#1045);
#1043 = CARTESIAN_POINT('',(-1.93,0.,-0.55));
#1044 = DIRECTION('',(0.,-1.,0.));
#1045 = DIRECTION('',(0.,0.,1.));
#1046 = PLANE('',#1047);
#1047 = AXIS2_PLACEMENT_3D('',#1048,#1049,#1050);
#1048 = CARTESIAN_POINT('',(0.,0.,0.));
#1049 = DIRECTION('',(0.,1.,0.));
#1050 = DIRECTION('',(0.,-0.,1.));
#1051 = ADVANCED_FACE('',(#1052),#1058,.T.);
#1052 = FACE_BOUND('',#1053,.T.);
#1053 = EDGE_LOOP('',(#1054,#1055,#1056,#1057));
#1054 = ORIENTED_EDGE('',*,*,#352,.F.);
#1055 = ORIENTED_EDGE('',*,*,#824,.T.);
#1056 = ORIENTED_EDGE('',*,*,#369,.T.);
#1057 = ORIENTED_EDGE('',*,*,#1040,.F.);
#1058 = CYLINDRICAL_SURFACE('',#1059,0.205);
#1059 = AXIS2_PLACEMENT_3D('',#1060,#1061,#1062);
#1060 = CARTESIAN_POINT('',(-1.93,2.55,-0.55));
#1061 = DIRECTION('',(-0.,-1.,-0.));
#1062 = DIRECTION('',(0.,0.,-1.));
#1063 = ADVANCED_FACE('',(#1064),#1076,.T.);
#1064 = FACE_BOUND('',#1065,.T.);
#1065 = EDGE_LOOP('',(#1066,#1067,#1074,#1075));
#1066 = ORIENTED_EDGE('',*,*,#310,.F.);
#1067 = ORIENTED_EDGE('',*,*,#1068,.F.);
#1068 = EDGE_CURVE('',#302,#300,#1069,.T.);
#1069 = CIRCLE('',#1070,0.205);
#1070 = AXIS2_PLACEMENT_3D('',#1071,#1072,#1073);
#1071 = CARTESIAN_POINT('',(-1.93,2.55,-0.55));
#1072 = DIRECTION('',(0.,1.,0.));
#1073 = DIRECTION('',(0.,-0.,1.));
#1074 = ORIENTED_EDGE('',*,*,#327,.T.);
#1075 = ORIENTED_EDGE('',*,*,#590,.F.);
#1076 = CYLINDRICAL_SURFACE('',#1077,0.205);
#1077 = AXIS2_PLACEMENT_3D('',#1078,#1079,#1080);
#1078 = CARTESIAN_POINT('',(-1.93,2.55,-0.55));
#1079 = DIRECTION('',(-0.,-1.,-0.));
#1080 = DIRECTION('',(0.,0.,-1.));
#1081 = ADVANCED_FACE('',(#1082),#1086,.T.);
#1082 = FACE_BOUND('',#1083,.T.);
#1083 = EDGE_LOOP('',(#1084,#1085));
#1084 = ORIENTED_EDGE('',*,*,#1068,.T.);
#1085 = ORIENTED_EDGE('',*,*,#299,.T.);
#1086 = PLANE('',#1087);
#1087 = AXIS2_PLACEMENT_3D('',#1088,#1089,#1090);
#1088 = CARTESIAN_POINT('',(-1.93,2.55,-0.55));
#1089 = DIRECTION('',(0.,1.,0.));
#1090 = DIRECTION('',(0.,-0.,1.));
#1091 = ADVANCED_FACE('',(#1092),#1102,.F.);
#1092 = FACE_BOUND('',#1093,.T.);
#1093 = EDGE_LOOP('',(#1094,#1095));
#1094 = ORIENTED_EDGE('',*,*,#276,.T.);
#1095 = ORIENTED_EDGE('',*,*,#1096,.T.);
#1096 = EDGE_CURVE('',#269,#277,#1097,.T.);
#1097 = CIRCLE('',#1098,0.205);
#1098 = AXIS2_PLACEMENT_3D('',#1099,#1100,#1101);
#1099 = CARTESIAN_POINT('',(-0.61,0.,0.55));
#1100 = DIRECTION('',(0.,-1.,0.));
#1101 = DIRECTION('',(0.,0.,1.));
#1102 = PLANE('',#1103);
#1103 = AXIS2_PLACEMENT_3D('',#1104,#1105,#1106);
#1104 = CARTESIAN_POINT('',(0.,0.,0.));
#1105 = DIRECTION('',(0.,1.,0.));
#1106 = DIRECTION('',(0.,-0.,1.));
#1107 = ADVANCED_FACE('',(#1108),#1114,.T.);
#1108 = FACE_BOUND('',#1109,.T.);
#1109 = EDGE_LOOP('',(#1110,#1111,#1112,#1113));
#1110 = ORIENTED_EDGE('',*,*,#268,.F.);
#1111 = ORIENTED_EDGE('',*,*,#834,.T.);
#1112 = ORIENTED_EDGE('',*,*,#285,.T.);
#1113 = ORIENTED_EDGE('',*,*,#1096,.F.);
#1114 = CYLINDRICAL_SURFACE('',#1115,0.205);
#1115 = AXIS2_PLACEMENT_3D('',#1116,#1117,#1118);
#1116 = CARTESIAN_POINT('',(-0.61,2.55,0.55));
#1117 = DIRECTION('',(-0.,-1.,-0.));
#1118 = DIRECTION('',(0.,0.,-1.));
#1119 = ADVANCED_FACE('',(#1120),#1132,.T.);
#1120 = FACE_BOUND('',#1121,.T.);
#1121 = EDGE_LOOP('',(#1122,#1123,#1130,#1131));
#1122 = ORIENTED_EDGE('',*,*,#226,.F.);
#1123 = ORIENTED_EDGE('',*,*,#1124,.F.);
#1124 = EDGE_CURVE('',#218,#216,#1125,.T.);
#1125 = CIRCLE('',#1126,0.205);
#1126 = AXIS2_PLACEMENT_3D('',#1127,#1128,#1129);
#1127 = CARTESIAN_POINT('',(-0.61,2.55,0.55));
#1128 = DIRECTION('',(0.,1.,0.));
#1129 = DIRECTION('',(0.,-0.,1.));
#1130 = ORIENTED_EDGE('',*,*,#243,.T.);
#1131 = ORIENTED_EDGE('',*,*,#580,.F.);
#1132 = CYLINDRICAL_SURFACE('',#1133,0.205);
#1133 = AXIS2_PLACEMENT_3D('',#1134,#1135,#1136);
#1134 = CARTESIAN_POINT('',(-0.61,2.55,0.55));
#1135 = DIRECTION('',(-0.,-1.,-0.));
#1136 = DIRECTION('',(0.,0.,-1.));
#1137 = ADVANCED_FACE('',(#1138),#1142,.T.);
#1138 = FACE_BOUND('',#1139,.T.);
#1139 = EDGE_LOOP('',(#1140,#1141));
#1140 = ORIENTED_EDGE('',*,*,#1124,.T.);
#1141 = ORIENTED_EDGE('',*,*,#215,.T.);
#1142 = PLANE('',#1143);
#1143 = AXIS2_PLACEMENT_3D('',#1144,#1145,#1146);
#1144 = CARTESIAN_POINT('',(-0.61,2.55,0.55));
#1145 = DIRECTION('',(0.,1.,0.));
#1146 = DIRECTION('',(0.,-0.,1.));
#1147 = ADVANCED_FACE('',(#1148),#1164,.T.);
#1148 = FACE_BOUND('',#1149,.T.);
#1149 = EDGE_LOOP('',(#1150,#1156,#1157,#1163));
#1150 = ORIENTED_EDGE('',*,*,#1151,.T.);
#1151 = EDGE_CURVE('',#636,#844,#1152,.T.);
#1152 = LINE('',#1153,#1154);
#1153 = CARTESIAN_POINT('',(0.95,2.55,0.32));
#1154 = VECTOR('',#1155,1.);
#1155 = DIRECTION('',(0.,-1.,0.));
#1156 = ORIENTED_EDGE('',*,*,#843,.T.);
#1157 = ORIENTED_EDGE('',*,*,#1158,.F.);
#1158 = EDGE_CURVE('',#644,#846,#1159,.T.);
#1159 = LINE('',#1160,#1161);
#1160 = CARTESIAN_POINT('',(0.95,2.55,-0.32));
#1161 = VECTOR('',#1162,1.);
#1162 = DIRECTION('',(0.,-1.,0.));
#1163 = ORIENTED_EDGE('',*,*,#643,.F.);
#1164 = PLANE('',#1165);
#1165 = AXIS2_PLACEMENT_3D('',#1166,#1167,#1168);
#1166 = CARTESIAN_POINT('',(0.95,2.55,0.32));
#1167 = DIRECTION('',(1.,0.,0.));
#1168 = DIRECTION('',(0.,0.,-1.));
#1169 = ADVANCED_FACE('',(#1170),#1181,.T.);
#1170 = FACE_BOUND('',#1171,.T.);
#1171 = EDGE_LOOP('',(#1172,#1178,#1179,#1180));
#1172 = ORIENTED_EDGE('',*,*,#1173,.T.);
#1173 = EDGE_CURVE('',#634,#854,#1174,.T.);
#1174 = LINE('',#1175,#1176);
#1175 = CARTESIAN_POINT('',(1.59,2.55,0.32));
#1176 = VECTOR('',#1177,1.);
#1177 = DIRECTION('',(0.,-1.,0.));
#1178 = ORIENTED_EDGE('',*,*,#853,.T.);
#1179 = ORIENTED_EDGE('',*,*,#1151,.F.);
#1180 = ORIENTED_EDGE('',*,*,#633,.F.);
#1181 = PLANE('',#1182);
#1182 = AXIS2_PLACEMENT_3D('',#1183,#1184,#1185);
#1183 = CARTESIAN_POINT('',(1.59,2.55,0.32));
#1184 = DIRECTION('',(-1.694065894509E-16,0.,-1.));
#1185 = DIRECTION('',(-1.,0.,1.694065894509E-16));
#1186 = ADVANCED_FACE('',(#1187),#1198,.T.);
#1187 = FACE_BOUND('',#1188,.T.);
#1188 = EDGE_LOOP('',(#1189,#1195,#1196,#1197));
#1189 = ORIENTED_EDGE('',*,*,#1190,.T.);
#1190 = EDGE_CURVE('',#652,#862,#1191,.T.);
#1191 = LINE('',#1192,#1193);
#1192 = CARTESIAN_POINT('',(1.59,2.55,-0.32));
#1193 = VECTOR('',#1194,1.);
#1194 = DIRECTION('',(0.,-1.,0.));
#1195 = ORIENTED_EDGE('',*,*,#861,.T.);
#1196 = ORIENTED_EDGE('',*,*,#1173,.F.);
#1197 = ORIENTED_EDGE('',*,*,#659,.F.);
#1198 = PLANE('',#1199);
#1199 = AXIS2_PLACEMENT_3D('',#1200,#1201,#1202);
#1200 = CARTESIAN_POINT('',(1.59,2.55,0.32));
#1201 = DIRECTION('',(-1.,0.,1.694065894509E-16));
#1202 = DIRECTION('',(1.694065894509E-16,0.,1.));
#1203 = ADVANCED_FACE('',(#1204),#1210,.T.);
#1204 = FACE_BOUND('',#1205,.T.);
#1205 = EDGE_LOOP('',(#1206,#1207,#1208,#1209));
#1206 = ORIENTED_EDGE('',*,*,#1158,.T.);
#1207 = ORIENTED_EDGE('',*,*,#869,.T.);
#1208 = ORIENTED_EDGE('',*,*,#1190,.F.);
#1209 = ORIENTED_EDGE('',*,*,#651,.F.);
#1210 = PLANE('',#1211);
#1211 = AXIS2_PLACEMENT_3D('',#1212,#1213,#1214);
#1212 = CARTESIAN_POINT('',(1.59,2.55,-0.32));
#1213 = DIRECTION('',(8.470329472543E-17,0.,1.));
#1214 = DIRECTION('',(1.,0.,-8.470329472543E-17));
#1215 = ADVANCED_FACE('',(#1216),#1226,.F.);
#1216 = FACE_BOUND('',#1217,.T.);
#1217 = EDGE_LOOP('',(#1218,#1219));
#1218 = ORIENTED_EDGE('',*,*,#192,.T.);
#1219 = ORIENTED_EDGE('',*,*,#1220,.T.);
#1220 = EDGE_CURVE('',#185,#193,#1221,.T.);
#1221 = CIRCLE('',#1222,0.205);
#1222 = AXIS2_PLACEMENT_3D('',#1223,#1224,#1225);
#1223 = CARTESIAN_POINT('',(0.61,0.,-0.55));
#1224 = DIRECTION('',(0.,-1.,0.));
#1225 = DIRECTION('',(0.,0.,1.));
#1226 = PLANE('',#1227);
#1227 = AXIS2_PLACEMENT_3D('',#1228,#1229,#1230);
#1228 = CARTESIAN_POINT('',(0.,0.,0.));
#1229 = DIRECTION('',(0.,1.,0.));
#1230 = DIRECTION('',(0.,-0.,1.));
#1231 = ADVANCED_FACE('',(#1232),#1238,.T.);
#1232 = FACE_BOUND('',#1233,.T.);
#1233 = EDGE_LOOP('',(#1234,#1235,#1236,#1237));
#1234 = ORIENTED_EDGE('',*,*,#184,.F.);
#1235 = ORIENTED_EDGE('',*,*,#684,.T.);
#1236 = ORIENTED_EDGE('',*,*,#201,.T.);
#1237 = ORIENTED_EDGE('',*,*,#1220,.F.);
#1238 = CYLINDRICAL_SURFACE('',#1239,0.205);
#1239 = AXIS2_PLACEMENT_3D('',#1240,#1241,#1242);
#1240 = CARTESIAN_POINT('',(0.61,2.55,-0.55));
#1241 = DIRECTION('',(-0.,-1.,-0.));
#1242 = DIRECTION('',(0.,0.,-1.));
#1243 = ADVANCED_FACE('',(#1244),#1256,.T.);
#1244 = FACE_BOUND('',#1245,.T.);
#1245 = EDGE_LOOP('',(#1246,#1247,#1254,#1255));
#1246 = ORIENTED_EDGE('',*,*,#142,.F.);
#1247 = ORIENTED_EDGE('',*,*,#1248,.F.);
#1248 = EDGE_CURVE('',#134,#132,#1249,.T.);
#1249 = CIRCLE('',#1250,0.205);
#1250 = AXIS2_PLACEMENT_3D('',#1251,#1252,#1253);
#1251 = CARTESIAN_POINT('',(0.61,2.55,-0.55));
#1252 = DIRECTION('',(0.,1.,0.));
#1253 = DIRECTION('',(0.,-0.,1.));
#1254 = ORIENTED_EDGE('',*,*,#159,.T.);
#1255 = ORIENTED_EDGE('',*,*,#570,.F.);
#1256 = CYLINDRICAL_SURFACE('',#1257,0.205);
#1257 = AXIS2_PLACEMENT_3D('',#1258,#1259,#1260);
#1258 = CARTESIAN_POINT('',(0.61,2.55,-0.55));
#1259 = DIRECTION('',(-0.,-1.,-0.));
#1260 = DIRECTION('',(0.,0.,-1.));
#1261 = ADVANCED_FACE('',(#1262),#1266,.T.);
#1262 = FACE_BOUND('',#1263,.T.);
#1263 = EDGE_LOOP('',(#1264,#1265));
#1264 = ORIENTED_EDGE('',*,*,#1248,.T.);
#1265 = ORIENTED_EDGE('',*,*,#131,.T.);
#1266 = PLANE('',#1267);
#1267 = AXIS2_PLACEMENT_3D('',#1268,#1269,#1270);
#1268 = CARTESIAN_POINT('',(0.61,2.55,-0.55));
#1269 = DIRECTION('',(0.,1.,0.));
#1270 = DIRECTION('',(0.,-0.,1.));
#1271 = ADVANCED_FACE('',(#1272),#1282,.F.);
#1272 = FACE_BOUND('',#1273,.T.);
#1273 = EDGE_LOOP('',(#1274,#1275));
#1274 = ORIENTED_EDGE('',*,*,#108,.T.);
#1275 = ORIENTED_EDGE('',*,*,#1276,.T.);
#1276 = EDGE_CURVE('',#101,#109,#1277,.T.);
#1277 = CIRCLE('',#1278,0.205);
#1278 = AXIS2_PLACEMENT_3D('',#1279,#1280,#1281);
#1279 = CARTESIAN_POINT('',(1.93,0.,0.55));
#1280 = DIRECTION('',(0.,-1.,0.));
#1281 = DIRECTION('',(0.,0.,1.));
#1282 = PLANE('',#1283);
#1283 = AXIS2_PLACEMENT_3D('',#1284,#1285,#1286);
#1284 = CARTESIAN_POINT('',(0.,0.,0.));
#1285 = DIRECTION('',(0.,1.,0.));
#1286 = DIRECTION('',(0.,-0.,1.));
#1287 = ADVANCED_FACE('',(#1288),#1294,.T.);
#1288 = FACE_BOUND('',#1289,.T.);
#1289 = EDGE_LOOP('',(#1290,#1291,#1292,#1293));
#1290 = ORIENTED_EDGE('',*,*,#100,.F.);
#1291 = ORIENTED_EDGE('',*,*,#674,.T.);
#1292 = ORIENTED_EDGE('',*,*,#117,.T.);
#1293 = ORIENTED_EDGE('',*,*,#1276,.F.);
#1294 = CYLINDRICAL_SURFACE('',#1295,0.205);
#1295 = AXIS2_PLACEMENT_3D('',#1296,#1297,#1298);
#1296 = CARTESIAN_POINT('',(1.93,2.55,0.55));
#1297 = DIRECTION('',(-0.,-1.,-0.));
#1298 = DIRECTION('',(0.,0.,-1.));
#1299 = ADVANCED_FACE('',(#1300),#1312,.T.);
#1300 = FACE_BOUND('',#1301,.T.);
#1301 = EDGE_LOOP('',(#1302,#1303,#1310,#1311));
#1302 = ORIENTED_EDGE('',*,*,#58,.F.);
#1303 = ORIENTED_EDGE('',*,*,#1304,.F.);
#1304 = EDGE_CURVE('',#50,#48,#1305,.T.);
#1305 = CIRCLE('',#1306,0.205);
#1306 = AXIS2_PLACEMENT_3D('',#1307,#1308,#1309);
#1307 = CARTESIAN_POINT('',(1.93,2.55,0.55));
#1308 = DIRECTION('',(0.,1.,0.));
#1309 = DIRECTION('',(0.,-0.,1.));
#1310 = ORIENTED_EDGE('',*,*,#75,.T.);
#1311 = ORIENTED_EDGE('',*,*,#560,.F.);
#1312 = CYLINDRICAL_SURFACE('',#1313,0.205);
#1313 = AXIS2_PLACEMENT_3D('',#1314,#1315,#1316);
#1314 = CARTESIAN_POINT('',(1.93,2.55,0.55));
#1315 = DIRECTION('',(-0.,-1.,-0.));
#1316 = DIRECTION('',(0.,0.,-1.));
#1317 = ADVANCED_FACE('',(#1318),#1322,.T.);
#1318 = FACE_BOUND('',#1319,.T.);
#1319 = EDGE_LOOP('',(#1320,#1321));
#1320 = ORIENTED_EDGE('',*,*,#1304,.T.);
#1321 = ORIENTED_EDGE('',*,*,#47,.T.);
#1322 = PLANE('',#1323);
#1323 = AXIS2_PLACEMENT_3D('',#1324,#1325,#1326);
#1324 = CARTESIAN_POINT('',(1.93,2.55,0.55));
#1325 = DIRECTION('',(0.,1.,0.));
#1326 = DIRECTION('',(0.,-0.,1.));
#1327 = ADVANCED_FACE('',(#1328),#1334,.F.);
#1328 = FACE_BOUND('',#1329,.T.);
#1329 = EDGE_LOOP('',(#1330,#1331,#1332,#1333));
#1330 = ORIENTED_EDGE('',*,*,#449,.F.);
#1331 = ORIENTED_EDGE('',*,*,#550,.T.);
#1332 = ORIENTED_EDGE('',*,*,#935,.F.);
#1333 = ORIENTED_EDGE('',*,*,#744,.F.);
#1334 = PLANE('',#1335);
#1335 = AXIS2_PLACEMENT_3D('',#1336,#1337,#1338);
#1336 = CARTESIAN_POINT('',(-2.54,0.,0.55));
#1337 = DIRECTION('',(0.908143173825,0.,-0.418659737537));
#1338 = DIRECTION('',(-0.418659737537,0.,-0.908143173825));
#1339 = ADVANCED_FACE('',(#1340),#1346,.F.);
#1340 = FACE_BOUND('',#1341,.T.);
#1341 = EDGE_LOOP('',(#1342,#1343,#1344,#1345));
#1342 = ORIENTED_EDGE('',*,*,#928,.F.);
#1343 = ORIENTED_EDGE('',*,*,#534,.T.);
#1344 = ORIENTED_EDGE('',*,*,#913,.F.);
#1345 = ORIENTED_EDGE('',*,*,#760,.F.);
#1346 = PLANE('',#1347);
#1347 = AXIS2_PLACEMENT_3D('',#1348,#1349,#1350);
#1348 = CARTESIAN_POINT('',(-2.54,0.,-0.55));
#1349 = DIRECTION('',(0.908143173825,0.,0.418659737537));
#1350 = DIRECTION('',(0.418659737537,0.,-0.908143173825));
#1351 = ADVANCED_FACE('',(#1352),#1358,.F.);
#1352 = FACE_BOUND('',#1353,.T.);
#1353 = EDGE_LOOP('',(#1354,#1355,#1356,#1357));
#1354 = ORIENTED_EDGE('',*,*,#891,.T.);
#1355 = ORIENTED_EDGE('',*,*,#487,.T.);
#1356 = ORIENTED_EDGE('',*,*,#957,.F.);
#1357 = ORIENTED_EDGE('',*,*,#807,.F.);
#1358 = PLANE('',#1359);
#1359 = AXIS2_PLACEMENT_3D('',#1360,#1361,#1362);
#1360 = CARTESIAN_POINT('',(2.54,0.,0.55));
#1361 = DIRECTION('',(-0.908143173825,0.,-0.418659737537));
#1362 = DIRECTION('',(-0.418659737537,0.,0.908143173825));
#1363 = ADVANCED_FACE('',(#1364),#1375,.F.);
#1364 = FACE_BOUND('',#1365,.T.);
#1365 = EDGE_LOOP('',(#1366,#1372,#1373,#1374));
#1366 = ORIENTED_EDGE('',*,*,#1367,.T.);
#1367 = EDGE_CURVE('',#730,#464,#1368,.T.);
#1368 = LINE('',#1369,#1370);
#1369 = CARTESIAN_POINT('',(0.,0.,0.55));
#1370 = VECTOR('',#1371,1.);
#1371 = DIRECTION('',(-0.,1.,-0.));
#1372 = ORIENTED_EDGE('',*,*,#463,.T.);
#1373 = ORIENTED_EDGE('',*,*,#433,.F.);
#1374 = ORIENTED_EDGE('',*,*,#737,.F.);
#1375 = PLANE('',#1376);
#1376 = AXIS2_PLACEMENT_3D('',#1377,#1378,#1379);
#1377 = CARTESIAN_POINT('',(0.,0.,0.55));
#1378 = DIRECTION('',(-0.908143173825,0.,-0.418659737537));
#1379 = DIRECTION('',(-0.418659737537,0.,0.908143173825));
#1380 = ADVANCED_FACE('',(#1381),#1387,.F.);
#1381 = FACE_BOUND('',#1382,.T.);
#1382 = EDGE_LOOP('',(#1383,#1384,#1385,#1386));
#1383 = ORIENTED_EDGE('',*,*,#950,.F.);
#1384 = ORIENTED_EDGE('',*,*,#471,.T.);
#1385 = ORIENTED_EDGE('',*,*,#1367,.F.);
#1386 = ORIENTED_EDGE('',*,*,#727,.F.);
#1387 = PLANE('',#1388);
#1388 = AXIS2_PLACEMENT_3D('',#1389,#1390,#1391);
#1389 = CARTESIAN_POINT('',(0.,0.,0.55));
#1390 = DIRECTION('',(0.908143173825,0.,-0.418659737537));
#1391 = DIRECTION('',(-0.418659737537,0.,-0.908143173825));
#1392 = ADVANCED_FACE('',(#1393),#1404,.F.);
#1393 = FACE_BOUND('',#1394,.T.);
#1394 = EDGE_LOOP('',(#1395,#1401,#1402,#1403));
#1395 = ORIENTED_EDGE('',*,*,#1396,.T.);
#1396 = EDGE_CURVE('',#777,#511,#1397,.T.);
#1397 = LINE('',#1398,#1399);
#1398 = CARTESIAN_POINT('',(0.,0.,-0.55));
#1399 = VECTOR('',#1400,1.);
#1400 = DIRECTION('',(-0.,1.,-0.));
#1401 = ORIENTED_EDGE('',*,*,#510,.T.);
#1402 = ORIENTED_EDGE('',*,*,#409,.F.);
#1403 = ORIENTED_EDGE('',*,*,#784,.F.);
#1404 = PLANE('',#1405);
#1405 = AXIS2_PLACEMENT_3D('',#1406,#1407,#1408);
#1406 = CARTESIAN_POINT('',(0.,0.,-0.55));
#1407 = DIRECTION('',(0.908143173825,0.,0.418659737537));
#1408 = DIRECTION('',(0.418659737537,0.,-0.908143173825));
#1409 = ADVANCED_FACE('',(#1410),#1416,.F.);
#1410 = FACE_BOUND('',#1411,.T.);
#1411 = EDGE_LOOP('',(#1412,#1413,#1414,#1415));
#1412 = ORIENTED_EDGE('',*,*,#906,.F.);
#1413 = ORIENTED_EDGE('',*,*,#518,.T.);
#1414 = ORIENTED_EDGE('',*,*,#1396,.F.);
#1415 = ORIENTED_EDGE('',*,*,#776,.F.);
#1416 = PLANE('',#1417);
#1417 = AXIS2_PLACEMENT_3D('',#1418,#1419,#1420);
#1418 = CARTESIAN_POINT('',(0.,0.,-0.55));
#1419 = DIRECTION('',(-0.908143173825,0.,0.418659737537));
#1420 = DIRECTION('',(0.418659737537,0.,0.908143173825));
#1421 = ADVANCED_FACE('',(#1422),#1428,.F.);
#1422 = FACE_BOUND('',#1423,.T.);
#1423 = EDGE_LOOP('',(#1424,#1425,#1426,#1427));
#1424 = ORIENTED_EDGE('',*,*,#393,.F.);
#1425 = ORIENTED_EDGE('',*,*,#503,.T.);
#1426 = ORIENTED_EDGE('',*,*,#884,.F.);
#1427 = ORIENTED_EDGE('',*,*,#791,.F.);
#1428 = PLANE('',#1429);
#1429 = AXIS2_PLACEMENT_3D('',#1430,#1431,#1432);
#1430 = CARTESIAN_POINT('',(2.54,0.,-0.55));
#1431 = DIRECTION('',(-0.908143173825,0.,0.418659737537));
#1432 = DIRECTION('',(0.418659737537,0.,0.908143173825));
#1433 = ( GEOMETRIC_REPRESENTATION_CONTEXT(3) 
GLOBAL_UNCERTAINTY_ASSIGNED_CONTEXT((#1437)) 
GLOBAL_UNIT_ASSIGNED_CONTEXT((#1434,#1435,#1436)) REPRESENTATION_CONTEXT
('Context #1','3D Context with UNIT and UNCERTAINTY') );
#1434 = ( LENGTH_UNIT() NAMED_UNIT(*) SI_UNIT(.MILLI.,.METRE.) );
#1435 = ( NAMED_UNIT(*) PLANE_ANGLE_UNIT() SI_UNIT($,.RADIAN.) );
#1436 = ( NAMED_UNIT(*) SI_UNIT($,.STERADIAN.) SOLID_ANGLE_UNIT() );
#1437 = UNCERTAINTY_MEASURE_WITH_UNIT(LENGTH_MEASURE(1.E-07),#1434,
  'distance_accuracy_value','confusion accuracy');
#1438 = CONTEXT_DEPENDENT_SHAPE_REPRESENTATION(#1439,#1441);
#1439 = ( REPRESENTATION_RELATIONSHIP('','',#40,#10) 
REPRESENTATION_RELATIONSHIP_WITH_TRANSFORMATION(#1440) 
SHAPE_REPRESENTATION_RELATIONSHIP() );
#1440 = ITEM_DEFINED_TRANSFORMATION('','',#11,#15);
#1441 = PRODUCT_DEFINITION_SHAPE('Placement','Placement of an item',
  #1442);
#1442 = NEXT_ASSEMBLY_USAGE_OCCURRENCE('1','68000 gold body_02','',#5,
  #35,$);
#1443 = PRODUCT_RELATED_PRODUCT_CATEGORY('part',$,(#37));
#1444 = SHAPE_DEFINITION_REPRESENTATION(#1445,#1451);
#1445 = PRODUCT_DEFINITION_SHAPE('','',#1446);
#1446 = PRODUCT_DEFINITION('design','',#1447,#1450);
#1447 = PRODUCT_DEFINITION_FORMATION('','',#1448);
#1448 = PRODUCT('pin^68000 Gold','pin^68000 Gold','',(#1449));
#1449 = PRODUCT_CONTEXT('',#2,'mechanical');
#1450 = PRODUCT_DEFINITION_CONTEXT('part definition',#2,'design');
#1451 = ADVANCED_BREP_SHAPE_REPRESENTATION('',(#11,#1452),#1794);
#1452 = MANIFOLD_SOLID_BREP('',#1453);
#1453 = CLOSED_SHELL('',(#1454,#1494,#1525,#1556,#1578,#1609,#1633,#1657
    ,#1674,#1686,#1717,#1741,#1765,#1782));
#1454 = ADVANCED_FACE('',(#1455),#1489,.F.);
#1455 = FACE_BOUND('',#1456,.T.);
#1456 = EDGE_LOOP('',(#1457,#1467,#1475,#1483));
#1457 = ORIENTED_EDGE('',*,*,#1458,.T.);
#1458 = EDGE_CURVE('',#1459,#1461,#1463,.T.);
#1459 = VERTEX_POINT('',#1460);
#1460 = CARTESIAN_POINT('',(-0.95,-1.984140999985,0.32));
#1461 = VERTEX_POINT('',#1462);
#1462 = CARTESIAN_POINT('',(-0.95,-1.984140999985,-0.32));
#1463 = LINE('',#1464,#1465);
#1464 = CARTESIAN_POINT('',(-0.95,-1.984140999985,0.32));
#1465 = VECTOR('',#1466,1.);
#1466 = DIRECTION('',(-1.694065894509E-16,0.,-1.));
#1467 = ORIENTED_EDGE('',*,*,#1468,.F.);
#1468 = EDGE_CURVE('',#1469,#1461,#1471,.T.);
#1469 = VERTEX_POINT('',#1470);
#1470 = CARTESIAN_POINT('',(-0.95,7.964140999985,-0.32));
#1471 = LINE('',#1472,#1473);
#1472 = CARTESIAN_POINT('',(-0.95,8.39,-0.32));
#1473 = VECTOR('',#1474,1.);
#1474 = DIRECTION('',(-0.,-1.,-0.));
#1475 = ORIENTED_EDGE('',*,*,#1476,.F.);
#1476 = EDGE_CURVE('',#1477,#1469,#1479,.T.);
#1477 = VERTEX_POINT('',#1478);
#1478 = CARTESIAN_POINT('',(-0.95,7.964140999985,0.32));
#1479 = LINE('',#1480,#1481);
#1480 = CARTESIAN_POINT('',(-0.95,7.964140999985,0.32));
#1481 = VECTOR('',#1482,1.);
#1482 = DIRECTION('',(-1.694065894509E-16,0.,-1.));
#1483 = ORIENTED_EDGE('',*,*,#1484,.T.);
#1484 = EDGE_CURVE('',#1477,#1459,#1485,.T.);
#1485 = LINE('',#1486,#1487);
#1486 = CARTESIAN_POINT('',(-0.95,8.39,0.32));
#1487 = VECTOR('',#1488,1.);
#1488 = DIRECTION('',(-0.,-1.,-0.));
#1489 = PLANE('',#1490);
#1490 = AXIS2_PLACEMENT_3D('',#1491,#1492,#1493);
#1491 = CARTESIAN_POINT('',(-0.95,8.39,0.32));
#1492 = DIRECTION('',(-1.,0.,1.694065894509E-16));
#1493 = DIRECTION('',(1.694065894509E-16,0.,1.));
#1494 = ADVANCED_FACE('',(#1495),#1520,.F.);
#1495 = FACE_BOUND('',#1496,.T.);
#1496 = EDGE_LOOP('',(#1497,#1505,#1513,#1519));
#1497 = ORIENTED_EDGE('',*,*,#1498,.T.);
#1498 = EDGE_CURVE('',#1461,#1499,#1501,.T.);
#1499 = VERTEX_POINT('',#1500);
#1500 = CARTESIAN_POINT('',(-1.59,-1.984140999985,-0.32));
#1501 = LINE('',#1502,#1503);
#1502 = CARTESIAN_POINT('',(-0.95,-1.984140999985,-0.32));
#1503 = VECTOR('',#1504,1.);
#1504 = DIRECTION('',(-1.,0.,8.470329472543E-17));
#1505 = ORIENTED_EDGE('',*,*,#1506,.F.);
#1506 = EDGE_CURVE('',#1507,#1499,#1509,.T.);
#1507 = VERTEX_POINT('',#1508);
#1508 = CARTESIAN_POINT('',(-1.59,7.964140999985,-0.32));
#1509 = LINE('',#1510,#1511);
#1510 = CARTESIAN_POINT('',(-1.59,8.39,-0.32));
#1511 = VECTOR('',#1512,1.);
#1512 = DIRECTION('',(-0.,-1.,-0.));
#1513 = ORIENTED_EDGE('',*,*,#1514,.F.);
#1514 = EDGE_CURVE('',#1469,#1507,#1515,.T.);
#1515 = LINE('',#1516,#1517);
#1516 = CARTESIAN_POINT('',(-0.95,7.964140999985,-0.32));
#1517 = VECTOR('',#1518,1.);
#1518 = DIRECTION('',(-1.,0.,8.470329472543E-17));
#1519 = ORIENTED_EDGE('',*,*,#1468,.T.);
#1520 = PLANE('',#1521);
#1521 = AXIS2_PLACEMENT_3D('',#1522,#1523,#1524);
#1522 = CARTESIAN_POINT('',(-0.95,8.39,-0.32));
#1523 = DIRECTION('',(8.470329472543E-17,-0.,1.));
#1524 = DIRECTION('',(1.,0.,-8.470329472543E-17));
#1525 = ADVANCED_FACE('',(#1526),#1551,.F.);
#1526 = FACE_BOUND('',#1527,.T.);
#1527 = EDGE_LOOP('',(#1528,#1536,#1544,#1550));
#1528 = ORIENTED_EDGE('',*,*,#1529,.T.);
#1529 = EDGE_CURVE('',#1499,#1530,#1532,.T.);
#1530 = VERTEX_POINT('',#1531);
#1531 = CARTESIAN_POINT('',(-1.59,-1.984140999985,0.32));
#1532 = LINE('',#1533,#1534);
#1533 = CARTESIAN_POINT('',(-1.59,-1.984140999985,-0.32));
#1534 = VECTOR('',#1535,1.);
#1535 = DIRECTION('',(0.,0.,1.));
#1536 = ORIENTED_EDGE('',*,*,#1537,.F.);
#1537 = EDGE_CURVE('',#1538,#1530,#1540,.T.);
#1538 = VERTEX_POINT('',#1539);
#1539 = CARTESIAN_POINT('',(-1.59,7.964140999985,0.32));
#1540 = LINE('',#1541,#1542);
#1541 = CARTESIAN_POINT('',(-1.59,8.39,0.32));
#1542 = VECTOR('',#1543,1.);
#1543 = DIRECTION('',(-0.,-1.,-0.));
#1544 = ORIENTED_EDGE('',*,*,#1545,.F.);
#1545 = EDGE_CURVE('',#1507,#1538,#1546,.T.);
#1546 = LINE('',#1547,#1548);
#1547 = CARTESIAN_POINT('',(-1.59,7.964140999985,-0.32));
#1548 = VECTOR('',#1549,1.);
#1549 = DIRECTION('',(0.,0.,1.));
#1550 = ORIENTED_EDGE('',*,*,#1506,.T.);
#1551 = PLANE('',#1552);
#1552 = AXIS2_PLACEMENT_3D('',#1553,#1554,#1555);
#1553 = CARTESIAN_POINT('',(-1.59,8.39,-0.32));
#1554 = DIRECTION('',(1.,0.,0.));
#1555 = DIRECTION('',(0.,0.,-1.));
#1556 = ADVANCED_FACE('',(#1557),#1573,.F.);
#1557 = FACE_BOUND('',#1558,.T.);
#1558 = EDGE_LOOP('',(#1559,#1565,#1566,#1572));
#1559 = ORIENTED_EDGE('',*,*,#1560,.T.);
#1560 = EDGE_CURVE('',#1530,#1459,#1561,.T.);
#1561 = LINE('',#1562,#1563);
#1562 = CARTESIAN_POINT('',(-1.59,-1.984140999985,0.32));
#1563 = VECTOR('',#1564,1.);
#1564 = DIRECTION('',(1.,0.,-1.694065894509E-16));
#1565 = ORIENTED_EDGE('',*,*,#1484,.F.);
#1566 = ORIENTED_EDGE('',*,*,#1567,.F.);
#1567 = EDGE_CURVE('',#1538,#1477,#1568,.T.);
#1568 = LINE('',#1569,#1570);
#1569 = CARTESIAN_POINT('',(-1.59,7.964140999985,0.32));
#1570 = VECTOR('',#1571,1.);
#1571 = DIRECTION('',(1.,0.,-1.694065894509E-16));
#1572 = ORIENTED_EDGE('',*,*,#1537,.T.);
#1573 = PLANE('',#1574);
#1574 = AXIS2_PLACEMENT_3D('',#1575,#1576,#1577);
#1575 = CARTESIAN_POINT('',(-1.59,8.39,0.32));
#1576 = DIRECTION('',(-1.694065894509E-16,0.,-1.));
#1577 = DIRECTION('',(-1.,0.,1.694065894509E-16));
#1578 = ADVANCED_FACE('',(#1579),#1604,.T.);
#1579 = FACE_BOUND('',#1580,.T.);
#1580 = EDGE_LOOP('',(#1581,#1589,#1590,#1598));
#1581 = ORIENTED_EDGE('',*,*,#1582,.F.);
#1582 = EDGE_CURVE('',#1477,#1583,#1585,.T.);
#1583 = VERTEX_POINT('',#1584);
#1584 = CARTESIAN_POINT('',(-1.105,8.39,0.165));
#1585 = LINE('',#1586,#1587);
#1586 = CARTESIAN_POINT('',(-1.088767308528,8.345401046724,
    0.181232691472));
#1587 = VECTOR('',#1588,1.);
#1588 = DIRECTION('',(-0.323615577118,0.889126490716,-0.323615577118));
#1589 = ORIENTED_EDGE('',*,*,#1476,.T.);
#1590 = ORIENTED_EDGE('',*,*,#1591,.T.);
#1591 = EDGE_CURVE('',#1469,#1592,#1594,.T.);
#1592 = VERTEX_POINT('',#1593);
#1593 = CARTESIAN_POINT('',(-1.105,8.39,-0.165));
#1594 = LINE('',#1595,#1596);
#1595 = CARTESIAN_POINT('',(-1.15579261525,8.529551563476,-0.11420738475
    ));
#1596 = VECTOR('',#1597,1.);
#1597 = DIRECTION('',(-0.323615577118,0.889126490716,0.323615577118));
#1598 = ORIENTED_EDGE('',*,*,#1599,.F.);
#1599 = EDGE_CURVE('',#1583,#1592,#1600,.T.);
#1600 = LINE('',#1601,#1602);
#1601 = CARTESIAN_POINT('',(-1.105,8.39,0.32));
#1602 = VECTOR('',#1603,1.);
#1603 = DIRECTION('',(-1.694065894509E-16,0.,-1.));
#1604 = PLANE('',#1605);
#1605 = AXIS2_PLACEMENT_3D('',#1606,#1607,#1608);
#1606 = CARTESIAN_POINT('',(-1.105,8.39,0.32));
#1607 = DIRECTION('',(0.939692620786,0.342020143326,-1.591901220195E-16)
  );
#1608 = DIRECTION('',(-0.342020143326,0.939692620786,0.));
#1609 = ADVANCED_FACE('',(#1610),#1628,.T.);
#1610 = FACE_BOUND('',#1611,.T.);
#1611 = EDGE_LOOP('',(#1612,#1613,#1621,#1627));
#1612 = ORIENTED_EDGE('',*,*,#1514,.T.);
#1613 = ORIENTED_EDGE('',*,*,#1614,.T.);
#1614 = EDGE_CURVE('',#1507,#1615,#1617,.T.);
#1615 = VERTEX_POINT('',#1616);
#1616 = CARTESIAN_POINT('',(-1.435,8.39,-0.165));
#1617 = LINE('',#1618,#1619);
#1618 = CARTESIAN_POINT('',(-1.38420738475,8.529551563476,-0.11420738475
    ));
#1619 = VECTOR('',#1620,1.);
#1620 = DIRECTION('',(0.323615577118,0.889126490716,0.323615577118));
#1621 = ORIENTED_EDGE('',*,*,#1622,.F.);
#1622 = EDGE_CURVE('',#1592,#1615,#1623,.T.);
#1623 = LINE('',#1624,#1625);
#1624 = CARTESIAN_POINT('',(-0.95,8.39,-0.165));
#1625 = VECTOR('',#1626,1.);
#1626 = DIRECTION('',(-1.,0.,8.470329472543E-17));
#1627 = ORIENTED_EDGE('',*,*,#1591,.F.);
#1628 = PLANE('',#1629);
#1629 = AXIS2_PLACEMENT_3D('',#1630,#1631,#1632);
#1630 = CARTESIAN_POINT('',(-0.95,8.39,-0.165));
#1631 = DIRECTION('',(-7.959506100974E-17,0.342020143326,-0.939692620786
    ));
#1632 = DIRECTION('',(0.,0.939692620786,0.342020143326));
#1633 = ADVANCED_FACE('',(#1634),#1652,.T.);
#1634 = FACE_BOUND('',#1635,.T.);
#1635 = EDGE_LOOP('',(#1636,#1637,#1638,#1646));
#1636 = ORIENTED_EDGE('',*,*,#1567,.T.);
#1637 = ORIENTED_EDGE('',*,*,#1582,.T.);
#1638 = ORIENTED_EDGE('',*,*,#1639,.F.);
#1639 = EDGE_CURVE('',#1640,#1583,#1642,.T.);
#1640 = VERTEX_POINT('',#1641);
#1641 = CARTESIAN_POINT('',(-1.435,8.39,0.165));
#1642 = LINE('',#1643,#1644);
#1643 = CARTESIAN_POINT('',(-1.59,8.39,0.165));
#1644 = VECTOR('',#1645,1.);
#1645 = DIRECTION('',(1.,0.,-1.694065894509E-16));
#1646 = ORIENTED_EDGE('',*,*,#1647,.F.);
#1647 = EDGE_CURVE('',#1538,#1640,#1648,.T.);
#1648 = LINE('',#1649,#1650);
#1649 = CARTESIAN_POINT('',(-1.451232691472,8.345401046724,
    0.181232691472));
#1650 = VECTOR('',#1651,1.);
#1651 = DIRECTION('',(0.323615577118,0.889126490716,-0.323615577118));
#1652 = PLANE('',#1653);
#1653 = AXIS2_PLACEMENT_3D('',#1654,#1655,#1656);
#1654 = CARTESIAN_POINT('',(-1.59,8.39,0.165));
#1655 = DIRECTION('',(1.591901220195E-16,0.342020143326,0.939692620786)
  );
#1656 = DIRECTION('',(-1.232595164408E-32,-0.939692620786,0.342020143326
    ));
#1657 = ADVANCED_FACE('',(#1658),#1669,.T.);
#1658 = FACE_BOUND('',#1659,.T.);
#1659 = EDGE_LOOP('',(#1660,#1661,#1662,#1668));
#1660 = ORIENTED_EDGE('',*,*,#1545,.T.);
#1661 = ORIENTED_EDGE('',*,*,#1647,.T.);
#1662 = ORIENTED_EDGE('',*,*,#1663,.F.);
#1663 = EDGE_CURVE('',#1615,#1640,#1664,.T.);
#1664 = LINE('',#1665,#1666);
#1665 = CARTESIAN_POINT('',(-1.435,8.39,-0.32));
#1666 = VECTOR('',#1667,1.);
#1667 = DIRECTION('',(0.,0.,1.));
#1668 = ORIENTED_EDGE('',*,*,#1614,.F.);
#1669 = PLANE('',#1670);
#1670 = AXIS2_PLACEMENT_3D('',#1671,#1672,#1673);
#1671 = CARTESIAN_POINT('',(-1.435,8.39,-0.32));
#1672 = DIRECTION('',(-0.939692620786,0.342020143326,0.));
#1673 = DIRECTION('',(-0.342020143326,-0.939692620786,0.));
#1674 = ADVANCED_FACE('',(#1675),#1681,.T.);
#1675 = FACE_BOUND('',#1676,.T.);
#1676 = EDGE_LOOP('',(#1677,#1678,#1679,#1680));
#1677 = ORIENTED_EDGE('',*,*,#1622,.T.);
#1678 = ORIENTED_EDGE('',*,*,#1663,.T.);
#1679 = ORIENTED_EDGE('',*,*,#1639,.T.);
#1680 = ORIENTED_EDGE('',*,*,#1599,.T.);
#1681 = PLANE('',#1682);
#1682 = AXIS2_PLACEMENT_3D('',#1683,#1684,#1685);
#1683 = CARTESIAN_POINT('',(0.,8.39,0.));
#1684 = DIRECTION('',(0.,1.,0.));
#1685 = DIRECTION('',(0.,-0.,1.));
#1686 = ADVANCED_FACE('',(#1687),#1712,.T.);
#1687 = FACE_BOUND('',#1688,.T.);
#1688 = EDGE_LOOP('',(#1689,#1697,#1705,#1711));
#1689 = ORIENTED_EDGE('',*,*,#1690,.F.);
#1690 = EDGE_CURVE('',#1691,#1459,#1693,.T.);
#1691 = VERTEX_POINT('',#1692);
#1692 = CARTESIAN_POINT('',(-1.105,-2.41,0.165));
#1693 = LINE('',#1694,#1695);
#1694 = CARTESIAN_POINT('',(-1.088767308528,-2.365401046724,
    0.181232691472));
#1695 = VECTOR('',#1696,1.);
#1696 = DIRECTION('',(0.323615577118,0.889126490716,0.323615577118));
#1697 = ORIENTED_EDGE('',*,*,#1698,.T.);
#1698 = EDGE_CURVE('',#1691,#1699,#1701,.T.);
#1699 = VERTEX_POINT('',#1700);
#1700 = CARTESIAN_POINT('',(-1.105,-2.41,-0.165));
#1701 = LINE('',#1702,#1703);
#1702 = CARTESIAN_POINT('',(-1.105,-2.41,0.32));
#1703 = VECTOR('',#1704,1.);
#1704 = DIRECTION('',(-1.694065894509E-16,0.,-1.));
#1705 = ORIENTED_EDGE('',*,*,#1706,.T.);
#1706 = EDGE_CURVE('',#1699,#1461,#1707,.T.);
#1707 = LINE('',#1708,#1709);
#1708 = CARTESIAN_POINT('',(-1.15579261525,-2.549551563476,
    -0.11420738475));
#1709 = VECTOR('',#1710,1.);
#1710 = DIRECTION('',(0.323615577118,0.889126490716,-0.323615577118));
#1711 = ORIENTED_EDGE('',*,*,#1458,.F.);
#1712 = PLANE('',#1713);
#1713 = AXIS2_PLACEMENT_3D('',#1714,#1715,#1716);
#1714 = CARTESIAN_POINT('',(-1.105,-2.41,0.32));
#1715 = DIRECTION('',(0.939692620786,-0.342020143326,-1.591901220195E-16
    ));
#1716 = DIRECTION('',(0.342020143326,0.939692620786,0.));
#1717 = ADVANCED_FACE('',(#1718),#1736,.T.);
#1718 = FACE_BOUND('',#1719,.T.);
#1719 = EDGE_LOOP('',(#1720,#1728,#1734,#1735));
#1720 = ORIENTED_EDGE('',*,*,#1721,.T.);
#1721 = EDGE_CURVE('',#1699,#1722,#1724,.T.);
#1722 = VERTEX_POINT('',#1723);
#1723 = CARTESIAN_POINT('',(-1.435,-2.41,-0.165));
#1724 = LINE('',#1725,#1726);
#1725 = CARTESIAN_POINT('',(-0.95,-2.41,-0.165));
#1726 = VECTOR('',#1727,1.);
#1727 = DIRECTION('',(-1.,0.,8.470329472543E-17));
#1728 = ORIENTED_EDGE('',*,*,#1729,.T.);
#1729 = EDGE_CURVE('',#1722,#1499,#1730,.T.);
#1730 = LINE('',#1731,#1732);
#1731 = CARTESIAN_POINT('',(-1.38420738475,-2.549551563476,
    -0.11420738475));
#1732 = VECTOR('',#1733,1.);
#1733 = DIRECTION('',(-0.323615577118,0.889126490716,-0.323615577118));
#1734 = ORIENTED_EDGE('',*,*,#1498,.F.);
#1735 = ORIENTED_EDGE('',*,*,#1706,.F.);
#1736 = PLANE('',#1737);
#1737 = AXIS2_PLACEMENT_3D('',#1738,#1739,#1740);
#1738 = CARTESIAN_POINT('',(-0.95,-2.41,-0.165));
#1739 = DIRECTION('',(-7.959506100974E-17,-0.342020143326,
    -0.939692620786));
#1740 = DIRECTION('',(0.,0.939692620786,-0.342020143326));
#1741 = ADVANCED_FACE('',(#1742),#1760,.T.);
#1742 = FACE_BOUND('',#1743,.T.);
#1743 = EDGE_LOOP('',(#1744,#1752,#1753,#1754));
#1744 = ORIENTED_EDGE('',*,*,#1745,.T.);
#1745 = EDGE_CURVE('',#1746,#1691,#1748,.T.);
#1746 = VERTEX_POINT('',#1747);
#1747 = CARTESIAN_POINT('',(-1.435,-2.41,0.165));
#1748 = LINE('',#1749,#1750);
#1749 = CARTESIAN_POINT('',(-1.59,-2.41,0.165));
#1750 = VECTOR('',#1751,1.);
#1751 = DIRECTION('',(1.,0.,-1.694065894509E-16));
#1752 = ORIENTED_EDGE('',*,*,#1690,.T.);
#1753 = ORIENTED_EDGE('',*,*,#1560,.F.);
#1754 = ORIENTED_EDGE('',*,*,#1755,.F.);
#1755 = EDGE_CURVE('',#1746,#1530,#1756,.T.);
#1756 = LINE('',#1757,#1758);
#1757 = CARTESIAN_POINT('',(-1.451232691472,-2.365401046724,
    0.181232691472));
#1758 = VECTOR('',#1759,1.);
#1759 = DIRECTION('',(-0.323615577118,0.889126490716,0.323615577118));
#1760 = PLANE('',#1761);
#1761 = AXIS2_PLACEMENT_3D('',#1762,#1763,#1764);
#1762 = CARTESIAN_POINT('',(-1.59,-2.41,0.165));
#1763 = DIRECTION('',(1.591901220195E-16,-0.342020143326,0.939692620786)
  );
#1764 = DIRECTION('',(1.232595164408E-32,-0.939692620786,-0.342020143326
    ));
#1765 = ADVANCED_FACE('',(#1766),#1777,.T.);
#1766 = FACE_BOUND('',#1767,.T.);
#1767 = EDGE_LOOP('',(#1768,#1774,#1775,#1776));
#1768 = ORIENTED_EDGE('',*,*,#1769,.T.);
#1769 = EDGE_CURVE('',#1722,#1746,#1770,.T.);
#1770 = LINE('',#1771,#1772);
#1771 = CARTESIAN_POINT('',(-1.435,-2.41,-0.32));
#1772 = VECTOR('',#1773,1.);
#1773 = DIRECTION('',(0.,0.,1.));
#1774 = ORIENTED_EDGE('',*,*,#1755,.T.);
#1775 = ORIENTED_EDGE('',*,*,#1529,.F.);
#1776 = ORIENTED_EDGE('',*,*,#1729,.F.);
#1777 = PLANE('',#1778);
#1778 = AXIS2_PLACEMENT_3D('',#1779,#1780,#1781);
#1779 = CARTESIAN_POINT('',(-1.435,-2.41,-0.32));
#1780 = DIRECTION('',(-0.939692620786,-0.342020143326,0.));
#1781 = DIRECTION('',(0.342020143326,-0.939692620786,0.));
#1782 = ADVANCED_FACE('',(#1783),#1789,.F.);
#1783 = FACE_BOUND('',#1784,.T.);
#1784 = EDGE_LOOP('',(#1785,#1786,#1787,#1788));
#1785 = ORIENTED_EDGE('',*,*,#1769,.F.);
#1786 = ORIENTED_EDGE('',*,*,#1721,.F.);
#1787 = ORIENTED_EDGE('',*,*,#1698,.F.);
#1788 = ORIENTED_EDGE('',*,*,#1745,.F.);
#1789 = PLANE('',#1790);
#1790 = AXIS2_PLACEMENT_3D('',#1791,#1792,#1793);
#1791 = CARTESIAN_POINT('',(0.,-2.41,0.));
#1792 = DIRECTION('',(0.,1.,0.));
#1793 = DIRECTION('',(0.,-0.,1.));
#1794 = ( GEOMETRIC_REPRESENTATION_CONTEXT(3) 
GLOBAL_UNCERTAINTY_ASSIGNED_CONTEXT((#1798)) 
GLOBAL_UNIT_ASSIGNED_CONTEXT((#1795,#1796,#1797)) REPRESENTATION_CONTEXT
('Context #1','3D Context with UNIT and UNCERTAINTY') );
#1795 = ( LENGTH_UNIT() NAMED_UNIT(*) SI_UNIT(.MILLI.,.METRE.) );
#1796 = ( NAMED_UNIT(*) PLANE_ANGLE_UNIT() SI_UNIT($,.RADIAN.) );
#1797 = ( NAMED_UNIT(*) SI_UNIT($,.STERADIAN.) SOLID_ANGLE_UNIT() );
#1798 = UNCERTAINTY_MEASURE_WITH_UNIT(LENGTH_MEASURE(1.E-07),#1795,
  'distance_accuracy_value','confusion accuracy');
#1799 = CONTEXT_DEPENDENT_SHAPE_REPRESENTATION(#1800,#1802);
#1800 = ( REPRESENTATION_RELATIONSHIP('','',#1451,#10) 
REPRESENTATION_RELATIONSHIP_WITH_TRANSFORMATION(#1801) 
SHAPE_REPRESENTATION_RELATIONSHIP() );
#1801 = ITEM_DEFINED_TRANSFORMATION('','',#11,#19);
#1802 = PRODUCT_DEFINITION_SHAPE('Placement','Placement of an item',
  #1803);
#1803 = NEXT_ASSEMBLY_USAGE_OCCURRENCE('2','pin^68000 Gold','',#5,#1446,
  $);
#1804 = PRODUCT_RELATED_PRODUCT_CATEGORY('part',$,(#1448));
#1805 = CONTEXT_DEPENDENT_SHAPE_REPRESENTATION(#1806,#1808);
#1806 = ( REPRESENTATION_RELATIONSHIP('','',#1451,#10) 
REPRESENTATION_RELATIONSHIP_WITH_TRANSFORMATION(#1807) 
SHAPE_REPRESENTATION_RELATIONSHIP() );
#1807 = ITEM_DEFINED_TRANSFORMATION('','',#11,#23);
#1808 = PRODUCT_DEFINITION_SHAPE('Placement','Placement of an item',
  #1809);
#1809 = NEXT_ASSEMBLY_USAGE_OCCURRENCE('3','pin^68000 Gold001','',#5,
  #1446,$);
#1810 = SHAPE_DEFINITION_REPRESENTATION(#1808,#1811);
#1811 = SHAPE_REPRESENTATION('',(#23),#1794);
#1812 = SHAPE_DEFINITION_REPRESENTATION(#1808,#1813);
#1813 = SHAPE_REPRESENTATION('',(#23),#1794);
#1814 = MECHANICAL_DESIGN_GEOMETRIC_PRESENTATION_REPRESENTATION('',(
    #1815,#1826,#1835),#1794);
#1815 = STYLED_ITEM('color',(#1816),#1452);
#1816 = PRESENTATION_STYLE_ASSIGNMENT((#1817,#1823));
#1817 = SURFACE_STYLE_USAGE(.BOTH.,#1818);
#1818 = SURFACE_SIDE_STYLE('',(#1819));
#1819 = SURFACE_STYLE_FILL_AREA(#1820);
#1820 = FILL_AREA_STYLE('',(#1821));
#1821 = FILL_AREA_STYLE_COLOUR('',#1822);
#1822 = COLOUR_RGB('',0.968627457133,0.878431390252,0.600000020288);
#1823 = CURVE_STYLE('',#1824,POSITIVE_LENGTH_MEASURE(0.1),#1825);
#1824 = DRAUGHTING_PRE_DEFINED_CURVE_FONT('continuous');
#1825 = COLOUR_RGB('',9.803921802644E-02,9.803921802644E-02,
  9.803921802644E-02);
#1826 = OVER_RIDING_STYLED_ITEM('overriding color',(#1827),#1452,#1815);
#1827 = PRESENTATION_STYLE_BY_CONTEXT((#1828,#1833),#1811);
#1828 = SURFACE_STYLE_USAGE(.BOTH.,#1829);
#1829 = SURFACE_SIDE_STYLE('',(#1830));
#1830 = SURFACE_STYLE_FILL_AREA(#1831);
#1831 = FILL_AREA_STYLE('',(#1832));
#1832 = FILL_AREA_STYLE_COLOUR('',#1822);
#1833 = CURVE_STYLE('',#1834,POSITIVE_LENGTH_MEASURE(0.1),#1825);
#1834 = DRAUGHTING_PRE_DEFINED_CURVE_FONT('continuous');
#1835 = OVER_RIDING_STYLED_ITEM('overriding color',(#1836),#1452,#1815);
#1836 = PRESENTATION_STYLE_BY_CONTEXT((#1837,#1843),#1813);
#1837 = SURFACE_STYLE_USAGE(.BOTH.,#1838);
#1838 = SURFACE_SIDE_STYLE('',(#1839));
#1839 = SURFACE_STYLE_FILL_AREA(#1840);
#1840 = FILL_AREA_STYLE('',(#1841));
#1841 = FILL_AREA_STYLE_COLOUR('',#1842);
#1842 = COLOUR_RGB('',0.968627457133,0.878431390252,0.600000020288);
#1843 = CURVE_STYLE('',#1844,POSITIVE_LENGTH_MEASURE(0.1),#1845);
#1844 = DRAUGHTING_PRE_DEFINED_CURVE_FONT('continuous');
#1845 = COLOUR_RGB('',9.803921802644E-02,9.803921802644E-02,
  9.803921802644E-02);
#1846 = MECHANICAL_DESIGN_GEOMETRIC_PRESENTATION_REPRESENTATION('',(
    #1847),#1433);
#1847 = STYLED_ITEM('color',(#1848),#41);
#1848 = PRESENTATION_STYLE_ASSIGNMENT((#1849,#1855));
#1849 = SURFACE_STYLE_USAGE(.BOTH.,#1850);
#1850 = SURFACE_SIDE_STYLE('',(#1851));
#1851 = SURFACE_STYLE_FILL_AREA(#1852);
#1852 = FILL_AREA_STYLE('',(#1853));
#1853 = FILL_AREA_STYLE_COLOUR('',#1854);
#1854 = COLOUR_RGB('',0.102000000202,0.102000000202,0.102000000202);
#1855 = CURVE_STYLE('',#1856,POSITIVE_LENGTH_MEASURE(0.1),#1825);
#1856 = DRAUGHTING_PRE_DEFINED_CURVE_FONT('continuous');
ENDSEC;
END-ISO-10303-21;
