ISO-10303-21;
HEADER;
FILE_DESCRIPTION(('FreeCAD Model'),'2;1');
FILE_NAME('Open CASCADE Shape Model','2025-08-11T12:55:17',(''),(''),
  'Open CASCADE STEP processor 7.8','FreeCAD','Unknown');
FILE_SCHEMA(('AUTOMOTIVE_DESIGN { 1 0 10303 214 1 1 1 1 }'));
ENDSEC;
DATA;
#1 = APPLICATION_PROTOCOL_DEFINITION('international standard',
  'automotive_design',2000,#2);
#2 = APPLICATION_CONTEXT(
  'core data for automotive mechanical design processes');
#3 = SHAPE_DEFINITION_REPRESENTATION(#4,#10);
#4 = PRODUCT_DEFINITION_SHAPE('','',#5);
#5 = PRODUCT_DEFINITION('design','',#6,#9);
#6 = PRODUCT_DEFINITION_FORMATION('','',#7);
#7 = PRODUCT('MTMM-101-04-L-D-196','MTMM-101-04-L-D-196','',(#8));
#8 = PRODUCT_CONTEXT('',#2,'mechanical');
#9 = PRODUCT_DEFINITION_CONTEXT('part definition',#2,'design');
#10 = SHAPE_REPRESENTATION('',(#11,#15,#19),#23);
#11 = AXIS2_PLACEMENT_3D('',#12,#13,#14);
#12 = CARTESIAN_POINT('',(0.,0.,0.));
#13 = DIRECTION('',(0.,0.,1.));
#14 = DIRECTION('',(1.,0.,-0.));
#15 = AXIS2_PLACEMENT_3D('',#16,#17,#18);
#16 = CARTESIAN_POINT('',(0.,0.,0.));
#17 = DIRECTION('',(0.,-1.,1.110223024625E-16));
#18 = DIRECTION('',(1.,0.,0.));
#19 = AXIS2_PLACEMENT_3D('',#20,#21,#22);
#20 = CARTESIAN_POINT('',(0.,0.,0.));
#21 = DIRECTION('',(0.,-1.,1.110223024625E-16));
#22 = DIRECTION('',(1.,0.,0.));
#23 = ( GEOMETRIC_REPRESENTATION_CONTEXT(3) 
GLOBAL_UNCERTAINTY_ASSIGNED_CONTEXT((#27)) GLOBAL_UNIT_ASSIGNED_CONTEXT(
(#24,#25,#26)) REPRESENTATION_CONTEXT('Context #1',
  '3D Context with UNIT and UNCERTAINTY') );
#24 = ( LENGTH_UNIT() NAMED_UNIT(*) SI_UNIT(.MILLI.,.METRE.) );
#25 = ( NAMED_UNIT(*) PLANE_ANGLE_UNIT() SI_UNIT($,.RADIAN.) );
#26 = ( NAMED_UNIT(*) SI_UNIT($,.STERADIAN.) SOLID_ANGLE_UNIT() );
#27 = UNCERTAINTY_MEASURE_WITH_UNIT(LENGTH_MEASURE(1.E-07),#24,
  'distance_accuracy_value','confusion accuracy');
#28 = PRODUCT_RELATED_PRODUCT_CATEGORY('part',$,(#7));
#29 = SHAPE_DEFINITION_REPRESENTATION(#30,#36);
#30 = PRODUCT_DEFINITION_SHAPE('','',#31);
#31 = PRODUCT_DEFINITION('design','',#32,#35);
#32 = PRODUCT_DEFINITION_FORMATION('','',#33);
#33 = PRODUCT('MTMM-101-04-L-D-196_pins','MTMM-101-04-L-D-196_pins','',(
    #34));
#34 = PRODUCT_CONTEXT('',#2,'mechanical');
#35 = PRODUCT_DEFINITION_CONTEXT('part definition',#2,'design');
#36 = ADVANCED_BREP_SHAPE_REPRESENTATION('',(#11,#37),#1099);
#37 = MANIFOLD_SOLID_BREP('',#38);
#38 = CLOSED_SHELL('',(#39,#79,#119,#150,#181,#212,#243,#283,#314,#345,
    #376,#407,#466,#497,#537,#568,#599,#630,#661,#701,#732,#763,#794,
    #825,#875,#887,#935,#947,#959,#971,#983,#1000,#1012,#1029,#1041,
    #1058,#1070,#1087));
#39 = ADVANCED_FACE('',(#40),#74,.F.);
#40 = FACE_BOUND('',#41,.T.);
#41 = EDGE_LOOP('',(#42,#52,#60,#68));
#42 = ORIENTED_EDGE('',*,*,#43,.T.);
#43 = EDGE_CURVE('',#44,#46,#48,.T.);
#44 = VERTEX_POINT('',#45);
#45 = CARTESIAN_POINT('',(-0.254,0.9906,1.4605));
#46 = VERTEX_POINT('',#47);
#47 = CARTESIAN_POINT('',(-0.254,0.762,1.4605));
#48 = LINE('',#49,#50);
#49 = CARTESIAN_POINT('',(-0.254,0.9906,1.4605));
#50 = VECTOR('',#51,1.);
#51 = DIRECTION('',(0.,-1.,0.));
#52 = ORIENTED_EDGE('',*,*,#53,.F.);
#53 = EDGE_CURVE('',#54,#46,#56,.T.);
#54 = VERTEX_POINT('',#55);
#55 = CARTESIAN_POINT('',(0.381,0.762,1.4605));
#56 = LINE('',#57,#58);
#57 = CARTESIAN_POINT('',(0.381,0.762,1.4605));
#58 = VECTOR('',#59,1.);
#59 = DIRECTION('',(-1.,0.,0.));
#60 = ORIENTED_EDGE('',*,*,#61,.F.);
#61 = EDGE_CURVE('',#62,#54,#64,.T.);
#62 = VERTEX_POINT('',#63);
#63 = CARTESIAN_POINT('',(0.381,0.9906,1.4605));
#64 = LINE('',#65,#66);
#65 = CARTESIAN_POINT('',(0.381,0.9906,1.4605));
#66 = VECTOR('',#67,1.);
#67 = DIRECTION('',(0.,-1.,0.));
#68 = ORIENTED_EDGE('',*,*,#69,.T.);
#69 = EDGE_CURVE('',#62,#44,#70,.T.);
#70 = LINE('',#71,#72);
#71 = CARTESIAN_POINT('',(0.381,0.9906,1.4605));
#72 = VECTOR('',#73,1.);
#73 = DIRECTION('',(-1.,0.,0.));
#74 = PLANE('',#75);
#75 = AXIS2_PLACEMENT_3D('',#76,#77,#78);
#76 = CARTESIAN_POINT('',(0.381,0.9906,1.4605));
#77 = DIRECTION('',(0.,0.,-1.));
#78 = DIRECTION('',(-1.,0.,0.));
#79 = ADVANCED_FACE('',(#80),#114,.F.);
#80 = FACE_BOUND('',#81,.T.);
#81 = EDGE_LOOP('',(#82,#92,#100,#108));
#82 = ORIENTED_EDGE('',*,*,#83,.F.);
#83 = EDGE_CURVE('',#84,#86,#88,.T.);
#84 = VERTEX_POINT('',#85);
#85 = CARTESIAN_POINT('',(0.254,-1.4732,1.253998));
#86 = VERTEX_POINT('',#87);
#87 = CARTESIAN_POINT('',(-0.254,-1.4732,1.253998));
#88 = LINE('',#89,#90);
#89 = CARTESIAN_POINT('',(0.381,-1.4732,1.253998));
#90 = VECTOR('',#91,1.);
#91 = DIRECTION('',(-1.,0.,0.));
#92 = ORIENTED_EDGE('',*,*,#93,.T.);
#93 = EDGE_CURVE('',#84,#94,#96,.T.);
#94 = VERTEX_POINT('',#95);
#95 = CARTESIAN_POINT('',(0.254,0.762,1.253998));
#96 = LINE('',#97,#98);
#97 = CARTESIAN_POINT('',(0.254,0.762,1.253998));
#98 = VECTOR('',#99,1.);
#99 = DIRECTION('',(0.,1.,0.));
#100 = ORIENTED_EDGE('',*,*,#101,.T.);
#101 = EDGE_CURVE('',#94,#102,#104,.T.);
#102 = VERTEX_POINT('',#103);
#103 = CARTESIAN_POINT('',(-0.254,0.762,1.253998));
#104 = LINE('',#105,#106);
#105 = CARTESIAN_POINT('',(0.381,0.762,1.253998));
#106 = VECTOR('',#107,1.);
#107 = DIRECTION('',(-1.,0.,0.));
#108 = ORIENTED_EDGE('',*,*,#109,.T.);
#109 = EDGE_CURVE('',#102,#86,#110,.T.);
#110 = LINE('',#111,#112);
#111 = CARTESIAN_POINT('',(-0.254,0.762,1.253998));
#112 = VECTOR('',#113,1.);
#113 = DIRECTION('',(0.,-1.,0.));
#114 = PLANE('',#115);
#115 = AXIS2_PLACEMENT_3D('',#116,#117,#118);
#116 = CARTESIAN_POINT('',(0.381,0.762,1.253998));
#117 = DIRECTION('',(0.,0.,-1.));
#118 = DIRECTION('',(-1.,0.,0.));
#119 = ADVANCED_FACE('',(#120),#145,.F.);
#120 = FACE_BOUND('',#121,.T.);
#121 = EDGE_LOOP('',(#122,#132,#138,#139));
#122 = ORIENTED_EDGE('',*,*,#123,.F.);
#123 = EDGE_CURVE('',#124,#126,#128,.T.);
#124 = VERTEX_POINT('',#125);
#125 = CARTESIAN_POINT('',(0.127,-1.7272,1.126998));
#126 = VERTEX_POINT('',#127);
#127 = CARTESIAN_POINT('',(-0.127,-1.7272,1.126998));
#128 = LINE('',#129,#130);
#129 = CARTESIAN_POINT('',(0.381,-1.7272,1.126998));
#130 = VECTOR('',#131,1.);
#131 = DIRECTION('',(-1.,0.,0.));
#132 = ORIENTED_EDGE('',*,*,#133,.T.);
#133 = EDGE_CURVE('',#124,#84,#134,.T.);
#134 = LINE('',#135,#136);
#135 = CARTESIAN_POINT('',(0.275166666667,-1.430866666667,1.275164666667
    ));
#136 = VECTOR('',#137,1.);
#137 = DIRECTION('',(0.408248290464,0.816496580928,0.408248290464));
#138 = ORIENTED_EDGE('',*,*,#83,.T.);
#139 = ORIENTED_EDGE('',*,*,#140,.T.);
#140 = EDGE_CURVE('',#86,#126,#141,.T.);
#141 = LINE('',#142,#143);
#142 = CARTESIAN_POINT('',(-0.148166666667,-1.684866666667,
    1.148164666667));
#143 = VECTOR('',#144,1.);
#144 = DIRECTION('',(0.408248290464,-0.816496580928,-0.408248290464));
#145 = PLANE('',#146);
#146 = AXIS2_PLACEMENT_3D('',#147,#148,#149);
#147 = CARTESIAN_POINT('',(0.381,-1.4732,1.253998));
#148 = DIRECTION('',(0.,0.4472135955,-0.894427191));
#149 = DIRECTION('',(0.,0.894427191,0.4472135955));
#150 = ADVANCED_FACE('',(#151),#176,.F.);
#151 = FACE_BOUND('',#152,.T.);
#152 = EDGE_LOOP('',(#153,#163,#169,#170));
#153 = ORIENTED_EDGE('',*,*,#154,.F.);
#154 = EDGE_CURVE('',#155,#157,#159,.T.);
#155 = VERTEX_POINT('',#156);
#156 = CARTESIAN_POINT('',(0.127,-1.7272,0.872998));
#157 = VERTEX_POINT('',#158);
#158 = CARTESIAN_POINT('',(-0.127,-1.7272,0.872998));
#159 = LINE('',#160,#161);
#160 = CARTESIAN_POINT('',(0.381,-1.7272,0.872998));
#161 = VECTOR('',#162,1.);
#162 = DIRECTION('',(-1.,0.,0.));
#163 = ORIENTED_EDGE('',*,*,#164,.F.);
#164 = EDGE_CURVE('',#124,#155,#165,.T.);
#165 = LINE('',#166,#167);
#166 = CARTESIAN_POINT('',(0.127,-1.7272,7.62));
#167 = VECTOR('',#168,1.);
#168 = DIRECTION('',(0.,0.,-1.));
#169 = ORIENTED_EDGE('',*,*,#123,.T.);
#170 = ORIENTED_EDGE('',*,*,#171,.T.);
#171 = EDGE_CURVE('',#126,#157,#172,.T.);
#172 = LINE('',#173,#174);
#173 = CARTESIAN_POINT('',(-0.127,-1.7272,7.62));
#174 = VECTOR('',#175,1.);
#175 = DIRECTION('',(0.,0.,-1.));
#176 = PLANE('',#177);
#177 = AXIS2_PLACEMENT_3D('',#178,#179,#180);
#178 = CARTESIAN_POINT('',(0.381,-1.7272,1.126998));
#179 = DIRECTION('',(0.,1.,0.));
#180 = DIRECTION('',(0.,-0.,1.));
#181 = ADVANCED_FACE('',(#182),#207,.F.);
#182 = FACE_BOUND('',#183,.T.);
#183 = EDGE_LOOP('',(#184,#194,#200,#201));
#184 = ORIENTED_EDGE('',*,*,#185,.F.);
#185 = EDGE_CURVE('',#186,#188,#190,.T.);
#186 = VERTEX_POINT('',#187);
#187 = CARTESIAN_POINT('',(0.254,-1.4732,0.745998));
#188 = VERTEX_POINT('',#189);
#189 = CARTESIAN_POINT('',(-0.254,-1.4732,0.745998));
#190 = LINE('',#191,#192);
#191 = CARTESIAN_POINT('',(0.381,-1.4732,0.745998));
#192 = VECTOR('',#193,1.);
#193 = DIRECTION('',(-1.,0.,0.));
#194 = ORIENTED_EDGE('',*,*,#195,.T.);
#195 = EDGE_CURVE('',#186,#155,#196,.T.);
#196 = LINE('',#197,#198);
#197 = CARTESIAN_POINT('',(0.169333333333,-1.642533333333,0.830664666667
    ));
#198 = VECTOR('',#199,1.);
#199 = DIRECTION('',(-0.408248290464,-0.816496580928,0.408248290464));
#200 = ORIENTED_EDGE('',*,*,#154,.T.);
#201 = ORIENTED_EDGE('',*,*,#202,.T.);
#202 = EDGE_CURVE('',#157,#188,#203,.T.);
#203 = LINE('',#204,#205);
#204 = CARTESIAN_POINT('',(-4.233333333333E-02,-1.896533333333,
    0.957664666667));
#205 = VECTOR('',#206,1.);
#206 = DIRECTION('',(-0.408248290464,0.816496580928,-0.408248290464));
#207 = PLANE('',#208);
#208 = AXIS2_PLACEMENT_3D('',#209,#210,#211);
#209 = CARTESIAN_POINT('',(0.381,-1.7272,0.872998));
#210 = DIRECTION('',(0.,0.4472135955,0.894427191));
#211 = DIRECTION('',(0.,-0.894427191,0.4472135955));
#212 = ADVANCED_FACE('',(#213),#238,.F.);
#213 = FACE_BOUND('',#214,.T.);
#214 = EDGE_LOOP('',(#215,#225,#231,#232));
#215 = ORIENTED_EDGE('',*,*,#216,.F.);
#216 = EDGE_CURVE('',#217,#219,#221,.T.);
#217 = VERTEX_POINT('',#218);
#218 = CARTESIAN_POINT('',(0.254,0.762,0.745998));
#219 = VERTEX_POINT('',#220);
#220 = CARTESIAN_POINT('',(-0.254,0.762,0.745998));
#221 = LINE('',#222,#223);
#222 = CARTESIAN_POINT('',(0.381,0.762,0.745998));
#223 = VECTOR('',#224,1.);
#224 = DIRECTION('',(-1.,0.,0.));
#225 = ORIENTED_EDGE('',*,*,#226,.T.);
#226 = EDGE_CURVE('',#217,#186,#227,.T.);
#227 = LINE('',#228,#229);
#228 = CARTESIAN_POINT('',(0.254,-1.4732,0.745998));
#229 = VECTOR('',#230,1.);
#230 = DIRECTION('',(0.,-1.,0.));
#231 = ORIENTED_EDGE('',*,*,#185,.T.);
#232 = ORIENTED_EDGE('',*,*,#233,.T.);
#233 = EDGE_CURVE('',#188,#219,#234,.T.);
#234 = LINE('',#235,#236);
#235 = CARTESIAN_POINT('',(-0.254,-1.4732,0.745998));
#236 = VECTOR('',#237,1.);
#237 = DIRECTION('',(0.,1.,0.));
#238 = PLANE('',#239);
#239 = AXIS2_PLACEMENT_3D('',#240,#241,#242);
#240 = CARTESIAN_POINT('',(0.381,-1.4732,0.745998));
#241 = DIRECTION('',(0.,0.,1.));
#242 = DIRECTION('',(1.,0.,-0.));
#243 = ADVANCED_FACE('',(#244),#278,.F.);
#244 = FACE_BOUND('',#245,.T.);
#245 = EDGE_LOOP('',(#246,#256,#264,#272));
#246 = ORIENTED_EDGE('',*,*,#247,.F.);
#247 = EDGE_CURVE('',#248,#250,#252,.T.);
#248 = VERTEX_POINT('',#249);
#249 = CARTESIAN_POINT('',(0.254,-1.4732,-0.745998));
#250 = VERTEX_POINT('',#251);
#251 = CARTESIAN_POINT('',(-0.254,-1.4732,-0.745998));
#252 = LINE('',#253,#254);
#253 = CARTESIAN_POINT('',(0.381,-1.4732,-0.745998));
#254 = VECTOR('',#255,1.);
#255 = DIRECTION('',(-1.,0.,0.));
#256 = ORIENTED_EDGE('',*,*,#257,.T.);
#257 = EDGE_CURVE('',#248,#258,#260,.T.);
#258 = VERTEX_POINT('',#259);
#259 = CARTESIAN_POINT('',(0.254,0.762,-0.745998));
#260 = LINE('',#261,#262);
#261 = CARTESIAN_POINT('',(0.254,0.762,-0.745998));
#262 = VECTOR('',#263,1.);
#263 = DIRECTION('',(0.,1.,0.));
#264 = ORIENTED_EDGE('',*,*,#265,.T.);
#265 = EDGE_CURVE('',#258,#266,#268,.T.);
#266 = VERTEX_POINT('',#267);
#267 = CARTESIAN_POINT('',(-0.254,0.762,-0.745998));
#268 = LINE('',#269,#270);
#269 = CARTESIAN_POINT('',(0.381,0.762,-0.745998));
#270 = VECTOR('',#271,1.);
#271 = DIRECTION('',(-1.,0.,0.));
#272 = ORIENTED_EDGE('',*,*,#273,.T.);
#273 = EDGE_CURVE('',#266,#250,#274,.T.);
#274 = LINE('',#275,#276);
#275 = CARTESIAN_POINT('',(-0.254,0.762,-0.745998));
#276 = VECTOR('',#277,1.);
#277 = DIRECTION('',(0.,-1.,0.));
#278 = PLANE('',#279);
#279 = AXIS2_PLACEMENT_3D('',#280,#281,#282);
#280 = CARTESIAN_POINT('',(0.381,0.762,-0.745998));
#281 = DIRECTION('',(0.,0.,-1.));
#282 = DIRECTION('',(-1.,0.,0.));
#283 = ADVANCED_FACE('',(#284),#309,.F.);
#284 = FACE_BOUND('',#285,.T.);
#285 = EDGE_LOOP('',(#286,#296,#302,#303));
#286 = ORIENTED_EDGE('',*,*,#287,.F.);
#287 = EDGE_CURVE('',#288,#290,#292,.T.);
#288 = VERTEX_POINT('',#289);
#289 = CARTESIAN_POINT('',(0.127,-1.7272,-0.872998));
#290 = VERTEX_POINT('',#291);
#291 = CARTESIAN_POINT('',(-0.127,-1.7272,-0.872998));
#292 = LINE('',#293,#294);
#293 = CARTESIAN_POINT('',(0.381,-1.7272,-0.872998));
#294 = VECTOR('',#295,1.);
#295 = DIRECTION('',(-1.,0.,0.));
#296 = ORIENTED_EDGE('',*,*,#297,.T.);
#297 = EDGE_CURVE('',#288,#248,#298,.T.);
#298 = LINE('',#299,#300);
#299 = CARTESIAN_POINT('',(0.275166666667,-1.430866666667,
    -0.724831333333));
#300 = VECTOR('',#301,1.);
#301 = DIRECTION('',(0.408248290464,0.816496580928,0.408248290464));
#302 = ORIENTED_EDGE('',*,*,#247,.T.);
#303 = ORIENTED_EDGE('',*,*,#304,.T.);
#304 = EDGE_CURVE('',#250,#290,#305,.T.);
#305 = LINE('',#306,#307);
#306 = CARTESIAN_POINT('',(-0.148166666667,-1.684866666667,
    -0.851831333333));
#307 = VECTOR('',#308,1.);
#308 = DIRECTION('',(0.408248290464,-0.816496580928,-0.408248290464));
#309 = PLANE('',#310);
#310 = AXIS2_PLACEMENT_3D('',#311,#312,#313);
#311 = CARTESIAN_POINT('',(0.381,-1.4732,-0.745998));
#312 = DIRECTION('',(0.,0.4472135955,-0.894427191));
#313 = DIRECTION('',(0.,0.894427191,0.4472135955));
#314 = ADVANCED_FACE('',(#315),#340,.F.);
#315 = FACE_BOUND('',#316,.T.);
#316 = EDGE_LOOP('',(#317,#327,#333,#334));
#317 = ORIENTED_EDGE('',*,*,#318,.F.);
#318 = EDGE_CURVE('',#319,#321,#323,.T.);
#319 = VERTEX_POINT('',#320);
#320 = CARTESIAN_POINT('',(0.127,-1.7272,-1.126998));
#321 = VERTEX_POINT('',#322);
#322 = CARTESIAN_POINT('',(-0.127,-1.7272,-1.126998));
#323 = LINE('',#324,#325);
#324 = CARTESIAN_POINT('',(0.381,-1.7272,-1.126998));
#325 = VECTOR('',#326,1.);
#326 = DIRECTION('',(-1.,0.,0.));
#327 = ORIENTED_EDGE('',*,*,#328,.F.);
#328 = EDGE_CURVE('',#288,#319,#329,.T.);
#329 = LINE('',#330,#331);
#330 = CARTESIAN_POINT('',(0.127,-1.7272,7.62));
#331 = VECTOR('',#332,1.);
#332 = DIRECTION('',(0.,0.,-1.));
#333 = ORIENTED_EDGE('',*,*,#287,.T.);
#334 = ORIENTED_EDGE('',*,*,#335,.T.);
#335 = EDGE_CURVE('',#290,#321,#336,.T.);
#336 = LINE('',#337,#338);
#337 = CARTESIAN_POINT('',(-0.127,-1.7272,7.62));
#338 = VECTOR('',#339,1.);
#339 = DIRECTION('',(0.,0.,-1.));
#340 = PLANE('',#341);
#341 = AXIS2_PLACEMENT_3D('',#342,#343,#344);
#342 = CARTESIAN_POINT('',(0.381,-1.7272,-0.872998));
#343 = DIRECTION('',(0.,1.,0.));
#344 = DIRECTION('',(0.,-0.,1.));
#345 = ADVANCED_FACE('',(#346),#371,.F.);
#346 = FACE_BOUND('',#347,.T.);
#347 = EDGE_LOOP('',(#348,#358,#364,#365));
#348 = ORIENTED_EDGE('',*,*,#349,.F.);
#349 = EDGE_CURVE('',#350,#352,#354,.T.);
#350 = VERTEX_POINT('',#351);
#351 = CARTESIAN_POINT('',(0.254,-1.4732,-1.253998));
#352 = VERTEX_POINT('',#353);
#353 = CARTESIAN_POINT('',(-0.254,-1.4732,-1.253998));
#354 = LINE('',#355,#356);
#355 = CARTESIAN_POINT('',(0.381,-1.4732,-1.253998));
#356 = VECTOR('',#357,1.);
#357 = DIRECTION('',(-1.,0.,0.));
#358 = ORIENTED_EDGE('',*,*,#359,.T.);
#359 = EDGE_CURVE('',#350,#319,#360,.T.);
#360 = LINE('',#361,#362);
#361 = CARTESIAN_POINT('',(0.169333333333,-1.642533333333,
    -1.169331333333));
#362 = VECTOR('',#363,1.);
#363 = DIRECTION('',(-0.408248290464,-0.816496580928,0.408248290464));
#364 = ORIENTED_EDGE('',*,*,#318,.T.);
#365 = ORIENTED_EDGE('',*,*,#366,.T.);
#366 = EDGE_CURVE('',#321,#352,#367,.T.);
#367 = LINE('',#368,#369);
#368 = CARTESIAN_POINT('',(-4.233333333333E-02,-1.896533333333,
    -1.042331333333));
#369 = VECTOR('',#370,1.);
#370 = DIRECTION('',(-0.408248290464,0.816496580928,-0.408248290464));
#371 = PLANE('',#372);
#372 = AXIS2_PLACEMENT_3D('',#373,#374,#375);
#373 = CARTESIAN_POINT('',(0.381,-1.7272,-1.126998));
#374 = DIRECTION('',(0.,0.4472135955,0.894427191));
#375 = DIRECTION('',(0.,-0.894427191,0.4472135955));
#376 = ADVANCED_FACE('',(#377),#402,.F.);
#377 = FACE_BOUND('',#378,.T.);
#378 = EDGE_LOOP('',(#379,#389,#395,#396));
#379 = ORIENTED_EDGE('',*,*,#380,.F.);
#380 = EDGE_CURVE('',#381,#383,#385,.T.);
#381 = VERTEX_POINT('',#382);
#382 = CARTESIAN_POINT('',(0.254,0.762,-1.253998));
#383 = VERTEX_POINT('',#384);
#384 = CARTESIAN_POINT('',(-0.254,0.762,-1.253998));
#385 = LINE('',#386,#387);
#386 = CARTESIAN_POINT('',(0.381,0.762,-1.253998));
#387 = VECTOR('',#388,1.);
#388 = DIRECTION('',(-1.,0.,0.));
#389 = ORIENTED_EDGE('',*,*,#390,.T.);
#390 = EDGE_CURVE('',#381,#350,#391,.T.);
#391 = LINE('',#392,#393);
#392 = CARTESIAN_POINT('',(0.254,-1.4732,-1.253998));
#393 = VECTOR('',#394,1.);
#394 = DIRECTION('',(0.,-1.,0.));
#395 = ORIENTED_EDGE('',*,*,#349,.T.);
#396 = ORIENTED_EDGE('',*,*,#397,.T.);
#397 = EDGE_CURVE('',#352,#383,#398,.T.);
#398 = LINE('',#399,#400);
#399 = CARTESIAN_POINT('',(-0.254,-1.4732,-1.253998));
#400 = VECTOR('',#401,1.);
#401 = DIRECTION('',(0.,1.,0.));
#402 = PLANE('',#403);
#403 = AXIS2_PLACEMENT_3D('',#404,#405,#406);
#404 = CARTESIAN_POINT('',(0.381,-1.4732,-1.253998));
#405 = DIRECTION('',(0.,0.,1.));
#406 = DIRECTION('',(1.,0.,-0.));
#407 = ADVANCED_FACE('',(#408),#461,.F.);
#408 = FACE_BOUND('',#409,.T.);
#409 = EDGE_LOOP('',(#410,#418,#426,#432,#433,#439,#440,#446,#447,#453,
    #454,#460));
#410 = ORIENTED_EDGE('',*,*,#411,.T.);
#411 = EDGE_CURVE('',#383,#412,#414,.T.);
#412 = VERTEX_POINT('',#413);
#413 = CARTESIAN_POINT('',(-0.254,0.762,-1.4605));
#414 = LINE('',#415,#416);
#415 = CARTESIAN_POINT('',(-0.254,0.762,-1.253998));
#416 = VECTOR('',#417,1.);
#417 = DIRECTION('',(0.,1.05006457321E-15,-1.));
#418 = ORIENTED_EDGE('',*,*,#419,.F.);
#419 = EDGE_CURVE('',#420,#412,#422,.T.);
#420 = VERTEX_POINT('',#421);
#421 = CARTESIAN_POINT('',(0.381,0.762,-1.4605));
#422 = LINE('',#423,#424);
#423 = CARTESIAN_POINT('',(0.381,0.762,-1.4605));
#424 = VECTOR('',#425,1.);
#425 = DIRECTION('',(-1.,0.,0.));
#426 = ORIENTED_EDGE('',*,*,#427,.F.);
#427 = EDGE_CURVE('',#54,#420,#428,.T.);
#428 = LINE('',#429,#430);
#429 = CARTESIAN_POINT('',(0.381,0.762,1.4605));
#430 = VECTOR('',#431,1.);
#431 = DIRECTION('',(0.,0.,-1.));
#432 = ORIENTED_EDGE('',*,*,#53,.T.);
#433 = ORIENTED_EDGE('',*,*,#434,.T.);
#434 = EDGE_CURVE('',#46,#102,#435,.T.);
#435 = LINE('',#436,#437);
#436 = CARTESIAN_POINT('',(-0.254,0.762,1.4605));
#437 = VECTOR('',#438,1.);
#438 = DIRECTION('',(0.,0.,-1.));
#439 = ORIENTED_EDGE('',*,*,#101,.F.);
#440 = ORIENTED_EDGE('',*,*,#441,.T.);
#441 = EDGE_CURVE('',#94,#217,#442,.T.);
#442 = LINE('',#443,#444);
#443 = CARTESIAN_POINT('',(0.254,0.762,7.62));
#444 = VECTOR('',#445,1.);
#445 = DIRECTION('',(0.,0.,-1.));
#446 = ORIENTED_EDGE('',*,*,#216,.T.);
#447 = ORIENTED_EDGE('',*,*,#448,.T.);
#448 = EDGE_CURVE('',#219,#266,#449,.T.);
#449 = LINE('',#450,#451);
#450 = CARTESIAN_POINT('',(-0.254,0.762,0.745998));
#451 = VECTOR('',#452,1.);
#452 = DIRECTION('',(0.,1.453358015015E-16,-1.));
#453 = ORIENTED_EDGE('',*,*,#265,.F.);
#454 = ORIENTED_EDGE('',*,*,#455,.T.);
#455 = EDGE_CURVE('',#258,#381,#456,.T.);
#456 = LINE('',#457,#458);
#457 = CARTESIAN_POINT('',(0.254,0.762,7.62));
#458 = VECTOR('',#459,1.);
#459 = DIRECTION('',(0.,0.,-1.));
#460 = ORIENTED_EDGE('',*,*,#380,.T.);
#461 = PLANE('',#462);
#462 = AXIS2_PLACEMENT_3D('',#463,#464,#465);
#463 = CARTESIAN_POINT('',(0.381,0.762,-1.253998));
#464 = DIRECTION('',(0.,1.,1.05006457321E-15));
#465 = DIRECTION('',(0.,-1.05006457321E-15,1.));
#466 = ADVANCED_FACE('',(#467),#492,.F.);
#467 = FACE_BOUND('',#468,.T.);
#468 = EDGE_LOOP('',(#469,#477,#485,#491));
#469 = ORIENTED_EDGE('',*,*,#470,.T.);
#470 = EDGE_CURVE('',#412,#471,#473,.T.);
#471 = VERTEX_POINT('',#472);
#472 = CARTESIAN_POINT('',(-0.254,0.9906,-1.4605));
#473 = LINE('',#474,#475);
#474 = CARTESIAN_POINT('',(-0.254,0.762,-1.4605));
#475 = VECTOR('',#476,1.);
#476 = DIRECTION('',(0.,1.,0.));
#477 = ORIENTED_EDGE('',*,*,#478,.F.);
#478 = EDGE_CURVE('',#479,#471,#481,.T.);
#479 = VERTEX_POINT('',#480);
#480 = CARTESIAN_POINT('',(0.381,0.9906,-1.4605));
#481 = LINE('',#482,#483);
#482 = CARTESIAN_POINT('',(0.381,0.9906,-1.4605));
#483 = VECTOR('',#484,1.);
#484 = DIRECTION('',(-1.,0.,0.));
#485 = ORIENTED_EDGE('',*,*,#486,.F.);
#486 = EDGE_CURVE('',#420,#479,#487,.T.);
#487 = LINE('',#488,#489);
#488 = CARTESIAN_POINT('',(0.381,0.762,-1.4605));
#489 = VECTOR('',#490,1.);
#490 = DIRECTION('',(0.,1.,0.));
#491 = ORIENTED_EDGE('',*,*,#419,.T.);
#492 = PLANE('',#493);
#493 = AXIS2_PLACEMENT_3D('',#494,#495,#496);
#494 = CARTESIAN_POINT('',(0.381,0.762,-1.4605));
#495 = DIRECTION('',(0.,0.,1.));
#496 = DIRECTION('',(1.,0.,-0.));
#497 = ADVANCED_FACE('',(#498),#532,.F.);
#498 = FACE_BOUND('',#499,.T.);
#499 = EDGE_LOOP('',(#500,#510,#518,#526));
#500 = ORIENTED_EDGE('',*,*,#501,.F.);
#501 = EDGE_CURVE('',#502,#504,#506,.T.);
#502 = VERTEX_POINT('',#503);
#503 = CARTESIAN_POINT('',(0.254,6.223,-1.253998));
#504 = VERTEX_POINT('',#505);
#505 = CARTESIAN_POINT('',(-0.254,6.223,-1.253998));
#506 = LINE('',#507,#508);
#507 = CARTESIAN_POINT('',(0.381,6.223,-1.253998));
#508 = VECTOR('',#509,1.);
#509 = DIRECTION('',(-1.,0.,0.));
#510 = ORIENTED_EDGE('',*,*,#511,.T.);
#511 = EDGE_CURVE('',#502,#512,#514,.T.);
#512 = VERTEX_POINT('',#513);
#513 = CARTESIAN_POINT('',(0.254,0.9906,-1.253998));
#514 = LINE('',#515,#516);
#515 = CARTESIAN_POINT('',(0.254,0.9906,-1.253998));
#516 = VECTOR('',#517,1.);
#517 = DIRECTION('',(0.,-1.,0.));
#518 = ORIENTED_EDGE('',*,*,#519,.T.);
#519 = EDGE_CURVE('',#512,#520,#522,.T.);
#520 = VERTEX_POINT('',#521);
#521 = CARTESIAN_POINT('',(-0.254,0.9906,-1.253998));
#522 = LINE('',#523,#524);
#523 = CARTESIAN_POINT('',(0.381,0.9906,-1.253998));
#524 = VECTOR('',#525,1.);
#525 = DIRECTION('',(-1.,0.,0.));
#526 = ORIENTED_EDGE('',*,*,#527,.T.);
#527 = EDGE_CURVE('',#520,#504,#528,.T.);
#528 = LINE('',#529,#530);
#529 = CARTESIAN_POINT('',(-0.254,0.9906,-1.253998));
#530 = VECTOR('',#531,1.);
#531 = DIRECTION('',(0.,1.,0.));
#532 = PLANE('',#533);
#533 = AXIS2_PLACEMENT_3D('',#534,#535,#536);
#534 = CARTESIAN_POINT('',(0.381,0.9906,-1.253998));
#535 = DIRECTION('',(0.,0.,1.));
#536 = DIRECTION('',(1.,0.,-0.));
#537 = ADVANCED_FACE('',(#538),#563,.F.);
#538 = FACE_BOUND('',#539,.T.);
#539 = EDGE_LOOP('',(#540,#541,#549,#557));
#540 = ORIENTED_EDGE('',*,*,#501,.T.);
#541 = ORIENTED_EDGE('',*,*,#542,.T.);
#542 = EDGE_CURVE('',#504,#543,#545,.T.);
#543 = VERTEX_POINT('',#544);
#544 = CARTESIAN_POINT('',(-0.127,6.477,-1.126998));
#545 = LINE('',#546,#547);
#546 = CARTESIAN_POINT('',(-0.148166666667,6.434666666667,
    -1.148164666667));
#547 = VECTOR('',#548,1.);
#548 = DIRECTION('',(0.408248290464,0.816496580928,0.408248290464));
#549 = ORIENTED_EDGE('',*,*,#550,.F.);
#550 = EDGE_CURVE('',#551,#543,#553,.T.);
#551 = VERTEX_POINT('',#552);
#552 = CARTESIAN_POINT('',(0.127,6.477,-1.126998));
#553 = LINE('',#554,#555);
#554 = CARTESIAN_POINT('',(0.381,6.477,-1.126998));
#555 = VECTOR('',#556,1.);
#556 = DIRECTION('',(-1.,0.,0.));
#557 = ORIENTED_EDGE('',*,*,#558,.T.);
#558 = EDGE_CURVE('',#551,#502,#559,.T.);
#559 = LINE('',#560,#561);
#560 = CARTESIAN_POINT('',(0.275166666667,6.180666666667,-1.275164666667
    ));
#561 = VECTOR('',#562,1.);
#562 = DIRECTION('',(0.408248290464,-0.816496580928,-0.408248290464));
#563 = PLANE('',#564);
#564 = AXIS2_PLACEMENT_3D('',#565,#566,#567);
#565 = CARTESIAN_POINT('',(0.381,6.223,-1.253998));
#566 = DIRECTION('',(0.,-0.4472135955,0.894427191));
#567 = DIRECTION('',(0.,-0.894427191,-0.4472135955));
#568 = ADVANCED_FACE('',(#569),#594,.F.);
#569 = FACE_BOUND('',#570,.T.);
#570 = EDGE_LOOP('',(#571,#572,#580,#588));
#571 = ORIENTED_EDGE('',*,*,#550,.T.);
#572 = ORIENTED_EDGE('',*,*,#573,.F.);
#573 = EDGE_CURVE('',#574,#543,#576,.T.);
#574 = VERTEX_POINT('',#575);
#575 = CARTESIAN_POINT('',(-0.127,6.477,-0.872998));
#576 = LINE('',#577,#578);
#577 = CARTESIAN_POINT('',(-0.127,6.477,7.62));
#578 = VECTOR('',#579,1.);
#579 = DIRECTION('',(0.,0.,-1.));
#580 = ORIENTED_EDGE('',*,*,#581,.F.);
#581 = EDGE_CURVE('',#582,#574,#584,.T.);
#582 = VERTEX_POINT('',#583);
#583 = CARTESIAN_POINT('',(0.127,6.477,-0.872998));
#584 = LINE('',#585,#586);
#585 = CARTESIAN_POINT('',(0.381,6.477,-0.872998));
#586 = VECTOR('',#587,1.);
#587 = DIRECTION('',(-1.,0.,0.));
#588 = ORIENTED_EDGE('',*,*,#589,.T.);
#589 = EDGE_CURVE('',#582,#551,#590,.T.);
#590 = LINE('',#591,#592);
#591 = CARTESIAN_POINT('',(0.127,6.477,7.62));
#592 = VECTOR('',#593,1.);
#593 = DIRECTION('',(0.,0.,-1.));
#594 = PLANE('',#595);
#595 = AXIS2_PLACEMENT_3D('',#596,#597,#598);
#596 = CARTESIAN_POINT('',(0.381,6.477,-1.126998));
#597 = DIRECTION('',(0.,-1.,0.));
#598 = DIRECTION('',(0.,0.,-1.));
#599 = ADVANCED_FACE('',(#600),#625,.F.);
#600 = FACE_BOUND('',#601,.T.);
#601 = EDGE_LOOP('',(#602,#603,#611,#619));
#602 = ORIENTED_EDGE('',*,*,#581,.T.);
#603 = ORIENTED_EDGE('',*,*,#604,.T.);
#604 = EDGE_CURVE('',#574,#605,#607,.T.);
#605 = VERTEX_POINT('',#606);
#606 = CARTESIAN_POINT('',(-0.254,6.223,-0.745998));
#607 = LINE('',#608,#609);
#608 = CARTESIAN_POINT('',(-4.233333333333E-02,6.646333333333,
    -0.957664666667));
#609 = VECTOR('',#610,1.);
#610 = DIRECTION('',(-0.408248290464,-0.816496580928,0.408248290464));
#611 = ORIENTED_EDGE('',*,*,#612,.F.);
#612 = EDGE_CURVE('',#613,#605,#615,.T.);
#613 = VERTEX_POINT('',#614);
#614 = CARTESIAN_POINT('',(0.254,6.223,-0.745998));
#615 = LINE('',#616,#617);
#616 = CARTESIAN_POINT('',(0.381,6.223,-0.745998));
#617 = VECTOR('',#618,1.);
#618 = DIRECTION('',(-1.,0.,0.));
#619 = ORIENTED_EDGE('',*,*,#620,.T.);
#620 = EDGE_CURVE('',#613,#582,#621,.T.);
#621 = LINE('',#622,#623);
#622 = CARTESIAN_POINT('',(0.169333333333,6.392333333333,-0.830664666667
    ));
#623 = VECTOR('',#624,1.);
#624 = DIRECTION('',(-0.408248290464,0.816496580928,-0.408248290464));
#625 = PLANE('',#626);
#626 = AXIS2_PLACEMENT_3D('',#627,#628,#629);
#627 = CARTESIAN_POINT('',(0.381,6.477,-0.872998));
#628 = DIRECTION('',(0.,-0.4472135955,-0.894427191));
#629 = DIRECTION('',(0.,0.894427191,-0.4472135955));
#630 = ADVANCED_FACE('',(#631),#656,.F.);
#631 = FACE_BOUND('',#632,.T.);
#632 = EDGE_LOOP('',(#633,#643,#649,#650));
#633 = ORIENTED_EDGE('',*,*,#634,.F.);
#634 = EDGE_CURVE('',#635,#637,#639,.T.);
#635 = VERTEX_POINT('',#636);
#636 = CARTESIAN_POINT('',(0.254,0.9906,-0.745998));
#637 = VERTEX_POINT('',#638);
#638 = CARTESIAN_POINT('',(-0.254,0.9906,-0.745998));
#639 = LINE('',#640,#641);
#640 = CARTESIAN_POINT('',(0.381,0.9906,-0.745998));
#641 = VECTOR('',#642,1.);
#642 = DIRECTION('',(-1.,0.,0.));
#643 = ORIENTED_EDGE('',*,*,#644,.T.);
#644 = EDGE_CURVE('',#635,#613,#645,.T.);
#645 = LINE('',#646,#647);
#646 = CARTESIAN_POINT('',(0.254,6.223,-0.745998));
#647 = VECTOR('',#648,1.);
#648 = DIRECTION('',(0.,1.,0.));
#649 = ORIENTED_EDGE('',*,*,#612,.T.);
#650 = ORIENTED_EDGE('',*,*,#651,.T.);
#651 = EDGE_CURVE('',#605,#637,#652,.T.);
#652 = LINE('',#653,#654);
#653 = CARTESIAN_POINT('',(-0.254,6.223,-0.745998));
#654 = VECTOR('',#655,1.);
#655 = DIRECTION('',(0.,-1.,0.));
#656 = PLANE('',#657);
#657 = AXIS2_PLACEMENT_3D('',#658,#659,#660);
#658 = CARTESIAN_POINT('',(0.381,6.223,-0.745998));
#659 = DIRECTION('',(0.,0.,-1.));
#660 = DIRECTION('',(-1.,0.,0.));
#661 = ADVANCED_FACE('',(#662),#696,.F.);
#662 = FACE_BOUND('',#663,.T.);
#663 = EDGE_LOOP('',(#664,#674,#682,#690));
#664 = ORIENTED_EDGE('',*,*,#665,.F.);
#665 = EDGE_CURVE('',#666,#668,#670,.T.);
#666 = VERTEX_POINT('',#667);
#667 = CARTESIAN_POINT('',(0.254,6.223,0.745998));
#668 = VERTEX_POINT('',#669);
#669 = CARTESIAN_POINT('',(-0.254,6.223,0.745998));
#670 = LINE('',#671,#672);
#671 = CARTESIAN_POINT('',(0.381,6.223,0.745998));
#672 = VECTOR('',#673,1.);
#673 = DIRECTION('',(-1.,0.,0.));
#674 = ORIENTED_EDGE('',*,*,#675,.T.);
#675 = EDGE_CURVE('',#666,#676,#678,.T.);
#676 = VERTEX_POINT('',#677);
#677 = CARTESIAN_POINT('',(0.254,0.9906,0.745998));
#678 = LINE('',#679,#680);
#679 = CARTESIAN_POINT('',(0.254,0.9906,0.745998));
#680 = VECTOR('',#681,1.);
#681 = DIRECTION('',(0.,-1.,0.));
#682 = ORIENTED_EDGE('',*,*,#683,.T.);
#683 = EDGE_CURVE('',#676,#684,#686,.T.);
#684 = VERTEX_POINT('',#685);
#685 = CARTESIAN_POINT('',(-0.254,0.9906,0.745998));
#686 = LINE('',#687,#688);
#687 = CARTESIAN_POINT('',(0.381,0.9906,0.745998));
#688 = VECTOR('',#689,1.);
#689 = DIRECTION('',(-1.,0.,0.));
#690 = ORIENTED_EDGE('',*,*,#691,.T.);
#691 = EDGE_CURVE('',#684,#668,#692,.T.);
#692 = LINE('',#693,#694);
#693 = CARTESIAN_POINT('',(-0.254,0.9906,0.745998));
#694 = VECTOR('',#695,1.);
#695 = DIRECTION('',(0.,1.,0.));
#696 = PLANE('',#697);
#697 = AXIS2_PLACEMENT_3D('',#698,#699,#700);
#698 = CARTESIAN_POINT('',(0.381,0.9906,0.745998));
#699 = DIRECTION('',(0.,0.,1.));
#700 = DIRECTION('',(1.,0.,-0.));
#701 = ADVANCED_FACE('',(#702),#727,.F.);
#702 = FACE_BOUND('',#703,.T.);
#703 = EDGE_LOOP('',(#704,#705,#713,#721));
#704 = ORIENTED_EDGE('',*,*,#665,.T.);
#705 = ORIENTED_EDGE('',*,*,#706,.T.);
#706 = EDGE_CURVE('',#668,#707,#709,.T.);
#707 = VERTEX_POINT('',#708);
#708 = CARTESIAN_POINT('',(-0.127,6.477,0.872998));
#709 = LINE('',#710,#711);
#710 = CARTESIAN_POINT('',(-0.148166666667,6.434666666667,0.851831333333
    ));
#711 = VECTOR('',#712,1.);
#712 = DIRECTION('',(0.408248290464,0.816496580928,0.408248290464));
#713 = ORIENTED_EDGE('',*,*,#714,.F.);
#714 = EDGE_CURVE('',#715,#707,#717,.T.);
#715 = VERTEX_POINT('',#716);
#716 = CARTESIAN_POINT('',(0.127,6.477,0.872998));
#717 = LINE('',#718,#719);
#718 = CARTESIAN_POINT('',(0.381,6.477,0.872998));
#719 = VECTOR('',#720,1.);
#720 = DIRECTION('',(-1.,0.,0.));
#721 = ORIENTED_EDGE('',*,*,#722,.T.);
#722 = EDGE_CURVE('',#715,#666,#723,.T.);
#723 = LINE('',#724,#725);
#724 = CARTESIAN_POINT('',(0.275166666667,6.180666666667,0.724831333333)
  );
#725 = VECTOR('',#726,1.);
#726 = DIRECTION('',(0.408248290464,-0.816496580928,-0.408248290464));
#727 = PLANE('',#728);
#728 = AXIS2_PLACEMENT_3D('',#729,#730,#731);
#729 = CARTESIAN_POINT('',(0.381,6.223,0.745998));
#730 = DIRECTION('',(0.,-0.4472135955,0.894427191));
#731 = DIRECTION('',(0.,-0.894427191,-0.4472135955));
#732 = ADVANCED_FACE('',(#733),#758,.F.);
#733 = FACE_BOUND('',#734,.T.);
#734 = EDGE_LOOP('',(#735,#736,#744,#752));
#735 = ORIENTED_EDGE('',*,*,#714,.T.);
#736 = ORIENTED_EDGE('',*,*,#737,.F.);
#737 = EDGE_CURVE('',#738,#707,#740,.T.);
#738 = VERTEX_POINT('',#739);
#739 = CARTESIAN_POINT('',(-0.127,6.477,1.126998));
#740 = LINE('',#741,#742);
#741 = CARTESIAN_POINT('',(-0.127,6.477,7.62));
#742 = VECTOR('',#743,1.);
#743 = DIRECTION('',(0.,0.,-1.));
#744 = ORIENTED_EDGE('',*,*,#745,.F.);
#745 = EDGE_CURVE('',#746,#738,#748,.T.);
#746 = VERTEX_POINT('',#747);
#747 = CARTESIAN_POINT('',(0.127,6.477,1.126998));
#748 = LINE('',#749,#750);
#749 = CARTESIAN_POINT('',(0.381,6.477,1.126998));
#750 = VECTOR('',#751,1.);
#751 = DIRECTION('',(-1.,0.,0.));
#752 = ORIENTED_EDGE('',*,*,#753,.T.);
#753 = EDGE_CURVE('',#746,#715,#754,.T.);
#754 = LINE('',#755,#756);
#755 = CARTESIAN_POINT('',(0.127,6.477,7.62));
#756 = VECTOR('',#757,1.);
#757 = DIRECTION('',(0.,0.,-1.));
#758 = PLANE('',#759);
#759 = AXIS2_PLACEMENT_3D('',#760,#761,#762);
#760 = CARTESIAN_POINT('',(0.381,6.477,0.872998));
#761 = DIRECTION('',(0.,-1.,0.));
#762 = DIRECTION('',(0.,0.,-1.));
#763 = ADVANCED_FACE('',(#764),#789,.F.);
#764 = FACE_BOUND('',#765,.T.);
#765 = EDGE_LOOP('',(#766,#767,#775,#783));
#766 = ORIENTED_EDGE('',*,*,#745,.T.);
#767 = ORIENTED_EDGE('',*,*,#768,.T.);
#768 = EDGE_CURVE('',#738,#769,#771,.T.);
#769 = VERTEX_POINT('',#770);
#770 = CARTESIAN_POINT('',(-0.254,6.223,1.253998));
#771 = LINE('',#772,#773);
#772 = CARTESIAN_POINT('',(-4.233333333333E-02,6.646333333333,
    1.042331333333));
#773 = VECTOR('',#774,1.);
#774 = DIRECTION('',(-0.408248290464,-0.816496580928,0.408248290464));
#775 = ORIENTED_EDGE('',*,*,#776,.F.);
#776 = EDGE_CURVE('',#777,#769,#779,.T.);
#777 = VERTEX_POINT('',#778);
#778 = CARTESIAN_POINT('',(0.254,6.223,1.253998));
#779 = LINE('',#780,#781);
#780 = CARTESIAN_POINT('',(0.381,6.223,1.253998));
#781 = VECTOR('',#782,1.);
#782 = DIRECTION('',(-1.,0.,0.));
#783 = ORIENTED_EDGE('',*,*,#784,.T.);
#784 = EDGE_CURVE('',#777,#746,#785,.T.);
#785 = LINE('',#786,#787);
#786 = CARTESIAN_POINT('',(0.169333333333,6.392333333333,1.169331333333)
  );
#787 = VECTOR('',#788,1.);
#788 = DIRECTION('',(-0.408248290464,0.816496580928,-0.408248290464));
#789 = PLANE('',#790);
#790 = AXIS2_PLACEMENT_3D('',#791,#792,#793);
#791 = CARTESIAN_POINT('',(0.381,6.477,1.126998));
#792 = DIRECTION('',(0.,-0.4472135955,-0.894427191));
#793 = DIRECTION('',(0.,0.894427191,-0.4472135955));
#794 = ADVANCED_FACE('',(#795),#820,.F.);
#795 = FACE_BOUND('',#796,.T.);
#796 = EDGE_LOOP('',(#797,#807,#813,#814));
#797 = ORIENTED_EDGE('',*,*,#798,.F.);
#798 = EDGE_CURVE('',#799,#801,#803,.T.);
#799 = VERTEX_POINT('',#800);
#800 = CARTESIAN_POINT('',(0.254,0.9906,1.253998));
#801 = VERTEX_POINT('',#802);
#802 = CARTESIAN_POINT('',(-0.254,0.9906,1.253998));
#803 = LINE('',#804,#805);
#804 = CARTESIAN_POINT('',(0.381,0.9906,1.253998));
#805 = VECTOR('',#806,1.);
#806 = DIRECTION('',(-1.,0.,0.));
#807 = ORIENTED_EDGE('',*,*,#808,.T.);
#808 = EDGE_CURVE('',#799,#777,#809,.T.);
#809 = LINE('',#810,#811);
#810 = CARTESIAN_POINT('',(0.254,6.223,1.253998));
#811 = VECTOR('',#812,1.);
#812 = DIRECTION('',(0.,1.,0.));
#813 = ORIENTED_EDGE('',*,*,#776,.T.);
#814 = ORIENTED_EDGE('',*,*,#815,.T.);
#815 = EDGE_CURVE('',#769,#801,#816,.T.);
#816 = LINE('',#817,#818);
#817 = CARTESIAN_POINT('',(-0.254,6.223,1.253998));
#818 = VECTOR('',#819,1.);
#819 = DIRECTION('',(0.,-1.,0.));
#820 = PLANE('',#821);
#821 = AXIS2_PLACEMENT_3D('',#822,#823,#824);
#822 = CARTESIAN_POINT('',(0.381,6.223,1.253998));
#823 = DIRECTION('',(0.,0.,-1.));
#824 = DIRECTION('',(-1.,0.,0.));
#825 = ADVANCED_FACE('',(#826),#870,.F.);
#826 = FACE_BOUND('',#827,.T.);
#827 = EDGE_LOOP('',(#828,#834,#835,#841,#842,#848,#849,#855,#856,#862,
    #863,#869));
#828 = ORIENTED_EDGE('',*,*,#829,.T.);
#829 = EDGE_CURVE('',#801,#44,#830,.T.);
#830 = LINE('',#831,#832);
#831 = CARTESIAN_POINT('',(-0.254,0.9906,1.253998));
#832 = VECTOR('',#833,1.);
#833 = DIRECTION('',(0.,-1.05006457321E-15,1.));
#834 = ORIENTED_EDGE('',*,*,#69,.F.);
#835 = ORIENTED_EDGE('',*,*,#836,.F.);
#836 = EDGE_CURVE('',#479,#62,#837,.T.);
#837 = LINE('',#838,#839);
#838 = CARTESIAN_POINT('',(0.381,0.9906,-1.4605));
#839 = VECTOR('',#840,1.);
#840 = DIRECTION('',(0.,0.,1.));
#841 = ORIENTED_EDGE('',*,*,#478,.T.);
#842 = ORIENTED_EDGE('',*,*,#843,.T.);
#843 = EDGE_CURVE('',#471,#520,#844,.T.);
#844 = LINE('',#845,#846);
#845 = CARTESIAN_POINT('',(-0.254,0.9906,-1.4605));
#846 = VECTOR('',#847,1.);
#847 = DIRECTION('',(0.,0.,1.));
#848 = ORIENTED_EDGE('',*,*,#519,.F.);
#849 = ORIENTED_EDGE('',*,*,#850,.F.);
#850 = EDGE_CURVE('',#635,#512,#851,.T.);
#851 = LINE('',#852,#853);
#852 = CARTESIAN_POINT('',(0.254,0.9906,7.62));
#853 = VECTOR('',#854,1.);
#854 = DIRECTION('',(0.,0.,-1.));
#855 = ORIENTED_EDGE('',*,*,#634,.T.);
#856 = ORIENTED_EDGE('',*,*,#857,.T.);
#857 = EDGE_CURVE('',#637,#684,#858,.T.);
#858 = LINE('',#859,#860);
#859 = CARTESIAN_POINT('',(-0.254,0.9906,-0.745998));
#860 = VECTOR('',#861,1.);
#861 = DIRECTION('',(0.,-1.453358015015E-16,1.));
#862 = ORIENTED_EDGE('',*,*,#683,.F.);
#863 = ORIENTED_EDGE('',*,*,#864,.F.);
#864 = EDGE_CURVE('',#799,#676,#865,.T.);
#865 = LINE('',#866,#867);
#866 = CARTESIAN_POINT('',(0.254,0.9906,7.62));
#867 = VECTOR('',#868,1.);
#868 = DIRECTION('',(0.,0.,-1.));
#869 = ORIENTED_EDGE('',*,*,#798,.T.);
#870 = PLANE('',#871);
#871 = AXIS2_PLACEMENT_3D('',#872,#873,#874);
#872 = CARTESIAN_POINT('',(0.381,0.9906,1.253998));
#873 = DIRECTION('',(0.,-1.,-1.05006457321E-15));
#874 = DIRECTION('',(0.,1.05006457321E-15,-1.));
#875 = ADVANCED_FACE('',(#876),#882,.T.);
#876 = FACE_BOUND('',#877,.T.);
#877 = EDGE_LOOP('',(#878,#879,#880,#881));
#878 = ORIENTED_EDGE('',*,*,#836,.T.);
#879 = ORIENTED_EDGE('',*,*,#61,.T.);
#880 = ORIENTED_EDGE('',*,*,#427,.T.);
#881 = ORIENTED_EDGE('',*,*,#486,.T.);
#882 = PLANE('',#883);
#883 = AXIS2_PLACEMENT_3D('',#884,#885,#886);
#884 = CARTESIAN_POINT('',(0.381,0.,0.));
#885 = DIRECTION('',(1.,0.,0.));
#886 = DIRECTION('',(0.,0.,-1.));
#887 = ADVANCED_FACE('',(#888),#930,.F.);
#888 = FACE_BOUND('',#889,.T.);
#889 = EDGE_LOOP('',(#890,#891,#892,#898,#899,#900,#901,#907,#908,#909,
    #910,#911,#912,#918,#919,#920,#921,#927,#928,#929));
#890 = ORIENTED_EDGE('',*,*,#829,.F.);
#891 = ORIENTED_EDGE('',*,*,#815,.F.);
#892 = ORIENTED_EDGE('',*,*,#893,.T.);
#893 = EDGE_CURVE('',#769,#668,#894,.T.);
#894 = LINE('',#895,#896);
#895 = CARTESIAN_POINT('',(-0.254,6.223,0.));
#896 = VECTOR('',#897,1.);
#897 = DIRECTION('',(0.,0.,-1.));
#898 = ORIENTED_EDGE('',*,*,#691,.F.);
#899 = ORIENTED_EDGE('',*,*,#857,.F.);
#900 = ORIENTED_EDGE('',*,*,#651,.F.);
#901 = ORIENTED_EDGE('',*,*,#902,.T.);
#902 = EDGE_CURVE('',#605,#504,#903,.T.);
#903 = LINE('',#904,#905);
#904 = CARTESIAN_POINT('',(-0.254,6.223,0.));
#905 = VECTOR('',#906,1.);
#906 = DIRECTION('',(0.,0.,-1.));
#907 = ORIENTED_EDGE('',*,*,#527,.F.);
#908 = ORIENTED_EDGE('',*,*,#843,.F.);
#909 = ORIENTED_EDGE('',*,*,#470,.F.);
#910 = ORIENTED_EDGE('',*,*,#411,.F.);
#911 = ORIENTED_EDGE('',*,*,#397,.F.);
#912 = ORIENTED_EDGE('',*,*,#913,.T.);
#913 = EDGE_CURVE('',#352,#250,#914,.T.);
#914 = LINE('',#915,#916);
#915 = CARTESIAN_POINT('',(-0.254,-1.4732,0.));
#916 = VECTOR('',#917,1.);
#917 = DIRECTION('',(0.,0.,1.));
#918 = ORIENTED_EDGE('',*,*,#273,.F.);
#919 = ORIENTED_EDGE('',*,*,#448,.F.);
#920 = ORIENTED_EDGE('',*,*,#233,.F.);
#921 = ORIENTED_EDGE('',*,*,#922,.T.);
#922 = EDGE_CURVE('',#188,#86,#923,.T.);
#923 = LINE('',#924,#925);
#924 = CARTESIAN_POINT('',(-0.254,-1.4732,0.));
#925 = VECTOR('',#926,1.);
#926 = DIRECTION('',(0.,0.,1.));
#927 = ORIENTED_EDGE('',*,*,#109,.F.);
#928 = ORIENTED_EDGE('',*,*,#434,.F.);
#929 = ORIENTED_EDGE('',*,*,#43,.F.);
#930 = PLANE('',#931);
#931 = AXIS2_PLACEMENT_3D('',#932,#933,#934);
#932 = CARTESIAN_POINT('',(-0.254,0.,0.));
#933 = DIRECTION('',(1.,0.,0.));
#934 = DIRECTION('',(0.,0.,-1.));
#935 = ADVANCED_FACE('',(#936),#942,.F.);
#936 = FACE_BOUND('',#937,.T.);
#937 = EDGE_LOOP('',(#938,#939,#940,#941));
#938 = ORIENTED_EDGE('',*,*,#922,.F.);
#939 = ORIENTED_EDGE('',*,*,#202,.F.);
#940 = ORIENTED_EDGE('',*,*,#171,.F.);
#941 = ORIENTED_EDGE('',*,*,#140,.F.);
#942 = PLANE('',#943);
#943 = AXIS2_PLACEMENT_3D('',#944,#945,#946);
#944 = CARTESIAN_POINT('',(-0.254,-1.4732,7.62));
#945 = DIRECTION('',(0.894427191,0.4472135955,0.));
#946 = DIRECTION('',(-0.4472135955,0.894427191,0.));
#947 = ADVANCED_FACE('',(#948),#954,.F.);
#948 = FACE_BOUND('',#949,.T.);
#949 = EDGE_LOOP('',(#950,#951,#952,#953));
#950 = ORIENTED_EDGE('',*,*,#913,.F.);
#951 = ORIENTED_EDGE('',*,*,#366,.F.);
#952 = ORIENTED_EDGE('',*,*,#335,.F.);
#953 = ORIENTED_EDGE('',*,*,#304,.F.);
#954 = PLANE('',#955);
#955 = AXIS2_PLACEMENT_3D('',#956,#957,#958);
#956 = CARTESIAN_POINT('',(-0.254,-1.4732,7.62));
#957 = DIRECTION('',(0.894427191,0.4472135955,0.));
#958 = DIRECTION('',(-0.4472135955,0.894427191,0.));
#959 = ADVANCED_FACE('',(#960),#966,.F.);
#960 = FACE_BOUND('',#961,.T.);
#961 = EDGE_LOOP('',(#962,#963,#964,#965));
#962 = ORIENTED_EDGE('',*,*,#902,.F.);
#963 = ORIENTED_EDGE('',*,*,#604,.F.);
#964 = ORIENTED_EDGE('',*,*,#573,.T.);
#965 = ORIENTED_EDGE('',*,*,#542,.F.);
#966 = PLANE('',#967);
#967 = AXIS2_PLACEMENT_3D('',#968,#969,#970);
#968 = CARTESIAN_POINT('',(-0.127,6.477,7.62));
#969 = DIRECTION('',(0.894427191,-0.4472135955,0.));
#970 = DIRECTION('',(0.4472135955,0.894427191,0.));
#971 = ADVANCED_FACE('',(#972),#978,.F.);
#972 = FACE_BOUND('',#973,.T.);
#973 = EDGE_LOOP('',(#974,#975,#976,#977));
#974 = ORIENTED_EDGE('',*,*,#893,.F.);
#975 = ORIENTED_EDGE('',*,*,#768,.F.);
#976 = ORIENTED_EDGE('',*,*,#737,.T.);
#977 = ORIENTED_EDGE('',*,*,#706,.F.);
#978 = PLANE('',#979);
#979 = AXIS2_PLACEMENT_3D('',#980,#981,#982);
#980 = CARTESIAN_POINT('',(-0.127,6.477,7.62));
#981 = DIRECTION('',(0.894427191,-0.4472135955,0.));
#982 = DIRECTION('',(0.4472135955,0.894427191,0.));
#983 = ADVANCED_FACE('',(#984),#995,.F.);
#984 = FACE_BOUND('',#985,.T.);
#985 = EDGE_LOOP('',(#986,#992,#993,#994));
#986 = ORIENTED_EDGE('',*,*,#987,.T.);
#987 = EDGE_CURVE('',#84,#186,#988,.T.);
#988 = LINE('',#989,#990);
#989 = CARTESIAN_POINT('',(0.254,-1.4732,7.62));
#990 = VECTOR('',#991,1.);
#991 = DIRECTION('',(0.,0.,-1.));
#992 = ORIENTED_EDGE('',*,*,#226,.F.);
#993 = ORIENTED_EDGE('',*,*,#441,.F.);
#994 = ORIENTED_EDGE('',*,*,#93,.F.);
#995 = PLANE('',#996);
#996 = AXIS2_PLACEMENT_3D('',#997,#998,#999);
#997 = CARTESIAN_POINT('',(0.254,-1.4732,7.62));
#998 = DIRECTION('',(-1.,0.,0.));
#999 = DIRECTION('',(0.,0.,1.));
#1000 = ADVANCED_FACE('',(#1001),#1007,.F.);
#1001 = FACE_BOUND('',#1002,.T.);
#1002 = EDGE_LOOP('',(#1003,#1004,#1005,#1006));
#1003 = ORIENTED_EDGE('',*,*,#164,.T.);
#1004 = ORIENTED_EDGE('',*,*,#195,.F.);
#1005 = ORIENTED_EDGE('',*,*,#987,.F.);
#1006 = ORIENTED_EDGE('',*,*,#133,.F.);
#1007 = PLANE('',#1008);
#1008 = AXIS2_PLACEMENT_3D('',#1009,#1010,#1011);
#1009 = CARTESIAN_POINT('',(0.127,-1.7272,7.62));
#1010 = DIRECTION('',(-0.894427191,0.4472135955,0.));
#1011 = DIRECTION('',(-0.4472135955,-0.894427191,0.));
#1012 = ADVANCED_FACE('',(#1013),#1024,.F.);
#1013 = FACE_BOUND('',#1014,.T.);
#1014 = EDGE_LOOP('',(#1015,#1021,#1022,#1023));
#1015 = ORIENTED_EDGE('',*,*,#1016,.T.);
#1016 = EDGE_CURVE('',#248,#350,#1017,.T.);
#1017 = LINE('',#1018,#1019);
#1018 = CARTESIAN_POINT('',(0.254,-1.4732,7.62));
#1019 = VECTOR('',#1020,1.);
#1020 = DIRECTION('',(0.,0.,-1.));
#1021 = ORIENTED_EDGE('',*,*,#390,.F.);
#1022 = ORIENTED_EDGE('',*,*,#455,.F.);
#1023 = ORIENTED_EDGE('',*,*,#257,.F.);
#1024 = PLANE('',#1025);
#1025 = AXIS2_PLACEMENT_3D('',#1026,#1027,#1028);
#1026 = CARTESIAN_POINT('',(0.254,-1.4732,7.62));
#1027 = DIRECTION('',(-1.,0.,0.));
#1028 = DIRECTION('',(0.,0.,1.));
#1029 = ADVANCED_FACE('',(#1030),#1036,.F.);
#1030 = FACE_BOUND('',#1031,.T.);
#1031 = EDGE_LOOP('',(#1032,#1033,#1034,#1035));
#1032 = ORIENTED_EDGE('',*,*,#328,.T.);
#1033 = ORIENTED_EDGE('',*,*,#359,.F.);
#1034 = ORIENTED_EDGE('',*,*,#1016,.F.);
#1035 = ORIENTED_EDGE('',*,*,#297,.F.);
#1036 = PLANE('',#1037);
#1037 = AXIS2_PLACEMENT_3D('',#1038,#1039,#1040);
#1038 = CARTESIAN_POINT('',(0.127,-1.7272,7.62));
#1039 = DIRECTION('',(-0.894427191,0.4472135955,0.));
#1040 = DIRECTION('',(-0.4472135955,-0.894427191,0.));
#1041 = ADVANCED_FACE('',(#1042),#1053,.F.);
#1042 = FACE_BOUND('',#1043,.T.);
#1043 = EDGE_LOOP('',(#1044,#1050,#1051,#1052));
#1044 = ORIENTED_EDGE('',*,*,#1045,.F.);
#1045 = EDGE_CURVE('',#613,#502,#1046,.T.);
#1046 = LINE('',#1047,#1048);
#1047 = CARTESIAN_POINT('',(0.254,6.223,7.62));
#1048 = VECTOR('',#1049,1.);
#1049 = DIRECTION('',(0.,0.,-1.));
#1050 = ORIENTED_EDGE('',*,*,#644,.F.);
#1051 = ORIENTED_EDGE('',*,*,#850,.T.);
#1052 = ORIENTED_EDGE('',*,*,#511,.F.);
#1053 = PLANE('',#1054);
#1054 = AXIS2_PLACEMENT_3D('',#1055,#1056,#1057);
#1055 = CARTESIAN_POINT('',(0.254,0.9906,7.62));
#1056 = DIRECTION('',(-1.,0.,0.));
#1057 = DIRECTION('',(0.,0.,1.));
#1058 = ADVANCED_FACE('',(#1059),#1065,.F.);
#1059 = FACE_BOUND('',#1060,.T.);
#1060 = EDGE_LOOP('',(#1061,#1062,#1063,#1064));
#1061 = ORIENTED_EDGE('',*,*,#589,.F.);
#1062 = ORIENTED_EDGE('',*,*,#620,.F.);
#1063 = ORIENTED_EDGE('',*,*,#1045,.T.);
#1064 = ORIENTED_EDGE('',*,*,#558,.F.);
#1065 = PLANE('',#1066);
#1066 = AXIS2_PLACEMENT_3D('',#1067,#1068,#1069);
#1067 = CARTESIAN_POINT('',(0.254,6.223,7.62));
#1068 = DIRECTION('',(-0.894427191,-0.4472135955,0.));
#1069 = DIRECTION('',(0.4472135955,-0.894427191,0.));
#1070 = ADVANCED_FACE('',(#1071),#1082,.F.);
#1071 = FACE_BOUND('',#1072,.T.);
#1072 = EDGE_LOOP('',(#1073,#1074,#1075,#1081));
#1073 = ORIENTED_EDGE('',*,*,#753,.F.);
#1074 = ORIENTED_EDGE('',*,*,#784,.F.);
#1075 = ORIENTED_EDGE('',*,*,#1076,.T.);
#1076 = EDGE_CURVE('',#777,#666,#1077,.T.);
#1077 = LINE('',#1078,#1079);
#1078 = CARTESIAN_POINT('',(0.254,6.223,7.62));
#1079 = VECTOR('',#1080,1.);
#1080 = DIRECTION('',(0.,0.,-1.));
#1081 = ORIENTED_EDGE('',*,*,#722,.F.);
#1082 = PLANE('',#1083);
#1083 = AXIS2_PLACEMENT_3D('',#1084,#1085,#1086);
#1084 = CARTESIAN_POINT('',(0.254,6.223,7.62));
#1085 = DIRECTION('',(-0.894427191,-0.4472135955,0.));
#1086 = DIRECTION('',(0.4472135955,-0.894427191,0.));
#1087 = ADVANCED_FACE('',(#1088),#1094,.F.);
#1088 = FACE_BOUND('',#1089,.T.);
#1089 = EDGE_LOOP('',(#1090,#1091,#1092,#1093));
#1090 = ORIENTED_EDGE('',*,*,#1076,.F.);
#1091 = ORIENTED_EDGE('',*,*,#808,.F.);
#1092 = ORIENTED_EDGE('',*,*,#864,.T.);
#1093 = ORIENTED_EDGE('',*,*,#675,.F.);
#1094 = PLANE('',#1095);
#1095 = AXIS2_PLACEMENT_3D('',#1096,#1097,#1098);
#1096 = CARTESIAN_POINT('',(0.254,0.9906,7.62));
#1097 = DIRECTION('',(-1.,0.,0.));
#1098 = DIRECTION('',(0.,0.,1.));
#1099 = ( GEOMETRIC_REPRESENTATION_CONTEXT(3) 
GLOBAL_UNCERTAINTY_ASSIGNED_CONTEXT((#1103)) 
GLOBAL_UNIT_ASSIGNED_CONTEXT((#1100,#1101,#1102)) REPRESENTATION_CONTEXT
('Context #1','3D Context with UNIT and UNCERTAINTY') );
#1100 = ( LENGTH_UNIT() NAMED_UNIT(*) SI_UNIT(.MILLI.,.METRE.) );
#1101 = ( NAMED_UNIT(*) PLANE_ANGLE_UNIT() SI_UNIT($,.RADIAN.) );
#1102 = ( NAMED_UNIT(*) SI_UNIT($,.STERADIAN.) SOLID_ANGLE_UNIT() );
#1103 = UNCERTAINTY_MEASURE_WITH_UNIT(LENGTH_MEASURE(1.E-07),#1100,
  'distance_accuracy_value','confusion accuracy');
#1104 = CONTEXT_DEPENDENT_SHAPE_REPRESENTATION(#1105,#1107);
#1105 = ( REPRESENTATION_RELATIONSHIP('','',#36,#10) 
REPRESENTATION_RELATIONSHIP_WITH_TRANSFORMATION(#1106) 
SHAPE_REPRESENTATION_RELATIONSHIP() );
#1106 = ITEM_DEFINED_TRANSFORMATION('','',#11,#15);
#1107 = PRODUCT_DEFINITION_SHAPE('Placement','Placement of an item',
  #1108);
#1108 = NEXT_ASSEMBLY_USAGE_OCCURRENCE('1','=>[0:1:1:1]','',#5,#31,$);
#1109 = PRODUCT_RELATED_PRODUCT_CATEGORY('part',$,(#33));
#1110 = SHAPE_DEFINITION_REPRESENTATION(#1111,#1117);
#1111 = PRODUCT_DEFINITION_SHAPE('','',#1112);
#1112 = PRODUCT_DEFINITION('design','',#1113,#1116);
#1113 = PRODUCT_DEFINITION_FORMATION('','',#1114);
#1114 = PRODUCT('MTMM-101-04-L-D-196_body','MTMM-101-04-L-D-196_body',''
  ,(#1115));
#1115 = PRODUCT_CONTEXT('',#2,'mechanical');
#1116 = PRODUCT_DEFINITION_CONTEXT('part definition',#2,'design');
#1117 = ADVANCED_BREP_SHAPE_REPRESENTATION('',(#11,#1118),#1672);
#1118 = MANIFOLD_SOLID_BREP('',#1119);
#1119 = CLOSED_SHELL('',(#1120,#1160,#1223,#1247,#1303,#1343,#1374,#1405
    ,#1445,#1476,#1507,#1529,#1551,#1573,#1597,#1614,#1648,#1660));
#1120 = ADVANCED_FACE('',(#1121),#1155,.F.);
#1121 = FACE_BOUND('',#1122,.T.);
#1122 = EDGE_LOOP('',(#1123,#1133,#1141,#1149));
#1123 = ORIENTED_EDGE('',*,*,#1124,.F.);
#1124 = EDGE_CURVE('',#1125,#1127,#1129,.T.);
#1125 = VERTEX_POINT('',#1126);
#1126 = CARTESIAN_POINT('',(-0.999998,0.,1.5875));
#1127 = VERTEX_POINT('',#1128);
#1128 = CARTESIAN_POINT('',(-0.999998,0.,1.9685));
#1129 = LINE('',#1130,#1131);
#1130 = CARTESIAN_POINT('',(-0.999998,0.,-1.9685));
#1131 = VECTOR('',#1132,1.);
#1132 = DIRECTION('',(0.,0.,1.));
#1133 = ORIENTED_EDGE('',*,*,#1134,.T.);
#1134 = EDGE_CURVE('',#1125,#1135,#1137,.T.);
#1135 = VERTEX_POINT('',#1136);
#1136 = CARTESIAN_POINT('',(0.999998,0.,1.5875));
#1137 = LINE('',#1138,#1139);
#1138 = CARTESIAN_POINT('',(-0.999998,0.,1.5875));
#1139 = VECTOR('',#1140,1.);
#1140 = DIRECTION('',(1.,0.,0.));
#1141 = ORIENTED_EDGE('',*,*,#1142,.F.);
#1142 = EDGE_CURVE('',#1143,#1135,#1145,.T.);
#1143 = VERTEX_POINT('',#1144);
#1144 = CARTESIAN_POINT('',(0.999998,0.,1.9685));
#1145 = LINE('',#1146,#1147);
#1146 = CARTESIAN_POINT('',(0.999998,0.,1.9685));
#1147 = VECTOR('',#1148,1.);
#1148 = DIRECTION('',(0.,0.,-1.));
#1149 = ORIENTED_EDGE('',*,*,#1150,.F.);
#1150 = EDGE_CURVE('',#1127,#1143,#1151,.T.);
#1151 = LINE('',#1152,#1153);
#1152 = CARTESIAN_POINT('',(-0.999998,0.,1.9685));
#1153 = VECTOR('',#1154,1.);
#1154 = DIRECTION('',(1.,0.,0.));
#1155 = PLANE('',#1156);
#1156 = AXIS2_PLACEMENT_3D('',#1157,#1158,#1159);
#1157 = CARTESIAN_POINT('',(0.,0.,0.));
#1158 = DIRECTION('',(0.,1.,0.));
#1159 = DIRECTION('',(0.,-0.,1.));
#1160 = ADVANCED_FACE('',(#1161),#1218,.F.);
#1161 = FACE_BOUND('',#1162,.T.);
#1162 = EDGE_LOOP('',(#1163,#1173,#1179,#1180,#1188,#1196,#1204,#1212));
#1163 = ORIENTED_EDGE('',*,*,#1164,.T.);
#1164 = EDGE_CURVE('',#1165,#1167,#1169,.T.);
#1165 = VERTEX_POINT('',#1166);
#1166 = CARTESIAN_POINT('',(-0.999998,0.254,-1.5875));
#1167 = VERTEX_POINT('',#1168);
#1168 = CARTESIAN_POINT('',(-0.999998,0.254,1.5875));
#1169 = LINE('',#1170,#1171);
#1170 = CARTESIAN_POINT('',(-0.999998,0.254,-1.5875));
#1171 = VECTOR('',#1172,1.);
#1172 = DIRECTION('',(0.,0.,1.));
#1173 = ORIENTED_EDGE('',*,*,#1174,.T.);
#1174 = EDGE_CURVE('',#1167,#1125,#1175,.T.);
#1175 = LINE('',#1176,#1177);
#1176 = CARTESIAN_POINT('',(-0.999998,0.254,1.5875));
#1177 = VECTOR('',#1178,1.);
#1178 = DIRECTION('',(0.,-1.,-5.975917486141E-15));
#1179 = ORIENTED_EDGE('',*,*,#1124,.T.);
#1180 = ORIENTED_EDGE('',*,*,#1181,.F.);
#1181 = EDGE_CURVE('',#1182,#1127,#1184,.T.);
#1182 = VERTEX_POINT('',#1183);
#1183 = CARTESIAN_POINT('',(-0.999998,1.4986,1.9685));
#1184 = LINE('',#1185,#1186);
#1185 = CARTESIAN_POINT('',(-0.999998,1.4986,1.9685));
#1186 = VECTOR('',#1187,1.);
#1187 = DIRECTION('',(0.,-1.,0.));
#1188 = ORIENTED_EDGE('',*,*,#1189,.F.);
#1189 = EDGE_CURVE('',#1190,#1182,#1192,.T.);
#1190 = VERTEX_POINT('',#1191);
#1191 = CARTESIAN_POINT('',(-0.999998,1.4986,-1.9685));
#1192 = LINE('',#1193,#1194);
#1193 = CARTESIAN_POINT('',(-0.999998,1.4986,-1.9685));
#1194 = VECTOR('',#1195,1.);
#1195 = DIRECTION('',(0.,0.,1.));
#1196 = ORIENTED_EDGE('',*,*,#1197,.T.);
#1197 = EDGE_CURVE('',#1190,#1198,#1200,.T.);
#1198 = VERTEX_POINT('',#1199);
#1199 = CARTESIAN_POINT('',(-0.999998,0.,-1.9685));
#1200 = LINE('',#1201,#1202);
#1201 = CARTESIAN_POINT('',(-0.999998,1.4986,-1.9685));
#1202 = VECTOR('',#1203,1.);
#1203 = DIRECTION('',(0.,-1.,0.));
#1204 = ORIENTED_EDGE('',*,*,#1205,.T.);
#1205 = EDGE_CURVE('',#1198,#1206,#1208,.T.);
#1206 = VERTEX_POINT('',#1207);
#1207 = CARTESIAN_POINT('',(-0.999998,0.,-1.5875));
#1208 = LINE('',#1209,#1210);
#1209 = CARTESIAN_POINT('',(-0.999998,0.,-1.9685));
#1210 = VECTOR('',#1211,1.);
#1211 = DIRECTION('',(0.,0.,1.));
#1212 = ORIENTED_EDGE('',*,*,#1213,.T.);
#1213 = EDGE_CURVE('',#1206,#1165,#1214,.T.);
#1214 = LINE('',#1215,#1216);
#1215 = CARTESIAN_POINT('',(-0.999998,0.,-1.5875));
#1216 = VECTOR('',#1217,1.);
#1217 = DIRECTION('',(0.,1.,0.));
#1218 = PLANE('',#1219);
#1219 = AXIS2_PLACEMENT_3D('',#1220,#1221,#1222);
#1220 = CARTESIAN_POINT('',(-0.999998,1.4986,-1.9685));
#1221 = DIRECTION('',(1.,0.,0.));
#1222 = DIRECTION('',(0.,0.,-1.));
#1223 = ADVANCED_FACE('',(#1224),#1242,.F.);
#1224 = FACE_BOUND('',#1225,.T.);
#1225 = EDGE_LOOP('',(#1226,#1227,#1235,#1241));
#1226 = ORIENTED_EDGE('',*,*,#1150,.T.);
#1227 = ORIENTED_EDGE('',*,*,#1228,.F.);
#1228 = EDGE_CURVE('',#1229,#1143,#1231,.T.);
#1229 = VERTEX_POINT('',#1230);
#1230 = CARTESIAN_POINT('',(0.999998,1.4986,1.9685));
#1231 = LINE('',#1232,#1233);
#1232 = CARTESIAN_POINT('',(0.999998,1.4986,1.9685));
#1233 = VECTOR('',#1234,1.);
#1234 = DIRECTION('',(0.,-1.,0.));
#1235 = ORIENTED_EDGE('',*,*,#1236,.F.);
#1236 = EDGE_CURVE('',#1182,#1229,#1237,.T.);
#1237 = LINE('',#1238,#1239);
#1238 = CARTESIAN_POINT('',(-0.999998,1.4986,1.9685));
#1239 = VECTOR('',#1240,1.);
#1240 = DIRECTION('',(1.,0.,0.));
#1241 = ORIENTED_EDGE('',*,*,#1181,.T.);
#1242 = PLANE('',#1243);
#1243 = AXIS2_PLACEMENT_3D('',#1244,#1245,#1246);
#1244 = CARTESIAN_POINT('',(-0.999998,1.4986,1.9685));
#1245 = DIRECTION('',(0.,0.,-1.));
#1246 = DIRECTION('',(-1.,0.,0.));
#1247 = ADVANCED_FACE('',(#1248),#1298,.F.);
#1248 = FACE_BOUND('',#1249,.T.);
#1249 = EDGE_LOOP('',(#1250,#1251,#1259,#1267,#1275,#1283,#1291,#1297));
#1250 = ORIENTED_EDGE('',*,*,#1142,.T.);
#1251 = ORIENTED_EDGE('',*,*,#1252,.F.);
#1252 = EDGE_CURVE('',#1253,#1135,#1255,.T.);
#1253 = VERTEX_POINT('',#1254);
#1254 = CARTESIAN_POINT('',(0.999998,0.254,1.5875));
#1255 = LINE('',#1256,#1257);
#1256 = CARTESIAN_POINT('',(0.999998,0.254,1.5875));
#1257 = VECTOR('',#1258,1.);
#1258 = DIRECTION('',(0.,-1.,-5.975917486141E-15));
#1259 = ORIENTED_EDGE('',*,*,#1260,.F.);
#1260 = EDGE_CURVE('',#1261,#1253,#1263,.T.);
#1261 = VERTEX_POINT('',#1262);
#1262 = CARTESIAN_POINT('',(0.999998,0.254,-1.5875));
#1263 = LINE('',#1264,#1265);
#1264 = CARTESIAN_POINT('',(0.999998,0.254,-1.5875));
#1265 = VECTOR('',#1266,1.);
#1266 = DIRECTION('',(0.,0.,1.));
#1267 = ORIENTED_EDGE('',*,*,#1268,.F.);
#1268 = EDGE_CURVE('',#1269,#1261,#1271,.T.);
#1269 = VERTEX_POINT('',#1270);
#1270 = CARTESIAN_POINT('',(0.999998,0.,-1.5875));
#1271 = LINE('',#1272,#1273);
#1272 = CARTESIAN_POINT('',(0.999998,0.,-1.5875));
#1273 = VECTOR('',#1274,1.);
#1274 = DIRECTION('',(0.,1.,0.));
#1275 = ORIENTED_EDGE('',*,*,#1276,.T.);
#1276 = EDGE_CURVE('',#1269,#1277,#1279,.T.);
#1277 = VERTEX_POINT('',#1278);
#1278 = CARTESIAN_POINT('',(0.999998,0.,-1.9685));
#1279 = LINE('',#1280,#1281);
#1280 = CARTESIAN_POINT('',(0.999998,0.,1.9685));
#1281 = VECTOR('',#1282,1.);
#1282 = DIRECTION('',(0.,0.,-1.));
#1283 = ORIENTED_EDGE('',*,*,#1284,.F.);
#1284 = EDGE_CURVE('',#1285,#1277,#1287,.T.);
#1285 = VERTEX_POINT('',#1286);
#1286 = CARTESIAN_POINT('',(0.999998,1.4986,-1.9685));
#1287 = LINE('',#1288,#1289);
#1288 = CARTESIAN_POINT('',(0.999998,1.4986,-1.9685));
#1289 = VECTOR('',#1290,1.);
#1290 = DIRECTION('',(0.,-1.,0.));
#1291 = ORIENTED_EDGE('',*,*,#1292,.F.);
#1292 = EDGE_CURVE('',#1229,#1285,#1293,.T.);
#1293 = LINE('',#1294,#1295);
#1294 = CARTESIAN_POINT('',(0.999998,1.4986,1.9685));
#1295 = VECTOR('',#1296,1.);
#1296 = DIRECTION('',(0.,0.,-1.));
#1297 = ORIENTED_EDGE('',*,*,#1228,.T.);
#1298 = PLANE('',#1299);
#1299 = AXIS2_PLACEMENT_3D('',#1300,#1301,#1302);
#1300 = CARTESIAN_POINT('',(0.999998,1.4986,1.9685));
#1301 = DIRECTION('',(-1.,0.,0.));
#1302 = DIRECTION('',(0.,0.,1.));
#1303 = ADVANCED_FACE('',(#1304),#1338,.T.);
#1304 = FACE_BOUND('',#1305,.T.);
#1305 = EDGE_LOOP('',(#1306,#1316,#1324,#1332));
#1306 = ORIENTED_EDGE('',*,*,#1307,.F.);
#1307 = EDGE_CURVE('',#1308,#1310,#1312,.T.);
#1308 = VERTEX_POINT('',#1309);
#1309 = CARTESIAN_POINT('',(-0.254,0.254,-1.253998));
#1310 = VERTEX_POINT('',#1311);
#1311 = CARTESIAN_POINT('',(-0.254,0.254,-0.745998));
#1312 = LINE('',#1313,#1314);
#1313 = CARTESIAN_POINT('',(-0.254,0.254,-1.253998));
#1314 = VECTOR('',#1315,1.);
#1315 = DIRECTION('',(0.,0.,1.));
#1316 = ORIENTED_EDGE('',*,*,#1317,.F.);
#1317 = EDGE_CURVE('',#1318,#1308,#1320,.T.);
#1318 = VERTEX_POINT('',#1319);
#1319 = CARTESIAN_POINT('',(-0.254,1.4986,-1.253998));
#1320 = LINE('',#1321,#1322);
#1321 = CARTESIAN_POINT('',(-0.254,1.4986,-1.253998));
#1322 = VECTOR('',#1323,1.);
#1323 = DIRECTION('',(0.,-1.,0.));
#1324 = ORIENTED_EDGE('',*,*,#1325,.T.);
#1325 = EDGE_CURVE('',#1318,#1326,#1328,.T.);
#1326 = VERTEX_POINT('',#1327);
#1327 = CARTESIAN_POINT('',(-0.254,1.4986,-0.745998));
#1328 = LINE('',#1329,#1330);
#1329 = CARTESIAN_POINT('',(-0.254,1.4986,-1.253998));
#1330 = VECTOR('',#1331,1.);
#1331 = DIRECTION('',(0.,0.,1.));
#1332 = ORIENTED_EDGE('',*,*,#1333,.T.);
#1333 = EDGE_CURVE('',#1326,#1310,#1334,.T.);
#1334 = LINE('',#1335,#1336);
#1335 = CARTESIAN_POINT('',(-0.254,1.4986,-0.745998));
#1336 = VECTOR('',#1337,1.);
#1337 = DIRECTION('',(0.,-1.,0.));
#1338 = PLANE('',#1339);
#1339 = AXIS2_PLACEMENT_3D('',#1340,#1341,#1342);
#1340 = CARTESIAN_POINT('',(-0.254,1.4986,-1.253998));
#1341 = DIRECTION('',(1.,0.,0.));
#1342 = DIRECTION('',(0.,0.,-1.));
#1343 = ADVANCED_FACE('',(#1344),#1369,.T.);
#1344 = FACE_BOUND('',#1345,.T.);
#1345 = EDGE_LOOP('',(#1346,#1354,#1362,#1368));
#1346 = ORIENTED_EDGE('',*,*,#1347,.F.);
#1347 = EDGE_CURVE('',#1348,#1308,#1350,.T.);
#1348 = VERTEX_POINT('',#1349);
#1349 = CARTESIAN_POINT('',(0.254,0.254,-1.253998));
#1350 = LINE('',#1351,#1352);
#1351 = CARTESIAN_POINT('',(0.254,0.254,-1.253998));
#1352 = VECTOR('',#1353,1.);
#1353 = DIRECTION('',(-1.,0.,0.));
#1354 = ORIENTED_EDGE('',*,*,#1355,.F.);
#1355 = EDGE_CURVE('',#1356,#1348,#1358,.T.);
#1356 = VERTEX_POINT('',#1357);
#1357 = CARTESIAN_POINT('',(0.254,1.4986,-1.253998));
#1358 = LINE('',#1359,#1360);
#1359 = CARTESIAN_POINT('',(0.254,1.4986,-1.253998));
#1360 = VECTOR('',#1361,1.);
#1361 = DIRECTION('',(0.,-1.,0.));
#1362 = ORIENTED_EDGE('',*,*,#1363,.T.);
#1363 = EDGE_CURVE('',#1356,#1318,#1364,.T.);
#1364 = LINE('',#1365,#1366);
#1365 = CARTESIAN_POINT('',(0.254,1.4986,-1.253998));
#1366 = VECTOR('',#1367,1.);
#1367 = DIRECTION('',(-1.,0.,0.));
#1368 = ORIENTED_EDGE('',*,*,#1317,.T.);
#1369 = PLANE('',#1370);
#1370 = AXIS2_PLACEMENT_3D('',#1371,#1372,#1373);
#1371 = CARTESIAN_POINT('',(0.254,1.4986,-1.253998));
#1372 = DIRECTION('',(0.,0.,1.));
#1373 = DIRECTION('',(1.,0.,-0.));
#1374 = ADVANCED_FACE('',(#1375),#1400,.T.);
#1375 = FACE_BOUND('',#1376,.T.);
#1376 = EDGE_LOOP('',(#1377,#1385,#1393,#1399));
#1377 = ORIENTED_EDGE('',*,*,#1378,.F.);
#1378 = EDGE_CURVE('',#1379,#1348,#1381,.T.);
#1379 = VERTEX_POINT('',#1380);
#1380 = CARTESIAN_POINT('',(0.254,0.254,-0.745998));
#1381 = LINE('',#1382,#1383);
#1382 = CARTESIAN_POINT('',(0.254,0.254,-0.745998));
#1383 = VECTOR('',#1384,1.);
#1384 = DIRECTION('',(0.,0.,-1.));
#1385 = ORIENTED_EDGE('',*,*,#1386,.F.);
#1386 = EDGE_CURVE('',#1387,#1379,#1389,.T.);
#1387 = VERTEX_POINT('',#1388);
#1388 = CARTESIAN_POINT('',(0.254,1.4986,-0.745998));
#1389 = LINE('',#1390,#1391);
#1390 = CARTESIAN_POINT('',(0.254,1.4986,-0.745998));
#1391 = VECTOR('',#1392,1.);
#1392 = DIRECTION('',(0.,-1.,0.));
#1393 = ORIENTED_EDGE('',*,*,#1394,.T.);
#1394 = EDGE_CURVE('',#1387,#1356,#1395,.T.);
#1395 = LINE('',#1396,#1397);
#1396 = CARTESIAN_POINT('',(0.254,1.4986,-0.745998));
#1397 = VECTOR('',#1398,1.);
#1398 = DIRECTION('',(0.,0.,-1.));
#1399 = ORIENTED_EDGE('',*,*,#1355,.T.);
#1400 = PLANE('',#1401);
#1401 = AXIS2_PLACEMENT_3D('',#1402,#1403,#1404);
#1402 = CARTESIAN_POINT('',(0.254,1.4986,-0.745998));
#1403 = DIRECTION('',(-1.,0.,0.));
#1404 = DIRECTION('',(0.,0.,1.));
#1405 = ADVANCED_FACE('',(#1406),#1440,.T.);
#1406 = FACE_BOUND('',#1407,.T.);
#1407 = EDGE_LOOP('',(#1408,#1418,#1426,#1434));
#1408 = ORIENTED_EDGE('',*,*,#1409,.F.);
#1409 = EDGE_CURVE('',#1410,#1412,#1414,.T.);
#1410 = VERTEX_POINT('',#1411);
#1411 = CARTESIAN_POINT('',(-0.254,0.254,0.745998));
#1412 = VERTEX_POINT('',#1413);
#1413 = CARTESIAN_POINT('',(-0.254,0.254,1.253998));
#1414 = LINE('',#1415,#1416);
#1415 = CARTESIAN_POINT('',(-0.254,0.254,0.745998));
#1416 = VECTOR('',#1417,1.);
#1417 = DIRECTION('',(0.,0.,1.));
#1418 = ORIENTED_EDGE('',*,*,#1419,.F.);
#1419 = EDGE_CURVE('',#1420,#1410,#1422,.T.);
#1420 = VERTEX_POINT('',#1421);
#1421 = CARTESIAN_POINT('',(-0.254,1.4986,0.745998));
#1422 = LINE('',#1423,#1424);
#1423 = CARTESIAN_POINT('',(-0.254,1.4986,0.745998));
#1424 = VECTOR('',#1425,1.);
#1425 = DIRECTION('',(0.,-1.,0.));
#1426 = ORIENTED_EDGE('',*,*,#1427,.T.);
#1427 = EDGE_CURVE('',#1420,#1428,#1430,.T.);
#1428 = VERTEX_POINT('',#1429);
#1429 = CARTESIAN_POINT('',(-0.254,1.4986,1.253998));
#1430 = LINE('',#1431,#1432);
#1431 = CARTESIAN_POINT('',(-0.254,1.4986,0.745998));
#1432 = VECTOR('',#1433,1.);
#1433 = DIRECTION('',(0.,0.,1.));
#1434 = ORIENTED_EDGE('',*,*,#1435,.T.);
#1435 = EDGE_CURVE('',#1428,#1412,#1436,.T.);
#1436 = LINE('',#1437,#1438);
#1437 = CARTESIAN_POINT('',(-0.254,1.4986,1.253998));
#1438 = VECTOR('',#1439,1.);
#1439 = DIRECTION('',(0.,-1.,0.));
#1440 = PLANE('',#1441);
#1441 = AXIS2_PLACEMENT_3D('',#1442,#1443,#1444);
#1442 = CARTESIAN_POINT('',(-0.254,1.4986,0.745998));
#1443 = DIRECTION('',(1.,0.,0.));
#1444 = DIRECTION('',(0.,0.,-1.));
#1445 = ADVANCED_FACE('',(#1446),#1471,.T.);
#1446 = FACE_BOUND('',#1447,.T.);
#1447 = EDGE_LOOP('',(#1448,#1456,#1464,#1470));
#1448 = ORIENTED_EDGE('',*,*,#1449,.F.);
#1449 = EDGE_CURVE('',#1450,#1410,#1452,.T.);
#1450 = VERTEX_POINT('',#1451);
#1451 = CARTESIAN_POINT('',(0.254,0.254,0.745998));
#1452 = LINE('',#1453,#1454);
#1453 = CARTESIAN_POINT('',(0.254,0.254,0.745998));
#1454 = VECTOR('',#1455,1.);
#1455 = DIRECTION('',(-1.,0.,0.));
#1456 = ORIENTED_EDGE('',*,*,#1457,.F.);
#1457 = EDGE_CURVE('',#1458,#1450,#1460,.T.);
#1458 = VERTEX_POINT('',#1459);
#1459 = CARTESIAN_POINT('',(0.254,1.4986,0.745998));
#1460 = LINE('',#1461,#1462);
#1461 = CARTESIAN_POINT('',(0.254,1.4986,0.745998));
#1462 = VECTOR('',#1463,1.);
#1463 = DIRECTION('',(0.,-1.,0.));
#1464 = ORIENTED_EDGE('',*,*,#1465,.T.);
#1465 = EDGE_CURVE('',#1458,#1420,#1466,.T.);
#1466 = LINE('',#1467,#1468);
#1467 = CARTESIAN_POINT('',(0.254,1.4986,0.745998));
#1468 = VECTOR('',#1469,1.);
#1469 = DIRECTION('',(-1.,0.,0.));
#1470 = ORIENTED_EDGE('',*,*,#1419,.T.);
#1471 = PLANE('',#1472);
#1472 = AXIS2_PLACEMENT_3D('',#1473,#1474,#1475);
#1473 = CARTESIAN_POINT('',(0.254,1.4986,0.745998));
#1474 = DIRECTION('',(0.,0.,1.));
#1475 = DIRECTION('',(1.,0.,-0.));
#1476 = ADVANCED_FACE('',(#1477),#1502,.T.);
#1477 = FACE_BOUND('',#1478,.T.);
#1478 = EDGE_LOOP('',(#1479,#1487,#1495,#1501));
#1479 = ORIENTED_EDGE('',*,*,#1480,.F.);
#1480 = EDGE_CURVE('',#1481,#1450,#1483,.T.);
#1481 = VERTEX_POINT('',#1482);
#1482 = CARTESIAN_POINT('',(0.254,0.254,1.253998));
#1483 = LINE('',#1484,#1485);
#1484 = CARTESIAN_POINT('',(0.254,0.254,1.253998));
#1485 = VECTOR('',#1486,1.);
#1486 = DIRECTION('',(0.,0.,-1.));
#1487 = ORIENTED_EDGE('',*,*,#1488,.F.);
#1488 = EDGE_CURVE('',#1489,#1481,#1491,.T.);
#1489 = VERTEX_POINT('',#1490);
#1490 = CARTESIAN_POINT('',(0.254,1.4986,1.253998));
#1491 = LINE('',#1492,#1493);
#1492 = CARTESIAN_POINT('',(0.254,1.4986,1.253998));
#1493 = VECTOR('',#1494,1.);
#1494 = DIRECTION('',(0.,-1.,0.));
#1495 = ORIENTED_EDGE('',*,*,#1496,.T.);
#1496 = EDGE_CURVE('',#1489,#1458,#1497,.T.);
#1497 = LINE('',#1498,#1499);
#1498 = CARTESIAN_POINT('',(0.254,1.4986,1.253998));
#1499 = VECTOR('',#1500,1.);
#1500 = DIRECTION('',(0.,0.,-1.));
#1501 = ORIENTED_EDGE('',*,*,#1457,.T.);
#1502 = PLANE('',#1503);
#1503 = AXIS2_PLACEMENT_3D('',#1504,#1505,#1506);
#1504 = CARTESIAN_POINT('',(0.254,1.4986,1.253998));
#1505 = DIRECTION('',(-1.,0.,0.));
#1506 = DIRECTION('',(0.,0.,1.));
#1507 = ADVANCED_FACE('',(#1508),#1524,.T.);
#1508 = FACE_BOUND('',#1509,.T.);
#1509 = EDGE_LOOP('',(#1510,#1516,#1517,#1523));
#1510 = ORIENTED_EDGE('',*,*,#1511,.F.);
#1511 = EDGE_CURVE('',#1310,#1379,#1512,.T.);
#1512 = LINE('',#1513,#1514);
#1513 = CARTESIAN_POINT('',(-0.254,0.254,-0.745998));
#1514 = VECTOR('',#1515,1.);
#1515 = DIRECTION('',(1.,0.,0.));
#1516 = ORIENTED_EDGE('',*,*,#1333,.F.);
#1517 = ORIENTED_EDGE('',*,*,#1518,.T.);
#1518 = EDGE_CURVE('',#1326,#1387,#1519,.T.);
#1519 = LINE('',#1520,#1521);
#1520 = CARTESIAN_POINT('',(-0.254,1.4986,-0.745998));
#1521 = VECTOR('',#1522,1.);
#1522 = DIRECTION('',(1.,0.,0.));
#1523 = ORIENTED_EDGE('',*,*,#1386,.T.);
#1524 = PLANE('',#1525);
#1525 = AXIS2_PLACEMENT_3D('',#1526,#1527,#1528);
#1526 = CARTESIAN_POINT('',(-0.254,1.4986,-0.745998));
#1527 = DIRECTION('',(0.,0.,-1.));
#1528 = DIRECTION('',(-1.,0.,0.));
#1529 = ADVANCED_FACE('',(#1530),#1546,.T.);
#1530 = FACE_BOUND('',#1531,.T.);
#1531 = EDGE_LOOP('',(#1532,#1538,#1539,#1545));
#1532 = ORIENTED_EDGE('',*,*,#1533,.F.);
#1533 = EDGE_CURVE('',#1412,#1481,#1534,.T.);
#1534 = LINE('',#1535,#1536);
#1535 = CARTESIAN_POINT('',(-0.254,0.254,1.253998));
#1536 = VECTOR('',#1537,1.);
#1537 = DIRECTION('',(1.,0.,0.));
#1538 = ORIENTED_EDGE('',*,*,#1435,.F.);
#1539 = ORIENTED_EDGE('',*,*,#1540,.T.);
#1540 = EDGE_CURVE('',#1428,#1489,#1541,.T.);
#1541 = LINE('',#1542,#1543);
#1542 = CARTESIAN_POINT('',(-0.254,1.4986,1.253998));
#1543 = VECTOR('',#1544,1.);
#1544 = DIRECTION('',(1.,0.,0.));
#1545 = ORIENTED_EDGE('',*,*,#1488,.T.);
#1546 = PLANE('',#1547);
#1547 = AXIS2_PLACEMENT_3D('',#1548,#1549,#1550);
#1548 = CARTESIAN_POINT('',(-0.254,1.4986,1.253998));
#1549 = DIRECTION('',(0.,0.,-1.));
#1550 = DIRECTION('',(-1.,0.,0.));
#1551 = ADVANCED_FACE('',(#1552),#1568,.F.);
#1552 = FACE_BOUND('',#1553,.T.);
#1553 = EDGE_LOOP('',(#1554,#1560,#1561,#1567));
#1554 = ORIENTED_EDGE('',*,*,#1555,.T.);
#1555 = EDGE_CURVE('',#1277,#1198,#1556,.T.);
#1556 = LINE('',#1557,#1558);
#1557 = CARTESIAN_POINT('',(0.999998,0.,-1.9685));
#1558 = VECTOR('',#1559,1.);
#1559 = DIRECTION('',(-1.,0.,0.));
#1560 = ORIENTED_EDGE('',*,*,#1197,.F.);
#1561 = ORIENTED_EDGE('',*,*,#1562,.F.);
#1562 = EDGE_CURVE('',#1285,#1190,#1563,.T.);
#1563 = LINE('',#1564,#1565);
#1564 = CARTESIAN_POINT('',(0.999998,1.4986,-1.9685));
#1565 = VECTOR('',#1566,1.);
#1566 = DIRECTION('',(-1.,0.,0.));
#1567 = ORIENTED_EDGE('',*,*,#1284,.T.);
#1568 = PLANE('',#1569);
#1569 = AXIS2_PLACEMENT_3D('',#1570,#1571,#1572);
#1570 = CARTESIAN_POINT('',(0.999998,1.4986,-1.9685));
#1571 = DIRECTION('',(0.,0.,1.));
#1572 = DIRECTION('',(1.,0.,-0.));
#1573 = ADVANCED_FACE('',(#1574,#1580,#1586),#1592,.T.);
#1574 = FACE_BOUND('',#1575,.T.);
#1575 = EDGE_LOOP('',(#1576,#1577,#1578,#1579));
#1576 = ORIENTED_EDGE('',*,*,#1427,.F.);
#1577 = ORIENTED_EDGE('',*,*,#1465,.F.);
#1578 = ORIENTED_EDGE('',*,*,#1496,.F.);
#1579 = ORIENTED_EDGE('',*,*,#1540,.F.);
#1580 = FACE_BOUND('',#1581,.T.);
#1581 = EDGE_LOOP('',(#1582,#1583,#1584,#1585));
#1582 = ORIENTED_EDGE('',*,*,#1325,.F.);
#1583 = ORIENTED_EDGE('',*,*,#1363,.F.);
#1584 = ORIENTED_EDGE('',*,*,#1394,.F.);
#1585 = ORIENTED_EDGE('',*,*,#1518,.F.);
#1586 = FACE_BOUND('',#1587,.T.);
#1587 = EDGE_LOOP('',(#1588,#1589,#1590,#1591));
#1588 = ORIENTED_EDGE('',*,*,#1189,.T.);
#1589 = ORIENTED_EDGE('',*,*,#1236,.T.);
#1590 = ORIENTED_EDGE('',*,*,#1292,.T.);
#1591 = ORIENTED_EDGE('',*,*,#1562,.T.);
#1592 = PLANE('',#1593);
#1593 = AXIS2_PLACEMENT_3D('',#1594,#1595,#1596);
#1594 = CARTESIAN_POINT('',(0.,1.4986,0.));
#1595 = DIRECTION('',(0.,1.,0.));
#1596 = DIRECTION('',(0.,-0.,1.));
#1597 = ADVANCED_FACE('',(#1598),#1609,.F.);
#1598 = FACE_BOUND('',#1599,.T.);
#1599 = EDGE_LOOP('',(#1600,#1601,#1607,#1608));
#1600 = ORIENTED_EDGE('',*,*,#1276,.F.);
#1601 = ORIENTED_EDGE('',*,*,#1602,.F.);
#1602 = EDGE_CURVE('',#1206,#1269,#1603,.T.);
#1603 = LINE('',#1604,#1605);
#1604 = CARTESIAN_POINT('',(-0.999998,0.,-1.5875));
#1605 = VECTOR('',#1606,1.);
#1606 = DIRECTION('',(1.,0.,0.));
#1607 = ORIENTED_EDGE('',*,*,#1205,.F.);
#1608 = ORIENTED_EDGE('',*,*,#1555,.F.);
#1609 = PLANE('',#1610);
#1610 = AXIS2_PLACEMENT_3D('',#1611,#1612,#1613);
#1611 = CARTESIAN_POINT('',(0.,0.,0.));
#1612 = DIRECTION('',(0.,1.,0.));
#1613 = DIRECTION('',(0.,-0.,1.));
#1614 = ADVANCED_FACE('',(#1615,#1621,#1627),#1643,.F.);
#1615 = FACE_BOUND('',#1616,.T.);
#1616 = EDGE_LOOP('',(#1617,#1618,#1619,#1620));
#1617 = ORIENTED_EDGE('',*,*,#1307,.T.);
#1618 = ORIENTED_EDGE('',*,*,#1511,.T.);
#1619 = ORIENTED_EDGE('',*,*,#1378,.T.);
#1620 = ORIENTED_EDGE('',*,*,#1347,.T.);
#1621 = FACE_BOUND('',#1622,.T.);
#1622 = EDGE_LOOP('',(#1623,#1624,#1625,#1626));
#1623 = ORIENTED_EDGE('',*,*,#1409,.T.);
#1624 = ORIENTED_EDGE('',*,*,#1533,.T.);
#1625 = ORIENTED_EDGE('',*,*,#1480,.T.);
#1626 = ORIENTED_EDGE('',*,*,#1449,.T.);
#1627 = FACE_BOUND('',#1628,.T.);
#1628 = EDGE_LOOP('',(#1629,#1630,#1636,#1637));
#1629 = ORIENTED_EDGE('',*,*,#1260,.T.);
#1630 = ORIENTED_EDGE('',*,*,#1631,.F.);
#1631 = EDGE_CURVE('',#1167,#1253,#1632,.T.);
#1632 = LINE('',#1633,#1634);
#1633 = CARTESIAN_POINT('',(-0.999998,0.254,1.5875));
#1634 = VECTOR('',#1635,1.);
#1635 = DIRECTION('',(1.,0.,0.));
#1636 = ORIENTED_EDGE('',*,*,#1164,.F.);
#1637 = ORIENTED_EDGE('',*,*,#1638,.T.);
#1638 = EDGE_CURVE('',#1165,#1261,#1639,.T.);
#1639 = LINE('',#1640,#1641);
#1640 = CARTESIAN_POINT('',(-0.999998,0.254,-1.5875));
#1641 = VECTOR('',#1642,1.);
#1642 = DIRECTION('',(1.,0.,0.));
#1643 = PLANE('',#1644);
#1644 = AXIS2_PLACEMENT_3D('',#1645,#1646,#1647);
#1645 = CARTESIAN_POINT('',(-0.999998,0.254,-1.5875));
#1646 = DIRECTION('',(0.,1.,0.));
#1647 = DIRECTION('',(0.,-0.,1.));
#1648 = ADVANCED_FACE('',(#1649),#1655,.F.);
#1649 = FACE_BOUND('',#1650,.T.);
#1650 = EDGE_LOOP('',(#1651,#1652,#1653,#1654));
#1651 = ORIENTED_EDGE('',*,*,#1252,.T.);
#1652 = ORIENTED_EDGE('',*,*,#1134,.F.);
#1653 = ORIENTED_EDGE('',*,*,#1174,.F.);
#1654 = ORIENTED_EDGE('',*,*,#1631,.T.);
#1655 = PLANE('',#1656);
#1656 = AXIS2_PLACEMENT_3D('',#1657,#1658,#1659);
#1657 = CARTESIAN_POINT('',(-0.999998,0.254,1.5875));
#1658 = DIRECTION('',(0.,-5.975917486141E-15,1.));
#1659 = DIRECTION('',(0.,-1.,-5.975917486141E-15));
#1660 = ADVANCED_FACE('',(#1661),#1667,.F.);
#1661 = FACE_BOUND('',#1662,.T.);
#1662 = EDGE_LOOP('',(#1663,#1664,#1665,#1666));
#1663 = ORIENTED_EDGE('',*,*,#1268,.T.);
#1664 = ORIENTED_EDGE('',*,*,#1638,.F.);
#1665 = ORIENTED_EDGE('',*,*,#1213,.F.);
#1666 = ORIENTED_EDGE('',*,*,#1602,.T.);
#1667 = PLANE('',#1668);
#1668 = AXIS2_PLACEMENT_3D('',#1669,#1670,#1671);
#1669 = CARTESIAN_POINT('',(-0.999998,0.,-1.5875));
#1670 = DIRECTION('',(0.,0.,-1.));
#1671 = DIRECTION('',(-1.,0.,0.));
#1672 = ( GEOMETRIC_REPRESENTATION_CONTEXT(3) 
GLOBAL_UNCERTAINTY_ASSIGNED_CONTEXT((#1676)) 
GLOBAL_UNIT_ASSIGNED_CONTEXT((#1673,#1674,#1675)) REPRESENTATION_CONTEXT
('Context #1','3D Context with UNIT and UNCERTAINTY') );
#1673 = ( LENGTH_UNIT() NAMED_UNIT(*) SI_UNIT(.MILLI.,.METRE.) );
#1674 = ( NAMED_UNIT(*) PLANE_ANGLE_UNIT() SI_UNIT($,.RADIAN.) );
#1675 = ( NAMED_UNIT(*) SI_UNIT($,.STERADIAN.) SOLID_ANGLE_UNIT() );
#1676 = UNCERTAINTY_MEASURE_WITH_UNIT(LENGTH_MEASURE(1.E-07),#1673,
  'distance_accuracy_value','confusion accuracy');
#1677 = CONTEXT_DEPENDENT_SHAPE_REPRESENTATION(#1678,#1680);
#1678 = ( REPRESENTATION_RELATIONSHIP('','',#1117,#10) 
REPRESENTATION_RELATIONSHIP_WITH_TRANSFORMATION(#1679) 
SHAPE_REPRESENTATION_RELATIONSHIP() );
#1679 = ITEM_DEFINED_TRANSFORMATION('','',#11,#19);
#1680 = PRODUCT_DEFINITION_SHAPE('Placement','Placement of an item',
  #1681);
#1681 = NEXT_ASSEMBLY_USAGE_OCCURRENCE('2','=>[0:1:1:2]','',#5,#1112,$);
#1682 = PRODUCT_RELATED_PRODUCT_CATEGORY('part',$,(#1114));
#1683 = MECHANICAL_DESIGN_GEOMETRIC_PRESENTATION_REPRESENTATION('',(
    #1684),#1672);
#1684 = STYLED_ITEM('color',(#1685),#1118);
#1685 = PRESENTATION_STYLE_ASSIGNMENT((#1686,#1692));
#1686 = SURFACE_STYLE_USAGE(.BOTH.,#1687);
#1687 = SURFACE_SIDE_STYLE('',(#1688));
#1688 = SURFACE_STYLE_FILL_AREA(#1689);
#1689 = FILL_AREA_STYLE('',(#1690));
#1690 = FILL_AREA_STYLE_COLOUR('',#1691);
#1691 = COLOUR_RGB('',0.109800004037,0.109800004037,0.109800004037);
#1692 = CURVE_STYLE('',#1693,POSITIVE_LENGTH_MEASURE(0.1),#1691);
#1693 = DRAUGHTING_PRE_DEFINED_CURVE_FONT('continuous');
#1694 = MECHANICAL_DESIGN_GEOMETRIC_PRESENTATION_REPRESENTATION('',(
    #1695),#1099);
#1695 = STYLED_ITEM('color',(#1696),#37);
#1696 = PRESENTATION_STYLE_ASSIGNMENT((#1697,#1703));
#1697 = SURFACE_STYLE_USAGE(.BOTH.,#1698);
#1698 = SURFACE_SIDE_STYLE('',(#1699));
#1699 = SURFACE_STYLE_FILL_AREA(#1700);
#1700 = FILL_AREA_STYLE('',(#1701));
#1701 = FILL_AREA_STYLE_COLOUR('',#1702);
#1702 = DRAUGHTING_PRE_DEFINED_COLOUR('yellow');
#1703 = CURVE_STYLE('',#1704,POSITIVE_LENGTH_MEASURE(0.1),#1702);
#1704 = DRAUGHTING_PRE_DEFINED_CURVE_FONT('continuous');
ENDSEC;
END-ISO-10303-21;
