ISO-10303-21;
HEADER;
FILE_DESCRIPTION(('FreeCAD Model'),'2;1');
FILE_NAME('Open CASCADE Shape Model','2025-11-20T20:23:38',(''),(''),
  'Open CASCADE STEP processor 7.8','FreeCAD','Unknown');
FILE_SCHEMA(('AUTOMOTIVE_DESIGN { 1 0 10303 214 1 1 1 1 }'));
ENDSEC;
DATA;
#1 = APPLICATION_PROTOCOL_DEFINITION('international standard',
  'automotive_design',2000,#2);
#2 = APPLICATION_CONTEXT(
  'core data for automotive mechanical design processes');
#3 = SHAPE_DEFINITION_REPRESENTATION(#4,#10);
#4 = PRODUCT_DEFINITION_SHAPE('','',#5);
#5 = PRODUCT_DEFINITION('design','',#6,#9);
#6 = PRODUCT_DEFINITION_FORMATION('','',#7);
#7 = PRODUCT('_SL11STEP','_SL11STEP','',(#8));
#8 = PRODUCT_CONTEXT('',#2,'mechanical');
#9 = PRODUCT_DEFINITION_CONTEXT('part definition',#2,'design');
#10 = SHAPE_REPRESENTATION('',(#11,#15),#19);
#11 = AXIS2_PLACEMENT_3D('',#12,#13,#14);
#12 = CARTESIAN_POINT('',(0.,0.,0.));
#13 = DIRECTION('',(0.,0.,1.));
#14 = DIRECTION('',(1.,0.,-0.));
#15 = AXIS2_PLACEMENT_3D('',#16,#17,#18);
#16 = CARTESIAN_POINT('',(0.528195427464,-1.546205742812,4.583255966524)
  );
#17 = DIRECTION('',(0.,0.,1.));
#18 = DIRECTION('',(1.,0.,0.));
#19 = ( GEOMETRIC_REPRESENTATION_CONTEXT(3) 
GLOBAL_UNCERTAINTY_ASSIGNED_CONTEXT((#23)) GLOBAL_UNIT_ASSIGNED_CONTEXT(
(#20,#21,#22)) REPRESENTATION_CONTEXT('Context #1',
  '3D Context with UNIT and UNCERTAINTY') );
#20 = ( LENGTH_UNIT() NAMED_UNIT(*) SI_UNIT(.MILLI.,.METRE.) );
#21 = ( NAMED_UNIT(*) PLANE_ANGLE_UNIT() SI_UNIT($,.RADIAN.) );
#22 = ( NAMED_UNIT(*) SI_UNIT($,.STERADIAN.) SOLID_ANGLE_UNIT() );
#23 = UNCERTAINTY_MEASURE_WITH_UNIT(LENGTH_MEASURE(1.E-07),#20,
  'distance_accuracy_value','confusion accuracy');
#24 = PRODUCT_RELATED_PRODUCT_CATEGORY('part',$,(#7));
#25 = SHAPE_DEFINITION_REPRESENTATION(#26,#32);
#26 = PRODUCT_DEFINITION_SHAPE('','',#27);
#27 = PRODUCT_DEFINITION('design','',#28,#31);
#28 = PRODUCT_DEFINITION_FORMATION('','',#29);
#29 = PRODUCT('001017565','001017565','',(#30));
#30 = PRODUCT_CONTEXT('',#2,'mechanical');
#31 = PRODUCT_DEFINITION_CONTEXT('part definition',#2,'design');
#32 = SHAPE_REPRESENTATION('',(#11,#33,#37),#41);
#33 = AXIS2_PLACEMENT_3D('',#34,#35,#36);
#34 = CARTESIAN_POINT('',(-0.528195427464,1.546205742812,-4.333255966524
    ));
#35 = DIRECTION('',(0.,0.,1.));
#36 = DIRECTION('',(1.,0.,0.));
#37 = AXIS2_PLACEMENT_3D('',#38,#39,#40);
#38 = CARTESIAN_POINT('',(-0.520616062385,1.268943831911,1.416744033476)
  );
#39 = DIRECTION('',(0.,0.,1.));
#40 = DIRECTION('',(1.,0.,0.));
#41 = ( GEOMETRIC_REPRESENTATION_CONTEXT(3) 
GLOBAL_UNCERTAINTY_ASSIGNED_CONTEXT((#45)) GLOBAL_UNIT_ASSIGNED_CONTEXT(
(#42,#43,#44)) REPRESENTATION_CONTEXT('Context #1',
  '3D Context with UNIT and UNCERTAINTY') );
#42 = ( LENGTH_UNIT() NAMED_UNIT(*) SI_UNIT(.MILLI.,.METRE.) );
#43 = ( NAMED_UNIT(*) PLANE_ANGLE_UNIT() SI_UNIT($,.RADIAN.) );
#44 = ( NAMED_UNIT(*) SI_UNIT($,.STERADIAN.) SOLID_ANGLE_UNIT() );
#45 = UNCERTAINTY_MEASURE_WITH_UNIT(LENGTH_MEASURE(1.E-07),#42,
  'distance_accuracy_value','confusion accuracy');
#46 = CONTEXT_DEPENDENT_SHAPE_REPRESENTATION(#47,#49);
#47 = ( REPRESENTATION_RELATIONSHIP('','',#32,#10) 
REPRESENTATION_RELATIONSHIP_WITH_TRANSFORMATION(#48) 
SHAPE_REPRESENTATION_RELATIONSHIP() );
#48 = ITEM_DEFINED_TRANSFORMATION('','',#11,#15);
#49 = PRODUCT_DEFINITION_SHAPE('Placement','Placement of an item',#50);
#50 = NEXT_ASSEMBLY_USAGE_OCCURRENCE('5','001017565','',#5,#27,$);
#51 = PRODUCT_RELATED_PRODUCT_CATEGORY('part',$,(#29));
#52 = SHAPE_DEFINITION_REPRESENTATION(#53,#59);
#53 = PRODUCT_DEFINITION_SHAPE('','',#54);
#54 = PRODUCT_DEFINITION('design','',#55,#58);
#55 = PRODUCT_DEFINITION_FORMATION('','',#56);
#56 = PRODUCT('F1000S1120M007B','F1000S1120M007B','',(#57));
#57 = PRODUCT_CONTEXT('',#2,'mechanical');
#58 = PRODUCT_DEFINITION_CONTEXT('part definition',#2,'design');
#59 = ADVANCED_BREP_SHAPE_REPRESENTATION('',(#11,#60),#1066);
#60 = MANIFOLD_SOLID_BREP('',#61);
#61 = CLOSED_SHELL('',(#62,#102,#142,#173,#213,#244,#284,#315,#346,#402,
    #458,#489,#513,#544,#577,#612,#629,#650,#685,#731,#771,#802,#833,
    #855,#886,#910,#928,#957,#979,#996,#1013,#1025,#1037,#1054));
#62 = ADVANCED_FACE('',(#63),#97,.T.);
#63 = FACE_BOUND('',#64,.T.);
#64 = EDGE_LOOP('',(#65,#75,#83,#91));
#65 = ORIENTED_EDGE('',*,*,#66,.T.);
#66 = EDGE_CURVE('',#67,#69,#71,.T.);
#67 = VERTEX_POINT('',#68);
#68 = CARTESIAN_POINT('',(-0.814865100164,1.25,2.65));
#69 = VERTEX_POINT('',#70);
#70 = CARTESIAN_POINT('',(-0.814865100164,0.85,2.65));
#71 = LINE('',#72,#73);
#72 = CARTESIAN_POINT('',(-0.814865100164,-0.1,2.65));
#73 = VECTOR('',#74,1.);
#74 = DIRECTION('',(0.,-1.,0.));
#75 = ORIENTED_EDGE('',*,*,#76,.F.);
#76 = EDGE_CURVE('',#77,#69,#79,.T.);
#77 = VERTEX_POINT('',#78);
#78 = CARTESIAN_POINT('',(0.814865100164,0.85,2.65));
#79 = LINE('',#80,#81);
#80 = CARTESIAN_POINT('',(-0.919896230895,0.85,2.65));
#81 = VECTOR('',#82,1.);
#82 = DIRECTION('',(-1.,-3.01725071627E-16,0.));
#83 = ORIENTED_EDGE('',*,*,#84,.T.);
#84 = EDGE_CURVE('',#77,#85,#87,.T.);
#85 = VERTEX_POINT('',#86);
#86 = CARTESIAN_POINT('',(0.814865100164,1.25,2.65));
#87 = LINE('',#88,#89);
#88 = CARTESIAN_POINT('',(0.814865100164,-0.1,2.65));
#89 = VECTOR('',#90,1.);
#90 = DIRECTION('',(0.,1.,0.));
#91 = ORIENTED_EDGE('',*,*,#92,.F.);
#92 = EDGE_CURVE('',#67,#85,#93,.T.);
#93 = LINE('',#94,#95);
#94 = CARTESIAN_POINT('',(0.919896230895,1.25,2.65));
#95 = VECTOR('',#96,1.);
#96 = DIRECTION('',(1.,0.,0.));
#97 = PLANE('',#98);
#98 = AXIS2_PLACEMENT_3D('',#99,#100,#101);
#99 = CARTESIAN_POINT('',(-1.561251128379E-16,1.05,2.65));
#100 = DIRECTION('',(0.,0.,1.));
#101 = DIRECTION('',(1.,0.,-0.));
#102 = ADVANCED_FACE('',(#103),#137,.T.);
#103 = FACE_BOUND('',#104,.T.);
#104 = EDGE_LOOP('',(#105,#115,#123,#131));
#105 = ORIENTED_EDGE('',*,*,#106,.T.);
#106 = EDGE_CURVE('',#107,#109,#111,.T.);
#107 = VERTEX_POINT('',#108);
#108 = CARTESIAN_POINT('',(-0.814865100164,-0.85,2.65));
#109 = VERTEX_POINT('',#110);
#110 = CARTESIAN_POINT('',(-0.814865100164,-1.25,2.65));
#111 = LINE('',#112,#113);
#112 = CARTESIAN_POINT('',(-0.814865100164,-1.15,2.65));
#113 = VECTOR('',#114,1.);
#114 = DIRECTION('',(0.,-1.,0.));
#115 = ORIENTED_EDGE('',*,*,#116,.F.);
#116 = EDGE_CURVE('',#117,#109,#119,.T.);
#117 = VERTEX_POINT('',#118);
#118 = CARTESIAN_POINT('',(0.814865100164,-1.25,2.65));
#119 = LINE('',#120,#121);
#120 = CARTESIAN_POINT('',(0.919896230895,-1.25,2.65));
#121 = VECTOR('',#122,1.);
#122 = DIRECTION('',(-1.,0.,0.));
#123 = ORIENTED_EDGE('',*,*,#124,.T.);
#124 = EDGE_CURVE('',#117,#125,#127,.T.);
#125 = VERTEX_POINT('',#126);
#126 = CARTESIAN_POINT('',(0.814865100164,-0.85,2.65));
#127 = LINE('',#128,#129);
#128 = CARTESIAN_POINT('',(0.814865100164,-1.15,2.65));
#129 = VECTOR('',#130,1.);
#130 = DIRECTION('',(0.,1.,0.));
#131 = ORIENTED_EDGE('',*,*,#132,.F.);
#132 = EDGE_CURVE('',#107,#125,#133,.T.);
#133 = LINE('',#134,#135);
#134 = CARTESIAN_POINT('',(-0.919896230895,-0.85,2.65));
#135 = VECTOR('',#136,1.);
#136 = DIRECTION('',(1.,3.01725071627E-16,0.));
#137 = PLANE('',#138);
#138 = AXIS2_PLACEMENT_3D('',#139,#140,#141);
#139 = CARTESIAN_POINT('',(1.214306433184E-16,-1.05,2.65));
#140 = DIRECTION('',(0.,0.,1.));
#141 = DIRECTION('',(1.,0.,-0.));
#142 = ADVANCED_FACE('',(#143),#168,.T.);
#143 = FACE_BOUND('',#144,.T.);
#144 = EDGE_LOOP('',(#145,#153,#161,#167));
#145 = ORIENTED_EDGE('',*,*,#146,.T.);
#146 = EDGE_CURVE('',#69,#147,#149,.T.);
#147 = VERTEX_POINT('',#148);
#148 = CARTESIAN_POINT('',(-0.919896230895,0.85,2.5));
#149 = LINE('',#150,#151);
#150 = CARTESIAN_POINT('',(-0.617259635815,0.85,2.93220985003));
#151 = VECTOR('',#152,1.);
#152 = DIRECTION('',(-0.573576436351,-1.730623913416E-16,-0.819152044289
    ));
#153 = ORIENTED_EDGE('',*,*,#154,.F.);
#154 = EDGE_CURVE('',#155,#147,#157,.T.);
#155 = VERTEX_POINT('',#156);
#156 = CARTESIAN_POINT('',(0.919896230895,0.85,2.5));
#157 = LINE('',#158,#159);
#158 = CARTESIAN_POINT('',(0.459948115448,0.85,2.5));
#159 = VECTOR('',#160,1.);
#160 = DIRECTION('',(-1.,-3.01725071627E-16,0.));
#161 = ORIENTED_EDGE('',*,*,#162,.T.);
#162 = EDGE_CURVE('',#155,#77,#163,.T.);
#163 = LINE('',#164,#165);
#164 = CARTESIAN_POINT('',(0.867380665529,0.85,2.575));
#165 = VECTOR('',#166,1.);
#166 = DIRECTION('',(-0.573576436351,-1.730623913416E-16,0.819152044289)
  );
#167 = ORIENTED_EDGE('',*,*,#76,.T.);
#168 = PLANE('',#169);
#169 = AXIS2_PLACEMENT_3D('',#170,#171,#172);
#170 = CARTESIAN_POINT('',(0.919896230895,0.85,2.5));
#171 = DIRECTION('',(3.01725071627E-16,-1.,0.));
#172 = DIRECTION('',(0.,0.,-1.));
#173 = ADVANCED_FACE('',(#174),#208,.T.);
#174 = FACE_BOUND('',#175,.T.);
#175 = EDGE_LOOP('',(#176,#186,#194,#202));
#176 = ORIENTED_EDGE('',*,*,#177,.T.);
#177 = EDGE_CURVE('',#178,#180,#182,.T.);
#178 = VERTEX_POINT('',#179);
#179 = CARTESIAN_POINT('',(-0.814865100164,-0.85,-0.15));
#180 = VERTEX_POINT('',#181);
#181 = CARTESIAN_POINT('',(-0.919896230895,-0.85,0.));
#182 = LINE('',#183,#184);
#183 = CARTESIAN_POINT('',(-0.56474407045,-0.85,-0.50720985003));
#184 = VECTOR('',#185,1.);
#185 = DIRECTION('',(-0.573576436351,1.730623913416E-16,0.819152044289)
  );
#186 = ORIENTED_EDGE('',*,*,#187,.F.);
#187 = EDGE_CURVE('',#188,#180,#190,.T.);
#188 = VERTEX_POINT('',#189);
#189 = CARTESIAN_POINT('',(0.919896230895,-0.85,0.));
#190 = LINE('',#191,#192);
#191 = CARTESIAN_POINT('',(0.459948115448,-0.85,0.));
#192 = VECTOR('',#193,1.);
#193 = DIRECTION('',(-1.,3.01725071627E-16,0.));
#194 = ORIENTED_EDGE('',*,*,#195,.T.);
#195 = EDGE_CURVE('',#188,#196,#198,.T.);
#196 = VERTEX_POINT('',#197);
#197 = CARTESIAN_POINT('',(0.814865100164,-0.85,-0.15));
#198 = LINE('',#199,#200);
#199 = CARTESIAN_POINT('',(0.919896230895,-0.85,-5.233716864941E-17));
#200 = VECTOR('',#201,1.);
#201 = DIRECTION('',(-0.573576436351,1.730623913416E-16,-0.819152044289)
  );
#202 = ORIENTED_EDGE('',*,*,#203,.T.);
#203 = EDGE_CURVE('',#196,#178,#204,.T.);
#204 = LINE('',#205,#206);
#205 = CARTESIAN_POINT('',(0.919896230895,-0.85,-0.15));
#206 = VECTOR('',#207,1.);
#207 = DIRECTION('',(-1.,3.01725071627E-16,0.));
#208 = PLANE('',#209);
#209 = AXIS2_PLACEMENT_3D('',#210,#211,#212);
#210 = CARTESIAN_POINT('',(0.919896230895,-0.85,0.));
#211 = DIRECTION('',(3.01725071627E-16,1.,0.));
#212 = DIRECTION('',(0.,-0.,1.));
#213 = ADVANCED_FACE('',(#214),#239,.F.);
#214 = FACE_BOUND('',#215,.T.);
#215 = EDGE_LOOP('',(#216,#224,#225,#233));
#216 = ORIENTED_EDGE('',*,*,#217,.T.);
#217 = EDGE_CURVE('',#218,#178,#220,.T.);
#218 = VERTEX_POINT('',#219);
#219 = CARTESIAN_POINT('',(-0.814865100164,-1.25,-0.15));
#220 = LINE('',#221,#222);
#221 = CARTESIAN_POINT('',(-0.814865100164,-1.15,-0.15));
#222 = VECTOR('',#223,1.);
#223 = DIRECTION('',(0.,1.,0.));
#224 = ORIENTED_EDGE('',*,*,#203,.F.);
#225 = ORIENTED_EDGE('',*,*,#226,.T.);
#226 = EDGE_CURVE('',#196,#227,#229,.T.);
#227 = VERTEX_POINT('',#228);
#228 = CARTESIAN_POINT('',(0.814865100164,-1.25,-0.15));
#229 = LINE('',#230,#231);
#230 = CARTESIAN_POINT('',(0.814865100164,-1.15,-0.15));
#231 = VECTOR('',#232,1.);
#232 = DIRECTION('',(0.,-1.,0.));
#233 = ORIENTED_EDGE('',*,*,#234,.F.);
#234 = EDGE_CURVE('',#218,#227,#235,.T.);
#235 = LINE('',#236,#237);
#236 = CARTESIAN_POINT('',(-0.919896230895,-1.25,-0.15));
#237 = VECTOR('',#238,1.);
#238 = DIRECTION('',(1.,0.,0.));
#239 = PLANE('',#240);
#240 = AXIS2_PLACEMENT_3D('',#241,#242,#243);
#241 = CARTESIAN_POINT('',(4.336808689942E-16,-1.05,-0.15));
#242 = DIRECTION('',(0.,0.,1.));
#243 = DIRECTION('',(1.,0.,-0.));
#244 = ADVANCED_FACE('',(#245),#279,.T.);
#245 = FACE_BOUND('',#246,.T.);
#246 = EDGE_LOOP('',(#247,#257,#265,#273));
#247 = ORIENTED_EDGE('',*,*,#248,.T.);
#248 = EDGE_CURVE('',#249,#251,#253,.T.);
#249 = VERTEX_POINT('',#250);
#250 = CARTESIAN_POINT('',(-0.919896230895,0.85,0.));
#251 = VERTEX_POINT('',#252);
#252 = CARTESIAN_POINT('',(-0.814865100164,0.85,-0.15));
#253 = LINE('',#254,#255);
#254 = CARTESIAN_POINT('',(-0.867380665529,0.85,-7.5E-02));
#255 = VECTOR('',#256,1.);
#256 = DIRECTION('',(0.573576436351,-1.730623913416E-16,-0.819152044289)
  );
#257 = ORIENTED_EDGE('',*,*,#258,.T.);
#258 = EDGE_CURVE('',#251,#259,#261,.T.);
#259 = VERTEX_POINT('',#260);
#260 = CARTESIAN_POINT('',(0.814865100164,0.85,-0.15));
#261 = LINE('',#262,#263);
#262 = CARTESIAN_POINT('',(0.919896230895,0.85,-0.15));
#263 = VECTOR('',#264,1.);
#264 = DIRECTION('',(1.,-3.01725071627E-16,0.));
#265 = ORIENTED_EDGE('',*,*,#266,.T.);
#266 = EDGE_CURVE('',#259,#267,#269,.T.);
#267 = VERTEX_POINT('',#268);
#268 = CARTESIAN_POINT('',(0.919896230895,0.85,0.));
#269 = LINE('',#270,#271);
#270 = CARTESIAN_POINT('',(0.617259635815,0.85,-0.43220985003));
#271 = VECTOR('',#272,1.);
#272 = DIRECTION('',(0.573576436351,-1.730623913416E-16,0.819152044289)
  );
#273 = ORIENTED_EDGE('',*,*,#274,.F.);
#274 = EDGE_CURVE('',#249,#267,#275,.T.);
#275 = LINE('',#276,#277);
#276 = CARTESIAN_POINT('',(-0.459948115448,0.85,0.));
#277 = VECTOR('',#278,1.);
#278 = DIRECTION('',(1.,-3.01725071627E-16,0.));
#279 = PLANE('',#280);
#280 = AXIS2_PLACEMENT_3D('',#281,#282,#283);
#281 = CARTESIAN_POINT('',(-0.919896230895,0.85,0.));
#282 = DIRECTION('',(-3.01725071627E-16,-1.,0.));
#283 = DIRECTION('',(-0.,0.,-1.));
#284 = ADVANCED_FACE('',(#285),#310,.F.);
#285 = FACE_BOUND('',#286,.T.);
#286 = EDGE_LOOP('',(#287,#295,#303,#309));
#287 = ORIENTED_EDGE('',*,*,#288,.T.);
#288 = EDGE_CURVE('',#251,#289,#291,.T.);
#289 = VERTEX_POINT('',#290);
#290 = CARTESIAN_POINT('',(-0.814865100164,1.25,-0.15));
#291 = LINE('',#292,#293);
#292 = CARTESIAN_POINT('',(-0.814865100164,-0.1,-0.15));
#293 = VECTOR('',#294,1.);
#294 = DIRECTION('',(0.,1.,0.));
#295 = ORIENTED_EDGE('',*,*,#296,.F.);
#296 = EDGE_CURVE('',#297,#289,#299,.T.);
#297 = VERTEX_POINT('',#298);
#298 = CARTESIAN_POINT('',(0.814865100164,1.25,-0.15));
#299 = LINE('',#300,#301);
#300 = CARTESIAN_POINT('',(-0.919896230895,1.25,-0.15));
#301 = VECTOR('',#302,1.);
#302 = DIRECTION('',(-1.,0.,0.));
#303 = ORIENTED_EDGE('',*,*,#304,.T.);
#304 = EDGE_CURVE('',#297,#259,#305,.T.);
#305 = LINE('',#306,#307);
#306 = CARTESIAN_POINT('',(0.814865100164,-0.1,-0.15));
#307 = VECTOR('',#308,1.);
#308 = DIRECTION('',(0.,-1.,0.));
#309 = ORIENTED_EDGE('',*,*,#258,.F.);
#310 = PLANE('',#311);
#311 = AXIS2_PLACEMENT_3D('',#312,#313,#314);
#312 = CARTESIAN_POINT('',(6.071532165919E-16,1.05,-0.15));
#313 = DIRECTION('',(0.,0.,1.));
#314 = DIRECTION('',(1.,0.,-0.));
#315 = ADVANCED_FACE('',(#316),#341,.T.);
#316 = FACE_BOUND('',#317,.T.);
#317 = EDGE_LOOP('',(#318,#326,#327,#335));
#318 = ORIENTED_EDGE('',*,*,#319,.T.);
#319 = EDGE_CURVE('',#320,#107,#322,.T.);
#320 = VERTEX_POINT('',#321);
#321 = CARTESIAN_POINT('',(-0.919896230895,-0.85,2.5));
#322 = LINE('',#323,#324);
#323 = CARTESIAN_POINT('',(-0.919896230895,-0.85,2.5));
#324 = VECTOR('',#325,1.);
#325 = DIRECTION('',(0.573576436351,1.730623913416E-16,0.819152044289));
#326 = ORIENTED_EDGE('',*,*,#132,.T.);
#327 = ORIENTED_EDGE('',*,*,#328,.T.);
#328 = EDGE_CURVE('',#125,#329,#331,.T.);
#329 = VERTEX_POINT('',#330);
#330 = CARTESIAN_POINT('',(0.919896230895,-0.85,2.5));
#331 = LINE('',#332,#333);
#332 = CARTESIAN_POINT('',(0.56474407045,-0.85,3.00720985003));
#333 = VECTOR('',#334,1.);
#334 = DIRECTION('',(0.573576436351,1.730623913416E-16,-0.819152044289)
  );
#335 = ORIENTED_EDGE('',*,*,#336,.F.);
#336 = EDGE_CURVE('',#320,#329,#337,.T.);
#337 = LINE('',#338,#339);
#338 = CARTESIAN_POINT('',(-0.459948115448,-0.85,2.5));
#339 = VECTOR('',#340,1.);
#340 = DIRECTION('',(1.,3.01725071627E-16,0.));
#341 = PLANE('',#342);
#342 = AXIS2_PLACEMENT_3D('',#343,#344,#345);
#343 = CARTESIAN_POINT('',(-0.919896230895,-0.85,2.5));
#344 = DIRECTION('',(-3.01725071627E-16,1.,0.));
#345 = DIRECTION('',(0.,0.,1.));
#346 = ADVANCED_FACE('',(#347),#397,.F.);
#347 = FACE_BOUND('',#348,.T.);
#348 = EDGE_LOOP('',(#349,#359,#365,#366,#367,#373,#374,#375,#383,#391)
  );
#349 = ORIENTED_EDGE('',*,*,#350,.F.);
#350 = EDGE_CURVE('',#351,#353,#355,.T.);
#351 = VERTEX_POINT('',#352);
#352 = CARTESIAN_POINT('',(0.989916984716,-1.25,1.E-01));
#353 = VERTEX_POINT('',#354);
#354 = CARTESIAN_POINT('',(1.27,-0.85,0.5));
#355 = LINE('',#356,#357);
#356 = CARTESIAN_POINT('',(1.49494002561,-0.528752350789,0.821247649211)
  );
#357 = VECTOR('',#358,1.);
#358 = DIRECTION('',(0.44371260628,0.633687274225,0.633687274225));
#359 = ORIENTED_EDGE('',*,*,#360,.F.);
#360 = EDGE_CURVE('',#227,#351,#361,.T.);
#361 = LINE('',#362,#363);
#362 = CARTESIAN_POINT('',(0.977486537849,-1.25,8.224748208429E-02));
#363 = VECTOR('',#364,1.);
#364 = DIRECTION('',(0.573576436351,0.,0.819152044289));
#365 = ORIENTED_EDGE('',*,*,#226,.F.);
#366 = ORIENTED_EDGE('',*,*,#195,.F.);
#367 = ORIENTED_EDGE('',*,*,#368,.F.);
#368 = EDGE_CURVE('',#267,#188,#369,.T.);
#369 = LINE('',#370,#371);
#370 = CARTESIAN_POINT('',(0.919896230895,-0.625,4.336808689942E-18));
#371 = VECTOR('',#372,1.);
#372 = DIRECTION('',(0.,-1.,0.));
#373 = ORIENTED_EDGE('',*,*,#266,.F.);
#374 = ORIENTED_EDGE('',*,*,#304,.F.);
#375 = ORIENTED_EDGE('',*,*,#376,.F.);
#376 = EDGE_CURVE('',#377,#297,#379,.T.);
#377 = VERTEX_POINT('',#378);
#378 = CARTESIAN_POINT('',(0.989916984716,1.25,1.E-01));
#379 = LINE('',#380,#381);
#380 = CARTESIAN_POINT('',(0.559669328861,1.25,-0.514457332115));
#381 = VECTOR('',#382,1.);
#382 = DIRECTION('',(-0.573576436351,0.,-0.819152044289));
#383 = ORIENTED_EDGE('',*,*,#384,.F.);
#384 = EDGE_CURVE('',#385,#377,#387,.T.);
#385 = VERTEX_POINT('',#386);
#386 = CARTESIAN_POINT('',(1.27,0.85,0.5));
#387 = LINE('',#388,#389);
#388 = CARTESIAN_POINT('',(1.762602314386,0.146490986593,1.203509013407)
  );
#389 = VECTOR('',#390,1.);
#390 = DIRECTION('',(-0.44371260628,0.633687274225,-0.633687274225));
#391 = ORIENTED_EDGE('',*,*,#392,.F.);
#392 = EDGE_CURVE('',#353,#385,#393,.T.);
#393 = LINE('',#394,#395);
#394 = CARTESIAN_POINT('',(1.27,-3.963906999144E-17,0.5));
#395 = VECTOR('',#396,1.);
#396 = DIRECTION('',(1.110223024625E-16,1.,1.585562799658E-16));
#397 = PLANE('',#398);
#398 = AXIS2_PLACEMENT_3D('',#399,#400,#401);
#399 = CARTESIAN_POINT('',(1.27,-1.25,0.5));
#400 = DIRECTION('',(-0.819152044289,0.,0.573576436351));
#401 = DIRECTION('',(0.573576436351,0.,0.819152044289));
#402 = ADVANCED_FACE('',(#403),#453,.F.);
#403 = FACE_BOUND('',#404,.T.);
#404 = EDGE_LOOP('',(#405,#415,#423,#431,#437,#438,#439,#445,#446,#447)
  );
#405 = ORIENTED_EDGE('',*,*,#406,.F.);
#406 = EDGE_CURVE('',#407,#409,#411,.T.);
#407 = VERTEX_POINT('',#408);
#408 = CARTESIAN_POINT('',(-1.27,-0.85,0.5));
#409 = VERTEX_POINT('',#410);
#410 = CARTESIAN_POINT('',(-0.989916984716,-1.25,0.1));
#411 = LINE('',#412,#413);
#412 = CARTESIAN_POINT('',(-1.306375397821,-0.798050548107,
    0.551949451893));
#413 = VECTOR('',#414,1.);
#414 = DIRECTION('',(0.44371260628,-0.633687274225,-0.633687274225));
#415 = ORIENTED_EDGE('',*,*,#416,.F.);
#416 = EDGE_CURVE('',#417,#407,#419,.T.);
#417 = VERTEX_POINT('',#418);
#418 = CARTESIAN_POINT('',(-1.27,0.85,0.5));
#419 = LINE('',#420,#421);
#420 = CARTESIAN_POINT('',(-1.27,-1.25,0.5));
#421 = VECTOR('',#422,1.);
#422 = DIRECTION('',(1.110223024625E-16,-1.,-1.585562799658E-16));
#423 = ORIENTED_EDGE('',*,*,#424,.F.);
#424 = EDGE_CURVE('',#425,#417,#427,.T.);
#425 = VERTEX_POINT('',#426);
#426 = CARTESIAN_POINT('',(-0.989916984716,1.25,1.E-01));
#427 = LINE('',#428,#429);
#428 = CARTESIAN_POINT('',(-1.741650689076,0.176413008517,1.173586991483
    ));
#429 = VECTOR('',#430,1.);
#430 = DIRECTION('',(-0.44371260628,-0.633687274225,0.633687274225));
#431 = ORIENTED_EDGE('',*,*,#432,.F.);
#432 = EDGE_CURVE('',#289,#425,#433,.T.);
#433 = LINE('',#434,#435);
#434 = CARTESIAN_POINT('',(-0.977486537849,1.25,8.224748208429E-02));
#435 = VECTOR('',#436,1.);
#436 = DIRECTION('',(-0.573576436351,0.,0.819152044289));
#437 = ORIENTED_EDGE('',*,*,#288,.F.);
#438 = ORIENTED_EDGE('',*,*,#248,.F.);
#439 = ORIENTED_EDGE('',*,*,#440,.F.);
#440 = EDGE_CURVE('',#180,#249,#441,.T.);
#441 = LINE('',#442,#443);
#442 = CARTESIAN_POINT('',(-0.919896230895,-0.625,-3.469446951954E-17));
#443 = VECTOR('',#444,1.);
#444 = DIRECTION('',(0.,1.,0.));
#445 = ORIENTED_EDGE('',*,*,#177,.F.);
#446 = ORIENTED_EDGE('',*,*,#217,.F.);
#447 = ORIENTED_EDGE('',*,*,#448,.F.);
#448 = EDGE_CURVE('',#409,#218,#449,.T.);
#449 = LINE('',#450,#451);
#450 = CARTESIAN_POINT('',(-0.507153763495,-1.25,-0.589457332115));
#451 = VECTOR('',#452,1.);
#452 = DIRECTION('',(0.573576436351,0.,-0.819152044289));
#453 = PLANE('',#454);
#454 = AXIS2_PLACEMENT_3D('',#455,#456,#457);
#455 = CARTESIAN_POINT('',(-0.919896230895,-1.25,8.574786002859E-17));
#456 = DIRECTION('',(0.819152044289,0.,0.573576436351));
#457 = DIRECTION('',(0.573576436351,0.,-0.819152044289));
#458 = ADVANCED_FACE('',(#459),#484,.T.);
#459 = FACE_BOUND('',#460,.T.);
#460 = EDGE_LOOP('',(#461,#462,#470,#478));
#461 = ORIENTED_EDGE('',*,*,#392,.T.);
#462 = ORIENTED_EDGE('',*,*,#463,.T.);
#463 = EDGE_CURVE('',#385,#464,#466,.T.);
#464 = VERTEX_POINT('',#465);
#465 = CARTESIAN_POINT('',(1.27,0.85,2.));
#466 = LINE('',#467,#468);
#467 = CARTESIAN_POINT('',(1.27,0.85,1.25));
#468 = VECTOR('',#469,1.);
#469 = DIRECTION('',(0.,0.,1.));
#470 = ORIENTED_EDGE('',*,*,#471,.T.);
#471 = EDGE_CURVE('',#464,#472,#474,.T.);
#472 = VERTEX_POINT('',#473);
#473 = CARTESIAN_POINT('',(1.27,-0.85,2.));
#474 = LINE('',#475,#476);
#475 = CARTESIAN_POINT('',(1.27,9.948254670091E-17,2.));
#476 = VECTOR('',#477,1.);
#477 = DIRECTION('',(-1.110223024625E-16,-1.,1.585562799658E-16));
#478 = ORIENTED_EDGE('',*,*,#479,.T.);
#479 = EDGE_CURVE('',#472,#353,#480,.T.);
#480 = LINE('',#481,#482);
#481 = CARTESIAN_POINT('',(1.27,-0.85,1.25));
#482 = VECTOR('',#483,1.);
#483 = DIRECTION('',(0.,0.,-1.));
#484 = PLANE('',#485);
#485 = AXIS2_PLACEMENT_3D('',#486,#487,#488);
#486 = CARTESIAN_POINT('',(1.27,1.25,0.));
#487 = DIRECTION('',(1.,-1.110223024625E-16,0.));
#488 = DIRECTION('',(0.,0.,-1.));
#489 = ADVANCED_FACE('',(#490),#508,.F.);
#490 = FACE_BOUND('',#491,.T.);
#491 = EDGE_LOOP('',(#492,#493,#501,#507));
#492 = ORIENTED_EDGE('',*,*,#384,.T.);
#493 = ORIENTED_EDGE('',*,*,#494,.F.);
#494 = EDGE_CURVE('',#495,#377,#497,.T.);
#495 = VERTEX_POINT('',#496);
#496 = CARTESIAN_POINT('',(0.989916984716,1.25,2.4));
#497 = LINE('',#498,#499);
#498 = CARTESIAN_POINT('',(0.989916984716,1.25,1.25));
#499 = VECTOR('',#500,1.);
#500 = DIRECTION('',(0.,0.,-1.));
#501 = ORIENTED_EDGE('',*,*,#502,.T.);
#502 = EDGE_CURVE('',#495,#464,#503,.T.);
#503 = LINE('',#504,#505);
#504 = CARTESIAN_POINT('',(1.306375397821,0.798050548107,1.948050548107)
  );
#505 = VECTOR('',#506,1.);
#506 = DIRECTION('',(0.44371260628,-0.633687274225,-0.633687274225));
#507 = ORIENTED_EDGE('',*,*,#463,.F.);
#508 = PLANE('',#509);
#509 = AXIS2_PLACEMENT_3D('',#510,#511,#512);
#510 = CARTESIAN_POINT('',(0.989916984716,1.25,2.5));
#511 = DIRECTION('',(-0.819152044289,-0.573576436351,0.));
#512 = DIRECTION('',(0.,0.,1.));
#513 = ADVANCED_FACE('',(#514),#539,.F.);
#514 = FACE_BOUND('',#515,.T.);
#515 = EDGE_LOOP('',(#516,#517,#525,#533));
#516 = ORIENTED_EDGE('',*,*,#406,.T.);
#517 = ORIENTED_EDGE('',*,*,#518,.F.);
#518 = EDGE_CURVE('',#519,#409,#521,.T.);
#519 = VERTEX_POINT('',#520);
#520 = CARTESIAN_POINT('',(-0.989916984716,-1.25,2.4));
#521 = LINE('',#522,#523);
#522 = CARTESIAN_POINT('',(-0.989916984716,-1.25,1.25));
#523 = VECTOR('',#524,1.);
#524 = DIRECTION('',(0.,0.,-1.));
#525 = ORIENTED_EDGE('',*,*,#526,.T.);
#526 = EDGE_CURVE('',#519,#527,#529,.T.);
#527 = VERTEX_POINT('',#528);
#528 = CARTESIAN_POINT('',(-1.27,-0.85,2.));
#529 = LINE('',#530,#531);
#530 = CARTESIAN_POINT('',(-1.059664734355,-1.150389890379,
    2.300389890379));
#531 = VECTOR('',#532,1.);
#532 = DIRECTION('',(-0.44371260628,0.633687274225,-0.633687274225));
#533 = ORIENTED_EDGE('',*,*,#534,.F.);
#534 = EDGE_CURVE('',#407,#527,#535,.T.);
#535 = LINE('',#536,#537);
#536 = CARTESIAN_POINT('',(-1.27,-0.85,1.25));
#537 = VECTOR('',#538,1.);
#538 = DIRECTION('',(0.,0.,1.));
#539 = PLANE('',#540);
#540 = AXIS2_PLACEMENT_3D('',#541,#542,#543);
#541 = CARTESIAN_POINT('',(-0.989916984716,-1.25,2.5));
#542 = DIRECTION('',(0.819152044289,0.573576436351,0.));
#543 = DIRECTION('',(0.,0.,-1.));
#544 = ADVANCED_FACE('',(#545),#572,.T.);
#545 = FACE_BOUND('',#546,.T.);
#546 = EDGE_LOOP('',(#547,#555,#556,#562,#563,#564,#565,#566));
#547 = ORIENTED_EDGE('',*,*,#548,.T.);
#548 = EDGE_CURVE('',#549,#67,#551,.T.);
#549 = VERTEX_POINT('',#550);
#550 = CARTESIAN_POINT('',(-0.989916984716,1.25,2.4));
#551 = LINE('',#552,#553);
#552 = CARTESIAN_POINT('',(-1.564794425841,1.25,1.578989928337));
#553 = VECTOR('',#554,1.);
#554 = DIRECTION('',(0.573576436351,0.,0.819152044289));
#555 = ORIENTED_EDGE('',*,*,#92,.T.);
#556 = ORIENTED_EDGE('',*,*,#557,.T.);
#557 = EDGE_CURVE('',#85,#495,#558,.T.);
#558 = LINE('',#559,#560);
#559 = CARTESIAN_POINT('',(1.094461651487,1.25,2.250694742536));
#560 = VECTOR('',#561,1.);
#561 = DIRECTION('',(0.573576436351,0.,-0.819152044289));
#562 = ORIENTED_EDGE('',*,*,#494,.T.);
#563 = ORIENTED_EDGE('',*,*,#376,.T.);
#564 = ORIENTED_EDGE('',*,*,#296,.T.);
#565 = ORIENTED_EDGE('',*,*,#432,.T.);
#566 = ORIENTED_EDGE('',*,*,#567,.T.);
#567 = EDGE_CURVE('',#425,#549,#568,.T.);
#568 = LINE('',#569,#570);
#569 = CARTESIAN_POINT('',(-0.989916984716,1.25,1.25));
#570 = VECTOR('',#571,1.);
#571 = DIRECTION('',(0.,0.,1.));
#572 = PLANE('',#573);
#573 = AXIS2_PLACEMENT_3D('',#574,#575,#576);
#574 = CARTESIAN_POINT('',(-1.27,1.25,0.));
#575 = DIRECTION('',(0.,1.,0.));
#576 = DIRECTION('',(0.,-0.,1.));
#577 = ADVANCED_FACE('',(#578),#607,.F.);
#578 = FACE_BOUND('',#579,.T.);
#579 = EDGE_LOOP('',(#580,#581,#582,#583,#584,#590,#591,#592,#600,#606)
  );
#580 = ORIENTED_EDGE('',*,*,#502,.F.);
#581 = ORIENTED_EDGE('',*,*,#557,.F.);
#582 = ORIENTED_EDGE('',*,*,#84,.F.);
#583 = ORIENTED_EDGE('',*,*,#162,.F.);
#584 = ORIENTED_EDGE('',*,*,#585,.F.);
#585 = EDGE_CURVE('',#329,#155,#586,.T.);
#586 = LINE('',#587,#588);
#587 = CARTESIAN_POINT('',(0.919896230895,-0.625,2.5));
#588 = VECTOR('',#589,1.);
#589 = DIRECTION('',(0.,1.,0.));
#590 = ORIENTED_EDGE('',*,*,#328,.F.);
#591 = ORIENTED_EDGE('',*,*,#124,.F.);
#592 = ORIENTED_EDGE('',*,*,#593,.F.);
#593 = EDGE_CURVE('',#594,#117,#596,.T.);
#594 = VERTEX_POINT('',#595);
#595 = CARTESIAN_POINT('',(0.989916984716,-1.25,2.4));
#596 = LINE('',#597,#598);
#597 = CARTESIAN_POINT('',(1.512278860475,-1.25,1.653989928337));
#598 = VECTOR('',#599,1.);
#599 = DIRECTION('',(-0.573576436351,0.,0.819152044289));
#600 = ORIENTED_EDGE('',*,*,#601,.F.);
#601 = EDGE_CURVE('',#472,#594,#602,.T.);
#602 = LINE('',#603,#604);
#603 = CARTESIAN_POINT('',(1.038713109045,-1.180311912303,2.330311912303
    ));
#604 = VECTOR('',#605,1.);
#605 = DIRECTION('',(-0.44371260628,-0.633687274225,0.633687274225));
#606 = ORIENTED_EDGE('',*,*,#471,.F.);
#607 = PLANE('',#608);
#608 = AXIS2_PLACEMENT_3D('',#609,#610,#611);
#609 = CARTESIAN_POINT('',(0.919896230895,-1.25,2.5));
#610 = DIRECTION('',(-0.819152044289,0.,-0.573576436351));
#611 = DIRECTION('',(-0.573576436351,0.,0.819152044289));
#612 = ADVANCED_FACE('',(#613),#624,.F.);
#613 = FACE_BOUND('',#614,.T.);
#614 = EDGE_LOOP('',(#615,#616,#617,#618));
#615 = ORIENTED_EDGE('',*,*,#350,.T.);
#616 = ORIENTED_EDGE('',*,*,#479,.F.);
#617 = ORIENTED_EDGE('',*,*,#601,.T.);
#618 = ORIENTED_EDGE('',*,*,#619,.F.);
#619 = EDGE_CURVE('',#351,#594,#620,.T.);
#620 = LINE('',#621,#622);
#621 = CARTESIAN_POINT('',(0.989916984716,-1.25,1.25));
#622 = VECTOR('',#623,1.);
#623 = DIRECTION('',(0.,0.,1.));
#624 = PLANE('',#625);
#625 = AXIS2_PLACEMENT_3D('',#626,#627,#628);
#626 = CARTESIAN_POINT('',(1.27,-0.85,2.5));
#627 = DIRECTION('',(-0.819152044289,0.573576436351,0.));
#628 = DIRECTION('',(0.,0.,1.));
#629 = ADVANCED_FACE('',(#630),#645,.T.);
#630 = FACE_BOUND('',#631,.T.);
#631 = EDGE_LOOP('',(#632,#638,#639,#640,#641,#642,#643,#644));
#632 = ORIENTED_EDGE('',*,*,#633,.T.);
#633 = EDGE_CURVE('',#109,#519,#634,.T.);
#634 = LINE('',#635,#636);
#635 = CARTESIAN_POINT('',(-1.322029101405,-1.25,1.925694742536));
#636 = VECTOR('',#637,1.);
#637 = DIRECTION('',(-0.573576436351,0.,-0.819152044289));
#638 = ORIENTED_EDGE('',*,*,#518,.T.);
#639 = ORIENTED_EDGE('',*,*,#448,.T.);
#640 = ORIENTED_EDGE('',*,*,#234,.T.);
#641 = ORIENTED_EDGE('',*,*,#360,.T.);
#642 = ORIENTED_EDGE('',*,*,#619,.T.);
#643 = ORIENTED_EDGE('',*,*,#593,.T.);
#644 = ORIENTED_EDGE('',*,*,#116,.T.);
#645 = PLANE('',#646);
#646 = AXIS2_PLACEMENT_3D('',#647,#648,#649);
#647 = CARTESIAN_POINT('',(1.27,-1.25,0.));
#648 = DIRECTION('',(0.,-1.,0.));
#649 = DIRECTION('',(0.,0.,-1.));
#650 = ADVANCED_FACE('',(#651),#680,.F.);
#651 = FACE_BOUND('',#652,.T.);
#652 = EDGE_LOOP('',(#653,#654,#662,#668,#669,#670,#671,#672,#678,#679)
  );
#653 = ORIENTED_EDGE('',*,*,#548,.F.);
#654 = ORIENTED_EDGE('',*,*,#655,.F.);
#655 = EDGE_CURVE('',#656,#549,#658,.T.);
#656 = VERTEX_POINT('',#657);
#657 = CARTESIAN_POINT('',(-1.27,0.85,2.));
#658 = LINE('',#659,#660);
#659 = CARTESIAN_POINT('',(-1.49494002561,0.528752350789,1.678752350789)
  );
#660 = VECTOR('',#661,1.);
#661 = DIRECTION('',(0.44371260628,0.633687274225,0.633687274225));
#662 = ORIENTED_EDGE('',*,*,#663,.F.);
#663 = EDGE_CURVE('',#527,#656,#664,.T.);
#664 = LINE('',#665,#666);
#665 = CARTESIAN_POINT('',(-1.27,-1.25,2.));
#666 = VECTOR('',#667,1.);
#667 = DIRECTION('',(-1.110223024625E-16,1.,-1.585562799658E-16));
#668 = ORIENTED_EDGE('',*,*,#526,.F.);
#669 = ORIENTED_EDGE('',*,*,#633,.F.);
#670 = ORIENTED_EDGE('',*,*,#106,.F.);
#671 = ORIENTED_EDGE('',*,*,#319,.F.);
#672 = ORIENTED_EDGE('',*,*,#673,.F.);
#673 = EDGE_CURVE('',#147,#320,#674,.T.);
#674 = LINE('',#675,#676);
#675 = CARTESIAN_POINT('',(-0.919896230895,-0.625,2.5));
#676 = VECTOR('',#677,1.);
#677 = DIRECTION('',(0.,-1.,0.));
#678 = ORIENTED_EDGE('',*,*,#146,.F.);
#679 = ORIENTED_EDGE('',*,*,#66,.F.);
#680 = PLANE('',#681);
#681 = AXIS2_PLACEMENT_3D('',#682,#683,#684);
#682 = CARTESIAN_POINT('',(-1.27,-1.25,2.));
#683 = DIRECTION('',(0.819152044289,0.,-0.573576436351));
#684 = DIRECTION('',(-0.573576436351,0.,-0.819152044289));
#685 = ADVANCED_FACE('',(#686,#692),#726,.T.);
#686 = FACE_BOUND('',#687,.T.);
#687 = EDGE_LOOP('',(#688,#689,#690,#691));
#688 = ORIENTED_EDGE('',*,*,#154,.T.);
#689 = ORIENTED_EDGE('',*,*,#673,.T.);
#690 = ORIENTED_EDGE('',*,*,#336,.T.);
#691 = ORIENTED_EDGE('',*,*,#585,.T.);
#692 = FACE_BOUND('',#693,.T.);
#693 = EDGE_LOOP('',(#694,#704,#712,#720));
#694 = ORIENTED_EDGE('',*,*,#695,.F.);
#695 = EDGE_CURVE('',#696,#698,#700,.T.);
#696 = VERTEX_POINT('',#697);
#697 = CARTESIAN_POINT('',(-0.515,0.5075,2.5));
#698 = VERTEX_POINT('',#699);
#699 = CARTESIAN_POINT('',(-0.515,-0.5075,2.5));
#700 = LINE('',#701,#702);
#701 = CARTESIAN_POINT('',(-0.515,7.6875E-02,2.5));
#702 = VECTOR('',#703,1.);
#703 = DIRECTION('',(0.,-1.,0.));
#704 = ORIENTED_EDGE('',*,*,#705,.F.);
#705 = EDGE_CURVE('',#706,#696,#708,.T.);
#706 = VERTEX_POINT('',#707);
#707 = CARTESIAN_POINT('',(0.515,0.5075,2.5));
#708 = LINE('',#709,#710);
#709 = CARTESIAN_POINT('',(0.1575,0.5075,2.5));
#710 = VECTOR('',#711,1.);
#711 = DIRECTION('',(-1.,7.159176250063E-16,0.));
#712 = ORIENTED_EDGE('',*,*,#713,.F.);
#713 = EDGE_CURVE('',#714,#706,#716,.T.);
#714 = VERTEX_POINT('',#715);
#715 = CARTESIAN_POINT('',(0.515,-0.5075,2.5));
#716 = LINE('',#717,#718);
#717 = CARTESIAN_POINT('',(0.515,-0.15375,2.5));
#718 = VECTOR('',#719,1.);
#719 = DIRECTION('',(-2.256550863059E-16,1.,0.));
#720 = ORIENTED_EDGE('',*,*,#721,.F.);
#721 = EDGE_CURVE('',#698,#714,#722,.T.);
#722 = LINE('',#723,#724);
#723 = CARTESIAN_POINT('',(-0.1575,-0.5075,2.5));
#724 = VECTOR('',#725,1.);
#725 = DIRECTION('',(1.,-7.709882115452E-16,0.));
#726 = PLANE('',#727);
#727 = AXIS2_PLACEMENT_3D('',#728,#729,#730);
#728 = CARTESIAN_POINT('',(0.,5.061487544625E-17,2.5));
#729 = DIRECTION('',(0.,0.,1.));
#730 = DIRECTION('',(1.,0.,-0.));
#731 = ADVANCED_FACE('',(#732),#766,.T.);
#732 = FACE_BOUND('',#733,.T.);
#733 = EDGE_LOOP('',(#734,#744,#752,#760));
#734 = ORIENTED_EDGE('',*,*,#735,.T.);
#735 = EDGE_CURVE('',#736,#738,#740,.T.);
#736 = VERTEX_POINT('',#737);
#737 = CARTESIAN_POINT('',(0.315,0.3075,0.2));
#738 = VERTEX_POINT('',#739);
#739 = CARTESIAN_POINT('',(-0.315,0.3075,0.2));
#740 = LINE('',#741,#742);
#741 = CARTESIAN_POINT('',(0.1575,0.3075,0.2));
#742 = VECTOR('',#743,1.);
#743 = DIRECTION('',(-1.,7.159176250063E-16,0.));
#744 = ORIENTED_EDGE('',*,*,#745,.T.);
#745 = EDGE_CURVE('',#738,#746,#748,.T.);
#746 = VERTEX_POINT('',#747);
#747 = CARTESIAN_POINT('',(-0.515,0.5075,0.));
#748 = LINE('',#749,#750);
#749 = CARTESIAN_POINT('',(-0.315,0.3075,0.2));
#750 = VECTOR('',#751,1.);
#751 = DIRECTION('',(-0.57735026919,0.57735026919,-0.57735026919));
#752 = ORIENTED_EDGE('',*,*,#753,.T.);
#753 = EDGE_CURVE('',#746,#754,#756,.T.);
#754 = VERTEX_POINT('',#755);
#755 = CARTESIAN_POINT('',(0.515,0.5075,0.));
#756 = LINE('',#757,#758);
#757 = CARTESIAN_POINT('',(0.1575,0.5075,0.));
#758 = VECTOR('',#759,1.);
#759 = DIRECTION('',(1.,-7.159176250063E-16,0.));
#760 = ORIENTED_EDGE('',*,*,#761,.T.);
#761 = EDGE_CURVE('',#754,#736,#762,.T.);
#762 = LINE('',#763,#764);
#763 = CARTESIAN_POINT('',(0.515,0.5075,0.));
#764 = VECTOR('',#765,1.);
#765 = DIRECTION('',(-0.57735026919,-0.57735026919,0.57735026919));
#766 = PLANE('',#767);
#767 = AXIS2_PLACEMENT_3D('',#768,#769,#770);
#768 = CARTESIAN_POINT('',(0.1575,0.4075,0.1));
#769 = DIRECTION('',(-5.062302074129E-16,-0.707106781187,-0.707106781187
    ));
#770 = DIRECTION('',(-1.,-2.958228394579E-31,7.159176250063E-16));
#771 = ADVANCED_FACE('',(#772),#797,.T.);
#772 = FACE_BOUND('',#773,.T.);
#773 = EDGE_LOOP('',(#774,#782,#783,#791));
#774 = ORIENTED_EDGE('',*,*,#775,.T.);
#775 = EDGE_CURVE('',#776,#736,#778,.T.);
#776 = VERTEX_POINT('',#777);
#777 = CARTESIAN_POINT('',(0.315,-0.3075,0.2));
#778 = LINE('',#779,#780);
#779 = CARTESIAN_POINT('',(0.315,-0.15375,0.2));
#780 = VECTOR('',#781,1.);
#781 = DIRECTION('',(-2.256550863059E-16,1.,0.));
#782 = ORIENTED_EDGE('',*,*,#761,.F.);
#783 = ORIENTED_EDGE('',*,*,#784,.T.);
#784 = EDGE_CURVE('',#754,#785,#787,.T.);
#785 = VERTEX_POINT('',#786);
#786 = CARTESIAN_POINT('',(0.515,-0.5075,0.));
#787 = LINE('',#788,#789);
#788 = CARTESIAN_POINT('',(0.515,-0.15375,0.));
#789 = VECTOR('',#790,1.);
#790 = DIRECTION('',(2.256550863059E-16,-1.,0.));
#791 = ORIENTED_EDGE('',*,*,#792,.F.);
#792 = EDGE_CURVE('',#776,#785,#793,.T.);
#793 = LINE('',#794,#795);
#794 = CARTESIAN_POINT('',(0.315,-0.3075,0.2));
#795 = VECTOR('',#796,1.);
#796 = DIRECTION('',(0.57735026919,-0.57735026919,-0.57735026919));
#797 = PLANE('',#798);
#798 = AXIS2_PLACEMENT_3D('',#799,#800,#801);
#799 = CARTESIAN_POINT('',(0.415,-0.15375,0.1));
#800 = DIRECTION('',(-0.707106781187,-1.595622417362E-16,-0.707106781187
    ));
#801 = DIRECTION('',(-0.707106781187,-1.232595164408E-32,0.707106781187)
  );
#802 = ADVANCED_FACE('',(#803),#828,.T.);
#803 = FACE_BOUND('',#804,.T.);
#804 = EDGE_LOOP('',(#805,#813,#821,#827));
#805 = ORIENTED_EDGE('',*,*,#806,.T.);
#806 = EDGE_CURVE('',#738,#807,#809,.T.);
#807 = VERTEX_POINT('',#808);
#808 = CARTESIAN_POINT('',(-0.315,-0.3075,0.2));
#809 = LINE('',#810,#811);
#810 = CARTESIAN_POINT('',(-0.315,0.15375,0.2));
#811 = VECTOR('',#812,1.);
#812 = DIRECTION('',(0.,-1.,0.));
#813 = ORIENTED_EDGE('',*,*,#814,.T.);
#814 = EDGE_CURVE('',#807,#815,#817,.T.);
#815 = VERTEX_POINT('',#816);
#816 = CARTESIAN_POINT('',(-0.515,-0.5075,0.));
#817 = LINE('',#818,#819);
#818 = CARTESIAN_POINT('',(-0.315,-0.3075,0.2));
#819 = VECTOR('',#820,1.);
#820 = DIRECTION('',(-0.57735026919,-0.57735026919,-0.57735026919));
#821 = ORIENTED_EDGE('',*,*,#822,.T.);
#822 = EDGE_CURVE('',#815,#746,#823,.T.);
#823 = LINE('',#824,#825);
#824 = CARTESIAN_POINT('',(-0.515,0.15375,0.));
#825 = VECTOR('',#826,1.);
#826 = DIRECTION('',(0.,1.,0.));
#827 = ORIENTED_EDGE('',*,*,#745,.F.);
#828 = PLANE('',#829);
#829 = AXIS2_PLACEMENT_3D('',#830,#831,#832);
#830 = CARTESIAN_POINT('',(-0.415,0.15375,0.1));
#831 = DIRECTION('',(0.707106781187,0.,-0.707106781187));
#832 = DIRECTION('',(-0.707106781187,0.,-0.707106781187));
#833 = ADVANCED_FACE('',(#834),#850,.T.);
#834 = FACE_BOUND('',#835,.T.);
#835 = EDGE_LOOP('',(#836,#842,#843,#849));
#836 = ORIENTED_EDGE('',*,*,#837,.T.);
#837 = EDGE_CURVE('',#807,#776,#838,.T.);
#838 = LINE('',#839,#840);
#839 = CARTESIAN_POINT('',(-0.1575,-0.3075,0.2));
#840 = VECTOR('',#841,1.);
#841 = DIRECTION('',(1.,-7.709882115452E-16,0.));
#842 = ORIENTED_EDGE('',*,*,#792,.T.);
#843 = ORIENTED_EDGE('',*,*,#844,.T.);
#844 = EDGE_CURVE('',#785,#815,#845,.T.);
#845 = LINE('',#846,#847);
#846 = CARTESIAN_POINT('',(-0.1575,-0.5075,0.));
#847 = VECTOR('',#848,1.);
#848 = DIRECTION('',(-1.,7.709882115452E-16,0.));
#849 = ORIENTED_EDGE('',*,*,#814,.F.);
#850 = PLANE('',#851);
#851 = AXIS2_PLACEMENT_3D('',#852,#853,#854);
#852 = CARTESIAN_POINT('',(-0.1575,-0.4075,0.1));
#853 = DIRECTION('',(5.451709925985E-16,0.707106781187,-0.707106781187)
  );
#854 = DIRECTION('',(-1.,1.479114197289E-31,-7.709882115452E-16));
#855 = ADVANCED_FACE('',(#856),#881,.F.);
#856 = FACE_BOUND('',#857,.T.);
#857 = EDGE_LOOP('',(#858,#859,#867,#875));
#858 = ORIENTED_EDGE('',*,*,#806,.F.);
#859 = ORIENTED_EDGE('',*,*,#860,.F.);
#860 = EDGE_CURVE('',#861,#738,#863,.T.);
#861 = VERTEX_POINT('',#862);
#862 = CARTESIAN_POINT('',(-0.315,0.3075,2.3));
#863 = LINE('',#864,#865);
#864 = CARTESIAN_POINT('',(-0.315,0.3075,2.5));
#865 = VECTOR('',#866,1.);
#866 = DIRECTION('',(0.,0.,-1.));
#867 = ORIENTED_EDGE('',*,*,#868,.F.);
#868 = EDGE_CURVE('',#869,#861,#871,.T.);
#869 = VERTEX_POINT('',#870);
#870 = CARTESIAN_POINT('',(-0.315,-0.3075,2.3));
#871 = LINE('',#872,#873);
#872 = CARTESIAN_POINT('',(-0.315,0.15375,2.3));
#873 = VECTOR('',#874,1.);
#874 = DIRECTION('',(0.,1.,0.));
#875 = ORIENTED_EDGE('',*,*,#876,.T.);
#876 = EDGE_CURVE('',#869,#807,#877,.T.);
#877 = LINE('',#878,#879);
#878 = CARTESIAN_POINT('',(-0.315,-0.3075,2.5));
#879 = VECTOR('',#880,1.);
#880 = DIRECTION('',(0.,0.,-1.));
#881 = PLANE('',#882);
#882 = AXIS2_PLACEMENT_3D('',#883,#884,#885);
#883 = CARTESIAN_POINT('',(-0.315,0.3075,2.5));
#884 = DIRECTION('',(-1.,0.,0.));
#885 = DIRECTION('',(0.,0.,1.));
#886 = ADVANCED_FACE('',(#887),#905,.F.);
#887 = FACE_BOUND('',#888,.T.);
#888 = EDGE_LOOP('',(#889,#890,#898,#904));
#889 = ORIENTED_EDGE('',*,*,#735,.F.);
#890 = ORIENTED_EDGE('',*,*,#891,.F.);
#891 = EDGE_CURVE('',#892,#736,#894,.T.);
#892 = VERTEX_POINT('',#893);
#893 = CARTESIAN_POINT('',(0.315,0.3075,2.3));
#894 = LINE('',#895,#896);
#895 = CARTESIAN_POINT('',(0.315,0.3075,2.5));
#896 = VECTOR('',#897,1.);
#897 = DIRECTION('',(0.,0.,-1.));
#898 = ORIENTED_EDGE('',*,*,#899,.F.);
#899 = EDGE_CURVE('',#861,#892,#900,.T.);
#900 = LINE('',#901,#902);
#901 = CARTESIAN_POINT('',(0.1575,0.3075,2.3));
#902 = VECTOR('',#903,1.);
#903 = DIRECTION('',(1.,-7.159176250063E-16,0.));
#904 = ORIENTED_EDGE('',*,*,#860,.T.);
#905 = PLANE('',#906);
#906 = AXIS2_PLACEMENT_3D('',#907,#908,#909);
#907 = CARTESIAN_POINT('',(0.315,0.3075,2.5));
#908 = DIRECTION('',(7.159176250063E-16,1.,0.));
#909 = DIRECTION('',(0.,-0.,1.));
#910 = ADVANCED_FACE('',(#911,#917),#923,.F.);
#911 = FACE_BOUND('',#912,.T.);
#912 = EDGE_LOOP('',(#913,#914,#915,#916));
#913 = ORIENTED_EDGE('',*,*,#274,.T.);
#914 = ORIENTED_EDGE('',*,*,#368,.T.);
#915 = ORIENTED_EDGE('',*,*,#187,.T.);
#916 = ORIENTED_EDGE('',*,*,#440,.T.);
#917 = FACE_BOUND('',#918,.T.);
#918 = EDGE_LOOP('',(#919,#920,#921,#922));
#919 = ORIENTED_EDGE('',*,*,#753,.F.);
#920 = ORIENTED_EDGE('',*,*,#822,.F.);
#921 = ORIENTED_EDGE('',*,*,#844,.F.);
#922 = ORIENTED_EDGE('',*,*,#784,.F.);
#923 = PLANE('',#924);
#924 = AXIS2_PLACEMENT_3D('',#925,#926,#927);
#925 = CARTESIAN_POINT('',(0.,8.816300263189E-17,0.));
#926 = DIRECTION('',(0.,0.,1.));
#927 = DIRECTION('',(1.,0.,-0.));
#928 = ADVANCED_FACE('',(#929),#952,.T.);
#929 = FACE_BOUND('',#930,.T.);
#930 = EDGE_LOOP('',(#931,#937,#938,#946));
#931 = ORIENTED_EDGE('',*,*,#932,.F.);
#932 = EDGE_CURVE('',#698,#869,#933,.T.);
#933 = LINE('',#934,#935);
#934 = CARTESIAN_POINT('',(-0.278541666667,-0.271041666667,
    2.263541666667));
#935 = VECTOR('',#936,1.);
#936 = DIRECTION('',(0.57735026919,0.57735026919,-0.57735026919));
#937 = ORIENTED_EDGE('',*,*,#721,.T.);
#938 = ORIENTED_EDGE('',*,*,#939,.T.);
#939 = EDGE_CURVE('',#714,#940,#942,.T.);
#940 = VERTEX_POINT('',#941);
#941 = CARTESIAN_POINT('',(0.315,-0.3075,2.3));
#942 = LINE('',#943,#944);
#943 = CARTESIAN_POINT('',(0.515,-0.5075,2.5));
#944 = VECTOR('',#945,1.);
#945 = DIRECTION('',(-0.57735026919,0.57735026919,-0.57735026919));
#946 = ORIENTED_EDGE('',*,*,#947,.T.);
#947 = EDGE_CURVE('',#940,#869,#948,.T.);
#948 = LINE('',#949,#950);
#949 = CARTESIAN_POINT('',(-0.1575,-0.3075,2.3));
#950 = VECTOR('',#951,1.);
#951 = DIRECTION('',(-1.,7.709882115452E-16,0.));
#952 = PLANE('',#953);
#953 = AXIS2_PLACEMENT_3D('',#954,#955,#956);
#954 = CARTESIAN_POINT('',(-0.1575,-0.4075,2.4));
#955 = DIRECTION('',(5.451709925985E-16,0.707106781187,0.707106781187));
#956 = DIRECTION('',(1.,-1.479114197289E-31,-7.709882115452E-16));
#957 = ADVANCED_FACE('',(#958),#974,.T.);
#958 = FACE_BOUND('',#959,.T.);
#959 = EDGE_LOOP('',(#960,#966,#967,#973));
#960 = ORIENTED_EDGE('',*,*,#961,.F.);
#961 = EDGE_CURVE('',#861,#696,#962,.T.);
#962 = LINE('',#963,#964);
#963 = CARTESIAN_POINT('',(-0.277291666667,0.269791666667,2.262291666667
    ));
#964 = VECTOR('',#965,1.);
#965 = DIRECTION('',(-0.57735026919,0.57735026919,0.57735026919));
#966 = ORIENTED_EDGE('',*,*,#899,.T.);
#967 = ORIENTED_EDGE('',*,*,#968,.T.);
#968 = EDGE_CURVE('',#892,#706,#969,.T.);
#969 = LINE('',#970,#971);
#970 = CARTESIAN_POINT('',(0.315,0.3075,2.3));
#971 = VECTOR('',#972,1.);
#972 = DIRECTION('',(0.57735026919,0.57735026919,0.57735026919));
#973 = ORIENTED_EDGE('',*,*,#705,.T.);
#974 = PLANE('',#975);
#975 = AXIS2_PLACEMENT_3D('',#976,#977,#978);
#976 = CARTESIAN_POINT('',(0.1575,0.4075,2.4));
#977 = DIRECTION('',(-5.062302074129E-16,-0.707106781187,0.707106781187)
  );
#978 = DIRECTION('',(1.,-2.958228394579E-31,7.159176250063E-16));
#979 = ADVANCED_FACE('',(#980),#991,.T.);
#980 = FACE_BOUND('',#981,.T.);
#981 = EDGE_LOOP('',(#982,#988,#989,#990));
#982 = ORIENTED_EDGE('',*,*,#983,.T.);
#983 = EDGE_CURVE('',#892,#940,#984,.T.);
#984 = LINE('',#985,#986);
#985 = CARTESIAN_POINT('',(0.315,-0.15375,2.3));
#986 = VECTOR('',#987,1.);
#987 = DIRECTION('',(2.256550863059E-16,-1.,0.));
#988 = ORIENTED_EDGE('',*,*,#939,.F.);
#989 = ORIENTED_EDGE('',*,*,#713,.T.);
#990 = ORIENTED_EDGE('',*,*,#968,.F.);
#991 = PLANE('',#992);
#992 = AXIS2_PLACEMENT_3D('',#993,#994,#995);
#993 = CARTESIAN_POINT('',(0.415,-0.15375,2.4));
#994 = DIRECTION('',(-0.707106781187,-1.595622417362E-16,0.707106781187)
  );
#995 = DIRECTION('',(0.707106781187,1.232595164408E-32,0.707106781187));
#996 = ADVANCED_FACE('',(#997),#1008,.F.);
#997 = FACE_BOUND('',#998,.T.);
#998 = EDGE_LOOP('',(#999,#1000,#1001,#1002));
#999 = ORIENTED_EDGE('',*,*,#837,.F.);
#1000 = ORIENTED_EDGE('',*,*,#876,.F.);
#1001 = ORIENTED_EDGE('',*,*,#947,.F.);
#1002 = ORIENTED_EDGE('',*,*,#1003,.T.);
#1003 = EDGE_CURVE('',#940,#776,#1004,.T.);
#1004 = LINE('',#1005,#1006);
#1005 = CARTESIAN_POINT('',(0.315,-0.3075,2.5));
#1006 = VECTOR('',#1007,1.);
#1007 = DIRECTION('',(0.,0.,-1.));
#1008 = PLANE('',#1009);
#1009 = AXIS2_PLACEMENT_3D('',#1010,#1011,#1012);
#1010 = CARTESIAN_POINT('',(-0.315,-0.3075,2.5));
#1011 = DIRECTION('',(-7.709882115452E-16,-1.,0.));
#1012 = DIRECTION('',(-0.,0.,-1.));
#1013 = ADVANCED_FACE('',(#1014),#1020,.F.);
#1014 = FACE_BOUND('',#1015,.T.);
#1015 = EDGE_LOOP('',(#1016,#1017,#1018,#1019));
#1016 = ORIENTED_EDGE('',*,*,#775,.F.);
#1017 = ORIENTED_EDGE('',*,*,#1003,.F.);
#1018 = ORIENTED_EDGE('',*,*,#983,.F.);
#1019 = ORIENTED_EDGE('',*,*,#891,.T.);
#1020 = PLANE('',#1021);
#1021 = AXIS2_PLACEMENT_3D('',#1022,#1023,#1024);
#1022 = CARTESIAN_POINT('',(0.315,-0.3075,2.5));
#1023 = DIRECTION('',(1.,2.256550863059E-16,0.));
#1024 = DIRECTION('',(0.,0.,-1.));
#1025 = ADVANCED_FACE('',(#1026),#1032,.T.);
#1026 = FACE_BOUND('',#1027,.T.);
#1027 = EDGE_LOOP('',(#1028,#1029,#1030,#1031));
#1028 = ORIENTED_EDGE('',*,*,#868,.T.);
#1029 = ORIENTED_EDGE('',*,*,#961,.T.);
#1030 = ORIENTED_EDGE('',*,*,#695,.T.);
#1031 = ORIENTED_EDGE('',*,*,#932,.T.);
#1032 = PLANE('',#1033);
#1033 = AXIS2_PLACEMENT_3D('',#1034,#1035,#1036);
#1034 = CARTESIAN_POINT('',(-0.415,0.15375,2.4));
#1035 = DIRECTION('',(0.707106781187,0.,0.707106781187));
#1036 = DIRECTION('',(0.707106781187,0.,-0.707106781187));
#1037 = ADVANCED_FACE('',(#1038),#1049,.F.);
#1038 = FACE_BOUND('',#1039,.T.);
#1039 = EDGE_LOOP('',(#1040,#1041,#1047,#1048));
#1040 = ORIENTED_EDGE('',*,*,#424,.T.);
#1041 = ORIENTED_EDGE('',*,*,#1042,.F.);
#1042 = EDGE_CURVE('',#656,#417,#1043,.T.);
#1043 = LINE('',#1044,#1045);
#1044 = CARTESIAN_POINT('',(-1.27,0.85,1.25));
#1045 = VECTOR('',#1046,1.);
#1046 = DIRECTION('',(0.,0.,-1.));
#1047 = ORIENTED_EDGE('',*,*,#655,.T.);
#1048 = ORIENTED_EDGE('',*,*,#567,.F.);
#1049 = PLANE('',#1050);
#1050 = AXIS2_PLACEMENT_3D('',#1051,#1052,#1053);
#1051 = CARTESIAN_POINT('',(-1.27,0.85,2.5));
#1052 = DIRECTION('',(0.819152044289,-0.573576436351,0.));
#1053 = DIRECTION('',(0.,0.,-1.));
#1054 = ADVANCED_FACE('',(#1055),#1061,.T.);
#1055 = FACE_BOUND('',#1056,.T.);
#1056 = EDGE_LOOP('',(#1057,#1058,#1059,#1060));
#1057 = ORIENTED_EDGE('',*,*,#416,.T.);
#1058 = ORIENTED_EDGE('',*,*,#534,.T.);
#1059 = ORIENTED_EDGE('',*,*,#663,.T.);
#1060 = ORIENTED_EDGE('',*,*,#1042,.T.);
#1061 = PLANE('',#1062);
#1062 = AXIS2_PLACEMENT_3D('',#1063,#1064,#1065);
#1063 = CARTESIAN_POINT('',(-1.27,-1.25,0.));
#1064 = DIRECTION('',(-1.,-1.110223024625E-16,0.));
#1065 = DIRECTION('',(0.,0.,1.));
#1066 = ( GEOMETRIC_REPRESENTATION_CONTEXT(3) 
GLOBAL_UNCERTAINTY_ASSIGNED_CONTEXT((#1070)) 
GLOBAL_UNIT_ASSIGNED_CONTEXT((#1067,#1068,#1069)) REPRESENTATION_CONTEXT
('Context #1','3D Context with UNIT and UNCERTAINTY') );
#1067 = ( LENGTH_UNIT() NAMED_UNIT(*) SI_UNIT(.MILLI.,.METRE.) );
#1068 = ( NAMED_UNIT(*) PLANE_ANGLE_UNIT() SI_UNIT($,.RADIAN.) );
#1069 = ( NAMED_UNIT(*) SI_UNIT($,.STERADIAN.) SOLID_ANGLE_UNIT() );
#1070 = UNCERTAINTY_MEASURE_WITH_UNIT(LENGTH_MEASURE(1.E-07),#1067,
  'distance_accuracy_value','confusion accuracy');
#1071 = CONTEXT_DEPENDENT_SHAPE_REPRESENTATION(#1072,#1074);
#1072 = ( REPRESENTATION_RELATIONSHIP('','',#59,#32) 
REPRESENTATION_RELATIONSHIP_WITH_TRANSFORMATION(#1073) 
SHAPE_REPRESENTATION_RELATIONSHIP() );
#1073 = ITEM_DEFINED_TRANSFORMATION('','',#11,#33);
#1074 = PRODUCT_DEFINITION_SHAPE('Placement','Placement of an item',
  #1075);
#1075 = NEXT_ASSEMBLY_USAGE_OCCURRENCE('1','F1000S1120M007B','',#27,#54,
  $);
#1076 = PRODUCT_RELATED_PRODUCT_CATEGORY('part',$,(#56));
#1077 = SHAPE_DEFINITION_REPRESENTATION(#1078,#1084);
#1078 = PRODUCT_DEFINITION_SHAPE('','',#1079);
#1079 = PRODUCT_DEFINITION('design','',#1080,#1083);
#1080 = PRODUCT_DEFINITION_FORMATION('','',#1081);
#1081 = PRODUCT('1039931_IAM_000','1039931_IAM_000','',(#1082));
#1082 = PRODUCT_CONTEXT('',#2,'mechanical');
#1083 = PRODUCT_DEFINITION_CONTEXT('part definition',#2,'design');
#1084 = SHAPE_REPRESENTATION('',(#11,#1085,#1089),#1093);
#1085 = AXIS2_PLACEMENT_3D('',#1086,#1087,#1088);
#1086 = CARTESIAN_POINT('',(0.,0.,0.));
#1087 = DIRECTION('',(0.,0.,1.));
#1088 = DIRECTION('',(1.,0.,0.));
#1089 = AXIS2_PLACEMENT_3D('',#1090,#1091,#1092);
#1090 = CARTESIAN_POINT('',(-4.51028103754E-16,0.574523821802,0.));
#1091 = DIRECTION('',(0.,0.,-1.));
#1092 = DIRECTION('',(1.,0.,0.));
#1093 = ( GEOMETRIC_REPRESENTATION_CONTEXT(3) 
GLOBAL_UNCERTAINTY_ASSIGNED_CONTEXT((#1097)) 
GLOBAL_UNIT_ASSIGNED_CONTEXT((#1094,#1095,#1096)) REPRESENTATION_CONTEXT
('Context #1','3D Context with UNIT and UNCERTAINTY') );
#1094 = ( LENGTH_UNIT() NAMED_UNIT(*) SI_UNIT(.MILLI.,.METRE.) );
#1095 = ( NAMED_UNIT(*) PLANE_ANGLE_UNIT() SI_UNIT($,.RADIAN.) );
#1096 = ( NAMED_UNIT(*) SI_UNIT($,.STERADIAN.) SOLID_ANGLE_UNIT() );
#1097 = UNCERTAINTY_MEASURE_WITH_UNIT(LENGTH_MEASURE(1.E-07),#1094,
  'distance_accuracy_value','confusion accuracy');
#1098 = CONTEXT_DEPENDENT_SHAPE_REPRESENTATION(#1099,#1101);
#1099 = ( REPRESENTATION_RELATIONSHIP('','',#1084,#32) 
REPRESENTATION_RELATIONSHIP_WITH_TRANSFORMATION(#1100) 
SHAPE_REPRESENTATION_RELATIONSHIP() );
#1100 = ITEM_DEFINED_TRANSFORMATION('','',#11,#37);
#1101 = PRODUCT_DEFINITION_SHAPE('Placement','Placement of an item',
  #1102);
#1102 = NEXT_ASSEMBLY_USAGE_OCCURRENCE('4','1039931_IAM_000','',#27,
  #1079,$);
#1103 = PRODUCT_RELATED_PRODUCT_CATEGORY('part',$,(#1081));
#1104 = SHAPE_DEFINITION_REPRESENTATION(#1105,#1111);
#1105 = PRODUCT_DEFINITION_SHAPE('','',#1106);
#1106 = PRODUCT_DEFINITION('design','',#1107,#1110);
#1107 = PRODUCT_DEFINITION_FORMATION('','',#1108);
#1108 = PRODUCT('1039929_IPT_000','1039929_IPT_000','',(#1109));
#1109 = PRODUCT_CONTEXT('',#2,'mechanical');
#1110 = PRODUCT_DEFINITION_CONTEXT('part definition',#2,'design');
#1111 = ADVANCED_BREP_SHAPE_REPRESENTATION('',(#11,#1112),#1526);
#1112 = MANIFOLD_SOLID_BREP('',#1113);
#1113 = CLOSED_SHELL('',(#1114,#1162,#1193,#1233,#1273,#1312,#1352,#1376
    ,#1408,#1439,#1464,#1481,#1502,#1514));
#1114 = ADVANCED_FACE('',(#1115),#1157,.T.);
#1115 = FACE_BOUND('',#1116,.T.);
#1116 = EDGE_LOOP('',(#1117,#1127,#1135,#1143,#1151));
#1117 = ORIENTED_EDGE('',*,*,#1118,.T.);
#1118 = EDGE_CURVE('',#1119,#1121,#1123,.T.);
#1119 = VERTEX_POINT('',#1120);
#1120 = CARTESIAN_POINT('',(-0.327579365079,0.604761910901,
    4.366657687084));
#1121 = VERTEX_POINT('',#1122);
#1122 = CARTESIAN_POINT('',(-0.327579365079,0.498088060568,4.5));
#1123 = LINE('',#1124,#1125);
#1124 = CARTESIAN_POINT('',(-0.327579365079,1.535570538747,
    3.203146902277));
#1125 = VECTOR('',#1126,1.);
#1126 = DIRECTION('',(6.826287649254E-17,-0.624695047554,0.780868809443)
  );
#1127 = ORIENTED_EDGE('',*,*,#1128,.T.);
#1128 = EDGE_CURVE('',#1121,#1129,#1131,.T.);
#1129 = VERTEX_POINT('',#1130);
#1130 = CARTESIAN_POINT('',(-0.127579365079,0.298088060568,5.));
#1131 = LINE('',#1132,#1133);
#1132 = CARTESIAN_POINT('',(-0.214145892392,0.384654587881,
    4.783583681717));
#1133 = VECTOR('',#1134,1.);
#1134 = DIRECTION('',(0.348155311911,-0.348155311911,0.870388279778));
#1135 = ORIENTED_EDGE('',*,*,#1136,.T.);
#1136 = EDGE_CURVE('',#1129,#1137,#1139,.T.);
#1137 = VERTEX_POINT('',#1138);
#1138 = CARTESIAN_POINT('',(-2.090551474655E-02,0.404761910901,5.));
#1139 = LINE('',#1140,#1141);
#1140 = CARTESIAN_POINT('',(-7.424243991296E-02,0.351424985735,5.));
#1141 = VECTOR('',#1142,1.);
#1142 = DIRECTION('',(0.707106781187,0.707106781187,0.));
#1143 = ORIENTED_EDGE('',*,*,#1144,.T.);
#1144 = EDGE_CURVE('',#1137,#1145,#1147,.T.);
#1145 = VERTEX_POINT('',#1146);
#1146 = CARTESIAN_POINT('',(-0.220905514747,0.604761910901,4.5));
#1147 = LINE('',#1148,#1149);
#1148 = CARTESIAN_POINT('',(-0.10747204206,0.491328438214,4.783583681717
    ));
#1149 = VECTOR('',#1150,1.);
#1150 = DIRECTION('',(-0.348155311911,0.348155311911,-0.870388279778));
#1151 = ORIENTED_EDGE('',*,*,#1152,.T.);
#1152 = EDGE_CURVE('',#1145,#1119,#1153,.T.);
#1153 = LINE('',#1154,#1155);
#1154 = CARTESIAN_POINT('',(-1.134485553901,0.604761910901,
    3.358024951057));
#1155 = VECTOR('',#1156,1.);
#1156 = DIRECTION('',(-0.624695047554,0.,-0.780868809443));
#1157 = PLANE('',#1158);
#1158 = AXIS2_PLACEMENT_3D('',#1159,#1160,#1161);
#1159 = CARTESIAN_POINT('',(-0.160808967226,0.437991513048,
    4.783583681717));
#1160 = DIRECTION('',(-0.615457454897,0.615457454897,0.492365963917));
#1161 = DIRECTION('',(0.624695047554,4.163336342344E-16,0.780868809443)
  );
#1162 = ADVANCED_FACE('',(#1163),#1188,.T.);
#1163 = FACE_BOUND('',#1164,.T.);
#1164 = EDGE_LOOP('',(#1165,#1166,#1174,#1182));
#1165 = ORIENTED_EDGE('',*,*,#1128,.F.);
#1166 = ORIENTED_EDGE('',*,*,#1167,.T.);
#1167 = EDGE_CURVE('',#1121,#1168,#1170,.T.);
#1168 = VERTEX_POINT('',#1169);
#1169 = CARTESIAN_POINT('',(-0.327579365079,7.643576123391E-02,4.5));
#1170 = LINE('',#1171,#1172);
#1171 = CARTESIAN_POINT('',(-0.327579365079,0.446011910901,4.5));
#1172 = VECTOR('',#1173,1.);
#1173 = DIRECTION('',(1.092739197466E-16,-1.,0.));
#1174 = ORIENTED_EDGE('',*,*,#1175,.F.);
#1175 = EDGE_CURVE('',#1176,#1168,#1178,.T.);
#1176 = VERTEX_POINT('',#1177);
#1177 = CARTESIAN_POINT('',(-0.127579365079,0.276435761234,5.));
#1178 = LINE('',#1179,#1180);
#1179 = CARTESIAN_POINT('',(-0.214145892392,0.189869233921,
    4.783583681717));
#1180 = VECTOR('',#1181,1.);
#1181 = DIRECTION('',(-0.348155311911,-0.348155311911,-0.870388279778));
#1182 = ORIENTED_EDGE('',*,*,#1183,.T.);
#1183 = EDGE_CURVE('',#1176,#1129,#1184,.T.);
#1184 = LINE('',#1185,#1186);
#1185 = CARTESIAN_POINT('',(-0.127579365079,0.446011910901,5.));
#1186 = VECTOR('',#1187,1.);
#1187 = DIRECTION('',(-1.092739197466E-16,1.,0.));
#1188 = PLANE('',#1189);
#1189 = AXIS2_PLACEMENT_3D('',#1190,#1191,#1192);
#1190 = CARTESIAN_POINT('',(-0.227579365079,0.446011910901,4.75));
#1191 = DIRECTION('',(-0.928476690885,-1.014582874064E-16,0.371390676354
    ));
#1192 = DIRECTION('',(0.371390676354,-6.162975822039E-33,0.928476690885)
  );
#1193 = ADVANCED_FACE('',(#1194),#1228,.T.);
#1194 = FACE_BOUND('',#1195,.T.);
#1195 = EDGE_LOOP('',(#1196,#1197,#1205,#1213,#1221,#1227));
#1196 = ORIENTED_EDGE('',*,*,#1118,.F.);
#1197 = ORIENTED_EDGE('',*,*,#1198,.F.);
#1198 = EDGE_CURVE('',#1199,#1119,#1201,.T.);
#1199 = VERTEX_POINT('',#1200);
#1200 = CARTESIAN_POINT('',(-0.327579365079,0.604761910901,0.));
#1201 = LINE('',#1202,#1203);
#1202 = CARTESIAN_POINT('',(-0.327579365079,0.604761910901,0.));
#1203 = VECTOR('',#1204,1.);
#1204 = DIRECTION('',(0.,0.,1.));
#1205 = ORIENTED_EDGE('',*,*,#1206,.T.);
#1206 = EDGE_CURVE('',#1199,#1207,#1209,.T.);
#1207 = VERTEX_POINT('',#1208);
#1208 = CARTESIAN_POINT('',(-0.327579365079,-3.023808909891E-02,0.));
#1209 = LINE('',#1210,#1211);
#1210 = CARTESIAN_POINT('',(-0.327579365079,0.604761910901,0.));
#1211 = VECTOR('',#1212,1.);
#1212 = DIRECTION('',(1.092739197466E-16,-1.,0.));
#1213 = ORIENTED_EDGE('',*,*,#1214,.T.);
#1214 = EDGE_CURVE('',#1207,#1215,#1217,.T.);
#1215 = VERTEX_POINT('',#1216);
#1216 = CARTESIAN_POINT('',(-0.327579365079,-3.023808909891E-02,
    4.366657687084));
#1217 = LINE('',#1218,#1219);
#1218 = CARTESIAN_POINT('',(-0.327579365079,-3.023808909891E-02,0.));
#1219 = VECTOR('',#1220,1.);
#1220 = DIRECTION('',(0.,0.,1.));
#1221 = ORIENTED_EDGE('',*,*,#1222,.F.);
#1222 = EDGE_CURVE('',#1168,#1215,#1223,.T.);
#1223 = LINE('',#1224,#1225);
#1224 = CARTESIAN_POINT('',(-0.327579365079,-0.83714427792,
    3.358024951057));
#1225 = VECTOR('',#1226,1.);
#1226 = DIRECTION('',(6.826287649254E-17,-0.624695047554,-0.780868809443
    ));
#1227 = ORIENTED_EDGE('',*,*,#1167,.F.);
#1228 = PLANE('',#1229);
#1229 = AXIS2_PLACEMENT_3D('',#1230,#1231,#1232);
#1230 = CARTESIAN_POINT('',(-0.327579365079,0.604761910901,0.));
#1231 = DIRECTION('',(-1.,-1.092739197466E-16,0.));
#1232 = DIRECTION('',(1.092739197466E-16,-1.,0.));
#1233 = ADVANCED_FACE('',(#1234),#1268,.T.);
#1234 = FACE_BOUND('',#1235,.T.);
#1235 = EDGE_LOOP('',(#1236,#1237,#1245,#1253,#1261,#1267));
#1236 = ORIENTED_EDGE('',*,*,#1152,.F.);
#1237 = ORIENTED_EDGE('',*,*,#1238,.F.);
#1238 = EDGE_CURVE('',#1239,#1145,#1241,.T.);
#1239 = VERTEX_POINT('',#1240);
#1240 = CARTESIAN_POINT('',(0.200746784588,0.604761910901,4.5));
#1241 = LINE('',#1242,#1243);
#1242 = CARTESIAN_POINT('',(0.148670634921,0.604761910901,4.5));
#1243 = VECTOR('',#1244,1.);
#1244 = DIRECTION('',(-1.,0.,0.));
#1245 = ORIENTED_EDGE('',*,*,#1246,.F.);
#1246 = EDGE_CURVE('',#1247,#1239,#1249,.T.);
#1247 = VERTEX_POINT('',#1248);
#1248 = CARTESIAN_POINT('',(0.307420634921,0.604761910901,4.366657687084
    ));
#1249 = LINE('',#1250,#1251);
#1250 = CARTESIAN_POINT('',(1.238229262766,0.604761910901,3.203146902277
    ));
#1251 = VECTOR('',#1252,1.);
#1252 = DIRECTION('',(-0.624695047554,0.,0.780868809443));
#1253 = ORIENTED_EDGE('',*,*,#1254,.F.);
#1254 = EDGE_CURVE('',#1255,#1247,#1257,.T.);
#1255 = VERTEX_POINT('',#1256);
#1256 = CARTESIAN_POINT('',(0.307420634921,0.604761910901,0.));
#1257 = LINE('',#1258,#1259);
#1258 = CARTESIAN_POINT('',(0.307420634921,0.604761910901,0.));
#1259 = VECTOR('',#1260,1.);
#1260 = DIRECTION('',(0.,0.,1.));
#1261 = ORIENTED_EDGE('',*,*,#1262,.T.);
#1262 = EDGE_CURVE('',#1255,#1199,#1263,.T.);
#1263 = LINE('',#1264,#1265);
#1264 = CARTESIAN_POINT('',(0.307420634921,0.604761910901,0.));
#1265 = VECTOR('',#1266,1.);
#1266 = DIRECTION('',(-1.,0.,0.));
#1267 = ORIENTED_EDGE('',*,*,#1198,.T.);
#1268 = PLANE('',#1269);
#1269 = AXIS2_PLACEMENT_3D('',#1270,#1271,#1272);
#1270 = CARTESIAN_POINT('',(0.307420634921,0.604761910901,0.));
#1271 = DIRECTION('',(0.,1.,0.));
#1272 = DIRECTION('',(-1.,0.,0.));
#1273 = ADVANCED_FACE('',(#1274),#1307,.T.);
#1274 = FACE_BOUND('',#1275,.T.);
#1275 = EDGE_LOOP('',(#1276,#1277,#1285,#1293,#1301));
#1276 = ORIENTED_EDGE('',*,*,#1246,.T.);
#1277 = ORIENTED_EDGE('',*,*,#1278,.T.);
#1278 = EDGE_CURVE('',#1239,#1279,#1281,.T.);
#1279 = VERTEX_POINT('',#1280);
#1280 = CARTESIAN_POINT('',(7.467845878209E-04,0.404761910901,5.));
#1281 = LINE('',#1282,#1283);
#1282 = CARTESIAN_POINT('',(8.731331190089E-02,0.491328438214,
    4.783583681717));
#1283 = VECTOR('',#1284,1.);
#1284 = DIRECTION('',(-0.348155311911,-0.348155311911,0.870388279778));
#1285 = ORIENTED_EDGE('',*,*,#1286,.T.);
#1286 = EDGE_CURVE('',#1279,#1287,#1289,.T.);
#1287 = VERTEX_POINT('',#1288);
#1288 = CARTESIAN_POINT('',(0.107420634921,0.298088060568,5.));
#1289 = LINE('',#1290,#1291);
#1290 = CARTESIAN_POINT('',(5.408370975423E-02,0.351424985735,5.));
#1291 = VECTOR('',#1292,1.);
#1292 = DIRECTION('',(0.707106781187,-0.707106781187,0.));
#1293 = ORIENTED_EDGE('',*,*,#1294,.T.);
#1294 = EDGE_CURVE('',#1287,#1295,#1297,.T.);
#1295 = VERTEX_POINT('',#1296);
#1296 = CARTESIAN_POINT('',(0.307420634921,0.498088060568,4.5));
#1297 = LINE('',#1298,#1299);
#1298 = CARTESIAN_POINT('',(0.193987162234,0.384654587881,4.783583681717
    ));
#1299 = VECTOR('',#1300,1.);
#1300 = DIRECTION('',(0.348155311911,0.348155311911,-0.870388279778));
#1301 = ORIENTED_EDGE('',*,*,#1302,.T.);
#1302 = EDGE_CURVE('',#1295,#1247,#1303,.T.);
#1303 = LINE('',#1304,#1305);
#1304 = CARTESIAN_POINT('',(0.307420634921,1.411668099723,3.358024951057
    ));
#1305 = VECTOR('',#1306,1.);
#1306 = DIRECTION('',(-4.778401354478E-16,0.624695047554,-0.780868809443
    ));
#1307 = PLANE('',#1308);
#1308 = AXIS2_PLACEMENT_3D('',#1309,#1310,#1311);
#1309 = CARTESIAN_POINT('',(0.140650237067,0.437991513048,4.783583681717
    ));
#1310 = DIRECTION('',(0.615457454897,0.615457454897,0.492365963917));
#1311 = DIRECTION('',(0.624695047554,-8.326672684689E-17,-0.780868809443
    ));
#1312 = ADVANCED_FACE('',(#1313),#1347,.T.);
#1313 = FACE_BOUND('',#1314,.T.);
#1314 = EDGE_LOOP('',(#1315,#1316,#1324,#1332,#1340,#1346));
#1315 = ORIENTED_EDGE('',*,*,#1302,.F.);
#1316 = ORIENTED_EDGE('',*,*,#1317,.F.);
#1317 = EDGE_CURVE('',#1318,#1295,#1320,.T.);
#1318 = VERTEX_POINT('',#1319);
#1319 = CARTESIAN_POINT('',(0.307420634921,7.643576123391E-02,4.5));
#1320 = LINE('',#1321,#1322);
#1321 = CARTESIAN_POINT('',(0.307420634921,0.128511910901,4.5));
#1322 = VECTOR('',#1323,1.);
#1323 = DIRECTION('',(-7.64917438226E-16,1.,0.));
#1324 = ORIENTED_EDGE('',*,*,#1325,.F.);
#1325 = EDGE_CURVE('',#1326,#1318,#1328,.T.);
#1326 = VERTEX_POINT('',#1327);
#1327 = CARTESIAN_POINT('',(0.307420634921,-3.023808909891E-02,
    4.366657687084));
#1328 = LINE('',#1329,#1330);
#1329 = CARTESIAN_POINT('',(0.307420634921,-0.961046716945,
    3.203146902277));
#1330 = VECTOR('',#1331,1.);
#1331 = DIRECTION('',(-4.778401354478E-16,0.624695047554,0.780868809443)
  );
#1332 = ORIENTED_EDGE('',*,*,#1333,.F.);
#1333 = EDGE_CURVE('',#1334,#1326,#1336,.T.);
#1334 = VERTEX_POINT('',#1335);
#1335 = CARTESIAN_POINT('',(0.307420634921,-3.023808909891E-02,0.));
#1336 = LINE('',#1337,#1338);
#1337 = CARTESIAN_POINT('',(0.307420634921,-3.023808909891E-02,0.));
#1338 = VECTOR('',#1339,1.);
#1339 = DIRECTION('',(0.,0.,1.));
#1340 = ORIENTED_EDGE('',*,*,#1341,.T.);
#1341 = EDGE_CURVE('',#1334,#1255,#1342,.T.);
#1342 = LINE('',#1343,#1344);
#1343 = CARTESIAN_POINT('',(0.307420634921,-3.023808909891E-02,0.));
#1344 = VECTOR('',#1345,1.);
#1345 = DIRECTION('',(-7.64917438226E-16,1.,0.));
#1346 = ORIENTED_EDGE('',*,*,#1254,.T.);
#1347 = PLANE('',#1348);
#1348 = AXIS2_PLACEMENT_3D('',#1349,#1350,#1351);
#1349 = CARTESIAN_POINT('',(0.307420634921,-3.023808909891E-02,0.));
#1350 = DIRECTION('',(1.,7.64917438226E-16,0.));
#1351 = DIRECTION('',(-7.64917438226E-16,1.,0.));
#1352 = ADVANCED_FACE('',(#1353),#1371,.T.);
#1353 = FACE_BOUND('',#1354,.T.);
#1354 = EDGE_LOOP('',(#1355,#1356,#1364,#1370));
#1355 = ORIENTED_EDGE('',*,*,#1294,.F.);
#1356 = ORIENTED_EDGE('',*,*,#1357,.T.);
#1357 = EDGE_CURVE('',#1287,#1358,#1360,.T.);
#1358 = VERTEX_POINT('',#1359);
#1359 = CARTESIAN_POINT('',(0.107420634921,0.276435761234,5.));
#1360 = LINE('',#1361,#1362);
#1361 = CARTESIAN_POINT('',(0.107420634921,0.128511910901,5.));
#1362 = VECTOR('',#1363,1.);
#1363 = DIRECTION('',(7.64917438226E-16,-1.,0.));
#1364 = ORIENTED_EDGE('',*,*,#1365,.F.);
#1365 = EDGE_CURVE('',#1318,#1358,#1366,.T.);
#1366 = LINE('',#1367,#1368);
#1367 = CARTESIAN_POINT('',(0.193987162234,0.189869233921,4.783583681717
    ));
#1368 = VECTOR('',#1369,1.);
#1369 = DIRECTION('',(-0.348155311911,0.348155311911,0.870388279778));
#1370 = ORIENTED_EDGE('',*,*,#1317,.T.);
#1371 = PLANE('',#1372);
#1372 = AXIS2_PLACEMENT_3D('',#1373,#1374,#1375);
#1373 = CARTESIAN_POINT('',(0.207420634921,0.128511910901,4.75));
#1374 = DIRECTION('',(0.928476690885,7.102080118445E-16,0.371390676354)
  );
#1375 = DIRECTION('',(0.371390676354,0.,-0.928476690885));
#1376 = ADVANCED_FACE('',(#1377),#1403,.T.);
#1377 = FACE_BOUND('',#1378,.T.);
#1378 = EDGE_LOOP('',(#1379,#1387,#1395,#1401,#1402));
#1379 = ORIENTED_EDGE('',*,*,#1380,.T.);
#1380 = EDGE_CURVE('',#1358,#1381,#1383,.T.);
#1381 = VERTEX_POINT('',#1382);
#1382 = CARTESIAN_POINT('',(7.46784587821E-04,0.169761910901,5.));
#1383 = LINE('',#1384,#1385);
#1384 = CARTESIAN_POINT('',(5.408370975423E-02,0.223098836068,5.));
#1385 = VECTOR('',#1386,1.);
#1386 = DIRECTION('',(-0.707106781187,-0.707106781187,0.));
#1387 = ORIENTED_EDGE('',*,*,#1388,.T.);
#1388 = EDGE_CURVE('',#1381,#1389,#1391,.T.);
#1389 = VERTEX_POINT('',#1390);
#1390 = CARTESIAN_POINT('',(0.200746784588,-3.023808909891E-02,4.5));
#1391 = LINE('',#1392,#1393);
#1392 = CARTESIAN_POINT('',(8.731331190089E-02,8.319538358803E-02,
    4.783583681717));
#1393 = VECTOR('',#1394,1.);
#1394 = DIRECTION('',(0.348155311911,-0.348155311911,-0.870388279778));
#1395 = ORIENTED_EDGE('',*,*,#1396,.T.);
#1396 = EDGE_CURVE('',#1389,#1326,#1397,.T.);
#1397 = LINE('',#1398,#1399);
#1398 = CARTESIAN_POINT('',(1.114326823742,-3.023808909891E-02,
    3.358024951057));
#1399 = VECTOR('',#1400,1.);
#1400 = DIRECTION('',(0.624695047554,0.,-0.780868809443));
#1401 = ORIENTED_EDGE('',*,*,#1325,.T.);
#1402 = ORIENTED_EDGE('',*,*,#1365,.T.);
#1403 = PLANE('',#1404);
#1404 = AXIS2_PLACEMENT_3D('',#1405,#1406,#1407);
#1405 = CARTESIAN_POINT('',(0.140650237067,0.136532308754,4.783583681717
    ));
#1406 = DIRECTION('',(0.615457454897,-0.615457454897,0.492365963917));
#1407 = DIRECTION('',(0.624695047554,1.110223024625E-16,-0.780868809443)
  );
#1408 = ADVANCED_FACE('',(#1409),#1434,.T.);
#1409 = FACE_BOUND('',#1410,.T.);
#1410 = EDGE_LOOP('',(#1411,#1412,#1420,#1426,#1427,#1433));
#1411 = ORIENTED_EDGE('',*,*,#1396,.F.);
#1412 = ORIENTED_EDGE('',*,*,#1413,.F.);
#1413 = EDGE_CURVE('',#1414,#1389,#1416,.T.);
#1414 = VERTEX_POINT('',#1415);
#1415 = CARTESIAN_POINT('',(-0.220905514747,-3.023808909891E-02,4.5));
#1416 = LINE('',#1417,#1418);
#1417 = CARTESIAN_POINT('',(-0.168829365079,-3.023808909891E-02,4.5));
#1418 = VECTOR('',#1419,1.);
#1419 = DIRECTION('',(1.,0.,0.));
#1420 = ORIENTED_EDGE('',*,*,#1421,.F.);
#1421 = EDGE_CURVE('',#1215,#1414,#1422,.T.);
#1422 = LINE('',#1423,#1424);
#1423 = CARTESIAN_POINT('',(-1.258387992925,-3.023808909891E-02,
    3.203146902277));
#1424 = VECTOR('',#1425,1.);
#1425 = DIRECTION('',(0.624695047554,0.,0.780868809443));
#1426 = ORIENTED_EDGE('',*,*,#1214,.F.);
#1427 = ORIENTED_EDGE('',*,*,#1428,.T.);
#1428 = EDGE_CURVE('',#1207,#1334,#1429,.T.);
#1429 = LINE('',#1430,#1431);
#1430 = CARTESIAN_POINT('',(-0.327579365079,-3.023808909891E-02,0.));
#1431 = VECTOR('',#1432,1.);
#1432 = DIRECTION('',(1.,0.,0.));
#1433 = ORIENTED_EDGE('',*,*,#1333,.T.);
#1434 = PLANE('',#1435);
#1435 = AXIS2_PLACEMENT_3D('',#1436,#1437,#1438);
#1436 = CARTESIAN_POINT('',(-0.327579365079,-3.023808909891E-02,0.));
#1437 = DIRECTION('',(0.,-1.,0.));
#1438 = DIRECTION('',(1.,0.,0.));
#1439 = ADVANCED_FACE('',(#1440),#1459,.T.);
#1440 = FACE_BOUND('',#1441,.T.);
#1441 = EDGE_LOOP('',(#1442,#1443,#1451,#1457,#1458));
#1442 = ORIENTED_EDGE('',*,*,#1421,.T.);
#1443 = ORIENTED_EDGE('',*,*,#1444,.T.);
#1444 = EDGE_CURVE('',#1414,#1445,#1447,.T.);
#1445 = VERTEX_POINT('',#1446);
#1446 = CARTESIAN_POINT('',(-2.090551474655E-02,0.169761910901,5.));
#1447 = LINE('',#1448,#1449);
#1448 = CARTESIAN_POINT('',(-0.10747204206,8.319538358803E-02,
    4.783583681717));
#1449 = VECTOR('',#1450,1.);
#1450 = DIRECTION('',(0.348155311911,0.348155311911,0.870388279778));
#1451 = ORIENTED_EDGE('',*,*,#1452,.T.);
#1452 = EDGE_CURVE('',#1445,#1176,#1453,.T.);
#1453 = LINE('',#1454,#1455);
#1454 = CARTESIAN_POINT('',(-7.424243991296E-02,0.223098836068,5.));
#1455 = VECTOR('',#1456,1.);
#1456 = DIRECTION('',(-0.707106781187,0.707106781187,0.));
#1457 = ORIENTED_EDGE('',*,*,#1175,.T.);
#1458 = ORIENTED_EDGE('',*,*,#1222,.T.);
#1459 = PLANE('',#1460);
#1460 = AXIS2_PLACEMENT_3D('',#1461,#1462,#1463);
#1461 = CARTESIAN_POINT('',(-0.160808967226,0.136532308754,
    4.783583681717));
#1462 = DIRECTION('',(-0.615457454897,-0.615457454897,0.492365963917));
#1463 = DIRECTION('',(0.624695047554,-8.326672684689E-17,0.780868809443)
  );
#1464 = ADVANCED_FACE('',(#1465),#1476,.T.);
#1465 = FACE_BOUND('',#1466,.T.);
#1466 = EDGE_LOOP('',(#1467,#1468,#1474,#1475));
#1467 = ORIENTED_EDGE('',*,*,#1388,.F.);
#1468 = ORIENTED_EDGE('',*,*,#1469,.T.);
#1469 = EDGE_CURVE('',#1381,#1445,#1470,.T.);
#1470 = LINE('',#1471,#1472);
#1471 = CARTESIAN_POINT('',(-0.168829365079,0.169761910901,5.));
#1472 = VECTOR('',#1473,1.);
#1473 = DIRECTION('',(-1.,0.,0.));
#1474 = ORIENTED_EDGE('',*,*,#1444,.F.);
#1475 = ORIENTED_EDGE('',*,*,#1413,.T.);
#1476 = PLANE('',#1477);
#1477 = AXIS2_PLACEMENT_3D('',#1478,#1479,#1480);
#1478 = CARTESIAN_POINT('',(-0.168829365079,6.976191090109E-02,4.75));
#1479 = DIRECTION('',(0.,-0.928476690885,0.371390676354));
#1480 = DIRECTION('',(0.,-0.371390676354,-0.928476690885));
#1481 = ADVANCED_FACE('',(#1482),#1497,.T.);
#1482 = FACE_BOUND('',#1483,.T.);
#1483 = EDGE_LOOP('',(#1484,#1485,#1486,#1487,#1488,#1489,#1490,#1491));
#1484 = ORIENTED_EDGE('',*,*,#1136,.F.);
#1485 = ORIENTED_EDGE('',*,*,#1183,.F.);
#1486 = ORIENTED_EDGE('',*,*,#1452,.F.);
#1487 = ORIENTED_EDGE('',*,*,#1469,.F.);
#1488 = ORIENTED_EDGE('',*,*,#1380,.F.);
#1489 = ORIENTED_EDGE('',*,*,#1357,.F.);
#1490 = ORIENTED_EDGE('',*,*,#1286,.F.);
#1491 = ORIENTED_EDGE('',*,*,#1492,.F.);
#1492 = EDGE_CURVE('',#1137,#1279,#1493,.T.);
#1493 = LINE('',#1494,#1495);
#1494 = CARTESIAN_POINT('',(0.148670634921,0.404761910901,5.));
#1495 = VECTOR('',#1496,1.);
#1496 = DIRECTION('',(1.,0.,0.));
#1497 = PLANE('',#1498);
#1498 = AXIS2_PLACEMENT_3D('',#1499,#1500,#1501);
#1499 = CARTESIAN_POINT('',(-1.007936507936E-02,0.287261910901,5.));
#1500 = DIRECTION('',(0.,0.,1.));
#1501 = DIRECTION('',(1.,0.,-0.));
#1502 = ADVANCED_FACE('',(#1503),#1509,.T.);
#1503 = FACE_BOUND('',#1504,.T.);
#1504 = EDGE_LOOP('',(#1505,#1506,#1507,#1508));
#1505 = ORIENTED_EDGE('',*,*,#1144,.F.);
#1506 = ORIENTED_EDGE('',*,*,#1492,.T.);
#1507 = ORIENTED_EDGE('',*,*,#1278,.F.);
#1508 = ORIENTED_EDGE('',*,*,#1238,.T.);
#1509 = PLANE('',#1510);
#1510 = AXIS2_PLACEMENT_3D('',#1511,#1512,#1513);
#1511 = CARTESIAN_POINT('',(0.148670634921,0.504761910901,4.75));
#1512 = DIRECTION('',(0.,0.928476690885,0.371390676354));
#1513 = DIRECTION('',(0.,-0.371390676354,0.928476690885));
#1514 = ADVANCED_FACE('',(#1515),#1521,.F.);
#1515 = FACE_BOUND('',#1516,.T.);
#1516 = EDGE_LOOP('',(#1517,#1518,#1519,#1520));
#1517 = ORIENTED_EDGE('',*,*,#1262,.F.);
#1518 = ORIENTED_EDGE('',*,*,#1341,.F.);
#1519 = ORIENTED_EDGE('',*,*,#1428,.F.);
#1520 = ORIENTED_EDGE('',*,*,#1206,.F.);
#1521 = PLANE('',#1522);
#1522 = AXIS2_PLACEMENT_3D('',#1523,#1524,#1525);
#1523 = CARTESIAN_POINT('',(-1.007936507936E-02,0.287261910901,0.));
#1524 = DIRECTION('',(0.,0.,1.));
#1525 = DIRECTION('',(1.,0.,-0.));
#1526 = ( GEOMETRIC_REPRESENTATION_CONTEXT(3) 
GLOBAL_UNCERTAINTY_ASSIGNED_CONTEXT((#1530)) 
GLOBAL_UNIT_ASSIGNED_CONTEXT((#1527,#1528,#1529)) REPRESENTATION_CONTEXT
('Context #1','3D Context with UNIT and UNCERTAINTY') );
#1527 = ( LENGTH_UNIT() NAMED_UNIT(*) SI_UNIT(.MILLI.,.METRE.) );
#1528 = ( NAMED_UNIT(*) PLANE_ANGLE_UNIT() SI_UNIT($,.RADIAN.) );
#1529 = ( NAMED_UNIT(*) SI_UNIT($,.STERADIAN.) SOLID_ANGLE_UNIT() );
#1530 = UNCERTAINTY_MEASURE_WITH_UNIT(LENGTH_MEASURE(1.E-07),#1527,
  'distance_accuracy_value','confusion accuracy');
#1531 = CONTEXT_DEPENDENT_SHAPE_REPRESENTATION(#1532,#1534);
#1532 = ( REPRESENTATION_RELATIONSHIP('','',#1111,#1084) 
REPRESENTATION_RELATIONSHIP_WITH_TRANSFORMATION(#1533) 
SHAPE_REPRESENTATION_RELATIONSHIP() );
#1533 = ITEM_DEFINED_TRANSFORMATION('','',#11,#1085);
#1534 = PRODUCT_DEFINITION_SHAPE('Placement','Placement of an item',
  #1535);
#1535 = NEXT_ASSEMBLY_USAGE_OCCURRENCE('2','1039929_IPT_000','',#1079,
  #1106,$);
#1536 = PRODUCT_RELATED_PRODUCT_CATEGORY('part',$,(#1108));
#1537 = SHAPE_DEFINITION_REPRESENTATION(#1538,#1544);
#1538 = PRODUCT_DEFINITION_SHAPE('','',#1539);
#1539 = PRODUCT_DEFINITION('design','',#1540,#1543);
#1540 = PRODUCT_DEFINITION_FORMATION('','',#1541);
#1541 = PRODUCT('1039930_IPT_000','1039930_IPT_000','',(#1542));
#1542 = PRODUCT_CONTEXT('',#2,'mechanical');
#1543 = PRODUCT_DEFINITION_CONTEXT('part definition',#2,'design');
#1544 = ADVANCED_BREP_SHAPE_REPRESENTATION('',(#11,#1545),#1959);
#1545 = MANIFOLD_SOLID_BREP('',#1546);
#1546 = CLOSED_SHELL('',(#1547,#1595,#1626,#1666,#1706,#1745,#1785,#1809
    ,#1841,#1872,#1897,#1914,#1935,#1947));
#1547 = ADVANCED_FACE('',(#1548),#1590,.T.);
#1548 = FACE_BOUND('',#1549,.T.);
#1549 = EDGE_LOOP('',(#1550,#1560,#1568,#1576,#1584));
#1550 = ORIENTED_EDGE('',*,*,#1551,.T.);
#1551 = EDGE_CURVE('',#1552,#1554,#1556,.T.);
#1552 = VERTEX_POINT('',#1553);
#1553 = CARTESIAN_POINT('',(-0.327579365079,0.604761910901,
    8.266657687084));
#1554 = VERTEX_POINT('',#1555);
#1555 = CARTESIAN_POINT('',(-0.327579365079,0.498088060568,8.4));
#1556 = LINE('',#1557,#1558);
#1557 = CARTESIAN_POINT('',(-0.327579365079,2.486790050942,
    5.914122512033));
#1558 = VECTOR('',#1559,1.);
#1559 = DIRECTION('',(6.826287649254E-17,-0.624695047554,0.780868809443)
  );
#1560 = ORIENTED_EDGE('',*,*,#1561,.T.);
#1561 = EDGE_CURVE('',#1554,#1562,#1564,.T.);
#1562 = VERTEX_POINT('',#1563);
#1563 = CARTESIAN_POINT('',(-0.127579365079,0.298088060568,8.9));
#1564 = LINE('',#1565,#1566);
#1565 = CARTESIAN_POINT('',(-0.214145892392,0.384654587881,
    8.683583681717));
#1566 = VECTOR('',#1567,1.);
#1567 = DIRECTION('',(0.348155311911,-0.348155311911,0.870388279778));
#1568 = ORIENTED_EDGE('',*,*,#1569,.T.);
#1569 = EDGE_CURVE('',#1562,#1570,#1572,.T.);
#1570 = VERTEX_POINT('',#1571);
#1571 = CARTESIAN_POINT('',(-2.090551474655E-02,0.404761910901,8.9));
#1572 = LINE('',#1573,#1574);
#1573 = CARTESIAN_POINT('',(-7.424243991296E-02,0.351424985735,8.9));
#1574 = VECTOR('',#1575,1.);
#1575 = DIRECTION('',(0.707106781187,0.707106781187,0.));
#1576 = ORIENTED_EDGE('',*,*,#1577,.T.);
#1577 = EDGE_CURVE('',#1570,#1578,#1580,.T.);
#1578 = VERTEX_POINT('',#1579);
#1579 = CARTESIAN_POINT('',(-0.220905514747,0.604761910901,8.4));
#1580 = LINE('',#1581,#1582);
#1581 = CARTESIAN_POINT('',(-0.10747204206,0.491328438214,8.683583681717
    ));
#1582 = VECTOR('',#1583,1.);
#1583 = DIRECTION('',(-0.348155311911,0.348155311911,-0.870388279778));
#1584 = ORIENTED_EDGE('',*,*,#1585,.T.);
#1585 = EDGE_CURVE('',#1578,#1552,#1586,.T.);
#1586 = LINE('',#1587,#1588);
#1587 = CARTESIAN_POINT('',(-2.085705066096,0.604761910901,
    6.069000560813));
#1588 = VECTOR('',#1589,1.);
#1589 = DIRECTION('',(-0.624695047554,0.,-0.780868809443));
#1590 = PLANE('',#1591);
#1591 = AXIS2_PLACEMENT_3D('',#1592,#1593,#1594);
#1592 = CARTESIAN_POINT('',(-0.160808967226,0.437991513048,
    8.683583681717));
#1593 = DIRECTION('',(-0.615457454897,0.615457454897,0.492365963917));
#1594 = DIRECTION('',(0.624695047554,-2.775557561563E-16,0.780868809443)
  );
#1595 = ADVANCED_FACE('',(#1596),#1621,.T.);
#1596 = FACE_BOUND('',#1597,.T.);
#1597 = EDGE_LOOP('',(#1598,#1599,#1607,#1615));
#1598 = ORIENTED_EDGE('',*,*,#1561,.F.);
#1599 = ORIENTED_EDGE('',*,*,#1600,.T.);
#1600 = EDGE_CURVE('',#1554,#1601,#1603,.T.);
#1601 = VERTEX_POINT('',#1602);
#1602 = CARTESIAN_POINT('',(-0.327579365079,7.643576123391E-02,8.4));
#1603 = LINE('',#1604,#1605);
#1604 = CARTESIAN_POINT('',(-0.327579365079,0.446011910901,8.4));
#1605 = VECTOR('',#1606,1.);
#1606 = DIRECTION('',(1.092739197466E-16,-1.,0.));
#1607 = ORIENTED_EDGE('',*,*,#1608,.F.);
#1608 = EDGE_CURVE('',#1609,#1601,#1611,.T.);
#1609 = VERTEX_POINT('',#1610);
#1610 = CARTESIAN_POINT('',(-0.127579365079,0.276435761234,8.9));
#1611 = LINE('',#1612,#1613);
#1612 = CARTESIAN_POINT('',(-0.214145892392,0.189869233921,
    8.683583681717));
#1613 = VECTOR('',#1614,1.);
#1614 = DIRECTION('',(-0.348155311911,-0.348155311911,-0.870388279778));
#1615 = ORIENTED_EDGE('',*,*,#1616,.T.);
#1616 = EDGE_CURVE('',#1609,#1562,#1617,.T.);
#1617 = LINE('',#1618,#1619);
#1618 = CARTESIAN_POINT('',(-0.127579365079,0.446011910901,8.9));
#1619 = VECTOR('',#1620,1.);
#1620 = DIRECTION('',(-1.092739197466E-16,1.,0.));
#1621 = PLANE('',#1622);
#1622 = AXIS2_PLACEMENT_3D('',#1623,#1624,#1625);
#1623 = CARTESIAN_POINT('',(-0.227579365079,0.446011910901,8.65));
#1624 = DIRECTION('',(-0.928476690885,-1.014582874064E-16,0.371390676354
    ));
#1625 = DIRECTION('',(0.371390676354,6.162975822039E-33,0.928476690885)
  );
#1626 = ADVANCED_FACE('',(#1627),#1661,.T.);
#1627 = FACE_BOUND('',#1628,.T.);
#1628 = EDGE_LOOP('',(#1629,#1630,#1638,#1646,#1654,#1660));
#1629 = ORIENTED_EDGE('',*,*,#1551,.F.);
#1630 = ORIENTED_EDGE('',*,*,#1631,.F.);
#1631 = EDGE_CURVE('',#1632,#1552,#1634,.T.);
#1632 = VERTEX_POINT('',#1633);
#1633 = CARTESIAN_POINT('',(-0.327579365079,0.604761910901,0.));
#1634 = LINE('',#1635,#1636);
#1635 = CARTESIAN_POINT('',(-0.327579365079,0.604761910901,0.));
#1636 = VECTOR('',#1637,1.);
#1637 = DIRECTION('',(0.,0.,1.));
#1638 = ORIENTED_EDGE('',*,*,#1639,.T.);
#1639 = EDGE_CURVE('',#1632,#1640,#1642,.T.);
#1640 = VERTEX_POINT('',#1641);
#1641 = CARTESIAN_POINT('',(-0.327579365079,-3.023808909891E-02,0.));
#1642 = LINE('',#1643,#1644);
#1643 = CARTESIAN_POINT('',(-0.327579365079,0.604761910901,0.));
#1644 = VECTOR('',#1645,1.);
#1645 = DIRECTION('',(1.092739197466E-16,-1.,0.));
#1646 = ORIENTED_EDGE('',*,*,#1647,.T.);
#1647 = EDGE_CURVE('',#1640,#1648,#1650,.T.);
#1648 = VERTEX_POINT('',#1649);
#1649 = CARTESIAN_POINT('',(-0.327579365079,-3.023808909891E-02,
    8.266657687084));
#1650 = LINE('',#1651,#1652);
#1651 = CARTESIAN_POINT('',(-0.327579365079,-3.023808909891E-02,0.));
#1652 = VECTOR('',#1653,1.);
#1653 = DIRECTION('',(0.,0.,1.));
#1654 = ORIENTED_EDGE('',*,*,#1655,.F.);
#1655 = EDGE_CURVE('',#1601,#1648,#1656,.T.);
#1656 = LINE('',#1657,#1658);
#1657 = CARTESIAN_POINT('',(-0.327579365079,-1.788363790115,
    6.069000560813));
#1658 = VECTOR('',#1659,1.);
#1659 = DIRECTION('',(6.826287649254E-17,-0.624695047554,-0.780868809443
    ));
#1660 = ORIENTED_EDGE('',*,*,#1600,.F.);
#1661 = PLANE('',#1662);
#1662 = AXIS2_PLACEMENT_3D('',#1663,#1664,#1665);
#1663 = CARTESIAN_POINT('',(-0.327579365079,0.604761910901,0.));
#1664 = DIRECTION('',(-1.,-1.092739197466E-16,0.));
#1665 = DIRECTION('',(1.092739197466E-16,-1.,0.));
#1666 = ADVANCED_FACE('',(#1667),#1701,.T.);
#1667 = FACE_BOUND('',#1668,.T.);
#1668 = EDGE_LOOP('',(#1669,#1670,#1678,#1686,#1694,#1700));
#1669 = ORIENTED_EDGE('',*,*,#1585,.F.);
#1670 = ORIENTED_EDGE('',*,*,#1671,.F.);
#1671 = EDGE_CURVE('',#1672,#1578,#1674,.T.);
#1672 = VERTEX_POINT('',#1673);
#1673 = CARTESIAN_POINT('',(0.200746784588,0.604761910901,8.4));
#1674 = LINE('',#1675,#1676);
#1675 = CARTESIAN_POINT('',(0.148670634921,0.604761910901,8.4));
#1676 = VECTOR('',#1677,1.);
#1677 = DIRECTION('',(-1.,0.,0.));
#1678 = ORIENTED_EDGE('',*,*,#1679,.F.);
#1679 = EDGE_CURVE('',#1680,#1672,#1682,.T.);
#1680 = VERTEX_POINT('',#1681);
#1681 = CARTESIAN_POINT('',(0.307420634921,0.604761910901,8.266657687084
    ));
#1682 = LINE('',#1683,#1684);
#1683 = CARTESIAN_POINT('',(2.189448774962,0.604761910901,5.914122512033
    ));
#1684 = VECTOR('',#1685,1.);
#1685 = DIRECTION('',(-0.624695047554,0.,0.780868809443));
#1686 = ORIENTED_EDGE('',*,*,#1687,.F.);
#1687 = EDGE_CURVE('',#1688,#1680,#1690,.T.);
#1688 = VERTEX_POINT('',#1689);
#1689 = CARTESIAN_POINT('',(0.307420634921,0.604761910901,0.));
#1690 = LINE('',#1691,#1692);
#1691 = CARTESIAN_POINT('',(0.307420634921,0.604761910901,0.));
#1692 = VECTOR('',#1693,1.);
#1693 = DIRECTION('',(0.,0.,1.));
#1694 = ORIENTED_EDGE('',*,*,#1695,.T.);
#1695 = EDGE_CURVE('',#1688,#1632,#1696,.T.);
#1696 = LINE('',#1697,#1698);
#1697 = CARTESIAN_POINT('',(0.307420634921,0.604761910901,0.));
#1698 = VECTOR('',#1699,1.);
#1699 = DIRECTION('',(-1.,0.,0.));
#1700 = ORIENTED_EDGE('',*,*,#1631,.T.);
#1701 = PLANE('',#1702);
#1702 = AXIS2_PLACEMENT_3D('',#1703,#1704,#1705);
#1703 = CARTESIAN_POINT('',(0.307420634921,0.604761910901,0.));
#1704 = DIRECTION('',(0.,1.,0.));
#1705 = DIRECTION('',(-1.,0.,0.));
#1706 = ADVANCED_FACE('',(#1707),#1740,.T.);
#1707 = FACE_BOUND('',#1708,.T.);
#1708 = EDGE_LOOP('',(#1709,#1710,#1718,#1726,#1734));
#1709 = ORIENTED_EDGE('',*,*,#1679,.T.);
#1710 = ORIENTED_EDGE('',*,*,#1711,.T.);
#1711 = EDGE_CURVE('',#1672,#1712,#1714,.T.);
#1712 = VERTEX_POINT('',#1713);
#1713 = CARTESIAN_POINT('',(7.467845878211E-04,0.404761910901,8.9));
#1714 = LINE('',#1715,#1716);
#1715 = CARTESIAN_POINT('',(8.731331190089E-02,0.491328438214,
    8.683583681717));
#1716 = VECTOR('',#1717,1.);
#1717 = DIRECTION('',(-0.348155311911,-0.348155311911,0.870388279778));
#1718 = ORIENTED_EDGE('',*,*,#1719,.T.);
#1719 = EDGE_CURVE('',#1712,#1720,#1722,.T.);
#1720 = VERTEX_POINT('',#1721);
#1721 = CARTESIAN_POINT('',(0.107420634921,0.298088060568,8.9));
#1722 = LINE('',#1723,#1724);
#1723 = CARTESIAN_POINT('',(5.408370975423E-02,0.351424985735,8.9));
#1724 = VECTOR('',#1725,1.);
#1725 = DIRECTION('',(0.707106781187,-0.707106781187,0.));
#1726 = ORIENTED_EDGE('',*,*,#1727,.T.);
#1727 = EDGE_CURVE('',#1720,#1728,#1730,.T.);
#1728 = VERTEX_POINT('',#1729);
#1729 = CARTESIAN_POINT('',(0.307420634921,0.498088060568,8.4));
#1730 = LINE('',#1731,#1732);
#1731 = CARTESIAN_POINT('',(0.193987162234,0.384654587881,8.683583681717
    ));
#1732 = VECTOR('',#1733,1.);
#1733 = DIRECTION('',(0.348155311911,0.348155311911,-0.870388279778));
#1734 = ORIENTED_EDGE('',*,*,#1735,.T.);
#1735 = EDGE_CURVE('',#1728,#1680,#1736,.T.);
#1736 = LINE('',#1737,#1738);
#1737 = CARTESIAN_POINT('',(0.307420634921,2.362887611918,6.069000560813
    ));
#1738 = VECTOR('',#1739,1.);
#1739 = DIRECTION('',(-4.778401354478E-16,0.624695047554,-0.780868809443
    ));
#1740 = PLANE('',#1741);
#1741 = AXIS2_PLACEMENT_3D('',#1742,#1743,#1744);
#1742 = CARTESIAN_POINT('',(0.140650237067,0.437991513048,8.683583681717
    ));
#1743 = DIRECTION('',(0.615457454897,0.615457454897,0.492365963917));
#1744 = DIRECTION('',(0.624695047554,1.942890293094E-16,-0.780868809443)
  );
#1745 = ADVANCED_FACE('',(#1746),#1780,.T.);
#1746 = FACE_BOUND('',#1747,.T.);
#1747 = EDGE_LOOP('',(#1748,#1749,#1757,#1765,#1773,#1779));
#1748 = ORIENTED_EDGE('',*,*,#1735,.F.);
#1749 = ORIENTED_EDGE('',*,*,#1750,.F.);
#1750 = EDGE_CURVE('',#1751,#1728,#1753,.T.);
#1751 = VERTEX_POINT('',#1752);
#1752 = CARTESIAN_POINT('',(0.307420634921,7.643576123391E-02,8.4));
#1753 = LINE('',#1754,#1755);
#1754 = CARTESIAN_POINT('',(0.307420634921,0.128511910901,8.4));
#1755 = VECTOR('',#1756,1.);
#1756 = DIRECTION('',(-7.64917438226E-16,1.,0.));
#1757 = ORIENTED_EDGE('',*,*,#1758,.F.);
#1758 = EDGE_CURVE('',#1759,#1751,#1761,.T.);
#1759 = VERTEX_POINT('',#1760);
#1760 = CARTESIAN_POINT('',(0.307420634921,-3.023808909891E-02,
    8.266657687084));
#1761 = LINE('',#1762,#1763);
#1762 = CARTESIAN_POINT('',(0.307420634921,-1.91226622914,5.914122512033
    ));
#1763 = VECTOR('',#1764,1.);
#1764 = DIRECTION('',(-4.778401354478E-16,0.624695047554,0.780868809443)
  );
#1765 = ORIENTED_EDGE('',*,*,#1766,.F.);
#1766 = EDGE_CURVE('',#1767,#1759,#1769,.T.);
#1767 = VERTEX_POINT('',#1768);
#1768 = CARTESIAN_POINT('',(0.307420634921,-3.023808909891E-02,0.));
#1769 = LINE('',#1770,#1771);
#1770 = CARTESIAN_POINT('',(0.307420634921,-3.023808909891E-02,0.));
#1771 = VECTOR('',#1772,1.);
#1772 = DIRECTION('',(0.,0.,1.));
#1773 = ORIENTED_EDGE('',*,*,#1774,.T.);
#1774 = EDGE_CURVE('',#1767,#1688,#1775,.T.);
#1775 = LINE('',#1776,#1777);
#1776 = CARTESIAN_POINT('',(0.307420634921,-3.023808909891E-02,0.));
#1777 = VECTOR('',#1778,1.);
#1778 = DIRECTION('',(-7.64917438226E-16,1.,0.));
#1779 = ORIENTED_EDGE('',*,*,#1687,.T.);
#1780 = PLANE('',#1781);
#1781 = AXIS2_PLACEMENT_3D('',#1782,#1783,#1784);
#1782 = CARTESIAN_POINT('',(0.307420634921,-3.023808909891E-02,0.));
#1783 = DIRECTION('',(1.,7.64917438226E-16,0.));
#1784 = DIRECTION('',(-7.64917438226E-16,1.,0.));
#1785 = ADVANCED_FACE('',(#1786),#1804,.T.);
#1786 = FACE_BOUND('',#1787,.T.);
#1787 = EDGE_LOOP('',(#1788,#1789,#1797,#1803));
#1788 = ORIENTED_EDGE('',*,*,#1727,.F.);
#1789 = ORIENTED_EDGE('',*,*,#1790,.T.);
#1790 = EDGE_CURVE('',#1720,#1791,#1793,.T.);
#1791 = VERTEX_POINT('',#1792);
#1792 = CARTESIAN_POINT('',(0.107420634921,0.276435761234,8.9));
#1793 = LINE('',#1794,#1795);
#1794 = CARTESIAN_POINT('',(0.107420634921,0.128511910901,8.9));
#1795 = VECTOR('',#1796,1.);
#1796 = DIRECTION('',(7.64917438226E-16,-1.,0.));
#1797 = ORIENTED_EDGE('',*,*,#1798,.F.);
#1798 = EDGE_CURVE('',#1751,#1791,#1799,.T.);
#1799 = LINE('',#1800,#1801);
#1800 = CARTESIAN_POINT('',(0.193987162234,0.189869233921,8.683583681717
    ));
#1801 = VECTOR('',#1802,1.);
#1802 = DIRECTION('',(-0.348155311911,0.348155311911,0.870388279778));
#1803 = ORIENTED_EDGE('',*,*,#1750,.T.);
#1804 = PLANE('',#1805);
#1805 = AXIS2_PLACEMENT_3D('',#1806,#1807,#1808);
#1806 = CARTESIAN_POINT('',(0.207420634921,0.128511910901,8.65));
#1807 = DIRECTION('',(0.928476690885,7.102080118445E-16,0.371390676354)
  );
#1808 = DIRECTION('',(0.371390676354,0.,-0.928476690885));
#1809 = ADVANCED_FACE('',(#1810),#1836,.T.);
#1810 = FACE_BOUND('',#1811,.T.);
#1811 = EDGE_LOOP('',(#1812,#1820,#1828,#1834,#1835));
#1812 = ORIENTED_EDGE('',*,*,#1813,.T.);
#1813 = EDGE_CURVE('',#1791,#1814,#1816,.T.);
#1814 = VERTEX_POINT('',#1815);
#1815 = CARTESIAN_POINT('',(7.467845878215E-04,0.169761910901,8.9));
#1816 = LINE('',#1817,#1818);
#1817 = CARTESIAN_POINT('',(5.408370975423E-02,0.223098836068,8.9));
#1818 = VECTOR('',#1819,1.);
#1819 = DIRECTION('',(-0.707106781187,-0.707106781187,0.));
#1820 = ORIENTED_EDGE('',*,*,#1821,.T.);
#1821 = EDGE_CURVE('',#1814,#1822,#1824,.T.);
#1822 = VERTEX_POINT('',#1823);
#1823 = CARTESIAN_POINT('',(0.200746784588,-3.023808909891E-02,8.4));
#1824 = LINE('',#1825,#1826);
#1825 = CARTESIAN_POINT('',(8.731331190089E-02,8.319538358803E-02,
    8.683583681717));
#1826 = VECTOR('',#1827,1.);
#1827 = DIRECTION('',(0.348155311911,-0.348155311911,-0.870388279778));
#1828 = ORIENTED_EDGE('',*,*,#1829,.T.);
#1829 = EDGE_CURVE('',#1822,#1759,#1830,.T.);
#1830 = LINE('',#1831,#1832);
#1831 = CARTESIAN_POINT('',(2.065546335937,-3.023808909891E-02,
    6.069000560813));
#1832 = VECTOR('',#1833,1.);
#1833 = DIRECTION('',(0.624695047554,0.,-0.780868809443));
#1834 = ORIENTED_EDGE('',*,*,#1758,.T.);
#1835 = ORIENTED_EDGE('',*,*,#1798,.T.);
#1836 = PLANE('',#1837);
#1837 = AXIS2_PLACEMENT_3D('',#1838,#1839,#1840);
#1838 = CARTESIAN_POINT('',(0.140650237067,0.136532308754,8.683583681717
    ));
#1839 = DIRECTION('',(0.615457454897,-0.615457454897,0.492365963917));
#1840 = DIRECTION('',(0.624695047554,-1.665334536938E-16,-0.780868809443
    ));
#1841 = ADVANCED_FACE('',(#1842),#1867,.T.);
#1842 = FACE_BOUND('',#1843,.T.);
#1843 = EDGE_LOOP('',(#1844,#1845,#1853,#1859,#1860,#1866));
#1844 = ORIENTED_EDGE('',*,*,#1829,.F.);
#1845 = ORIENTED_EDGE('',*,*,#1846,.F.);
#1846 = EDGE_CURVE('',#1847,#1822,#1849,.T.);
#1847 = VERTEX_POINT('',#1848);
#1848 = CARTESIAN_POINT('',(-0.220905514747,-3.023808909891E-02,8.4));
#1849 = LINE('',#1850,#1851);
#1850 = CARTESIAN_POINT('',(-0.168829365079,-3.023808909891E-02,8.4));
#1851 = VECTOR('',#1852,1.);
#1852 = DIRECTION('',(1.,0.,0.));
#1853 = ORIENTED_EDGE('',*,*,#1854,.F.);
#1854 = EDGE_CURVE('',#1648,#1847,#1855,.T.);
#1855 = LINE('',#1856,#1857);
#1856 = CARTESIAN_POINT('',(-2.20960750512,-3.023808909891E-02,
    5.914122512033));
#1857 = VECTOR('',#1858,1.);
#1858 = DIRECTION('',(0.624695047554,0.,0.780868809443));
#1859 = ORIENTED_EDGE('',*,*,#1647,.F.);
#1860 = ORIENTED_EDGE('',*,*,#1861,.T.);
#1861 = EDGE_CURVE('',#1640,#1767,#1862,.T.);
#1862 = LINE('',#1863,#1864);
#1863 = CARTESIAN_POINT('',(-0.327579365079,-3.023808909891E-02,0.));
#1864 = VECTOR('',#1865,1.);
#1865 = DIRECTION('',(1.,0.,0.));
#1866 = ORIENTED_EDGE('',*,*,#1766,.T.);
#1867 = PLANE('',#1868);
#1868 = AXIS2_PLACEMENT_3D('',#1869,#1870,#1871);
#1869 = CARTESIAN_POINT('',(-0.327579365079,-3.023808909891E-02,0.));
#1870 = DIRECTION('',(0.,-1.,0.));
#1871 = DIRECTION('',(1.,0.,0.));
#1872 = ADVANCED_FACE('',(#1873),#1892,.T.);
#1873 = FACE_BOUND('',#1874,.T.);
#1874 = EDGE_LOOP('',(#1875,#1876,#1884,#1890,#1891));
#1875 = ORIENTED_EDGE('',*,*,#1854,.T.);
#1876 = ORIENTED_EDGE('',*,*,#1877,.T.);
#1877 = EDGE_CURVE('',#1847,#1878,#1880,.T.);
#1878 = VERTEX_POINT('',#1879);
#1879 = CARTESIAN_POINT('',(-2.090551474655E-02,0.169761910901,8.9));
#1880 = LINE('',#1881,#1882);
#1881 = CARTESIAN_POINT('',(-0.10747204206,8.319538358803E-02,
    8.683583681717));
#1882 = VECTOR('',#1883,1.);
#1883 = DIRECTION('',(0.348155311911,0.348155311911,0.870388279778));
#1884 = ORIENTED_EDGE('',*,*,#1885,.T.);
#1885 = EDGE_CURVE('',#1878,#1609,#1886,.T.);
#1886 = LINE('',#1887,#1888);
#1887 = CARTESIAN_POINT('',(-7.424243991296E-02,0.223098836068,8.9));
#1888 = VECTOR('',#1889,1.);
#1889 = DIRECTION('',(-0.707106781187,0.707106781187,0.));
#1890 = ORIENTED_EDGE('',*,*,#1608,.T.);
#1891 = ORIENTED_EDGE('',*,*,#1655,.T.);
#1892 = PLANE('',#1893);
#1893 = AXIS2_PLACEMENT_3D('',#1894,#1895,#1896);
#1894 = CARTESIAN_POINT('',(-0.160808967226,0.136532308754,
    8.683583681717));
#1895 = DIRECTION('',(-0.615457454897,-0.615457454897,0.492365963917));
#1896 = DIRECTION('',(0.624695047554,1.942890293094E-16,0.780868809443)
  );
#1897 = ADVANCED_FACE('',(#1898),#1909,.T.);
#1898 = FACE_BOUND('',#1899,.T.);
#1899 = EDGE_LOOP('',(#1900,#1901,#1907,#1908));
#1900 = ORIENTED_EDGE('',*,*,#1821,.F.);
#1901 = ORIENTED_EDGE('',*,*,#1902,.T.);
#1902 = EDGE_CURVE('',#1814,#1878,#1903,.T.);
#1903 = LINE('',#1904,#1905);
#1904 = CARTESIAN_POINT('',(-0.168829365079,0.169761910901,8.9));
#1905 = VECTOR('',#1906,1.);
#1906 = DIRECTION('',(-1.,0.,0.));
#1907 = ORIENTED_EDGE('',*,*,#1877,.F.);
#1908 = ORIENTED_EDGE('',*,*,#1846,.T.);
#1909 = PLANE('',#1910);
#1910 = AXIS2_PLACEMENT_3D('',#1911,#1912,#1913);
#1911 = CARTESIAN_POINT('',(-0.168829365079,6.976191090109E-02,8.65));
#1912 = DIRECTION('',(0.,-0.928476690885,0.371390676354));
#1913 = DIRECTION('',(0.,-0.371390676354,-0.928476690885));
#1914 = ADVANCED_FACE('',(#1915),#1930,.T.);
#1915 = FACE_BOUND('',#1916,.T.);
#1916 = EDGE_LOOP('',(#1917,#1918,#1919,#1920,#1921,#1922,#1923,#1924));
#1917 = ORIENTED_EDGE('',*,*,#1569,.F.);
#1918 = ORIENTED_EDGE('',*,*,#1616,.F.);
#1919 = ORIENTED_EDGE('',*,*,#1885,.F.);
#1920 = ORIENTED_EDGE('',*,*,#1902,.F.);
#1921 = ORIENTED_EDGE('',*,*,#1813,.F.);
#1922 = ORIENTED_EDGE('',*,*,#1790,.F.);
#1923 = ORIENTED_EDGE('',*,*,#1719,.F.);
#1924 = ORIENTED_EDGE('',*,*,#1925,.F.);
#1925 = EDGE_CURVE('',#1570,#1712,#1926,.T.);
#1926 = LINE('',#1927,#1928);
#1927 = CARTESIAN_POINT('',(0.148670634921,0.404761910901,8.9));
#1928 = VECTOR('',#1929,1.);
#1929 = DIRECTION('',(1.,0.,0.));
#1930 = PLANE('',#1931);
#1931 = AXIS2_PLACEMENT_3D('',#1932,#1933,#1934);
#1932 = CARTESIAN_POINT('',(-1.007936507936E-02,0.287261910901,8.9));
#1933 = DIRECTION('',(0.,0.,1.));
#1934 = DIRECTION('',(1.,0.,-0.));
#1935 = ADVANCED_FACE('',(#1936),#1942,.T.);
#1936 = FACE_BOUND('',#1937,.T.);
#1937 = EDGE_LOOP('',(#1938,#1939,#1940,#1941));
#1938 = ORIENTED_EDGE('',*,*,#1577,.F.);
#1939 = ORIENTED_EDGE('',*,*,#1925,.T.);
#1940 = ORIENTED_EDGE('',*,*,#1711,.F.);
#1941 = ORIENTED_EDGE('',*,*,#1671,.T.);
#1942 = PLANE('',#1943);
#1943 = AXIS2_PLACEMENT_3D('',#1944,#1945,#1946);
#1944 = CARTESIAN_POINT('',(0.148670634921,0.504761910901,8.65));
#1945 = DIRECTION('',(0.,0.928476690885,0.371390676354));
#1946 = DIRECTION('',(0.,-0.371390676354,0.928476690885));
#1947 = ADVANCED_FACE('',(#1948),#1954,.F.);
#1948 = FACE_BOUND('',#1949,.T.);
#1949 = EDGE_LOOP('',(#1950,#1951,#1952,#1953));
#1950 = ORIENTED_EDGE('',*,*,#1695,.F.);
#1951 = ORIENTED_EDGE('',*,*,#1774,.F.);
#1952 = ORIENTED_EDGE('',*,*,#1861,.F.);
#1953 = ORIENTED_EDGE('',*,*,#1639,.F.);
#1954 = PLANE('',#1955);
#1955 = AXIS2_PLACEMENT_3D('',#1956,#1957,#1958);
#1956 = CARTESIAN_POINT('',(-1.007936507936E-02,0.287261910901,0.));
#1957 = DIRECTION('',(0.,0.,1.));
#1958 = DIRECTION('',(1.,0.,-0.));
#1959 = ( GEOMETRIC_REPRESENTATION_CONTEXT(3) 
GLOBAL_UNCERTAINTY_ASSIGNED_CONTEXT((#1963)) 
GLOBAL_UNIT_ASSIGNED_CONTEXT((#1960,#1961,#1962)) REPRESENTATION_CONTEXT
('Context #1','3D Context with UNIT and UNCERTAINTY') );
#1960 = ( LENGTH_UNIT() NAMED_UNIT(*) SI_UNIT(.MILLI.,.METRE.) );
#1961 = ( NAMED_UNIT(*) PLANE_ANGLE_UNIT() SI_UNIT($,.RADIAN.) );
#1962 = ( NAMED_UNIT(*) SI_UNIT($,.STERADIAN.) SOLID_ANGLE_UNIT() );
#1963 = UNCERTAINTY_MEASURE_WITH_UNIT(LENGTH_MEASURE(1.E-07),#1960,
  'distance_accuracy_value','confusion accuracy');
#1964 = CONTEXT_DEPENDENT_SHAPE_REPRESENTATION(#1965,#1967);
#1965 = ( REPRESENTATION_RELATIONSHIP('','',#1544,#1084) 
REPRESENTATION_RELATIONSHIP_WITH_TRANSFORMATION(#1966) 
SHAPE_REPRESENTATION_RELATIONSHIP() );
#1966 = ITEM_DEFINED_TRANSFORMATION('','',#11,#1089);
#1967 = PRODUCT_DEFINITION_SHAPE('Placement','Placement of an item',
  #1968);
#1968 = NEXT_ASSEMBLY_USAGE_OCCURRENCE('3','1039930_IPT_000','',#1079,
  #1539,$);
#1969 = PRODUCT_RELATED_PRODUCT_CATEGORY('part',$,(#1541));
#1970 = MECHANICAL_DESIGN_GEOMETRIC_PRESENTATION_REPRESENTATION('',(
    #1971),#1066);
#1971 = STYLED_ITEM('color',(#1972),#60);
#1972 = PRESENTATION_STYLE_ASSIGNMENT((#1973,#1979));
#1973 = SURFACE_STYLE_USAGE(.BOTH.,#1974);
#1974 = SURFACE_SIDE_STYLE('',(#1975));
#1975 = SURFACE_STYLE_FILL_AREA(#1976);
#1976 = FILL_AREA_STYLE('',(#1977));
#1977 = FILL_AREA_STYLE_COLOUR('',#1978);
#1978 = COLOUR_RGB('',0.199999998682,0.199999998682,0.199999998682);
#1979 = CURVE_STYLE('',#1980,POSITIVE_LENGTH_MEASURE(0.1),#1981);
#1980 = DRAUGHTING_PRE_DEFINED_CURVE_FONT('continuous');
#1981 = COLOUR_RGB('',9.803921802644E-02,9.803921802644E-02,
  9.803921802644E-02);
#1982 = MECHANICAL_DESIGN_GEOMETRIC_PRESENTATION_REPRESENTATION('',(
    #1983),#1959);
#1983 = STYLED_ITEM('color',(#1984),#1545);
#1984 = PRESENTATION_STYLE_ASSIGNMENT((#1985,#1991));
#1985 = SURFACE_STYLE_USAGE(.BOTH.,#1986);
#1986 = SURFACE_SIDE_STYLE('',(#1987));
#1987 = SURFACE_STYLE_FILL_AREA(#1988);
#1988 = FILL_AREA_STYLE('',(#1989));
#1989 = FILL_AREA_STYLE_COLOUR('',#1990);
#1990 = COLOUR_RGB('',0.988235296747,0.827450977613,0.345098051753);
#1991 = CURVE_STYLE('',#1992,POSITIVE_LENGTH_MEASURE(0.1),#1981);
#1992 = DRAUGHTING_PRE_DEFINED_CURVE_FONT('continuous');
#1993 = MECHANICAL_DESIGN_GEOMETRIC_PRESENTATION_REPRESENTATION('',(
    #1994),#1526);
#1994 = STYLED_ITEM('color',(#1995),#1112);
#1995 = PRESENTATION_STYLE_ASSIGNMENT((#1996,#2001));
#1996 = SURFACE_STYLE_USAGE(.BOTH.,#1997);
#1997 = SURFACE_SIDE_STYLE('',(#1998));
#1998 = SURFACE_STYLE_FILL_AREA(#1999);
#1999 = FILL_AREA_STYLE('',(#2000));
#2000 = FILL_AREA_STYLE_COLOUR('',#1990);
#2001 = CURVE_STYLE('',#2002,POSITIVE_LENGTH_MEASURE(0.1),#1981);
#2002 = DRAUGHTING_PRE_DEFINED_CURVE_FONT('continuous');
ENDSEC;
END-ISO-10303-21;
