ISO-10303-21;
HEADER;
FILE_DESCRIPTION(('FreeCAD Model'),'2;1');
FILE_NAME('Open CASCADE Shape Model','2025-11-20T20:23:48',(''),(''),
  'Open CASCADE STEP processor 7.8','FreeCAD','Unknown');
FILE_SCHEMA(('AUTOMOTIVE_DESIGN { 1 0 10303 214 1 1 1 1 }'));
ENDSEC;
DATA;
#1 = APPLICATION_PROTOCOL_DEFINITION('international standard',
  'automotive_design',2000,#2);
#2 = APPLICATION_CONTEXT(
  'core data for automotive mechanical design processes');
#3 = SHAPE_DEFINITION_REPRESENTATION(#4,#10);
#4 = PRODUCT_DEFINITION_SHAPE('','',#5);
#5 = PRODUCT_DEFINITION('design','',#6,#9);
#6 = PRODUCT_DEFINITION_FORMATION('','',#7);
#7 = PRODUCT('_SL11STEP001','_SL11STEP001','',(#8));
#8 = PRODUCT_CONTEXT('',#2,'mechanical');
#9 = PRODUCT_DEFINITION_CONTEXT('part definition',#2,'design');
#10 = SHAPE_REPRESENTATION('',(#11,#15),#19);
#11 = AXIS2_PLACEMENT_3D('',#12,#13,#14);
#12 = CARTESIAN_POINT('',(0.,0.,0.));
#13 = DIRECTION('',(0.,0.,1.));
#14 = DIRECTION('',(1.,0.,-0.));
#15 = AXIS2_PLACEMENT_3D('',#16,#17,#18);
#16 = CARTESIAN_POINT('',(1.798195427464,-1.546205742812,4.583255966524)
  );
#17 = DIRECTION('',(0.,0.,1.));
#18 = DIRECTION('',(1.,0.,0.));
#19 = ( GEOMETRIC_REPRESENTATION_CONTEXT(3) 
GLOBAL_UNCERTAINTY_ASSIGNED_CONTEXT((#23)) GLOBAL_UNIT_ASSIGNED_CONTEXT(
(#20,#21,#22)) REPRESENTATION_CONTEXT('Context #1',
  '3D Context with UNIT and UNCERTAINTY') );
#20 = ( LENGTH_UNIT() NAMED_UNIT(*) SI_UNIT(.MILLI.,.METRE.) );
#21 = ( NAMED_UNIT(*) PLANE_ANGLE_UNIT() SI_UNIT($,.RADIAN.) );
#22 = ( NAMED_UNIT(*) SI_UNIT($,.STERADIAN.) SOLID_ANGLE_UNIT() );
#23 = UNCERTAINTY_MEASURE_WITH_UNIT(LENGTH_MEASURE(1.E-07),#20,
  'distance_accuracy_value','confusion accuracy');
#24 = PRODUCT_RELATED_PRODUCT_CATEGORY('part',$,(#7));
#25 = SHAPE_DEFINITION_REPRESENTATION(#26,#32);
#26 = PRODUCT_DEFINITION_SHAPE('','',#27);
#27 = PRODUCT_DEFINITION('design','',#28,#31);
#28 = PRODUCT_DEFINITION_FORMATION('','',#29);
#29 = PRODUCT('001017565001','001017565001','',(#30));
#30 = PRODUCT_CONTEXT('',#2,'mechanical');
#31 = PRODUCT_DEFINITION_CONTEXT('part definition',#2,'design');
#32 = SHAPE_REPRESENTATION('',(#11,#33,#37,#41,#45),#49);
#33 = AXIS2_PLACEMENT_3D('',#34,#35,#36);
#34 = CARTESIAN_POINT('',(-0.528195427464,1.546205742812,-4.333255966524
    ));
#35 = DIRECTION('',(0.,0.,1.));
#36 = DIRECTION('',(1.,0.,0.));
#37 = AXIS2_PLACEMENT_3D('',#38,#39,#40);
#38 = CARTESIAN_POINT('',(-0.520616062385,1.268943831911,1.416744033476)
  );
#39 = DIRECTION('',(0.,0.,1.));
#40 = DIRECTION('',(1.,0.,0.));
#41 = AXIS2_PLACEMENT_3D('',#42,#43,#44);
#42 = CARTESIAN_POINT('',(-3.068195427464,1.546205742812,-4.333255966524
    ));
#43 = DIRECTION('',(0.,0.,1.));
#44 = DIRECTION('',(1.,0.,0.));
#45 = AXIS2_PLACEMENT_3D('',#46,#47,#48);
#46 = CARTESIAN_POINT('',(-3.060616062385,1.268943831911,1.416744033476)
  );
#47 = DIRECTION('',(0.,0.,1.));
#48 = DIRECTION('',(1.,0.,0.));
#49 = ( GEOMETRIC_REPRESENTATION_CONTEXT(3) 
GLOBAL_UNCERTAINTY_ASSIGNED_CONTEXT((#53)) GLOBAL_UNIT_ASSIGNED_CONTEXT(
(#50,#51,#52)) REPRESENTATION_CONTEXT('Context #1',
  '3D Context with UNIT and UNCERTAINTY') );
#50 = ( LENGTH_UNIT() NAMED_UNIT(*) SI_UNIT(.MILLI.,.METRE.) );
#51 = ( NAMED_UNIT(*) PLANE_ANGLE_UNIT() SI_UNIT($,.RADIAN.) );
#52 = ( NAMED_UNIT(*) SI_UNIT($,.STERADIAN.) SOLID_ANGLE_UNIT() );
#53 = UNCERTAINTY_MEASURE_WITH_UNIT(LENGTH_MEASURE(1.E-07),#50,
  'distance_accuracy_value','confusion accuracy');
#54 = CONTEXT_DEPENDENT_SHAPE_REPRESENTATION(#55,#57);
#55 = ( REPRESENTATION_RELATIONSHIP('','',#32,#10) 
REPRESENTATION_RELATIONSHIP_WITH_TRANSFORMATION(#56) 
SHAPE_REPRESENTATION_RELATIONSHIP() );
#56 = ITEM_DEFINED_TRANSFORMATION('','',#11,#15);
#57 = PRODUCT_DEFINITION_SHAPE('Placement','Placement of an item',#58);
#58 = NEXT_ASSEMBLY_USAGE_OCCURRENCE('14','001017565001','',#5,#27,$);
#59 = PRODUCT_RELATED_PRODUCT_CATEGORY('part',$,(#29));
#60 = SHAPE_DEFINITION_REPRESENTATION(#61,#67);
#61 = PRODUCT_DEFINITION_SHAPE('','',#62);
#62 = PRODUCT_DEFINITION('design','',#63,#66);
#63 = PRODUCT_DEFINITION_FORMATION('','',#64);
#64 = PRODUCT('F1000S1120M007B001','F1000S1120M007B001','',(#65));
#65 = PRODUCT_CONTEXT('',#2,'mechanical');
#66 = PRODUCT_DEFINITION_CONTEXT('part definition',#2,'design');
#67 = ADVANCED_BREP_SHAPE_REPRESENTATION('',(#11,#68),#1074);
#68 = MANIFOLD_SOLID_BREP('',#69);
#69 = CLOSED_SHELL('',(#70,#110,#150,#181,#221,#252,#292,#323,#354,#410,
    #466,#497,#521,#552,#585,#620,#637,#658,#693,#739,#779,#810,#841,
    #863,#894,#918,#936,#965,#987,#1004,#1021,#1033,#1045,#1062));
#70 = ADVANCED_FACE('',(#71),#105,.T.);
#71 = FACE_BOUND('',#72,.T.);
#72 = EDGE_LOOP('',(#73,#83,#91,#99));
#73 = ORIENTED_EDGE('',*,*,#74,.T.);
#74 = EDGE_CURVE('',#75,#77,#79,.T.);
#75 = VERTEX_POINT('',#76);
#76 = CARTESIAN_POINT('',(-0.814865100164,1.25,2.65));
#77 = VERTEX_POINT('',#78);
#78 = CARTESIAN_POINT('',(-0.814865100164,0.85,2.65));
#79 = LINE('',#80,#81);
#80 = CARTESIAN_POINT('',(-0.814865100164,-0.1,2.65));
#81 = VECTOR('',#82,1.);
#82 = DIRECTION('',(0.,-1.,0.));
#83 = ORIENTED_EDGE('',*,*,#84,.F.);
#84 = EDGE_CURVE('',#85,#77,#87,.T.);
#85 = VERTEX_POINT('',#86);
#86 = CARTESIAN_POINT('',(0.814865100164,0.85,2.65));
#87 = LINE('',#88,#89);
#88 = CARTESIAN_POINT('',(-0.919896230895,0.85,2.65));
#89 = VECTOR('',#90,1.);
#90 = DIRECTION('',(-1.,-3.01725071627E-16,0.));
#91 = ORIENTED_EDGE('',*,*,#92,.T.);
#92 = EDGE_CURVE('',#85,#93,#95,.T.);
#93 = VERTEX_POINT('',#94);
#94 = CARTESIAN_POINT('',(0.814865100164,1.25,2.65));
#95 = LINE('',#96,#97);
#96 = CARTESIAN_POINT('',(0.814865100164,-0.1,2.65));
#97 = VECTOR('',#98,1.);
#98 = DIRECTION('',(0.,1.,0.));
#99 = ORIENTED_EDGE('',*,*,#100,.F.);
#100 = EDGE_CURVE('',#75,#93,#101,.T.);
#101 = LINE('',#102,#103);
#102 = CARTESIAN_POINT('',(0.919896230895,1.25,2.65));
#103 = VECTOR('',#104,1.);
#104 = DIRECTION('',(1.,0.,0.));
#105 = PLANE('',#106);
#106 = AXIS2_PLACEMENT_3D('',#107,#108,#109);
#107 = CARTESIAN_POINT('',(-1.561251128379E-16,1.05,2.65));
#108 = DIRECTION('',(0.,0.,1.));
#109 = DIRECTION('',(1.,0.,-0.));
#110 = ADVANCED_FACE('',(#111),#145,.T.);
#111 = FACE_BOUND('',#112,.T.);
#112 = EDGE_LOOP('',(#113,#123,#131,#139));
#113 = ORIENTED_EDGE('',*,*,#114,.T.);
#114 = EDGE_CURVE('',#115,#117,#119,.T.);
#115 = VERTEX_POINT('',#116);
#116 = CARTESIAN_POINT('',(-0.814865100164,-0.85,2.65));
#117 = VERTEX_POINT('',#118);
#118 = CARTESIAN_POINT('',(-0.814865100164,-1.25,2.65));
#119 = LINE('',#120,#121);
#120 = CARTESIAN_POINT('',(-0.814865100164,-1.15,2.65));
#121 = VECTOR('',#122,1.);
#122 = DIRECTION('',(0.,-1.,0.));
#123 = ORIENTED_EDGE('',*,*,#124,.F.);
#124 = EDGE_CURVE('',#125,#117,#127,.T.);
#125 = VERTEX_POINT('',#126);
#126 = CARTESIAN_POINT('',(0.814865100164,-1.25,2.65));
#127 = LINE('',#128,#129);
#128 = CARTESIAN_POINT('',(0.919896230895,-1.25,2.65));
#129 = VECTOR('',#130,1.);
#130 = DIRECTION('',(-1.,0.,0.));
#131 = ORIENTED_EDGE('',*,*,#132,.T.);
#132 = EDGE_CURVE('',#125,#133,#135,.T.);
#133 = VERTEX_POINT('',#134);
#134 = CARTESIAN_POINT('',(0.814865100164,-0.85,2.65));
#135 = LINE('',#136,#137);
#136 = CARTESIAN_POINT('',(0.814865100164,-1.15,2.65));
#137 = VECTOR('',#138,1.);
#138 = DIRECTION('',(0.,1.,0.));
#139 = ORIENTED_EDGE('',*,*,#140,.F.);
#140 = EDGE_CURVE('',#115,#133,#141,.T.);
#141 = LINE('',#142,#143);
#142 = CARTESIAN_POINT('',(-0.919896230895,-0.85,2.65));
#143 = VECTOR('',#144,1.);
#144 = DIRECTION('',(1.,3.01725071627E-16,0.));
#145 = PLANE('',#146);
#146 = AXIS2_PLACEMENT_3D('',#147,#148,#149);
#147 = CARTESIAN_POINT('',(1.214306433184E-16,-1.05,2.65));
#148 = DIRECTION('',(0.,0.,1.));
#149 = DIRECTION('',(1.,0.,-0.));
#150 = ADVANCED_FACE('',(#151),#176,.T.);
#151 = FACE_BOUND('',#152,.T.);
#152 = EDGE_LOOP('',(#153,#161,#169,#175));
#153 = ORIENTED_EDGE('',*,*,#154,.T.);
#154 = EDGE_CURVE('',#77,#155,#157,.T.);
#155 = VERTEX_POINT('',#156);
#156 = CARTESIAN_POINT('',(-0.919896230895,0.85,2.5));
#157 = LINE('',#158,#159);
#158 = CARTESIAN_POINT('',(-0.617259635815,0.85,2.93220985003));
#159 = VECTOR('',#160,1.);
#160 = DIRECTION('',(-0.573576436351,-1.730623913416E-16,-0.819152044289
    ));
#161 = ORIENTED_EDGE('',*,*,#162,.F.);
#162 = EDGE_CURVE('',#163,#155,#165,.T.);
#163 = VERTEX_POINT('',#164);
#164 = CARTESIAN_POINT('',(0.919896230895,0.85,2.5));
#165 = LINE('',#166,#167);
#166 = CARTESIAN_POINT('',(0.459948115448,0.85,2.5));
#167 = VECTOR('',#168,1.);
#168 = DIRECTION('',(-1.,-3.01725071627E-16,0.));
#169 = ORIENTED_EDGE('',*,*,#170,.T.);
#170 = EDGE_CURVE('',#163,#85,#171,.T.);
#171 = LINE('',#172,#173);
#172 = CARTESIAN_POINT('',(0.867380665529,0.85,2.575));
#173 = VECTOR('',#174,1.);
#174 = DIRECTION('',(-0.573576436351,-1.730623913416E-16,0.819152044289)
  );
#175 = ORIENTED_EDGE('',*,*,#84,.T.);
#176 = PLANE('',#177);
#177 = AXIS2_PLACEMENT_3D('',#178,#179,#180);
#178 = CARTESIAN_POINT('',(0.919896230895,0.85,2.5));
#179 = DIRECTION('',(3.01725071627E-16,-1.,0.));
#180 = DIRECTION('',(0.,0.,-1.));
#181 = ADVANCED_FACE('',(#182),#216,.T.);
#182 = FACE_BOUND('',#183,.T.);
#183 = EDGE_LOOP('',(#184,#194,#202,#210));
#184 = ORIENTED_EDGE('',*,*,#185,.T.);
#185 = EDGE_CURVE('',#186,#188,#190,.T.);
#186 = VERTEX_POINT('',#187);
#187 = CARTESIAN_POINT('',(-0.814865100164,-0.85,-0.15));
#188 = VERTEX_POINT('',#189);
#189 = CARTESIAN_POINT('',(-0.919896230895,-0.85,0.));
#190 = LINE('',#191,#192);
#191 = CARTESIAN_POINT('',(-0.56474407045,-0.85,-0.50720985003));
#192 = VECTOR('',#193,1.);
#193 = DIRECTION('',(-0.573576436351,1.730623913416E-16,0.819152044289)
  );
#194 = ORIENTED_EDGE('',*,*,#195,.F.);
#195 = EDGE_CURVE('',#196,#188,#198,.T.);
#196 = VERTEX_POINT('',#197);
#197 = CARTESIAN_POINT('',(0.919896230895,-0.85,0.));
#198 = LINE('',#199,#200);
#199 = CARTESIAN_POINT('',(0.459948115448,-0.85,0.));
#200 = VECTOR('',#201,1.);
#201 = DIRECTION('',(-1.,3.01725071627E-16,0.));
#202 = ORIENTED_EDGE('',*,*,#203,.T.);
#203 = EDGE_CURVE('',#196,#204,#206,.T.);
#204 = VERTEX_POINT('',#205);
#205 = CARTESIAN_POINT('',(0.814865100164,-0.85,-0.15));
#206 = LINE('',#207,#208);
#207 = CARTESIAN_POINT('',(0.919896230895,-0.85,-5.233716864941E-17));
#208 = VECTOR('',#209,1.);
#209 = DIRECTION('',(-0.573576436351,1.730623913416E-16,-0.819152044289)
  );
#210 = ORIENTED_EDGE('',*,*,#211,.T.);
#211 = EDGE_CURVE('',#204,#186,#212,.T.);
#212 = LINE('',#213,#214);
#213 = CARTESIAN_POINT('',(0.919896230895,-0.85,-0.15));
#214 = VECTOR('',#215,1.);
#215 = DIRECTION('',(-1.,3.01725071627E-16,0.));
#216 = PLANE('',#217);
#217 = AXIS2_PLACEMENT_3D('',#218,#219,#220);
#218 = CARTESIAN_POINT('',(0.919896230895,-0.85,0.));
#219 = DIRECTION('',(3.01725071627E-16,1.,0.));
#220 = DIRECTION('',(0.,-0.,1.));
#221 = ADVANCED_FACE('',(#222),#247,.F.);
#222 = FACE_BOUND('',#223,.T.);
#223 = EDGE_LOOP('',(#224,#232,#233,#241));
#224 = ORIENTED_EDGE('',*,*,#225,.T.);
#225 = EDGE_CURVE('',#226,#186,#228,.T.);
#226 = VERTEX_POINT('',#227);
#227 = CARTESIAN_POINT('',(-0.814865100164,-1.25,-0.15));
#228 = LINE('',#229,#230);
#229 = CARTESIAN_POINT('',(-0.814865100164,-1.15,-0.15));
#230 = VECTOR('',#231,1.);
#231 = DIRECTION('',(0.,1.,0.));
#232 = ORIENTED_EDGE('',*,*,#211,.F.);
#233 = ORIENTED_EDGE('',*,*,#234,.T.);
#234 = EDGE_CURVE('',#204,#235,#237,.T.);
#235 = VERTEX_POINT('',#236);
#236 = CARTESIAN_POINT('',(0.814865100164,-1.25,-0.15));
#237 = LINE('',#238,#239);
#238 = CARTESIAN_POINT('',(0.814865100164,-1.15,-0.15));
#239 = VECTOR('',#240,1.);
#240 = DIRECTION('',(0.,-1.,0.));
#241 = ORIENTED_EDGE('',*,*,#242,.F.);
#242 = EDGE_CURVE('',#226,#235,#243,.T.);
#243 = LINE('',#244,#245);
#244 = CARTESIAN_POINT('',(-0.919896230895,-1.25,-0.15));
#245 = VECTOR('',#246,1.);
#246 = DIRECTION('',(1.,0.,0.));
#247 = PLANE('',#248);
#248 = AXIS2_PLACEMENT_3D('',#249,#250,#251);
#249 = CARTESIAN_POINT('',(4.336808689942E-16,-1.05,-0.15));
#250 = DIRECTION('',(0.,0.,1.));
#251 = DIRECTION('',(1.,0.,-0.));
#252 = ADVANCED_FACE('',(#253),#287,.T.);
#253 = FACE_BOUND('',#254,.T.);
#254 = EDGE_LOOP('',(#255,#265,#273,#281));
#255 = ORIENTED_EDGE('',*,*,#256,.T.);
#256 = EDGE_CURVE('',#257,#259,#261,.T.);
#257 = VERTEX_POINT('',#258);
#258 = CARTESIAN_POINT('',(-0.919896230895,0.85,0.));
#259 = VERTEX_POINT('',#260);
#260 = CARTESIAN_POINT('',(-0.814865100164,0.85,-0.15));
#261 = LINE('',#262,#263);
#262 = CARTESIAN_POINT('',(-0.867380665529,0.85,-7.5E-02));
#263 = VECTOR('',#264,1.);
#264 = DIRECTION('',(0.573576436351,-1.730623913416E-16,-0.819152044289)
  );
#265 = ORIENTED_EDGE('',*,*,#266,.T.);
#266 = EDGE_CURVE('',#259,#267,#269,.T.);
#267 = VERTEX_POINT('',#268);
#268 = CARTESIAN_POINT('',(0.814865100164,0.85,-0.15));
#269 = LINE('',#270,#271);
#270 = CARTESIAN_POINT('',(0.919896230895,0.85,-0.15));
#271 = VECTOR('',#272,1.);
#272 = DIRECTION('',(1.,-3.01725071627E-16,0.));
#273 = ORIENTED_EDGE('',*,*,#274,.T.);
#274 = EDGE_CURVE('',#267,#275,#277,.T.);
#275 = VERTEX_POINT('',#276);
#276 = CARTESIAN_POINT('',(0.919896230895,0.85,0.));
#277 = LINE('',#278,#279);
#278 = CARTESIAN_POINT('',(0.617259635815,0.85,-0.43220985003));
#279 = VECTOR('',#280,1.);
#280 = DIRECTION('',(0.573576436351,-1.730623913416E-16,0.819152044289)
  );
#281 = ORIENTED_EDGE('',*,*,#282,.F.);
#282 = EDGE_CURVE('',#257,#275,#283,.T.);
#283 = LINE('',#284,#285);
#284 = CARTESIAN_POINT('',(-0.459948115448,0.85,0.));
#285 = VECTOR('',#286,1.);
#286 = DIRECTION('',(1.,-3.01725071627E-16,0.));
#287 = PLANE('',#288);
#288 = AXIS2_PLACEMENT_3D('',#289,#290,#291);
#289 = CARTESIAN_POINT('',(-0.919896230895,0.85,0.));
#290 = DIRECTION('',(-3.01725071627E-16,-1.,0.));
#291 = DIRECTION('',(-0.,0.,-1.));
#292 = ADVANCED_FACE('',(#293),#318,.F.);
#293 = FACE_BOUND('',#294,.T.);
#294 = EDGE_LOOP('',(#295,#303,#311,#317));
#295 = ORIENTED_EDGE('',*,*,#296,.T.);
#296 = EDGE_CURVE('',#259,#297,#299,.T.);
#297 = VERTEX_POINT('',#298);
#298 = CARTESIAN_POINT('',(-0.814865100164,1.25,-0.15));
#299 = LINE('',#300,#301);
#300 = CARTESIAN_POINT('',(-0.814865100164,-0.1,-0.15));
#301 = VECTOR('',#302,1.);
#302 = DIRECTION('',(0.,1.,0.));
#303 = ORIENTED_EDGE('',*,*,#304,.F.);
#304 = EDGE_CURVE('',#305,#297,#307,.T.);
#305 = VERTEX_POINT('',#306);
#306 = CARTESIAN_POINT('',(0.814865100164,1.25,-0.15));
#307 = LINE('',#308,#309);
#308 = CARTESIAN_POINT('',(-0.919896230895,1.25,-0.15));
#309 = VECTOR('',#310,1.);
#310 = DIRECTION('',(-1.,0.,0.));
#311 = ORIENTED_EDGE('',*,*,#312,.T.);
#312 = EDGE_CURVE('',#305,#267,#313,.T.);
#313 = LINE('',#314,#315);
#314 = CARTESIAN_POINT('',(0.814865100164,-0.1,-0.15));
#315 = VECTOR('',#316,1.);
#316 = DIRECTION('',(0.,-1.,0.));
#317 = ORIENTED_EDGE('',*,*,#266,.F.);
#318 = PLANE('',#319);
#319 = AXIS2_PLACEMENT_3D('',#320,#321,#322);
#320 = CARTESIAN_POINT('',(6.071532165919E-16,1.05,-0.15));
#321 = DIRECTION('',(0.,0.,1.));
#322 = DIRECTION('',(1.,0.,-0.));
#323 = ADVANCED_FACE('',(#324),#349,.T.);
#324 = FACE_BOUND('',#325,.T.);
#325 = EDGE_LOOP('',(#326,#334,#335,#343));
#326 = ORIENTED_EDGE('',*,*,#327,.T.);
#327 = EDGE_CURVE('',#328,#115,#330,.T.);
#328 = VERTEX_POINT('',#329);
#329 = CARTESIAN_POINT('',(-0.919896230895,-0.85,2.5));
#330 = LINE('',#331,#332);
#331 = CARTESIAN_POINT('',(-0.919896230895,-0.85,2.5));
#332 = VECTOR('',#333,1.);
#333 = DIRECTION('',(0.573576436351,1.730623913416E-16,0.819152044289));
#334 = ORIENTED_EDGE('',*,*,#140,.T.);
#335 = ORIENTED_EDGE('',*,*,#336,.T.);
#336 = EDGE_CURVE('',#133,#337,#339,.T.);
#337 = VERTEX_POINT('',#338);
#338 = CARTESIAN_POINT('',(0.919896230895,-0.85,2.5));
#339 = LINE('',#340,#341);
#340 = CARTESIAN_POINT('',(0.56474407045,-0.85,3.00720985003));
#341 = VECTOR('',#342,1.);
#342 = DIRECTION('',(0.573576436351,1.730623913416E-16,-0.819152044289)
  );
#343 = ORIENTED_EDGE('',*,*,#344,.F.);
#344 = EDGE_CURVE('',#328,#337,#345,.T.);
#345 = LINE('',#346,#347);
#346 = CARTESIAN_POINT('',(-0.459948115448,-0.85,2.5));
#347 = VECTOR('',#348,1.);
#348 = DIRECTION('',(1.,3.01725071627E-16,0.));
#349 = PLANE('',#350);
#350 = AXIS2_PLACEMENT_3D('',#351,#352,#353);
#351 = CARTESIAN_POINT('',(-0.919896230895,-0.85,2.5));
#352 = DIRECTION('',(-3.01725071627E-16,1.,0.));
#353 = DIRECTION('',(0.,0.,1.));
#354 = ADVANCED_FACE('',(#355),#405,.F.);
#355 = FACE_BOUND('',#356,.T.);
#356 = EDGE_LOOP('',(#357,#367,#373,#374,#375,#381,#382,#383,#391,#399)
  );
#357 = ORIENTED_EDGE('',*,*,#358,.F.);
#358 = EDGE_CURVE('',#359,#361,#363,.T.);
#359 = VERTEX_POINT('',#360);
#360 = CARTESIAN_POINT('',(0.989916984716,-1.25,1.E-01));
#361 = VERTEX_POINT('',#362);
#362 = CARTESIAN_POINT('',(1.27,-0.85,0.5));
#363 = LINE('',#364,#365);
#364 = CARTESIAN_POINT('',(1.49494002561,-0.528752350789,0.821247649211)
  );
#365 = VECTOR('',#366,1.);
#366 = DIRECTION('',(0.44371260628,0.633687274225,0.633687274225));
#367 = ORIENTED_EDGE('',*,*,#368,.F.);
#368 = EDGE_CURVE('',#235,#359,#369,.T.);
#369 = LINE('',#370,#371);
#370 = CARTESIAN_POINT('',(0.977486537849,-1.25,8.224748208429E-02));
#371 = VECTOR('',#372,1.);
#372 = DIRECTION('',(0.573576436351,0.,0.819152044289));
#373 = ORIENTED_EDGE('',*,*,#234,.F.);
#374 = ORIENTED_EDGE('',*,*,#203,.F.);
#375 = ORIENTED_EDGE('',*,*,#376,.F.);
#376 = EDGE_CURVE('',#275,#196,#377,.T.);
#377 = LINE('',#378,#379);
#378 = CARTESIAN_POINT('',(0.919896230895,-0.625,4.336808689942E-18));
#379 = VECTOR('',#380,1.);
#380 = DIRECTION('',(0.,-1.,0.));
#381 = ORIENTED_EDGE('',*,*,#274,.F.);
#382 = ORIENTED_EDGE('',*,*,#312,.F.);
#383 = ORIENTED_EDGE('',*,*,#384,.F.);
#384 = EDGE_CURVE('',#385,#305,#387,.T.);
#385 = VERTEX_POINT('',#386);
#386 = CARTESIAN_POINT('',(0.989916984716,1.25,1.E-01));
#387 = LINE('',#388,#389);
#388 = CARTESIAN_POINT('',(0.559669328861,1.25,-0.514457332115));
#389 = VECTOR('',#390,1.);
#390 = DIRECTION('',(-0.573576436351,0.,-0.819152044289));
#391 = ORIENTED_EDGE('',*,*,#392,.F.);
#392 = EDGE_CURVE('',#393,#385,#395,.T.);
#393 = VERTEX_POINT('',#394);
#394 = CARTESIAN_POINT('',(1.27,0.85,0.5));
#395 = LINE('',#396,#397);
#396 = CARTESIAN_POINT('',(1.762602314386,0.146490986593,1.203509013407)
  );
#397 = VECTOR('',#398,1.);
#398 = DIRECTION('',(-0.44371260628,0.633687274225,-0.633687274225));
#399 = ORIENTED_EDGE('',*,*,#400,.F.);
#400 = EDGE_CURVE('',#361,#393,#401,.T.);
#401 = LINE('',#402,#403);
#402 = CARTESIAN_POINT('',(1.27,-3.963906999144E-17,0.5));
#403 = VECTOR('',#404,1.);
#404 = DIRECTION('',(1.110223024625E-16,1.,1.585562799658E-16));
#405 = PLANE('',#406);
#406 = AXIS2_PLACEMENT_3D('',#407,#408,#409);
#407 = CARTESIAN_POINT('',(1.27,-1.25,0.5));
#408 = DIRECTION('',(-0.819152044289,0.,0.573576436351));
#409 = DIRECTION('',(0.573576436351,0.,0.819152044289));
#410 = ADVANCED_FACE('',(#411),#461,.F.);
#411 = FACE_BOUND('',#412,.T.);
#412 = EDGE_LOOP('',(#413,#423,#431,#439,#445,#446,#447,#453,#454,#455)
  );
#413 = ORIENTED_EDGE('',*,*,#414,.F.);
#414 = EDGE_CURVE('',#415,#417,#419,.T.);
#415 = VERTEX_POINT('',#416);
#416 = CARTESIAN_POINT('',(-1.27,-0.85,0.5));
#417 = VERTEX_POINT('',#418);
#418 = CARTESIAN_POINT('',(-0.989916984716,-1.25,0.1));
#419 = LINE('',#420,#421);
#420 = CARTESIAN_POINT('',(-1.306375397821,-0.798050548107,
    0.551949451893));
#421 = VECTOR('',#422,1.);
#422 = DIRECTION('',(0.44371260628,-0.633687274225,-0.633687274225));
#423 = ORIENTED_EDGE('',*,*,#424,.F.);
#424 = EDGE_CURVE('',#425,#415,#427,.T.);
#425 = VERTEX_POINT('',#426);
#426 = CARTESIAN_POINT('',(-1.27,0.85,0.5));
#427 = LINE('',#428,#429);
#428 = CARTESIAN_POINT('',(-1.27,-1.25,0.5));
#429 = VECTOR('',#430,1.);
#430 = DIRECTION('',(1.110223024625E-16,-1.,-1.585562799658E-16));
#431 = ORIENTED_EDGE('',*,*,#432,.F.);
#432 = EDGE_CURVE('',#433,#425,#435,.T.);
#433 = VERTEX_POINT('',#434);
#434 = CARTESIAN_POINT('',(-0.989916984716,1.25,1.E-01));
#435 = LINE('',#436,#437);
#436 = CARTESIAN_POINT('',(-1.741650689076,0.176413008517,1.173586991483
    ));
#437 = VECTOR('',#438,1.);
#438 = DIRECTION('',(-0.44371260628,-0.633687274225,0.633687274225));
#439 = ORIENTED_EDGE('',*,*,#440,.F.);
#440 = EDGE_CURVE('',#297,#433,#441,.T.);
#441 = LINE('',#442,#443);
#442 = CARTESIAN_POINT('',(-0.977486537849,1.25,8.224748208429E-02));
#443 = VECTOR('',#444,1.);
#444 = DIRECTION('',(-0.573576436351,0.,0.819152044289));
#445 = ORIENTED_EDGE('',*,*,#296,.F.);
#446 = ORIENTED_EDGE('',*,*,#256,.F.);
#447 = ORIENTED_EDGE('',*,*,#448,.F.);
#448 = EDGE_CURVE('',#188,#257,#449,.T.);
#449 = LINE('',#450,#451);
#450 = CARTESIAN_POINT('',(-0.919896230895,-0.625,-3.469446951954E-17));
#451 = VECTOR('',#452,1.);
#452 = DIRECTION('',(0.,1.,0.));
#453 = ORIENTED_EDGE('',*,*,#185,.F.);
#454 = ORIENTED_EDGE('',*,*,#225,.F.);
#455 = ORIENTED_EDGE('',*,*,#456,.F.);
#456 = EDGE_CURVE('',#417,#226,#457,.T.);
#457 = LINE('',#458,#459);
#458 = CARTESIAN_POINT('',(-0.507153763495,-1.25,-0.589457332115));
#459 = VECTOR('',#460,1.);
#460 = DIRECTION('',(0.573576436351,0.,-0.819152044289));
#461 = PLANE('',#462);
#462 = AXIS2_PLACEMENT_3D('',#463,#464,#465);
#463 = CARTESIAN_POINT('',(-0.919896230895,-1.25,8.574786002859E-17));
#464 = DIRECTION('',(0.819152044289,0.,0.573576436351));
#465 = DIRECTION('',(0.573576436351,0.,-0.819152044289));
#466 = ADVANCED_FACE('',(#467),#492,.T.);
#467 = FACE_BOUND('',#468,.T.);
#468 = EDGE_LOOP('',(#469,#470,#478,#486));
#469 = ORIENTED_EDGE('',*,*,#400,.T.);
#470 = ORIENTED_EDGE('',*,*,#471,.T.);
#471 = EDGE_CURVE('',#393,#472,#474,.T.);
#472 = VERTEX_POINT('',#473);
#473 = CARTESIAN_POINT('',(1.27,0.85,2.));
#474 = LINE('',#475,#476);
#475 = CARTESIAN_POINT('',(1.27,0.85,1.25));
#476 = VECTOR('',#477,1.);
#477 = DIRECTION('',(0.,0.,1.));
#478 = ORIENTED_EDGE('',*,*,#479,.T.);
#479 = EDGE_CURVE('',#472,#480,#482,.T.);
#480 = VERTEX_POINT('',#481);
#481 = CARTESIAN_POINT('',(1.27,-0.85,2.));
#482 = LINE('',#483,#484);
#483 = CARTESIAN_POINT('',(1.27,9.948254670091E-17,2.));
#484 = VECTOR('',#485,1.);
#485 = DIRECTION('',(-1.110223024625E-16,-1.,1.585562799658E-16));
#486 = ORIENTED_EDGE('',*,*,#487,.T.);
#487 = EDGE_CURVE('',#480,#361,#488,.T.);
#488 = LINE('',#489,#490);
#489 = CARTESIAN_POINT('',(1.27,-0.85,1.25));
#490 = VECTOR('',#491,1.);
#491 = DIRECTION('',(0.,0.,-1.));
#492 = PLANE('',#493);
#493 = AXIS2_PLACEMENT_3D('',#494,#495,#496);
#494 = CARTESIAN_POINT('',(1.27,1.25,0.));
#495 = DIRECTION('',(1.,-1.110223024625E-16,0.));
#496 = DIRECTION('',(0.,0.,-1.));
#497 = ADVANCED_FACE('',(#498),#516,.F.);
#498 = FACE_BOUND('',#499,.T.);
#499 = EDGE_LOOP('',(#500,#501,#509,#515));
#500 = ORIENTED_EDGE('',*,*,#392,.T.);
#501 = ORIENTED_EDGE('',*,*,#502,.F.);
#502 = EDGE_CURVE('',#503,#385,#505,.T.);
#503 = VERTEX_POINT('',#504);
#504 = CARTESIAN_POINT('',(0.989916984716,1.25,2.4));
#505 = LINE('',#506,#507);
#506 = CARTESIAN_POINT('',(0.989916984716,1.25,1.25));
#507 = VECTOR('',#508,1.);
#508 = DIRECTION('',(0.,0.,-1.));
#509 = ORIENTED_EDGE('',*,*,#510,.T.);
#510 = EDGE_CURVE('',#503,#472,#511,.T.);
#511 = LINE('',#512,#513);
#512 = CARTESIAN_POINT('',(1.306375397821,0.798050548107,1.948050548107)
  );
#513 = VECTOR('',#514,1.);
#514 = DIRECTION('',(0.44371260628,-0.633687274225,-0.633687274225));
#515 = ORIENTED_EDGE('',*,*,#471,.F.);
#516 = PLANE('',#517);
#517 = AXIS2_PLACEMENT_3D('',#518,#519,#520);
#518 = CARTESIAN_POINT('',(0.989916984716,1.25,2.5));
#519 = DIRECTION('',(-0.819152044289,-0.573576436351,0.));
#520 = DIRECTION('',(0.,0.,1.));
#521 = ADVANCED_FACE('',(#522),#547,.F.);
#522 = FACE_BOUND('',#523,.T.);
#523 = EDGE_LOOP('',(#524,#525,#533,#541));
#524 = ORIENTED_EDGE('',*,*,#414,.T.);
#525 = ORIENTED_EDGE('',*,*,#526,.F.);
#526 = EDGE_CURVE('',#527,#417,#529,.T.);
#527 = VERTEX_POINT('',#528);
#528 = CARTESIAN_POINT('',(-0.989916984716,-1.25,2.4));
#529 = LINE('',#530,#531);
#530 = CARTESIAN_POINT('',(-0.989916984716,-1.25,1.25));
#531 = VECTOR('',#532,1.);
#532 = DIRECTION('',(0.,0.,-1.));
#533 = ORIENTED_EDGE('',*,*,#534,.T.);
#534 = EDGE_CURVE('',#527,#535,#537,.T.);
#535 = VERTEX_POINT('',#536);
#536 = CARTESIAN_POINT('',(-1.27,-0.85,2.));
#537 = LINE('',#538,#539);
#538 = CARTESIAN_POINT('',(-1.059664734355,-1.150389890379,
    2.300389890379));
#539 = VECTOR('',#540,1.);
#540 = DIRECTION('',(-0.44371260628,0.633687274225,-0.633687274225));
#541 = ORIENTED_EDGE('',*,*,#542,.F.);
#542 = EDGE_CURVE('',#415,#535,#543,.T.);
#543 = LINE('',#544,#545);
#544 = CARTESIAN_POINT('',(-1.27,-0.85,1.25));
#545 = VECTOR('',#546,1.);
#546 = DIRECTION('',(0.,0.,1.));
#547 = PLANE('',#548);
#548 = AXIS2_PLACEMENT_3D('',#549,#550,#551);
#549 = CARTESIAN_POINT('',(-0.989916984716,-1.25,2.5));
#550 = DIRECTION('',(0.819152044289,0.573576436351,0.));
#551 = DIRECTION('',(0.,0.,-1.));
#552 = ADVANCED_FACE('',(#553),#580,.T.);
#553 = FACE_BOUND('',#554,.T.);
#554 = EDGE_LOOP('',(#555,#563,#564,#570,#571,#572,#573,#574));
#555 = ORIENTED_EDGE('',*,*,#556,.T.);
#556 = EDGE_CURVE('',#557,#75,#559,.T.);
#557 = VERTEX_POINT('',#558);
#558 = CARTESIAN_POINT('',(-0.989916984716,1.25,2.4));
#559 = LINE('',#560,#561);
#560 = CARTESIAN_POINT('',(-1.564794425841,1.25,1.578989928337));
#561 = VECTOR('',#562,1.);
#562 = DIRECTION('',(0.573576436351,0.,0.819152044289));
#563 = ORIENTED_EDGE('',*,*,#100,.T.);
#564 = ORIENTED_EDGE('',*,*,#565,.T.);
#565 = EDGE_CURVE('',#93,#503,#566,.T.);
#566 = LINE('',#567,#568);
#567 = CARTESIAN_POINT('',(1.094461651487,1.25,2.250694742536));
#568 = VECTOR('',#569,1.);
#569 = DIRECTION('',(0.573576436351,0.,-0.819152044289));
#570 = ORIENTED_EDGE('',*,*,#502,.T.);
#571 = ORIENTED_EDGE('',*,*,#384,.T.);
#572 = ORIENTED_EDGE('',*,*,#304,.T.);
#573 = ORIENTED_EDGE('',*,*,#440,.T.);
#574 = ORIENTED_EDGE('',*,*,#575,.T.);
#575 = EDGE_CURVE('',#433,#557,#576,.T.);
#576 = LINE('',#577,#578);
#577 = CARTESIAN_POINT('',(-0.989916984716,1.25,1.25));
#578 = VECTOR('',#579,1.);
#579 = DIRECTION('',(0.,0.,1.));
#580 = PLANE('',#581);
#581 = AXIS2_PLACEMENT_3D('',#582,#583,#584);
#582 = CARTESIAN_POINT('',(-1.27,1.25,0.));
#583 = DIRECTION('',(0.,1.,0.));
#584 = DIRECTION('',(0.,-0.,1.));
#585 = ADVANCED_FACE('',(#586),#615,.F.);
#586 = FACE_BOUND('',#587,.T.);
#587 = EDGE_LOOP('',(#588,#589,#590,#591,#592,#598,#599,#600,#608,#614)
  );
#588 = ORIENTED_EDGE('',*,*,#510,.F.);
#589 = ORIENTED_EDGE('',*,*,#565,.F.);
#590 = ORIENTED_EDGE('',*,*,#92,.F.);
#591 = ORIENTED_EDGE('',*,*,#170,.F.);
#592 = ORIENTED_EDGE('',*,*,#593,.F.);
#593 = EDGE_CURVE('',#337,#163,#594,.T.);
#594 = LINE('',#595,#596);
#595 = CARTESIAN_POINT('',(0.919896230895,-0.625,2.5));
#596 = VECTOR('',#597,1.);
#597 = DIRECTION('',(0.,1.,0.));
#598 = ORIENTED_EDGE('',*,*,#336,.F.);
#599 = ORIENTED_EDGE('',*,*,#132,.F.);
#600 = ORIENTED_EDGE('',*,*,#601,.F.);
#601 = EDGE_CURVE('',#602,#125,#604,.T.);
#602 = VERTEX_POINT('',#603);
#603 = CARTESIAN_POINT('',(0.989916984716,-1.25,2.4));
#604 = LINE('',#605,#606);
#605 = CARTESIAN_POINT('',(1.512278860475,-1.25,1.653989928337));
#606 = VECTOR('',#607,1.);
#607 = DIRECTION('',(-0.573576436351,0.,0.819152044289));
#608 = ORIENTED_EDGE('',*,*,#609,.F.);
#609 = EDGE_CURVE('',#480,#602,#610,.T.);
#610 = LINE('',#611,#612);
#611 = CARTESIAN_POINT('',(1.038713109045,-1.180311912303,2.330311912303
    ));
#612 = VECTOR('',#613,1.);
#613 = DIRECTION('',(-0.44371260628,-0.633687274225,0.633687274225));
#614 = ORIENTED_EDGE('',*,*,#479,.F.);
#615 = PLANE('',#616);
#616 = AXIS2_PLACEMENT_3D('',#617,#618,#619);
#617 = CARTESIAN_POINT('',(0.919896230895,-1.25,2.5));
#618 = DIRECTION('',(-0.819152044289,0.,-0.573576436351));
#619 = DIRECTION('',(-0.573576436351,0.,0.819152044289));
#620 = ADVANCED_FACE('',(#621),#632,.F.);
#621 = FACE_BOUND('',#622,.T.);
#622 = EDGE_LOOP('',(#623,#624,#625,#626));
#623 = ORIENTED_EDGE('',*,*,#358,.T.);
#624 = ORIENTED_EDGE('',*,*,#487,.F.);
#625 = ORIENTED_EDGE('',*,*,#609,.T.);
#626 = ORIENTED_EDGE('',*,*,#627,.F.);
#627 = EDGE_CURVE('',#359,#602,#628,.T.);
#628 = LINE('',#629,#630);
#629 = CARTESIAN_POINT('',(0.989916984716,-1.25,1.25));
#630 = VECTOR('',#631,1.);
#631 = DIRECTION('',(0.,0.,1.));
#632 = PLANE('',#633);
#633 = AXIS2_PLACEMENT_3D('',#634,#635,#636);
#634 = CARTESIAN_POINT('',(1.27,-0.85,2.5));
#635 = DIRECTION('',(-0.819152044289,0.573576436351,0.));
#636 = DIRECTION('',(0.,0.,1.));
#637 = ADVANCED_FACE('',(#638),#653,.T.);
#638 = FACE_BOUND('',#639,.T.);
#639 = EDGE_LOOP('',(#640,#646,#647,#648,#649,#650,#651,#652));
#640 = ORIENTED_EDGE('',*,*,#641,.T.);
#641 = EDGE_CURVE('',#117,#527,#642,.T.);
#642 = LINE('',#643,#644);
#643 = CARTESIAN_POINT('',(-1.322029101405,-1.25,1.925694742536));
#644 = VECTOR('',#645,1.);
#645 = DIRECTION('',(-0.573576436351,0.,-0.819152044289));
#646 = ORIENTED_EDGE('',*,*,#526,.T.);
#647 = ORIENTED_EDGE('',*,*,#456,.T.);
#648 = ORIENTED_EDGE('',*,*,#242,.T.);
#649 = ORIENTED_EDGE('',*,*,#368,.T.);
#650 = ORIENTED_EDGE('',*,*,#627,.T.);
#651 = ORIENTED_EDGE('',*,*,#601,.T.);
#652 = ORIENTED_EDGE('',*,*,#124,.T.);
#653 = PLANE('',#654);
#654 = AXIS2_PLACEMENT_3D('',#655,#656,#657);
#655 = CARTESIAN_POINT('',(1.27,-1.25,0.));
#656 = DIRECTION('',(0.,-1.,0.));
#657 = DIRECTION('',(0.,0.,-1.));
#658 = ADVANCED_FACE('',(#659),#688,.F.);
#659 = FACE_BOUND('',#660,.T.);
#660 = EDGE_LOOP('',(#661,#662,#670,#676,#677,#678,#679,#680,#686,#687)
  );
#661 = ORIENTED_EDGE('',*,*,#556,.F.);
#662 = ORIENTED_EDGE('',*,*,#663,.F.);
#663 = EDGE_CURVE('',#664,#557,#666,.T.);
#664 = VERTEX_POINT('',#665);
#665 = CARTESIAN_POINT('',(-1.27,0.85,2.));
#666 = LINE('',#667,#668);
#667 = CARTESIAN_POINT('',(-1.49494002561,0.528752350789,1.678752350789)
  );
#668 = VECTOR('',#669,1.);
#669 = DIRECTION('',(0.44371260628,0.633687274225,0.633687274225));
#670 = ORIENTED_EDGE('',*,*,#671,.F.);
#671 = EDGE_CURVE('',#535,#664,#672,.T.);
#672 = LINE('',#673,#674);
#673 = CARTESIAN_POINT('',(-1.27,-1.25,2.));
#674 = VECTOR('',#675,1.);
#675 = DIRECTION('',(-1.110223024625E-16,1.,-1.585562799658E-16));
#676 = ORIENTED_EDGE('',*,*,#534,.F.);
#677 = ORIENTED_EDGE('',*,*,#641,.F.);
#678 = ORIENTED_EDGE('',*,*,#114,.F.);
#679 = ORIENTED_EDGE('',*,*,#327,.F.);
#680 = ORIENTED_EDGE('',*,*,#681,.F.);
#681 = EDGE_CURVE('',#155,#328,#682,.T.);
#682 = LINE('',#683,#684);
#683 = CARTESIAN_POINT('',(-0.919896230895,-0.625,2.5));
#684 = VECTOR('',#685,1.);
#685 = DIRECTION('',(0.,-1.,0.));
#686 = ORIENTED_EDGE('',*,*,#154,.F.);
#687 = ORIENTED_EDGE('',*,*,#74,.F.);
#688 = PLANE('',#689);
#689 = AXIS2_PLACEMENT_3D('',#690,#691,#692);
#690 = CARTESIAN_POINT('',(-1.27,-1.25,2.));
#691 = DIRECTION('',(0.819152044289,0.,-0.573576436351));
#692 = DIRECTION('',(-0.573576436351,0.,-0.819152044289));
#693 = ADVANCED_FACE('',(#694,#700),#734,.T.);
#694 = FACE_BOUND('',#695,.T.);
#695 = EDGE_LOOP('',(#696,#697,#698,#699));
#696 = ORIENTED_EDGE('',*,*,#162,.T.);
#697 = ORIENTED_EDGE('',*,*,#681,.T.);
#698 = ORIENTED_EDGE('',*,*,#344,.T.);
#699 = ORIENTED_EDGE('',*,*,#593,.T.);
#700 = FACE_BOUND('',#701,.T.);
#701 = EDGE_LOOP('',(#702,#712,#720,#728));
#702 = ORIENTED_EDGE('',*,*,#703,.F.);
#703 = EDGE_CURVE('',#704,#706,#708,.T.);
#704 = VERTEX_POINT('',#705);
#705 = CARTESIAN_POINT('',(-0.515,0.5075,2.5));
#706 = VERTEX_POINT('',#707);
#707 = CARTESIAN_POINT('',(-0.515,-0.5075,2.5));
#708 = LINE('',#709,#710);
#709 = CARTESIAN_POINT('',(-0.515,7.6875E-02,2.5));
#710 = VECTOR('',#711,1.);
#711 = DIRECTION('',(0.,-1.,0.));
#712 = ORIENTED_EDGE('',*,*,#713,.F.);
#713 = EDGE_CURVE('',#714,#704,#716,.T.);
#714 = VERTEX_POINT('',#715);
#715 = CARTESIAN_POINT('',(0.515,0.5075,2.5));
#716 = LINE('',#717,#718);
#717 = CARTESIAN_POINT('',(0.1575,0.5075,2.5));
#718 = VECTOR('',#719,1.);
#719 = DIRECTION('',(-1.,7.159176250063E-16,0.));
#720 = ORIENTED_EDGE('',*,*,#721,.F.);
#721 = EDGE_CURVE('',#722,#714,#724,.T.);
#722 = VERTEX_POINT('',#723);
#723 = CARTESIAN_POINT('',(0.515,-0.5075,2.5));
#724 = LINE('',#725,#726);
#725 = CARTESIAN_POINT('',(0.515,-0.15375,2.5));
#726 = VECTOR('',#727,1.);
#727 = DIRECTION('',(-2.256550863059E-16,1.,0.));
#728 = ORIENTED_EDGE('',*,*,#729,.F.);
#729 = EDGE_CURVE('',#706,#722,#730,.T.);
#730 = LINE('',#731,#732);
#731 = CARTESIAN_POINT('',(-0.1575,-0.5075,2.5));
#732 = VECTOR('',#733,1.);
#733 = DIRECTION('',(1.,-7.709882115452E-16,0.));
#734 = PLANE('',#735);
#735 = AXIS2_PLACEMENT_3D('',#736,#737,#738);
#736 = CARTESIAN_POINT('',(0.,5.061487544625E-17,2.5));
#737 = DIRECTION('',(0.,0.,1.));
#738 = DIRECTION('',(1.,0.,-0.));
#739 = ADVANCED_FACE('',(#740),#774,.T.);
#740 = FACE_BOUND('',#741,.T.);
#741 = EDGE_LOOP('',(#742,#752,#760,#768));
#742 = ORIENTED_EDGE('',*,*,#743,.T.);
#743 = EDGE_CURVE('',#744,#746,#748,.T.);
#744 = VERTEX_POINT('',#745);
#745 = CARTESIAN_POINT('',(0.315,0.3075,0.2));
#746 = VERTEX_POINT('',#747);
#747 = CARTESIAN_POINT('',(-0.315,0.3075,0.2));
#748 = LINE('',#749,#750);
#749 = CARTESIAN_POINT('',(0.1575,0.3075,0.2));
#750 = VECTOR('',#751,1.);
#751 = DIRECTION('',(-1.,7.159176250063E-16,0.));
#752 = ORIENTED_EDGE('',*,*,#753,.T.);
#753 = EDGE_CURVE('',#746,#754,#756,.T.);
#754 = VERTEX_POINT('',#755);
#755 = CARTESIAN_POINT('',(-0.515,0.5075,0.));
#756 = LINE('',#757,#758);
#757 = CARTESIAN_POINT('',(-0.315,0.3075,0.2));
#758 = VECTOR('',#759,1.);
#759 = DIRECTION('',(-0.57735026919,0.57735026919,-0.57735026919));
#760 = ORIENTED_EDGE('',*,*,#761,.T.);
#761 = EDGE_CURVE('',#754,#762,#764,.T.);
#762 = VERTEX_POINT('',#763);
#763 = CARTESIAN_POINT('',(0.515,0.5075,0.));
#764 = LINE('',#765,#766);
#765 = CARTESIAN_POINT('',(0.1575,0.5075,0.));
#766 = VECTOR('',#767,1.);
#767 = DIRECTION('',(1.,-7.159176250063E-16,0.));
#768 = ORIENTED_EDGE('',*,*,#769,.T.);
#769 = EDGE_CURVE('',#762,#744,#770,.T.);
#770 = LINE('',#771,#772);
#771 = CARTESIAN_POINT('',(0.515,0.5075,0.));
#772 = VECTOR('',#773,1.);
#773 = DIRECTION('',(-0.57735026919,-0.57735026919,0.57735026919));
#774 = PLANE('',#775);
#775 = AXIS2_PLACEMENT_3D('',#776,#777,#778);
#776 = CARTESIAN_POINT('',(0.1575,0.4075,0.1));
#777 = DIRECTION('',(-5.062302074129E-16,-0.707106781187,-0.707106781187
    ));
#778 = DIRECTION('',(-1.,-2.958228394579E-31,7.159176250063E-16));
#779 = ADVANCED_FACE('',(#780),#805,.T.);
#780 = FACE_BOUND('',#781,.T.);
#781 = EDGE_LOOP('',(#782,#790,#791,#799));
#782 = ORIENTED_EDGE('',*,*,#783,.T.);
#783 = EDGE_CURVE('',#784,#744,#786,.T.);
#784 = VERTEX_POINT('',#785);
#785 = CARTESIAN_POINT('',(0.315,-0.3075,0.2));
#786 = LINE('',#787,#788);
#787 = CARTESIAN_POINT('',(0.315,-0.15375,0.2));
#788 = VECTOR('',#789,1.);
#789 = DIRECTION('',(-2.256550863059E-16,1.,0.));
#790 = ORIENTED_EDGE('',*,*,#769,.F.);
#791 = ORIENTED_EDGE('',*,*,#792,.T.);
#792 = EDGE_CURVE('',#762,#793,#795,.T.);
#793 = VERTEX_POINT('',#794);
#794 = CARTESIAN_POINT('',(0.515,-0.5075,0.));
#795 = LINE('',#796,#797);
#796 = CARTESIAN_POINT('',(0.515,-0.15375,0.));
#797 = VECTOR('',#798,1.);
#798 = DIRECTION('',(2.256550863059E-16,-1.,0.));
#799 = ORIENTED_EDGE('',*,*,#800,.F.);
#800 = EDGE_CURVE('',#784,#793,#801,.T.);
#801 = LINE('',#802,#803);
#802 = CARTESIAN_POINT('',(0.315,-0.3075,0.2));
#803 = VECTOR('',#804,1.);
#804 = DIRECTION('',(0.57735026919,-0.57735026919,-0.57735026919));
#805 = PLANE('',#806);
#806 = AXIS2_PLACEMENT_3D('',#807,#808,#809);
#807 = CARTESIAN_POINT('',(0.415,-0.15375,0.1));
#808 = DIRECTION('',(-0.707106781187,-1.595622417362E-16,-0.707106781187
    ));
#809 = DIRECTION('',(-0.707106781187,-1.232595164408E-32,0.707106781187)
  );
#810 = ADVANCED_FACE('',(#811),#836,.T.);
#811 = FACE_BOUND('',#812,.T.);
#812 = EDGE_LOOP('',(#813,#821,#829,#835));
#813 = ORIENTED_EDGE('',*,*,#814,.T.);
#814 = EDGE_CURVE('',#746,#815,#817,.T.);
#815 = VERTEX_POINT('',#816);
#816 = CARTESIAN_POINT('',(-0.315,-0.3075,0.2));
#817 = LINE('',#818,#819);
#818 = CARTESIAN_POINT('',(-0.315,0.15375,0.2));
#819 = VECTOR('',#820,1.);
#820 = DIRECTION('',(0.,-1.,0.));
#821 = ORIENTED_EDGE('',*,*,#822,.T.);
#822 = EDGE_CURVE('',#815,#823,#825,.T.);
#823 = VERTEX_POINT('',#824);
#824 = CARTESIAN_POINT('',(-0.515,-0.5075,0.));
#825 = LINE('',#826,#827);
#826 = CARTESIAN_POINT('',(-0.315,-0.3075,0.2));
#827 = VECTOR('',#828,1.);
#828 = DIRECTION('',(-0.57735026919,-0.57735026919,-0.57735026919));
#829 = ORIENTED_EDGE('',*,*,#830,.T.);
#830 = EDGE_CURVE('',#823,#754,#831,.T.);
#831 = LINE('',#832,#833);
#832 = CARTESIAN_POINT('',(-0.515,0.15375,0.));
#833 = VECTOR('',#834,1.);
#834 = DIRECTION('',(0.,1.,0.));
#835 = ORIENTED_EDGE('',*,*,#753,.F.);
#836 = PLANE('',#837);
#837 = AXIS2_PLACEMENT_3D('',#838,#839,#840);
#838 = CARTESIAN_POINT('',(-0.415,0.15375,0.1));
#839 = DIRECTION('',(0.707106781187,0.,-0.707106781187));
#840 = DIRECTION('',(-0.707106781187,0.,-0.707106781187));
#841 = ADVANCED_FACE('',(#842),#858,.T.);
#842 = FACE_BOUND('',#843,.T.);
#843 = EDGE_LOOP('',(#844,#850,#851,#857));
#844 = ORIENTED_EDGE('',*,*,#845,.T.);
#845 = EDGE_CURVE('',#815,#784,#846,.T.);
#846 = LINE('',#847,#848);
#847 = CARTESIAN_POINT('',(-0.1575,-0.3075,0.2));
#848 = VECTOR('',#849,1.);
#849 = DIRECTION('',(1.,-7.709882115452E-16,0.));
#850 = ORIENTED_EDGE('',*,*,#800,.T.);
#851 = ORIENTED_EDGE('',*,*,#852,.T.);
#852 = EDGE_CURVE('',#793,#823,#853,.T.);
#853 = LINE('',#854,#855);
#854 = CARTESIAN_POINT('',(-0.1575,-0.5075,0.));
#855 = VECTOR('',#856,1.);
#856 = DIRECTION('',(-1.,7.709882115452E-16,0.));
#857 = ORIENTED_EDGE('',*,*,#822,.F.);
#858 = PLANE('',#859);
#859 = AXIS2_PLACEMENT_3D('',#860,#861,#862);
#860 = CARTESIAN_POINT('',(-0.1575,-0.4075,0.1));
#861 = DIRECTION('',(5.451709925985E-16,0.707106781187,-0.707106781187)
  );
#862 = DIRECTION('',(-1.,1.479114197289E-31,-7.709882115452E-16));
#863 = ADVANCED_FACE('',(#864),#889,.F.);
#864 = FACE_BOUND('',#865,.T.);
#865 = EDGE_LOOP('',(#866,#867,#875,#883));
#866 = ORIENTED_EDGE('',*,*,#814,.F.);
#867 = ORIENTED_EDGE('',*,*,#868,.F.);
#868 = EDGE_CURVE('',#869,#746,#871,.T.);
#869 = VERTEX_POINT('',#870);
#870 = CARTESIAN_POINT('',(-0.315,0.3075,2.3));
#871 = LINE('',#872,#873);
#872 = CARTESIAN_POINT('',(-0.315,0.3075,2.5));
#873 = VECTOR('',#874,1.);
#874 = DIRECTION('',(0.,0.,-1.));
#875 = ORIENTED_EDGE('',*,*,#876,.F.);
#876 = EDGE_CURVE('',#877,#869,#879,.T.);
#877 = VERTEX_POINT('',#878);
#878 = CARTESIAN_POINT('',(-0.315,-0.3075,2.3));
#879 = LINE('',#880,#881);
#880 = CARTESIAN_POINT('',(-0.315,0.15375,2.3));
#881 = VECTOR('',#882,1.);
#882 = DIRECTION('',(0.,1.,0.));
#883 = ORIENTED_EDGE('',*,*,#884,.T.);
#884 = EDGE_CURVE('',#877,#815,#885,.T.);
#885 = LINE('',#886,#887);
#886 = CARTESIAN_POINT('',(-0.315,-0.3075,2.5));
#887 = VECTOR('',#888,1.);
#888 = DIRECTION('',(0.,0.,-1.));
#889 = PLANE('',#890);
#890 = AXIS2_PLACEMENT_3D('',#891,#892,#893);
#891 = CARTESIAN_POINT('',(-0.315,0.3075,2.5));
#892 = DIRECTION('',(-1.,0.,0.));
#893 = DIRECTION('',(0.,0.,1.));
#894 = ADVANCED_FACE('',(#895),#913,.F.);
#895 = FACE_BOUND('',#896,.T.);
#896 = EDGE_LOOP('',(#897,#898,#906,#912));
#897 = ORIENTED_EDGE('',*,*,#743,.F.);
#898 = ORIENTED_EDGE('',*,*,#899,.F.);
#899 = EDGE_CURVE('',#900,#744,#902,.T.);
#900 = VERTEX_POINT('',#901);
#901 = CARTESIAN_POINT('',(0.315,0.3075,2.3));
#902 = LINE('',#903,#904);
#903 = CARTESIAN_POINT('',(0.315,0.3075,2.5));
#904 = VECTOR('',#905,1.);
#905 = DIRECTION('',(0.,0.,-1.));
#906 = ORIENTED_EDGE('',*,*,#907,.F.);
#907 = EDGE_CURVE('',#869,#900,#908,.T.);
#908 = LINE('',#909,#910);
#909 = CARTESIAN_POINT('',(0.1575,0.3075,2.3));
#910 = VECTOR('',#911,1.);
#911 = DIRECTION('',(1.,-7.159176250063E-16,0.));
#912 = ORIENTED_EDGE('',*,*,#868,.T.);
#913 = PLANE('',#914);
#914 = AXIS2_PLACEMENT_3D('',#915,#916,#917);
#915 = CARTESIAN_POINT('',(0.315,0.3075,2.5));
#916 = DIRECTION('',(7.159176250063E-16,1.,0.));
#917 = DIRECTION('',(0.,-0.,1.));
#918 = ADVANCED_FACE('',(#919,#925),#931,.F.);
#919 = FACE_BOUND('',#920,.T.);
#920 = EDGE_LOOP('',(#921,#922,#923,#924));
#921 = ORIENTED_EDGE('',*,*,#282,.T.);
#922 = ORIENTED_EDGE('',*,*,#376,.T.);
#923 = ORIENTED_EDGE('',*,*,#195,.T.);
#924 = ORIENTED_EDGE('',*,*,#448,.T.);
#925 = FACE_BOUND('',#926,.T.);
#926 = EDGE_LOOP('',(#927,#928,#929,#930));
#927 = ORIENTED_EDGE('',*,*,#761,.F.);
#928 = ORIENTED_EDGE('',*,*,#830,.F.);
#929 = ORIENTED_EDGE('',*,*,#852,.F.);
#930 = ORIENTED_EDGE('',*,*,#792,.F.);
#931 = PLANE('',#932);
#932 = AXIS2_PLACEMENT_3D('',#933,#934,#935);
#933 = CARTESIAN_POINT('',(0.,8.816300263189E-17,0.));
#934 = DIRECTION('',(0.,0.,1.));
#935 = DIRECTION('',(1.,0.,-0.));
#936 = ADVANCED_FACE('',(#937),#960,.T.);
#937 = FACE_BOUND('',#938,.T.);
#938 = EDGE_LOOP('',(#939,#945,#946,#954));
#939 = ORIENTED_EDGE('',*,*,#940,.F.);
#940 = EDGE_CURVE('',#706,#877,#941,.T.);
#941 = LINE('',#942,#943);
#942 = CARTESIAN_POINT('',(-0.278541666667,-0.271041666667,
    2.263541666667));
#943 = VECTOR('',#944,1.);
#944 = DIRECTION('',(0.57735026919,0.57735026919,-0.57735026919));
#945 = ORIENTED_EDGE('',*,*,#729,.T.);
#946 = ORIENTED_EDGE('',*,*,#947,.T.);
#947 = EDGE_CURVE('',#722,#948,#950,.T.);
#948 = VERTEX_POINT('',#949);
#949 = CARTESIAN_POINT('',(0.315,-0.3075,2.3));
#950 = LINE('',#951,#952);
#951 = CARTESIAN_POINT('',(0.515,-0.5075,2.5));
#952 = VECTOR('',#953,1.);
#953 = DIRECTION('',(-0.57735026919,0.57735026919,-0.57735026919));
#954 = ORIENTED_EDGE('',*,*,#955,.T.);
#955 = EDGE_CURVE('',#948,#877,#956,.T.);
#956 = LINE('',#957,#958);
#957 = CARTESIAN_POINT('',(-0.1575,-0.3075,2.3));
#958 = VECTOR('',#959,1.);
#959 = DIRECTION('',(-1.,7.709882115452E-16,0.));
#960 = PLANE('',#961);
#961 = AXIS2_PLACEMENT_3D('',#962,#963,#964);
#962 = CARTESIAN_POINT('',(-0.1575,-0.4075,2.4));
#963 = DIRECTION('',(5.451709925985E-16,0.707106781187,0.707106781187));
#964 = DIRECTION('',(1.,-1.479114197289E-31,-7.709882115452E-16));
#965 = ADVANCED_FACE('',(#966),#982,.T.);
#966 = FACE_BOUND('',#967,.T.);
#967 = EDGE_LOOP('',(#968,#974,#975,#981));
#968 = ORIENTED_EDGE('',*,*,#969,.F.);
#969 = EDGE_CURVE('',#869,#704,#970,.T.);
#970 = LINE('',#971,#972);
#971 = CARTESIAN_POINT('',(-0.277291666667,0.269791666667,2.262291666667
    ));
#972 = VECTOR('',#973,1.);
#973 = DIRECTION('',(-0.57735026919,0.57735026919,0.57735026919));
#974 = ORIENTED_EDGE('',*,*,#907,.T.);
#975 = ORIENTED_EDGE('',*,*,#976,.T.);
#976 = EDGE_CURVE('',#900,#714,#977,.T.);
#977 = LINE('',#978,#979);
#978 = CARTESIAN_POINT('',(0.315,0.3075,2.3));
#979 = VECTOR('',#980,1.);
#980 = DIRECTION('',(0.57735026919,0.57735026919,0.57735026919));
#981 = ORIENTED_EDGE('',*,*,#713,.T.);
#982 = PLANE('',#983);
#983 = AXIS2_PLACEMENT_3D('',#984,#985,#986);
#984 = CARTESIAN_POINT('',(0.1575,0.4075,2.4));
#985 = DIRECTION('',(-5.062302074129E-16,-0.707106781187,0.707106781187)
  );
#986 = DIRECTION('',(1.,-2.958228394579E-31,7.159176250063E-16));
#987 = ADVANCED_FACE('',(#988),#999,.T.);
#988 = FACE_BOUND('',#989,.T.);
#989 = EDGE_LOOP('',(#990,#996,#997,#998));
#990 = ORIENTED_EDGE('',*,*,#991,.T.);
#991 = EDGE_CURVE('',#900,#948,#992,.T.);
#992 = LINE('',#993,#994);
#993 = CARTESIAN_POINT('',(0.315,-0.15375,2.3));
#994 = VECTOR('',#995,1.);
#995 = DIRECTION('',(2.256550863059E-16,-1.,0.));
#996 = ORIENTED_EDGE('',*,*,#947,.F.);
#997 = ORIENTED_EDGE('',*,*,#721,.T.);
#998 = ORIENTED_EDGE('',*,*,#976,.F.);
#999 = PLANE('',#1000);
#1000 = AXIS2_PLACEMENT_3D('',#1001,#1002,#1003);
#1001 = CARTESIAN_POINT('',(0.415,-0.15375,2.4));
#1002 = DIRECTION('',(-0.707106781187,-1.595622417362E-16,0.707106781187
    ));
#1003 = DIRECTION('',(0.707106781187,1.232595164408E-32,0.707106781187)
  );
#1004 = ADVANCED_FACE('',(#1005),#1016,.F.);
#1005 = FACE_BOUND('',#1006,.T.);
#1006 = EDGE_LOOP('',(#1007,#1008,#1009,#1010));
#1007 = ORIENTED_EDGE('',*,*,#845,.F.);
#1008 = ORIENTED_EDGE('',*,*,#884,.F.);
#1009 = ORIENTED_EDGE('',*,*,#955,.F.);
#1010 = ORIENTED_EDGE('',*,*,#1011,.T.);
#1011 = EDGE_CURVE('',#948,#784,#1012,.T.);
#1012 = LINE('',#1013,#1014);
#1013 = CARTESIAN_POINT('',(0.315,-0.3075,2.5));
#1014 = VECTOR('',#1015,1.);
#1015 = DIRECTION('',(0.,0.,-1.));
#1016 = PLANE('',#1017);
#1017 = AXIS2_PLACEMENT_3D('',#1018,#1019,#1020);
#1018 = CARTESIAN_POINT('',(-0.315,-0.3075,2.5));
#1019 = DIRECTION('',(-7.709882115452E-16,-1.,0.));
#1020 = DIRECTION('',(-0.,0.,-1.));
#1021 = ADVANCED_FACE('',(#1022),#1028,.F.);
#1022 = FACE_BOUND('',#1023,.T.);
#1023 = EDGE_LOOP('',(#1024,#1025,#1026,#1027));
#1024 = ORIENTED_EDGE('',*,*,#783,.F.);
#1025 = ORIENTED_EDGE('',*,*,#1011,.F.);
#1026 = ORIENTED_EDGE('',*,*,#991,.F.);
#1027 = ORIENTED_EDGE('',*,*,#899,.T.);
#1028 = PLANE('',#1029);
#1029 = AXIS2_PLACEMENT_3D('',#1030,#1031,#1032);
#1030 = CARTESIAN_POINT('',(0.315,-0.3075,2.5));
#1031 = DIRECTION('',(1.,2.256550863059E-16,0.));
#1032 = DIRECTION('',(0.,0.,-1.));
#1033 = ADVANCED_FACE('',(#1034),#1040,.T.);
#1034 = FACE_BOUND('',#1035,.T.);
#1035 = EDGE_LOOP('',(#1036,#1037,#1038,#1039));
#1036 = ORIENTED_EDGE('',*,*,#876,.T.);
#1037 = ORIENTED_EDGE('',*,*,#969,.T.);
#1038 = ORIENTED_EDGE('',*,*,#703,.T.);
#1039 = ORIENTED_EDGE('',*,*,#940,.T.);
#1040 = PLANE('',#1041);
#1041 = AXIS2_PLACEMENT_3D('',#1042,#1043,#1044);
#1042 = CARTESIAN_POINT('',(-0.415,0.15375,2.4));
#1043 = DIRECTION('',(0.707106781187,0.,0.707106781187));
#1044 = DIRECTION('',(0.707106781187,0.,-0.707106781187));
#1045 = ADVANCED_FACE('',(#1046),#1057,.F.);
#1046 = FACE_BOUND('',#1047,.T.);
#1047 = EDGE_LOOP('',(#1048,#1049,#1055,#1056));
#1048 = ORIENTED_EDGE('',*,*,#432,.T.);
#1049 = ORIENTED_EDGE('',*,*,#1050,.F.);
#1050 = EDGE_CURVE('',#664,#425,#1051,.T.);
#1051 = LINE('',#1052,#1053);
#1052 = CARTESIAN_POINT('',(-1.27,0.85,1.25));
#1053 = VECTOR('',#1054,1.);
#1054 = DIRECTION('',(0.,0.,-1.));
#1055 = ORIENTED_EDGE('',*,*,#663,.T.);
#1056 = ORIENTED_EDGE('',*,*,#575,.F.);
#1057 = PLANE('',#1058);
#1058 = AXIS2_PLACEMENT_3D('',#1059,#1060,#1061);
#1059 = CARTESIAN_POINT('',(-1.27,0.85,2.5));
#1060 = DIRECTION('',(0.819152044289,-0.573576436351,0.));
#1061 = DIRECTION('',(0.,0.,-1.));
#1062 = ADVANCED_FACE('',(#1063),#1069,.T.);
#1063 = FACE_BOUND('',#1064,.T.);
#1064 = EDGE_LOOP('',(#1065,#1066,#1067,#1068));
#1065 = ORIENTED_EDGE('',*,*,#424,.T.);
#1066 = ORIENTED_EDGE('',*,*,#542,.T.);
#1067 = ORIENTED_EDGE('',*,*,#671,.T.);
#1068 = ORIENTED_EDGE('',*,*,#1050,.T.);
#1069 = PLANE('',#1070);
#1070 = AXIS2_PLACEMENT_3D('',#1071,#1072,#1073);
#1071 = CARTESIAN_POINT('',(-1.27,-1.25,0.));
#1072 = DIRECTION('',(-1.,-1.110223024625E-16,0.));
#1073 = DIRECTION('',(0.,0.,1.));
#1074 = ( GEOMETRIC_REPRESENTATION_CONTEXT(3) 
GLOBAL_UNCERTAINTY_ASSIGNED_CONTEXT((#1078)) 
GLOBAL_UNIT_ASSIGNED_CONTEXT((#1075,#1076,#1077)) REPRESENTATION_CONTEXT
('Context #1','3D Context with UNIT and UNCERTAINTY') );
#1075 = ( LENGTH_UNIT() NAMED_UNIT(*) SI_UNIT(.MILLI.,.METRE.) );
#1076 = ( NAMED_UNIT(*) PLANE_ANGLE_UNIT() SI_UNIT($,.RADIAN.) );
#1077 = ( NAMED_UNIT(*) SI_UNIT($,.STERADIAN.) SOLID_ANGLE_UNIT() );
#1078 = UNCERTAINTY_MEASURE_WITH_UNIT(LENGTH_MEASURE(1.E-07),#1075,
  'distance_accuracy_value','confusion accuracy');
#1079 = CONTEXT_DEPENDENT_SHAPE_REPRESENTATION(#1080,#1082);
#1080 = ( REPRESENTATION_RELATIONSHIP('','',#67,#32) 
REPRESENTATION_RELATIONSHIP_WITH_TRANSFORMATION(#1081) 
SHAPE_REPRESENTATION_RELATIONSHIP() );
#1081 = ITEM_DEFINED_TRANSFORMATION('','',#11,#33);
#1082 = PRODUCT_DEFINITION_SHAPE('Placement','Placement of an item',
  #1083);
#1083 = NEXT_ASSEMBLY_USAGE_OCCURRENCE('6','F1000S1120M007B001','',#27,
  #62,$);
#1084 = PRODUCT_RELATED_PRODUCT_CATEGORY('part',$,(#64));
#1085 = SHAPE_DEFINITION_REPRESENTATION(#1086,#1092);
#1086 = PRODUCT_DEFINITION_SHAPE('','',#1087);
#1087 = PRODUCT_DEFINITION('design','',#1088,#1091);
#1088 = PRODUCT_DEFINITION_FORMATION('','',#1089);
#1089 = PRODUCT('1039931_IAM_001','1039931_IAM_001','',(#1090));
#1090 = PRODUCT_CONTEXT('',#2,'mechanical');
#1091 = PRODUCT_DEFINITION_CONTEXT('part definition',#2,'design');
#1092 = SHAPE_REPRESENTATION('',(#11,#1093,#1097),#1101);
#1093 = AXIS2_PLACEMENT_3D('',#1094,#1095,#1096);
#1094 = CARTESIAN_POINT('',(0.,0.,0.));
#1095 = DIRECTION('',(0.,0.,1.));
#1096 = DIRECTION('',(1.,0.,0.));
#1097 = AXIS2_PLACEMENT_3D('',#1098,#1099,#1100);
#1098 = CARTESIAN_POINT('',(-4.51028103754E-16,0.574523821802,0.));
#1099 = DIRECTION('',(0.,0.,-1.));
#1100 = DIRECTION('',(1.,0.,0.));
#1101 = ( GEOMETRIC_REPRESENTATION_CONTEXT(3) 
GLOBAL_UNCERTAINTY_ASSIGNED_CONTEXT((#1105)) 
GLOBAL_UNIT_ASSIGNED_CONTEXT((#1102,#1103,#1104)) REPRESENTATION_CONTEXT
('Context #1','3D Context with UNIT and UNCERTAINTY') );
#1102 = ( LENGTH_UNIT() NAMED_UNIT(*) SI_UNIT(.MILLI.,.METRE.) );
#1103 = ( NAMED_UNIT(*) PLANE_ANGLE_UNIT() SI_UNIT($,.RADIAN.) );
#1104 = ( NAMED_UNIT(*) SI_UNIT($,.STERADIAN.) SOLID_ANGLE_UNIT() );
#1105 = UNCERTAINTY_MEASURE_WITH_UNIT(LENGTH_MEASURE(1.E-07),#1102,
  'distance_accuracy_value','confusion accuracy');
#1106 = CONTEXT_DEPENDENT_SHAPE_REPRESENTATION(#1107,#1109);
#1107 = ( REPRESENTATION_RELATIONSHIP('','',#1092,#32) 
REPRESENTATION_RELATIONSHIP_WITH_TRANSFORMATION(#1108) 
SHAPE_REPRESENTATION_RELATIONSHIP() );
#1108 = ITEM_DEFINED_TRANSFORMATION('','',#11,#37);
#1109 = PRODUCT_DEFINITION_SHAPE('Placement','Placement of an item',
  #1110);
#1110 = NEXT_ASSEMBLY_USAGE_OCCURRENCE('9','1039931_IAM_001','',#27,
  #1087,$);
#1111 = PRODUCT_RELATED_PRODUCT_CATEGORY('part',$,(#1089));
#1112 = SHAPE_DEFINITION_REPRESENTATION(#1113,#1119);
#1113 = PRODUCT_DEFINITION_SHAPE('','',#1114);
#1114 = PRODUCT_DEFINITION('design','',#1115,#1118);
#1115 = PRODUCT_DEFINITION_FORMATION('','',#1116);
#1116 = PRODUCT('1039929_IPT_001','1039929_IPT_001','',(#1117));
#1117 = PRODUCT_CONTEXT('',#2,'mechanical');
#1118 = PRODUCT_DEFINITION_CONTEXT('part definition',#2,'design');
#1119 = ADVANCED_BREP_SHAPE_REPRESENTATION('',(#11,#1120),#1534);
#1120 = MANIFOLD_SOLID_BREP('',#1121);
#1121 = CLOSED_SHELL('',(#1122,#1170,#1201,#1241,#1281,#1320,#1360,#1384
    ,#1416,#1447,#1472,#1489,#1510,#1522));
#1122 = ADVANCED_FACE('',(#1123),#1165,.T.);
#1123 = FACE_BOUND('',#1124,.T.);
#1124 = EDGE_LOOP('',(#1125,#1135,#1143,#1151,#1159));
#1125 = ORIENTED_EDGE('',*,*,#1126,.T.);
#1126 = EDGE_CURVE('',#1127,#1129,#1131,.T.);
#1127 = VERTEX_POINT('',#1128);
#1128 = CARTESIAN_POINT('',(-0.327579365079,0.604761910901,
    4.366657687084));
#1129 = VERTEX_POINT('',#1130);
#1130 = CARTESIAN_POINT('',(-0.327579365079,0.498088060568,4.5));
#1131 = LINE('',#1132,#1133);
#1132 = CARTESIAN_POINT('',(-0.327579365079,1.535570538747,
    3.203146902277));
#1133 = VECTOR('',#1134,1.);
#1134 = DIRECTION('',(6.826287649254E-17,-0.624695047554,0.780868809443)
  );
#1135 = ORIENTED_EDGE('',*,*,#1136,.T.);
#1136 = EDGE_CURVE('',#1129,#1137,#1139,.T.);
#1137 = VERTEX_POINT('',#1138);
#1138 = CARTESIAN_POINT('',(-0.127579365079,0.298088060568,5.));
#1139 = LINE('',#1140,#1141);
#1140 = CARTESIAN_POINT('',(-0.214145892392,0.384654587881,
    4.783583681717));
#1141 = VECTOR('',#1142,1.);
#1142 = DIRECTION('',(0.348155311911,-0.348155311911,0.870388279778));
#1143 = ORIENTED_EDGE('',*,*,#1144,.T.);
#1144 = EDGE_CURVE('',#1137,#1145,#1147,.T.);
#1145 = VERTEX_POINT('',#1146);
#1146 = CARTESIAN_POINT('',(-2.090551474655E-02,0.404761910901,5.));
#1147 = LINE('',#1148,#1149);
#1148 = CARTESIAN_POINT('',(-7.424243991296E-02,0.351424985735,5.));
#1149 = VECTOR('',#1150,1.);
#1150 = DIRECTION('',(0.707106781187,0.707106781187,0.));
#1151 = ORIENTED_EDGE('',*,*,#1152,.T.);
#1152 = EDGE_CURVE('',#1145,#1153,#1155,.T.);
#1153 = VERTEX_POINT('',#1154);
#1154 = CARTESIAN_POINT('',(-0.220905514747,0.604761910901,4.5));
#1155 = LINE('',#1156,#1157);
#1156 = CARTESIAN_POINT('',(-0.10747204206,0.491328438214,4.783583681717
    ));
#1157 = VECTOR('',#1158,1.);
#1158 = DIRECTION('',(-0.348155311911,0.348155311911,-0.870388279778));
#1159 = ORIENTED_EDGE('',*,*,#1160,.T.);
#1160 = EDGE_CURVE('',#1153,#1127,#1161,.T.);
#1161 = LINE('',#1162,#1163);
#1162 = CARTESIAN_POINT('',(-1.134485553901,0.604761910901,
    3.358024951057));
#1163 = VECTOR('',#1164,1.);
#1164 = DIRECTION('',(-0.624695047554,0.,-0.780868809443));
#1165 = PLANE('',#1166);
#1166 = AXIS2_PLACEMENT_3D('',#1167,#1168,#1169);
#1167 = CARTESIAN_POINT('',(-0.160808967226,0.437991513048,
    4.783583681717));
#1168 = DIRECTION('',(-0.615457454897,0.615457454897,0.492365963917));
#1169 = DIRECTION('',(0.624695047554,4.163336342344E-16,0.780868809443)
  );
#1170 = ADVANCED_FACE('',(#1171),#1196,.T.);
#1171 = FACE_BOUND('',#1172,.T.);
#1172 = EDGE_LOOP('',(#1173,#1174,#1182,#1190));
#1173 = ORIENTED_EDGE('',*,*,#1136,.F.);
#1174 = ORIENTED_EDGE('',*,*,#1175,.T.);
#1175 = EDGE_CURVE('',#1129,#1176,#1178,.T.);
#1176 = VERTEX_POINT('',#1177);
#1177 = CARTESIAN_POINT('',(-0.327579365079,7.643576123391E-02,4.5));
#1178 = LINE('',#1179,#1180);
#1179 = CARTESIAN_POINT('',(-0.327579365079,0.446011910901,4.5));
#1180 = VECTOR('',#1181,1.);
#1181 = DIRECTION('',(1.092739197466E-16,-1.,0.));
#1182 = ORIENTED_EDGE('',*,*,#1183,.F.);
#1183 = EDGE_CURVE('',#1184,#1176,#1186,.T.);
#1184 = VERTEX_POINT('',#1185);
#1185 = CARTESIAN_POINT('',(-0.127579365079,0.276435761234,5.));
#1186 = LINE('',#1187,#1188);
#1187 = CARTESIAN_POINT('',(-0.214145892392,0.189869233921,
    4.783583681717));
#1188 = VECTOR('',#1189,1.);
#1189 = DIRECTION('',(-0.348155311911,-0.348155311911,-0.870388279778));
#1190 = ORIENTED_EDGE('',*,*,#1191,.T.);
#1191 = EDGE_CURVE('',#1184,#1137,#1192,.T.);
#1192 = LINE('',#1193,#1194);
#1193 = CARTESIAN_POINT('',(-0.127579365079,0.446011910901,5.));
#1194 = VECTOR('',#1195,1.);
#1195 = DIRECTION('',(-1.092739197466E-16,1.,0.));
#1196 = PLANE('',#1197);
#1197 = AXIS2_PLACEMENT_3D('',#1198,#1199,#1200);
#1198 = CARTESIAN_POINT('',(-0.227579365079,0.446011910901,4.75));
#1199 = DIRECTION('',(-0.928476690885,-1.014582874064E-16,0.371390676354
    ));
#1200 = DIRECTION('',(0.371390676354,-6.162975822039E-33,0.928476690885)
  );
#1201 = ADVANCED_FACE('',(#1202),#1236,.T.);
#1202 = FACE_BOUND('',#1203,.T.);
#1203 = EDGE_LOOP('',(#1204,#1205,#1213,#1221,#1229,#1235));
#1204 = ORIENTED_EDGE('',*,*,#1126,.F.);
#1205 = ORIENTED_EDGE('',*,*,#1206,.F.);
#1206 = EDGE_CURVE('',#1207,#1127,#1209,.T.);
#1207 = VERTEX_POINT('',#1208);
#1208 = CARTESIAN_POINT('',(-0.327579365079,0.604761910901,0.));
#1209 = LINE('',#1210,#1211);
#1210 = CARTESIAN_POINT('',(-0.327579365079,0.604761910901,0.));
#1211 = VECTOR('',#1212,1.);
#1212 = DIRECTION('',(0.,0.,1.));
#1213 = ORIENTED_EDGE('',*,*,#1214,.T.);
#1214 = EDGE_CURVE('',#1207,#1215,#1217,.T.);
#1215 = VERTEX_POINT('',#1216);
#1216 = CARTESIAN_POINT('',(-0.327579365079,-3.023808909891E-02,0.));
#1217 = LINE('',#1218,#1219);
#1218 = CARTESIAN_POINT('',(-0.327579365079,0.604761910901,0.));
#1219 = VECTOR('',#1220,1.);
#1220 = DIRECTION('',(1.092739197466E-16,-1.,0.));
#1221 = ORIENTED_EDGE('',*,*,#1222,.T.);
#1222 = EDGE_CURVE('',#1215,#1223,#1225,.T.);
#1223 = VERTEX_POINT('',#1224);
#1224 = CARTESIAN_POINT('',(-0.327579365079,-3.023808909891E-02,
    4.366657687084));
#1225 = LINE('',#1226,#1227);
#1226 = CARTESIAN_POINT('',(-0.327579365079,-3.023808909891E-02,0.));
#1227 = VECTOR('',#1228,1.);
#1228 = DIRECTION('',(0.,0.,1.));
#1229 = ORIENTED_EDGE('',*,*,#1230,.F.);
#1230 = EDGE_CURVE('',#1176,#1223,#1231,.T.);
#1231 = LINE('',#1232,#1233);
#1232 = CARTESIAN_POINT('',(-0.327579365079,-0.83714427792,
    3.358024951057));
#1233 = VECTOR('',#1234,1.);
#1234 = DIRECTION('',(6.826287649254E-17,-0.624695047554,-0.780868809443
    ));
#1235 = ORIENTED_EDGE('',*,*,#1175,.F.);
#1236 = PLANE('',#1237);
#1237 = AXIS2_PLACEMENT_3D('',#1238,#1239,#1240);
#1238 = CARTESIAN_POINT('',(-0.327579365079,0.604761910901,0.));
#1239 = DIRECTION('',(-1.,-1.092739197466E-16,0.));
#1240 = DIRECTION('',(1.092739197466E-16,-1.,0.));
#1241 = ADVANCED_FACE('',(#1242),#1276,.T.);
#1242 = FACE_BOUND('',#1243,.T.);
#1243 = EDGE_LOOP('',(#1244,#1245,#1253,#1261,#1269,#1275));
#1244 = ORIENTED_EDGE('',*,*,#1160,.F.);
#1245 = ORIENTED_EDGE('',*,*,#1246,.F.);
#1246 = EDGE_CURVE('',#1247,#1153,#1249,.T.);
#1247 = VERTEX_POINT('',#1248);
#1248 = CARTESIAN_POINT('',(0.200746784588,0.604761910901,4.5));
#1249 = LINE('',#1250,#1251);
#1250 = CARTESIAN_POINT('',(0.148670634921,0.604761910901,4.5));
#1251 = VECTOR('',#1252,1.);
#1252 = DIRECTION('',(-1.,0.,0.));
#1253 = ORIENTED_EDGE('',*,*,#1254,.F.);
#1254 = EDGE_CURVE('',#1255,#1247,#1257,.T.);
#1255 = VERTEX_POINT('',#1256);
#1256 = CARTESIAN_POINT('',(0.307420634921,0.604761910901,4.366657687084
    ));
#1257 = LINE('',#1258,#1259);
#1258 = CARTESIAN_POINT('',(1.238229262766,0.604761910901,3.203146902277
    ));
#1259 = VECTOR('',#1260,1.);
#1260 = DIRECTION('',(-0.624695047554,0.,0.780868809443));
#1261 = ORIENTED_EDGE('',*,*,#1262,.F.);
#1262 = EDGE_CURVE('',#1263,#1255,#1265,.T.);
#1263 = VERTEX_POINT('',#1264);
#1264 = CARTESIAN_POINT('',(0.307420634921,0.604761910901,0.));
#1265 = LINE('',#1266,#1267);
#1266 = CARTESIAN_POINT('',(0.307420634921,0.604761910901,0.));
#1267 = VECTOR('',#1268,1.);
#1268 = DIRECTION('',(0.,0.,1.));
#1269 = ORIENTED_EDGE('',*,*,#1270,.T.);
#1270 = EDGE_CURVE('',#1263,#1207,#1271,.T.);
#1271 = LINE('',#1272,#1273);
#1272 = CARTESIAN_POINT('',(0.307420634921,0.604761910901,0.));
#1273 = VECTOR('',#1274,1.);
#1274 = DIRECTION('',(-1.,0.,0.));
#1275 = ORIENTED_EDGE('',*,*,#1206,.T.);
#1276 = PLANE('',#1277);
#1277 = AXIS2_PLACEMENT_3D('',#1278,#1279,#1280);
#1278 = CARTESIAN_POINT('',(0.307420634921,0.604761910901,0.));
#1279 = DIRECTION('',(0.,1.,0.));
#1280 = DIRECTION('',(-1.,0.,0.));
#1281 = ADVANCED_FACE('',(#1282),#1315,.T.);
#1282 = FACE_BOUND('',#1283,.T.);
#1283 = EDGE_LOOP('',(#1284,#1285,#1293,#1301,#1309));
#1284 = ORIENTED_EDGE('',*,*,#1254,.T.);
#1285 = ORIENTED_EDGE('',*,*,#1286,.T.);
#1286 = EDGE_CURVE('',#1247,#1287,#1289,.T.);
#1287 = VERTEX_POINT('',#1288);
#1288 = CARTESIAN_POINT('',(7.467845878209E-04,0.404761910901,5.));
#1289 = LINE('',#1290,#1291);
#1290 = CARTESIAN_POINT('',(8.731331190089E-02,0.491328438214,
    4.783583681717));
#1291 = VECTOR('',#1292,1.);
#1292 = DIRECTION('',(-0.348155311911,-0.348155311911,0.870388279778));
#1293 = ORIENTED_EDGE('',*,*,#1294,.T.);
#1294 = EDGE_CURVE('',#1287,#1295,#1297,.T.);
#1295 = VERTEX_POINT('',#1296);
#1296 = CARTESIAN_POINT('',(0.107420634921,0.298088060568,5.));
#1297 = LINE('',#1298,#1299);
#1298 = CARTESIAN_POINT('',(5.408370975423E-02,0.351424985735,5.));
#1299 = VECTOR('',#1300,1.);
#1300 = DIRECTION('',(0.707106781187,-0.707106781187,0.));
#1301 = ORIENTED_EDGE('',*,*,#1302,.T.);
#1302 = EDGE_CURVE('',#1295,#1303,#1305,.T.);
#1303 = VERTEX_POINT('',#1304);
#1304 = CARTESIAN_POINT('',(0.307420634921,0.498088060568,4.5));
#1305 = LINE('',#1306,#1307);
#1306 = CARTESIAN_POINT('',(0.193987162234,0.384654587881,4.783583681717
    ));
#1307 = VECTOR('',#1308,1.);
#1308 = DIRECTION('',(0.348155311911,0.348155311911,-0.870388279778));
#1309 = ORIENTED_EDGE('',*,*,#1310,.T.);
#1310 = EDGE_CURVE('',#1303,#1255,#1311,.T.);
#1311 = LINE('',#1312,#1313);
#1312 = CARTESIAN_POINT('',(0.307420634921,1.411668099723,3.358024951057
    ));
#1313 = VECTOR('',#1314,1.);
#1314 = DIRECTION('',(-4.778401354478E-16,0.624695047554,-0.780868809443
    ));
#1315 = PLANE('',#1316);
#1316 = AXIS2_PLACEMENT_3D('',#1317,#1318,#1319);
#1317 = CARTESIAN_POINT('',(0.140650237067,0.437991513048,4.783583681717
    ));
#1318 = DIRECTION('',(0.615457454897,0.615457454897,0.492365963917));
#1319 = DIRECTION('',(0.624695047554,-8.326672684689E-17,-0.780868809443
    ));
#1320 = ADVANCED_FACE('',(#1321),#1355,.T.);
#1321 = FACE_BOUND('',#1322,.T.);
#1322 = EDGE_LOOP('',(#1323,#1324,#1332,#1340,#1348,#1354));
#1323 = ORIENTED_EDGE('',*,*,#1310,.F.);
#1324 = ORIENTED_EDGE('',*,*,#1325,.F.);
#1325 = EDGE_CURVE('',#1326,#1303,#1328,.T.);
#1326 = VERTEX_POINT('',#1327);
#1327 = CARTESIAN_POINT('',(0.307420634921,7.643576123391E-02,4.5));
#1328 = LINE('',#1329,#1330);
#1329 = CARTESIAN_POINT('',(0.307420634921,0.128511910901,4.5));
#1330 = VECTOR('',#1331,1.);
#1331 = DIRECTION('',(-7.64917438226E-16,1.,0.));
#1332 = ORIENTED_EDGE('',*,*,#1333,.F.);
#1333 = EDGE_CURVE('',#1334,#1326,#1336,.T.);
#1334 = VERTEX_POINT('',#1335);
#1335 = CARTESIAN_POINT('',(0.307420634921,-3.023808909891E-02,
    4.366657687084));
#1336 = LINE('',#1337,#1338);
#1337 = CARTESIAN_POINT('',(0.307420634921,-0.961046716945,
    3.203146902277));
#1338 = VECTOR('',#1339,1.);
#1339 = DIRECTION('',(-4.778401354478E-16,0.624695047554,0.780868809443)
  );
#1340 = ORIENTED_EDGE('',*,*,#1341,.F.);
#1341 = EDGE_CURVE('',#1342,#1334,#1344,.T.);
#1342 = VERTEX_POINT('',#1343);
#1343 = CARTESIAN_POINT('',(0.307420634921,-3.023808909891E-02,0.));
#1344 = LINE('',#1345,#1346);
#1345 = CARTESIAN_POINT('',(0.307420634921,-3.023808909891E-02,0.));
#1346 = VECTOR('',#1347,1.);
#1347 = DIRECTION('',(0.,0.,1.));
#1348 = ORIENTED_EDGE('',*,*,#1349,.T.);
#1349 = EDGE_CURVE('',#1342,#1263,#1350,.T.);
#1350 = LINE('',#1351,#1352);
#1351 = CARTESIAN_POINT('',(0.307420634921,-3.023808909891E-02,0.));
#1352 = VECTOR('',#1353,1.);
#1353 = DIRECTION('',(-7.64917438226E-16,1.,0.));
#1354 = ORIENTED_EDGE('',*,*,#1262,.T.);
#1355 = PLANE('',#1356);
#1356 = AXIS2_PLACEMENT_3D('',#1357,#1358,#1359);
#1357 = CARTESIAN_POINT('',(0.307420634921,-3.023808909891E-02,0.));
#1358 = DIRECTION('',(1.,7.64917438226E-16,0.));
#1359 = DIRECTION('',(-7.64917438226E-16,1.,0.));
#1360 = ADVANCED_FACE('',(#1361),#1379,.T.);
#1361 = FACE_BOUND('',#1362,.T.);
#1362 = EDGE_LOOP('',(#1363,#1364,#1372,#1378));
#1363 = ORIENTED_EDGE('',*,*,#1302,.F.);
#1364 = ORIENTED_EDGE('',*,*,#1365,.T.);
#1365 = EDGE_CURVE('',#1295,#1366,#1368,.T.);
#1366 = VERTEX_POINT('',#1367);
#1367 = CARTESIAN_POINT('',(0.107420634921,0.276435761234,5.));
#1368 = LINE('',#1369,#1370);
#1369 = CARTESIAN_POINT('',(0.107420634921,0.128511910901,5.));
#1370 = VECTOR('',#1371,1.);
#1371 = DIRECTION('',(7.64917438226E-16,-1.,0.));
#1372 = ORIENTED_EDGE('',*,*,#1373,.F.);
#1373 = EDGE_CURVE('',#1326,#1366,#1374,.T.);
#1374 = LINE('',#1375,#1376);
#1375 = CARTESIAN_POINT('',(0.193987162234,0.189869233921,4.783583681717
    ));
#1376 = VECTOR('',#1377,1.);
#1377 = DIRECTION('',(-0.348155311911,0.348155311911,0.870388279778));
#1378 = ORIENTED_EDGE('',*,*,#1325,.T.);
#1379 = PLANE('',#1380);
#1380 = AXIS2_PLACEMENT_3D('',#1381,#1382,#1383);
#1381 = CARTESIAN_POINT('',(0.207420634921,0.128511910901,4.75));
#1382 = DIRECTION('',(0.928476690885,7.102080118445E-16,0.371390676354)
  );
#1383 = DIRECTION('',(0.371390676354,0.,-0.928476690885));
#1384 = ADVANCED_FACE('',(#1385),#1411,.T.);
#1385 = FACE_BOUND('',#1386,.T.);
#1386 = EDGE_LOOP('',(#1387,#1395,#1403,#1409,#1410));
#1387 = ORIENTED_EDGE('',*,*,#1388,.T.);
#1388 = EDGE_CURVE('',#1366,#1389,#1391,.T.);
#1389 = VERTEX_POINT('',#1390);
#1390 = CARTESIAN_POINT('',(7.46784587821E-04,0.169761910901,5.));
#1391 = LINE('',#1392,#1393);
#1392 = CARTESIAN_POINT('',(5.408370975423E-02,0.223098836068,5.));
#1393 = VECTOR('',#1394,1.);
#1394 = DIRECTION('',(-0.707106781187,-0.707106781187,0.));
#1395 = ORIENTED_EDGE('',*,*,#1396,.T.);
#1396 = EDGE_CURVE('',#1389,#1397,#1399,.T.);
#1397 = VERTEX_POINT('',#1398);
#1398 = CARTESIAN_POINT('',(0.200746784588,-3.023808909891E-02,4.5));
#1399 = LINE('',#1400,#1401);
#1400 = CARTESIAN_POINT('',(8.731331190089E-02,8.319538358803E-02,
    4.783583681717));
#1401 = VECTOR('',#1402,1.);
#1402 = DIRECTION('',(0.348155311911,-0.348155311911,-0.870388279778));
#1403 = ORIENTED_EDGE('',*,*,#1404,.T.);
#1404 = EDGE_CURVE('',#1397,#1334,#1405,.T.);
#1405 = LINE('',#1406,#1407);
#1406 = CARTESIAN_POINT('',(1.114326823742,-3.023808909891E-02,
    3.358024951057));
#1407 = VECTOR('',#1408,1.);
#1408 = DIRECTION('',(0.624695047554,0.,-0.780868809443));
#1409 = ORIENTED_EDGE('',*,*,#1333,.T.);
#1410 = ORIENTED_EDGE('',*,*,#1373,.T.);
#1411 = PLANE('',#1412);
#1412 = AXIS2_PLACEMENT_3D('',#1413,#1414,#1415);
#1413 = CARTESIAN_POINT('',(0.140650237067,0.136532308754,4.783583681717
    ));
#1414 = DIRECTION('',(0.615457454897,-0.615457454897,0.492365963917));
#1415 = DIRECTION('',(0.624695047554,1.110223024625E-16,-0.780868809443)
  );
#1416 = ADVANCED_FACE('',(#1417),#1442,.T.);
#1417 = FACE_BOUND('',#1418,.T.);
#1418 = EDGE_LOOP('',(#1419,#1420,#1428,#1434,#1435,#1441));
#1419 = ORIENTED_EDGE('',*,*,#1404,.F.);
#1420 = ORIENTED_EDGE('',*,*,#1421,.F.);
#1421 = EDGE_CURVE('',#1422,#1397,#1424,.T.);
#1422 = VERTEX_POINT('',#1423);
#1423 = CARTESIAN_POINT('',(-0.220905514747,-3.023808909891E-02,4.5));
#1424 = LINE('',#1425,#1426);
#1425 = CARTESIAN_POINT('',(-0.168829365079,-3.023808909891E-02,4.5));
#1426 = VECTOR('',#1427,1.);
#1427 = DIRECTION('',(1.,0.,0.));
#1428 = ORIENTED_EDGE('',*,*,#1429,.F.);
#1429 = EDGE_CURVE('',#1223,#1422,#1430,.T.);
#1430 = LINE('',#1431,#1432);
#1431 = CARTESIAN_POINT('',(-1.258387992925,-3.023808909891E-02,
    3.203146902277));
#1432 = VECTOR('',#1433,1.);
#1433 = DIRECTION('',(0.624695047554,0.,0.780868809443));
#1434 = ORIENTED_EDGE('',*,*,#1222,.F.);
#1435 = ORIENTED_EDGE('',*,*,#1436,.T.);
#1436 = EDGE_CURVE('',#1215,#1342,#1437,.T.);
#1437 = LINE('',#1438,#1439);
#1438 = CARTESIAN_POINT('',(-0.327579365079,-3.023808909891E-02,0.));
#1439 = VECTOR('',#1440,1.);
#1440 = DIRECTION('',(1.,0.,0.));
#1441 = ORIENTED_EDGE('',*,*,#1341,.T.);
#1442 = PLANE('',#1443);
#1443 = AXIS2_PLACEMENT_3D('',#1444,#1445,#1446);
#1444 = CARTESIAN_POINT('',(-0.327579365079,-3.023808909891E-02,0.));
#1445 = DIRECTION('',(0.,-1.,0.));
#1446 = DIRECTION('',(1.,0.,0.));
#1447 = ADVANCED_FACE('',(#1448),#1467,.T.);
#1448 = FACE_BOUND('',#1449,.T.);
#1449 = EDGE_LOOP('',(#1450,#1451,#1459,#1465,#1466));
#1450 = ORIENTED_EDGE('',*,*,#1429,.T.);
#1451 = ORIENTED_EDGE('',*,*,#1452,.T.);
#1452 = EDGE_CURVE('',#1422,#1453,#1455,.T.);
#1453 = VERTEX_POINT('',#1454);
#1454 = CARTESIAN_POINT('',(-2.090551474655E-02,0.169761910901,5.));
#1455 = LINE('',#1456,#1457);
#1456 = CARTESIAN_POINT('',(-0.10747204206,8.319538358803E-02,
    4.783583681717));
#1457 = VECTOR('',#1458,1.);
#1458 = DIRECTION('',(0.348155311911,0.348155311911,0.870388279778));
#1459 = ORIENTED_EDGE('',*,*,#1460,.T.);
#1460 = EDGE_CURVE('',#1453,#1184,#1461,.T.);
#1461 = LINE('',#1462,#1463);
#1462 = CARTESIAN_POINT('',(-7.424243991296E-02,0.223098836068,5.));
#1463 = VECTOR('',#1464,1.);
#1464 = DIRECTION('',(-0.707106781187,0.707106781187,0.));
#1465 = ORIENTED_EDGE('',*,*,#1183,.T.);
#1466 = ORIENTED_EDGE('',*,*,#1230,.T.);
#1467 = PLANE('',#1468);
#1468 = AXIS2_PLACEMENT_3D('',#1469,#1470,#1471);
#1469 = CARTESIAN_POINT('',(-0.160808967226,0.136532308754,
    4.783583681717));
#1470 = DIRECTION('',(-0.615457454897,-0.615457454897,0.492365963917));
#1471 = DIRECTION('',(0.624695047554,-8.326672684689E-17,0.780868809443)
  );
#1472 = ADVANCED_FACE('',(#1473),#1484,.T.);
#1473 = FACE_BOUND('',#1474,.T.);
#1474 = EDGE_LOOP('',(#1475,#1476,#1482,#1483));
#1475 = ORIENTED_EDGE('',*,*,#1396,.F.);
#1476 = ORIENTED_EDGE('',*,*,#1477,.T.);
#1477 = EDGE_CURVE('',#1389,#1453,#1478,.T.);
#1478 = LINE('',#1479,#1480);
#1479 = CARTESIAN_POINT('',(-0.168829365079,0.169761910901,5.));
#1480 = VECTOR('',#1481,1.);
#1481 = DIRECTION('',(-1.,0.,0.));
#1482 = ORIENTED_EDGE('',*,*,#1452,.F.);
#1483 = ORIENTED_EDGE('',*,*,#1421,.T.);
#1484 = PLANE('',#1485);
#1485 = AXIS2_PLACEMENT_3D('',#1486,#1487,#1488);
#1486 = CARTESIAN_POINT('',(-0.168829365079,6.976191090109E-02,4.75));
#1487 = DIRECTION('',(0.,-0.928476690885,0.371390676354));
#1488 = DIRECTION('',(0.,-0.371390676354,-0.928476690885));
#1489 = ADVANCED_FACE('',(#1490),#1505,.T.);
#1490 = FACE_BOUND('',#1491,.T.);
#1491 = EDGE_LOOP('',(#1492,#1493,#1494,#1495,#1496,#1497,#1498,#1499));
#1492 = ORIENTED_EDGE('',*,*,#1144,.F.);
#1493 = ORIENTED_EDGE('',*,*,#1191,.F.);
#1494 = ORIENTED_EDGE('',*,*,#1460,.F.);
#1495 = ORIENTED_EDGE('',*,*,#1477,.F.);
#1496 = ORIENTED_EDGE('',*,*,#1388,.F.);
#1497 = ORIENTED_EDGE('',*,*,#1365,.F.);
#1498 = ORIENTED_EDGE('',*,*,#1294,.F.);
#1499 = ORIENTED_EDGE('',*,*,#1500,.F.);
#1500 = EDGE_CURVE('',#1145,#1287,#1501,.T.);
#1501 = LINE('',#1502,#1503);
#1502 = CARTESIAN_POINT('',(0.148670634921,0.404761910901,5.));
#1503 = VECTOR('',#1504,1.);
#1504 = DIRECTION('',(1.,0.,0.));
#1505 = PLANE('',#1506);
#1506 = AXIS2_PLACEMENT_3D('',#1507,#1508,#1509);
#1507 = CARTESIAN_POINT('',(-1.007936507936E-02,0.287261910901,5.));
#1508 = DIRECTION('',(0.,0.,1.));
#1509 = DIRECTION('',(1.,0.,-0.));
#1510 = ADVANCED_FACE('',(#1511),#1517,.T.);
#1511 = FACE_BOUND('',#1512,.T.);
#1512 = EDGE_LOOP('',(#1513,#1514,#1515,#1516));
#1513 = ORIENTED_EDGE('',*,*,#1152,.F.);
#1514 = ORIENTED_EDGE('',*,*,#1500,.T.);
#1515 = ORIENTED_EDGE('',*,*,#1286,.F.);
#1516 = ORIENTED_EDGE('',*,*,#1246,.T.);
#1517 = PLANE('',#1518);
#1518 = AXIS2_PLACEMENT_3D('',#1519,#1520,#1521);
#1519 = CARTESIAN_POINT('',(0.148670634921,0.504761910901,4.75));
#1520 = DIRECTION('',(0.,0.928476690885,0.371390676354));
#1521 = DIRECTION('',(0.,-0.371390676354,0.928476690885));
#1522 = ADVANCED_FACE('',(#1523),#1529,.F.);
#1523 = FACE_BOUND('',#1524,.T.);
#1524 = EDGE_LOOP('',(#1525,#1526,#1527,#1528));
#1525 = ORIENTED_EDGE('',*,*,#1270,.F.);
#1526 = ORIENTED_EDGE('',*,*,#1349,.F.);
#1527 = ORIENTED_EDGE('',*,*,#1436,.F.);
#1528 = ORIENTED_EDGE('',*,*,#1214,.F.);
#1529 = PLANE('',#1530);
#1530 = AXIS2_PLACEMENT_3D('',#1531,#1532,#1533);
#1531 = CARTESIAN_POINT('',(-1.007936507936E-02,0.287261910901,0.));
#1532 = DIRECTION('',(0.,0.,1.));
#1533 = DIRECTION('',(1.,0.,-0.));
#1534 = ( GEOMETRIC_REPRESENTATION_CONTEXT(3) 
GLOBAL_UNCERTAINTY_ASSIGNED_CONTEXT((#1538)) 
GLOBAL_UNIT_ASSIGNED_CONTEXT((#1535,#1536,#1537)) REPRESENTATION_CONTEXT
('Context #1','3D Context with UNIT and UNCERTAINTY') );
#1535 = ( LENGTH_UNIT() NAMED_UNIT(*) SI_UNIT(.MILLI.,.METRE.) );
#1536 = ( NAMED_UNIT(*) PLANE_ANGLE_UNIT() SI_UNIT($,.RADIAN.) );
#1537 = ( NAMED_UNIT(*) SI_UNIT($,.STERADIAN.) SOLID_ANGLE_UNIT() );
#1538 = UNCERTAINTY_MEASURE_WITH_UNIT(LENGTH_MEASURE(1.E-07),#1535,
  'distance_accuracy_value','confusion accuracy');
#1539 = CONTEXT_DEPENDENT_SHAPE_REPRESENTATION(#1540,#1542);
#1540 = ( REPRESENTATION_RELATIONSHIP('','',#1119,#1092) 
REPRESENTATION_RELATIONSHIP_WITH_TRANSFORMATION(#1541) 
SHAPE_REPRESENTATION_RELATIONSHIP() );
#1541 = ITEM_DEFINED_TRANSFORMATION('','',#11,#1093);
#1542 = PRODUCT_DEFINITION_SHAPE('Placement','Placement of an item',
  #1543);
#1543 = NEXT_ASSEMBLY_USAGE_OCCURRENCE('7','1039929_IPT_001','',#1087,
  #1114,$);
#1544 = PRODUCT_RELATED_PRODUCT_CATEGORY('part',$,(#1116));
#1545 = SHAPE_DEFINITION_REPRESENTATION(#1546,#1552);
#1546 = PRODUCT_DEFINITION_SHAPE('','',#1547);
#1547 = PRODUCT_DEFINITION('design','',#1548,#1551);
#1548 = PRODUCT_DEFINITION_FORMATION('','',#1549);
#1549 = PRODUCT('1039930_IPT_001','1039930_IPT_001','',(#1550));
#1550 = PRODUCT_CONTEXT('',#2,'mechanical');
#1551 = PRODUCT_DEFINITION_CONTEXT('part definition',#2,'design');
#1552 = ADVANCED_BREP_SHAPE_REPRESENTATION('',(#11,#1553),#1967);
#1553 = MANIFOLD_SOLID_BREP('',#1554);
#1554 = CLOSED_SHELL('',(#1555,#1603,#1634,#1674,#1714,#1753,#1793,#1817
    ,#1849,#1880,#1905,#1922,#1943,#1955));
#1555 = ADVANCED_FACE('',(#1556),#1598,.T.);
#1556 = FACE_BOUND('',#1557,.T.);
#1557 = EDGE_LOOP('',(#1558,#1568,#1576,#1584,#1592));
#1558 = ORIENTED_EDGE('',*,*,#1559,.T.);
#1559 = EDGE_CURVE('',#1560,#1562,#1564,.T.);
#1560 = VERTEX_POINT('',#1561);
#1561 = CARTESIAN_POINT('',(-0.327579365079,0.604761910901,
    8.266657687084));
#1562 = VERTEX_POINT('',#1563);
#1563 = CARTESIAN_POINT('',(-0.327579365079,0.498088060568,8.4));
#1564 = LINE('',#1565,#1566);
#1565 = CARTESIAN_POINT('',(-0.327579365079,2.486790050942,
    5.914122512033));
#1566 = VECTOR('',#1567,1.);
#1567 = DIRECTION('',(6.826287649254E-17,-0.624695047554,0.780868809443)
  );
#1568 = ORIENTED_EDGE('',*,*,#1569,.T.);
#1569 = EDGE_CURVE('',#1562,#1570,#1572,.T.);
#1570 = VERTEX_POINT('',#1571);
#1571 = CARTESIAN_POINT('',(-0.127579365079,0.298088060568,8.9));
#1572 = LINE('',#1573,#1574);
#1573 = CARTESIAN_POINT('',(-0.214145892392,0.384654587881,
    8.683583681717));
#1574 = VECTOR('',#1575,1.);
#1575 = DIRECTION('',(0.348155311911,-0.348155311911,0.870388279778));
#1576 = ORIENTED_EDGE('',*,*,#1577,.T.);
#1577 = EDGE_CURVE('',#1570,#1578,#1580,.T.);
#1578 = VERTEX_POINT('',#1579);
#1579 = CARTESIAN_POINT('',(-2.090551474655E-02,0.404761910901,8.9));
#1580 = LINE('',#1581,#1582);
#1581 = CARTESIAN_POINT('',(-7.424243991296E-02,0.351424985735,8.9));
#1582 = VECTOR('',#1583,1.);
#1583 = DIRECTION('',(0.707106781187,0.707106781187,0.));
#1584 = ORIENTED_EDGE('',*,*,#1585,.T.);
#1585 = EDGE_CURVE('',#1578,#1586,#1588,.T.);
#1586 = VERTEX_POINT('',#1587);
#1587 = CARTESIAN_POINT('',(-0.220905514747,0.604761910901,8.4));
#1588 = LINE('',#1589,#1590);
#1589 = CARTESIAN_POINT('',(-0.10747204206,0.491328438214,8.683583681717
    ));
#1590 = VECTOR('',#1591,1.);
#1591 = DIRECTION('',(-0.348155311911,0.348155311911,-0.870388279778));
#1592 = ORIENTED_EDGE('',*,*,#1593,.T.);
#1593 = EDGE_CURVE('',#1586,#1560,#1594,.T.);
#1594 = LINE('',#1595,#1596);
#1595 = CARTESIAN_POINT('',(-2.085705066096,0.604761910901,
    6.069000560813));
#1596 = VECTOR('',#1597,1.);
#1597 = DIRECTION('',(-0.624695047554,0.,-0.780868809443));
#1598 = PLANE('',#1599);
#1599 = AXIS2_PLACEMENT_3D('',#1600,#1601,#1602);
#1600 = CARTESIAN_POINT('',(-0.160808967226,0.437991513048,
    8.683583681717));
#1601 = DIRECTION('',(-0.615457454897,0.615457454897,0.492365963917));
#1602 = DIRECTION('',(0.624695047554,-2.775557561563E-16,0.780868809443)
  );
#1603 = ADVANCED_FACE('',(#1604),#1629,.T.);
#1604 = FACE_BOUND('',#1605,.T.);
#1605 = EDGE_LOOP('',(#1606,#1607,#1615,#1623));
#1606 = ORIENTED_EDGE('',*,*,#1569,.F.);
#1607 = ORIENTED_EDGE('',*,*,#1608,.T.);
#1608 = EDGE_CURVE('',#1562,#1609,#1611,.T.);
#1609 = VERTEX_POINT('',#1610);
#1610 = CARTESIAN_POINT('',(-0.327579365079,7.643576123391E-02,8.4));
#1611 = LINE('',#1612,#1613);
#1612 = CARTESIAN_POINT('',(-0.327579365079,0.446011910901,8.4));
#1613 = VECTOR('',#1614,1.);
#1614 = DIRECTION('',(1.092739197466E-16,-1.,0.));
#1615 = ORIENTED_EDGE('',*,*,#1616,.F.);
#1616 = EDGE_CURVE('',#1617,#1609,#1619,.T.);
#1617 = VERTEX_POINT('',#1618);
#1618 = CARTESIAN_POINT('',(-0.127579365079,0.276435761234,8.9));
#1619 = LINE('',#1620,#1621);
#1620 = CARTESIAN_POINT('',(-0.214145892392,0.189869233921,
    8.683583681717));
#1621 = VECTOR('',#1622,1.);
#1622 = DIRECTION('',(-0.348155311911,-0.348155311911,-0.870388279778));
#1623 = ORIENTED_EDGE('',*,*,#1624,.T.);
#1624 = EDGE_CURVE('',#1617,#1570,#1625,.T.);
#1625 = LINE('',#1626,#1627);
#1626 = CARTESIAN_POINT('',(-0.127579365079,0.446011910901,8.9));
#1627 = VECTOR('',#1628,1.);
#1628 = DIRECTION('',(-1.092739197466E-16,1.,0.));
#1629 = PLANE('',#1630);
#1630 = AXIS2_PLACEMENT_3D('',#1631,#1632,#1633);
#1631 = CARTESIAN_POINT('',(-0.227579365079,0.446011910901,8.65));
#1632 = DIRECTION('',(-0.928476690885,-1.014582874064E-16,0.371390676354
    ));
#1633 = DIRECTION('',(0.371390676354,6.162975822039E-33,0.928476690885)
  );
#1634 = ADVANCED_FACE('',(#1635),#1669,.T.);
#1635 = FACE_BOUND('',#1636,.T.);
#1636 = EDGE_LOOP('',(#1637,#1638,#1646,#1654,#1662,#1668));
#1637 = ORIENTED_EDGE('',*,*,#1559,.F.);
#1638 = ORIENTED_EDGE('',*,*,#1639,.F.);
#1639 = EDGE_CURVE('',#1640,#1560,#1642,.T.);
#1640 = VERTEX_POINT('',#1641);
#1641 = CARTESIAN_POINT('',(-0.327579365079,0.604761910901,0.));
#1642 = LINE('',#1643,#1644);
#1643 = CARTESIAN_POINT('',(-0.327579365079,0.604761910901,0.));
#1644 = VECTOR('',#1645,1.);
#1645 = DIRECTION('',(0.,0.,1.));
#1646 = ORIENTED_EDGE('',*,*,#1647,.T.);
#1647 = EDGE_CURVE('',#1640,#1648,#1650,.T.);
#1648 = VERTEX_POINT('',#1649);
#1649 = CARTESIAN_POINT('',(-0.327579365079,-3.023808909891E-02,0.));
#1650 = LINE('',#1651,#1652);
#1651 = CARTESIAN_POINT('',(-0.327579365079,0.604761910901,0.));
#1652 = VECTOR('',#1653,1.);
#1653 = DIRECTION('',(1.092739197466E-16,-1.,0.));
#1654 = ORIENTED_EDGE('',*,*,#1655,.T.);
#1655 = EDGE_CURVE('',#1648,#1656,#1658,.T.);
#1656 = VERTEX_POINT('',#1657);
#1657 = CARTESIAN_POINT('',(-0.327579365079,-3.023808909891E-02,
    8.266657687084));
#1658 = LINE('',#1659,#1660);
#1659 = CARTESIAN_POINT('',(-0.327579365079,-3.023808909891E-02,0.));
#1660 = VECTOR('',#1661,1.);
#1661 = DIRECTION('',(0.,0.,1.));
#1662 = ORIENTED_EDGE('',*,*,#1663,.F.);
#1663 = EDGE_CURVE('',#1609,#1656,#1664,.T.);
#1664 = LINE('',#1665,#1666);
#1665 = CARTESIAN_POINT('',(-0.327579365079,-1.788363790115,
    6.069000560813));
#1666 = VECTOR('',#1667,1.);
#1667 = DIRECTION('',(6.826287649254E-17,-0.624695047554,-0.780868809443
    ));
#1668 = ORIENTED_EDGE('',*,*,#1608,.F.);
#1669 = PLANE('',#1670);
#1670 = AXIS2_PLACEMENT_3D('',#1671,#1672,#1673);
#1671 = CARTESIAN_POINT('',(-0.327579365079,0.604761910901,0.));
#1672 = DIRECTION('',(-1.,-1.092739197466E-16,0.));
#1673 = DIRECTION('',(1.092739197466E-16,-1.,0.));
#1674 = ADVANCED_FACE('',(#1675),#1709,.T.);
#1675 = FACE_BOUND('',#1676,.T.);
#1676 = EDGE_LOOP('',(#1677,#1678,#1686,#1694,#1702,#1708));
#1677 = ORIENTED_EDGE('',*,*,#1593,.F.);
#1678 = ORIENTED_EDGE('',*,*,#1679,.F.);
#1679 = EDGE_CURVE('',#1680,#1586,#1682,.T.);
#1680 = VERTEX_POINT('',#1681);
#1681 = CARTESIAN_POINT('',(0.200746784588,0.604761910901,8.4));
#1682 = LINE('',#1683,#1684);
#1683 = CARTESIAN_POINT('',(0.148670634921,0.604761910901,8.4));
#1684 = VECTOR('',#1685,1.);
#1685 = DIRECTION('',(-1.,0.,0.));
#1686 = ORIENTED_EDGE('',*,*,#1687,.F.);
#1687 = EDGE_CURVE('',#1688,#1680,#1690,.T.);
#1688 = VERTEX_POINT('',#1689);
#1689 = CARTESIAN_POINT('',(0.307420634921,0.604761910901,8.266657687084
    ));
#1690 = LINE('',#1691,#1692);
#1691 = CARTESIAN_POINT('',(2.189448774962,0.604761910901,5.914122512033
    ));
#1692 = VECTOR('',#1693,1.);
#1693 = DIRECTION('',(-0.624695047554,0.,0.780868809443));
#1694 = ORIENTED_EDGE('',*,*,#1695,.F.);
#1695 = EDGE_CURVE('',#1696,#1688,#1698,.T.);
#1696 = VERTEX_POINT('',#1697);
#1697 = CARTESIAN_POINT('',(0.307420634921,0.604761910901,0.));
#1698 = LINE('',#1699,#1700);
#1699 = CARTESIAN_POINT('',(0.307420634921,0.604761910901,0.));
#1700 = VECTOR('',#1701,1.);
#1701 = DIRECTION('',(0.,0.,1.));
#1702 = ORIENTED_EDGE('',*,*,#1703,.T.);
#1703 = EDGE_CURVE('',#1696,#1640,#1704,.T.);
#1704 = LINE('',#1705,#1706);
#1705 = CARTESIAN_POINT('',(0.307420634921,0.604761910901,0.));
#1706 = VECTOR('',#1707,1.);
#1707 = DIRECTION('',(-1.,0.,0.));
#1708 = ORIENTED_EDGE('',*,*,#1639,.T.);
#1709 = PLANE('',#1710);
#1710 = AXIS2_PLACEMENT_3D('',#1711,#1712,#1713);
#1711 = CARTESIAN_POINT('',(0.307420634921,0.604761910901,0.));
#1712 = DIRECTION('',(0.,1.,0.));
#1713 = DIRECTION('',(-1.,0.,0.));
#1714 = ADVANCED_FACE('',(#1715),#1748,.T.);
#1715 = FACE_BOUND('',#1716,.T.);
#1716 = EDGE_LOOP('',(#1717,#1718,#1726,#1734,#1742));
#1717 = ORIENTED_EDGE('',*,*,#1687,.T.);
#1718 = ORIENTED_EDGE('',*,*,#1719,.T.);
#1719 = EDGE_CURVE('',#1680,#1720,#1722,.T.);
#1720 = VERTEX_POINT('',#1721);
#1721 = CARTESIAN_POINT('',(7.467845878211E-04,0.404761910901,8.9));
#1722 = LINE('',#1723,#1724);
#1723 = CARTESIAN_POINT('',(8.731331190089E-02,0.491328438214,
    8.683583681717));
#1724 = VECTOR('',#1725,1.);
#1725 = DIRECTION('',(-0.348155311911,-0.348155311911,0.870388279778));
#1726 = ORIENTED_EDGE('',*,*,#1727,.T.);
#1727 = EDGE_CURVE('',#1720,#1728,#1730,.T.);
#1728 = VERTEX_POINT('',#1729);
#1729 = CARTESIAN_POINT('',(0.107420634921,0.298088060568,8.9));
#1730 = LINE('',#1731,#1732);
#1731 = CARTESIAN_POINT('',(5.408370975423E-02,0.351424985735,8.9));
#1732 = VECTOR('',#1733,1.);
#1733 = DIRECTION('',(0.707106781187,-0.707106781187,0.));
#1734 = ORIENTED_EDGE('',*,*,#1735,.T.);
#1735 = EDGE_CURVE('',#1728,#1736,#1738,.T.);
#1736 = VERTEX_POINT('',#1737);
#1737 = CARTESIAN_POINT('',(0.307420634921,0.498088060568,8.4));
#1738 = LINE('',#1739,#1740);
#1739 = CARTESIAN_POINT('',(0.193987162234,0.384654587881,8.683583681717
    ));
#1740 = VECTOR('',#1741,1.);
#1741 = DIRECTION('',(0.348155311911,0.348155311911,-0.870388279778));
#1742 = ORIENTED_EDGE('',*,*,#1743,.T.);
#1743 = EDGE_CURVE('',#1736,#1688,#1744,.T.);
#1744 = LINE('',#1745,#1746);
#1745 = CARTESIAN_POINT('',(0.307420634921,2.362887611918,6.069000560813
    ));
#1746 = VECTOR('',#1747,1.);
#1747 = DIRECTION('',(-4.778401354478E-16,0.624695047554,-0.780868809443
    ));
#1748 = PLANE('',#1749);
#1749 = AXIS2_PLACEMENT_3D('',#1750,#1751,#1752);
#1750 = CARTESIAN_POINT('',(0.140650237067,0.437991513048,8.683583681717
    ));
#1751 = DIRECTION('',(0.615457454897,0.615457454897,0.492365963917));
#1752 = DIRECTION('',(0.624695047554,1.942890293094E-16,-0.780868809443)
  );
#1753 = ADVANCED_FACE('',(#1754),#1788,.T.);
#1754 = FACE_BOUND('',#1755,.T.);
#1755 = EDGE_LOOP('',(#1756,#1757,#1765,#1773,#1781,#1787));
#1756 = ORIENTED_EDGE('',*,*,#1743,.F.);
#1757 = ORIENTED_EDGE('',*,*,#1758,.F.);
#1758 = EDGE_CURVE('',#1759,#1736,#1761,.T.);
#1759 = VERTEX_POINT('',#1760);
#1760 = CARTESIAN_POINT('',(0.307420634921,7.643576123391E-02,8.4));
#1761 = LINE('',#1762,#1763);
#1762 = CARTESIAN_POINT('',(0.307420634921,0.128511910901,8.4));
#1763 = VECTOR('',#1764,1.);
#1764 = DIRECTION('',(-7.64917438226E-16,1.,0.));
#1765 = ORIENTED_EDGE('',*,*,#1766,.F.);
#1766 = EDGE_CURVE('',#1767,#1759,#1769,.T.);
#1767 = VERTEX_POINT('',#1768);
#1768 = CARTESIAN_POINT('',(0.307420634921,-3.023808909891E-02,
    8.266657687084));
#1769 = LINE('',#1770,#1771);
#1770 = CARTESIAN_POINT('',(0.307420634921,-1.91226622914,5.914122512033
    ));
#1771 = VECTOR('',#1772,1.);
#1772 = DIRECTION('',(-4.778401354478E-16,0.624695047554,0.780868809443)
  );
#1773 = ORIENTED_EDGE('',*,*,#1774,.F.);
#1774 = EDGE_CURVE('',#1775,#1767,#1777,.T.);
#1775 = VERTEX_POINT('',#1776);
#1776 = CARTESIAN_POINT('',(0.307420634921,-3.023808909891E-02,0.));
#1777 = LINE('',#1778,#1779);
#1778 = CARTESIAN_POINT('',(0.307420634921,-3.023808909891E-02,0.));
#1779 = VECTOR('',#1780,1.);
#1780 = DIRECTION('',(0.,0.,1.));
#1781 = ORIENTED_EDGE('',*,*,#1782,.T.);
#1782 = EDGE_CURVE('',#1775,#1696,#1783,.T.);
#1783 = LINE('',#1784,#1785);
#1784 = CARTESIAN_POINT('',(0.307420634921,-3.023808909891E-02,0.));
#1785 = VECTOR('',#1786,1.);
#1786 = DIRECTION('',(-7.64917438226E-16,1.,0.));
#1787 = ORIENTED_EDGE('',*,*,#1695,.T.);
#1788 = PLANE('',#1789);
#1789 = AXIS2_PLACEMENT_3D('',#1790,#1791,#1792);
#1790 = CARTESIAN_POINT('',(0.307420634921,-3.023808909891E-02,0.));
#1791 = DIRECTION('',(1.,7.64917438226E-16,0.));
#1792 = DIRECTION('',(-7.64917438226E-16,1.,0.));
#1793 = ADVANCED_FACE('',(#1794),#1812,.T.);
#1794 = FACE_BOUND('',#1795,.T.);
#1795 = EDGE_LOOP('',(#1796,#1797,#1805,#1811));
#1796 = ORIENTED_EDGE('',*,*,#1735,.F.);
#1797 = ORIENTED_EDGE('',*,*,#1798,.T.);
#1798 = EDGE_CURVE('',#1728,#1799,#1801,.T.);
#1799 = VERTEX_POINT('',#1800);
#1800 = CARTESIAN_POINT('',(0.107420634921,0.276435761234,8.9));
#1801 = LINE('',#1802,#1803);
#1802 = CARTESIAN_POINT('',(0.107420634921,0.128511910901,8.9));
#1803 = VECTOR('',#1804,1.);
#1804 = DIRECTION('',(7.64917438226E-16,-1.,0.));
#1805 = ORIENTED_EDGE('',*,*,#1806,.F.);
#1806 = EDGE_CURVE('',#1759,#1799,#1807,.T.);
#1807 = LINE('',#1808,#1809);
#1808 = CARTESIAN_POINT('',(0.193987162234,0.189869233921,8.683583681717
    ));
#1809 = VECTOR('',#1810,1.);
#1810 = DIRECTION('',(-0.348155311911,0.348155311911,0.870388279778));
#1811 = ORIENTED_EDGE('',*,*,#1758,.T.);
#1812 = PLANE('',#1813);
#1813 = AXIS2_PLACEMENT_3D('',#1814,#1815,#1816);
#1814 = CARTESIAN_POINT('',(0.207420634921,0.128511910901,8.65));
#1815 = DIRECTION('',(0.928476690885,7.102080118445E-16,0.371390676354)
  );
#1816 = DIRECTION('',(0.371390676354,0.,-0.928476690885));
#1817 = ADVANCED_FACE('',(#1818),#1844,.T.);
#1818 = FACE_BOUND('',#1819,.T.);
#1819 = EDGE_LOOP('',(#1820,#1828,#1836,#1842,#1843));
#1820 = ORIENTED_EDGE('',*,*,#1821,.T.);
#1821 = EDGE_CURVE('',#1799,#1822,#1824,.T.);
#1822 = VERTEX_POINT('',#1823);
#1823 = CARTESIAN_POINT('',(7.467845878215E-04,0.169761910901,8.9));
#1824 = LINE('',#1825,#1826);
#1825 = CARTESIAN_POINT('',(5.408370975423E-02,0.223098836068,8.9));
#1826 = VECTOR('',#1827,1.);
#1827 = DIRECTION('',(-0.707106781187,-0.707106781187,0.));
#1828 = ORIENTED_EDGE('',*,*,#1829,.T.);
#1829 = EDGE_CURVE('',#1822,#1830,#1832,.T.);
#1830 = VERTEX_POINT('',#1831);
#1831 = CARTESIAN_POINT('',(0.200746784588,-3.023808909891E-02,8.4));
#1832 = LINE('',#1833,#1834);
#1833 = CARTESIAN_POINT('',(8.731331190089E-02,8.319538358803E-02,
    8.683583681717));
#1834 = VECTOR('',#1835,1.);
#1835 = DIRECTION('',(0.348155311911,-0.348155311911,-0.870388279778));
#1836 = ORIENTED_EDGE('',*,*,#1837,.T.);
#1837 = EDGE_CURVE('',#1830,#1767,#1838,.T.);
#1838 = LINE('',#1839,#1840);
#1839 = CARTESIAN_POINT('',(2.065546335937,-3.023808909891E-02,
    6.069000560813));
#1840 = VECTOR('',#1841,1.);
#1841 = DIRECTION('',(0.624695047554,0.,-0.780868809443));
#1842 = ORIENTED_EDGE('',*,*,#1766,.T.);
#1843 = ORIENTED_EDGE('',*,*,#1806,.T.);
#1844 = PLANE('',#1845);
#1845 = AXIS2_PLACEMENT_3D('',#1846,#1847,#1848);
#1846 = CARTESIAN_POINT('',(0.140650237067,0.136532308754,8.683583681717
    ));
#1847 = DIRECTION('',(0.615457454897,-0.615457454897,0.492365963917));
#1848 = DIRECTION('',(0.624695047554,-1.665334536938E-16,-0.780868809443
    ));
#1849 = ADVANCED_FACE('',(#1850),#1875,.T.);
#1850 = FACE_BOUND('',#1851,.T.);
#1851 = EDGE_LOOP('',(#1852,#1853,#1861,#1867,#1868,#1874));
#1852 = ORIENTED_EDGE('',*,*,#1837,.F.);
#1853 = ORIENTED_EDGE('',*,*,#1854,.F.);
#1854 = EDGE_CURVE('',#1855,#1830,#1857,.T.);
#1855 = VERTEX_POINT('',#1856);
#1856 = CARTESIAN_POINT('',(-0.220905514747,-3.023808909891E-02,8.4));
#1857 = LINE('',#1858,#1859);
#1858 = CARTESIAN_POINT('',(-0.168829365079,-3.023808909891E-02,8.4));
#1859 = VECTOR('',#1860,1.);
#1860 = DIRECTION('',(1.,0.,0.));
#1861 = ORIENTED_EDGE('',*,*,#1862,.F.);
#1862 = EDGE_CURVE('',#1656,#1855,#1863,.T.);
#1863 = LINE('',#1864,#1865);
#1864 = CARTESIAN_POINT('',(-2.20960750512,-3.023808909891E-02,
    5.914122512033));
#1865 = VECTOR('',#1866,1.);
#1866 = DIRECTION('',(0.624695047554,0.,0.780868809443));
#1867 = ORIENTED_EDGE('',*,*,#1655,.F.);
#1868 = ORIENTED_EDGE('',*,*,#1869,.T.);
#1869 = EDGE_CURVE('',#1648,#1775,#1870,.T.);
#1870 = LINE('',#1871,#1872);
#1871 = CARTESIAN_POINT('',(-0.327579365079,-3.023808909891E-02,0.));
#1872 = VECTOR('',#1873,1.);
#1873 = DIRECTION('',(1.,0.,0.));
#1874 = ORIENTED_EDGE('',*,*,#1774,.T.);
#1875 = PLANE('',#1876);
#1876 = AXIS2_PLACEMENT_3D('',#1877,#1878,#1879);
#1877 = CARTESIAN_POINT('',(-0.327579365079,-3.023808909891E-02,0.));
#1878 = DIRECTION('',(0.,-1.,0.));
#1879 = DIRECTION('',(1.,0.,0.));
#1880 = ADVANCED_FACE('',(#1881),#1900,.T.);
#1881 = FACE_BOUND('',#1882,.T.);
#1882 = EDGE_LOOP('',(#1883,#1884,#1892,#1898,#1899));
#1883 = ORIENTED_EDGE('',*,*,#1862,.T.);
#1884 = ORIENTED_EDGE('',*,*,#1885,.T.);
#1885 = EDGE_CURVE('',#1855,#1886,#1888,.T.);
#1886 = VERTEX_POINT('',#1887);
#1887 = CARTESIAN_POINT('',(-2.090551474655E-02,0.169761910901,8.9));
#1888 = LINE('',#1889,#1890);
#1889 = CARTESIAN_POINT('',(-0.10747204206,8.319538358803E-02,
    8.683583681717));
#1890 = VECTOR('',#1891,1.);
#1891 = DIRECTION('',(0.348155311911,0.348155311911,0.870388279778));
#1892 = ORIENTED_EDGE('',*,*,#1893,.T.);
#1893 = EDGE_CURVE('',#1886,#1617,#1894,.T.);
#1894 = LINE('',#1895,#1896);
#1895 = CARTESIAN_POINT('',(-7.424243991296E-02,0.223098836068,8.9));
#1896 = VECTOR('',#1897,1.);
#1897 = DIRECTION('',(-0.707106781187,0.707106781187,0.));
#1898 = ORIENTED_EDGE('',*,*,#1616,.T.);
#1899 = ORIENTED_EDGE('',*,*,#1663,.T.);
#1900 = PLANE('',#1901);
#1901 = AXIS2_PLACEMENT_3D('',#1902,#1903,#1904);
#1902 = CARTESIAN_POINT('',(-0.160808967226,0.136532308754,
    8.683583681717));
#1903 = DIRECTION('',(-0.615457454897,-0.615457454897,0.492365963917));
#1904 = DIRECTION('',(0.624695047554,1.942890293094E-16,0.780868809443)
  );
#1905 = ADVANCED_FACE('',(#1906),#1917,.T.);
#1906 = FACE_BOUND('',#1907,.T.);
#1907 = EDGE_LOOP('',(#1908,#1909,#1915,#1916));
#1908 = ORIENTED_EDGE('',*,*,#1829,.F.);
#1909 = ORIENTED_EDGE('',*,*,#1910,.T.);
#1910 = EDGE_CURVE('',#1822,#1886,#1911,.T.);
#1911 = LINE('',#1912,#1913);
#1912 = CARTESIAN_POINT('',(-0.168829365079,0.169761910901,8.9));
#1913 = VECTOR('',#1914,1.);
#1914 = DIRECTION('',(-1.,0.,0.));
#1915 = ORIENTED_EDGE('',*,*,#1885,.F.);
#1916 = ORIENTED_EDGE('',*,*,#1854,.T.);
#1917 = PLANE('',#1918);
#1918 = AXIS2_PLACEMENT_3D('',#1919,#1920,#1921);
#1919 = CARTESIAN_POINT('',(-0.168829365079,6.976191090109E-02,8.65));
#1920 = DIRECTION('',(0.,-0.928476690885,0.371390676354));
#1921 = DIRECTION('',(0.,-0.371390676354,-0.928476690885));
#1922 = ADVANCED_FACE('',(#1923),#1938,.T.);
#1923 = FACE_BOUND('',#1924,.T.);
#1924 = EDGE_LOOP('',(#1925,#1926,#1927,#1928,#1929,#1930,#1931,#1932));
#1925 = ORIENTED_EDGE('',*,*,#1577,.F.);
#1926 = ORIENTED_EDGE('',*,*,#1624,.F.);
#1927 = ORIENTED_EDGE('',*,*,#1893,.F.);
#1928 = ORIENTED_EDGE('',*,*,#1910,.F.);
#1929 = ORIENTED_EDGE('',*,*,#1821,.F.);
#1930 = ORIENTED_EDGE('',*,*,#1798,.F.);
#1931 = ORIENTED_EDGE('',*,*,#1727,.F.);
#1932 = ORIENTED_EDGE('',*,*,#1933,.F.);
#1933 = EDGE_CURVE('',#1578,#1720,#1934,.T.);
#1934 = LINE('',#1935,#1936);
#1935 = CARTESIAN_POINT('',(0.148670634921,0.404761910901,8.9));
#1936 = VECTOR('',#1937,1.);
#1937 = DIRECTION('',(1.,0.,0.));
#1938 = PLANE('',#1939);
#1939 = AXIS2_PLACEMENT_3D('',#1940,#1941,#1942);
#1940 = CARTESIAN_POINT('',(-1.007936507936E-02,0.287261910901,8.9));
#1941 = DIRECTION('',(0.,0.,1.));
#1942 = DIRECTION('',(1.,0.,-0.));
#1943 = ADVANCED_FACE('',(#1944),#1950,.T.);
#1944 = FACE_BOUND('',#1945,.T.);
#1945 = EDGE_LOOP('',(#1946,#1947,#1948,#1949));
#1946 = ORIENTED_EDGE('',*,*,#1585,.F.);
#1947 = ORIENTED_EDGE('',*,*,#1933,.T.);
#1948 = ORIENTED_EDGE('',*,*,#1719,.F.);
#1949 = ORIENTED_EDGE('',*,*,#1679,.T.);
#1950 = PLANE('',#1951);
#1951 = AXIS2_PLACEMENT_3D('',#1952,#1953,#1954);
#1952 = CARTESIAN_POINT('',(0.148670634921,0.504761910901,8.65));
#1953 = DIRECTION('',(0.,0.928476690885,0.371390676354));
#1954 = DIRECTION('',(0.,-0.371390676354,0.928476690885));
#1955 = ADVANCED_FACE('',(#1956),#1962,.F.);
#1956 = FACE_BOUND('',#1957,.T.);
#1957 = EDGE_LOOP('',(#1958,#1959,#1960,#1961));
#1958 = ORIENTED_EDGE('',*,*,#1703,.F.);
#1959 = ORIENTED_EDGE('',*,*,#1782,.F.);
#1960 = ORIENTED_EDGE('',*,*,#1869,.F.);
#1961 = ORIENTED_EDGE('',*,*,#1647,.F.);
#1962 = PLANE('',#1963);
#1963 = AXIS2_PLACEMENT_3D('',#1964,#1965,#1966);
#1964 = CARTESIAN_POINT('',(-1.007936507936E-02,0.287261910901,0.));
#1965 = DIRECTION('',(0.,0.,1.));
#1966 = DIRECTION('',(1.,0.,-0.));
#1967 = ( GEOMETRIC_REPRESENTATION_CONTEXT(3) 
GLOBAL_UNCERTAINTY_ASSIGNED_CONTEXT((#1971)) 
GLOBAL_UNIT_ASSIGNED_CONTEXT((#1968,#1969,#1970)) REPRESENTATION_CONTEXT
('Context #1','3D Context with UNIT and UNCERTAINTY') );
#1968 = ( LENGTH_UNIT() NAMED_UNIT(*) SI_UNIT(.MILLI.,.METRE.) );
#1969 = ( NAMED_UNIT(*) PLANE_ANGLE_UNIT() SI_UNIT($,.RADIAN.) );
#1970 = ( NAMED_UNIT(*) SI_UNIT($,.STERADIAN.) SOLID_ANGLE_UNIT() );
#1971 = UNCERTAINTY_MEASURE_WITH_UNIT(LENGTH_MEASURE(1.E-07),#1968,
  'distance_accuracy_value','confusion accuracy');
#1972 = CONTEXT_DEPENDENT_SHAPE_REPRESENTATION(#1973,#1975);
#1973 = ( REPRESENTATION_RELATIONSHIP('','',#1552,#1092) 
REPRESENTATION_RELATIONSHIP_WITH_TRANSFORMATION(#1974) 
SHAPE_REPRESENTATION_RELATIONSHIP() );
#1974 = ITEM_DEFINED_TRANSFORMATION('','',#11,#1097);
#1975 = PRODUCT_DEFINITION_SHAPE('Placement','Placement of an item',
  #1976);
#1976 = NEXT_ASSEMBLY_USAGE_OCCURRENCE('8','1039930_IPT_001','',#1087,
  #1547,$);
#1977 = PRODUCT_RELATED_PRODUCT_CATEGORY('part',$,(#1549));
#1978 = CONTEXT_DEPENDENT_SHAPE_REPRESENTATION(#1979,#1981);
#1979 = ( REPRESENTATION_RELATIONSHIP('','',#67,#32) 
REPRESENTATION_RELATIONSHIP_WITH_TRANSFORMATION(#1980) 
SHAPE_REPRESENTATION_RELATIONSHIP() );
#1980 = ITEM_DEFINED_TRANSFORMATION('','',#11,#41);
#1981 = PRODUCT_DEFINITION_SHAPE('Placement','Placement of an item',
  #1982);
#1982 = NEXT_ASSEMBLY_USAGE_OCCURRENCE('10','F1000S1120M007B002','',#27,
  #62,$);
#1983 = SHAPE_DEFINITION_REPRESENTATION(#1984,#1990);
#1984 = PRODUCT_DEFINITION_SHAPE('','',#1985);
#1985 = PRODUCT_DEFINITION('design','',#1986,#1989);
#1986 = PRODUCT_DEFINITION_FORMATION('','',#1987);
#1987 = PRODUCT('1039931_IAM_002','1039931_IAM_002','',(#1988));
#1988 = PRODUCT_CONTEXT('',#2,'mechanical');
#1989 = PRODUCT_DEFINITION_CONTEXT('part definition',#2,'design');
#1990 = SHAPE_REPRESENTATION('',(#11,#1991,#1995),#1999);
#1991 = AXIS2_PLACEMENT_3D('',#1992,#1993,#1994);
#1992 = CARTESIAN_POINT('',(0.,0.,0.));
#1993 = DIRECTION('',(0.,0.,1.));
#1994 = DIRECTION('',(1.,0.,0.));
#1995 = AXIS2_PLACEMENT_3D('',#1996,#1997,#1998);
#1996 = CARTESIAN_POINT('',(-4.51028103754E-16,0.574523821802,0.));
#1997 = DIRECTION('',(0.,0.,-1.));
#1998 = DIRECTION('',(1.,0.,0.));
#1999 = ( GEOMETRIC_REPRESENTATION_CONTEXT(3) 
GLOBAL_UNCERTAINTY_ASSIGNED_CONTEXT((#2003)) 
GLOBAL_UNIT_ASSIGNED_CONTEXT((#2000,#2001,#2002)) REPRESENTATION_CONTEXT
('Context #1','3D Context with UNIT and UNCERTAINTY') );
#2000 = ( LENGTH_UNIT() NAMED_UNIT(*) SI_UNIT(.MILLI.,.METRE.) );
#2001 = ( NAMED_UNIT(*) PLANE_ANGLE_UNIT() SI_UNIT($,.RADIAN.) );
#2002 = ( NAMED_UNIT(*) SI_UNIT($,.STERADIAN.) SOLID_ANGLE_UNIT() );
#2003 = UNCERTAINTY_MEASURE_WITH_UNIT(LENGTH_MEASURE(1.E-07),#2000,
  'distance_accuracy_value','confusion accuracy');
#2004 = CONTEXT_DEPENDENT_SHAPE_REPRESENTATION(#2005,#2007);
#2005 = ( REPRESENTATION_RELATIONSHIP('','',#1990,#32) 
REPRESENTATION_RELATIONSHIP_WITH_TRANSFORMATION(#2006) 
SHAPE_REPRESENTATION_RELATIONSHIP() );
#2006 = ITEM_DEFINED_TRANSFORMATION('','',#11,#45);
#2007 = PRODUCT_DEFINITION_SHAPE('Placement','Placement of an item',
  #2008);
#2008 = NEXT_ASSEMBLY_USAGE_OCCURRENCE('13','1039931_IAM_002','',#27,
  #1985,$);
#2009 = PRODUCT_RELATED_PRODUCT_CATEGORY('part',$,(#1987));
#2010 = CONTEXT_DEPENDENT_SHAPE_REPRESENTATION(#2011,#2013);
#2011 = ( REPRESENTATION_RELATIONSHIP('','',#1119,#1990) 
REPRESENTATION_RELATIONSHIP_WITH_TRANSFORMATION(#2012) 
SHAPE_REPRESENTATION_RELATIONSHIP() );
#2012 = ITEM_DEFINED_TRANSFORMATION('','',#11,#1991);
#2013 = PRODUCT_DEFINITION_SHAPE('Placement','Placement of an item',
  #2014);
#2014 = NEXT_ASSEMBLY_USAGE_OCCURRENCE('11','1039929_IPT_002','',#1985,
  #1114,$);
#2015 = CONTEXT_DEPENDENT_SHAPE_REPRESENTATION(#2016,#2018);
#2016 = ( REPRESENTATION_RELATIONSHIP('','',#1552,#1990) 
REPRESENTATION_RELATIONSHIP_WITH_TRANSFORMATION(#2017) 
SHAPE_REPRESENTATION_RELATIONSHIP() );
#2017 = ITEM_DEFINED_TRANSFORMATION('','',#11,#1995);
#2018 = PRODUCT_DEFINITION_SHAPE('Placement','Placement of an item',
  #2019);
#2019 = NEXT_ASSEMBLY_USAGE_OCCURRENCE('12','1039930_IPT_002','',#1985,
  #1547,$);
#2020 = SHAPE_DEFINITION_REPRESENTATION(#1981,#2021);
#2021 = SHAPE_REPRESENTATION('',(#41),#1074);
#2022 = SHAPE_DEFINITION_REPRESENTATION(#2013,#2023);
#2023 = SHAPE_REPRESENTATION('',(#1991),#1534);
#2024 = SHAPE_DEFINITION_REPRESENTATION(#2018,#2025);
#2025 = SHAPE_REPRESENTATION('',(#1995),#1967);
#2026 = SHAPE_DEFINITION_REPRESENTATION(#2013,#2027);
#2027 = SHAPE_REPRESENTATION('',(#1991),#1534);
#2028 = SHAPE_DEFINITION_REPRESENTATION(#2018,#2029);
#2029 = SHAPE_REPRESENTATION('',(#1995),#1967);
#2030 = SHAPE_DEFINITION_REPRESENTATION(#1981,#2031);
#2031 = SHAPE_REPRESENTATION('',(#41),#1074);
#2032 = MECHANICAL_DESIGN_GEOMETRIC_PRESENTATION_REPRESENTATION('',(
    #2033,#2044,#2053),#1074);
#2033 = STYLED_ITEM('color',(#2034),#68);
#2034 = PRESENTATION_STYLE_ASSIGNMENT((#2035,#2041));
#2035 = SURFACE_STYLE_USAGE(.BOTH.,#2036);
#2036 = SURFACE_SIDE_STYLE('',(#2037));
#2037 = SURFACE_STYLE_FILL_AREA(#2038);
#2038 = FILL_AREA_STYLE('',(#2039));
#2039 = FILL_AREA_STYLE_COLOUR('',#2040);
#2040 = COLOUR_RGB('',0.199999998682,0.199999998682,0.199999998682);
#2041 = CURVE_STYLE('',#2042,POSITIVE_LENGTH_MEASURE(0.1),#2043);
#2042 = DRAUGHTING_PRE_DEFINED_CURVE_FONT('continuous');
#2043 = COLOUR_RGB('',9.803921802644E-02,9.803921802644E-02,
  9.803921802644E-02);
#2044 = OVER_RIDING_STYLED_ITEM('overriding color',(#2045),#68,#2033);
#2045 = PRESENTATION_STYLE_BY_CONTEXT((#2046,#2051),#2021);
#2046 = SURFACE_STYLE_USAGE(.BOTH.,#2047);
#2047 = SURFACE_SIDE_STYLE('',(#2048));
#2048 = SURFACE_STYLE_FILL_AREA(#2049);
#2049 = FILL_AREA_STYLE('',(#2050));
#2050 = FILL_AREA_STYLE_COLOUR('',#2040);
#2051 = CURVE_STYLE('',#2052,POSITIVE_LENGTH_MEASURE(0.1),#2043);
#2052 = DRAUGHTING_PRE_DEFINED_CURVE_FONT('continuous');
#2053 = OVER_RIDING_STYLED_ITEM('overriding color',(#2054),#68,#2033);
#2054 = PRESENTATION_STYLE_BY_CONTEXT((#2055,#2061),#2031);
#2055 = SURFACE_STYLE_USAGE(.BOTH.,#2056);
#2056 = SURFACE_SIDE_STYLE('',(#2057));
#2057 = SURFACE_STYLE_FILL_AREA(#2058);
#2058 = FILL_AREA_STYLE('',(#2059));
#2059 = FILL_AREA_STYLE_COLOUR('',#2060);
#2060 = COLOUR_RGB('',0.199999998682,0.199999998682,0.199999998682);
#2061 = CURVE_STYLE('',#2062,POSITIVE_LENGTH_MEASURE(0.1),#2063);
#2062 = DRAUGHTING_PRE_DEFINED_CURVE_FONT('continuous');
#2063 = COLOUR_RGB('',9.803921802644E-02,9.803921802644E-02,
  9.803921802644E-02);
#2064 = MECHANICAL_DESIGN_GEOMETRIC_PRESENTATION_REPRESENTATION('',(
    #2065,#2075,#2084),#1967);
#2065 = STYLED_ITEM('color',(#2066),#1553);
#2066 = PRESENTATION_STYLE_ASSIGNMENT((#2067,#2073));
#2067 = SURFACE_STYLE_USAGE(.BOTH.,#2068);
#2068 = SURFACE_SIDE_STYLE('',(#2069));
#2069 = SURFACE_STYLE_FILL_AREA(#2070);
#2070 = FILL_AREA_STYLE('',(#2071));
#2071 = FILL_AREA_STYLE_COLOUR('',#2072);
#2072 = COLOUR_RGB('',0.988235296747,0.827450977613,0.345098051753);
#2073 = CURVE_STYLE('',#2074,POSITIVE_LENGTH_MEASURE(0.1),#2043);
#2074 = DRAUGHTING_PRE_DEFINED_CURVE_FONT('continuous');
#2075 = OVER_RIDING_STYLED_ITEM('overriding color',(#2076),#1553,#2065);
#2076 = PRESENTATION_STYLE_BY_CONTEXT((#2077,#2082),#2025);
#2077 = SURFACE_STYLE_USAGE(.BOTH.,#2078);
#2078 = SURFACE_SIDE_STYLE('',(#2079));
#2079 = SURFACE_STYLE_FILL_AREA(#2080);
#2080 = FILL_AREA_STYLE('',(#2081));
#2081 = FILL_AREA_STYLE_COLOUR('',#2072);
#2082 = CURVE_STYLE('',#2083,POSITIVE_LENGTH_MEASURE(0.1),#2043);
#2083 = DRAUGHTING_PRE_DEFINED_CURVE_FONT('continuous');
#2084 = OVER_RIDING_STYLED_ITEM('overriding color',(#2085),#1553,#2065);
#2085 = PRESENTATION_STYLE_BY_CONTEXT((#2086,#2092),#2029);
#2086 = SURFACE_STYLE_USAGE(.BOTH.,#2087);
#2087 = SURFACE_SIDE_STYLE('',(#2088));
#2088 = SURFACE_STYLE_FILL_AREA(#2089);
#2089 = FILL_AREA_STYLE('',(#2090));
#2090 = FILL_AREA_STYLE_COLOUR('',#2091);
#2091 = COLOUR_RGB('',0.988235296747,0.827450977613,0.345098051753);
#2092 = CURVE_STYLE('',#2093,POSITIVE_LENGTH_MEASURE(0.1),#2094);
#2093 = DRAUGHTING_PRE_DEFINED_CURVE_FONT('continuous');
#2094 = COLOUR_RGB('',9.803921802644E-02,9.803921802644E-02,
  9.803921802644E-02);
#2095 = MECHANICAL_DESIGN_GEOMETRIC_PRESENTATION_REPRESENTATION('',(
    #2096,#2105,#2114),#1534);
#2096 = STYLED_ITEM('color',(#2097),#1120);
#2097 = PRESENTATION_STYLE_ASSIGNMENT((#2098,#2103));
#2098 = SURFACE_STYLE_USAGE(.BOTH.,#2099);
#2099 = SURFACE_SIDE_STYLE('',(#2100));
#2100 = SURFACE_STYLE_FILL_AREA(#2101);
#2101 = FILL_AREA_STYLE('',(#2102));
#2102 = FILL_AREA_STYLE_COLOUR('',#2072);
#2103 = CURVE_STYLE('',#2104,POSITIVE_LENGTH_MEASURE(0.1),#2043);
#2104 = DRAUGHTING_PRE_DEFINED_CURVE_FONT('continuous');
#2105 = OVER_RIDING_STYLED_ITEM('overriding color',(#2106),#1120,#2096);
#2106 = PRESENTATION_STYLE_BY_CONTEXT((#2107,#2112),#2023);
#2107 = SURFACE_STYLE_USAGE(.BOTH.,#2108);
#2108 = SURFACE_SIDE_STYLE('',(#2109));
#2109 = SURFACE_STYLE_FILL_AREA(#2110);
#2110 = FILL_AREA_STYLE('',(#2111));
#2111 = FILL_AREA_STYLE_COLOUR('',#2072);
#2112 = CURVE_STYLE('',#2113,POSITIVE_LENGTH_MEASURE(0.1),#2043);
#2113 = DRAUGHTING_PRE_DEFINED_CURVE_FONT('continuous');
#2114 = OVER_RIDING_STYLED_ITEM('overriding color',(#2115),#1120,#2096);
#2115 = PRESENTATION_STYLE_BY_CONTEXT((#2116,#2121),#2027);
#2116 = SURFACE_STYLE_USAGE(.BOTH.,#2117);
#2117 = SURFACE_SIDE_STYLE('',(#2118));
#2118 = SURFACE_STYLE_FILL_AREA(#2119);
#2119 = FILL_AREA_STYLE('',(#2120));
#2120 = FILL_AREA_STYLE_COLOUR('',#2091);
#2121 = CURVE_STYLE('',#2122,POSITIVE_LENGTH_MEASURE(0.1),#2094);
#2122 = DRAUGHTING_PRE_DEFINED_CURVE_FONT('continuous');
ENDSEC;
END-ISO-10303-21;
