ISO-10303-21;
HEADER;
FILE_DESCRIPTION(('FreeCAD Model'),'2;1');
FILE_NAME('Open CASCADE Shape Model','2025-11-29T17:04:40',(''),(''),
  'Open CASCADE STEP processor 7.8','FreeCAD','Unknown');
FILE_SCHEMA(('AUTOMOTIVE_DESIGN { 1 0 10303 214 1 1 1 1 }'));
ENDSEC;
DATA;
#1 = APPLICATION_PROTOCOL_DEFINITION('international standard',
  'automotive_design',2000,#2);
#2 = APPLICATION_CONTEXT(
  'core data for automotive mechanical design processes');
#3 = SHAPE_DEFINITION_REPRESENTATION(#4,#10);
#4 = PRODUCT_DEFINITION_SHAPE('','',#5);
#5 = PRODUCT_DEFINITION('design','',#6,#9);
#6 = PRODUCT_DEFINITION_FORMATION('','',#7);
#7 = PRODUCT('KP-1608SGC004','KP-1608SGC004','',(#8));
#8 = PRODUCT_CONTEXT('',#2,'mechanical');
#9 = PRODUCT_DEFINITION_CONTEXT('part definition',#2,'design');
#10 = SHAPE_REPRESENTATION('',(#11,#15,#19,#23,#27),#31);
#11 = AXIS2_PLACEMENT_3D('',#12,#13,#14);
#12 = CARTESIAN_POINT('',(0.,0.,0.));
#13 = DIRECTION('',(0.,0.,1.));
#14 = DIRECTION('',(1.,0.,-0.));
#15 = AXIS2_PLACEMENT_3D('',#16,#17,#18);
#16 = CARTESIAN_POINT('',(-3.024E-03,1.860000000004E-04,5.814E-03));
#17 = DIRECTION('',(1.224646799147E-16,1.,2.22044604925E-16));
#18 = DIRECTION('',(-1.,1.224646799147E-16,0.));
#19 = AXIS2_PLACEMENT_3D('',#20,#21,#22);
#20 = CARTESIAN_POINT('',(-3.024E-03,1.860000000004E-04,5.814E-03));
#21 = DIRECTION('',(1.224646799147E-16,1.,2.22044604925E-16));
#22 = DIRECTION('',(-1.,1.224646799147E-16,0.));
#23 = AXIS2_PLACEMENT_3D('',#24,#25,#26);
#24 = CARTESIAN_POINT('',(-3.024E-03,1.860000000004E-04,5.814E-03));
#25 = DIRECTION('',(1.224646799147E-16,1.,2.22044604925E-16));
#26 = DIRECTION('',(-1.,1.224646799147E-16,0.));
#27 = AXIS2_PLACEMENT_3D('',#28,#29,#30);
#28 = CARTESIAN_POINT('',(-3.024E-03,1.860000000004E-04,5.814E-03));
#29 = DIRECTION('',(1.224646799147E-16,1.,2.22044604925E-16));
#30 = DIRECTION('',(-1.,1.224646799147E-16,0.));
#31 = ( GEOMETRIC_REPRESENTATION_CONTEXT(3) 
GLOBAL_UNCERTAINTY_ASSIGNED_CONTEXT((#35)) GLOBAL_UNIT_ASSIGNED_CONTEXT(
(#32,#33,#34)) REPRESENTATION_CONTEXT('Context #1',
  '3D Context with UNIT and UNCERTAINTY') );
#32 = ( LENGTH_UNIT() NAMED_UNIT(*) SI_UNIT(.MILLI.,.METRE.) );
#33 = ( NAMED_UNIT(*) PLANE_ANGLE_UNIT() SI_UNIT($,.RADIAN.) );
#34 = ( NAMED_UNIT(*) SI_UNIT($,.STERADIAN.) SOLID_ANGLE_UNIT() );
#35 = UNCERTAINTY_MEASURE_WITH_UNIT(LENGTH_MEASURE(1.E-07),#32,
  'distance_accuracy_value','confusion accuracy');
#36 = PRODUCT_RELATED_PRODUCT_CATEGORY('part',$,(#7));
#37 = SHAPE_DEFINITION_REPRESENTATION(#38,#44);
#38 = PRODUCT_DEFINITION_SHAPE('','',#39);
#39 = PRODUCT_DEFINITION('design','',#40,#43);
#40 = PRODUCT_DEFINITION_FORMATION('','',#41);
#41 = PRODUCT('KP-1608SGC','KP-1608SGC','',(#42));
#42 = PRODUCT_CONTEXT('',#2,'mechanical');
#43 = PRODUCT_DEFINITION_CONTEXT('part definition',#2,'design');
#44 = ADVANCED_BREP_SHAPE_REPRESENTATION('',(#11,#45),#327);
#45 = MANIFOLD_SOLID_BREP('',#46);
#46 = CLOSED_SHELL('',(#47,#87,#118,#149,#180,#211,#242,#273,#295,#311)
  );
#47 = ADVANCED_FACE('',(#48),#82,.T.);
#48 = FACE_BOUND('',#49,.T.);
#49 = EDGE_LOOP('',(#50,#60,#68,#76));
#50 = ORIENTED_EDGE('',*,*,#51,.F.);
#51 = EDGE_CURVE('',#52,#54,#56,.T.);
#52 = VERTEX_POINT('',#53);
#53 = CARTESIAN_POINT('',(-0.8,0.5,-0.4));
#54 = VERTEX_POINT('',#55);
#55 = CARTESIAN_POINT('',(-0.7,0.5,-0.4));
#56 = LINE('',#57,#58);
#57 = CARTESIAN_POINT('',(-0.7,0.5,-0.4));
#58 = VECTOR('',#59,1.);
#59 = DIRECTION('',(1.,0.,-1.355252715607E-16));
#60 = ORIENTED_EDGE('',*,*,#61,.T.);
#61 = EDGE_CURVE('',#52,#62,#64,.T.);
#62 = VERTEX_POINT('',#63);
#63 = CARTESIAN_POINT('',(-0.8,0.5,0.4));
#64 = LINE('',#65,#66);
#65 = CARTESIAN_POINT('',(-0.8,0.5,-0.983095189485));
#66 = VECTOR('',#67,1.);
#67 = DIRECTION('',(0.,0.,1.));
#68 = ORIENTED_EDGE('',*,*,#69,.F.);
#69 = EDGE_CURVE('',#70,#62,#72,.T.);
#70 = VERTEX_POINT('',#71);
#71 = CARTESIAN_POINT('',(-0.7,0.5,0.4));
#72 = LINE('',#73,#74);
#73 = CARTESIAN_POINT('',(-0.7,0.5,0.4));
#74 = VECTOR('',#75,1.);
#75 = DIRECTION('',(-1.,0.,0.));
#76 = ORIENTED_EDGE('',*,*,#77,.F.);
#77 = EDGE_CURVE('',#54,#70,#78,.T.);
#78 = LINE('',#79,#80);
#79 = CARTESIAN_POINT('',(-0.7,0.5,-0.983095189485));
#80 = VECTOR('',#81,1.);
#81 = DIRECTION('',(0.,0.,1.));
#82 = PLANE('',#83);
#83 = AXIS2_PLACEMENT_3D('',#84,#85,#86);
#84 = CARTESIAN_POINT('',(-0.7,0.5,-0.983095189485));
#85 = DIRECTION('',(0.,1.,-0.));
#86 = DIRECTION('',(0.,0.,1.));
#87 = ADVANCED_FACE('',(#88),#113,.T.);
#88 = FACE_BOUND('',#89,.T.);
#89 = EDGE_LOOP('',(#90,#98,#99,#107));
#90 = ORIENTED_EDGE('',*,*,#91,.F.);
#91 = EDGE_CURVE('',#54,#92,#94,.T.);
#92 = VERTEX_POINT('',#93);
#93 = CARTESIAN_POINT('',(-0.7,0.48,-0.4));
#94 = LINE('',#95,#96);
#95 = CARTESIAN_POINT('',(-0.7,0.48,-0.4));
#96 = VECTOR('',#97,1.);
#97 = DIRECTION('',(0.,-1.,-0.));
#98 = ORIENTED_EDGE('',*,*,#77,.T.);
#99 = ORIENTED_EDGE('',*,*,#100,.F.);
#100 = EDGE_CURVE('',#101,#70,#103,.T.);
#101 = VERTEX_POINT('',#102);
#102 = CARTESIAN_POINT('',(-0.7,0.48,0.4));
#103 = LINE('',#104,#105);
#104 = CARTESIAN_POINT('',(-0.7,0.48,0.4));
#105 = VECTOR('',#106,1.);
#106 = DIRECTION('',(0.,1.,0.));
#107 = ORIENTED_EDGE('',*,*,#108,.F.);
#108 = EDGE_CURVE('',#92,#101,#109,.T.);
#109 = LINE('',#110,#111);
#110 = CARTESIAN_POINT('',(-0.7,0.48,-0.983095189485));
#111 = VECTOR('',#112,1.);
#112 = DIRECTION('',(0.,0.,1.));
#113 = PLANE('',#114);
#114 = AXIS2_PLACEMENT_3D('',#115,#116,#117);
#115 = CARTESIAN_POINT('',(-0.7,0.48,-0.983095189485));
#116 = DIRECTION('',(1.,0.,0.));
#117 = DIRECTION('',(0.,0.,-1.));
#118 = ADVANCED_FACE('',(#119),#144,.T.);
#119 = FACE_BOUND('',#120,.T.);
#120 = EDGE_LOOP('',(#121,#129,#130,#138));
#121 = ORIENTED_EDGE('',*,*,#122,.F.);
#122 = EDGE_CURVE('',#92,#123,#125,.T.);
#123 = VERTEX_POINT('',#124);
#124 = CARTESIAN_POINT('',(-0.78,0.48,-0.4));
#125 = LINE('',#126,#127);
#126 = CARTESIAN_POINT('',(-0.78,0.48,-0.4));
#127 = VECTOR('',#128,1.);
#128 = DIRECTION('',(-1.,0.,1.355252715607E-16));
#129 = ORIENTED_EDGE('',*,*,#108,.T.);
#130 = ORIENTED_EDGE('',*,*,#131,.F.);
#131 = EDGE_CURVE('',#132,#101,#134,.T.);
#132 = VERTEX_POINT('',#133);
#133 = CARTESIAN_POINT('',(-0.78,0.48,0.4));
#134 = LINE('',#135,#136);
#135 = CARTESIAN_POINT('',(-0.78,0.48,0.4));
#136 = VECTOR('',#137,1.);
#137 = DIRECTION('',(1.,0.,0.));
#138 = ORIENTED_EDGE('',*,*,#139,.F.);
#139 = EDGE_CURVE('',#123,#132,#140,.T.);
#140 = LINE('',#141,#142);
#141 = CARTESIAN_POINT('',(-0.78,0.48,-0.983095189485));
#142 = VECTOR('',#143,1.);
#143 = DIRECTION('',(0.,0.,1.));
#144 = PLANE('',#145);
#145 = AXIS2_PLACEMENT_3D('',#146,#147,#148);
#146 = CARTESIAN_POINT('',(-0.78,0.48,-0.983095189485));
#147 = DIRECTION('',(0.,-1.,0.));
#148 = DIRECTION('',(0.,-0.,-1.));
#149 = ADVANCED_FACE('',(#150),#175,.T.);
#150 = FACE_BOUND('',#151,.T.);
#151 = EDGE_LOOP('',(#152,#160,#161,#169));
#152 = ORIENTED_EDGE('',*,*,#153,.F.);
#153 = EDGE_CURVE('',#123,#154,#156,.T.);
#154 = VERTEX_POINT('',#155);
#155 = CARTESIAN_POINT('',(-0.78,2.E-02,-0.4));
#156 = LINE('',#157,#158);
#157 = CARTESIAN_POINT('',(-0.78,2.E-02,-0.4));
#158 = VECTOR('',#159,1.);
#159 = DIRECTION('',(0.,-1.,-0.));
#160 = ORIENTED_EDGE('',*,*,#139,.T.);
#161 = ORIENTED_EDGE('',*,*,#162,.F.);
#162 = EDGE_CURVE('',#163,#132,#165,.T.);
#163 = VERTEX_POINT('',#164);
#164 = CARTESIAN_POINT('',(-0.78,2.E-02,0.4));
#165 = LINE('',#166,#167);
#166 = CARTESIAN_POINT('',(-0.78,2.E-02,0.4));
#167 = VECTOR('',#168,1.);
#168 = DIRECTION('',(0.,1.,0.));
#169 = ORIENTED_EDGE('',*,*,#170,.F.);
#170 = EDGE_CURVE('',#154,#163,#171,.T.);
#171 = LINE('',#172,#173);
#172 = CARTESIAN_POINT('',(-0.78,2.E-02,-0.983095189485));
#173 = VECTOR('',#174,1.);
#174 = DIRECTION('',(0.,0.,1.));
#175 = PLANE('',#176);
#176 = AXIS2_PLACEMENT_3D('',#177,#178,#179);
#177 = CARTESIAN_POINT('',(-0.78,2.E-02,-0.983095189485));
#178 = DIRECTION('',(1.,0.,0.));
#179 = DIRECTION('',(0.,0.,-1.));
#180 = ADVANCED_FACE('',(#181),#206,.T.);
#181 = FACE_BOUND('',#182,.T.);
#182 = EDGE_LOOP('',(#183,#191,#192,#200));
#183 = ORIENTED_EDGE('',*,*,#184,.F.);
#184 = EDGE_CURVE('',#154,#185,#187,.T.);
#185 = VERTEX_POINT('',#186);
#186 = CARTESIAN_POINT('',(-0.5,2.E-02,-0.4));
#187 = LINE('',#188,#189);
#188 = CARTESIAN_POINT('',(-0.5,2.E-02,-0.4));
#189 = VECTOR('',#190,1.);
#190 = DIRECTION('',(1.,0.,-1.355252715607E-16));
#191 = ORIENTED_EDGE('',*,*,#170,.T.);
#192 = ORIENTED_EDGE('',*,*,#193,.F.);
#193 = EDGE_CURVE('',#194,#163,#196,.T.);
#194 = VERTEX_POINT('',#195);
#195 = CARTESIAN_POINT('',(-0.5,2.E-02,0.4));
#196 = LINE('',#197,#198);
#197 = CARTESIAN_POINT('',(-0.5,2.E-02,0.4));
#198 = VECTOR('',#199,1.);
#199 = DIRECTION('',(-1.,0.,0.));
#200 = ORIENTED_EDGE('',*,*,#201,.F.);
#201 = EDGE_CURVE('',#185,#194,#202,.T.);
#202 = LINE('',#203,#204);
#203 = CARTESIAN_POINT('',(-0.5,2.E-02,-0.983095189485));
#204 = VECTOR('',#205,1.);
#205 = DIRECTION('',(0.,0.,1.));
#206 = PLANE('',#207);
#207 = AXIS2_PLACEMENT_3D('',#208,#209,#210);
#208 = CARTESIAN_POINT('',(-0.5,2.E-02,-0.983095189485));
#209 = DIRECTION('',(0.,1.,-0.));
#210 = DIRECTION('',(0.,0.,1.));
#211 = ADVANCED_FACE('',(#212),#237,.T.);
#212 = FACE_BOUND('',#213,.T.);
#213 = EDGE_LOOP('',(#214,#222,#223,#231));
#214 = ORIENTED_EDGE('',*,*,#215,.F.);
#215 = EDGE_CURVE('',#185,#216,#218,.T.);
#216 = VERTEX_POINT('',#217);
#217 = CARTESIAN_POINT('',(-0.5,1.836970198721E-17,-0.4));
#218 = LINE('',#219,#220);
#219 = CARTESIAN_POINT('',(-0.5,1.836970198721E-17,-0.4));
#220 = VECTOR('',#221,1.);
#221 = DIRECTION('',(0.,-1.,-0.));
#222 = ORIENTED_EDGE('',*,*,#201,.T.);
#223 = ORIENTED_EDGE('',*,*,#224,.F.);
#224 = EDGE_CURVE('',#225,#194,#227,.T.);
#225 = VERTEX_POINT('',#226);
#226 = CARTESIAN_POINT('',(-0.5,1.836970198721E-17,0.4));
#227 = LINE('',#228,#229);
#228 = CARTESIAN_POINT('',(-0.5,1.836970198721E-17,0.4));
#229 = VECTOR('',#230,1.);
#230 = DIRECTION('',(0.,1.,0.));
#231 = ORIENTED_EDGE('',*,*,#232,.F.);
#232 = EDGE_CURVE('',#216,#225,#233,.T.);
#233 = LINE('',#234,#235);
#234 = CARTESIAN_POINT('',(-0.5,1.836970198721E-17,-0.983095189485));
#235 = VECTOR('',#236,1.);
#236 = DIRECTION('',(0.,0.,1.));
#237 = PLANE('',#238);
#238 = AXIS2_PLACEMENT_3D('',#239,#240,#241);
#239 = CARTESIAN_POINT('',(-0.5,1.836970198721E-17,-0.983095189485));
#240 = DIRECTION('',(1.,0.,0.));
#241 = DIRECTION('',(0.,0.,-1.));
#242 = ADVANCED_FACE('',(#243),#268,.T.);
#243 = FACE_BOUND('',#244,.T.);
#244 = EDGE_LOOP('',(#245,#253,#254,#262));
#245 = ORIENTED_EDGE('',*,*,#246,.F.);
#246 = EDGE_CURVE('',#216,#247,#249,.T.);
#247 = VERTEX_POINT('',#248);
#248 = CARTESIAN_POINT('',(-0.8,0.,-0.4));
#249 = LINE('',#250,#251);
#250 = CARTESIAN_POINT('',(-0.8,4.838832631839E-33,-0.4));
#251 = VECTOR('',#252,1.);
#252 = DIRECTION('',(-1.,-6.123233995737E-17,1.355252715607E-16));
#253 = ORIENTED_EDGE('',*,*,#232,.T.);
#254 = ORIENTED_EDGE('',*,*,#255,.F.);
#255 = EDGE_CURVE('',#256,#225,#258,.T.);
#256 = VERTEX_POINT('',#257);
#257 = CARTESIAN_POINT('',(-0.8,0.,0.4));
#258 = LINE('',#259,#260);
#259 = CARTESIAN_POINT('',(-0.8,0.,0.4));
#260 = VECTOR('',#261,1.);
#261 = DIRECTION('',(1.,6.123233995737E-17,0.));
#262 = ORIENTED_EDGE('',*,*,#263,.F.);
#263 = EDGE_CURVE('',#247,#256,#264,.T.);
#264 = LINE('',#265,#266);
#265 = CARTESIAN_POINT('',(-0.8,0.,-0.983095189485));
#266 = VECTOR('',#267,1.);
#267 = DIRECTION('',(0.,0.,1.));
#268 = PLANE('',#269);
#269 = AXIS2_PLACEMENT_3D('',#270,#271,#272);
#270 = CARTESIAN_POINT('',(-0.8,0.,-0.983095189485));
#271 = DIRECTION('',(6.123233995737E-17,-1.,0.));
#272 = DIRECTION('',(1.,6.123233995737E-17,0.));
#273 = ADVANCED_FACE('',(#274),#290,.T.);
#274 = FACE_BOUND('',#275,.T.);
#275 = EDGE_LOOP('',(#276,#282,#283,#289));
#276 = ORIENTED_EDGE('',*,*,#277,.F.);
#277 = EDGE_CURVE('',#247,#52,#278,.T.);
#278 = LINE('',#279,#280);
#279 = CARTESIAN_POINT('',(-0.8,0.5,-0.4));
#280 = VECTOR('',#281,1.);
#281 = DIRECTION('',(0.,1.,0.));
#282 = ORIENTED_EDGE('',*,*,#263,.T.);
#283 = ORIENTED_EDGE('',*,*,#284,.F.);
#284 = EDGE_CURVE('',#62,#256,#285,.T.);
#285 = LINE('',#286,#287);
#286 = CARTESIAN_POINT('',(-0.8,0.5,0.4));
#287 = VECTOR('',#288,1.);
#288 = DIRECTION('',(0.,-1.,0.));
#289 = ORIENTED_EDGE('',*,*,#61,.F.);
#290 = PLANE('',#291);
#291 = AXIS2_PLACEMENT_3D('',#292,#293,#294);
#292 = CARTESIAN_POINT('',(-0.8,0.5,-0.983095189485));
#293 = DIRECTION('',(-1.,0.,0.));
#294 = DIRECTION('',(0.,0.,1.));
#295 = ADVANCED_FACE('',(#296),#306,.T.);
#296 = FACE_BOUND('',#297,.T.);
#297 = EDGE_LOOP('',(#298,#299,#300,#301,#302,#303,#304,#305));
#298 = ORIENTED_EDGE('',*,*,#69,.T.);
#299 = ORIENTED_EDGE('',*,*,#284,.T.);
#300 = ORIENTED_EDGE('',*,*,#255,.T.);
#301 = ORIENTED_EDGE('',*,*,#224,.T.);
#302 = ORIENTED_EDGE('',*,*,#193,.T.);
#303 = ORIENTED_EDGE('',*,*,#162,.T.);
#304 = ORIENTED_EDGE('',*,*,#131,.T.);
#305 = ORIENTED_EDGE('',*,*,#100,.T.);
#306 = PLANE('',#307);
#307 = AXIS2_PLACEMENT_3D('',#308,#309,#310);
#308 = CARTESIAN_POINT('',(0.,0.,0.4));
#309 = DIRECTION('',(0.,0.,1.));
#310 = DIRECTION('',(1.,0.,-0.));
#311 = ADVANCED_FACE('',(#312),#322,.F.);
#312 = FACE_BOUND('',#313,.T.);
#313 = EDGE_LOOP('',(#314,#315,#316,#317,#318,#319,#320,#321));
#314 = ORIENTED_EDGE('',*,*,#51,.T.);
#315 = ORIENTED_EDGE('',*,*,#91,.T.);
#316 = ORIENTED_EDGE('',*,*,#122,.T.);
#317 = ORIENTED_EDGE('',*,*,#153,.T.);
#318 = ORIENTED_EDGE('',*,*,#184,.T.);
#319 = ORIENTED_EDGE('',*,*,#215,.T.);
#320 = ORIENTED_EDGE('',*,*,#246,.T.);
#321 = ORIENTED_EDGE('',*,*,#277,.T.);
#322 = PLANE('',#323);
#323 = AXIS2_PLACEMENT_3D('',#324,#325,#326);
#324 = CARTESIAN_POINT('',(0.8,0.5,-0.4));
#325 = DIRECTION('',(1.355252715607E-16,-0.,1.));
#326 = DIRECTION('',(1.,0.,-1.355252715607E-16));
#327 = ( GEOMETRIC_REPRESENTATION_CONTEXT(3) 
GLOBAL_UNCERTAINTY_ASSIGNED_CONTEXT((#331)) GLOBAL_UNIT_ASSIGNED_CONTEXT
((#328,#329,#330)) REPRESENTATION_CONTEXT('Context #1',
  '3D Context with UNIT and UNCERTAINTY') );
#328 = ( LENGTH_UNIT() NAMED_UNIT(*) SI_UNIT(.MILLI.,.METRE.) );
#329 = ( NAMED_UNIT(*) PLANE_ANGLE_UNIT() SI_UNIT($,.RADIAN.) );
#330 = ( NAMED_UNIT(*) SI_UNIT($,.STERADIAN.) SOLID_ANGLE_UNIT() );
#331 = UNCERTAINTY_MEASURE_WITH_UNIT(LENGTH_MEASURE(1.E-07),#328,
  'distance_accuracy_value','confusion accuracy');
#332 = CONTEXT_DEPENDENT_SHAPE_REPRESENTATION(#333,#335);
#333 = ( REPRESENTATION_RELATIONSHIP('','',#44,#10) 
REPRESENTATION_RELATIONSHIP_WITH_TRANSFORMATION(#334) 
SHAPE_REPRESENTATION_RELATIONSHIP() );
#334 = ITEM_DEFINED_TRANSFORMATION('','',#11,#15);
#335 = PRODUCT_DEFINITION_SHAPE('Placement','Placement of an item',#336
  );
#336 = NEXT_ASSEMBLY_USAGE_OCCURRENCE('1','KP-1608SGC','',#5,#39,$);
#337 = PRODUCT_RELATED_PRODUCT_CATEGORY('part',$,(#41));
#338 = SHAPE_DEFINITION_REPRESENTATION(#339,#345);
#339 = PRODUCT_DEFINITION_SHAPE('','',#340);
#340 = PRODUCT_DEFINITION('design','',#341,#344);
#341 = PRODUCT_DEFINITION_FORMATION('','',#342);
#342 = PRODUCT('KP-1608SGC001','KP-1608SGC001','',(#343));
#343 = PRODUCT_CONTEXT('',#2,'mechanical');
#344 = PRODUCT_DEFINITION_CONTEXT('part definition',#2,'design');
#345 = ADVANCED_BREP_SHAPE_REPRESENTATION('',(#11,#346),#628);
#346 = MANIFOLD_SOLID_BREP('',#347);
#347 = CLOSED_SHELL('',(#348,#388,#419,#450,#481,#512,#543,#574,#596,
    #612));
#348 = ADVANCED_FACE('',(#349),#383,.T.);
#349 = FACE_BOUND('',#350,.T.);
#350 = EDGE_LOOP('',(#351,#361,#369,#377));
#351 = ORIENTED_EDGE('',*,*,#352,.F.);
#352 = EDGE_CURVE('',#353,#355,#357,.T.);
#353 = VERTEX_POINT('',#354);
#354 = CARTESIAN_POINT('',(0.5,2.E-02,-0.4));
#355 = VERTEX_POINT('',#356);
#356 = CARTESIAN_POINT('',(0.78,2.E-02,-0.4));
#357 = LINE('',#358,#359);
#358 = CARTESIAN_POINT('',(0.78,2.E-02,-0.4));
#359 = VECTOR('',#360,1.);
#360 = DIRECTION('',(1.,0.,-1.355252715607E-16));
#361 = ORIENTED_EDGE('',*,*,#362,.T.);
#362 = EDGE_CURVE('',#353,#363,#365,.T.);
#363 = VERTEX_POINT('',#364);
#364 = CARTESIAN_POINT('',(0.5,2.E-02,0.4));
#365 = LINE('',#366,#367);
#366 = CARTESIAN_POINT('',(0.5,2.E-02,-0.983095189485));
#367 = VECTOR('',#368,1.);
#368 = DIRECTION('',(0.,0.,1.));
#369 = ORIENTED_EDGE('',*,*,#370,.F.);
#370 = EDGE_CURVE('',#371,#363,#373,.T.);
#371 = VERTEX_POINT('',#372);
#372 = CARTESIAN_POINT('',(0.78,2.E-02,0.4));
#373 = LINE('',#374,#375);
#374 = CARTESIAN_POINT('',(0.78,2.E-02,0.4));
#375 = VECTOR('',#376,1.);
#376 = DIRECTION('',(-1.,0.,0.));
#377 = ORIENTED_EDGE('',*,*,#378,.F.);
#378 = EDGE_CURVE('',#355,#371,#379,.T.);
#379 = LINE('',#380,#381);
#380 = CARTESIAN_POINT('',(0.78,2.E-02,-0.983095189485));
#381 = VECTOR('',#382,1.);
#382 = DIRECTION('',(0.,0.,1.));
#383 = PLANE('',#384);
#384 = AXIS2_PLACEMENT_3D('',#385,#386,#387);
#385 = CARTESIAN_POINT('',(0.78,2.E-02,-0.983095189485));
#386 = DIRECTION('',(0.,1.,-0.));
#387 = DIRECTION('',(0.,0.,1.));
#388 = ADVANCED_FACE('',(#389),#414,.T.);
#389 = FACE_BOUND('',#390,.T.);
#390 = EDGE_LOOP('',(#391,#399,#400,#408));
#391 = ORIENTED_EDGE('',*,*,#392,.F.);
#392 = EDGE_CURVE('',#355,#393,#395,.T.);
#393 = VERTEX_POINT('',#394);
#394 = CARTESIAN_POINT('',(0.78,0.48,-0.4));
#395 = LINE('',#396,#397);
#396 = CARTESIAN_POINT('',(0.78,0.48,-0.4));
#397 = VECTOR('',#398,1.);
#398 = DIRECTION('',(0.,1.,0.));
#399 = ORIENTED_EDGE('',*,*,#378,.T.);
#400 = ORIENTED_EDGE('',*,*,#401,.F.);
#401 = EDGE_CURVE('',#402,#371,#404,.T.);
#402 = VERTEX_POINT('',#403);
#403 = CARTESIAN_POINT('',(0.78,0.48,0.4));
#404 = LINE('',#405,#406);
#405 = CARTESIAN_POINT('',(0.78,0.48,0.4));
#406 = VECTOR('',#407,1.);
#407 = DIRECTION('',(0.,-1.,0.));
#408 = ORIENTED_EDGE('',*,*,#409,.F.);
#409 = EDGE_CURVE('',#393,#402,#410,.T.);
#410 = LINE('',#411,#412);
#411 = CARTESIAN_POINT('',(0.78,0.48,-0.983095189485));
#412 = VECTOR('',#413,1.);
#413 = DIRECTION('',(0.,0.,1.));
#414 = PLANE('',#415);
#415 = AXIS2_PLACEMENT_3D('',#416,#417,#418);
#416 = CARTESIAN_POINT('',(0.78,0.48,-0.983095189485));
#417 = DIRECTION('',(-1.,0.,0.));
#418 = DIRECTION('',(0.,0.,1.));
#419 = ADVANCED_FACE('',(#420),#445,.T.);
#420 = FACE_BOUND('',#421,.T.);
#421 = EDGE_LOOP('',(#422,#430,#431,#439));
#422 = ORIENTED_EDGE('',*,*,#423,.F.);
#423 = EDGE_CURVE('',#393,#424,#426,.T.);
#424 = VERTEX_POINT('',#425);
#425 = CARTESIAN_POINT('',(0.7,0.48,-0.4));
#426 = LINE('',#427,#428);
#427 = CARTESIAN_POINT('',(0.7,0.48,-0.4));
#428 = VECTOR('',#429,1.);
#429 = DIRECTION('',(-1.,0.,1.355252715607E-16));
#430 = ORIENTED_EDGE('',*,*,#409,.T.);
#431 = ORIENTED_EDGE('',*,*,#432,.F.);
#432 = EDGE_CURVE('',#433,#402,#435,.T.);
#433 = VERTEX_POINT('',#434);
#434 = CARTESIAN_POINT('',(0.7,0.48,0.4));
#435 = LINE('',#436,#437);
#436 = CARTESIAN_POINT('',(0.7,0.48,0.4));
#437 = VECTOR('',#438,1.);
#438 = DIRECTION('',(1.,0.,0.));
#439 = ORIENTED_EDGE('',*,*,#440,.F.);
#440 = EDGE_CURVE('',#424,#433,#441,.T.);
#441 = LINE('',#442,#443);
#442 = CARTESIAN_POINT('',(0.7,0.48,-0.983095189485));
#443 = VECTOR('',#444,1.);
#444 = DIRECTION('',(0.,0.,1.));
#445 = PLANE('',#446);
#446 = AXIS2_PLACEMENT_3D('',#447,#448,#449);
#447 = CARTESIAN_POINT('',(0.7,0.48,-0.983095189485));
#448 = DIRECTION('',(0.,-1.,0.));
#449 = DIRECTION('',(0.,-0.,-1.));
#450 = ADVANCED_FACE('',(#451),#476,.T.);
#451 = FACE_BOUND('',#452,.T.);
#452 = EDGE_LOOP('',(#453,#461,#462,#470));
#453 = ORIENTED_EDGE('',*,*,#454,.F.);
#454 = EDGE_CURVE('',#424,#455,#457,.T.);
#455 = VERTEX_POINT('',#456);
#456 = CARTESIAN_POINT('',(0.7,0.5,-0.4));
#457 = LINE('',#458,#459);
#458 = CARTESIAN_POINT('',(0.7,0.5,-0.4));
#459 = VECTOR('',#460,1.);
#460 = DIRECTION('',(0.,1.,0.));
#461 = ORIENTED_EDGE('',*,*,#440,.T.);
#462 = ORIENTED_EDGE('',*,*,#463,.F.);
#463 = EDGE_CURVE('',#464,#433,#466,.T.);
#464 = VERTEX_POINT('',#465);
#465 = CARTESIAN_POINT('',(0.7,0.5,0.4));
#466 = LINE('',#467,#468);
#467 = CARTESIAN_POINT('',(0.7,0.5,0.4));
#468 = VECTOR('',#469,1.);
#469 = DIRECTION('',(0.,-1.,0.));
#470 = ORIENTED_EDGE('',*,*,#471,.F.);
#471 = EDGE_CURVE('',#455,#464,#472,.T.);
#472 = LINE('',#473,#474);
#473 = CARTESIAN_POINT('',(0.7,0.5,-0.983095189485));
#474 = VECTOR('',#475,1.);
#475 = DIRECTION('',(0.,0.,1.));
#476 = PLANE('',#477);
#477 = AXIS2_PLACEMENT_3D('',#478,#479,#480);
#478 = CARTESIAN_POINT('',(0.7,0.5,-0.983095189485));
#479 = DIRECTION('',(-1.,0.,0.));
#480 = DIRECTION('',(0.,0.,1.));
#481 = ADVANCED_FACE('',(#482),#507,.T.);
#482 = FACE_BOUND('',#483,.T.);
#483 = EDGE_LOOP('',(#484,#492,#493,#501));
#484 = ORIENTED_EDGE('',*,*,#485,.F.);
#485 = EDGE_CURVE('',#455,#486,#488,.T.);
#486 = VERTEX_POINT('',#487);
#487 = CARTESIAN_POINT('',(0.8,0.5,-0.4));
#488 = LINE('',#489,#490);
#489 = CARTESIAN_POINT('',(0.8,0.5,-0.4));
#490 = VECTOR('',#491,1.);
#491 = DIRECTION('',(1.,0.,-1.355252715607E-16));
#492 = ORIENTED_EDGE('',*,*,#471,.T.);
#493 = ORIENTED_EDGE('',*,*,#494,.F.);
#494 = EDGE_CURVE('',#495,#464,#497,.T.);
#495 = VERTEX_POINT('',#496);
#496 = CARTESIAN_POINT('',(0.8,0.5,0.4));
#497 = LINE('',#498,#499);
#498 = CARTESIAN_POINT('',(0.8,0.5,0.4));
#499 = VECTOR('',#500,1.);
#500 = DIRECTION('',(-1.,0.,0.));
#501 = ORIENTED_EDGE('',*,*,#502,.F.);
#502 = EDGE_CURVE('',#486,#495,#503,.T.);
#503 = LINE('',#504,#505);
#504 = CARTESIAN_POINT('',(0.8,0.5,-0.983095189485));
#505 = VECTOR('',#506,1.);
#506 = DIRECTION('',(0.,0.,1.));
#507 = PLANE('',#508);
#508 = AXIS2_PLACEMENT_3D('',#509,#510,#511);
#509 = CARTESIAN_POINT('',(0.8,0.5,-0.983095189485));
#510 = DIRECTION('',(0.,1.,-0.));
#511 = DIRECTION('',(0.,0.,1.));
#512 = ADVANCED_FACE('',(#513),#538,.T.);
#513 = FACE_BOUND('',#514,.T.);
#514 = EDGE_LOOP('',(#515,#523,#524,#532));
#515 = ORIENTED_EDGE('',*,*,#516,.F.);
#516 = EDGE_CURVE('',#486,#517,#519,.T.);
#517 = VERTEX_POINT('',#518);
#518 = CARTESIAN_POINT('',(0.8,-3.009265538105E-33,-0.4));
#519 = LINE('',#520,#521);
#520 = CARTESIAN_POINT('',(0.8,6.854251012307E-32,-0.4));
#521 = VECTOR('',#522,1.);
#522 = DIRECTION('',(-8.673617379884E-16,-1.,1.175494350822E-31));
#523 = ORIENTED_EDGE('',*,*,#502,.T.);
#524 = ORIENTED_EDGE('',*,*,#525,.F.);
#525 = EDGE_CURVE('',#526,#495,#528,.T.);
#526 = VERTEX_POINT('',#527);
#527 = CARTESIAN_POINT('',(0.8,0.,0.4));
#528 = LINE('',#529,#530);
#529 = CARTESIAN_POINT('',(0.8,0.,0.4));
#530 = VECTOR('',#531,1.);
#531 = DIRECTION('',(8.673617379884E-16,1.,0.));
#532 = ORIENTED_EDGE('',*,*,#533,.F.);
#533 = EDGE_CURVE('',#517,#526,#534,.T.);
#534 = LINE('',#535,#536);
#535 = CARTESIAN_POINT('',(0.8,0.,-0.983095189485));
#536 = VECTOR('',#537,1.);
#537 = DIRECTION('',(0.,0.,1.));
#538 = PLANE('',#539);
#539 = AXIS2_PLACEMENT_3D('',#540,#541,#542);
#540 = CARTESIAN_POINT('',(0.8,0.,-0.983095189485));
#541 = DIRECTION('',(1.,-8.673617379884E-16,0.));
#542 = DIRECTION('',(8.673617379884E-16,1.,0.));
#543 = ADVANCED_FACE('',(#544),#569,.T.);
#544 = FACE_BOUND('',#545,.T.);
#545 = EDGE_LOOP('',(#546,#554,#555,#563));
#546 = ORIENTED_EDGE('',*,*,#547,.F.);
#547 = EDGE_CURVE('',#517,#548,#550,.T.);
#548 = VERTEX_POINT('',#549);
#549 = CARTESIAN_POINT('',(0.5,1.836970198721E-17,-0.4));
#550 = LINE('',#551,#552);
#551 = CARTESIAN_POINT('',(0.5,1.836970198721E-17,-0.4));
#552 = VECTOR('',#553,1.);
#553 = DIRECTION('',(-1.,6.123233995737E-17,1.355252715607E-16));
#554 = ORIENTED_EDGE('',*,*,#533,.T.);
#555 = ORIENTED_EDGE('',*,*,#556,.F.);
#556 = EDGE_CURVE('',#557,#526,#559,.T.);
#557 = VERTEX_POINT('',#558);
#558 = CARTESIAN_POINT('',(0.5,1.836970198721E-17,0.4));
#559 = LINE('',#560,#561);
#560 = CARTESIAN_POINT('',(0.5,1.836970198721E-17,0.4));
#561 = VECTOR('',#562,1.);
#562 = DIRECTION('',(1.,-6.123233995737E-17,0.));
#563 = ORIENTED_EDGE('',*,*,#564,.F.);
#564 = EDGE_CURVE('',#548,#557,#565,.T.);
#565 = LINE('',#566,#567);
#566 = CARTESIAN_POINT('',(0.5,1.836970198721E-17,-0.983095189485));
#567 = VECTOR('',#568,1.);
#568 = DIRECTION('',(0.,0.,1.));
#569 = PLANE('',#570);
#570 = AXIS2_PLACEMENT_3D('',#571,#572,#573);
#571 = CARTESIAN_POINT('',(0.5,1.836970198721E-17,-0.983095189485));
#572 = DIRECTION('',(-6.123233995737E-17,-1.,0.));
#573 = DIRECTION('',(1.,-6.123233995737E-17,0.));
#574 = ADVANCED_FACE('',(#575),#591,.T.);
#575 = FACE_BOUND('',#576,.T.);
#576 = EDGE_LOOP('',(#577,#583,#584,#590));
#577 = ORIENTED_EDGE('',*,*,#578,.F.);
#578 = EDGE_CURVE('',#548,#353,#579,.T.);
#579 = LINE('',#580,#581);
#580 = CARTESIAN_POINT('',(0.5,2.E-02,-0.4));
#581 = VECTOR('',#582,1.);
#582 = DIRECTION('',(0.,1.,0.));
#583 = ORIENTED_EDGE('',*,*,#564,.T.);
#584 = ORIENTED_EDGE('',*,*,#585,.F.);
#585 = EDGE_CURVE('',#363,#557,#586,.T.);
#586 = LINE('',#587,#588);
#587 = CARTESIAN_POINT('',(0.5,2.E-02,0.4));
#588 = VECTOR('',#589,1.);
#589 = DIRECTION('',(0.,-1.,0.));
#590 = ORIENTED_EDGE('',*,*,#362,.F.);
#591 = PLANE('',#592);
#592 = AXIS2_PLACEMENT_3D('',#593,#594,#595);
#593 = CARTESIAN_POINT('',(0.5,2.E-02,-0.983095189485));
#594 = DIRECTION('',(-1.,0.,0.));
#595 = DIRECTION('',(0.,0.,1.));
#596 = ADVANCED_FACE('',(#597),#607,.T.);
#597 = FACE_BOUND('',#598,.T.);
#598 = EDGE_LOOP('',(#599,#600,#601,#602,#603,#604,#605,#606));
#599 = ORIENTED_EDGE('',*,*,#370,.T.);
#600 = ORIENTED_EDGE('',*,*,#585,.T.);
#601 = ORIENTED_EDGE('',*,*,#556,.T.);
#602 = ORIENTED_EDGE('',*,*,#525,.T.);
#603 = ORIENTED_EDGE('',*,*,#494,.T.);
#604 = ORIENTED_EDGE('',*,*,#463,.T.);
#605 = ORIENTED_EDGE('',*,*,#432,.T.);
#606 = ORIENTED_EDGE('',*,*,#401,.T.);
#607 = PLANE('',#608);
#608 = AXIS2_PLACEMENT_3D('',#609,#610,#611);
#609 = CARTESIAN_POINT('',(0.,0.,0.4));
#610 = DIRECTION('',(0.,0.,1.));
#611 = DIRECTION('',(1.,0.,-0.));
#612 = ADVANCED_FACE('',(#613),#623,.F.);
#613 = FACE_BOUND('',#614,.T.);
#614 = EDGE_LOOP('',(#615,#616,#617,#618,#619,#620,#621,#622));
#615 = ORIENTED_EDGE('',*,*,#352,.T.);
#616 = ORIENTED_EDGE('',*,*,#392,.T.);
#617 = ORIENTED_EDGE('',*,*,#423,.T.);
#618 = ORIENTED_EDGE('',*,*,#454,.T.);
#619 = ORIENTED_EDGE('',*,*,#485,.T.);
#620 = ORIENTED_EDGE('',*,*,#516,.T.);
#621 = ORIENTED_EDGE('',*,*,#547,.T.);
#622 = ORIENTED_EDGE('',*,*,#578,.T.);
#623 = PLANE('',#624);
#624 = AXIS2_PLACEMENT_3D('',#625,#626,#627);
#625 = CARTESIAN_POINT('',(0.8,0.5,-0.4));
#626 = DIRECTION('',(1.355252715607E-16,-0.,1.));
#627 = DIRECTION('',(1.,0.,-1.355252715607E-16));
#628 = ( GEOMETRIC_REPRESENTATION_CONTEXT(3) 
GLOBAL_UNCERTAINTY_ASSIGNED_CONTEXT((#632)) GLOBAL_UNIT_ASSIGNED_CONTEXT
((#629,#630,#631)) REPRESENTATION_CONTEXT('Context #1',
  '3D Context with UNIT and UNCERTAINTY') );
#629 = ( LENGTH_UNIT() NAMED_UNIT(*) SI_UNIT(.MILLI.,.METRE.) );
#630 = ( NAMED_UNIT(*) PLANE_ANGLE_UNIT() SI_UNIT($,.RADIAN.) );
#631 = ( NAMED_UNIT(*) SI_UNIT($,.STERADIAN.) SOLID_ANGLE_UNIT() );
#632 = UNCERTAINTY_MEASURE_WITH_UNIT(LENGTH_MEASURE(1.E-07),#629,
  'distance_accuracy_value','confusion accuracy');
#633 = CONTEXT_DEPENDENT_SHAPE_REPRESENTATION(#634,#636);
#634 = ( REPRESENTATION_RELATIONSHIP('','',#345,#10) 
REPRESENTATION_RELATIONSHIP_WITH_TRANSFORMATION(#635) 
SHAPE_REPRESENTATION_RELATIONSHIP() );
#635 = ITEM_DEFINED_TRANSFORMATION('','',#11,#19);
#636 = PRODUCT_DEFINITION_SHAPE('Placement','Placement of an item',#637
  );
#637 = NEXT_ASSEMBLY_USAGE_OCCURRENCE('2','KP-1608SGC001','',#5,#340,$);
#638 = PRODUCT_RELATED_PRODUCT_CATEGORY('part',$,(#342));
#639 = SHAPE_DEFINITION_REPRESENTATION(#640,#646);
#640 = PRODUCT_DEFINITION_SHAPE('','',#641);
#641 = PRODUCT_DEFINITION('design','',#642,#645);
#642 = PRODUCT_DEFINITION_FORMATION('','',#643);
#643 = PRODUCT('KP-1608SGC002','KP-1608SGC002','',(#644));
#644 = PRODUCT_CONTEXT('',#2,'mechanical');
#645 = PRODUCT_DEFINITION_CONTEXT('part definition',#2,'design');
#646 = ADVANCED_BREP_SHAPE_REPRESENTATION('',(#11,#647),#1405);
#647 = MANIFOLD_SOLID_BREP('',#648);
#648 = CLOSED_SHELL('',(#649,#689,#834,#979,#1001,#1023,#1040,#1057,
    #1108,#1125,#1137,#1154,#1171,#1188,#1205,#1217,#1234,#1251,#1268,
    #1285,#1297,#1328,#1352,#1376,#1393));
#649 = ADVANCED_FACE('',(#650),#684,.T.);
#650 = FACE_BOUND('',#651,.T.);
#651 = EDGE_LOOP('',(#652,#662,#670,#678));
#652 = ORIENTED_EDGE('',*,*,#653,.F.);
#653 = EDGE_CURVE('',#654,#656,#658,.T.);
#654 = VERTEX_POINT('',#655);
#655 = CARTESIAN_POINT('',(0.7,0.5,-0.4));
#656 = VERTEX_POINT('',#657);
#657 = CARTESIAN_POINT('',(0.7,0.5,0.4));
#658 = LINE('',#659,#660);
#659 = CARTESIAN_POINT('',(0.7,0.5,-0.4));
#660 = VECTOR('',#661,1.);
#661 = DIRECTION('',(-0.,-0.,1.));
#662 = ORIENTED_EDGE('',*,*,#663,.T.);
#663 = EDGE_CURVE('',#654,#664,#666,.T.);
#664 = VERTEX_POINT('',#665);
#665 = CARTESIAN_POINT('',(0.6,0.5,-0.4));
#666 = LINE('',#667,#668);
#667 = CARTESIAN_POINT('',(0.8,0.5,-0.4));
#668 = VECTOR('',#669,1.);
#669 = DIRECTION('',(-1.,0.,1.355252715607E-16));
#670 = ORIENTED_EDGE('',*,*,#671,.T.);
#671 = EDGE_CURVE('',#664,#672,#674,.T.);
#672 = VERTEX_POINT('',#673);
#673 = CARTESIAN_POINT('',(0.6,0.5,0.4));
#674 = LINE('',#675,#676);
#675 = CARTESIAN_POINT('',(0.6,0.5,-1.7416407865));
#676 = VECTOR('',#677,1.);
#677 = DIRECTION('',(0.,0.,1.));
#678 = ORIENTED_EDGE('',*,*,#679,.T.);
#679 = EDGE_CURVE('',#672,#656,#680,.T.);
#680 = LINE('',#681,#682);
#681 = CARTESIAN_POINT('',(0.8,0.5,0.4));
#682 = VECTOR('',#683,1.);
#683 = DIRECTION('',(1.,-0.,-1.355252715607E-16));
#684 = PLANE('',#685);
#685 = AXIS2_PLACEMENT_3D('',#686,#687,#688);
#686 = CARTESIAN_POINT('',(0.,0.5,0.));
#687 = DIRECTION('',(0.,1.,0.));
#688 = DIRECTION('',(0.,-0.,1.));
#689 = ADVANCED_FACE('',(#690),#829,.F.);
#690 = FACE_BOUND('',#691,.T.);
#691 = EDGE_LOOP('',(#692,#702,#710,#718,#726,#734,#742,#750,#758,#766,
    #774,#782,#788,#789,#797,#806,#814,#823));
#692 = ORIENTED_EDGE('',*,*,#693,.F.);
#693 = EDGE_CURVE('',#694,#696,#698,.T.);
#694 = VERTEX_POINT('',#695);
#695 = CARTESIAN_POINT('',(-0.7,0.5,0.4));
#696 = VERTEX_POINT('',#697);
#697 = CARTESIAN_POINT('',(-0.6,0.5,0.4));
#698 = LINE('',#699,#700);
#699 = CARTESIAN_POINT('',(0.8,0.5,0.4));
#700 = VECTOR('',#701,1.);
#701 = DIRECTION('',(1.,-0.,-1.355252715607E-16));
#702 = ORIENTED_EDGE('',*,*,#703,.F.);
#703 = EDGE_CURVE('',#704,#694,#706,.T.);
#704 = VERTEX_POINT('',#705);
#705 = CARTESIAN_POINT('',(-0.7,0.48,0.4));
#706 = LINE('',#707,#708);
#707 = CARTESIAN_POINT('',(-0.7,0.5,0.4));
#708 = VECTOR('',#709,1.);
#709 = DIRECTION('',(-0.,1.,-0.));
#710 = ORIENTED_EDGE('',*,*,#711,.F.);
#711 = EDGE_CURVE('',#712,#704,#714,.T.);
#712 = VERTEX_POINT('',#713);
#713 = CARTESIAN_POINT('',(-0.78,0.48,0.4));
#714 = LINE('',#715,#716);
#715 = CARTESIAN_POINT('',(-0.78,0.48,0.4));
#716 = VECTOR('',#717,1.);
#717 = DIRECTION('',(1.,0.,0.));
#718 = ORIENTED_EDGE('',*,*,#719,.F.);
#719 = EDGE_CURVE('',#720,#712,#722,.T.);
#720 = VERTEX_POINT('',#721);
#721 = CARTESIAN_POINT('',(-0.78,2.E-02,0.4));
#722 = LINE('',#723,#724);
#723 = CARTESIAN_POINT('',(-0.78,2.E-02,0.4));
#724 = VECTOR('',#725,1.);
#725 = DIRECTION('',(0.,1.,0.));
#726 = ORIENTED_EDGE('',*,*,#727,.F.);
#727 = EDGE_CURVE('',#728,#720,#730,.T.);
#728 = VERTEX_POINT('',#729);
#729 = CARTESIAN_POINT('',(-0.5,2.E-02,0.4));
#730 = LINE('',#731,#732);
#731 = CARTESIAN_POINT('',(-0.5,2.E-02,0.4));
#732 = VECTOR('',#733,1.);
#733 = DIRECTION('',(-1.,0.,0.));
#734 = ORIENTED_EDGE('',*,*,#735,.F.);
#735 = EDGE_CURVE('',#736,#728,#738,.T.);
#736 = VERTEX_POINT('',#737);
#737 = CARTESIAN_POINT('',(-0.5,1.836970198721E-17,0.4));
#738 = LINE('',#739,#740);
#739 = CARTESIAN_POINT('',(-0.5,2.E-02,0.4));
#740 = VECTOR('',#741,1.);
#741 = DIRECTION('',(-0.,1.,-0.));
#742 = ORIENTED_EDGE('',*,*,#743,.T.);
#743 = EDGE_CURVE('',#736,#744,#746,.T.);
#744 = VERTEX_POINT('',#745);
#745 = CARTESIAN_POINT('',(0.5,0.,0.4));
#746 = LINE('',#747,#748);
#747 = CARTESIAN_POINT('',(0.8,0.,0.4));
#748 = VECTOR('',#749,1.);
#749 = DIRECTION('',(1.,-0.,-1.355252715607E-16));
#750 = ORIENTED_EDGE('',*,*,#751,.F.);
#751 = EDGE_CURVE('',#752,#744,#754,.T.);
#752 = VERTEX_POINT('',#753);
#753 = CARTESIAN_POINT('',(0.5,2.E-02,0.4));
#754 = LINE('',#755,#756);
#755 = CARTESIAN_POINT('',(0.5,2.E-02,0.4));
#756 = VECTOR('',#757,1.);
#757 = DIRECTION('',(0.,-1.,0.));
#758 = ORIENTED_EDGE('',*,*,#759,.F.);
#759 = EDGE_CURVE('',#760,#752,#762,.T.);
#760 = VERTEX_POINT('',#761);
#761 = CARTESIAN_POINT('',(0.78,2.E-02,0.4));
#762 = LINE('',#763,#764);
#763 = CARTESIAN_POINT('',(0.5,2.E-02,0.4));
#764 = VECTOR('',#765,1.);
#765 = DIRECTION('',(-1.,-0.,-0.));
#766 = ORIENTED_EDGE('',*,*,#767,.F.);
#767 = EDGE_CURVE('',#768,#760,#770,.T.);
#768 = VERTEX_POINT('',#769);
#769 = CARTESIAN_POINT('',(0.78,0.48,0.4));
#770 = LINE('',#771,#772);
#771 = CARTESIAN_POINT('',(0.78,2.E-02,0.4));
#772 = VECTOR('',#773,1.);
#773 = DIRECTION('',(-0.,-1.,-0.));
#774 = ORIENTED_EDGE('',*,*,#775,.F.);
#775 = EDGE_CURVE('',#776,#768,#778,.T.);
#776 = VERTEX_POINT('',#777);
#777 = CARTESIAN_POINT('',(0.7,0.48,0.4));
#778 = LINE('',#779,#780);
#779 = CARTESIAN_POINT('',(0.78,0.48,0.4));
#780 = VECTOR('',#781,1.);
#781 = DIRECTION('',(1.,-0.,-0.));
#782 = ORIENTED_EDGE('',*,*,#783,.F.);
#783 = EDGE_CURVE('',#656,#776,#784,.T.);
#784 = LINE('',#785,#786);
#785 = CARTESIAN_POINT('',(0.7,0.5,0.4));
#786 = VECTOR('',#787,1.);
#787 = DIRECTION('',(0.,-1.,0.));
#788 = ORIENTED_EDGE('',*,*,#679,.F.);
#789 = ORIENTED_EDGE('',*,*,#790,.T.);
#790 = EDGE_CURVE('',#672,#791,#793,.T.);
#791 = VERTEX_POINT('',#792);
#792 = CARTESIAN_POINT('',(0.557641287668,1.008304547985,0.4));
#793 = LINE('',#794,#795);
#794 = CARTESIAN_POINT('',(0.557641287668,1.008304547985,0.4));
#795 = VECTOR('',#796,1.);
#796 = DIRECTION('',(-8.304547985373E-02,0.996545758245,-0.));
#797 = ORIENTED_EDGE('',*,*,#798,.T.);
#798 = EDGE_CURVE('',#791,#799,#801,.T.);
#799 = VERTEX_POINT('',#800);
#800 = CARTESIAN_POINT('',(0.457986711843,1.1,0.4));
#801 = CIRCLE('',#802,0.1);
#802 = AXIS2_PLACEMENT_3D('',#803,#804,#805);
#803 = CARTESIAN_POINT('',(0.457986711843,1.,0.4));
#804 = DIRECTION('',(0.,0.,1.));
#805 = DIRECTION('',(1.,0.,-0.));
#806 = ORIENTED_EDGE('',*,*,#807,.T.);
#807 = EDGE_CURVE('',#799,#808,#810,.T.);
#808 = VERTEX_POINT('',#809);
#809 = CARTESIAN_POINT('',(-0.457986711843,1.1,0.4));
#810 = LINE('',#811,#812);
#811 = CARTESIAN_POINT('',(0.457986711843,1.1,0.4));
#812 = VECTOR('',#813,1.);
#813 = DIRECTION('',(-1.,-2.367322335885E-16,0.));
#814 = ORIENTED_EDGE('',*,*,#815,.T.);
#815 = EDGE_CURVE('',#808,#816,#818,.T.);
#816 = VERTEX_POINT('',#817);
#817 = CARTESIAN_POINT('',(-0.557641287668,1.008304547985,0.4));
#818 = CIRCLE('',#819,0.1);
#819 = AXIS2_PLACEMENT_3D('',#820,#821,#822);
#820 = CARTESIAN_POINT('',(-0.457986711843,1.,0.4));
#821 = DIRECTION('',(0.,0.,1.));
#822 = DIRECTION('',(1.,0.,-0.));
#823 = ORIENTED_EDGE('',*,*,#824,.T.);
#824 = EDGE_CURVE('',#816,#696,#825,.T.);
#825 = LINE('',#826,#827);
#826 = CARTESIAN_POINT('',(-0.557641287668,1.008304547985,0.4));
#827 = VECTOR('',#828,1.);
#828 = DIRECTION('',(-8.304547985373E-02,-0.996545758245,0.));
#829 = PLANE('',#830);
#830 = AXIS2_PLACEMENT_3D('',#831,#832,#833);
#831 = CARTESIAN_POINT('',(0.8,0.5,0.4));
#832 = DIRECTION('',(-1.355252715607E-16,0.,-1.));
#833 = DIRECTION('',(-1.,0.,1.355252715607E-16));
#834 = ADVANCED_FACE('',(#835),#974,.F.);
#835 = FACE_BOUND('',#836,.T.);
#836 = EDGE_LOOP('',(#837,#847,#855,#863,#871,#880,#888,#897,#903,#904,
    #912,#920,#928,#936,#944,#952,#960,#968));
#837 = ORIENTED_EDGE('',*,*,#838,.T.);
#838 = EDGE_CURVE('',#839,#841,#843,.T.);
#839 = VERTEX_POINT('',#840);
#840 = CARTESIAN_POINT('',(-0.78,0.48,-0.4));
#841 = VERTEX_POINT('',#842);
#842 = CARTESIAN_POINT('',(-0.7,0.48,-0.4));
#843 = LINE('',#844,#845);
#844 = CARTESIAN_POINT('',(-0.78,0.48,-0.4));
#845 = VECTOR('',#846,1.);
#846 = DIRECTION('',(1.,0.,0.));
#847 = ORIENTED_EDGE('',*,*,#848,.T.);
#848 = EDGE_CURVE('',#841,#849,#851,.T.);
#849 = VERTEX_POINT('',#850);
#850 = CARTESIAN_POINT('',(-0.7,0.5,-0.4));
#851 = LINE('',#852,#853);
#852 = CARTESIAN_POINT('',(-0.7,0.5,-0.4));
#853 = VECTOR('',#854,1.);
#854 = DIRECTION('',(-0.,1.,-0.));
#855 = ORIENTED_EDGE('',*,*,#856,.F.);
#856 = EDGE_CURVE('',#857,#849,#859,.T.);
#857 = VERTEX_POINT('',#858);
#858 = CARTESIAN_POINT('',(-0.6,0.5,-0.4));
#859 = LINE('',#860,#861);
#860 = CARTESIAN_POINT('',(0.8,0.5,-0.4));
#861 = VECTOR('',#862,1.);
#862 = DIRECTION('',(-1.,0.,1.355252715607E-16));
#863 = ORIENTED_EDGE('',*,*,#864,.T.);
#864 = EDGE_CURVE('',#857,#865,#867,.T.);
#865 = VERTEX_POINT('',#866);
#866 = CARTESIAN_POINT('',(-0.557641287668,1.008304547985,-0.4));
#867 = LINE('',#868,#869);
#868 = CARTESIAN_POINT('',(-0.557641287668,1.008304547985,-0.4));
#869 = VECTOR('',#870,1.);
#870 = DIRECTION('',(8.304547985373E-02,0.996545758245,
    -1.125476120907E-17));
#871 = ORIENTED_EDGE('',*,*,#872,.T.);
#872 = EDGE_CURVE('',#865,#873,#875,.T.);
#873 = VERTEX_POINT('',#874);
#874 = CARTESIAN_POINT('',(-0.457986711843,1.1,-0.4));
#875 = CIRCLE('',#876,0.1);
#876 = AXIS2_PLACEMENT_3D('',#877,#878,#879);
#877 = CARTESIAN_POINT('',(-0.457986711843,1.,-0.4));
#878 = DIRECTION('',(-1.355252715607E-16,0.,-1.));
#879 = DIRECTION('',(1.,0.,-1.355252715607E-16));
#880 = ORIENTED_EDGE('',*,*,#881,.T.);
#881 = EDGE_CURVE('',#873,#882,#884,.T.);
#882 = VERTEX_POINT('',#883);
#883 = CARTESIAN_POINT('',(0.457986711843,1.1,-0.4));
#884 = LINE('',#885,#886);
#885 = CARTESIAN_POINT('',(0.457986711843,1.1,-0.4));
#886 = VECTOR('',#887,1.);
#887 = DIRECTION('',(1.,2.367322335885E-16,-1.355252715607E-16));
#888 = ORIENTED_EDGE('',*,*,#889,.T.);
#889 = EDGE_CURVE('',#882,#890,#892,.T.);
#890 = VERTEX_POINT('',#891);
#891 = CARTESIAN_POINT('',(0.557641287668,1.008304547985,-0.4));
#892 = CIRCLE('',#893,0.1);
#893 = AXIS2_PLACEMENT_3D('',#894,#895,#896);
#894 = CARTESIAN_POINT('',(0.457986711843,1.,-0.4));
#895 = DIRECTION('',(-1.355252715607E-16,0.,-1.));
#896 = DIRECTION('',(1.,2.168404344971E-15,-1.355252715607E-16));
#897 = ORIENTED_EDGE('',*,*,#898,.T.);
#898 = EDGE_CURVE('',#890,#664,#899,.T.);
#899 = LINE('',#900,#901);
#900 = CARTESIAN_POINT('',(0.557641287668,1.008304547985,-0.4));
#901 = VECTOR('',#902,1.);
#902 = DIRECTION('',(8.304547985373E-02,-0.996545758245,
    -1.125476120907E-17));
#903 = ORIENTED_EDGE('',*,*,#663,.F.);
#904 = ORIENTED_EDGE('',*,*,#905,.T.);
#905 = EDGE_CURVE('',#654,#906,#908,.T.);
#906 = VERTEX_POINT('',#907);
#907 = CARTESIAN_POINT('',(0.7,0.48,-0.4));
#908 = LINE('',#909,#910);
#909 = CARTESIAN_POINT('',(0.7,0.5,-0.4));
#910 = VECTOR('',#911,1.);
#911 = DIRECTION('',(0.,-1.,0.));
#912 = ORIENTED_EDGE('',*,*,#913,.T.);
#913 = EDGE_CURVE('',#906,#914,#916,.T.);
#914 = VERTEX_POINT('',#915);
#915 = CARTESIAN_POINT('',(0.78,0.48,-0.4));
#916 = LINE('',#917,#918);
#917 = CARTESIAN_POINT('',(0.78,0.48,-0.4));
#918 = VECTOR('',#919,1.);
#919 = DIRECTION('',(1.,-0.,-0.));
#920 = ORIENTED_EDGE('',*,*,#921,.T.);
#921 = EDGE_CURVE('',#914,#922,#924,.T.);
#922 = VERTEX_POINT('',#923);
#923 = CARTESIAN_POINT('',(0.78,2.E-02,-0.4));
#924 = LINE('',#925,#926);
#925 = CARTESIAN_POINT('',(0.78,2.E-02,-0.4));
#926 = VECTOR('',#927,1.);
#927 = DIRECTION('',(-0.,-1.,-0.));
#928 = ORIENTED_EDGE('',*,*,#929,.T.);
#929 = EDGE_CURVE('',#922,#930,#932,.T.);
#930 = VERTEX_POINT('',#931);
#931 = CARTESIAN_POINT('',(0.5,2.E-02,-0.4));
#932 = LINE('',#933,#934);
#933 = CARTESIAN_POINT('',(0.5,2.E-02,-0.4));
#934 = VECTOR('',#935,1.);
#935 = DIRECTION('',(-1.,-0.,-0.));
#936 = ORIENTED_EDGE('',*,*,#937,.T.);
#937 = EDGE_CURVE('',#930,#938,#940,.T.);
#938 = VERTEX_POINT('',#939);
#939 = CARTESIAN_POINT('',(0.5,1.836970198721E-17,-0.4));
#940 = LINE('',#941,#942);
#941 = CARTESIAN_POINT('',(0.5,2.E-02,-0.4));
#942 = VECTOR('',#943,1.);
#943 = DIRECTION('',(0.,-1.,0.));
#944 = ORIENTED_EDGE('',*,*,#945,.T.);
#945 = EDGE_CURVE('',#938,#946,#948,.T.);
#946 = VERTEX_POINT('',#947);
#947 = CARTESIAN_POINT('',(-0.5,0.,-0.4));
#948 = LINE('',#949,#950);
#949 = CARTESIAN_POINT('',(0.8,0.,-0.4));
#950 = VECTOR('',#951,1.);
#951 = DIRECTION('',(-1.,0.,1.355252715607E-16));
#952 = ORIENTED_EDGE('',*,*,#953,.T.);
#953 = EDGE_CURVE('',#946,#954,#956,.T.);
#954 = VERTEX_POINT('',#955);
#955 = CARTESIAN_POINT('',(-0.5,2.E-02,-0.4));
#956 = LINE('',#957,#958);
#957 = CARTESIAN_POINT('',(-0.5,2.E-02,-0.4));
#958 = VECTOR('',#959,1.);
#959 = DIRECTION('',(-0.,1.,-0.));
#960 = ORIENTED_EDGE('',*,*,#961,.T.);
#961 = EDGE_CURVE('',#954,#962,#964,.T.);
#962 = VERTEX_POINT('',#963);
#963 = CARTESIAN_POINT('',(-0.78,2.E-02,-0.4));
#964 = LINE('',#965,#966);
#965 = CARTESIAN_POINT('',(-0.5,2.E-02,-0.4));
#966 = VECTOR('',#967,1.);
#967 = DIRECTION('',(-1.,0.,0.));
#968 = ORIENTED_EDGE('',*,*,#969,.T.);
#969 = EDGE_CURVE('',#962,#839,#970,.T.);
#970 = LINE('',#971,#972);
#971 = CARTESIAN_POINT('',(-0.78,2.E-02,-0.4));
#972 = VECTOR('',#973,1.);
#973 = DIRECTION('',(0.,1.,0.));
#974 = PLANE('',#975);
#975 = AXIS2_PLACEMENT_3D('',#976,#977,#978);
#976 = CARTESIAN_POINT('',(0.8,0.5,-0.4));
#977 = DIRECTION('',(1.355252715607E-16,-0.,1.));
#978 = DIRECTION('',(1.,0.,-1.355252715607E-16));
#979 = ADVANCED_FACE('',(#980),#996,.T.);
#980 = FACE_BOUND('',#981,.T.);
#981 = EDGE_LOOP('',(#982,#988,#989,#995));
#982 = ORIENTED_EDGE('',*,*,#983,.T.);
#983 = EDGE_CURVE('',#849,#694,#984,.T.);
#984 = LINE('',#985,#986);
#985 = CARTESIAN_POINT('',(-0.7,0.5,-0.4));
#986 = VECTOR('',#987,1.);
#987 = DIRECTION('',(-0.,-0.,1.));
#988 = ORIENTED_EDGE('',*,*,#693,.T.);
#989 = ORIENTED_EDGE('',*,*,#990,.F.);
#990 = EDGE_CURVE('',#857,#696,#991,.T.);
#991 = LINE('',#992,#993);
#992 = CARTESIAN_POINT('',(-0.6,0.5,-1.7416407865));
#993 = VECTOR('',#994,1.);
#994 = DIRECTION('',(0.,0.,1.));
#995 = ORIENTED_EDGE('',*,*,#856,.T.);
#996 = PLANE('',#997);
#997 = AXIS2_PLACEMENT_3D('',#998,#999,#1000);
#998 = CARTESIAN_POINT('',(0.,0.5,0.));
#999 = DIRECTION('',(0.,1.,0.));
#1000 = DIRECTION('',(0.,-0.,1.));
#1001 = ADVANCED_FACE('',(#1002),#1018,.F.);
#1002 = FACE_BOUND('',#1003,.T.);
#1003 = EDGE_LOOP('',(#1004,#1005,#1011,#1012));
#1004 = ORIENTED_EDGE('',*,*,#743,.F.);
#1005 = ORIENTED_EDGE('',*,*,#1006,.F.);
#1006 = EDGE_CURVE('',#946,#736,#1007,.T.);
#1007 = LINE('',#1008,#1009);
#1008 = CARTESIAN_POINT('',(-0.5,1.836970198721E-17,-0.4));
#1009 = VECTOR('',#1010,1.);
#1010 = DIRECTION('',(-0.,-0.,1.));
#1011 = ORIENTED_EDGE('',*,*,#945,.F.);
#1012 = ORIENTED_EDGE('',*,*,#1013,.T.);
#1013 = EDGE_CURVE('',#938,#744,#1014,.T.);
#1014 = LINE('',#1015,#1016);
#1015 = CARTESIAN_POINT('',(0.5,1.836970198721E-17,-0.4));
#1016 = VECTOR('',#1017,1.);
#1017 = DIRECTION('',(-0.,-0.,1.));
#1018 = PLANE('',#1019);
#1019 = AXIS2_PLACEMENT_3D('',#1020,#1021,#1022);
#1020 = CARTESIAN_POINT('',(0.,0.,0.));
#1021 = DIRECTION('',(0.,1.,0.));
#1022 = DIRECTION('',(0.,-0.,1.));
#1023 = ADVANCED_FACE('',(#1024),#1035,.T.);
#1024 = FACE_BOUND('',#1025,.T.);
#1025 = EDGE_LOOP('',(#1026,#1027,#1028,#1029));
#1026 = ORIENTED_EDGE('',*,*,#864,.F.);
#1027 = ORIENTED_EDGE('',*,*,#990,.T.);
#1028 = ORIENTED_EDGE('',*,*,#824,.F.);
#1029 = ORIENTED_EDGE('',*,*,#1030,.F.);
#1030 = EDGE_CURVE('',#865,#816,#1031,.T.);
#1031 = LINE('',#1032,#1033);
#1032 = CARTESIAN_POINT('',(-0.557641287668,1.008304547985,-1.7416407865
    ));
#1033 = VECTOR('',#1034,1.);
#1034 = DIRECTION('',(0.,0.,1.));
#1035 = PLANE('',#1036);
#1036 = AXIS2_PLACEMENT_3D('',#1037,#1038,#1039);
#1037 = CARTESIAN_POINT('',(-0.557641287668,1.008304547985,-1.7416407865
    ));
#1038 = DIRECTION('',(-0.996545758245,8.304547985373E-02,0.));
#1039 = DIRECTION('',(-8.304547985373E-02,-0.996545758245,0.));
#1040 = ADVANCED_FACE('',(#1041),#1052,.T.);
#1041 = FACE_BOUND('',#1042,.T.);
#1042 = EDGE_LOOP('',(#1043,#1044,#1045,#1046));
#1043 = ORIENTED_EDGE('',*,*,#872,.F.);
#1044 = ORIENTED_EDGE('',*,*,#1030,.T.);
#1045 = ORIENTED_EDGE('',*,*,#815,.F.);
#1046 = ORIENTED_EDGE('',*,*,#1047,.F.);
#1047 = EDGE_CURVE('',#873,#808,#1048,.T.);
#1048 = LINE('',#1049,#1050);
#1049 = CARTESIAN_POINT('',(-0.457986711843,1.1,-1.7416407865));
#1050 = VECTOR('',#1051,1.);
#1051 = DIRECTION('',(0.,0.,1.));
#1052 = CYLINDRICAL_SURFACE('',#1053,0.1);
#1053 = AXIS2_PLACEMENT_3D('',#1054,#1055,#1056);
#1054 = CARTESIAN_POINT('',(-0.457986711843,1.,-1.7416407865));
#1055 = DIRECTION('',(0.,0.,1.));
#1056 = DIRECTION('',(1.,0.,-0.));
#1057 = ADVANCED_FACE('',(#1058,#1092),#1103,.T.);
#1058 = FACE_BOUND('',#1059,.T.);
#1059 = EDGE_LOOP('',(#1060,#1070,#1078,#1086));
#1060 = ORIENTED_EDGE('',*,*,#1061,.F.);
#1061 = EDGE_CURVE('',#1062,#1064,#1066,.T.);
#1062 = VERTEX_POINT('',#1063);
#1063 = CARTESIAN_POINT('',(0.4,1.1,0.15));
#1064 = VERTEX_POINT('',#1065);
#1065 = CARTESIAN_POINT('',(0.4,1.1,-0.15));
#1066 = LINE('',#1067,#1068);
#1067 = CARTESIAN_POINT('',(0.4,1.1,0.15));
#1068 = VECTOR('',#1069,1.);
#1069 = DIRECTION('',(-3.614007241618E-16,0.,-1.));
#1070 = ORIENTED_EDGE('',*,*,#1071,.F.);
#1071 = EDGE_CURVE('',#1072,#1062,#1074,.T.);
#1072 = VERTEX_POINT('',#1073);
#1073 = CARTESIAN_POINT('',(0.1,1.1,0.15));
#1074 = LINE('',#1075,#1076);
#1075 = CARTESIAN_POINT('',(0.1,1.1,0.15));
#1076 = VECTOR('',#1077,1.);
#1077 = DIRECTION('',(1.,0.,0.));
#1078 = ORIENTED_EDGE('',*,*,#1079,.F.);
#1079 = EDGE_CURVE('',#1080,#1072,#1082,.T.);
#1080 = VERTEX_POINT('',#1081);
#1081 = CARTESIAN_POINT('',(0.1,1.1,-0.15));
#1082 = LINE('',#1083,#1084);
#1083 = CARTESIAN_POINT('',(0.1,1.1,0.15));
#1084 = VECTOR('',#1085,1.);
#1085 = DIRECTION('',(1.807003620809E-16,-0.,1.));
#1086 = ORIENTED_EDGE('',*,*,#1087,.F.);
#1087 = EDGE_CURVE('',#1064,#1080,#1088,.T.);
#1088 = LINE('',#1089,#1090);
#1089 = CARTESIAN_POINT('',(0.1,1.1,-0.15));
#1090 = VECTOR('',#1091,1.);
#1091 = DIRECTION('',(-1.,-0.,-0.));
#1092 = FACE_BOUND('',#1093,.T.);
#1093 = EDGE_LOOP('',(#1094,#1095,#1096,#1097));
#1094 = ORIENTED_EDGE('',*,*,#881,.F.);
#1095 = ORIENTED_EDGE('',*,*,#1047,.T.);
#1096 = ORIENTED_EDGE('',*,*,#807,.F.);
#1097 = ORIENTED_EDGE('',*,*,#1098,.F.);
#1098 = EDGE_CURVE('',#882,#799,#1099,.T.);
#1099 = LINE('',#1100,#1101);
#1100 = CARTESIAN_POINT('',(0.457986711843,1.1,-1.7416407865));
#1101 = VECTOR('',#1102,1.);
#1102 = DIRECTION('',(0.,0.,1.));
#1103 = PLANE('',#1104);
#1104 = AXIS2_PLACEMENT_3D('',#1105,#1106,#1107);
#1105 = CARTESIAN_POINT('',(0.457986711843,1.1,-1.7416407865));
#1106 = DIRECTION('',(-2.367322335885E-16,1.,0.));
#1107 = DIRECTION('',(-1.,-2.367322335885E-16,0.));
#1108 = ADVANCED_FACE('',(#1109),#1120,.T.);
#1109 = FACE_BOUND('',#1110,.T.);
#1110 = EDGE_LOOP('',(#1111,#1112,#1113,#1114));
#1111 = ORIENTED_EDGE('',*,*,#889,.F.);
#1112 = ORIENTED_EDGE('',*,*,#1098,.T.);
#1113 = ORIENTED_EDGE('',*,*,#798,.F.);
#1114 = ORIENTED_EDGE('',*,*,#1115,.F.);
#1115 = EDGE_CURVE('',#890,#791,#1116,.T.);
#1116 = LINE('',#1117,#1118);
#1117 = CARTESIAN_POINT('',(0.557641287668,1.008304547985,-1.7416407865)
  );
#1118 = VECTOR('',#1119,1.);
#1119 = DIRECTION('',(0.,0.,1.));
#1120 = CYLINDRICAL_SURFACE('',#1121,0.1);
#1121 = AXIS2_PLACEMENT_3D('',#1122,#1123,#1124);
#1122 = CARTESIAN_POINT('',(0.457986711843,1.,-1.7416407865));
#1123 = DIRECTION('',(0.,0.,1.));
#1124 = DIRECTION('',(1.,0.,-0.));
#1125 = ADVANCED_FACE('',(#1126),#1132,.T.);
#1126 = FACE_BOUND('',#1127,.T.);
#1127 = EDGE_LOOP('',(#1128,#1129,#1130,#1131));
#1128 = ORIENTED_EDGE('',*,*,#898,.F.);
#1129 = ORIENTED_EDGE('',*,*,#1115,.T.);
#1130 = ORIENTED_EDGE('',*,*,#790,.F.);
#1131 = ORIENTED_EDGE('',*,*,#671,.F.);
#1132 = PLANE('',#1133);
#1133 = AXIS2_PLACEMENT_3D('',#1134,#1135,#1136);
#1134 = CARTESIAN_POINT('',(0.557641287668,1.008304547985,-1.7416407865)
  );
#1135 = DIRECTION('',(0.996545758245,8.304547985373E-02,-0.));
#1136 = DIRECTION('',(-8.304547985373E-02,0.996545758245,0.));
#1137 = ADVANCED_FACE('',(#1138),#1149,.F.);
#1138 = FACE_BOUND('',#1139,.T.);
#1139 = EDGE_LOOP('',(#1140,#1141,#1142,#1143));
#1140 = ORIENTED_EDGE('',*,*,#751,.T.);
#1141 = ORIENTED_EDGE('',*,*,#1013,.F.);
#1142 = ORIENTED_EDGE('',*,*,#937,.F.);
#1143 = ORIENTED_EDGE('',*,*,#1144,.T.);
#1144 = EDGE_CURVE('',#930,#752,#1145,.T.);
#1145 = LINE('',#1146,#1147);
#1146 = CARTESIAN_POINT('',(0.5,2.E-02,-0.4));
#1147 = VECTOR('',#1148,1.);
#1148 = DIRECTION('',(-0.,-0.,1.));
#1149 = PLANE('',#1150);
#1150 = AXIS2_PLACEMENT_3D('',#1151,#1152,#1153);
#1151 = CARTESIAN_POINT('',(0.5,2.E-02,-0.4));
#1152 = DIRECTION('',(-1.,0.,-0.));
#1153 = DIRECTION('',(0.,0.,1.));
#1154 = ADVANCED_FACE('',(#1155),#1166,.F.);
#1155 = FACE_BOUND('',#1156,.T.);
#1156 = EDGE_LOOP('',(#1157,#1158,#1159,#1160));
#1157 = ORIENTED_EDGE('',*,*,#759,.T.);
#1158 = ORIENTED_EDGE('',*,*,#1144,.F.);
#1159 = ORIENTED_EDGE('',*,*,#929,.F.);
#1160 = ORIENTED_EDGE('',*,*,#1161,.T.);
#1161 = EDGE_CURVE('',#922,#760,#1162,.T.);
#1162 = LINE('',#1163,#1164);
#1163 = CARTESIAN_POINT('',(0.78,2.E-02,-0.4));
#1164 = VECTOR('',#1165,1.);
#1165 = DIRECTION('',(-0.,-0.,1.));
#1166 = PLANE('',#1167);
#1167 = AXIS2_PLACEMENT_3D('',#1168,#1169,#1170);
#1168 = CARTESIAN_POINT('',(0.5,2.E-02,-0.4));
#1169 = DIRECTION('',(-0.,1.,0.));
#1170 = DIRECTION('',(0.,0.,1.));
#1171 = ADVANCED_FACE('',(#1172),#1183,.F.);
#1172 = FACE_BOUND('',#1173,.T.);
#1173 = EDGE_LOOP('',(#1174,#1175,#1176,#1177));
#1174 = ORIENTED_EDGE('',*,*,#767,.T.);
#1175 = ORIENTED_EDGE('',*,*,#1161,.F.);
#1176 = ORIENTED_EDGE('',*,*,#921,.F.);
#1177 = ORIENTED_EDGE('',*,*,#1178,.T.);
#1178 = EDGE_CURVE('',#914,#768,#1179,.T.);
#1179 = LINE('',#1180,#1181);
#1180 = CARTESIAN_POINT('',(0.78,0.48,-0.4));
#1181 = VECTOR('',#1182,1.);
#1182 = DIRECTION('',(-0.,-0.,1.));
#1183 = PLANE('',#1184);
#1184 = AXIS2_PLACEMENT_3D('',#1185,#1186,#1187);
#1185 = CARTESIAN_POINT('',(0.78,2.E-02,-0.4));
#1186 = DIRECTION('',(-1.,0.,0.));
#1187 = DIRECTION('',(0.,0.,1.));
#1188 = ADVANCED_FACE('',(#1189),#1200,.F.);
#1189 = FACE_BOUND('',#1190,.T.);
#1190 = EDGE_LOOP('',(#1191,#1192,#1193,#1194));
#1191 = ORIENTED_EDGE('',*,*,#775,.T.);
#1192 = ORIENTED_EDGE('',*,*,#1178,.F.);
#1193 = ORIENTED_EDGE('',*,*,#913,.F.);
#1194 = ORIENTED_EDGE('',*,*,#1195,.T.);
#1195 = EDGE_CURVE('',#906,#776,#1196,.T.);
#1196 = LINE('',#1197,#1198);
#1197 = CARTESIAN_POINT('',(0.7,0.48,-0.4));
#1198 = VECTOR('',#1199,1.);
#1199 = DIRECTION('',(-0.,-0.,1.));
#1200 = PLANE('',#1201);
#1201 = AXIS2_PLACEMENT_3D('',#1202,#1203,#1204);
#1202 = CARTESIAN_POINT('',(0.78,0.48,-0.4));
#1203 = DIRECTION('',(0.,-1.,-0.));
#1204 = DIRECTION('',(0.,0.,-1.));
#1205 = ADVANCED_FACE('',(#1206),#1212,.F.);
#1206 = FACE_BOUND('',#1207,.T.);
#1207 = EDGE_LOOP('',(#1208,#1209,#1210,#1211));
#1208 = ORIENTED_EDGE('',*,*,#783,.T.);
#1209 = ORIENTED_EDGE('',*,*,#1195,.F.);
#1210 = ORIENTED_EDGE('',*,*,#905,.F.);
#1211 = ORIENTED_EDGE('',*,*,#653,.T.);
#1212 = PLANE('',#1213);
#1213 = AXIS2_PLACEMENT_3D('',#1214,#1215,#1216);
#1214 = CARTESIAN_POINT('',(0.7,0.5,-0.4));
#1215 = DIRECTION('',(-1.,0.,-0.));
#1216 = DIRECTION('',(0.,0.,1.));
#1217 = ADVANCED_FACE('',(#1218),#1229,.F.);
#1218 = FACE_BOUND('',#1219,.T.);
#1219 = EDGE_LOOP('',(#1220,#1221,#1222,#1223));
#1220 = ORIENTED_EDGE('',*,*,#703,.T.);
#1221 = ORIENTED_EDGE('',*,*,#983,.F.);
#1222 = ORIENTED_EDGE('',*,*,#848,.F.);
#1223 = ORIENTED_EDGE('',*,*,#1224,.T.);
#1224 = EDGE_CURVE('',#841,#704,#1225,.T.);
#1225 = LINE('',#1226,#1227);
#1226 = CARTESIAN_POINT('',(-0.7,0.48,-0.4));
#1227 = VECTOR('',#1228,1.);
#1228 = DIRECTION('',(-0.,-0.,1.));
#1229 = PLANE('',#1230);
#1230 = AXIS2_PLACEMENT_3D('',#1231,#1232,#1233);
#1231 = CARTESIAN_POINT('',(-0.7,0.5,-0.4));
#1232 = DIRECTION('',(1.,0.,0.));
#1233 = DIRECTION('',(0.,0.,-1.));
#1234 = ADVANCED_FACE('',(#1235),#1246,.F.);
#1235 = FACE_BOUND('',#1236,.T.);
#1236 = EDGE_LOOP('',(#1237,#1238,#1239,#1240));
#1237 = ORIENTED_EDGE('',*,*,#711,.T.);
#1238 = ORIENTED_EDGE('',*,*,#1224,.F.);
#1239 = ORIENTED_EDGE('',*,*,#838,.F.);
#1240 = ORIENTED_EDGE('',*,*,#1241,.T.);
#1241 = EDGE_CURVE('',#839,#712,#1242,.T.);
#1242 = LINE('',#1243,#1244);
#1243 = CARTESIAN_POINT('',(-0.78,0.48,-0.4));
#1244 = VECTOR('',#1245,1.);
#1245 = DIRECTION('',(-0.,-0.,1.));
#1246 = PLANE('',#1247);
#1247 = AXIS2_PLACEMENT_3D('',#1248,#1249,#1250);
#1248 = CARTESIAN_POINT('',(-0.78,0.48,-0.4));
#1249 = DIRECTION('',(0.,-1.,0.));
#1250 = DIRECTION('',(0.,-0.,-1.));
#1251 = ADVANCED_FACE('',(#1252),#1263,.F.);
#1252 = FACE_BOUND('',#1253,.T.);
#1253 = EDGE_LOOP('',(#1254,#1255,#1256,#1257));
#1254 = ORIENTED_EDGE('',*,*,#719,.T.);
#1255 = ORIENTED_EDGE('',*,*,#1241,.F.);
#1256 = ORIENTED_EDGE('',*,*,#969,.F.);
#1257 = ORIENTED_EDGE('',*,*,#1258,.T.);
#1258 = EDGE_CURVE('',#962,#720,#1259,.T.);
#1259 = LINE('',#1260,#1261);
#1260 = CARTESIAN_POINT('',(-0.78,2.E-02,-0.4));
#1261 = VECTOR('',#1262,1.);
#1262 = DIRECTION('',(-0.,-0.,1.));
#1263 = PLANE('',#1264);
#1264 = AXIS2_PLACEMENT_3D('',#1265,#1266,#1267);
#1265 = CARTESIAN_POINT('',(-0.78,2.E-02,-0.4));
#1266 = DIRECTION('',(1.,-0.,0.));
#1267 = DIRECTION('',(0.,0.,-1.));
#1268 = ADVANCED_FACE('',(#1269),#1280,.F.);
#1269 = FACE_BOUND('',#1270,.T.);
#1270 = EDGE_LOOP('',(#1271,#1272,#1273,#1274));
#1271 = ORIENTED_EDGE('',*,*,#727,.T.);
#1272 = ORIENTED_EDGE('',*,*,#1258,.F.);
#1273 = ORIENTED_EDGE('',*,*,#961,.F.);
#1274 = ORIENTED_EDGE('',*,*,#1275,.T.);
#1275 = EDGE_CURVE('',#954,#728,#1276,.T.);
#1276 = LINE('',#1277,#1278);
#1277 = CARTESIAN_POINT('',(-0.5,2.E-02,-0.4));
#1278 = VECTOR('',#1279,1.);
#1279 = DIRECTION('',(-0.,-0.,1.));
#1280 = PLANE('',#1281);
#1281 = AXIS2_PLACEMENT_3D('',#1282,#1283,#1284);
#1282 = CARTESIAN_POINT('',(-0.5,2.E-02,-0.4));
#1283 = DIRECTION('',(0.,1.,0.));
#1284 = DIRECTION('',(0.,-0.,1.));
#1285 = ADVANCED_FACE('',(#1286),#1292,.F.);
#1286 = FACE_BOUND('',#1287,.T.);
#1287 = EDGE_LOOP('',(#1288,#1289,#1290,#1291));
#1288 = ORIENTED_EDGE('',*,*,#735,.T.);
#1289 = ORIENTED_EDGE('',*,*,#1275,.F.);
#1290 = ORIENTED_EDGE('',*,*,#953,.F.);
#1291 = ORIENTED_EDGE('',*,*,#1006,.T.);
#1292 = PLANE('',#1293);
#1293 = AXIS2_PLACEMENT_3D('',#1294,#1295,#1296);
#1294 = CARTESIAN_POINT('',(-0.5,2.E-02,-0.4));
#1295 = DIRECTION('',(1.,0.,0.));
#1296 = DIRECTION('',(0.,0.,-1.));
#1297 = ADVANCED_FACE('',(#1298),#1323,.F.);
#1298 = FACE_BOUND('',#1299,.T.);
#1299 = EDGE_LOOP('',(#1300,#1301,#1309,#1317));
#1300 = ORIENTED_EDGE('',*,*,#1061,.T.);
#1301 = ORIENTED_EDGE('',*,*,#1302,.F.);
#1302 = EDGE_CURVE('',#1303,#1064,#1305,.T.);
#1303 = VERTEX_POINT('',#1304);
#1304 = CARTESIAN_POINT('',(0.4,1.09,-0.15));
#1305 = LINE('',#1306,#1307);
#1306 = CARTESIAN_POINT('',(0.4,1.09,-0.15));
#1307 = VECTOR('',#1308,1.);
#1308 = DIRECTION('',(-2.367322335885E-16,1.,-0.));
#1309 = ORIENTED_EDGE('',*,*,#1310,.F.);
#1310 = EDGE_CURVE('',#1311,#1303,#1313,.T.);
#1311 = VERTEX_POINT('',#1312);
#1312 = CARTESIAN_POINT('',(0.4,1.09,0.15));
#1313 = LINE('',#1314,#1315);
#1314 = CARTESIAN_POINT('',(0.4,1.09,0.15));
#1315 = VECTOR('',#1316,1.);
#1316 = DIRECTION('',(-3.614007241618E-16,0.,-1.));
#1317 = ORIENTED_EDGE('',*,*,#1318,.T.);
#1318 = EDGE_CURVE('',#1311,#1062,#1319,.T.);
#1319 = LINE('',#1320,#1321);
#1320 = CARTESIAN_POINT('',(0.4,1.09,0.15));
#1321 = VECTOR('',#1322,1.);
#1322 = DIRECTION('',(-2.367322335885E-16,1.,-0.));
#1323 = PLANE('',#1324);
#1324 = AXIS2_PLACEMENT_3D('',#1325,#1326,#1327);
#1325 = CARTESIAN_POINT('',(0.4,1.09,0.15));
#1326 = DIRECTION('',(1.,2.367322335885E-16,-3.614007241618E-16));
#1327 = DIRECTION('',(-3.614007241618E-16,0.,-1.));
#1328 = ADVANCED_FACE('',(#1329),#1347,.F.);
#1329 = FACE_BOUND('',#1330,.T.);
#1330 = EDGE_LOOP('',(#1331,#1332,#1333,#1341));
#1331 = ORIENTED_EDGE('',*,*,#1071,.T.);
#1332 = ORIENTED_EDGE('',*,*,#1318,.F.);
#1333 = ORIENTED_EDGE('',*,*,#1334,.F.);
#1334 = EDGE_CURVE('',#1335,#1311,#1337,.T.);
#1335 = VERTEX_POINT('',#1336);
#1336 = CARTESIAN_POINT('',(0.1,1.09,0.15));
#1337 = LINE('',#1338,#1339);
#1338 = CARTESIAN_POINT('',(0.1,1.09,0.15));
#1339 = VECTOR('',#1340,1.);
#1340 = DIRECTION('',(1.,0.,0.));
#1341 = ORIENTED_EDGE('',*,*,#1342,.T.);
#1342 = EDGE_CURVE('',#1335,#1072,#1343,.T.);
#1343 = LINE('',#1344,#1345);
#1344 = CARTESIAN_POINT('',(0.1,1.09,0.15));
#1345 = VECTOR('',#1346,1.);
#1346 = DIRECTION('',(-2.367322335885E-16,1.,-0.));
#1347 = PLANE('',#1348);
#1348 = AXIS2_PLACEMENT_3D('',#1349,#1350,#1351);
#1349 = CARTESIAN_POINT('',(0.1,1.09,0.15));
#1350 = DIRECTION('',(-0.,0.,1.));
#1351 = DIRECTION('',(1.,0.,0.));
#1352 = ADVANCED_FACE('',(#1353),#1371,.F.);
#1353 = FACE_BOUND('',#1354,.T.);
#1354 = EDGE_LOOP('',(#1355,#1356,#1357,#1365));
#1355 = ORIENTED_EDGE('',*,*,#1079,.T.);
#1356 = ORIENTED_EDGE('',*,*,#1342,.F.);
#1357 = ORIENTED_EDGE('',*,*,#1358,.F.);
#1358 = EDGE_CURVE('',#1359,#1335,#1361,.T.);
#1359 = VERTEX_POINT('',#1360);
#1360 = CARTESIAN_POINT('',(0.1,1.09,-0.15));
#1361 = LINE('',#1362,#1363);
#1362 = CARTESIAN_POINT('',(0.1,1.09,0.15));
#1363 = VECTOR('',#1364,1.);
#1364 = DIRECTION('',(1.807003620809E-16,-0.,1.));
#1365 = ORIENTED_EDGE('',*,*,#1366,.T.);
#1366 = EDGE_CURVE('',#1359,#1080,#1367,.T.);
#1367 = LINE('',#1368,#1369);
#1368 = CARTESIAN_POINT('',(0.1,1.09,-0.15));
#1369 = VECTOR('',#1370,1.);
#1370 = DIRECTION('',(-2.367322335885E-16,1.,-0.));
#1371 = PLANE('',#1372);
#1372 = AXIS2_PLACEMENT_3D('',#1373,#1374,#1375);
#1373 = CARTESIAN_POINT('',(0.1,1.09,0.15));
#1374 = DIRECTION('',(-1.,-2.367322335885E-16,1.807003620809E-16));
#1375 = DIRECTION('',(2.367322335885E-16,-1.,0.));
#1376 = ADVANCED_FACE('',(#1377),#1388,.F.);
#1377 = FACE_BOUND('',#1378,.T.);
#1378 = EDGE_LOOP('',(#1379,#1380,#1381,#1387));
#1379 = ORIENTED_EDGE('',*,*,#1087,.T.);
#1380 = ORIENTED_EDGE('',*,*,#1366,.F.);
#1381 = ORIENTED_EDGE('',*,*,#1382,.F.);
#1382 = EDGE_CURVE('',#1303,#1359,#1383,.T.);
#1383 = LINE('',#1384,#1385);
#1384 = CARTESIAN_POINT('',(0.1,1.09,-0.15));
#1385 = VECTOR('',#1386,1.);
#1386 = DIRECTION('',(-1.,-0.,-0.));
#1387 = ORIENTED_EDGE('',*,*,#1302,.T.);
#1388 = PLANE('',#1389);
#1389 = AXIS2_PLACEMENT_3D('',#1390,#1391,#1392);
#1390 = CARTESIAN_POINT('',(0.1,1.09,-0.15));
#1391 = DIRECTION('',(0.,0.,-1.));
#1392 = DIRECTION('',(-1.,0.,-0.));
#1393 = ADVANCED_FACE('',(#1394),#1400,.F.);
#1394 = FACE_BOUND('',#1395,.T.);
#1395 = EDGE_LOOP('',(#1396,#1397,#1398,#1399));
#1396 = ORIENTED_EDGE('',*,*,#1310,.T.);
#1397 = ORIENTED_EDGE('',*,*,#1382,.T.);
#1398 = ORIENTED_EDGE('',*,*,#1358,.T.);
#1399 = ORIENTED_EDGE('',*,*,#1334,.T.);
#1400 = PLANE('',#1401);
#1401 = AXIS2_PLACEMENT_3D('',#1402,#1403,#1404);
#1402 = CARTESIAN_POINT('',(2.367322335885E-18,1.09,0.));
#1403 = DIRECTION('',(0.,-1.,0.));
#1404 = DIRECTION('',(0.,0.,-1.));
#1405 = ( GEOMETRIC_REPRESENTATION_CONTEXT(3) 
GLOBAL_UNCERTAINTY_ASSIGNED_CONTEXT((#1409)) 
GLOBAL_UNIT_ASSIGNED_CONTEXT((#1406,#1407,#1408)) REPRESENTATION_CONTEXT
('Context #1','3D Context with UNIT and UNCERTAINTY') );
#1406 = ( LENGTH_UNIT() NAMED_UNIT(*) SI_UNIT(.MILLI.,.METRE.) );
#1407 = ( NAMED_UNIT(*) PLANE_ANGLE_UNIT() SI_UNIT($,.RADIAN.) );
#1408 = ( NAMED_UNIT(*) SI_UNIT($,.STERADIAN.) SOLID_ANGLE_UNIT() );
#1409 = UNCERTAINTY_MEASURE_WITH_UNIT(LENGTH_MEASURE(1.E-07),#1406,
  'distance_accuracy_value','confusion accuracy');
#1410 = CONTEXT_DEPENDENT_SHAPE_REPRESENTATION(#1411,#1413);
#1411 = ( REPRESENTATION_RELATIONSHIP('','',#646,#10) 
REPRESENTATION_RELATIONSHIP_WITH_TRANSFORMATION(#1412) 
SHAPE_REPRESENTATION_RELATIONSHIP() );
#1412 = ITEM_DEFINED_TRANSFORMATION('','',#11,#23);
#1413 = PRODUCT_DEFINITION_SHAPE('Placement','Placement of an item',
  #1414);
#1414 = NEXT_ASSEMBLY_USAGE_OCCURRENCE('3','KP-1608SGC002','',#5,#641,$
  );
#1415 = PRODUCT_RELATED_PRODUCT_CATEGORY('part',$,(#643));
#1416 = SHAPE_DEFINITION_REPRESENTATION(#1417,#1423);
#1417 = PRODUCT_DEFINITION_SHAPE('','',#1418);
#1418 = PRODUCT_DEFINITION('design','',#1419,#1422);
#1419 = PRODUCT_DEFINITION_FORMATION('','',#1420);
#1420 = PRODUCT('KP-1608SGC003','KP-1608SGC003','',(#1421));
#1421 = PRODUCT_CONTEXT('',#2,'mechanical');
#1422 = PRODUCT_DEFINITION_CONTEXT('part definition',#2,'design');
#1423 = ADVANCED_BREP_SHAPE_REPRESENTATION('',(#11,#1424),#1574);
#1424 = MANIFOLD_SOLID_BREP('',#1425);
#1425 = CLOSED_SHELL('',(#1426,#1466,#1497,#1528,#1550,#1562));
#1426 = ADVANCED_FACE('',(#1427),#1461,.F.);
#1427 = FACE_BOUND('',#1428,.T.);
#1428 = EDGE_LOOP('',(#1429,#1439,#1447,#1455));
#1429 = ORIENTED_EDGE('',*,*,#1430,.T.);
#1430 = EDGE_CURVE('',#1431,#1433,#1435,.T.);
#1431 = VERTEX_POINT('',#1432);
#1432 = CARTESIAN_POINT('',(0.1,1.09,0.15));
#1433 = VERTEX_POINT('',#1434);
#1434 = CARTESIAN_POINT('',(0.4,1.09,0.15));
#1435 = LINE('',#1436,#1437);
#1436 = CARTESIAN_POINT('',(0.1,1.09,0.15));
#1437 = VECTOR('',#1438,1.);
#1438 = DIRECTION('',(1.,0.,0.));
#1439 = ORIENTED_EDGE('',*,*,#1440,.F.);
#1440 = EDGE_CURVE('',#1441,#1433,#1443,.T.);
#1441 = VERTEX_POINT('',#1442);
#1442 = CARTESIAN_POINT('',(0.4,1.1,0.15));
#1443 = LINE('',#1444,#1445);
#1444 = CARTESIAN_POINT('',(0.4,1.1,0.15));
#1445 = VECTOR('',#1446,1.);
#1446 = DIRECTION('',(-0.,-1.,-0.));
#1447 = ORIENTED_EDGE('',*,*,#1448,.F.);
#1448 = EDGE_CURVE('',#1449,#1441,#1451,.T.);
#1449 = VERTEX_POINT('',#1450);
#1450 = CARTESIAN_POINT('',(0.1,1.1,0.15));
#1451 = LINE('',#1452,#1453);
#1452 = CARTESIAN_POINT('',(0.1,1.1,0.15));
#1453 = VECTOR('',#1454,1.);
#1454 = DIRECTION('',(1.,0.,0.));
#1455 = ORIENTED_EDGE('',*,*,#1456,.T.);
#1456 = EDGE_CURVE('',#1449,#1431,#1457,.T.);
#1457 = LINE('',#1458,#1459);
#1458 = CARTESIAN_POINT('',(0.1,1.1,0.15));
#1459 = VECTOR('',#1460,1.);
#1460 = DIRECTION('',(-0.,-1.,-0.));
#1461 = PLANE('',#1462);
#1462 = AXIS2_PLACEMENT_3D('',#1463,#1464,#1465);
#1463 = CARTESIAN_POINT('',(0.1,1.1,0.15));
#1464 = DIRECTION('',(0.,0.,-1.));
#1465 = DIRECTION('',(-1.,0.,-0.));
#1466 = ADVANCED_FACE('',(#1467),#1492,.F.);
#1467 = FACE_BOUND('',#1468,.T.);
#1468 = EDGE_LOOP('',(#1469,#1477,#1485,#1491));
#1469 = ORIENTED_EDGE('',*,*,#1470,.T.);
#1470 = EDGE_CURVE('',#1433,#1471,#1473,.T.);
#1471 = VERTEX_POINT('',#1472);
#1472 = CARTESIAN_POINT('',(0.4,1.09,-0.15));
#1473 = LINE('',#1474,#1475);
#1474 = CARTESIAN_POINT('',(0.4,1.09,0.15));
#1475 = VECTOR('',#1476,1.);
#1476 = DIRECTION('',(-3.614007241618E-16,0.,-1.));
#1477 = ORIENTED_EDGE('',*,*,#1478,.F.);
#1478 = EDGE_CURVE('',#1479,#1471,#1481,.T.);
#1479 = VERTEX_POINT('',#1480);
#1480 = CARTESIAN_POINT('',(0.4,1.1,-0.15));
#1481 = LINE('',#1482,#1483);
#1482 = CARTESIAN_POINT('',(0.4,1.1,-0.15));
#1483 = VECTOR('',#1484,1.);
#1484 = DIRECTION('',(-0.,-1.,-0.));
#1485 = ORIENTED_EDGE('',*,*,#1486,.F.);
#1486 = EDGE_CURVE('',#1441,#1479,#1487,.T.);
#1487 = LINE('',#1488,#1489);
#1488 = CARTESIAN_POINT('',(0.4,1.1,0.15));
#1489 = VECTOR('',#1490,1.);
#1490 = DIRECTION('',(-3.614007241618E-16,0.,-1.));
#1491 = ORIENTED_EDGE('',*,*,#1440,.T.);
#1492 = PLANE('',#1493);
#1493 = AXIS2_PLACEMENT_3D('',#1494,#1495,#1496);
#1494 = CARTESIAN_POINT('',(0.4,1.1,0.15));
#1495 = DIRECTION('',(-1.,0.,3.614007241618E-16));
#1496 = DIRECTION('',(3.614007241618E-16,0.,1.));
#1497 = ADVANCED_FACE('',(#1498),#1523,.F.);
#1498 = FACE_BOUND('',#1499,.T.);
#1499 = EDGE_LOOP('',(#1500,#1508,#1516,#1522));
#1500 = ORIENTED_EDGE('',*,*,#1501,.T.);
#1501 = EDGE_CURVE('',#1471,#1502,#1504,.T.);
#1502 = VERTEX_POINT('',#1503);
#1503 = CARTESIAN_POINT('',(0.1,1.09,-0.15));
#1504 = LINE('',#1505,#1506);
#1505 = CARTESIAN_POINT('',(0.4,1.09,-0.15));
#1506 = VECTOR('',#1507,1.);
#1507 = DIRECTION('',(-1.,0.,0.));
#1508 = ORIENTED_EDGE('',*,*,#1509,.F.);
#1509 = EDGE_CURVE('',#1510,#1502,#1512,.T.);
#1510 = VERTEX_POINT('',#1511);
#1511 = CARTESIAN_POINT('',(0.1,1.1,-0.15));
#1512 = LINE('',#1513,#1514);
#1513 = CARTESIAN_POINT('',(0.1,1.1,-0.15));
#1514 = VECTOR('',#1515,1.);
#1515 = DIRECTION('',(-0.,-1.,-0.));
#1516 = ORIENTED_EDGE('',*,*,#1517,.F.);
#1517 = EDGE_CURVE('',#1479,#1510,#1518,.T.);
#1518 = LINE('',#1519,#1520);
#1519 = CARTESIAN_POINT('',(0.4,1.1,-0.15));
#1520 = VECTOR('',#1521,1.);
#1521 = DIRECTION('',(-1.,0.,0.));
#1522 = ORIENTED_EDGE('',*,*,#1478,.T.);
#1523 = PLANE('',#1524);
#1524 = AXIS2_PLACEMENT_3D('',#1525,#1526,#1527);
#1525 = CARTESIAN_POINT('',(0.4,1.1,-0.15));
#1526 = DIRECTION('',(0.,-0.,1.));
#1527 = DIRECTION('',(1.,0.,0.));
#1528 = ADVANCED_FACE('',(#1529),#1545,.F.);
#1529 = FACE_BOUND('',#1530,.T.);
#1530 = EDGE_LOOP('',(#1531,#1537,#1538,#1544));
#1531 = ORIENTED_EDGE('',*,*,#1532,.T.);
#1532 = EDGE_CURVE('',#1502,#1431,#1533,.T.);
#1533 = LINE('',#1534,#1535);
#1534 = CARTESIAN_POINT('',(0.1,1.09,-0.15));
#1535 = VECTOR('',#1536,1.);
#1536 = DIRECTION('',(1.807003620809E-16,0.,1.));
#1537 = ORIENTED_EDGE('',*,*,#1456,.F.);
#1538 = ORIENTED_EDGE('',*,*,#1539,.F.);
#1539 = EDGE_CURVE('',#1510,#1449,#1540,.T.);
#1540 = LINE('',#1541,#1542);
#1541 = CARTESIAN_POINT('',(0.1,1.1,-0.15));
#1542 = VECTOR('',#1543,1.);
#1543 = DIRECTION('',(1.807003620809E-16,0.,1.));
#1544 = ORIENTED_EDGE('',*,*,#1509,.T.);
#1545 = PLANE('',#1546);
#1546 = AXIS2_PLACEMENT_3D('',#1547,#1548,#1549);
#1547 = CARTESIAN_POINT('',(0.1,1.1,-0.15));
#1548 = DIRECTION('',(1.,0.,-1.807003620809E-16));
#1549 = DIRECTION('',(-1.807003620809E-16,0.,-1.));
#1550 = ADVANCED_FACE('',(#1551),#1557,.T.);
#1551 = FACE_BOUND('',#1552,.T.);
#1552 = EDGE_LOOP('',(#1553,#1554,#1555,#1556));
#1553 = ORIENTED_EDGE('',*,*,#1448,.T.);
#1554 = ORIENTED_EDGE('',*,*,#1486,.T.);
#1555 = ORIENTED_EDGE('',*,*,#1517,.T.);
#1556 = ORIENTED_EDGE('',*,*,#1539,.T.);
#1557 = PLANE('',#1558);
#1558 = AXIS2_PLACEMENT_3D('',#1559,#1560,#1561);
#1559 = CARTESIAN_POINT('',(0.,1.1,0.));
#1560 = DIRECTION('',(-0.,1.,0.));
#1561 = DIRECTION('',(0.,0.,1.));
#1562 = ADVANCED_FACE('',(#1563),#1569,.F.);
#1563 = FACE_BOUND('',#1564,.T.);
#1564 = EDGE_LOOP('',(#1565,#1566,#1567,#1568));
#1565 = ORIENTED_EDGE('',*,*,#1430,.F.);
#1566 = ORIENTED_EDGE('',*,*,#1532,.F.);
#1567 = ORIENTED_EDGE('',*,*,#1501,.F.);
#1568 = ORIENTED_EDGE('',*,*,#1470,.F.);
#1569 = PLANE('',#1570);
#1570 = AXIS2_PLACEMENT_3D('',#1571,#1572,#1573);
#1571 = CARTESIAN_POINT('',(0.,1.09,0.));
#1572 = DIRECTION('',(-0.,1.,0.));
#1573 = DIRECTION('',(0.,0.,1.));
#1574 = ( GEOMETRIC_REPRESENTATION_CONTEXT(3) 
GLOBAL_UNCERTAINTY_ASSIGNED_CONTEXT((#1578)) 
GLOBAL_UNIT_ASSIGNED_CONTEXT((#1575,#1576,#1577)) REPRESENTATION_CONTEXT
('Context #1','3D Context with UNIT and UNCERTAINTY') );
#1575 = ( LENGTH_UNIT() NAMED_UNIT(*) SI_UNIT(.MILLI.,.METRE.) );
#1576 = ( NAMED_UNIT(*) PLANE_ANGLE_UNIT() SI_UNIT($,.RADIAN.) );
#1577 = ( NAMED_UNIT(*) SI_UNIT($,.STERADIAN.) SOLID_ANGLE_UNIT() );
#1578 = UNCERTAINTY_MEASURE_WITH_UNIT(LENGTH_MEASURE(1.E-07),#1575,
  'distance_accuracy_value','confusion accuracy');
#1579 = CONTEXT_DEPENDENT_SHAPE_REPRESENTATION(#1580,#1582);
#1580 = ( REPRESENTATION_RELATIONSHIP('','',#1423,#10) 
REPRESENTATION_RELATIONSHIP_WITH_TRANSFORMATION(#1581) 
SHAPE_REPRESENTATION_RELATIONSHIP() );
#1581 = ITEM_DEFINED_TRANSFORMATION('','',#11,#27);
#1582 = PRODUCT_DEFINITION_SHAPE('Placement','Placement of an item',
  #1583);
#1583 = NEXT_ASSEMBLY_USAGE_OCCURRENCE('4','KP-1608SGC003','',#5,#1418,$
  );
#1584 = PRODUCT_RELATED_PRODUCT_CATEGORY('part',$,(#1420));
#1585 = MECHANICAL_DESIGN_GEOMETRIC_PRESENTATION_REPRESENTATION('',(
    #1586),#1405);
#1586 = STYLED_ITEM('color',(#1587),#647);
#1587 = PRESENTATION_STYLE_ASSIGNMENT((#1588,#1594));
#1588 = SURFACE_STYLE_USAGE(.BOTH.,#1589);
#1589 = SURFACE_SIDE_STYLE('',(#1590));
#1590 = SURFACE_STYLE_FILL_AREA(#1591);
#1591 = FILL_AREA_STYLE('',(#1592));
#1592 = FILL_AREA_STYLE_COLOUR('',#1593);
#1593 = COLOUR_RGB('',1.,1.,0.870588247378);
#1594 = CURVE_STYLE('',#1595,POSITIVE_LENGTH_MEASURE(0.1),#1596);
#1595 = DRAUGHTING_PRE_DEFINED_CURVE_FONT('continuous');
#1596 = COLOUR_RGB('',9.803921802644E-02,9.803921802644E-02,
  9.803921802644E-02);
#1597 = MECHANICAL_DESIGN_GEOMETRIC_PRESENTATION_REPRESENTATION('',(
    #1598),#1574);
#1598 = STYLED_ITEM('color',(#1599),#1424);
#1599 = PRESENTATION_STYLE_ASSIGNMENT((#1600,#1606));
#1600 = SURFACE_STYLE_USAGE(.BOTH.,#1601);
#1601 = SURFACE_SIDE_STYLE('',(#1602));
#1602 = SURFACE_STYLE_FILL_AREA(#1603);
#1603 = FILL_AREA_STYLE('',(#1604));
#1604 = FILL_AREA_STYLE_COLOUR('',#1605);
#1605 = COLOUR_RGB('',0.800000010877,1.,0.);
#1606 = CURVE_STYLE('',#1607,POSITIVE_LENGTH_MEASURE(0.1),#1596);
#1607 = DRAUGHTING_PRE_DEFINED_CURVE_FONT('continuous');
#1608 = MECHANICAL_DESIGN_GEOMETRIC_PRESENTATION_REPRESENTATION('',(
    #1609),#628);
#1609 = STYLED_ITEM('color',(#1610),#346);
#1610 = PRESENTATION_STYLE_ASSIGNMENT((#1611,#1617));
#1611 = SURFACE_STYLE_USAGE(.BOTH.,#1612);
#1612 = SURFACE_SIDE_STYLE('',(#1613));
#1613 = SURFACE_STYLE_FILL_AREA(#1614);
#1614 = FILL_AREA_STYLE('',(#1615));
#1615 = FILL_AREA_STYLE_COLOUR('',#1616);
#1616 = COLOUR_RGB('',0.968627457133,0.878431390252,0.600000020288);
#1617 = CURVE_STYLE('',#1618,POSITIVE_LENGTH_MEASURE(0.1),#1596);
#1618 = DRAUGHTING_PRE_DEFINED_CURVE_FONT('continuous');
#1619 = MECHANICAL_DESIGN_GEOMETRIC_PRESENTATION_REPRESENTATION('',(
    #1620),#327);
#1620 = STYLED_ITEM('color',(#1621),#45);
#1621 = PRESENTATION_STYLE_ASSIGNMENT((#1622,#1627));
#1622 = SURFACE_STYLE_USAGE(.BOTH.,#1623);
#1623 = SURFACE_SIDE_STYLE('',(#1624));
#1624 = SURFACE_STYLE_FILL_AREA(#1625);
#1625 = FILL_AREA_STYLE('',(#1626));
#1626 = FILL_AREA_STYLE_COLOUR('',#1616);
#1627 = CURVE_STYLE('',#1628,POSITIVE_LENGTH_MEASURE(0.1),#1596);
#1628 = DRAUGHTING_PRE_DEFINED_CURVE_FONT('continuous');
ENDSEC;
END-ISO-10303-21;
