ISO-10303-21;
HEADER;
FILE_DESCRIPTION(('FreeCAD Model'),'2;1');
FILE_NAME('Open CASCADE Shape Model','2025-09-24T16:54:26',(''),(''),
  'Open CASCADE STEP processor 7.8','FreeCAD','Unknown');
FILE_SCHEMA(('AUTOMOTIVE_DESIGN { 1 0 10303 214 1 1 1 1 }'));
ENDSEC;
DATA;
#1 = APPLICATION_PROTOCOL_DEFINITION('international standard',
  'automotive_design',2000,#2);
#2 = APPLICATION_CONTEXT(
  'core data for automotive mechanical design processes');
#3 = SHAPE_DEFINITION_REPRESENTATION(#4,#10);
#4 = PRODUCT_DEFINITION_SHAPE('','',#5);
#5 = PRODUCT_DEFINITION('design','',#6,#9);
#6 = PRODUCT_DEFINITION_FORMATION('','',#7);
#7 = PRODUCT('SMAJ30CA-13-F004','SMAJ30CA-13-F004','',(#8));
#8 = PRODUCT_CONTEXT('',#2,'mechanical');
#9 = PRODUCT_DEFINITION_CONTEXT('part definition',#2,'design');
#10 = SHAPE_REPRESENTATION('',(#11,#15,#19,#23,#27),#31);
#11 = AXIS2_PLACEMENT_3D('',#12,#13,#14);
#12 = CARTESIAN_POINT('',(0.,0.,0.));
#13 = DIRECTION('',(0.,0.,1.));
#14 = DIRECTION('',(1.,0.,-0.));
#15 = AXIS2_PLACEMENT_3D('',#16,#17,#18);
#16 = CARTESIAN_POINT('',(0.,0.,0.));
#17 = DIRECTION('',(0.,-1.,1.110223024625E-16));
#18 = DIRECTION('',(1.,0.,0.));
#19 = AXIS2_PLACEMENT_3D('',#20,#21,#22);
#20 = CARTESIAN_POINT('',(0.,0.,0.));
#21 = DIRECTION('',(0.,-1.,1.110223024625E-16));
#22 = DIRECTION('',(1.,0.,0.));
#23 = AXIS2_PLACEMENT_3D('',#24,#25,#26);
#24 = CARTESIAN_POINT('',(0.,0.,0.));
#25 = DIRECTION('',(0.,-1.,1.110223024625E-16));
#26 = DIRECTION('',(1.,0.,0.));
#27 = AXIS2_PLACEMENT_3D('',#28,#29,#30);
#28 = CARTESIAN_POINT('',(0.,0.,0.));
#29 = DIRECTION('',(0.,-1.,1.110223024625E-16));
#30 = DIRECTION('',(1.,0.,0.));
#31 = ( GEOMETRIC_REPRESENTATION_CONTEXT(3) 
GLOBAL_UNCERTAINTY_ASSIGNED_CONTEXT((#35)) GLOBAL_UNIT_ASSIGNED_CONTEXT(
(#32,#33,#34)) REPRESENTATION_CONTEXT('Context #1',
  '3D Context with UNIT and UNCERTAINTY') );
#32 = ( LENGTH_UNIT() NAMED_UNIT(*) SI_UNIT(.MILLI.,.METRE.) );
#33 = ( NAMED_UNIT(*) PLANE_ANGLE_UNIT() SI_UNIT($,.RADIAN.) );
#34 = ( NAMED_UNIT(*) SI_UNIT($,.STERADIAN.) SOLID_ANGLE_UNIT() );
#35 = UNCERTAINTY_MEASURE_WITH_UNIT(LENGTH_MEASURE(1.E-07),#32,
  'distance_accuracy_value','confusion accuracy');
#36 = PRODUCT_RELATED_PRODUCT_CATEGORY('part',$,(#7));
#37 = SHAPE_DEFINITION_REPRESENTATION(#38,#44);
#38 = PRODUCT_DEFINITION_SHAPE('','',#39);
#39 = PRODUCT_DEFINITION('design','',#40,#43);
#40 = PRODUCT_DEFINITION_FORMATION('','',#41);
#41 = PRODUCT('SMAJ30CA-13-F','SMAJ30CA-13-F','',(#42));
#42 = PRODUCT_CONTEXT('',#2,'mechanical');
#43 = PRODUCT_DEFINITION_CONTEXT('part definition',#2,'design');
#44 = ADVANCED_BREP_SHAPE_REPRESENTATION('',(#11,#45),#587);
#45 = MANIFOLD_SOLID_BREP('',#46);
#46 = CLOSED_SHELL('',(#47,#89,#120,#162,#193,#235,#257,#290,#321,#350,
    #374,#396,#413,#430,#447,#471,#500,#517,#534,#546,#558,#575));
#47 = ADVANCED_FACE('',(#48),#84,.T.);
#48 = FACE_BOUND('',#49,.T.);
#49 = EDGE_LOOP('',(#50,#60,#69,#77));
#50 = ORIENTED_EDGE('',*,*,#51,.F.);
#51 = EDGE_CURVE('',#52,#54,#56,.T.);
#52 = VERTEX_POINT('',#53);
#53 = CARTESIAN_POINT('',(-2.3175,1.53,0.725));
#54 = VERTEX_POINT('',#55);
#55 = CARTESIAN_POINT('',(-2.3175,1.3,0.725));
#56 = LINE('',#57,#58);
#57 = CARTESIAN_POINT('',(-2.3175,1.53,0.725));
#58 = VECTOR('',#59,1.);
#59 = DIRECTION('',(0.,-1.,0.));
#60 = ORIENTED_EDGE('',*,*,#61,.T.);
#61 = EDGE_CURVE('',#52,#62,#64,.T.);
#62 = VERTEX_POINT('',#63);
#63 = CARTESIAN_POINT('',(-2.5975,1.25,0.725));
#64 = CIRCLE('',#65,0.28);
#65 = AXIS2_PLACEMENT_3D('',#66,#67,#68);
#66 = CARTESIAN_POINT('',(-2.3175,1.25,0.725));
#67 = DIRECTION('',(0.,0.,1.));
#68 = DIRECTION('',(-1.,0.,0.));
#69 = ORIENTED_EDGE('',*,*,#70,.F.);
#70 = EDGE_CURVE('',#71,#62,#73,.T.);
#71 = VERTEX_POINT('',#72);
#72 = CARTESIAN_POINT('',(-2.3675,1.25,0.725));
#73 = LINE('',#74,#75);
#74 = CARTESIAN_POINT('',(-2.3675,1.25,0.725));
#75 = VECTOR('',#76,1.);
#76 = DIRECTION('',(-1.,0.,0.));
#77 = ORIENTED_EDGE('',*,*,#78,.F.);
#78 = EDGE_CURVE('',#54,#71,#79,.T.);
#79 = CIRCLE('',#80,5.E-02);
#80 = AXIS2_PLACEMENT_3D('',#81,#82,#83);
#81 = CARTESIAN_POINT('',(-2.3175,1.25,0.725));
#82 = DIRECTION('',(0.,0.,1.));
#83 = DIRECTION('',(1.,0.,-0.));
#84 = PLANE('',#85);
#85 = AXIS2_PLACEMENT_3D('',#86,#87,#88);
#86 = CARTESIAN_POINT('',(-2.3175,1.53,0.725));
#87 = DIRECTION('',(0.,0.,1.));
#88 = DIRECTION('',(1.,0.,-0.));
#89 = ADVANCED_FACE('',(#90),#115,.T.);
#90 = FACE_BOUND('',#91,.T.);
#91 = EDGE_LOOP('',(#92,#102,#108,#109));
#92 = ORIENTED_EDGE('',*,*,#93,.F.);
#93 = EDGE_CURVE('',#94,#96,#98,.T.);
#94 = VERTEX_POINT('',#95);
#95 = CARTESIAN_POINT('',(-2.109444794437,1.53,0.725));
#96 = VERTEX_POINT('',#97);
#97 = CARTESIAN_POINT('',(-2.15,1.3,0.725));
#98 = LINE('',#99,#100);
#99 = CARTESIAN_POINT('',(-2.109444794437,1.53,0.725));
#100 = VECTOR('',#101,1.);
#101 = DIRECTION('',(-0.173648177667,-0.984807753012,0.));
#102 = ORIENTED_EDGE('',*,*,#103,.T.);
#103 = EDGE_CURVE('',#94,#52,#104,.T.);
#104 = LINE('',#105,#106);
#105 = CARTESIAN_POINT('',(-2.109444794437,1.53,0.725));
#106 = VECTOR('',#107,1.);
#107 = DIRECTION('',(-1.,0.,0.));
#108 = ORIENTED_EDGE('',*,*,#51,.T.);
#109 = ORIENTED_EDGE('',*,*,#110,.F.);
#110 = EDGE_CURVE('',#96,#54,#111,.T.);
#111 = LINE('',#112,#113);
#112 = CARTESIAN_POINT('',(-2.109444794437,1.3,0.725));
#113 = VECTOR('',#114,1.);
#114 = DIRECTION('',(-1.,0.,-0.));
#115 = PLANE('',#116);
#116 = AXIS2_PLACEMENT_3D('',#117,#118,#119);
#117 = CARTESIAN_POINT('',(-2.3675,1.25,0.725));
#118 = DIRECTION('',(0.,0.,1.));
#119 = DIRECTION('',(1.,0.,-0.));
#120 = ADVANCED_FACE('',(#121),#157,.T.);
#121 = FACE_BOUND('',#122,.T.);
#122 = EDGE_LOOP('',(#123,#133,#142,#150));
#123 = ORIENTED_EDGE('',*,*,#124,.F.);
#124 = EDGE_CURVE('',#125,#127,#129,.T.);
#125 = VERTEX_POINT('',#126);
#126 = CARTESIAN_POINT('',(-2.5975,1.25,-0.725));
#127 = VERTEX_POINT('',#128);
#128 = CARTESIAN_POINT('',(-2.3675,1.25,-0.725));
#129 = LINE('',#130,#131);
#130 = CARTESIAN_POINT('',(-2.5975,1.25,-0.725));
#131 = VECTOR('',#132,1.);
#132 = DIRECTION('',(1.,0.,0.));
#133 = ORIENTED_EDGE('',*,*,#134,.F.);
#134 = EDGE_CURVE('',#135,#125,#137,.T.);
#135 = VERTEX_POINT('',#136);
#136 = CARTESIAN_POINT('',(-2.3175,1.53,-0.725));
#137 = CIRCLE('',#138,0.28);
#138 = AXIS2_PLACEMENT_3D('',#139,#140,#141);
#139 = CARTESIAN_POINT('',(-2.3175,1.25,-0.725));
#140 = DIRECTION('',(0.,0.,1.));
#141 = DIRECTION('',(-1.,0.,0.));
#142 = ORIENTED_EDGE('',*,*,#143,.F.);
#143 = EDGE_CURVE('',#144,#135,#146,.T.);
#144 = VERTEX_POINT('',#145);
#145 = CARTESIAN_POINT('',(-2.3175,1.3,-0.725));
#146 = LINE('',#147,#148);
#147 = CARTESIAN_POINT('',(-2.3175,1.3,-0.725));
#148 = VECTOR('',#149,1.);
#149 = DIRECTION('',(0.,1.,0.));
#150 = ORIENTED_EDGE('',*,*,#151,.T.);
#151 = EDGE_CURVE('',#144,#127,#152,.T.);
#152 = CIRCLE('',#153,5.E-02);
#153 = AXIS2_PLACEMENT_3D('',#154,#155,#156);
#154 = CARTESIAN_POINT('',(-2.3175,1.25,-0.725));
#155 = DIRECTION('',(0.,0.,1.));
#156 = DIRECTION('',(1.,0.,-0.));
#157 = PLANE('',#158);
#158 = AXIS2_PLACEMENT_3D('',#159,#160,#161);
#159 = CARTESIAN_POINT('',(-2.5975,1.25,-0.725));
#160 = DIRECTION('',(-0.,0.,-1.));
#161 = DIRECTION('',(-1.,0.,0.));
#162 = ADVANCED_FACE('',(#163),#188,.T.);
#163 = FACE_BOUND('',#164,.T.);
#164 = EDGE_LOOP('',(#165,#173,#174,#182));
#165 = ORIENTED_EDGE('',*,*,#166,.F.);
#166 = EDGE_CURVE('',#125,#167,#169,.T.);
#167 = VERTEX_POINT('',#168);
#168 = CARTESIAN_POINT('',(-2.5975,0.28,-0.725));
#169 = LINE('',#170,#171);
#170 = CARTESIAN_POINT('',(-2.5975,1.53,-0.725));
#171 = VECTOR('',#172,1.);
#172 = DIRECTION('',(0.,-1.,0.));
#173 = ORIENTED_EDGE('',*,*,#124,.T.);
#174 = ORIENTED_EDGE('',*,*,#175,.T.);
#175 = EDGE_CURVE('',#127,#176,#178,.T.);
#176 = VERTEX_POINT('',#177);
#177 = CARTESIAN_POINT('',(-2.3675,0.28,-0.725));
#178 = LINE('',#179,#180);
#179 = CARTESIAN_POINT('',(-2.3675,1.53,-0.725));
#180 = VECTOR('',#181,1.);
#181 = DIRECTION('',(-0.,-1.,0.));
#182 = ORIENTED_EDGE('',*,*,#183,.T.);
#183 = EDGE_CURVE('',#176,#167,#184,.T.);
#184 = LINE('',#185,#186);
#185 = CARTESIAN_POINT('',(-2.3675,0.28,-0.725));
#186 = VECTOR('',#187,1.);
#187 = DIRECTION('',(-1.,0.,0.));
#188 = PLANE('',#189);
#189 = AXIS2_PLACEMENT_3D('',#190,#191,#192);
#190 = CARTESIAN_POINT('',(-2.3175,1.3,-0.725));
#191 = DIRECTION('',(-0.,0.,-1.));
#192 = DIRECTION('',(-1.,0.,0.));
#193 = ADVANCED_FACE('',(#194),#230,.T.);
#194 = FACE_BOUND('',#195,.T.);
#195 = EDGE_LOOP('',(#196,#206,#215,#223));
#196 = ORIENTED_EDGE('',*,*,#197,.F.);
#197 = EDGE_CURVE('',#198,#200,#202,.T.);
#198 = VERTEX_POINT('',#199);
#199 = CARTESIAN_POINT('',(-2.5975,0.28,0.725));
#200 = VERTEX_POINT('',#201);
#201 = CARTESIAN_POINT('',(-2.3675,0.28,0.725));
#202 = LINE('',#203,#204);
#203 = CARTESIAN_POINT('',(-2.5975,0.28,0.725));
#204 = VECTOR('',#205,1.);
#205 = DIRECTION('',(1.,0.,0.));
#206 = ORIENTED_EDGE('',*,*,#207,.T.);
#207 = EDGE_CURVE('',#198,#208,#210,.T.);
#208 = VERTEX_POINT('',#209);
#209 = CARTESIAN_POINT('',(-2.3175,0.,0.725));
#210 = CIRCLE('',#211,0.28);
#211 = AXIS2_PLACEMENT_3D('',#212,#213,#214);
#212 = CARTESIAN_POINT('',(-2.3175,0.28,0.725));
#213 = DIRECTION('',(0.,-0.,1.));
#214 = DIRECTION('',(-1.,0.,0.));
#215 = ORIENTED_EDGE('',*,*,#216,.F.);
#216 = EDGE_CURVE('',#217,#208,#219,.T.);
#217 = VERTEX_POINT('',#218);
#218 = CARTESIAN_POINT('',(-2.3175,0.23,0.725));
#219 = LINE('',#220,#221);
#220 = CARTESIAN_POINT('',(-2.3175,0.23,0.725));
#221 = VECTOR('',#222,1.);
#222 = DIRECTION('',(0.,-1.,0.));
#223 = ORIENTED_EDGE('',*,*,#224,.F.);
#224 = EDGE_CURVE('',#200,#217,#225,.T.);
#225 = CIRCLE('',#226,5.E-02);
#226 = AXIS2_PLACEMENT_3D('',#227,#228,#229);
#227 = CARTESIAN_POINT('',(-2.3175,0.28,0.725));
#228 = DIRECTION('',(0.,0.,1.));
#229 = DIRECTION('',(1.,0.,-0.));
#230 = PLANE('',#231);
#231 = AXIS2_PLACEMENT_3D('',#232,#233,#234);
#232 = CARTESIAN_POINT('',(-2.5975,0.28,0.725));
#233 = DIRECTION('',(0.,0.,1.));
#234 = DIRECTION('',(1.,0.,-0.));
#235 = ADVANCED_FACE('',(#236),#252,.T.);
#236 = FACE_BOUND('',#237,.T.);
#237 = EDGE_LOOP('',(#238,#244,#245,#251));
#238 = ORIENTED_EDGE('',*,*,#239,.T.);
#239 = EDGE_CURVE('',#62,#198,#240,.T.);
#240 = LINE('',#241,#242);
#241 = CARTESIAN_POINT('',(-2.5975,1.53,0.725));
#242 = VECTOR('',#243,1.);
#243 = DIRECTION('',(0.,-1.,0.));
#244 = ORIENTED_EDGE('',*,*,#197,.T.);
#245 = ORIENTED_EDGE('',*,*,#246,.F.);
#246 = EDGE_CURVE('',#71,#200,#247,.T.);
#247 = LINE('',#248,#249);
#248 = CARTESIAN_POINT('',(-2.3675,1.53,0.725));
#249 = VECTOR('',#250,1.);
#250 = DIRECTION('',(-0.,-1.,0.));
#251 = ORIENTED_EDGE('',*,*,#70,.T.);
#252 = PLANE('',#253);
#253 = AXIS2_PLACEMENT_3D('',#254,#255,#256);
#254 = CARTESIAN_POINT('',(-2.3175,0.23,0.725));
#255 = DIRECTION('',(0.,0.,1.));
#256 = DIRECTION('',(1.,0.,-0.));
#257 = ADVANCED_FACE('',(#258),#285,.T.);
#258 = FACE_BOUND('',#259,.T.);
#259 = EDGE_LOOP('',(#260,#270,#277,#278));
#260 = ORIENTED_EDGE('',*,*,#261,.F.);
#261 = EDGE_CURVE('',#262,#264,#266,.T.);
#262 = VERTEX_POINT('',#263);
#263 = CARTESIAN_POINT('',(-2.3175,0.,-0.725));
#264 = VERTEX_POINT('',#265);
#265 = CARTESIAN_POINT('',(-2.3175,0.23,-0.725));
#266 = LINE('',#267,#268);
#267 = CARTESIAN_POINT('',(-2.3175,0.,-0.725));
#268 = VECTOR('',#269,1.);
#269 = DIRECTION('',(0.,1.,0.));
#270 = ORIENTED_EDGE('',*,*,#271,.F.);
#271 = EDGE_CURVE('',#167,#262,#272,.T.);
#272 = CIRCLE('',#273,0.28);
#273 = AXIS2_PLACEMENT_3D('',#274,#275,#276);
#274 = CARTESIAN_POINT('',(-2.3175,0.28,-0.725));
#275 = DIRECTION('',(0.,-0.,1.));
#276 = DIRECTION('',(-1.,0.,0.));
#277 = ORIENTED_EDGE('',*,*,#183,.F.);
#278 = ORIENTED_EDGE('',*,*,#279,.T.);
#279 = EDGE_CURVE('',#176,#264,#280,.T.);
#280 = CIRCLE('',#281,5.E-02);
#281 = AXIS2_PLACEMENT_3D('',#282,#283,#284);
#282 = CARTESIAN_POINT('',(-2.3175,0.28,-0.725));
#283 = DIRECTION('',(0.,0.,1.));
#284 = DIRECTION('',(1.,0.,-0.));
#285 = PLANE('',#286);
#286 = AXIS2_PLACEMENT_3D('',#287,#288,#289);
#287 = CARTESIAN_POINT('',(-2.3175,0.,-0.725));
#288 = DIRECTION('',(-0.,0.,-1.));
#289 = DIRECTION('',(-1.,0.,0.));
#290 = ADVANCED_FACE('',(#291),#316,.T.);
#291 = FACE_BOUND('',#292,.T.);
#292 = EDGE_LOOP('',(#293,#301,#302,#310));
#293 = ORIENTED_EDGE('',*,*,#294,.F.);
#294 = EDGE_CURVE('',#262,#295,#297,.T.);
#295 = VERTEX_POINT('',#296);
#296 = CARTESIAN_POINT('',(-1.4575,0.,-0.725));
#297 = LINE('',#298,#299);
#298 = CARTESIAN_POINT('',(-2.5975,0.,-0.725));
#299 = VECTOR('',#300,1.);
#300 = DIRECTION('',(1.,0.,0.));
#301 = ORIENTED_EDGE('',*,*,#261,.T.);
#302 = ORIENTED_EDGE('',*,*,#303,.T.);
#303 = EDGE_CURVE('',#264,#304,#306,.T.);
#304 = VERTEX_POINT('',#305);
#305 = CARTESIAN_POINT('',(-1.4575,0.23,-0.725));
#306 = LINE('',#307,#308);
#307 = CARTESIAN_POINT('',(-2.5975,0.23,-0.725));
#308 = VECTOR('',#309,1.);
#309 = DIRECTION('',(1.,0.,0.));
#310 = ORIENTED_EDGE('',*,*,#311,.T.);
#311 = EDGE_CURVE('',#304,#295,#312,.T.);
#312 = LINE('',#313,#314);
#313 = CARTESIAN_POINT('',(-1.4575,0.23,-0.725));
#314 = VECTOR('',#315,1.);
#315 = DIRECTION('',(0.,-1.,0.));
#316 = PLANE('',#317);
#317 = AXIS2_PLACEMENT_3D('',#318,#319,#320);
#318 = CARTESIAN_POINT('',(-2.3675,0.28,-0.725));
#319 = DIRECTION('',(-0.,0.,-1.));
#320 = DIRECTION('',(-1.,0.,0.));
#321 = ADVANCED_FACE('',(#322),#345,.F.);
#322 = FACE_BOUND('',#323,.T.);
#323 = EDGE_LOOP('',(#324,#325,#333,#339));
#324 = ORIENTED_EDGE('',*,*,#294,.T.);
#325 = ORIENTED_EDGE('',*,*,#326,.F.);
#326 = EDGE_CURVE('',#327,#295,#329,.T.);
#327 = VERTEX_POINT('',#328);
#328 = CARTESIAN_POINT('',(-1.4575,0.,0.725));
#329 = LINE('',#330,#331);
#330 = CARTESIAN_POINT('',(-1.4575,0.,0.725));
#331 = VECTOR('',#332,1.);
#332 = DIRECTION('',(-0.,-0.,-1.));
#333 = ORIENTED_EDGE('',*,*,#334,.F.);
#334 = EDGE_CURVE('',#208,#327,#335,.T.);
#335 = LINE('',#336,#337);
#336 = CARTESIAN_POINT('',(-2.5975,0.,0.725));
#337 = VECTOR('',#338,1.);
#338 = DIRECTION('',(1.,0.,0.));
#339 = ORIENTED_EDGE('',*,*,#340,.T.);
#340 = EDGE_CURVE('',#208,#262,#341,.T.);
#341 = LINE('',#342,#343);
#342 = CARTESIAN_POINT('',(-2.3175,0.,0.725));
#343 = VECTOR('',#344,1.);
#344 = DIRECTION('',(-0.,-0.,-1.));
#345 = PLANE('',#346);
#346 = AXIS2_PLACEMENT_3D('',#347,#348,#349);
#347 = CARTESIAN_POINT('',(-2.5975,0.,0.725));
#348 = DIRECTION('',(0.,1.,0.));
#349 = DIRECTION('',(0.,-0.,1.));
#350 = ADVANCED_FACE('',(#351),#369,.T.);
#351 = FACE_BOUND('',#352,.T.);
#352 = EDGE_LOOP('',(#353,#354,#362,#368));
#353 = ORIENTED_EDGE('',*,*,#311,.F.);
#354 = ORIENTED_EDGE('',*,*,#355,.F.);
#355 = EDGE_CURVE('',#356,#304,#358,.T.);
#356 = VERTEX_POINT('',#357);
#357 = CARTESIAN_POINT('',(-1.4575,0.23,0.725));
#358 = LINE('',#359,#360);
#359 = CARTESIAN_POINT('',(-1.4575,0.23,0.725));
#360 = VECTOR('',#361,1.);
#361 = DIRECTION('',(-0.,-0.,-1.));
#362 = ORIENTED_EDGE('',*,*,#363,.T.);
#363 = EDGE_CURVE('',#356,#327,#364,.T.);
#364 = LINE('',#365,#366);
#365 = CARTESIAN_POINT('',(-1.4575,0.23,0.725));
#366 = VECTOR('',#367,1.);
#367 = DIRECTION('',(0.,-1.,0.));
#368 = ORIENTED_EDGE('',*,*,#326,.T.);
#369 = PLANE('',#370);
#370 = AXIS2_PLACEMENT_3D('',#371,#372,#373);
#371 = CARTESIAN_POINT('',(-1.4575,0.23,0.725));
#372 = DIRECTION('',(1.,0.,-0.));
#373 = DIRECTION('',(-0.,0.,-1.));
#374 = ADVANCED_FACE('',(#375),#391,.T.);
#375 = FACE_BOUND('',#376,.T.);
#376 = EDGE_LOOP('',(#377,#378,#384,#390));
#377 = ORIENTED_EDGE('',*,*,#303,.F.);
#378 = ORIENTED_EDGE('',*,*,#379,.F.);
#379 = EDGE_CURVE('',#217,#264,#380,.T.);
#380 = LINE('',#381,#382);
#381 = CARTESIAN_POINT('',(-2.3175,0.23,0.725));
#382 = VECTOR('',#383,1.);
#383 = DIRECTION('',(-0.,-0.,-1.));
#384 = ORIENTED_EDGE('',*,*,#385,.T.);
#385 = EDGE_CURVE('',#217,#356,#386,.T.);
#386 = LINE('',#387,#388);
#387 = CARTESIAN_POINT('',(-2.5975,0.23,0.725));
#388 = VECTOR('',#389,1.);
#389 = DIRECTION('',(1.,0.,0.));
#390 = ORIENTED_EDGE('',*,*,#355,.T.);
#391 = PLANE('',#392);
#392 = AXIS2_PLACEMENT_3D('',#393,#394,#395);
#393 = CARTESIAN_POINT('',(-2.5975,0.23,0.725));
#394 = DIRECTION('',(0.,1.,0.));
#395 = DIRECTION('',(0.,-0.,1.));
#396 = ADVANCED_FACE('',(#397),#408,.F.);
#397 = FACE_BOUND('',#398,.F.);
#398 = EDGE_LOOP('',(#399,#400,#401,#407));
#399 = ORIENTED_EDGE('',*,*,#379,.F.);
#400 = ORIENTED_EDGE('',*,*,#224,.F.);
#401 = ORIENTED_EDGE('',*,*,#402,.T.);
#402 = EDGE_CURVE('',#200,#176,#403,.T.);
#403 = LINE('',#404,#405);
#404 = CARTESIAN_POINT('',(-2.3675,0.28,0.725));
#405 = VECTOR('',#406,1.);
#406 = DIRECTION('',(-0.,-0.,-1.));
#407 = ORIENTED_EDGE('',*,*,#279,.T.);
#408 = CYLINDRICAL_SURFACE('',#409,5.E-02);
#409 = AXIS2_PLACEMENT_3D('',#410,#411,#412);
#410 = CARTESIAN_POINT('',(-2.3175,0.28,0.725));
#411 = DIRECTION('',(-0.,-0.,-1.));
#412 = DIRECTION('',(-1.,0.,0.));
#413 = ADVANCED_FACE('',(#414),#425,.T.);
#414 = FACE_BOUND('',#415,.T.);
#415 = EDGE_LOOP('',(#416,#417,#423,#424));
#416 = ORIENTED_EDGE('',*,*,#175,.F.);
#417 = ORIENTED_EDGE('',*,*,#418,.F.);
#418 = EDGE_CURVE('',#71,#127,#419,.T.);
#419 = LINE('',#420,#421);
#420 = CARTESIAN_POINT('',(-2.3675,1.25,0.725));
#421 = VECTOR('',#422,1.);
#422 = DIRECTION('',(-0.,-0.,-1.));
#423 = ORIENTED_EDGE('',*,*,#246,.T.);
#424 = ORIENTED_EDGE('',*,*,#402,.T.);
#425 = PLANE('',#426);
#426 = AXIS2_PLACEMENT_3D('',#427,#428,#429);
#427 = CARTESIAN_POINT('',(-2.3675,1.53,0.725));
#428 = DIRECTION('',(1.,0.,-0.));
#429 = DIRECTION('',(-0.,0.,-1.));
#430 = ADVANCED_FACE('',(#431),#442,.F.);
#431 = FACE_BOUND('',#432,.F.);
#432 = EDGE_LOOP('',(#433,#434,#435,#441));
#433 = ORIENTED_EDGE('',*,*,#418,.F.);
#434 = ORIENTED_EDGE('',*,*,#78,.F.);
#435 = ORIENTED_EDGE('',*,*,#436,.T.);
#436 = EDGE_CURVE('',#54,#144,#437,.T.);
#437 = LINE('',#438,#439);
#438 = CARTESIAN_POINT('',(-2.3175,1.3,0.725));
#439 = VECTOR('',#440,1.);
#440 = DIRECTION('',(-0.,-0.,-1.));
#441 = ORIENTED_EDGE('',*,*,#151,.T.);
#442 = CYLINDRICAL_SURFACE('',#443,5.E-02);
#443 = AXIS2_PLACEMENT_3D('',#444,#445,#446);
#444 = CARTESIAN_POINT('',(-2.3175,1.25,0.725));
#445 = DIRECTION('',(-0.,-0.,-1.));
#446 = DIRECTION('',(-1.,0.,0.));
#447 = ADVANCED_FACE('',(#448),#466,.T.);
#448 = FACE_BOUND('',#449,.T.);
#449 = EDGE_LOOP('',(#450,#458,#459,#460));
#450 = ORIENTED_EDGE('',*,*,#451,.T.);
#451 = EDGE_CURVE('',#452,#96,#454,.T.);
#452 = VERTEX_POINT('',#453);
#453 = CARTESIAN_POINT('',(-2.15,1.3,-0.725));
#454 = LINE('',#455,#456);
#455 = CARTESIAN_POINT('',(-2.15,1.3,-1.3025));
#456 = VECTOR('',#457,1.);
#457 = DIRECTION('',(-0.,-0.,1.));
#458 = ORIENTED_EDGE('',*,*,#110,.T.);
#459 = ORIENTED_EDGE('',*,*,#436,.T.);
#460 = ORIENTED_EDGE('',*,*,#461,.F.);
#461 = EDGE_CURVE('',#452,#144,#462,.T.);
#462 = LINE('',#463,#464);
#463 = CARTESIAN_POINT('',(-2.109444794437,1.3,-0.725));
#464 = VECTOR('',#465,1.);
#465 = DIRECTION('',(-1.,0.,-0.));
#466 = PLANE('',#467);
#467 = AXIS2_PLACEMENT_3D('',#468,#469,#470);
#468 = CARTESIAN_POINT('',(-2.109444794437,1.3,0.725));
#469 = DIRECTION('',(0.,-1.,0.));
#470 = DIRECTION('',(0.,-0.,-1.));
#471 = ADVANCED_FACE('',(#472),#495,.F.);
#472 = FACE_BOUND('',#473,.T.);
#473 = EDGE_LOOP('',(#474,#482,#488,#489));
#474 = ORIENTED_EDGE('',*,*,#475,.T.);
#475 = EDGE_CURVE('',#476,#135,#478,.T.);
#476 = VERTEX_POINT('',#477);
#477 = CARTESIAN_POINT('',(-2.109444794437,1.53,-0.725));
#478 = LINE('',#479,#480);
#479 = CARTESIAN_POINT('',(-2.109444794437,1.53,-0.725));
#480 = VECTOR('',#481,1.);
#481 = DIRECTION('',(-1.,0.,0.));
#482 = ORIENTED_EDGE('',*,*,#483,.F.);
#483 = EDGE_CURVE('',#52,#135,#484,.T.);
#484 = LINE('',#485,#486);
#485 = CARTESIAN_POINT('',(-2.3175,1.53,0.725));
#486 = VECTOR('',#487,1.);
#487 = DIRECTION('',(-0.,-0.,-1.));
#488 = ORIENTED_EDGE('',*,*,#103,.F.);
#489 = ORIENTED_EDGE('',*,*,#490,.T.);
#490 = EDGE_CURVE('',#94,#476,#491,.T.);
#491 = LINE('',#492,#493);
#492 = CARTESIAN_POINT('',(-2.109444794437,1.53,0.725));
#493 = VECTOR('',#494,1.);
#494 = DIRECTION('',(-0.,-0.,-1.));
#495 = PLANE('',#496);
#496 = AXIS2_PLACEMENT_3D('',#497,#498,#499);
#497 = CARTESIAN_POINT('',(-2.109444794437,1.53,0.725));
#498 = DIRECTION('',(0.,-1.,0.));
#499 = DIRECTION('',(0.,-0.,-1.));
#500 = ADVANCED_FACE('',(#501),#512,.T.);
#501 = FACE_BOUND('',#502,.T.);
#502 = EDGE_LOOP('',(#503,#504,#510,#511));
#503 = ORIENTED_EDGE('',*,*,#134,.T.);
#504 = ORIENTED_EDGE('',*,*,#505,.F.);
#505 = EDGE_CURVE('',#62,#125,#506,.T.);
#506 = LINE('',#507,#508);
#507 = CARTESIAN_POINT('',(-2.5975,1.25,0.725));
#508 = VECTOR('',#509,1.);
#509 = DIRECTION('',(-0.,-0.,-1.));
#510 = ORIENTED_EDGE('',*,*,#61,.F.);
#511 = ORIENTED_EDGE('',*,*,#483,.T.);
#512 = CYLINDRICAL_SURFACE('',#513,0.28);
#513 = AXIS2_PLACEMENT_3D('',#514,#515,#516);
#514 = CARTESIAN_POINT('',(-2.3175,1.25,0.725));
#515 = DIRECTION('',(-0.,-0.,-1.));
#516 = DIRECTION('',(-1.,0.,0.));
#517 = ADVANCED_FACE('',(#518),#529,.F.);
#518 = FACE_BOUND('',#519,.T.);
#519 = EDGE_LOOP('',(#520,#521,#527,#528));
#520 = ORIENTED_EDGE('',*,*,#166,.T.);
#521 = ORIENTED_EDGE('',*,*,#522,.F.);
#522 = EDGE_CURVE('',#198,#167,#523,.T.);
#523 = LINE('',#524,#525);
#524 = CARTESIAN_POINT('',(-2.5975,0.28,0.725));
#525 = VECTOR('',#526,1.);
#526 = DIRECTION('',(-0.,-0.,-1.));
#527 = ORIENTED_EDGE('',*,*,#239,.F.);
#528 = ORIENTED_EDGE('',*,*,#505,.T.);
#529 = PLANE('',#530);
#530 = AXIS2_PLACEMENT_3D('',#531,#532,#533);
#531 = CARTESIAN_POINT('',(-2.5975,1.53,0.725));
#532 = DIRECTION('',(1.,0.,-0.));
#533 = DIRECTION('',(-0.,0.,-1.));
#534 = ADVANCED_FACE('',(#535),#541,.T.);
#535 = FACE_BOUND('',#536,.T.);
#536 = EDGE_LOOP('',(#537,#538,#539,#540));
#537 = ORIENTED_EDGE('',*,*,#271,.T.);
#538 = ORIENTED_EDGE('',*,*,#340,.F.);
#539 = ORIENTED_EDGE('',*,*,#207,.F.);
#540 = ORIENTED_EDGE('',*,*,#522,.T.);
#541 = CYLINDRICAL_SURFACE('',#542,0.28);
#542 = AXIS2_PLACEMENT_3D('',#543,#544,#545);
#543 = CARTESIAN_POINT('',(-2.3175,0.28,0.725));
#544 = DIRECTION('',(-0.,-0.,-1.));
#545 = DIRECTION('',(-1.,0.,0.));
#546 = ADVANCED_FACE('',(#547),#553,.T.);
#547 = FACE_BOUND('',#548,.T.);
#548 = EDGE_LOOP('',(#549,#550,#551,#552));
#549 = ORIENTED_EDGE('',*,*,#334,.T.);
#550 = ORIENTED_EDGE('',*,*,#363,.F.);
#551 = ORIENTED_EDGE('',*,*,#385,.F.);
#552 = ORIENTED_EDGE('',*,*,#216,.T.);
#553 = PLANE('',#554);
#554 = AXIS2_PLACEMENT_3D('',#555,#556,#557);
#555 = CARTESIAN_POINT('',(-2.3175,0.28,0.725));
#556 = DIRECTION('',(0.,0.,1.));
#557 = DIRECTION('',(1.,0.,-0.));
#558 = ADVANCED_FACE('',(#559),#570,.F.);
#559 = FACE_BOUND('',#560,.T.);
#560 = EDGE_LOOP('',(#561,#562,#568,#569));
#561 = ORIENTED_EDGE('',*,*,#475,.F.);
#562 = ORIENTED_EDGE('',*,*,#563,.T.);
#563 = EDGE_CURVE('',#476,#452,#564,.T.);
#564 = LINE('',#565,#566);
#565 = CARTESIAN_POINT('',(-2.329481016105,0.282112576396,-0.725));
#566 = VECTOR('',#567,1.);
#567 = DIRECTION('',(-0.173648177667,-0.984807753012,0.));
#568 = ORIENTED_EDGE('',*,*,#461,.T.);
#569 = ORIENTED_EDGE('',*,*,#143,.T.);
#570 = PLANE('',#571);
#571 = AXIS2_PLACEMENT_3D('',#572,#573,#574);
#572 = CARTESIAN_POINT('',(-2.3175,0.28,-0.725));
#573 = DIRECTION('',(0.,0.,1.));
#574 = DIRECTION('',(1.,0.,-0.));
#575 = ADVANCED_FACE('',(#576),#582,.F.);
#576 = FACE_BOUND('',#577,.T.);
#577 = EDGE_LOOP('',(#578,#579,#580,#581));
#578 = ORIENTED_EDGE('',*,*,#490,.F.);
#579 = ORIENTED_EDGE('',*,*,#93,.T.);
#580 = ORIENTED_EDGE('',*,*,#451,.F.);
#581 = ORIENTED_EDGE('',*,*,#563,.F.);
#582 = PLANE('',#583);
#583 = AXIS2_PLACEMENT_3D('',#584,#585,#586);
#584 = CARTESIAN_POINT('',(-2.109444794437,1.53,-1.3025));
#585 = DIRECTION('',(-0.984807753012,0.173648177667,0.));
#586 = DIRECTION('',(-0.173648177667,-0.984807753012,0.));
#587 = ( GEOMETRIC_REPRESENTATION_CONTEXT(3) 
GLOBAL_UNCERTAINTY_ASSIGNED_CONTEXT((#591)) GLOBAL_UNIT_ASSIGNED_CONTEXT
((#588,#589,#590)) REPRESENTATION_CONTEXT('Context #1',
  '3D Context with UNIT and UNCERTAINTY') );
#588 = ( LENGTH_UNIT() NAMED_UNIT(*) SI_UNIT(.MILLI.,.METRE.) );
#589 = ( NAMED_UNIT(*) PLANE_ANGLE_UNIT() SI_UNIT($,.RADIAN.) );
#590 = ( NAMED_UNIT(*) SI_UNIT($,.STERADIAN.) SOLID_ANGLE_UNIT() );
#591 = UNCERTAINTY_MEASURE_WITH_UNIT(LENGTH_MEASURE(1.E-07),#588,
  'distance_accuracy_value','confusion accuracy');
#592 = CONTEXT_DEPENDENT_SHAPE_REPRESENTATION(#593,#595);
#593 = ( REPRESENTATION_RELATIONSHIP('','',#44,#10) 
REPRESENTATION_RELATIONSHIP_WITH_TRANSFORMATION(#594) 
SHAPE_REPRESENTATION_RELATIONSHIP() );
#594 = ITEM_DEFINED_TRANSFORMATION('','',#11,#15);
#595 = PRODUCT_DEFINITION_SHAPE('Placement','Placement of an item',#596
  );
#596 = NEXT_ASSEMBLY_USAGE_OCCURRENCE('1','=>[0:1:1:1]','',#5,#39,$);
#597 = PRODUCT_RELATED_PRODUCT_CATEGORY('part',$,(#41));
#598 = SHAPE_DEFINITION_REPRESENTATION(#599,#605);
#599 = PRODUCT_DEFINITION_SHAPE('','',#600);
#600 = PRODUCT_DEFINITION('design','',#601,#604);
#601 = PRODUCT_DEFINITION_FORMATION('','',#602);
#602 = PRODUCT('SMAJ30CA-13-F001','SMAJ30CA-13-F001','',(#603));
#603 = PRODUCT_CONTEXT('',#2,'mechanical');
#604 = PRODUCT_DEFINITION_CONTEXT('part definition',#2,'design');
#605 = ADVANCED_BREP_SHAPE_REPRESENTATION('',(#11,#606),#1148);
#606 = MANIFOLD_SOLID_BREP('',#607);
#607 = CLOSED_SHELL('',(#608,#650,#681,#723,#754,#796,#818,#851,#882,
    #911,#935,#957,#974,#991,#1008,#1032,#1061,#1078,#1095,#1107,#1119,
    #1136));
#608 = ADVANCED_FACE('',(#609),#645,.T.);
#609 = FACE_BOUND('',#610,.T.);
#610 = EDGE_LOOP('',(#611,#621,#630,#638));
#611 = ORIENTED_EDGE('',*,*,#612,.T.);
#612 = EDGE_CURVE('',#613,#615,#617,.T.);
#613 = VERTEX_POINT('',#614);
#614 = CARTESIAN_POINT('',(2.3175,1.53,0.725));
#615 = VERTEX_POINT('',#616);
#616 = CARTESIAN_POINT('',(2.3175,1.3,0.725));
#617 = LINE('',#618,#619);
#618 = CARTESIAN_POINT('',(2.3175,1.53,0.725));
#619 = VECTOR('',#620,1.);
#620 = DIRECTION('',(0.,-1.,0.));
#621 = ORIENTED_EDGE('',*,*,#622,.T.);
#622 = EDGE_CURVE('',#615,#623,#625,.T.);
#623 = VERTEX_POINT('',#624);
#624 = CARTESIAN_POINT('',(2.3675,1.25,0.725));
#625 = CIRCLE('',#626,5.E-02);
#626 = AXIS2_PLACEMENT_3D('',#627,#628,#629);
#627 = CARTESIAN_POINT('',(2.3175,1.25,0.725));
#628 = DIRECTION('',(-0.,0.,-1.));
#629 = DIRECTION('',(-1.,0.,0.));
#630 = ORIENTED_EDGE('',*,*,#631,.T.);
#631 = EDGE_CURVE('',#623,#632,#634,.T.);
#632 = VERTEX_POINT('',#633);
#633 = CARTESIAN_POINT('',(2.5975,1.25,0.725));
#634 = LINE('',#635,#636);
#635 = CARTESIAN_POINT('',(2.3675,1.25,0.725));
#636 = VECTOR('',#637,1.);
#637 = DIRECTION('',(1.,0.,0.));
#638 = ORIENTED_EDGE('',*,*,#639,.F.);
#639 = EDGE_CURVE('',#613,#632,#640,.T.);
#640 = CIRCLE('',#641,0.28);
#641 = AXIS2_PLACEMENT_3D('',#642,#643,#644);
#642 = CARTESIAN_POINT('',(2.3175,1.25,0.725));
#643 = DIRECTION('',(0.,0.,-1.));
#644 = DIRECTION('',(1.,0.,0.));
#645 = PLANE('',#646);
#646 = AXIS2_PLACEMENT_3D('',#647,#648,#649);
#647 = CARTESIAN_POINT('',(2.3175,1.53,0.725));
#648 = DIRECTION('',(0.,0.,1.));
#649 = DIRECTION('',(-1.,0.,0.));
#650 = ADVANCED_FACE('',(#651),#676,.T.);
#651 = FACE_BOUND('',#652,.T.);
#652 = EDGE_LOOP('',(#653,#663,#669,#670));
#653 = ORIENTED_EDGE('',*,*,#654,.T.);
#654 = EDGE_CURVE('',#655,#657,#659,.T.);
#655 = VERTEX_POINT('',#656);
#656 = CARTESIAN_POINT('',(2.109444794437,1.53,0.725));
#657 = VERTEX_POINT('',#658);
#658 = CARTESIAN_POINT('',(2.15,1.3,0.725));
#659 = LINE('',#660,#661);
#660 = CARTESIAN_POINT('',(2.109444794437,1.53,0.725));
#661 = VECTOR('',#662,1.);
#662 = DIRECTION('',(0.173648177667,-0.984807753012,0.));
#663 = ORIENTED_EDGE('',*,*,#664,.T.);
#664 = EDGE_CURVE('',#657,#615,#665,.T.);
#665 = LINE('',#666,#667);
#666 = CARTESIAN_POINT('',(2.109444794437,1.3,0.725));
#667 = VECTOR('',#668,1.);
#668 = DIRECTION('',(1.,-0.,-0.));
#669 = ORIENTED_EDGE('',*,*,#612,.F.);
#670 = ORIENTED_EDGE('',*,*,#671,.F.);
#671 = EDGE_CURVE('',#655,#613,#672,.T.);
#672 = LINE('',#673,#674);
#673 = CARTESIAN_POINT('',(2.109444794437,1.53,0.725));
#674 = VECTOR('',#675,1.);
#675 = DIRECTION('',(1.,0.,0.));
#676 = PLANE('',#677);
#677 = AXIS2_PLACEMENT_3D('',#678,#679,#680);
#678 = CARTESIAN_POINT('',(2.3675,1.25,0.725));
#679 = DIRECTION('',(0.,0.,1.));
#680 = DIRECTION('',(-1.,0.,0.));
#681 = ADVANCED_FACE('',(#682),#718,.T.);
#682 = FACE_BOUND('',#683,.T.);
#683 = EDGE_LOOP('',(#684,#694,#703,#711));
#684 = ORIENTED_EDGE('',*,*,#685,.T.);
#685 = EDGE_CURVE('',#686,#688,#690,.T.);
#686 = VERTEX_POINT('',#687);
#687 = CARTESIAN_POINT('',(2.5975,1.25,-0.725));
#688 = VERTEX_POINT('',#689);
#689 = CARTESIAN_POINT('',(2.3675,1.25,-0.725));
#690 = LINE('',#691,#692);
#691 = CARTESIAN_POINT('',(2.5975,1.25,-0.725));
#692 = VECTOR('',#693,1.);
#693 = DIRECTION('',(-1.,0.,0.));
#694 = ORIENTED_EDGE('',*,*,#695,.F.);
#695 = EDGE_CURVE('',#696,#688,#698,.T.);
#696 = VERTEX_POINT('',#697);
#697 = CARTESIAN_POINT('',(2.3175,1.3,-0.725));
#698 = CIRCLE('',#699,5.E-02);
#699 = AXIS2_PLACEMENT_3D('',#700,#701,#702);
#700 = CARTESIAN_POINT('',(2.3175,1.25,-0.725));
#701 = DIRECTION('',(-0.,0.,-1.));
#702 = DIRECTION('',(-1.,0.,0.));
#703 = ORIENTED_EDGE('',*,*,#704,.T.);
#704 = EDGE_CURVE('',#696,#705,#707,.T.);
#705 = VERTEX_POINT('',#706);
#706 = CARTESIAN_POINT('',(2.3175,1.53,-0.725));
#707 = LINE('',#708,#709);
#708 = CARTESIAN_POINT('',(2.3175,1.3,-0.725));
#709 = VECTOR('',#710,1.);
#710 = DIRECTION('',(0.,1.,0.));
#711 = ORIENTED_EDGE('',*,*,#712,.T.);
#712 = EDGE_CURVE('',#705,#686,#713,.T.);
#713 = CIRCLE('',#714,0.28);
#714 = AXIS2_PLACEMENT_3D('',#715,#716,#717);
#715 = CARTESIAN_POINT('',(2.3175,1.25,-0.725));
#716 = DIRECTION('',(0.,0.,-1.));
#717 = DIRECTION('',(1.,0.,0.));
#718 = PLANE('',#719);
#719 = AXIS2_PLACEMENT_3D('',#720,#721,#722);
#720 = CARTESIAN_POINT('',(2.5975,1.25,-0.725));
#721 = DIRECTION('',(0.,0.,-1.));
#722 = DIRECTION('',(1.,0.,0.));
#723 = ADVANCED_FACE('',(#724),#749,.T.);
#724 = FACE_BOUND('',#725,.T.);
#725 = EDGE_LOOP('',(#726,#734,#742,#748));
#726 = ORIENTED_EDGE('',*,*,#727,.T.);
#727 = EDGE_CURVE('',#686,#728,#730,.T.);
#728 = VERTEX_POINT('',#729);
#729 = CARTESIAN_POINT('',(2.5975,0.28,-0.725));
#730 = LINE('',#731,#732);
#731 = CARTESIAN_POINT('',(2.5975,1.53,-0.725));
#732 = VECTOR('',#733,1.);
#733 = DIRECTION('',(0.,-1.,0.));
#734 = ORIENTED_EDGE('',*,*,#735,.F.);
#735 = EDGE_CURVE('',#736,#728,#738,.T.);
#736 = VERTEX_POINT('',#737);
#737 = CARTESIAN_POINT('',(2.3675,0.28,-0.725));
#738 = LINE('',#739,#740);
#739 = CARTESIAN_POINT('',(2.3675,0.28,-0.725));
#740 = VECTOR('',#741,1.);
#741 = DIRECTION('',(1.,0.,0.));
#742 = ORIENTED_EDGE('',*,*,#743,.F.);
#743 = EDGE_CURVE('',#688,#736,#744,.T.);
#744 = LINE('',#745,#746);
#745 = CARTESIAN_POINT('',(2.3675,1.53,-0.725));
#746 = VECTOR('',#747,1.);
#747 = DIRECTION('',(-0.,-1.,-0.));
#748 = ORIENTED_EDGE('',*,*,#685,.F.);
#749 = PLANE('',#750);
#750 = AXIS2_PLACEMENT_3D('',#751,#752,#753);
#751 = CARTESIAN_POINT('',(2.3175,1.3,-0.725));
#752 = DIRECTION('',(0.,0.,-1.));
#753 = DIRECTION('',(1.,0.,0.));
#754 = ADVANCED_FACE('',(#755),#791,.T.);
#755 = FACE_BOUND('',#756,.T.);
#756 = EDGE_LOOP('',(#757,#767,#776,#784));
#757 = ORIENTED_EDGE('',*,*,#758,.T.);
#758 = EDGE_CURVE('',#759,#761,#763,.T.);
#759 = VERTEX_POINT('',#760);
#760 = CARTESIAN_POINT('',(2.5975,0.28,0.725));
#761 = VERTEX_POINT('',#762);
#762 = CARTESIAN_POINT('',(2.3675,0.28,0.725));
#763 = LINE('',#764,#765);
#764 = CARTESIAN_POINT('',(2.5975,0.28,0.725));
#765 = VECTOR('',#766,1.);
#766 = DIRECTION('',(-1.,0.,0.));
#767 = ORIENTED_EDGE('',*,*,#768,.T.);
#768 = EDGE_CURVE('',#761,#769,#771,.T.);
#769 = VERTEX_POINT('',#770);
#770 = CARTESIAN_POINT('',(2.3175,0.23,0.725));
#771 = CIRCLE('',#772,5.E-02);
#772 = AXIS2_PLACEMENT_3D('',#773,#774,#775);
#773 = CARTESIAN_POINT('',(2.3175,0.28,0.725));
#774 = DIRECTION('',(-0.,0.,-1.));
#775 = DIRECTION('',(-1.,0.,0.));
#776 = ORIENTED_EDGE('',*,*,#777,.T.);
#777 = EDGE_CURVE('',#769,#778,#780,.T.);
#778 = VERTEX_POINT('',#779);
#779 = CARTESIAN_POINT('',(2.3175,0.,0.725));
#780 = LINE('',#781,#782);
#781 = CARTESIAN_POINT('',(2.3175,0.23,0.725));
#782 = VECTOR('',#783,1.);
#783 = DIRECTION('',(0.,-1.,0.));
#784 = ORIENTED_EDGE('',*,*,#785,.F.);
#785 = EDGE_CURVE('',#759,#778,#786,.T.);
#786 = CIRCLE('',#787,0.28);
#787 = AXIS2_PLACEMENT_3D('',#788,#789,#790);
#788 = CARTESIAN_POINT('',(2.3175,0.28,0.725));
#789 = DIRECTION('',(0.,0.,-1.));
#790 = DIRECTION('',(1.,0.,0.));
#791 = PLANE('',#792);
#792 = AXIS2_PLACEMENT_3D('',#793,#794,#795);
#793 = CARTESIAN_POINT('',(2.5975,0.28,0.725));
#794 = DIRECTION('',(0.,0.,1.));
#795 = DIRECTION('',(-1.,0.,0.));
#796 = ADVANCED_FACE('',(#797),#813,.T.);
#797 = FACE_BOUND('',#798,.T.);
#798 = EDGE_LOOP('',(#799,#805,#806,#812));
#799 = ORIENTED_EDGE('',*,*,#800,.F.);
#800 = EDGE_CURVE('',#632,#759,#801,.T.);
#801 = LINE('',#802,#803);
#802 = CARTESIAN_POINT('',(2.5975,1.53,0.725));
#803 = VECTOR('',#804,1.);
#804 = DIRECTION('',(0.,-1.,0.));
#805 = ORIENTED_EDGE('',*,*,#631,.F.);
#806 = ORIENTED_EDGE('',*,*,#807,.T.);
#807 = EDGE_CURVE('',#623,#761,#808,.T.);
#808 = LINE('',#809,#810);
#809 = CARTESIAN_POINT('',(2.3675,1.53,0.725));
#810 = VECTOR('',#811,1.);
#811 = DIRECTION('',(-0.,-1.,-0.));
#812 = ORIENTED_EDGE('',*,*,#758,.F.);
#813 = PLANE('',#814);
#814 = AXIS2_PLACEMENT_3D('',#815,#816,#817);
#815 = CARTESIAN_POINT('',(2.3175,0.23,0.725));
#816 = DIRECTION('',(0.,0.,1.));
#817 = DIRECTION('',(-1.,0.,0.));
#818 = ADVANCED_FACE('',(#819),#846,.T.);
#819 = FACE_BOUND('',#820,.T.);
#820 = EDGE_LOOP('',(#821,#831,#838,#839));
#821 = ORIENTED_EDGE('',*,*,#822,.T.);
#822 = EDGE_CURVE('',#823,#825,#827,.T.);
#823 = VERTEX_POINT('',#824);
#824 = CARTESIAN_POINT('',(2.3175,0.,-0.725));
#825 = VERTEX_POINT('',#826);
#826 = CARTESIAN_POINT('',(2.3175,0.23,-0.725));
#827 = LINE('',#828,#829);
#828 = CARTESIAN_POINT('',(2.3175,0.,-0.725));
#829 = VECTOR('',#830,1.);
#830 = DIRECTION('',(0.,1.,0.));
#831 = ORIENTED_EDGE('',*,*,#832,.F.);
#832 = EDGE_CURVE('',#736,#825,#833,.T.);
#833 = CIRCLE('',#834,5.E-02);
#834 = AXIS2_PLACEMENT_3D('',#835,#836,#837);
#835 = CARTESIAN_POINT('',(2.3175,0.28,-0.725));
#836 = DIRECTION('',(-0.,0.,-1.));
#837 = DIRECTION('',(-1.,0.,0.));
#838 = ORIENTED_EDGE('',*,*,#735,.T.);
#839 = ORIENTED_EDGE('',*,*,#840,.T.);
#840 = EDGE_CURVE('',#728,#823,#841,.T.);
#841 = CIRCLE('',#842,0.28);
#842 = AXIS2_PLACEMENT_3D('',#843,#844,#845);
#843 = CARTESIAN_POINT('',(2.3175,0.28,-0.725));
#844 = DIRECTION('',(0.,0.,-1.));
#845 = DIRECTION('',(1.,0.,0.));
#846 = PLANE('',#847);
#847 = AXIS2_PLACEMENT_3D('',#848,#849,#850);
#848 = CARTESIAN_POINT('',(2.3175,0.,-0.725));
#849 = DIRECTION('',(0.,0.,-1.));
#850 = DIRECTION('',(1.,0.,0.));
#851 = ADVANCED_FACE('',(#852),#877,.T.);
#852 = FACE_BOUND('',#853,.T.);
#853 = EDGE_LOOP('',(#854,#862,#870,#876));
#854 = ORIENTED_EDGE('',*,*,#855,.T.);
#855 = EDGE_CURVE('',#823,#856,#858,.T.);
#856 = VERTEX_POINT('',#857);
#857 = CARTESIAN_POINT('',(1.4575,0.,-0.725));
#858 = LINE('',#859,#860);
#859 = CARTESIAN_POINT('',(2.5975,0.,-0.725));
#860 = VECTOR('',#861,1.);
#861 = DIRECTION('',(-1.,0.,0.));
#862 = ORIENTED_EDGE('',*,*,#863,.F.);
#863 = EDGE_CURVE('',#864,#856,#866,.T.);
#864 = VERTEX_POINT('',#865);
#865 = CARTESIAN_POINT('',(1.4575,0.23,-0.725));
#866 = LINE('',#867,#868);
#867 = CARTESIAN_POINT('',(1.4575,0.23,-0.725));
#868 = VECTOR('',#869,1.);
#869 = DIRECTION('',(0.,-1.,0.));
#870 = ORIENTED_EDGE('',*,*,#871,.F.);
#871 = EDGE_CURVE('',#825,#864,#872,.T.);
#872 = LINE('',#873,#874);
#873 = CARTESIAN_POINT('',(2.5975,0.23,-0.725));
#874 = VECTOR('',#875,1.);
#875 = DIRECTION('',(-1.,0.,0.));
#876 = ORIENTED_EDGE('',*,*,#822,.F.);
#877 = PLANE('',#878);
#878 = AXIS2_PLACEMENT_3D('',#879,#880,#881);
#879 = CARTESIAN_POINT('',(2.3675,0.28,-0.725));
#880 = DIRECTION('',(0.,0.,-1.));
#881 = DIRECTION('',(1.,0.,0.));
#882 = ADVANCED_FACE('',(#883),#906,.F.);
#883 = FACE_BOUND('',#884,.T.);
#884 = EDGE_LOOP('',(#885,#886,#892,#900));
#885 = ORIENTED_EDGE('',*,*,#855,.F.);
#886 = ORIENTED_EDGE('',*,*,#887,.F.);
#887 = EDGE_CURVE('',#778,#823,#888,.T.);
#888 = LINE('',#889,#890);
#889 = CARTESIAN_POINT('',(2.3175,0.,0.725));
#890 = VECTOR('',#891,1.);
#891 = DIRECTION('',(0.,-0.,-1.));
#892 = ORIENTED_EDGE('',*,*,#893,.T.);
#893 = EDGE_CURVE('',#778,#894,#896,.T.);
#894 = VERTEX_POINT('',#895);
#895 = CARTESIAN_POINT('',(1.4575,0.,0.725));
#896 = LINE('',#897,#898);
#897 = CARTESIAN_POINT('',(2.5975,0.,0.725));
#898 = VECTOR('',#899,1.);
#899 = DIRECTION('',(-1.,0.,0.));
#900 = ORIENTED_EDGE('',*,*,#901,.T.);
#901 = EDGE_CURVE('',#894,#856,#902,.T.);
#902 = LINE('',#903,#904);
#903 = CARTESIAN_POINT('',(1.4575,0.,0.725));
#904 = VECTOR('',#905,1.);
#905 = DIRECTION('',(0.,-0.,-1.));
#906 = PLANE('',#907);
#907 = AXIS2_PLACEMENT_3D('',#908,#909,#910);
#908 = CARTESIAN_POINT('',(2.5975,0.,0.725));
#909 = DIRECTION('',(0.,1.,0.));
#910 = DIRECTION('',(0.,-0.,1.));
#911 = ADVANCED_FACE('',(#912),#930,.T.);
#912 = FACE_BOUND('',#913,.T.);
#913 = EDGE_LOOP('',(#914,#915,#916,#924));
#914 = ORIENTED_EDGE('',*,*,#863,.T.);
#915 = ORIENTED_EDGE('',*,*,#901,.F.);
#916 = ORIENTED_EDGE('',*,*,#917,.F.);
#917 = EDGE_CURVE('',#918,#894,#920,.T.);
#918 = VERTEX_POINT('',#919);
#919 = CARTESIAN_POINT('',(1.4575,0.23,0.725));
#920 = LINE('',#921,#922);
#921 = CARTESIAN_POINT('',(1.4575,0.23,0.725));
#922 = VECTOR('',#923,1.);
#923 = DIRECTION('',(0.,-1.,0.));
#924 = ORIENTED_EDGE('',*,*,#925,.T.);
#925 = EDGE_CURVE('',#918,#864,#926,.T.);
#926 = LINE('',#927,#928);
#927 = CARTESIAN_POINT('',(1.4575,0.23,0.725));
#928 = VECTOR('',#929,1.);
#929 = DIRECTION('',(0.,-0.,-1.));
#930 = PLANE('',#931);
#931 = AXIS2_PLACEMENT_3D('',#932,#933,#934);
#932 = CARTESIAN_POINT('',(1.4575,0.23,0.725));
#933 = DIRECTION('',(-1.,0.,0.));
#934 = DIRECTION('',(0.,0.,-1.));
#935 = ADVANCED_FACE('',(#936),#952,.T.);
#936 = FACE_BOUND('',#937,.T.);
#937 = EDGE_LOOP('',(#938,#939,#940,#946));
#938 = ORIENTED_EDGE('',*,*,#871,.T.);
#939 = ORIENTED_EDGE('',*,*,#925,.F.);
#940 = ORIENTED_EDGE('',*,*,#941,.F.);
#941 = EDGE_CURVE('',#769,#918,#942,.T.);
#942 = LINE('',#943,#944);
#943 = CARTESIAN_POINT('',(2.5975,0.23,0.725));
#944 = VECTOR('',#945,1.);
#945 = DIRECTION('',(-1.,0.,0.));
#946 = ORIENTED_EDGE('',*,*,#947,.T.);
#947 = EDGE_CURVE('',#769,#825,#948,.T.);
#948 = LINE('',#949,#950);
#949 = CARTESIAN_POINT('',(2.3175,0.23,0.725));
#950 = VECTOR('',#951,1.);
#951 = DIRECTION('',(0.,-0.,-1.));
#952 = PLANE('',#953);
#953 = AXIS2_PLACEMENT_3D('',#954,#955,#956);
#954 = CARTESIAN_POINT('',(2.5975,0.23,0.725));
#955 = DIRECTION('',(0.,1.,0.));
#956 = DIRECTION('',(0.,-0.,1.));
#957 = ADVANCED_FACE('',(#958),#969,.F.);
#958 = FACE_BOUND('',#959,.F.);
#959 = EDGE_LOOP('',(#960,#966,#967,#968));
#960 = ORIENTED_EDGE('',*,*,#961,.F.);
#961 = EDGE_CURVE('',#761,#736,#962,.T.);
#962 = LINE('',#963,#964);
#963 = CARTESIAN_POINT('',(2.3675,0.28,0.725));
#964 = VECTOR('',#965,1.);
#965 = DIRECTION('',(0.,-0.,-1.));
#966 = ORIENTED_EDGE('',*,*,#768,.T.);
#967 = ORIENTED_EDGE('',*,*,#947,.T.);
#968 = ORIENTED_EDGE('',*,*,#832,.F.);
#969 = CYLINDRICAL_SURFACE('',#970,5.E-02);
#970 = AXIS2_PLACEMENT_3D('',#971,#972,#973);
#971 = CARTESIAN_POINT('',(2.3175,0.28,0.725));
#972 = DIRECTION('',(0.,-0.,-1.));
#973 = DIRECTION('',(1.,0.,0.));
#974 = ADVANCED_FACE('',(#975),#986,.T.);
#975 = FACE_BOUND('',#976,.T.);
#976 = EDGE_LOOP('',(#977,#978,#979,#980));
#977 = ORIENTED_EDGE('',*,*,#743,.T.);
#978 = ORIENTED_EDGE('',*,*,#961,.F.);
#979 = ORIENTED_EDGE('',*,*,#807,.F.);
#980 = ORIENTED_EDGE('',*,*,#981,.T.);
#981 = EDGE_CURVE('',#623,#688,#982,.T.);
#982 = LINE('',#983,#984);
#983 = CARTESIAN_POINT('',(2.3675,1.25,0.725));
#984 = VECTOR('',#985,1.);
#985 = DIRECTION('',(0.,-0.,-1.));
#986 = PLANE('',#987);
#987 = AXIS2_PLACEMENT_3D('',#988,#989,#990);
#988 = CARTESIAN_POINT('',(2.3675,1.53,0.725));
#989 = DIRECTION('',(-1.,0.,0.));
#990 = DIRECTION('',(0.,0.,-1.));
#991 = ADVANCED_FACE('',(#992),#1003,.F.);
#992 = FACE_BOUND('',#993,.F.);
#993 = EDGE_LOOP('',(#994,#1000,#1001,#1002));
#994 = ORIENTED_EDGE('',*,*,#995,.F.);
#995 = EDGE_CURVE('',#615,#696,#996,.T.);
#996 = LINE('',#997,#998);
#997 = CARTESIAN_POINT('',(2.3175,1.3,0.725));
#998 = VECTOR('',#999,1.);
#999 = DIRECTION('',(0.,-0.,-1.));
#1000 = ORIENTED_EDGE('',*,*,#622,.T.);
#1001 = ORIENTED_EDGE('',*,*,#981,.T.);
#1002 = ORIENTED_EDGE('',*,*,#695,.F.);
#1003 = CYLINDRICAL_SURFACE('',#1004,5.E-02);
#1004 = AXIS2_PLACEMENT_3D('',#1005,#1006,#1007);
#1005 = CARTESIAN_POINT('',(2.3175,1.25,0.725));
#1006 = DIRECTION('',(0.,-0.,-1.));
#1007 = DIRECTION('',(1.,0.,0.));
#1008 = ADVANCED_FACE('',(#1009),#1027,.T.);
#1009 = FACE_BOUND('',#1010,.T.);
#1010 = EDGE_LOOP('',(#1011,#1019,#1025,#1026));
#1011 = ORIENTED_EDGE('',*,*,#1012,.F.);
#1012 = EDGE_CURVE('',#1013,#657,#1015,.T.);
#1013 = VERTEX_POINT('',#1014);
#1014 = CARTESIAN_POINT('',(2.15,1.3,-0.725));
#1015 = LINE('',#1016,#1017);
#1016 = CARTESIAN_POINT('',(2.15,1.3,-1.3025));
#1017 = VECTOR('',#1018,1.);
#1018 = DIRECTION('',(0.,0.,1.));
#1019 = ORIENTED_EDGE('',*,*,#1020,.T.);
#1020 = EDGE_CURVE('',#1013,#696,#1021,.T.);
#1021 = LINE('',#1022,#1023);
#1022 = CARTESIAN_POINT('',(2.109444794437,1.3,-0.725));
#1023 = VECTOR('',#1024,1.);
#1024 = DIRECTION('',(1.,-0.,-0.));
#1025 = ORIENTED_EDGE('',*,*,#995,.F.);
#1026 = ORIENTED_EDGE('',*,*,#664,.F.);
#1027 = PLANE('',#1028);
#1028 = AXIS2_PLACEMENT_3D('',#1029,#1030,#1031);
#1029 = CARTESIAN_POINT('',(2.109444794437,1.3,0.725));
#1030 = DIRECTION('',(0.,-1.,-0.));
#1031 = DIRECTION('',(-0.,0.,-1.));
#1032 = ADVANCED_FACE('',(#1033),#1056,.F.);
#1033 = FACE_BOUND('',#1034,.T.);
#1034 = EDGE_LOOP('',(#1035,#1043,#1049,#1050));
#1035 = ORIENTED_EDGE('',*,*,#1036,.F.);
#1036 = EDGE_CURVE('',#1037,#705,#1039,.T.);
#1037 = VERTEX_POINT('',#1038);
#1038 = CARTESIAN_POINT('',(2.109444794437,1.53,-0.725));
#1039 = LINE('',#1040,#1041);
#1040 = CARTESIAN_POINT('',(2.109444794437,1.53,-0.725));
#1041 = VECTOR('',#1042,1.);
#1042 = DIRECTION('',(1.,0.,0.));
#1043 = ORIENTED_EDGE('',*,*,#1044,.F.);
#1044 = EDGE_CURVE('',#655,#1037,#1045,.T.);
#1045 = LINE('',#1046,#1047);
#1046 = CARTESIAN_POINT('',(2.109444794437,1.53,0.725));
#1047 = VECTOR('',#1048,1.);
#1048 = DIRECTION('',(0.,-0.,-1.));
#1049 = ORIENTED_EDGE('',*,*,#671,.T.);
#1050 = ORIENTED_EDGE('',*,*,#1051,.T.);
#1051 = EDGE_CURVE('',#613,#705,#1052,.T.);
#1052 = LINE('',#1053,#1054);
#1053 = CARTESIAN_POINT('',(2.3175,1.53,0.725));
#1054 = VECTOR('',#1055,1.);
#1055 = DIRECTION('',(0.,-0.,-1.));
#1056 = PLANE('',#1057);
#1057 = AXIS2_PLACEMENT_3D('',#1058,#1059,#1060);
#1058 = CARTESIAN_POINT('',(2.109444794437,1.53,0.725));
#1059 = DIRECTION('',(0.,-1.,-0.));
#1060 = DIRECTION('',(-0.,0.,-1.));
#1061 = ADVANCED_FACE('',(#1062),#1073,.T.);
#1062 = FACE_BOUND('',#1063,.T.);
#1063 = EDGE_LOOP('',(#1064,#1065,#1066,#1067));
#1064 = ORIENTED_EDGE('',*,*,#712,.F.);
#1065 = ORIENTED_EDGE('',*,*,#1051,.F.);
#1066 = ORIENTED_EDGE('',*,*,#639,.T.);
#1067 = ORIENTED_EDGE('',*,*,#1068,.T.);
#1068 = EDGE_CURVE('',#632,#686,#1069,.T.);
#1069 = LINE('',#1070,#1071);
#1070 = CARTESIAN_POINT('',(2.5975,1.25,0.725));
#1071 = VECTOR('',#1072,1.);
#1072 = DIRECTION('',(0.,-0.,-1.));
#1073 = CYLINDRICAL_SURFACE('',#1074,0.28);
#1074 = AXIS2_PLACEMENT_3D('',#1075,#1076,#1077);
#1075 = CARTESIAN_POINT('',(2.3175,1.25,0.725));
#1076 = DIRECTION('',(0.,-0.,-1.));
#1077 = DIRECTION('',(1.,0.,0.));
#1078 = ADVANCED_FACE('',(#1079),#1090,.F.);
#1079 = FACE_BOUND('',#1080,.T.);
#1080 = EDGE_LOOP('',(#1081,#1082,#1083,#1084));
#1081 = ORIENTED_EDGE('',*,*,#727,.F.);
#1082 = ORIENTED_EDGE('',*,*,#1068,.F.);
#1083 = ORIENTED_EDGE('',*,*,#800,.T.);
#1084 = ORIENTED_EDGE('',*,*,#1085,.T.);
#1085 = EDGE_CURVE('',#759,#728,#1086,.T.);
#1086 = LINE('',#1087,#1088);
#1087 = CARTESIAN_POINT('',(2.5975,0.28,0.725));
#1088 = VECTOR('',#1089,1.);
#1089 = DIRECTION('',(0.,-0.,-1.));
#1090 = PLANE('',#1091);
#1091 = AXIS2_PLACEMENT_3D('',#1092,#1093,#1094);
#1092 = CARTESIAN_POINT('',(2.5975,1.53,0.725));
#1093 = DIRECTION('',(-1.,0.,0.));
#1094 = DIRECTION('',(0.,0.,-1.));
#1095 = ADVANCED_FACE('',(#1096),#1102,.T.);
#1096 = FACE_BOUND('',#1097,.T.);
#1097 = EDGE_LOOP('',(#1098,#1099,#1100,#1101));
#1098 = ORIENTED_EDGE('',*,*,#840,.F.);
#1099 = ORIENTED_EDGE('',*,*,#1085,.F.);
#1100 = ORIENTED_EDGE('',*,*,#785,.T.);
#1101 = ORIENTED_EDGE('',*,*,#887,.T.);
#1102 = CYLINDRICAL_SURFACE('',#1103,0.28);
#1103 = AXIS2_PLACEMENT_3D('',#1104,#1105,#1106);
#1104 = CARTESIAN_POINT('',(2.3175,0.28,0.725));
#1105 = DIRECTION('',(0.,-0.,-1.));
#1106 = DIRECTION('',(1.,0.,0.));
#1107 = ADVANCED_FACE('',(#1108),#1114,.T.);
#1108 = FACE_BOUND('',#1109,.T.);
#1109 = EDGE_LOOP('',(#1110,#1111,#1112,#1113));
#1110 = ORIENTED_EDGE('',*,*,#893,.F.);
#1111 = ORIENTED_EDGE('',*,*,#777,.F.);
#1112 = ORIENTED_EDGE('',*,*,#941,.T.);
#1113 = ORIENTED_EDGE('',*,*,#917,.T.);
#1114 = PLANE('',#1115);
#1115 = AXIS2_PLACEMENT_3D('',#1116,#1117,#1118);
#1116 = CARTESIAN_POINT('',(2.3175,0.28,0.725));
#1117 = DIRECTION('',(0.,0.,1.));
#1118 = DIRECTION('',(-1.,0.,0.));
#1119 = ADVANCED_FACE('',(#1120),#1131,.F.);
#1120 = FACE_BOUND('',#1121,.T.);
#1121 = EDGE_LOOP('',(#1122,#1123,#1124,#1125));
#1122 = ORIENTED_EDGE('',*,*,#1036,.T.);
#1123 = ORIENTED_EDGE('',*,*,#704,.F.);
#1124 = ORIENTED_EDGE('',*,*,#1020,.F.);
#1125 = ORIENTED_EDGE('',*,*,#1126,.F.);
#1126 = EDGE_CURVE('',#1037,#1013,#1127,.T.);
#1127 = LINE('',#1128,#1129);
#1128 = CARTESIAN_POINT('',(2.329481016105,0.282112576396,-0.725));
#1129 = VECTOR('',#1130,1.);
#1130 = DIRECTION('',(0.173648177667,-0.984807753012,0.));
#1131 = PLANE('',#1132);
#1132 = AXIS2_PLACEMENT_3D('',#1133,#1134,#1135);
#1133 = CARTESIAN_POINT('',(2.3175,0.28,-0.725));
#1134 = DIRECTION('',(0.,0.,1.));
#1135 = DIRECTION('',(-1.,0.,0.));
#1136 = ADVANCED_FACE('',(#1137),#1143,.F.);
#1137 = FACE_BOUND('',#1138,.T.);
#1138 = EDGE_LOOP('',(#1139,#1140,#1141,#1142));
#1139 = ORIENTED_EDGE('',*,*,#1044,.T.);
#1140 = ORIENTED_EDGE('',*,*,#1126,.T.);
#1141 = ORIENTED_EDGE('',*,*,#1012,.T.);
#1142 = ORIENTED_EDGE('',*,*,#654,.F.);
#1143 = PLANE('',#1144);
#1144 = AXIS2_PLACEMENT_3D('',#1145,#1146,#1147);
#1145 = CARTESIAN_POINT('',(2.109444794437,1.53,-1.3025));
#1146 = DIRECTION('',(0.984807753012,0.173648177667,0.));
#1147 = DIRECTION('',(0.173648177667,-0.984807753012,0.));
#1148 = ( GEOMETRIC_REPRESENTATION_CONTEXT(3) 
GLOBAL_UNCERTAINTY_ASSIGNED_CONTEXT((#1152)) 
GLOBAL_UNIT_ASSIGNED_CONTEXT((#1149,#1150,#1151)) REPRESENTATION_CONTEXT
('Context #1','3D Context with UNIT and UNCERTAINTY') );
#1149 = ( LENGTH_UNIT() NAMED_UNIT(*) SI_UNIT(.MILLI.,.METRE.) );
#1150 = ( NAMED_UNIT(*) PLANE_ANGLE_UNIT() SI_UNIT($,.RADIAN.) );
#1151 = ( NAMED_UNIT(*) SI_UNIT($,.STERADIAN.) SOLID_ANGLE_UNIT() );
#1152 = UNCERTAINTY_MEASURE_WITH_UNIT(LENGTH_MEASURE(1.E-07),#1149,
  'distance_accuracy_value','confusion accuracy');
#1153 = CONTEXT_DEPENDENT_SHAPE_REPRESENTATION(#1154,#1156);
#1154 = ( REPRESENTATION_RELATIONSHIP('','',#605,#10) 
REPRESENTATION_RELATIONSHIP_WITH_TRANSFORMATION(#1155) 
SHAPE_REPRESENTATION_RELATIONSHIP() );
#1155 = ITEM_DEFINED_TRANSFORMATION('','',#11,#19);
#1156 = PRODUCT_DEFINITION_SHAPE('Placement','Placement of an item',
  #1157);
#1157 = NEXT_ASSEMBLY_USAGE_OCCURRENCE('2','=>[0:1:1:2]','',#5,#600,$);
#1158 = PRODUCT_RELATED_PRODUCT_CATEGORY('part',$,(#602));
#1159 = SHAPE_DEFINITION_REPRESENTATION(#1160,#1166);
#1160 = PRODUCT_DEFINITION_SHAPE('','',#1161);
#1161 = PRODUCT_DEFINITION('design','',#1162,#1165);
#1162 = PRODUCT_DEFINITION_FORMATION('','',#1163);
#1163 = PRODUCT('SMAJ30CA-13-F002','SMAJ30CA-13-F002','',(#1164));
#1164 = PRODUCT_CONTEXT('',#2,'mechanical');
#1165 = PRODUCT_DEFINITION_CONTEXT('part definition',#2,'design');
#1166 = ADVANCED_BREP_SHAPE_REPRESENTATION('',(#11,#1167),#1687);
#1167 = MANIFOLD_SOLID_BREP('',#1168);
#1168 = CLOSED_SHELL('',(#1169,#1209,#1240,#1271,#1293,#1339,#1370,#1426
    ,#1450,#1499,#1521,#1538,#1550,#1567,#1579,#1610,#1634,#1658,#1675)
  );
#1169 = ADVANCED_FACE('',(#1170),#1204,.T.);
#1170 = FACE_BOUND('',#1171,.T.);
#1171 = EDGE_LOOP('',(#1172,#1182,#1190,#1198));
#1172 = ORIENTED_EDGE('',*,*,#1173,.F.);
#1173 = EDGE_CURVE('',#1174,#1176,#1178,.T.);
#1174 = VERTEX_POINT('',#1175);
#1175 = CARTESIAN_POINT('',(1.956040321221,2.4,1.108540321221));
#1176 = VERTEX_POINT('',#1177);
#1177 = CARTESIAN_POINT('',(1.956040321221,2.4,-1.108540321221));
#1178 = LINE('',#1179,#1180);
#1179 = CARTESIAN_POINT('',(1.956040321221,2.4,1.3025));
#1180 = VECTOR('',#1181,1.);
#1181 = DIRECTION('',(-0.,-0.,-1.));
#1182 = ORIENTED_EDGE('',*,*,#1183,.T.);
#1183 = EDGE_CURVE('',#1174,#1184,#1186,.T.);
#1184 = VERTEX_POINT('',#1185);
#1185 = CARTESIAN_POINT('',(2.15,1.3,1.3025));
#1186 = LINE('',#1187,#1188);
#1187 = CARTESIAN_POINT('',(2.15,1.3,1.3025));
#1188 = VECTOR('',#1189,1.);
#1189 = DIRECTION('',(0.171087869746,-0.970287525248,0.171087869746));
#1190 = ORIENTED_EDGE('',*,*,#1191,.T.);
#1191 = EDGE_CURVE('',#1184,#1192,#1194,.T.);
#1192 = VERTEX_POINT('',#1193);
#1193 = CARTESIAN_POINT('',(2.15,1.3,-1.3025));
#1194 = LINE('',#1195,#1196);
#1195 = CARTESIAN_POINT('',(2.15,1.3,1.3025));
#1196 = VECTOR('',#1197,1.);
#1197 = DIRECTION('',(0.,0.,-1.));
#1198 = ORIENTED_EDGE('',*,*,#1199,.F.);
#1199 = EDGE_CURVE('',#1176,#1192,#1200,.T.);
#1200 = LINE('',#1201,#1202);
#1201 = CARTESIAN_POINT('',(2.024134445551,2.013819030664,
    -1.176634445551));
#1202 = VECTOR('',#1203,1.);
#1203 = DIRECTION('',(0.171087869746,-0.970287525248,-0.171087869746));
#1204 = PLANE('',#1205);
#1205 = AXIS2_PLACEMENT_3D('',#1206,#1207,#1208);
#1206 = CARTESIAN_POINT('',(2.15,1.3,1.3025));
#1207 = DIRECTION('',(0.984807753012,0.173648177667,0.));
#1208 = DIRECTION('',(-0.173648177667,0.984807753012,0.));
#1209 = ADVANCED_FACE('',(#1210),#1235,.T.);
#1210 = FACE_BOUND('',#1211,.T.);
#1211 = EDGE_LOOP('',(#1212,#1220,#1221,#1229));
#1212 = ORIENTED_EDGE('',*,*,#1213,.F.);
#1213 = EDGE_CURVE('',#1176,#1214,#1216,.T.);
#1214 = VERTEX_POINT('',#1215);
#1215 = CARTESIAN_POINT('',(-1.956040321221,2.4,-1.108540321221));
#1216 = LINE('',#1217,#1218);
#1217 = CARTESIAN_POINT('',(-2.15,2.4,-1.108540321221));
#1218 = VECTOR('',#1219,1.);
#1219 = DIRECTION('',(-1.,0.,-0.));
#1220 = ORIENTED_EDGE('',*,*,#1199,.T.);
#1221 = ORIENTED_EDGE('',*,*,#1222,.T.);
#1222 = EDGE_CURVE('',#1192,#1223,#1225,.T.);
#1223 = VERTEX_POINT('',#1224);
#1224 = CARTESIAN_POINT('',(-2.15,1.3,-1.3025));
#1225 = LINE('',#1226,#1227);
#1226 = CARTESIAN_POINT('',(-2.15,1.3,-1.3025));
#1227 = VECTOR('',#1228,1.);
#1228 = DIRECTION('',(-1.,-0.,-0.));
#1229 = ORIENTED_EDGE('',*,*,#1230,.F.);
#1230 = EDGE_CURVE('',#1214,#1223,#1231,.T.);
#1231 = LINE('',#1232,#1233);
#1232 = CARTESIAN_POINT('',(-2.073748890851,1.732441529042,
    -1.226248890851));
#1233 = VECTOR('',#1234,1.);
#1234 = DIRECTION('',(-0.171087869746,-0.970287525248,-0.171087869746));
#1235 = PLANE('',#1236);
#1236 = AXIS2_PLACEMENT_3D('',#1237,#1238,#1239);
#1237 = CARTESIAN_POINT('',(-2.15,1.3,-1.3025));
#1238 = DIRECTION('',(0.,0.173648177667,-0.984807753012));
#1239 = DIRECTION('',(0.,0.984807753012,0.173648177667));
#1240 = ADVANCED_FACE('',(#1241),#1266,.T.);
#1241 = FACE_BOUND('',#1242,.T.);
#1242 = EDGE_LOOP('',(#1243,#1251,#1252,#1260));
#1243 = ORIENTED_EDGE('',*,*,#1244,.F.);
#1244 = EDGE_CURVE('',#1214,#1245,#1247,.T.);
#1245 = VERTEX_POINT('',#1246);
#1246 = CARTESIAN_POINT('',(-1.956040321221,2.4,1.108540321221));
#1247 = LINE('',#1248,#1249);
#1248 = CARTESIAN_POINT('',(-1.956040321221,2.4,1.3025));
#1249 = VECTOR('',#1250,1.);
#1250 = DIRECTION('',(-0.,-0.,1.));
#1251 = ORIENTED_EDGE('',*,*,#1230,.T.);
#1252 = ORIENTED_EDGE('',*,*,#1253,.T.);
#1253 = EDGE_CURVE('',#1223,#1254,#1256,.T.);
#1254 = VERTEX_POINT('',#1255);
#1255 = CARTESIAN_POINT('',(-2.15,1.3,1.3025));
#1256 = LINE('',#1257,#1258);
#1257 = CARTESIAN_POINT('',(-2.15,1.3,1.3025));
#1258 = VECTOR('',#1259,1.);
#1259 = DIRECTION('',(-0.,-0.,1.));
#1260 = ORIENTED_EDGE('',*,*,#1261,.F.);
#1261 = EDGE_CURVE('',#1245,#1254,#1262,.T.);
#1262 = LINE('',#1263,#1264);
#1263 = CARTESIAN_POINT('',(-2.15,1.3,1.3025));
#1264 = VECTOR('',#1265,1.);
#1265 = DIRECTION('',(-0.171087869746,-0.970287525248,0.171087869746));
#1266 = PLANE('',#1267);
#1267 = AXIS2_PLACEMENT_3D('',#1268,#1269,#1270);
#1268 = CARTESIAN_POINT('',(-2.15,1.3,1.3025));
#1269 = DIRECTION('',(-0.984807753012,0.173648177667,0.));
#1270 = DIRECTION('',(-0.173648177667,-0.984807753012,0.));
#1271 = ADVANCED_FACE('',(#1272),#1288,.T.);
#1272 = FACE_BOUND('',#1273,.T.);
#1273 = EDGE_LOOP('',(#1274,#1280,#1281,#1287));
#1274 = ORIENTED_EDGE('',*,*,#1275,.F.);
#1275 = EDGE_CURVE('',#1245,#1174,#1276,.T.);
#1276 = LINE('',#1277,#1278);
#1277 = CARTESIAN_POINT('',(-2.15,2.4,1.108540321221));
#1278 = VECTOR('',#1279,1.);
#1279 = DIRECTION('',(1.,-0.,-0.));
#1280 = ORIENTED_EDGE('',*,*,#1261,.T.);
#1281 = ORIENTED_EDGE('',*,*,#1282,.T.);
#1282 = EDGE_CURVE('',#1254,#1184,#1283,.T.);
#1283 = LINE('',#1284,#1285);
#1284 = CARTESIAN_POINT('',(-2.15,1.3,1.3025));
#1285 = VECTOR('',#1286,1.);
#1286 = DIRECTION('',(1.,0.,0.));
#1287 = ORIENTED_EDGE('',*,*,#1183,.F.);
#1288 = PLANE('',#1289);
#1289 = AXIS2_PLACEMENT_3D('',#1290,#1291,#1292);
#1290 = CARTESIAN_POINT('',(-2.15,1.3,1.3025));
#1291 = DIRECTION('',(0.,0.173648177667,0.984807753012));
#1292 = DIRECTION('',(0.,-0.984807753012,0.173648177667));
#1293 = ADVANCED_FACE('',(#1294,#1328),#1334,.T.);
#1294 = FACE_BOUND('',#1295,.T.);
#1295 = EDGE_LOOP('',(#1296,#1306,#1314,#1322));
#1296 = ORIENTED_EDGE('',*,*,#1297,.F.);
#1297 = EDGE_CURVE('',#1298,#1300,#1302,.T.);
#1298 = VERTEX_POINT('',#1299);
#1299 = CARTESIAN_POINT('',(-1.331040321221,2.4,1.107540321221));
#1300 = VERTEX_POINT('',#1301);
#1301 = CARTESIAN_POINT('',(-1.331040321221,2.4,-1.107540321221));
#1302 = LINE('',#1303,#1304);
#1303 = CARTESIAN_POINT('',(-1.331040321221,2.4,1.107540321221));
#1304 = VECTOR('',#1305,1.);
#1305 = DIRECTION('',(0.,0.,-1.));
#1306 = ORIENTED_EDGE('',*,*,#1307,.F.);
#1307 = EDGE_CURVE('',#1308,#1298,#1310,.T.);
#1308 = VERTEX_POINT('',#1309);
#1309 = CARTESIAN_POINT('',(-1.581040321221,2.4,1.107540321221));
#1310 = LINE('',#1311,#1312);
#1311 = CARTESIAN_POINT('',(-1.581040321221,2.4,1.107540321221));
#1312 = VECTOR('',#1313,1.);
#1313 = DIRECTION('',(1.,0.,0.));
#1314 = ORIENTED_EDGE('',*,*,#1315,.F.);
#1315 = EDGE_CURVE('',#1316,#1308,#1318,.T.);
#1316 = VERTEX_POINT('',#1317);
#1317 = CARTESIAN_POINT('',(-1.581040321221,2.4,-1.107540321221));
#1318 = LINE('',#1319,#1320);
#1319 = CARTESIAN_POINT('',(-1.581040321221,2.4,1.107540321221));
#1320 = VECTOR('',#1321,1.);
#1321 = DIRECTION('',(-0.,-0.,1.));
#1322 = ORIENTED_EDGE('',*,*,#1323,.F.);
#1323 = EDGE_CURVE('',#1300,#1316,#1324,.T.);
#1324 = LINE('',#1325,#1326);
#1325 = CARTESIAN_POINT('',(-1.581040321221,2.4,-1.107540321221));
#1326 = VECTOR('',#1327,1.);
#1327 = DIRECTION('',(-1.,-0.,-0.));
#1328 = FACE_BOUND('',#1329,.T.);
#1329 = EDGE_LOOP('',(#1330,#1331,#1332,#1333));
#1330 = ORIENTED_EDGE('',*,*,#1275,.T.);
#1331 = ORIENTED_EDGE('',*,*,#1173,.T.);
#1332 = ORIENTED_EDGE('',*,*,#1213,.T.);
#1333 = ORIENTED_EDGE('',*,*,#1244,.T.);
#1334 = PLANE('',#1335);
#1335 = AXIS2_PLACEMENT_3D('',#1336,#1337,#1338);
#1336 = CARTESIAN_POINT('',(0.,2.4,0.));
#1337 = DIRECTION('',(0.,1.,0.));
#1338 = DIRECTION('',(0.,-0.,1.));
#1339 = ADVANCED_FACE('',(#1340),#1365,.T.);
#1340 = FACE_BOUND('',#1341,.T.);
#1341 = EDGE_LOOP('',(#1342,#1352,#1358,#1359));
#1342 = ORIENTED_EDGE('',*,*,#1343,.F.);
#1343 = EDGE_CURVE('',#1344,#1346,#1348,.T.);
#1344 = VERTEX_POINT('',#1345);
#1345 = CARTESIAN_POINT('',(1.977199558906,0.32,-1.129699558906));
#1346 = VERTEX_POINT('',#1347);
#1347 = CARTESIAN_POINT('',(1.977199558906,0.32,1.129699558906));
#1348 = LINE('',#1349,#1350);
#1349 = CARTESIAN_POINT('',(1.977199558906,0.32,-1.3025));
#1350 = VECTOR('',#1351,1.);
#1351 = DIRECTION('',(-0.,-0.,1.));
#1352 = ORIENTED_EDGE('',*,*,#1353,.T.);
#1353 = EDGE_CURVE('',#1344,#1192,#1354,.T.);
#1354 = LINE('',#1355,#1356);
#1355 = CARTESIAN_POINT('',(2.073748890851,0.867558470958,
    -1.226248890851));
#1356 = VECTOR('',#1357,1.);
#1357 = DIRECTION('',(0.171087869746,0.970287525248,-0.171087869746));
#1358 = ORIENTED_EDGE('',*,*,#1191,.F.);
#1359 = ORIENTED_EDGE('',*,*,#1360,.F.);
#1360 = EDGE_CURVE('',#1346,#1184,#1361,.T.);
#1361 = LINE('',#1362,#1363);
#1362 = CARTESIAN_POINT('',(2.024134445551,0.586180969336,1.176634445551
    ));
#1363 = VECTOR('',#1364,1.);
#1364 = DIRECTION('',(0.171087869746,0.970287525248,0.171087869746));
#1365 = PLANE('',#1366);
#1366 = AXIS2_PLACEMENT_3D('',#1367,#1368,#1369);
#1367 = CARTESIAN_POINT('',(2.15,1.3,1.3025));
#1368 = DIRECTION('',(0.984807753012,-0.173648177667,0.));
#1369 = DIRECTION('',(0.173648177667,0.984807753012,0.));
#1370 = ADVANCED_FACE('',(#1371),#1421,.T.);
#1371 = FACE_BOUND('',#1372,.T.);
#1372 = EDGE_LOOP('',(#1373,#1383,#1389,#1390,#1391,#1399,#1407,#1415));
#1373 = ORIENTED_EDGE('',*,*,#1374,.F.);
#1374 = EDGE_CURVE('',#1375,#1377,#1379,.T.);
#1375 = VERTEX_POINT('',#1376);
#1376 = CARTESIAN_POINT('',(1.007846096908,0.32,1.129699558906));
#1377 = VERTEX_POINT('',#1378);
#1378 = CARTESIAN_POINT('',(0.8,0.2,1.108540321221));
#1379 = LINE('',#1380,#1381);
#1380 = CARTESIAN_POINT('',(-0.908100130528,-0.786172070163,
    0.93465157763));
#1381 = VECTOR('',#1382,1.);
#1382 = DIRECTION('',(-0.862679176789,-0.498068054944,
    -8.782283631556E-02));
#1383 = ORIENTED_EDGE('',*,*,#1384,.F.);
#1384 = EDGE_CURVE('',#1346,#1375,#1385,.T.);
#1385 = LINE('',#1386,#1387);
#1386 = CARTESIAN_POINT('',(-2.15,0.32,1.129699558906));
#1387 = VECTOR('',#1388,1.);
#1388 = DIRECTION('',(-1.,-1.118479703215E-16,-1.972181490516E-17));
#1389 = ORIENTED_EDGE('',*,*,#1360,.T.);
#1390 = ORIENTED_EDGE('',*,*,#1282,.F.);
#1391 = ORIENTED_EDGE('',*,*,#1392,.F.);
#1392 = EDGE_CURVE('',#1393,#1254,#1395,.T.);
#1393 = VERTEX_POINT('',#1394);
#1394 = CARTESIAN_POINT('',(-1.977199558906,0.32,1.129699558906));
#1395 = LINE('',#1396,#1397);
#1396 = CARTESIAN_POINT('',(-2.15,1.3,1.3025));
#1397 = VECTOR('',#1398,1.);
#1398 = DIRECTION('',(-0.171087869746,0.970287525248,0.171087869746));
#1399 = ORIENTED_EDGE('',*,*,#1400,.F.);
#1400 = EDGE_CURVE('',#1401,#1393,#1403,.T.);
#1401 = VERTEX_POINT('',#1402);
#1402 = CARTESIAN_POINT('',(-1.007846096908,0.32,1.129699558906));
#1403 = LINE('',#1404,#1405);
#1404 = CARTESIAN_POINT('',(-2.15,0.32,1.129699558906));
#1405 = VECTOR('',#1406,1.);
#1406 = DIRECTION('',(-1.,1.118479703215E-16,1.972181490516E-17));
#1407 = ORIENTED_EDGE('',*,*,#1408,.F.);
#1408 = EDGE_CURVE('',#1409,#1401,#1411,.T.);
#1409 = VERTEX_POINT('',#1410);
#1410 = CARTESIAN_POINT('',(-0.8,0.2,1.108540321221));
#1411 = LINE('',#1412,#1413);
#1412 = CARTESIAN_POINT('',(-2.292025926356,1.06142157022,1.260432185815
    ));
#1413 = VECTOR('',#1414,1.);
#1414 = DIRECTION('',(-0.862679176789,0.498068054944,8.782283631556E-02)
  );
#1415 = ORIENTED_EDGE('',*,*,#1416,.F.);
#1416 = EDGE_CURVE('',#1377,#1409,#1417,.T.);
#1417 = LINE('',#1418,#1419);
#1418 = CARTESIAN_POINT('',(-2.15,0.2,1.108540321221));
#1419 = VECTOR('',#1420,1.);
#1420 = DIRECTION('',(-1.,0.,0.));
#1421 = PLANE('',#1422);
#1422 = AXIS2_PLACEMENT_3D('',#1423,#1424,#1425);
#1423 = CARTESIAN_POINT('',(-2.15,1.3,1.3025));
#1424 = DIRECTION('',(0.,-0.173648177667,0.984807753012));
#1425 = DIRECTION('',(0.,-0.984807753012,-0.173648177667));
#1426 = ADVANCED_FACE('',(#1427),#1445,.T.);
#1427 = FACE_BOUND('',#1428,.T.);
#1428 = EDGE_LOOP('',(#1429,#1437,#1438,#1439));
#1429 = ORIENTED_EDGE('',*,*,#1430,.T.);
#1430 = EDGE_CURVE('',#1431,#1393,#1433,.T.);
#1431 = VERTEX_POINT('',#1432);
#1432 = CARTESIAN_POINT('',(-1.977199558906,0.32,-1.129699558906));
#1433 = LINE('',#1434,#1435);
#1434 = CARTESIAN_POINT('',(-1.977199558906,0.32,-1.3025));
#1435 = VECTOR('',#1436,1.);
#1436 = DIRECTION('',(-0.,-0.,1.));
#1437 = ORIENTED_EDGE('',*,*,#1392,.T.);
#1438 = ORIENTED_EDGE('',*,*,#1253,.F.);
#1439 = ORIENTED_EDGE('',*,*,#1440,.F.);
#1440 = EDGE_CURVE('',#1431,#1223,#1441,.T.);
#1441 = LINE('',#1442,#1443);
#1442 = CARTESIAN_POINT('',(-2.15,1.3,-1.3025));
#1443 = VECTOR('',#1444,1.);
#1444 = DIRECTION('',(-0.171087869746,0.970287525248,-0.171087869746));
#1445 = PLANE('',#1446);
#1446 = AXIS2_PLACEMENT_3D('',#1447,#1448,#1449);
#1447 = CARTESIAN_POINT('',(-2.15,1.3,1.3025));
#1448 = DIRECTION('',(-0.984807753012,-0.173648177667,0.));
#1449 = DIRECTION('',(0.173648177667,-0.984807753012,0.));
#1450 = ADVANCED_FACE('',(#1451),#1494,.T.);
#1451 = FACE_BOUND('',#1452,.T.);
#1452 = EDGE_LOOP('',(#1453,#1463,#1471,#1479,#1485,#1486,#1487,#1488));
#1453 = ORIENTED_EDGE('',*,*,#1454,.F.);
#1454 = EDGE_CURVE('',#1455,#1457,#1459,.T.);
#1455 = VERTEX_POINT('',#1456);
#1456 = CARTESIAN_POINT('',(0.8,0.2,-1.108540321221));
#1457 = VERTEX_POINT('',#1458);
#1458 = CARTESIAN_POINT('',(1.007846096908,0.32,-1.129699558906));
#1459 = LINE('',#1460,#1461);
#1460 = CARTESIAN_POINT('',(-0.908100130528,-0.786172070163,
    -0.93465157763));
#1461 = VECTOR('',#1462,1.);
#1462 = DIRECTION('',(0.862679176789,0.498068054944,-8.782283631556E-02)
  );
#1463 = ORIENTED_EDGE('',*,*,#1464,.F.);
#1464 = EDGE_CURVE('',#1465,#1455,#1467,.T.);
#1465 = VERTEX_POINT('',#1466);
#1466 = CARTESIAN_POINT('',(-0.8,0.2,-1.108540321221));
#1467 = LINE('',#1468,#1469);
#1468 = CARTESIAN_POINT('',(-2.15,0.2,-1.108540321221));
#1469 = VECTOR('',#1470,1.);
#1470 = DIRECTION('',(1.,0.,0.));
#1471 = ORIENTED_EDGE('',*,*,#1472,.F.);
#1472 = EDGE_CURVE('',#1473,#1465,#1475,.T.);
#1473 = VERTEX_POINT('',#1474);
#1474 = CARTESIAN_POINT('',(-1.007846096908,0.32,-1.129699558906));
#1475 = LINE('',#1476,#1477);
#1476 = CARTESIAN_POINT('',(-2.292025926356,1.06142157022,
    -1.260432185815));
#1477 = VECTOR('',#1478,1.);
#1478 = DIRECTION('',(0.862679176789,-0.498068054944,8.782283631556E-02)
  );
#1479 = ORIENTED_EDGE('',*,*,#1480,.F.);
#1480 = EDGE_CURVE('',#1431,#1473,#1481,.T.);
#1481 = LINE('',#1482,#1483);
#1482 = CARTESIAN_POINT('',(-2.15,0.32,-1.129699558906));
#1483 = VECTOR('',#1484,1.);
#1484 = DIRECTION('',(1.,-1.118479703215E-16,1.972181490516E-17));
#1485 = ORIENTED_EDGE('',*,*,#1440,.T.);
#1486 = ORIENTED_EDGE('',*,*,#1222,.F.);
#1487 = ORIENTED_EDGE('',*,*,#1353,.F.);
#1488 = ORIENTED_EDGE('',*,*,#1489,.F.);
#1489 = EDGE_CURVE('',#1457,#1344,#1490,.T.);
#1490 = LINE('',#1491,#1492);
#1491 = CARTESIAN_POINT('',(-2.15,0.32,-1.129699558906));
#1492 = VECTOR('',#1493,1.);
#1493 = DIRECTION('',(1.,1.118479703215E-16,-1.972181490516E-17));
#1494 = PLANE('',#1495);
#1495 = AXIS2_PLACEMENT_3D('',#1496,#1497,#1498);
#1496 = CARTESIAN_POINT('',(-2.15,1.3,-1.3025));
#1497 = DIRECTION('',(0.,-0.173648177667,-0.984807753012));
#1498 = DIRECTION('',(0.,0.984807753012,-0.173648177667));
#1499 = ADVANCED_FACE('',(#1500),#1516,.F.);
#1500 = FACE_BOUND('',#1501,.T.);
#1501 = EDGE_LOOP('',(#1502,#1503,#1509,#1510));
#1502 = ORIENTED_EDGE('',*,*,#1464,.T.);
#1503 = ORIENTED_EDGE('',*,*,#1504,.T.);
#1504 = EDGE_CURVE('',#1455,#1377,#1505,.T.);
#1505 = LINE('',#1506,#1507);
#1506 = CARTESIAN_POINT('',(0.8,0.2,0.));
#1507 = VECTOR('',#1508,1.);
#1508 = DIRECTION('',(0.,-0.,1.));
#1509 = ORIENTED_EDGE('',*,*,#1416,.T.);
#1510 = ORIENTED_EDGE('',*,*,#1511,.T.);
#1511 = EDGE_CURVE('',#1409,#1465,#1512,.T.);
#1512 = LINE('',#1513,#1514);
#1513 = CARTESIAN_POINT('',(-0.8,0.2,0.));
#1514 = VECTOR('',#1515,1.);
#1515 = DIRECTION('',(0.,0.,-1.));
#1516 = PLANE('',#1517);
#1517 = AXIS2_PLACEMENT_3D('',#1518,#1519,#1520);
#1518 = CARTESIAN_POINT('',(0.,0.2,0.));
#1519 = DIRECTION('',(0.,1.,0.));
#1520 = DIRECTION('',(0.,-0.,1.));
#1521 = ADVANCED_FACE('',(#1522),#1533,.F.);
#1522 = FACE_BOUND('',#1523,.T.);
#1523 = EDGE_LOOP('',(#1524,#1525,#1526,#1527));
#1524 = ORIENTED_EDGE('',*,*,#1400,.T.);
#1525 = ORIENTED_EDGE('',*,*,#1430,.F.);
#1526 = ORIENTED_EDGE('',*,*,#1480,.T.);
#1527 = ORIENTED_EDGE('',*,*,#1528,.T.);
#1528 = EDGE_CURVE('',#1473,#1401,#1529,.T.);
#1529 = LINE('',#1530,#1531);
#1530 = CARTESIAN_POINT('',(-1.007846096908,0.32,-1.3025));
#1531 = VECTOR('',#1532,1.);
#1532 = DIRECTION('',(-0.,-0.,1.));
#1533 = PLANE('',#1534);
#1534 = AXIS2_PLACEMENT_3D('',#1535,#1536,#1537);
#1535 = CARTESIAN_POINT('',(-1.977199558906,0.32,-1.3025));
#1536 = DIRECTION('',(1.118479703215E-16,1.,0.));
#1537 = DIRECTION('',(-1.,1.118479703215E-16,0.));
#1538 = ADVANCED_FACE('',(#1539),#1545,.F.);
#1539 = FACE_BOUND('',#1540,.T.);
#1540 = EDGE_LOOP('',(#1541,#1542,#1543,#1544));
#1541 = ORIENTED_EDGE('',*,*,#1408,.T.);
#1542 = ORIENTED_EDGE('',*,*,#1528,.F.);
#1543 = ORIENTED_EDGE('',*,*,#1472,.T.);
#1544 = ORIENTED_EDGE('',*,*,#1511,.F.);
#1545 = PLANE('',#1546);
#1546 = AXIS2_PLACEMENT_3D('',#1547,#1548,#1549);
#1547 = CARTESIAN_POINT('',(-1.007846096908,0.32,-1.3025));
#1548 = DIRECTION('',(0.5,0.866025403784,0.));
#1549 = DIRECTION('',(-0.866025403784,0.5,0.));
#1550 = ADVANCED_FACE('',(#1551),#1562,.F.);
#1551 = FACE_BOUND('',#1552,.T.);
#1552 = EDGE_LOOP('',(#1553,#1554,#1555,#1556));
#1553 = ORIENTED_EDGE('',*,*,#1374,.T.);
#1554 = ORIENTED_EDGE('',*,*,#1504,.F.);
#1555 = ORIENTED_EDGE('',*,*,#1454,.T.);
#1556 = ORIENTED_EDGE('',*,*,#1557,.T.);
#1557 = EDGE_CURVE('',#1457,#1375,#1558,.T.);
#1558 = LINE('',#1559,#1560);
#1559 = CARTESIAN_POINT('',(1.007846096908,0.32,-1.3025));
#1560 = VECTOR('',#1561,1.);
#1561 = DIRECTION('',(-0.,-0.,1.));
#1562 = PLANE('',#1563);
#1563 = AXIS2_PLACEMENT_3D('',#1564,#1565,#1566);
#1564 = CARTESIAN_POINT('',(1.007846096908,0.32,-1.3025));
#1565 = DIRECTION('',(-0.5,0.866025403784,0.));
#1566 = DIRECTION('',(-0.866025403784,-0.5,0.));
#1567 = ADVANCED_FACE('',(#1568),#1574,.F.);
#1568 = FACE_BOUND('',#1569,.T.);
#1569 = EDGE_LOOP('',(#1570,#1571,#1572,#1573));
#1570 = ORIENTED_EDGE('',*,*,#1384,.T.);
#1571 = ORIENTED_EDGE('',*,*,#1557,.F.);
#1572 = ORIENTED_EDGE('',*,*,#1489,.T.);
#1573 = ORIENTED_EDGE('',*,*,#1343,.T.);
#1574 = PLANE('',#1575);
#1575 = AXIS2_PLACEMENT_3D('',#1576,#1577,#1578);
#1576 = CARTESIAN_POINT('',(1.977199558906,0.32,-1.3025));
#1577 = DIRECTION('',(-1.118479703215E-16,1.,0.));
#1578 = DIRECTION('',(-1.,-1.118479703215E-16,0.));
#1579 = ADVANCED_FACE('',(#1580),#1605,.F.);
#1580 = FACE_BOUND('',#1581,.T.);
#1581 = EDGE_LOOP('',(#1582,#1583,#1591,#1599));
#1582 = ORIENTED_EDGE('',*,*,#1297,.T.);
#1583 = ORIENTED_EDGE('',*,*,#1584,.F.);
#1584 = EDGE_CURVE('',#1585,#1300,#1587,.T.);
#1585 = VERTEX_POINT('',#1586);
#1586 = CARTESIAN_POINT('',(-1.331040321221,2.2,-1.107540321221));
#1587 = LINE('',#1588,#1589);
#1588 = CARTESIAN_POINT('',(-1.331040321221,2.2,-1.107540321221));
#1589 = VECTOR('',#1590,1.);
#1590 = DIRECTION('',(-0.,1.,-0.));
#1591 = ORIENTED_EDGE('',*,*,#1592,.F.);
#1592 = EDGE_CURVE('',#1593,#1585,#1595,.T.);
#1593 = VERTEX_POINT('',#1594);
#1594 = CARTESIAN_POINT('',(-1.331040321221,2.2,1.107540321221));
#1595 = LINE('',#1596,#1597);
#1596 = CARTESIAN_POINT('',(-1.331040321221,2.2,1.107540321221));
#1597 = VECTOR('',#1598,1.);
#1598 = DIRECTION('',(0.,0.,-1.));
#1599 = ORIENTED_EDGE('',*,*,#1600,.T.);
#1600 = EDGE_CURVE('',#1593,#1298,#1601,.T.);
#1601 = LINE('',#1602,#1603);
#1602 = CARTESIAN_POINT('',(-1.331040321221,2.2,1.107540321221));
#1603 = VECTOR('',#1604,1.);
#1604 = DIRECTION('',(-0.,1.,-0.));
#1605 = PLANE('',#1606);
#1606 = AXIS2_PLACEMENT_3D('',#1607,#1608,#1609);
#1607 = CARTESIAN_POINT('',(-1.331040321221,2.2,1.107540321221));
#1608 = DIRECTION('',(1.,0.,0.));
#1609 = DIRECTION('',(0.,0.,-1.));
#1610 = ADVANCED_FACE('',(#1611),#1629,.F.);
#1611 = FACE_BOUND('',#1612,.T.);
#1612 = EDGE_LOOP('',(#1613,#1614,#1615,#1623));
#1613 = ORIENTED_EDGE('',*,*,#1307,.T.);
#1614 = ORIENTED_EDGE('',*,*,#1600,.F.);
#1615 = ORIENTED_EDGE('',*,*,#1616,.F.);
#1616 = EDGE_CURVE('',#1617,#1593,#1619,.T.);
#1617 = VERTEX_POINT('',#1618);
#1618 = CARTESIAN_POINT('',(-1.581040321221,2.2,1.107540321221));
#1619 = LINE('',#1620,#1621);
#1620 = CARTESIAN_POINT('',(-1.581040321221,2.2,1.107540321221));
#1621 = VECTOR('',#1622,1.);
#1622 = DIRECTION('',(1.,0.,0.));
#1623 = ORIENTED_EDGE('',*,*,#1624,.T.);
#1624 = EDGE_CURVE('',#1617,#1308,#1625,.T.);
#1625 = LINE('',#1626,#1627);
#1626 = CARTESIAN_POINT('',(-1.581040321221,2.2,1.107540321221));
#1627 = VECTOR('',#1628,1.);
#1628 = DIRECTION('',(-0.,1.,-0.));
#1629 = PLANE('',#1630);
#1630 = AXIS2_PLACEMENT_3D('',#1631,#1632,#1633);
#1631 = CARTESIAN_POINT('',(-1.581040321221,2.2,1.107540321221));
#1632 = DIRECTION('',(-0.,0.,1.));
#1633 = DIRECTION('',(1.,0.,0.));
#1634 = ADVANCED_FACE('',(#1635),#1653,.F.);
#1635 = FACE_BOUND('',#1636,.T.);
#1636 = EDGE_LOOP('',(#1637,#1638,#1639,#1647));
#1637 = ORIENTED_EDGE('',*,*,#1315,.T.);
#1638 = ORIENTED_EDGE('',*,*,#1624,.F.);
#1639 = ORIENTED_EDGE('',*,*,#1640,.F.);
#1640 = EDGE_CURVE('',#1641,#1617,#1643,.T.);
#1641 = VERTEX_POINT('',#1642);
#1642 = CARTESIAN_POINT('',(-1.581040321221,2.2,-1.107540321221));
#1643 = LINE('',#1644,#1645);
#1644 = CARTESIAN_POINT('',(-1.581040321221,2.2,1.107540321221));
#1645 = VECTOR('',#1646,1.);
#1646 = DIRECTION('',(-0.,-0.,1.));
#1647 = ORIENTED_EDGE('',*,*,#1648,.T.);
#1648 = EDGE_CURVE('',#1641,#1316,#1649,.T.);
#1649 = LINE('',#1650,#1651);
#1650 = CARTESIAN_POINT('',(-1.581040321221,2.2,-1.107540321221));
#1651 = VECTOR('',#1652,1.);
#1652 = DIRECTION('',(-0.,1.,-0.));
#1653 = PLANE('',#1654);
#1654 = AXIS2_PLACEMENT_3D('',#1655,#1656,#1657);
#1655 = CARTESIAN_POINT('',(-1.581040321221,2.2,1.107540321221));
#1656 = DIRECTION('',(-1.,0.,-0.));
#1657 = DIRECTION('',(0.,0.,1.));
#1658 = ADVANCED_FACE('',(#1659),#1670,.F.);
#1659 = FACE_BOUND('',#1660,.T.);
#1660 = EDGE_LOOP('',(#1661,#1662,#1663,#1669));
#1661 = ORIENTED_EDGE('',*,*,#1323,.T.);
#1662 = ORIENTED_EDGE('',*,*,#1648,.F.);
#1663 = ORIENTED_EDGE('',*,*,#1664,.F.);
#1664 = EDGE_CURVE('',#1585,#1641,#1665,.T.);
#1665 = LINE('',#1666,#1667);
#1666 = CARTESIAN_POINT('',(-1.581040321221,2.2,-1.107540321221));
#1667 = VECTOR('',#1668,1.);
#1668 = DIRECTION('',(-1.,-0.,-0.));
#1669 = ORIENTED_EDGE('',*,*,#1584,.T.);
#1670 = PLANE('',#1671);
#1671 = AXIS2_PLACEMENT_3D('',#1672,#1673,#1674);
#1672 = CARTESIAN_POINT('',(-1.581040321221,2.2,-1.107540321221));
#1673 = DIRECTION('',(0.,0.,-1.));
#1674 = DIRECTION('',(-1.,0.,-0.));
#1675 = ADVANCED_FACE('',(#1676),#1682,.F.);
#1676 = FACE_BOUND('',#1677,.T.);
#1677 = EDGE_LOOP('',(#1678,#1679,#1680,#1681));
#1678 = ORIENTED_EDGE('',*,*,#1592,.T.);
#1679 = ORIENTED_EDGE('',*,*,#1664,.T.);
#1680 = ORIENTED_EDGE('',*,*,#1640,.T.);
#1681 = ORIENTED_EDGE('',*,*,#1616,.T.);
#1682 = PLANE('',#1683);
#1683 = AXIS2_PLACEMENT_3D('',#1684,#1685,#1686);
#1684 = CARTESIAN_POINT('',(0.,2.2,0.));
#1685 = DIRECTION('',(0.,-1.,0.));
#1686 = DIRECTION('',(0.,-0.,-1.));
#1687 = ( GEOMETRIC_REPRESENTATION_CONTEXT(3) 
GLOBAL_UNCERTAINTY_ASSIGNED_CONTEXT((#1691)) 
GLOBAL_UNIT_ASSIGNED_CONTEXT((#1688,#1689,#1690)) REPRESENTATION_CONTEXT
('Context #1','3D Context with UNIT and UNCERTAINTY') );
#1688 = ( LENGTH_UNIT() NAMED_UNIT(*) SI_UNIT(.MILLI.,.METRE.) );
#1689 = ( NAMED_UNIT(*) PLANE_ANGLE_UNIT() SI_UNIT($,.RADIAN.) );
#1690 = ( NAMED_UNIT(*) SI_UNIT($,.STERADIAN.) SOLID_ANGLE_UNIT() );
#1691 = UNCERTAINTY_MEASURE_WITH_UNIT(LENGTH_MEASURE(1.E-07),#1688,
  'distance_accuracy_value','confusion accuracy');
#1692 = CONTEXT_DEPENDENT_SHAPE_REPRESENTATION(#1693,#1695);
#1693 = ( REPRESENTATION_RELATIONSHIP('','',#1166,#10) 
REPRESENTATION_RELATIONSHIP_WITH_TRANSFORMATION(#1694) 
SHAPE_REPRESENTATION_RELATIONSHIP() );
#1694 = ITEM_DEFINED_TRANSFORMATION('','',#11,#23);
#1695 = PRODUCT_DEFINITION_SHAPE('Placement','Placement of an item',
  #1696);
#1696 = NEXT_ASSEMBLY_USAGE_OCCURRENCE('3','=>[0:1:1:3]','',#5,#1161,$);
#1697 = PRODUCT_RELATED_PRODUCT_CATEGORY('part',$,(#1163));
#1698 = SHAPE_DEFINITION_REPRESENTATION(#1699,#1705);
#1699 = PRODUCT_DEFINITION_SHAPE('','',#1700);
#1700 = PRODUCT_DEFINITION('design','',#1701,#1704);
#1701 = PRODUCT_DEFINITION_FORMATION('','',#1702);
#1702 = PRODUCT('SMAJ30CA-13-F003','SMAJ30CA-13-F003','',(#1703));
#1703 = PRODUCT_CONTEXT('',#2,'mechanical');
#1704 = PRODUCT_DEFINITION_CONTEXT('part definition',#2,'design');
#1705 = ADVANCED_BREP_SHAPE_REPRESENTATION('',(#11,#1706),#1856);
#1706 = MANIFOLD_SOLID_BREP('',#1707);
#1707 = CLOSED_SHELL('',(#1708,#1748,#1788,#1810,#1827,#1844));
#1708 = ADVANCED_FACE('',(#1709),#1743,.T.);
#1709 = FACE_BOUND('',#1710,.T.);
#1710 = EDGE_LOOP('',(#1711,#1721,#1729,#1737));
#1711 = ORIENTED_EDGE('',*,*,#1712,.F.);
#1712 = EDGE_CURVE('',#1713,#1715,#1717,.T.);
#1713 = VERTEX_POINT('',#1714);
#1714 = CARTESIAN_POINT('',(-1.331040321221,2.2,1.107540321221));
#1715 = VERTEX_POINT('',#1716);
#1716 = CARTESIAN_POINT('',(-1.331040321221,2.2,-1.107540321221));
#1717 = LINE('',#1718,#1719);
#1718 = CARTESIAN_POINT('',(-1.331040321221,2.2,1.107540321221));
#1719 = VECTOR('',#1720,1.);
#1720 = DIRECTION('',(0.,0.,-1.));
#1721 = ORIENTED_EDGE('',*,*,#1722,.F.);
#1722 = EDGE_CURVE('',#1723,#1713,#1725,.T.);
#1723 = VERTEX_POINT('',#1724);
#1724 = CARTESIAN_POINT('',(-1.581040321221,2.2,1.107540321221));
#1725 = LINE('',#1726,#1727);
#1726 = CARTESIAN_POINT('',(-1.581040321221,2.2,1.107540321221));
#1727 = VECTOR('',#1728,1.);
#1728 = DIRECTION('',(1.,0.,-0.));
#1729 = ORIENTED_EDGE('',*,*,#1730,.F.);
#1730 = EDGE_CURVE('',#1731,#1723,#1733,.T.);
#1731 = VERTEX_POINT('',#1732);
#1732 = CARTESIAN_POINT('',(-1.581040321221,2.2,-1.107540321221));
#1733 = LINE('',#1734,#1735);
#1734 = CARTESIAN_POINT('',(-1.581040321221,2.2,1.107540321221));
#1735 = VECTOR('',#1736,1.);
#1736 = DIRECTION('',(0.,0.,1.));
#1737 = ORIENTED_EDGE('',*,*,#1738,.F.);
#1738 = EDGE_CURVE('',#1715,#1731,#1739,.T.);
#1739 = LINE('',#1740,#1741);
#1740 = CARTESIAN_POINT('',(-1.581040321221,2.2,-1.107540321221));
#1741 = VECTOR('',#1742,1.);
#1742 = DIRECTION('',(-1.,0.,0.));
#1743 = PLANE('',#1744);
#1744 = AXIS2_PLACEMENT_3D('',#1745,#1746,#1747);
#1745 = CARTESIAN_POINT('',(0.,2.2,0.));
#1746 = DIRECTION('',(0.,-1.,0.));
#1747 = DIRECTION('',(0.,-0.,-1.));
#1748 = ADVANCED_FACE('',(#1749),#1783,.F.);
#1749 = FACE_BOUND('',#1750,.T.);
#1750 = EDGE_LOOP('',(#1751,#1761,#1769,#1777));
#1751 = ORIENTED_EDGE('',*,*,#1752,.T.);
#1752 = EDGE_CURVE('',#1753,#1755,#1757,.T.);
#1753 = VERTEX_POINT('',#1754);
#1754 = CARTESIAN_POINT('',(-1.331040321221,2.4,1.107540321221));
#1755 = VERTEX_POINT('',#1756);
#1756 = CARTESIAN_POINT('',(-1.331040321221,2.4,-1.107540321221));
#1757 = LINE('',#1758,#1759);
#1758 = CARTESIAN_POINT('',(-1.331040321221,2.4,1.107540321221));
#1759 = VECTOR('',#1760,1.);
#1760 = DIRECTION('',(0.,0.,-1.));
#1761 = ORIENTED_EDGE('',*,*,#1762,.T.);
#1762 = EDGE_CURVE('',#1755,#1763,#1765,.T.);
#1763 = VERTEX_POINT('',#1764);
#1764 = CARTESIAN_POINT('',(-1.581040321221,2.4,-1.107540321221));
#1765 = LINE('',#1766,#1767);
#1766 = CARTESIAN_POINT('',(-1.581040321221,2.4,-1.107540321221));
#1767 = VECTOR('',#1768,1.);
#1768 = DIRECTION('',(-1.,-0.,-0.));
#1769 = ORIENTED_EDGE('',*,*,#1770,.T.);
#1770 = EDGE_CURVE('',#1763,#1771,#1773,.T.);
#1771 = VERTEX_POINT('',#1772);
#1772 = CARTESIAN_POINT('',(-1.581040321221,2.4,1.107540321221));
#1773 = LINE('',#1774,#1775);
#1774 = CARTESIAN_POINT('',(-1.581040321221,2.4,1.107540321221));
#1775 = VECTOR('',#1776,1.);
#1776 = DIRECTION('',(-0.,-0.,1.));
#1777 = ORIENTED_EDGE('',*,*,#1778,.T.);
#1778 = EDGE_CURVE('',#1771,#1753,#1779,.T.);
#1779 = LINE('',#1780,#1781);
#1780 = CARTESIAN_POINT('',(-1.581040321221,2.4,1.107540321221));
#1781 = VECTOR('',#1782,1.);
#1782 = DIRECTION('',(1.,0.,0.));
#1783 = PLANE('',#1784);
#1784 = AXIS2_PLACEMENT_3D('',#1785,#1786,#1787);
#1785 = CARTESIAN_POINT('',(0.,2.4,0.));
#1786 = DIRECTION('',(0.,-1.,0.));
#1787 = DIRECTION('',(0.,-0.,-1.));
#1788 = ADVANCED_FACE('',(#1789),#1805,.T.);
#1789 = FACE_BOUND('',#1790,.T.);
#1790 = EDGE_LOOP('',(#1791,#1797,#1798,#1804));
#1791 = ORIENTED_EDGE('',*,*,#1792,.F.);
#1792 = EDGE_CURVE('',#1715,#1755,#1793,.T.);
#1793 = LINE('',#1794,#1795);
#1794 = CARTESIAN_POINT('',(-1.331040321221,-2.914383845424E-02,
    -1.107540321221));
#1795 = VECTOR('',#1796,1.);
#1796 = DIRECTION('',(0.,1.,0.));
#1797 = ORIENTED_EDGE('',*,*,#1738,.T.);
#1798 = ORIENTED_EDGE('',*,*,#1799,.T.);
#1799 = EDGE_CURVE('',#1731,#1763,#1800,.T.);
#1800 = LINE('',#1801,#1802);
#1801 = CARTESIAN_POINT('',(-1.581040321221,-2.914383845424E-02,
    -1.107540321221));
#1802 = VECTOR('',#1803,1.);
#1803 = DIRECTION('',(0.,1.,0.));
#1804 = ORIENTED_EDGE('',*,*,#1762,.F.);
#1805 = PLANE('',#1806);
#1806 = AXIS2_PLACEMENT_3D('',#1807,#1808,#1809);
#1807 = CARTESIAN_POINT('',(-1.581040321221,-2.914383845424E-02,
    -1.107540321221));
#1808 = DIRECTION('',(0.,0.,-1.));
#1809 = DIRECTION('',(-1.,0.,-0.));
#1810 = ADVANCED_FACE('',(#1811),#1822,.T.);
#1811 = FACE_BOUND('',#1812,.T.);
#1812 = EDGE_LOOP('',(#1813,#1814,#1815,#1821));
#1813 = ORIENTED_EDGE('',*,*,#1799,.F.);
#1814 = ORIENTED_EDGE('',*,*,#1730,.T.);
#1815 = ORIENTED_EDGE('',*,*,#1816,.T.);
#1816 = EDGE_CURVE('',#1723,#1771,#1817,.T.);
#1817 = LINE('',#1818,#1819);
#1818 = CARTESIAN_POINT('',(-1.581040321221,-2.914383845424E-02,
    1.107540321221));
#1819 = VECTOR('',#1820,1.);
#1820 = DIRECTION('',(0.,1.,0.));
#1821 = ORIENTED_EDGE('',*,*,#1770,.F.);
#1822 = PLANE('',#1823);
#1823 = AXIS2_PLACEMENT_3D('',#1824,#1825,#1826);
#1824 = CARTESIAN_POINT('',(-1.581040321221,-2.914383845424E-02,
    1.107540321221));
#1825 = DIRECTION('',(-1.,0.,0.));
#1826 = DIRECTION('',(0.,0.,1.));
#1827 = ADVANCED_FACE('',(#1828),#1839,.T.);
#1828 = FACE_BOUND('',#1829,.T.);
#1829 = EDGE_LOOP('',(#1830,#1831,#1832,#1838));
#1830 = ORIENTED_EDGE('',*,*,#1816,.F.);
#1831 = ORIENTED_EDGE('',*,*,#1722,.T.);
#1832 = ORIENTED_EDGE('',*,*,#1833,.T.);
#1833 = EDGE_CURVE('',#1713,#1753,#1834,.T.);
#1834 = LINE('',#1835,#1836);
#1835 = CARTESIAN_POINT('',(-1.331040321221,-2.914383845424E-02,
    1.107540321221));
#1836 = VECTOR('',#1837,1.);
#1837 = DIRECTION('',(0.,1.,0.));
#1838 = ORIENTED_EDGE('',*,*,#1778,.F.);
#1839 = PLANE('',#1840);
#1840 = AXIS2_PLACEMENT_3D('',#1841,#1842,#1843);
#1841 = CARTESIAN_POINT('',(-1.581040321221,-2.914383845424E-02,
    1.107540321221));
#1842 = DIRECTION('',(0.,0.,1.));
#1843 = DIRECTION('',(1.,0.,-0.));
#1844 = ADVANCED_FACE('',(#1845),#1851,.T.);
#1845 = FACE_BOUND('',#1846,.T.);
#1846 = EDGE_LOOP('',(#1847,#1848,#1849,#1850));
#1847 = ORIENTED_EDGE('',*,*,#1833,.F.);
#1848 = ORIENTED_EDGE('',*,*,#1712,.T.);
#1849 = ORIENTED_EDGE('',*,*,#1792,.T.);
#1850 = ORIENTED_EDGE('',*,*,#1752,.F.);
#1851 = PLANE('',#1852);
#1852 = AXIS2_PLACEMENT_3D('',#1853,#1854,#1855);
#1853 = CARTESIAN_POINT('',(-1.331040321221,-2.914383845424E-02,
    1.107540321221));
#1854 = DIRECTION('',(1.,-0.,0.));
#1855 = DIRECTION('',(0.,0.,-1.));
#1856 = ( GEOMETRIC_REPRESENTATION_CONTEXT(3) 
GLOBAL_UNCERTAINTY_ASSIGNED_CONTEXT((#1860)) 
GLOBAL_UNIT_ASSIGNED_CONTEXT((#1857,#1858,#1859)) REPRESENTATION_CONTEXT
('Context #1','3D Context with UNIT and UNCERTAINTY') );
#1857 = ( LENGTH_UNIT() NAMED_UNIT(*) SI_UNIT(.MILLI.,.METRE.) );
#1858 = ( NAMED_UNIT(*) PLANE_ANGLE_UNIT() SI_UNIT($,.RADIAN.) );
#1859 = ( NAMED_UNIT(*) SI_UNIT($,.STERADIAN.) SOLID_ANGLE_UNIT() );
#1860 = UNCERTAINTY_MEASURE_WITH_UNIT(LENGTH_MEASURE(1.E-07),#1857,
  'distance_accuracy_value','confusion accuracy');
#1861 = CONTEXT_DEPENDENT_SHAPE_REPRESENTATION(#1862,#1864);
#1862 = ( REPRESENTATION_RELATIONSHIP('','',#1705,#10) 
REPRESENTATION_RELATIONSHIP_WITH_TRANSFORMATION(#1863) 
SHAPE_REPRESENTATION_RELATIONSHIP() );
#1863 = ITEM_DEFINED_TRANSFORMATION('','',#11,#27);
#1864 = PRODUCT_DEFINITION_SHAPE('Placement','Placement of an item',
  #1865);
#1865 = NEXT_ASSEMBLY_USAGE_OCCURRENCE('4','=>[0:1:1:4]','',#5,#1700,$);
#1866 = PRODUCT_RELATED_PRODUCT_CATEGORY('part',$,(#1702));
#1867 = MECHANICAL_DESIGN_GEOMETRIC_PRESENTATION_REPRESENTATION('',(
    #1868),#587);
#1868 = STYLED_ITEM('color',(#1869),#45);
#1869 = PRESENTATION_STYLE_ASSIGNMENT((#1870,#1876));
#1870 = SURFACE_STYLE_USAGE(.BOTH.,#1871);
#1871 = SURFACE_SIDE_STYLE('',(#1872));
#1872 = SURFACE_STYLE_FILL_AREA(#1873);
#1873 = FILL_AREA_STYLE('',(#1874));
#1874 = FILL_AREA_STYLE_COLOUR('',#1875);
#1875 = COLOUR_RGB('',0.792156867455,0.819607860991,0.933333342953);
#1876 = CURVE_STYLE('',#1877,POSITIVE_LENGTH_MEASURE(0.1),#1875);
#1877 = DRAUGHTING_PRE_DEFINED_CURVE_FONT('continuous');
#1878 = MECHANICAL_DESIGN_GEOMETRIC_PRESENTATION_REPRESENTATION('',(
    #1879),#1856);
#1879 = STYLED_ITEM('color',(#1880),#1706);
#1880 = PRESENTATION_STYLE_ASSIGNMENT((#1881,#1887));
#1881 = SURFACE_STYLE_USAGE(.BOTH.,#1882);
#1882 = SURFACE_SIDE_STYLE('',(#1883));
#1883 = SURFACE_STYLE_FILL_AREA(#1884);
#1884 = FILL_AREA_STYLE('',(#1885));
#1885 = FILL_AREA_STYLE_COLOUR('',#1886);
#1886 = DRAUGHTING_PRE_DEFINED_COLOUR('white');
#1887 = CURVE_STYLE('',#1888,POSITIVE_LENGTH_MEASURE(0.1),#1886);
#1888 = DRAUGHTING_PRE_DEFINED_CURVE_FONT('continuous');
#1889 = MECHANICAL_DESIGN_GEOMETRIC_PRESENTATION_REPRESENTATION('',(
    #1890),#1687);
#1890 = STYLED_ITEM('color',(#1891),#1167);
#1891 = PRESENTATION_STYLE_ASSIGNMENT((#1892,#1898));
#1892 = SURFACE_STYLE_USAGE(.BOTH.,#1893);
#1893 = SURFACE_SIDE_STYLE('',(#1894));
#1894 = SURFACE_STYLE_FILL_AREA(#1895);
#1895 = FILL_AREA_STYLE('',(#1896));
#1896 = FILL_AREA_STYLE_COLOUR('',#1897);
#1897 = COLOUR_RGB('',0.25098037884,0.25098037884,0.25098037884);
#1898 = CURVE_STYLE('',#1899,POSITIVE_LENGTH_MEASURE(0.1),#1897);
#1899 = DRAUGHTING_PRE_DEFINED_CURVE_FONT('continuous');
#1900 = MECHANICAL_DESIGN_GEOMETRIC_PRESENTATION_REPRESENTATION('',(
    #1901),#1148);
#1901 = STYLED_ITEM('color',(#1902),#606);
#1902 = PRESENTATION_STYLE_ASSIGNMENT((#1903,#1908));
#1903 = SURFACE_STYLE_USAGE(.BOTH.,#1904);
#1904 = SURFACE_SIDE_STYLE('',(#1905));
#1905 = SURFACE_STYLE_FILL_AREA(#1906);
#1906 = FILL_AREA_STYLE('',(#1907));
#1907 = FILL_AREA_STYLE_COLOUR('',#1875);
#1908 = CURVE_STYLE('',#1909,POSITIVE_LENGTH_MEASURE(0.1),#1875);
#1909 = DRAUGHTING_PRE_DEFINED_CURVE_FONT('continuous');
ENDSEC;
END-ISO-10303-21;
