ISO-10303-21;
HEADER;
FILE_DESCRIPTION(('FreeCAD Model'),'2;1');
FILE_NAME('Open CASCADE Shape Model','2025-08-09T15:50:21',(''),(''),
  'Open CASCADE STEP processor 7.8','FreeCAD','Unknown');
FILE_SCHEMA(('AUTOMOTIVE_DESIGN { 1 0 10303 214 1 1 1 1 }'));
ENDSEC;
DATA;
#1 = APPLICATION_PROTOCOL_DEFINITION('international standard',
  'automotive_design',2000,#2);
#2 = APPLICATION_CONTEXT(
  'core data for automotive mechanical design processes');
#3 = SHAPE_DEFINITION_REPRESENTATION(#4,#10);
#4 = PRODUCT_DEFINITION_SHAPE('','',#5);
#5 = PRODUCT_DEFINITION('design','',#6,#9);
#6 = PRODUCT_DEFINITION_FORMATION('','',#7);
#7 = PRODUCT('Scale008','Scale008','',(#8));
#8 = PRODUCT_CONTEXT('',#2,'mechanical');
#9 = PRODUCT_DEFINITION_CONTEXT('part definition',#2,'design');
#10 = ADVANCED_BREP_SHAPE_REPRESENTATION('',(#11,#15),#469);
#11 = AXIS2_PLACEMENT_3D('',#12,#13,#14);
#12 = CARTESIAN_POINT('',(0.,0.,0.));
#13 = DIRECTION('',(0.,0.,1.));
#14 = DIRECTION('',(1.,0.,-0.));
#15 = MANIFOLD_SOLID_BREP('',#16);
#16 = CLOSED_SHELL('',(#17,#53,#89,#149,#181,#209,#235,#257,#282,#301,
    #319,#347,#375,#397,#415,#433,#445,#457));
#17 = ADVANCED_FACE('',(#18),#48,.F.);
#18 = FACE_BOUND('',#19,.F.);
#19 = EDGE_LOOP('',(#20,#29,#36,#43));
#20 = ORIENTED_EDGE('',*,*,#21,.T.);
#21 = EDGE_CURVE('',#22,#24,#26,.T.);
#22 = VERTEX_POINT('',#23);
#23 = CARTESIAN_POINT('',(-1.3,-1.2,2.50005));
#24 = VERTEX_POINT('',#25);
#25 = CARTESIAN_POINT('',(-1.55,-1.2,2.50005));
#26 = B_SPLINE_CURVE_WITH_KNOTS('',1,(#27,#28),.UNSPECIFIED.,.F.,.F.,(2,
    2),(0.,0.25),.PIECEWISE_BEZIER_KNOTS.);
#27 = CARTESIAN_POINT('',(-1.3,-1.2,2.50005));
#28 = CARTESIAN_POINT('',(-1.55,-1.2,2.50005));
#29 = ORIENTED_EDGE('',*,*,#30,.T.);
#30 = EDGE_CURVE('',#24,#31,#33,.T.);
#31 = VERTEX_POINT('',#32);
#32 = CARTESIAN_POINT('',(-1.55,1.2,2.50005));
#33 = B_SPLINE_CURVE_WITH_KNOTS('',1,(#34,#35),.UNSPECIFIED.,.F.,.F.,(2,
    2),(5.E-02,2.45),.PIECEWISE_BEZIER_KNOTS.);
#34 = CARTESIAN_POINT('',(-1.55,-1.2,2.50005));
#35 = CARTESIAN_POINT('',(-1.55,1.2,2.50005));
#36 = ORIENTED_EDGE('',*,*,#37,.F.);
#37 = EDGE_CURVE('',#38,#31,#40,.T.);
#38 = VERTEX_POINT('',#39);
#39 = CARTESIAN_POINT('',(-1.3,1.2,2.50005));
#40 = B_SPLINE_CURVE_WITH_KNOTS('',1,(#41,#42),.UNSPECIFIED.,.F.,.F.,(2,
    2),(-0.15,0.1),.PIECEWISE_BEZIER_KNOTS.);
#41 = CARTESIAN_POINT('',(-1.3,1.2,2.50005));
#42 = CARTESIAN_POINT('',(-1.55,1.2,2.50005));
#43 = ORIENTED_EDGE('',*,*,#44,.F.);
#44 = EDGE_CURVE('',#22,#38,#45,.T.);
#45 = B_SPLINE_CURVE_WITH_KNOTS('',1,(#46,#47),.UNSPECIFIED.,.F.,.F.,(2,
    2),(5.E-02,2.45),.PIECEWISE_BEZIER_KNOTS.);
#46 = CARTESIAN_POINT('',(-1.3,-1.2,2.50005));
#47 = CARTESIAN_POINT('',(-1.3,1.2,2.50005));
#48 = B_SPLINE_SURFACE_WITH_KNOTS('',1,1,(
    (#49,#50)
    ,(#51,#52
    )),.UNSPECIFIED.,.F.,.F.,.F.,(2,2),(2,2),(-0.15,0.1),(5.E-02,2.45),
  .PIECEWISE_BEZIER_KNOTS.);
#49 = CARTESIAN_POINT('',(-1.3,-1.2,2.50005));
#50 = CARTESIAN_POINT('',(-1.3,1.2,2.50005));
#51 = CARTESIAN_POINT('',(-1.55,-1.2,2.50005));
#52 = CARTESIAN_POINT('',(-1.55,1.2,2.50005));
#53 = ADVANCED_FACE('',(#54),#84,.F.);
#54 = FACE_BOUND('',#55,.F.);
#55 = EDGE_LOOP('',(#56,#65,#72,#79));
#56 = ORIENTED_EDGE('',*,*,#57,.T.);
#57 = EDGE_CURVE('',#58,#60,#62,.T.);
#58 = VERTEX_POINT('',#59);
#59 = CARTESIAN_POINT('',(-1.6,-1.2,2.440525));
#60 = VERTEX_POINT('',#61);
#61 = CARTESIAN_POINT('',(-1.6,-1.2,5.9525E-02));
#62 = B_SPLINE_CURVE_WITH_KNOTS('',1,(#63,#64),.UNSPECIFIED.,.F.,.F.,(2,
    2),(5.E-02,2.05),.PIECEWISE_BEZIER_KNOTS.);
#63 = CARTESIAN_POINT('',(-1.6,-1.2,2.440525));
#64 = CARTESIAN_POINT('',(-1.6,-1.2,5.9525E-02));
#65 = ORIENTED_EDGE('',*,*,#66,.T.);
#66 = EDGE_CURVE('',#60,#67,#69,.T.);
#67 = VERTEX_POINT('',#68);
#68 = CARTESIAN_POINT('',(-1.6,1.2,5.9525E-02));
#69 = B_SPLINE_CURVE_WITH_KNOTS('',1,(#70,#71),.UNSPECIFIED.,.F.,.F.,(2,
    2),(5.E-02,2.45),.PIECEWISE_BEZIER_KNOTS.);
#70 = CARTESIAN_POINT('',(-1.6,-1.2,5.9525E-02));
#71 = CARTESIAN_POINT('',(-1.6,1.2,5.9525E-02));
#72 = ORIENTED_EDGE('',*,*,#73,.F.);
#73 = EDGE_CURVE('',#74,#67,#76,.T.);
#74 = VERTEX_POINT('',#75);
#75 = CARTESIAN_POINT('',(-1.6,1.2,2.440525));
#76 = B_SPLINE_CURVE_WITH_KNOTS('',1,(#77,#78),.UNSPECIFIED.,.F.,.F.,(2,
    2),(-1.,1.),.PIECEWISE_BEZIER_KNOTS.);
#77 = CARTESIAN_POINT('',(-1.6,1.2,2.440525));
#78 = CARTESIAN_POINT('',(-1.6,1.2,5.9525E-02));
#79 = ORIENTED_EDGE('',*,*,#80,.F.);
#80 = EDGE_CURVE('',#58,#74,#81,.T.);
#81 = B_SPLINE_CURVE_WITH_KNOTS('',1,(#82,#83),.UNSPECIFIED.,.F.,.F.,(2,
    2),(5.E-02,2.45),.PIECEWISE_BEZIER_KNOTS.);
#82 = CARTESIAN_POINT('',(-1.6,-1.2,2.440525));
#83 = CARTESIAN_POINT('',(-1.6,1.2,2.440525));
#84 = B_SPLINE_SURFACE_WITH_KNOTS('',1,1,(
    (#85,#86)
    ,(#87,#88
    )),.UNSPECIFIED.,.F.,.F.,.F.,(2,2),(2,2),(-1.,1.),(5.E-02,2.45),
  .PIECEWISE_BEZIER_KNOTS.);
#85 = CARTESIAN_POINT('',(-1.6,-1.2,2.440525));
#86 = CARTESIAN_POINT('',(-1.6,1.2,2.440525));
#87 = CARTESIAN_POINT('',(-1.6,-1.2,5.9525E-02));
#88 = CARTESIAN_POINT('',(-1.6,1.2,5.9525E-02));
#89 = ADVANCED_FACE('',(#90),#144,.F.);
#90 = FACE_BOUND('',#91,.F.);
#91 = EDGE_LOOP('',(#92,#102,#109,#117,#124,#130,#131,#139));
#92 = ORIENTED_EDGE('',*,*,#93,.T.);
#93 = EDGE_CURVE('',#94,#96,#98,.T.);
#94 = VERTEX_POINT('',#95);
#95 = CARTESIAN_POINT('',(-1.3,1.25,5.9525E-02));
#96 = VERTEX_POINT('',#97);
#97 = CARTESIAN_POINT('',(-1.3,1.2,0.));
#98 = ( BOUNDED_CURVE() B_SPLINE_CURVE(2,(#99,#100,#101),.UNSPECIFIED.,
.F.,.F.) B_SPLINE_CURVE_WITH_KNOTS((3,3),(1.570796326795,3.14159265359),
.PIECEWISE_BEZIER_KNOTS.) CURVE() GEOMETRIC_REPRESENTATION_ITEM() 
RATIONAL_B_SPLINE_CURVE((1.,0.707106781187,1.)) REPRESENTATION_ITEM('') 
  );
#99 = CARTESIAN_POINT('',(-1.3,1.25,5.9525E-02));
#100 = CARTESIAN_POINT('',(-1.3,1.25,1.65215063852E-17));
#101 = CARTESIAN_POINT('',(-1.3,1.2,0.));
#102 = ORIENTED_EDGE('',*,*,#103,.F.);
#103 = EDGE_CURVE('',#104,#96,#106,.T.);
#104 = VERTEX_POINT('',#105);
#105 = CARTESIAN_POINT('',(-1.3,-1.2,0.));
#106 = B_SPLINE_CURVE_WITH_KNOTS('',1,(#107,#108),.UNSPECIFIED.,.F.,.F.,
  (2,2),(5.E-02,2.45),.PIECEWISE_BEZIER_KNOTS.);
#107 = CARTESIAN_POINT('',(-1.3,-1.2,0.));
#108 = CARTESIAN_POINT('',(-1.3,1.2,0.));
#109 = ORIENTED_EDGE('',*,*,#110,.T.);
#110 = EDGE_CURVE('',#104,#111,#113,.T.);
#111 = VERTEX_POINT('',#112);
#112 = CARTESIAN_POINT('',(-1.3,-1.25,5.9525E-02));
#113 = ( BOUNDED_CURVE() B_SPLINE_CURVE(2,(#114,#115,#116),
.UNSPECIFIED.,.F.,.F.) B_SPLINE_CURVE_WITH_KNOTS((3,3),(3.14159265359,
4.712388980385),.PIECEWISE_BEZIER_KNOTS.) CURVE() 
GEOMETRIC_REPRESENTATION_ITEM() RATIONAL_B_SPLINE_CURVE((1.,
0.707106781187,1.)) REPRESENTATION_ITEM('') );
#114 = CARTESIAN_POINT('',(-1.3,-1.2,0.));
#115 = CARTESIAN_POINT('',(-1.3,-1.25,-1.65215063852E-17));
#116 = CARTESIAN_POINT('',(-1.3,-1.25,5.9525E-02));
#117 = ORIENTED_EDGE('',*,*,#118,.T.);
#118 = EDGE_CURVE('',#111,#119,#121,.T.);
#119 = VERTEX_POINT('',#120);
#120 = CARTESIAN_POINT('',(-1.3,-1.25,2.440525));
#121 = B_SPLINE_CURVE_WITH_KNOTS('',1,(#122,#123),.UNSPECIFIED.,.F.,.F.,
  (2,2),(-1.224600008,0.775399992),.PIECEWISE_BEZIER_KNOTS.);
#122 = CARTESIAN_POINT('',(-1.3,-1.25,5.9525E-02));
#123 = CARTESIAN_POINT('',(-1.3,-1.25,2.440525));
#124 = ORIENTED_EDGE('',*,*,#125,.T.);
#125 = EDGE_CURVE('',#119,#22,#126,.T.);
#126 = ( BOUNDED_CURVE() B_SPLINE_CURVE(2,(#127,#128,#129),
.UNSPECIFIED.,.F.,.F.) B_SPLINE_CURVE_WITH_KNOTS((3,3),(4.712388980385,
6.28318530718),.PIECEWISE_BEZIER_KNOTS.) CURVE() 
GEOMETRIC_REPRESENTATION_ITEM() RATIONAL_B_SPLINE_CURVE((1.,
0.707106781187,1.)) REPRESENTATION_ITEM('') );
#127 = CARTESIAN_POINT('',(-1.3,-1.25,2.440525));
#128 = CARTESIAN_POINT('',(-1.3,-1.25,2.50005));
#129 = CARTESIAN_POINT('',(-1.3,-1.2,2.50005));
#130 = ORIENTED_EDGE('',*,*,#44,.T.);
#131 = ORIENTED_EDGE('',*,*,#132,.T.);
#132 = EDGE_CURVE('',#38,#133,#135,.T.);
#133 = VERTEX_POINT('',#134);
#134 = CARTESIAN_POINT('',(-1.3,1.25,2.440525));
#135 = ( BOUNDED_CURVE() B_SPLINE_CURVE(2,(#136,#137,#138),
.UNSPECIFIED.,.F.,.F.) B_SPLINE_CURVE_WITH_KNOTS((3,3),(0.,
1.570796326795),.PIECEWISE_BEZIER_KNOTS.) CURVE() 
GEOMETRIC_REPRESENTATION_ITEM() RATIONAL_B_SPLINE_CURVE((1.,
0.707106781187,1.)) REPRESENTATION_ITEM('') );
#136 = CARTESIAN_POINT('',(-1.3,1.2,2.50005));
#137 = CARTESIAN_POINT('',(-1.3,1.25,2.50005));
#138 = CARTESIAN_POINT('',(-1.3,1.25,2.440525));
#139 = ORIENTED_EDGE('',*,*,#140,.F.);
#140 = EDGE_CURVE('',#94,#133,#141,.T.);
#141 = B_SPLINE_CURVE_WITH_KNOTS('',1,(#142,#143),.UNSPECIFIED.,.F.,.F.,
  (2,2),(-1.224600008,0.775399992),.PIECEWISE_BEZIER_KNOTS.);
#142 = CARTESIAN_POINT('',(-1.3,1.25,5.9525E-02));
#143 = CARTESIAN_POINT('',(-1.3,1.25,2.440525));
#144 = B_SPLINE_SURFACE_WITH_KNOTS('',1,1,(
    (#145,#146)
    ,(#147,#148
    )),.UNSPECIFIED.,.F.,.F.,.F.,(2,2),(2,2),(-1.274600008,0.825399992),
  (0.,2.5),.PIECEWISE_BEZIER_KNOTS.);
#145 = CARTESIAN_POINT('',(-1.3,-1.25,0.));
#146 = CARTESIAN_POINT('',(-1.3,1.25,0.));
#147 = CARTESIAN_POINT('',(-1.3,-1.25,2.50005));
#148 = CARTESIAN_POINT('',(-1.3,1.25,2.50005));
#149 = ADVANCED_FACE('',(#150),#174,.T.);
#150 = FACE_BOUND('',#151,.T.);
#151 = EDGE_LOOP('',(#152,#160,#167,#173));
#152 = ORIENTED_EDGE('',*,*,#153,.F.);
#153 = EDGE_CURVE('',#154,#74,#156,.T.);
#154 = VERTEX_POINT('',#155);
#155 = CARTESIAN_POINT('',(-1.55,1.25,2.440525));
#156 = ( BOUNDED_CURVE() B_SPLINE_CURVE(2,(#157,#158,#159),
.UNSPECIFIED.,.F.,.F.) B_SPLINE_CURVE_WITH_KNOTS((3,3),(1.570796326795,
3.14159265359),.PIECEWISE_BEZIER_KNOTS.) CURVE() 
GEOMETRIC_REPRESENTATION_ITEM() RATIONAL_B_SPLINE_CURVE((1.,
0.707106781187,1.)) REPRESENTATION_ITEM('') );
#157 = CARTESIAN_POINT('',(-1.55,1.25,2.440525));
#158 = CARTESIAN_POINT('',(-1.6,1.25,2.440525));
#159 = CARTESIAN_POINT('',(-1.6,1.2,2.440525));
#160 = ORIENTED_EDGE('',*,*,#161,.T.);
#161 = EDGE_CURVE('',#154,#162,#164,.T.);
#162 = VERTEX_POINT('',#163);
#163 = CARTESIAN_POINT('',(-1.55,1.25,5.9525E-02));
#164 = B_SPLINE_CURVE_WITH_KNOTS('',1,(#165,#166),.UNSPECIFIED.,.F.,.F.,
  (2,2),(-1.,1.),.PIECEWISE_BEZIER_KNOTS.);
#165 = CARTESIAN_POINT('',(-1.55,1.25,2.440525));
#166 = CARTESIAN_POINT('',(-1.55,1.25,5.9525E-02));
#167 = ORIENTED_EDGE('',*,*,#168,.F.);
#168 = EDGE_CURVE('',#67,#162,#169,.T.);
#169 = ( BOUNDED_CURVE() B_SPLINE_CURVE(2,(#170,#171,#172),
.UNSPECIFIED.,.F.,.F.) B_SPLINE_CURVE_WITH_KNOTS((3,3),(0.,
1.570796326795),.PIECEWISE_BEZIER_KNOTS.) CURVE() 
GEOMETRIC_REPRESENTATION_ITEM() RATIONAL_B_SPLINE_CURVE((1.,
0.707106781187,1.)) REPRESENTATION_ITEM('') );
#170 = CARTESIAN_POINT('',(-1.6,1.2,5.9525E-02));
#171 = CARTESIAN_POINT('',(-1.6,1.25,5.9525E-02));
#172 = CARTESIAN_POINT('',(-1.55,1.25,5.9525E-02));
#173 = ORIENTED_EDGE('',*,*,#73,.F.);
#174 = ( BOUNDED_SURFACE() B_SPLINE_SURFACE(2,1,(
    (#175,#176)
    ,(#177,#178)
,(#179,#180
    )),.UNSPECIFIED.,.F.,.F.,.F.) B_SPLINE_SURFACE_WITH_KNOTS((3,3),(2,2
    ),(4.712388980385,6.28318530718),(-1.,1.),.PIECEWISE_BEZIER_KNOTS.) 
GEOMETRIC_REPRESENTATION_ITEM() RATIONAL_B_SPLINE_SURFACE((
    (1.,1.)
    ,(0.707106781187,0.707106781187)
,(1.,1.))) REPRESENTATION_ITEM('') SURFACE() );
#175 = CARTESIAN_POINT('',(-1.55,1.25,5.9525E-02));
#176 = CARTESIAN_POINT('',(-1.55,1.25,2.440525));
#177 = CARTESIAN_POINT('',(-1.6,1.25,5.9525E-02));
#178 = CARTESIAN_POINT('',(-1.6,1.25,2.440525));
#179 = CARTESIAN_POINT('',(-1.6,1.2,5.9525E-02));
#180 = CARTESIAN_POINT('',(-1.6,1.2,2.440525));
#181 = ADVANCED_FACE('',(#182),#199,.T.);
#182 = FACE_BOUND('',#183,.T.);
#183 = EDGE_LOOP('',(#184,#192,#198));
#184 = ORIENTED_EDGE('',*,*,#185,.T.);
#185 = EDGE_CURVE('',#162,#186,#188,.T.);
#186 = VERTEX_POINT('',#187);
#187 = CARTESIAN_POINT('',(-1.55,1.2,0.));
#188 = ( BOUNDED_CURVE() B_SPLINE_CURVE(2,(#189,#190,#191),
.UNSPECIFIED.,.F.,.F.) B_SPLINE_CURVE_WITH_KNOTS((3,3),(1.570796326795,
3.14159265359),.PIECEWISE_BEZIER_KNOTS.) CURVE() 
GEOMETRIC_REPRESENTATION_ITEM() RATIONAL_B_SPLINE_CURVE((1.,
0.707106781187,1.)) REPRESENTATION_ITEM('') );
#189 = CARTESIAN_POINT('',(-1.55,1.25,5.9525E-02));
#190 = CARTESIAN_POINT('',(-1.55,1.25,1.65215063852E-17));
#191 = CARTESIAN_POINT('',(-1.55,1.2,0.));
#192 = ORIENTED_EDGE('',*,*,#193,.T.);
#193 = EDGE_CURVE('',#186,#67,#194,.T.);
#194 = ( BOUNDED_CURVE() B_SPLINE_CURVE(2,(#195,#196,#197),
.UNSPECIFIED.,.F.,.F.) B_SPLINE_CURVE_WITH_KNOTS((3,3),(3.14159265359,
4.712388980385),.PIECEWISE_BEZIER_KNOTS.) CURVE() 
GEOMETRIC_REPRESENTATION_ITEM() RATIONAL_B_SPLINE_CURVE((1.,
0.707106781187,1.)) REPRESENTATION_ITEM('') );
#195 = CARTESIAN_POINT('',(-1.55,1.2,0.));
#196 = CARTESIAN_POINT('',(-1.6,1.2,-1.65215063852E-17));
#197 = CARTESIAN_POINT('',(-1.6,1.2,5.9525E-02));
#198 = ORIENTED_EDGE('',*,*,#168,.T.);
#199 = ( BOUNDED_SURFACE() B_SPLINE_SURFACE(2,2,(
    (#200,#201,#202)
    ,(#203,#204,#205)
    ,(#206,#207,#208
)),.UNSPECIFIED.,.F.,.F.,.F.) B_SPLINE_SURFACE_WITH_KNOTS((3,3),(3,3),(
    1.570796326795,3.14159265359),(-1.570796326795,0.),
.PIECEWISE_BEZIER_KNOTS.) GEOMETRIC_REPRESENTATION_ITEM() 
RATIONAL_B_SPLINE_SURFACE((
    (1.,0.707106781187,1.)
    ,(0.707106781187,0.5,0.707106781187)
,(1.,0.707106781187,1.))) REPRESENTATION_ITEM('') SURFACE() );
#200 = CARTESIAN_POINT('',(-1.55,1.2,0.));
#201 = CARTESIAN_POINT('',(-1.55,1.25,0.));
#202 = CARTESIAN_POINT('',(-1.55,1.25,5.9525E-02));
#203 = CARTESIAN_POINT('',(-1.55,1.2,0.));
#204 = CARTESIAN_POINT('',(-1.6,1.25,0.));
#205 = CARTESIAN_POINT('',(-1.6,1.25,5.9525E-02));
#206 = CARTESIAN_POINT('',(-1.55,1.2,0.));
#207 = CARTESIAN_POINT('',(-1.6,1.2,0.));
#208 = CARTESIAN_POINT('',(-1.6,1.2,5.9525E-02));
#209 = ADVANCED_FACE('',(#210),#225,.T.);
#210 = FACE_BOUND('',#211,.T.);
#211 = EDGE_LOOP('',(#212,#218,#224));
#212 = ORIENTED_EDGE('',*,*,#213,.T.);
#213 = EDGE_CURVE('',#74,#31,#214,.T.);
#214 = ( BOUNDED_CURVE() B_SPLINE_CURVE(2,(#215,#216,#217),
.UNSPECIFIED.,.F.,.F.) B_SPLINE_CURVE_WITH_KNOTS((3,3),(4.712388980385,
6.28318530718),.PIECEWISE_BEZIER_KNOTS.) CURVE() 
GEOMETRIC_REPRESENTATION_ITEM() RATIONAL_B_SPLINE_CURVE((1.,
0.707106781187,1.)) REPRESENTATION_ITEM('') );
#215 = CARTESIAN_POINT('',(-1.6,1.2,2.440525));
#216 = CARTESIAN_POINT('',(-1.6,1.2,2.50005));
#217 = CARTESIAN_POINT('',(-1.55,1.2,2.50005));
#218 = ORIENTED_EDGE('',*,*,#219,.T.);
#219 = EDGE_CURVE('',#31,#154,#220,.T.);
#220 = ( BOUNDED_CURVE() B_SPLINE_CURVE(2,(#221,#222,#223),
.UNSPECIFIED.,.F.,.F.) B_SPLINE_CURVE_WITH_KNOTS((3,3),(0.,
1.570796326795),.PIECEWISE_BEZIER_KNOTS.) CURVE() 
GEOMETRIC_REPRESENTATION_ITEM() RATIONAL_B_SPLINE_CURVE((1.,
0.707106781187,1.)) REPRESENTATION_ITEM('') );
#221 = CARTESIAN_POINT('',(-1.55,1.2,2.50005));
#222 = CARTESIAN_POINT('',(-1.55,1.25,2.50005));
#223 = CARTESIAN_POINT('',(-1.55,1.25,2.440525));
#224 = ORIENTED_EDGE('',*,*,#153,.T.);
#225 = ( BOUNDED_SURFACE() B_SPLINE_SURFACE(2,2,(
    (#226,#227,#228)
    ,(#229,#230,#231)
    ,(#232,#233,#234
)),.UNSPECIFIED.,.F.,.F.,.F.) B_SPLINE_SURFACE_WITH_KNOTS((3,3),(3,3),(
    1.570796326795,3.14159265359),(0.,1.570796326795),
.PIECEWISE_BEZIER_KNOTS.) GEOMETRIC_REPRESENTATION_ITEM() 
RATIONAL_B_SPLINE_SURFACE((
    (1.,0.707106781187,1.)
    ,(0.707106781187,0.5,0.707106781187)
,(1.,0.707106781187,1.))) REPRESENTATION_ITEM('') SURFACE() );
#226 = CARTESIAN_POINT('',(-1.55,1.25,2.440525));
#227 = CARTESIAN_POINT('',(-1.55,1.25,2.50005));
#228 = CARTESIAN_POINT('',(-1.55,1.2,2.50005));
#229 = CARTESIAN_POINT('',(-1.6,1.25,2.440525));
#230 = CARTESIAN_POINT('',(-1.6,1.25,2.50005));
#231 = CARTESIAN_POINT('',(-1.55,1.2,2.50005));
#232 = CARTESIAN_POINT('',(-1.6,1.2,2.440525));
#233 = CARTESIAN_POINT('',(-1.6,1.2,2.50005));
#234 = CARTESIAN_POINT('',(-1.55,1.2,2.50005));
#235 = ADVANCED_FACE('',(#236),#250,.T.);
#236 = FACE_BOUND('',#237,.T.);
#237 = EDGE_LOOP('',(#238,#239,#244,#245));
#238 = ORIENTED_EDGE('',*,*,#93,.T.);
#239 = ORIENTED_EDGE('',*,*,#240,.F.);
#240 = EDGE_CURVE('',#186,#96,#241,.T.);
#241 = B_SPLINE_CURVE_WITH_KNOTS('',1,(#242,#243),.UNSPECIFIED.,.F.,.F.,
  (2,2),(-0.1,0.15),.PIECEWISE_BEZIER_KNOTS.);
#242 = CARTESIAN_POINT('',(-1.55,1.2,0.));
#243 = CARTESIAN_POINT('',(-1.3,1.2,0.));
#244 = ORIENTED_EDGE('',*,*,#185,.F.);
#245 = ORIENTED_EDGE('',*,*,#246,.T.);
#246 = EDGE_CURVE('',#162,#94,#247,.T.);
#247 = B_SPLINE_CURVE_WITH_KNOTS('',1,(#248,#249),.UNSPECIFIED.,.F.,.F.,
  (2,2),(-0.75,-0.5),.PIECEWISE_BEZIER_KNOTS.);
#248 = CARTESIAN_POINT('',(-1.55,1.25,5.9525E-02));
#249 = CARTESIAN_POINT('',(-1.3,1.25,5.9525E-02));
#250 = ( BOUNDED_SURFACE() B_SPLINE_SURFACE(2,1,(
    (#251,#252)
    ,(#253,#254)
,(#255,#256
    )),.UNSPECIFIED.,.F.,.F.,.F.) B_SPLINE_SURFACE_WITH_KNOTS((3,3),(2,2
    ),(4.712388980385,6.28318530718),(-0.15,0.1),
.PIECEWISE_BEZIER_KNOTS.) GEOMETRIC_REPRESENTATION_ITEM() 
RATIONAL_B_SPLINE_SURFACE((
    (1.,1.)
    ,(0.707106781187,0.707106781187)
,(1.,1.))) REPRESENTATION_ITEM('') SURFACE() );
#251 = CARTESIAN_POINT('',(-1.3,1.25,5.9525E-02));
#252 = CARTESIAN_POINT('',(-1.55,1.25,5.9525E-02));
#253 = CARTESIAN_POINT('',(-1.3,1.25,1.65215063852E-17));
#254 = CARTESIAN_POINT('',(-1.55,1.25,1.65215063852E-17));
#255 = CARTESIAN_POINT('',(-1.3,1.2,0.));
#256 = CARTESIAN_POINT('',(-1.55,1.2,0.));
#257 = ADVANCED_FACE('',(#258),#275,.T.);
#258 = FACE_BOUND('',#259,.T.);
#259 = EDGE_LOOP('',(#260,#268,#269,#270));
#260 = ORIENTED_EDGE('',*,*,#261,.F.);
#261 = EDGE_CURVE('',#60,#262,#264,.T.);
#262 = VERTEX_POINT('',#263);
#263 = CARTESIAN_POINT('',(-1.55,-1.2,0.));
#264 = ( BOUNDED_CURVE() B_SPLINE_CURVE(2,(#265,#266,#267),
.UNSPECIFIED.,.F.,.F.) B_SPLINE_CURVE_WITH_KNOTS((3,3),(4.712388980385,
6.28318530718),.PIECEWISE_BEZIER_KNOTS.) CURVE() 
GEOMETRIC_REPRESENTATION_ITEM() RATIONAL_B_SPLINE_CURVE((1.,
0.707106781187,1.)) REPRESENTATION_ITEM('') );
#265 = CARTESIAN_POINT('',(-1.6,-1.2,5.9525E-02));
#266 = CARTESIAN_POINT('',(-1.6,-1.2,1.65215063852E-17));
#267 = CARTESIAN_POINT('',(-1.55,-1.2,0.));
#268 = ORIENTED_EDGE('',*,*,#66,.T.);
#269 = ORIENTED_EDGE('',*,*,#193,.F.);
#270 = ORIENTED_EDGE('',*,*,#271,.F.);
#271 = EDGE_CURVE('',#262,#186,#272,.T.);
#272 = B_SPLINE_CURVE_WITH_KNOTS('',1,(#273,#274),.UNSPECIFIED.,.F.,.F.,
  (2,2),(5.E-02,2.45),.PIECEWISE_BEZIER_KNOTS.);
#273 = CARTESIAN_POINT('',(-1.55,-1.2,0.));
#274 = CARTESIAN_POINT('',(-1.55,1.2,0.));
#275 = ( BOUNDED_SURFACE() B_SPLINE_SURFACE(2,1,(
    (#276,#277)
    ,(#278,#279)
,(#280,#281
    )),.UNSPECIFIED.,.F.,.F.,.F.) B_SPLINE_SURFACE_WITH_KNOTS((3,3),(2,2
    ),(1.570796326795,3.14159265359),(-2.45,-5.E-02),
.PIECEWISE_BEZIER_KNOTS.) GEOMETRIC_REPRESENTATION_ITEM() 
RATIONAL_B_SPLINE_SURFACE((
    (1.,1.)
    ,(0.707106781187,0.707106781187)
,(1.,1.))) REPRESENTATION_ITEM('') SURFACE() );
#276 = CARTESIAN_POINT('',(-1.6,1.2,5.9525E-02));
#277 = CARTESIAN_POINT('',(-1.6,-1.2,5.9525E-02));
#278 = CARTESIAN_POINT('',(-1.6,1.2,8.260753192601E-18));
#279 = CARTESIAN_POINT('',(-1.6,-1.2,8.260753192601E-18));
#280 = CARTESIAN_POINT('',(-1.55,1.2,0.));
#281 = CARTESIAN_POINT('',(-1.55,-1.2,0.));
#282 = ADVANCED_FACE('',(#283),#294,.T.);
#283 = FACE_BOUND('',#284,.T.);
#284 = EDGE_LOOP('',(#285,#291,#292,#293));
#285 = ORIENTED_EDGE('',*,*,#286,.F.);
#286 = EDGE_CURVE('',#24,#58,#287,.T.);
#287 = ( BOUNDED_CURVE() B_SPLINE_CURVE(2,(#288,#289,#290),
.UNSPECIFIED.,.F.,.F.) B_SPLINE_CURVE_WITH_KNOTS((3,3),(3.14159265359,
4.712388980385),.PIECEWISE_BEZIER_KNOTS.) CURVE() 
GEOMETRIC_REPRESENTATION_ITEM() RATIONAL_B_SPLINE_CURVE((1.,
0.707106781187,1.)) REPRESENTATION_ITEM('') );
#288 = CARTESIAN_POINT('',(-1.55,-1.2,2.50005));
#289 = CARTESIAN_POINT('',(-1.6,-1.2,2.50005));
#290 = CARTESIAN_POINT('',(-1.6,-1.2,2.440525));
#291 = ORIENTED_EDGE('',*,*,#30,.T.);
#292 = ORIENTED_EDGE('',*,*,#213,.F.);
#293 = ORIENTED_EDGE('',*,*,#80,.F.);
#294 = ( BOUNDED_SURFACE() B_SPLINE_SURFACE(2,1,(
    (#295,#296)
    ,(#297,#298)
,(#299,#300
    )),.UNSPECIFIED.,.F.,.F.,.F.) B_SPLINE_SURFACE_WITH_KNOTS((3,3),(2,2
    ),(0.,1.570796326795),(-2.45,-5.E-02),.PIECEWISE_BEZIER_KNOTS.) 
GEOMETRIC_REPRESENTATION_ITEM() RATIONAL_B_SPLINE_SURFACE((
    (1.,1.)
    ,(0.707106781187,0.707106781187)
,(1.,1.))) REPRESENTATION_ITEM('') SURFACE() );
#295 = CARTESIAN_POINT('',(-1.55,1.2,2.50005));
#296 = CARTESIAN_POINT('',(-1.55,-1.2,2.50005));
#297 = CARTESIAN_POINT('',(-1.6,1.2,2.50005));
#298 = CARTESIAN_POINT('',(-1.6,-1.2,2.50005));
#299 = CARTESIAN_POINT('',(-1.6,1.2,2.440525));
#300 = CARTESIAN_POINT('',(-1.6,-1.2,2.440525));
#301 = ADVANCED_FACE('',(#302),#312,.T.);
#302 = FACE_BOUND('',#303,.T.);
#303 = EDGE_LOOP('',(#304,#305,#310,#311));
#304 = ORIENTED_EDGE('',*,*,#132,.T.);
#305 = ORIENTED_EDGE('',*,*,#306,.T.);
#306 = EDGE_CURVE('',#133,#154,#307,.T.);
#307 = B_SPLINE_CURVE_WITH_KNOTS('',1,(#308,#309),.UNSPECIFIED.,.F.,.F.,
  (2,2),(0.5,0.75),.PIECEWISE_BEZIER_KNOTS.);
#308 = CARTESIAN_POINT('',(-1.3,1.25,2.440525));
#309 = CARTESIAN_POINT('',(-1.55,1.25,2.440525));
#310 = ORIENTED_EDGE('',*,*,#219,.F.);
#311 = ORIENTED_EDGE('',*,*,#37,.F.);
#312 = ( BOUNDED_SURFACE() B_SPLINE_SURFACE(2,1,(
    (#313,#314)
    ,(#315,#316)
,(#317,#318
    )),.UNSPECIFIED.,.F.,.F.,.F.) B_SPLINE_SURFACE_WITH_KNOTS((3,3),(2,2
    ),(4.712388980385,6.28318530718),(-0.1,0.15),
.PIECEWISE_BEZIER_KNOTS.) GEOMETRIC_REPRESENTATION_ITEM() 
RATIONAL_B_SPLINE_SURFACE((
    (1.,1.)
    ,(0.707106781187,0.707106781187)
,(1.,1.))) REPRESENTATION_ITEM('') SURFACE() );
#313 = CARTESIAN_POINT('',(-1.55,1.25,2.440525));
#314 = CARTESIAN_POINT('',(-1.3,1.25,2.440525));
#315 = CARTESIAN_POINT('',(-1.55,1.25,2.50005));
#316 = CARTESIAN_POINT('',(-1.3,1.25,2.50005));
#317 = CARTESIAN_POINT('',(-1.55,1.2,2.50005));
#318 = CARTESIAN_POINT('',(-1.3,1.2,2.50005));
#319 = ADVANCED_FACE('',(#320),#337,.T.);
#320 = FACE_BOUND('',#321,.T.);
#321 = EDGE_LOOP('',(#322,#330,#336));
#322 = ORIENTED_EDGE('',*,*,#323,.T.);
#323 = EDGE_CURVE('',#262,#324,#326,.T.);
#324 = VERTEX_POINT('',#325);
#325 = CARTESIAN_POINT('',(-1.55,-1.25,5.9525E-02));
#326 = ( BOUNDED_CURVE() B_SPLINE_CURVE(2,(#327,#328,#329),
.UNSPECIFIED.,.F.,.F.) B_SPLINE_CURVE_WITH_KNOTS((3,3),(3.14159265359,
4.712388980385),.PIECEWISE_BEZIER_KNOTS.) CURVE() 
GEOMETRIC_REPRESENTATION_ITEM() RATIONAL_B_SPLINE_CURVE((1.,
0.707106781187,1.)) REPRESENTATION_ITEM('') );
#327 = CARTESIAN_POINT('',(-1.55,-1.2,0.));
#328 = CARTESIAN_POINT('',(-1.55,-1.25,-1.65215063852E-17));
#329 = CARTESIAN_POINT('',(-1.55,-1.25,5.9525E-02));
#330 = ORIENTED_EDGE('',*,*,#331,.T.);
#331 = EDGE_CURVE('',#324,#60,#332,.T.);
#332 = ( BOUNDED_CURVE() B_SPLINE_CURVE(2,(#333,#334,#335),
.UNSPECIFIED.,.F.,.F.) B_SPLINE_CURVE_WITH_KNOTS((3,3),(4.712388980385,
6.28318530718),.PIECEWISE_BEZIER_KNOTS.) CURVE() 
GEOMETRIC_REPRESENTATION_ITEM() RATIONAL_B_SPLINE_CURVE((1.,
0.707106781187,1.)) REPRESENTATION_ITEM('') );
#333 = CARTESIAN_POINT('',(-1.55,-1.25,5.9525E-02));
#334 = CARTESIAN_POINT('',(-1.6,-1.25,5.9525E-02));
#335 = CARTESIAN_POINT('',(-1.6,-1.2,5.9525E-02));
#336 = ORIENTED_EDGE('',*,*,#261,.T.);
#337 = ( BOUNDED_SURFACE() B_SPLINE_SURFACE(2,2,(
    (#338,#339,#340)
    ,(#341,#342,#343)
    ,(#344,#345,#346
)),.UNSPECIFIED.,.F.,.F.,.F.) B_SPLINE_SURFACE_WITH_KNOTS((3,3),(3,3),(
    3.14159265359,4.712388980385),(-1.570796326795,1.7763568394E-15),
.PIECEWISE_BEZIER_KNOTS.) GEOMETRIC_REPRESENTATION_ITEM() 
RATIONAL_B_SPLINE_SURFACE((
    (1.,0.707106781187,1.)
    ,(0.707106781187,0.5,0.707106781187)
,(1.,0.707106781187,1.))) REPRESENTATION_ITEM('') SURFACE() );
#338 = CARTESIAN_POINT('',(-1.55,-1.2,0.));
#339 = CARTESIAN_POINT('',(-1.6,-1.2,0.));
#340 = CARTESIAN_POINT('',(-1.6,-1.2,5.9525E-02));
#341 = CARTESIAN_POINT('',(-1.55,-1.2,0.));
#342 = CARTESIAN_POINT('',(-1.6,-1.25,0.));
#343 = CARTESIAN_POINT('',(-1.6,-1.25,5.9525E-02));
#344 = CARTESIAN_POINT('',(-1.55,-1.2,0.));
#345 = CARTESIAN_POINT('',(-1.55,-1.25,0.));
#346 = CARTESIAN_POINT('',(-1.55,-1.25,5.9525E-02));
#347 = ADVANCED_FACE('',(#348),#365,.T.);
#348 = FACE_BOUND('',#349,.T.);
#349 = EDGE_LOOP('',(#350,#358,#364));
#350 = ORIENTED_EDGE('',*,*,#351,.T.);
#351 = EDGE_CURVE('',#58,#352,#354,.T.);
#352 = VERTEX_POINT('',#353);
#353 = CARTESIAN_POINT('',(-1.55,-1.25,2.440525));
#354 = ( BOUNDED_CURVE() B_SPLINE_CURVE(2,(#355,#356,#357),
.UNSPECIFIED.,.F.,.F.) B_SPLINE_CURVE_WITH_KNOTS((3,3),(3.14159265359,
4.712388980385),.PIECEWISE_BEZIER_KNOTS.) CURVE() 
GEOMETRIC_REPRESENTATION_ITEM() RATIONAL_B_SPLINE_CURVE((1.,
0.707106781187,1.)) REPRESENTATION_ITEM('') );
#355 = CARTESIAN_POINT('',(-1.6,-1.2,2.440525));
#356 = CARTESIAN_POINT('',(-1.6,-1.25,2.440525));
#357 = CARTESIAN_POINT('',(-1.55,-1.25,2.440525));
#358 = ORIENTED_EDGE('',*,*,#359,.T.);
#359 = EDGE_CURVE('',#352,#24,#360,.T.);
#360 = ( BOUNDED_CURVE() B_SPLINE_CURVE(2,(#361,#362,#363),
.UNSPECIFIED.,.F.,.F.) B_SPLINE_CURVE_WITH_KNOTS((3,3),(4.712388980385,
6.28318530718),.PIECEWISE_BEZIER_KNOTS.) CURVE() 
GEOMETRIC_REPRESENTATION_ITEM() RATIONAL_B_SPLINE_CURVE((1.,
0.707106781187,1.)) REPRESENTATION_ITEM('') );
#361 = CARTESIAN_POINT('',(-1.55,-1.25,2.440525));
#362 = CARTESIAN_POINT('',(-1.55,-1.25,2.50005));
#363 = CARTESIAN_POINT('',(-1.55,-1.2,2.50005));
#364 = ORIENTED_EDGE('',*,*,#286,.T.);
#365 = ( BOUNDED_SURFACE() B_SPLINE_SURFACE(2,2,(
    (#366,#367,#368)
    ,(#369,#370,#371)
    ,(#372,#373,#374
)),.UNSPECIFIED.,.F.,.F.,.F.) B_SPLINE_SURFACE_WITH_KNOTS((3,3),(3,3),(
    3.14159265359,4.712388980385),(0.,1.570796326795),
.PIECEWISE_BEZIER_KNOTS.) GEOMETRIC_REPRESENTATION_ITEM() 
RATIONAL_B_SPLINE_SURFACE((
    (1.,0.707106781187,1.)
    ,(0.707106781187,0.5,0.707106781187)
,(1.,0.707106781187,1.))) REPRESENTATION_ITEM('') SURFACE() );
#366 = CARTESIAN_POINT('',(-1.6,-1.2,2.440525));
#367 = CARTESIAN_POINT('',(-1.6,-1.2,2.50005));
#368 = CARTESIAN_POINT('',(-1.55,-1.2,2.50005));
#369 = CARTESIAN_POINT('',(-1.6,-1.25,2.440525));
#370 = CARTESIAN_POINT('',(-1.6,-1.25,2.50005));
#371 = CARTESIAN_POINT('',(-1.55,-1.2,2.50005));
#372 = CARTESIAN_POINT('',(-1.55,-1.25,2.440525));
#373 = CARTESIAN_POINT('',(-1.55,-1.25,2.50005));
#374 = CARTESIAN_POINT('',(-1.55,-1.2,2.50005));
#375 = ADVANCED_FACE('',(#376),#390,.T.);
#376 = FACE_BOUND('',#377,.T.);
#377 = EDGE_LOOP('',(#378,#379,#384,#385));
#378 = ORIENTED_EDGE('',*,*,#110,.T.);
#379 = ORIENTED_EDGE('',*,*,#380,.F.);
#380 = EDGE_CURVE('',#324,#111,#381,.T.);
#381 = B_SPLINE_CURVE_WITH_KNOTS('',1,(#382,#383),.UNSPECIFIED.,.F.,.F.,
  (2,2),(-0.25,0.),.PIECEWISE_BEZIER_KNOTS.);
#382 = CARTESIAN_POINT('',(-1.55,-1.25,5.9525E-02));
#383 = CARTESIAN_POINT('',(-1.3,-1.25,5.9525E-02));
#384 = ORIENTED_EDGE('',*,*,#323,.F.);
#385 = ORIENTED_EDGE('',*,*,#386,.T.);
#386 = EDGE_CURVE('',#262,#104,#387,.T.);
#387 = B_SPLINE_CURVE_WITH_KNOTS('',1,(#388,#389),.UNSPECIFIED.,.F.,.F.,
  (2,2),(5.E-02,0.3),.PIECEWISE_BEZIER_KNOTS.);
#388 = CARTESIAN_POINT('',(-1.55,-1.2,0.));
#389 = CARTESIAN_POINT('',(-1.3,-1.2,0.));
#390 = ( BOUNDED_SURFACE() B_SPLINE_SURFACE(2,1,(
    (#391,#392)
    ,(#393,#394)
,(#395,#396
    )),.UNSPECIFIED.,.F.,.F.,.F.) B_SPLINE_SURFACE_WITH_KNOTS((3,3),(2,2
    ),(1.570796326795,3.14159265359),(-0.75,-0.5),
.PIECEWISE_BEZIER_KNOTS.) GEOMETRIC_REPRESENTATION_ITEM() 
RATIONAL_B_SPLINE_SURFACE((
    (1.,1.)
    ,(0.707106781187,0.707106781187)
,(1.,1.))) REPRESENTATION_ITEM('') SURFACE() );
#391 = CARTESIAN_POINT('',(-1.55,-1.25,5.9525E-02));
#392 = CARTESIAN_POINT('',(-1.3,-1.25,5.9525E-02));
#393 = CARTESIAN_POINT('',(-1.55,-1.25,8.260753192601E-18));
#394 = CARTESIAN_POINT('',(-1.3,-1.25,8.260753192601E-18));
#395 = CARTESIAN_POINT('',(-1.55,-1.2,0.));
#396 = CARTESIAN_POINT('',(-1.3,-1.2,0.));
#397 = ADVANCED_FACE('',(#398),#408,.T.);
#398 = FACE_BOUND('',#399,.T.);
#399 = EDGE_LOOP('',(#400,#401,#406,#407));
#400 = ORIENTED_EDGE('',*,*,#331,.F.);
#401 = ORIENTED_EDGE('',*,*,#402,.F.);
#402 = EDGE_CURVE('',#352,#324,#403,.T.);
#403 = B_SPLINE_CURVE_WITH_KNOTS('',1,(#404,#405),.UNSPECIFIED.,.F.,.F.,
  (2,2),(-2.05,-5.E-02),.PIECEWISE_BEZIER_KNOTS.);
#404 = CARTESIAN_POINT('',(-1.55,-1.25,2.440525));
#405 = CARTESIAN_POINT('',(-1.55,-1.25,5.9525E-02));
#406 = ORIENTED_EDGE('',*,*,#351,.F.);
#407 = ORIENTED_EDGE('',*,*,#57,.T.);
#408 = ( BOUNDED_SURFACE() B_SPLINE_SURFACE(2,1,(
    (#409,#410)
    ,(#411,#412)
,(#413,#414
    )),.UNSPECIFIED.,.F.,.F.,.F.) B_SPLINE_SURFACE_WITH_KNOTS((3,3),(2,2
    ),(1.570796326795,3.14159265359),(-1.,1.),.PIECEWISE_BEZIER_KNOTS.) 
GEOMETRIC_REPRESENTATION_ITEM() RATIONAL_B_SPLINE_SURFACE((
    (1.,1.)
    ,(0.707106781187,0.707106781187)
,(1.,1.))) REPRESENTATION_ITEM('') SURFACE() );
#409 = CARTESIAN_POINT('',(-1.55,-1.25,2.440525));
#410 = CARTESIAN_POINT('',(-1.55,-1.25,5.9525E-02));
#411 = CARTESIAN_POINT('',(-1.6,-1.25,2.440525));
#412 = CARTESIAN_POINT('',(-1.6,-1.25,5.9525E-02));
#413 = CARTESIAN_POINT('',(-1.6,-1.2,2.440525));
#414 = CARTESIAN_POINT('',(-1.6,-1.2,5.9525E-02));
#415 = ADVANCED_FACE('',(#416),#426,.T.);
#416 = FACE_BOUND('',#417,.T.);
#417 = EDGE_LOOP('',(#418,#419,#420,#421));
#418 = ORIENTED_EDGE('',*,*,#125,.T.);
#419 = ORIENTED_EDGE('',*,*,#21,.T.);
#420 = ORIENTED_EDGE('',*,*,#359,.F.);
#421 = ORIENTED_EDGE('',*,*,#422,.F.);
#422 = EDGE_CURVE('',#119,#352,#423,.T.);
#423 = B_SPLINE_CURVE_WITH_KNOTS('',1,(#424,#425),.UNSPECIFIED.,.F.,.F.,
  (2,2),(-0.3,-5.E-02),.PIECEWISE_BEZIER_KNOTS.);
#424 = CARTESIAN_POINT('',(-1.3,-1.25,2.440525));
#425 = CARTESIAN_POINT('',(-1.55,-1.25,2.440525));
#426 = ( BOUNDED_SURFACE() B_SPLINE_SURFACE(2,1,(
    (#427,#428)
    ,(#429,#430)
,(#431,#432
    )),.UNSPECIFIED.,.F.,.F.,.F.) B_SPLINE_SURFACE_WITH_KNOTS((3,3),(2,2
    ),(1.570796326795,3.14159265359),(0.5,0.75),
.PIECEWISE_BEZIER_KNOTS.) GEOMETRIC_REPRESENTATION_ITEM() 
RATIONAL_B_SPLINE_SURFACE((
    (1.,1.)
    ,(0.707106781187,0.707106781187)
,(1.,1.))) REPRESENTATION_ITEM('') SURFACE() );
#427 = CARTESIAN_POINT('',(-1.3,-1.25,2.440525));
#428 = CARTESIAN_POINT('',(-1.55,-1.25,2.440525));
#429 = CARTESIAN_POINT('',(-1.3,-1.25,2.50005));
#430 = CARTESIAN_POINT('',(-1.55,-1.25,2.50005));
#431 = CARTESIAN_POINT('',(-1.3,-1.2,2.50005));
#432 = CARTESIAN_POINT('',(-1.55,-1.2,2.50005));
#433 = ADVANCED_FACE('',(#434),#440,.F.);
#434 = FACE_BOUND('',#435,.F.);
#435 = EDGE_LOOP('',(#436,#437,#438,#439));
#436 = ORIENTED_EDGE('',*,*,#246,.T.);
#437 = ORIENTED_EDGE('',*,*,#140,.T.);
#438 = ORIENTED_EDGE('',*,*,#306,.T.);
#439 = ORIENTED_EDGE('',*,*,#161,.T.);
#440 = B_SPLINE_SURFACE_WITH_KNOTS('',1,1,(
    (#441,#442)
    ,(#443,#444
    )),.UNSPECIFIED.,.F.,.F.,.F.,(2,2),(2,2),(-0.75,-0.5),(-1.,1.),
  .PIECEWISE_BEZIER_KNOTS.);
#441 = CARTESIAN_POINT('',(-1.55,1.25,5.9525E-02));
#442 = CARTESIAN_POINT('',(-1.55,1.25,2.440525));
#443 = CARTESIAN_POINT('',(-1.3,1.25,5.9525E-02));
#444 = CARTESIAN_POINT('',(-1.3,1.25,2.440525));
#445 = ADVANCED_FACE('',(#446),#452,.T.);
#446 = FACE_BOUND('',#447,.T.);
#447 = EDGE_LOOP('',(#448,#449,#450,#451));
#448 = ORIENTED_EDGE('',*,*,#118,.T.);
#449 = ORIENTED_EDGE('',*,*,#422,.T.);
#450 = ORIENTED_EDGE('',*,*,#402,.T.);
#451 = ORIENTED_EDGE('',*,*,#380,.T.);
#452 = B_SPLINE_SURFACE_WITH_KNOTS('',1,1,(
    (#453,#454)
    ,(#455,#456
    )),.UNSPECIFIED.,.F.,.F.,.F.,(2,2),(2,2),(-0.75,-0.5),(-1.,1.),
  .PIECEWISE_BEZIER_KNOTS.);
#453 = CARTESIAN_POINT('',(-1.55,-1.25,5.9525E-02));
#454 = CARTESIAN_POINT('',(-1.55,-1.25,2.440525));
#455 = CARTESIAN_POINT('',(-1.3,-1.25,5.9525E-02));
#456 = CARTESIAN_POINT('',(-1.3,-1.25,2.440525));
#457 = ADVANCED_FACE('',(#458),#464,.F.);
#458 = FACE_BOUND('',#459,.F.);
#459 = EDGE_LOOP('',(#460,#461,#462,#463));
#460 = ORIENTED_EDGE('',*,*,#386,.T.);
#461 = ORIENTED_EDGE('',*,*,#103,.T.);
#462 = ORIENTED_EDGE('',*,*,#240,.F.);
#463 = ORIENTED_EDGE('',*,*,#271,.F.);
#464 = B_SPLINE_SURFACE_WITH_KNOTS('',1,1,(
    (#465,#466)
    ,(#467,#468
    )),.UNSPECIFIED.,.F.,.F.,.F.,(2,2),(2,2),(-0.1,0.15),(5.E-02,2.45),
  .PIECEWISE_BEZIER_KNOTS.);
#465 = CARTESIAN_POINT('',(-1.55,-1.2,0.));
#466 = CARTESIAN_POINT('',(-1.55,1.2,0.));
#467 = CARTESIAN_POINT('',(-1.3,-1.2,0.));
#468 = CARTESIAN_POINT('',(-1.3,1.2,0.));
#469 = ( GEOMETRIC_REPRESENTATION_CONTEXT(3) 
GLOBAL_UNCERTAINTY_ASSIGNED_CONTEXT((#473)) GLOBAL_UNIT_ASSIGNED_CONTEXT
((#470,#471,#472)) REPRESENTATION_CONTEXT('Context #1',
  '3D Context with UNIT and UNCERTAINTY') );
#470 = ( LENGTH_UNIT() NAMED_UNIT(*) SI_UNIT(.MILLI.,.METRE.) );
#471 = ( NAMED_UNIT(*) PLANE_ANGLE_UNIT() SI_UNIT($,.RADIAN.) );
#472 = ( NAMED_UNIT(*) SI_UNIT($,.STERADIAN.) SOLID_ANGLE_UNIT() );
#473 = UNCERTAINTY_MEASURE_WITH_UNIT(LENGTH_MEASURE(1.E-07),#470,
  'distance_accuracy_value','confusion accuracy');
#474 = PRODUCT_RELATED_PRODUCT_CATEGORY('part',$,(#7));
#475 = SHAPE_DEFINITION_REPRESENTATION(#476,#482);
#476 = PRODUCT_DEFINITION_SHAPE('','',#477);
#477 = PRODUCT_DEFINITION('design','',#478,#481);
#478 = PRODUCT_DEFINITION_FORMATION('','',#479);
#479 = PRODUCT('Scale007','Scale007','',(#480));
#480 = PRODUCT_CONTEXT('',#2,'mechanical');
#481 = PRODUCT_DEFINITION_CONTEXT('part definition',#2,'design');
#482 = ADVANCED_BREP_SHAPE_REPRESENTATION('',(#11,#483),#937);
#483 = MANIFOLD_SOLID_BREP('',#484);
#484 = CLOSED_SHELL('',(#485,#525,#563,#603,#653,#669,#699,#715,#736,
    #774,#796,#812,#828,#848,#867,#886,#907,#923));
#485 = ADVANCED_FACE('',(#486),#518,.T.);
#486 = FACE_BOUND('',#487,.T.);
#487 = EDGE_LOOP('',(#488,#498,#505,#513));
#488 = ORIENTED_EDGE('',*,*,#489,.T.);
#489 = EDGE_CURVE('',#490,#492,#494,.T.);
#490 = VERTEX_POINT('',#491);
#491 = CARTESIAN_POINT('',(1.3,1.25,2.440525));
#492 = VERTEX_POINT('',#493);
#493 = CARTESIAN_POINT('',(1.3,1.2,2.50005));
#494 = ( BOUNDED_CURVE() B_SPLINE_CURVE(2,(#495,#496,#497),
.UNSPECIFIED.,.F.,.F.) B_SPLINE_CURVE_WITH_KNOTS((3,3),(1.570796326795,
3.14159265359),.PIECEWISE_BEZIER_KNOTS.) CURVE() 
GEOMETRIC_REPRESENTATION_ITEM() RATIONAL_B_SPLINE_CURVE((1.,
0.707106781187,1.)) REPRESENTATION_ITEM('') );
#495 = CARTESIAN_POINT('',(1.3,1.25,2.440525));
#496 = CARTESIAN_POINT('',(1.3,1.25,2.50005));
#497 = CARTESIAN_POINT('',(1.3,1.2,2.50005));
#498 = ORIENTED_EDGE('',*,*,#499,.T.);
#499 = EDGE_CURVE('',#492,#500,#502,.T.);
#500 = VERTEX_POINT('',#501);
#501 = CARTESIAN_POINT('',(1.55,1.2,2.50005));
#502 = B_SPLINE_CURVE_WITH_KNOTS('',1,(#503,#504),.UNSPECIFIED.,.F.,.F.,
  (2,2),(-0.15,0.1),.PIECEWISE_BEZIER_KNOTS.);
#503 = CARTESIAN_POINT('',(1.3,1.2,2.50005));
#504 = CARTESIAN_POINT('',(1.55,1.2,2.50005));
#505 = ORIENTED_EDGE('',*,*,#506,.F.);
#506 = EDGE_CURVE('',#507,#500,#509,.T.);
#507 = VERTEX_POINT('',#508);
#508 = CARTESIAN_POINT('',(1.55,1.25,2.440525));
#509 = ( BOUNDED_CURVE() B_SPLINE_CURVE(2,(#510,#511,#512),
.UNSPECIFIED.,.F.,.F.) B_SPLINE_CURVE_WITH_KNOTS((3,3),(1.570796326795,
3.14159265359),.PIECEWISE_BEZIER_KNOTS.) CURVE() 
GEOMETRIC_REPRESENTATION_ITEM() RATIONAL_B_SPLINE_CURVE((1.,
0.707106781187,1.)) REPRESENTATION_ITEM('') );
#510 = CARTESIAN_POINT('',(1.55,1.25,2.440525));
#511 = CARTESIAN_POINT('',(1.55,1.25,2.50005));
#512 = CARTESIAN_POINT('',(1.55,1.2,2.50005));
#513 = ORIENTED_EDGE('',*,*,#514,.F.);
#514 = EDGE_CURVE('',#490,#507,#515,.T.);
#515 = B_SPLINE_CURVE_WITH_KNOTS('',1,(#516,#517),.UNSPECIFIED.,.F.,.F.,
  (2,2),(0.5,0.75),.PIECEWISE_BEZIER_KNOTS.);
#516 = CARTESIAN_POINT('',(1.3,1.25,2.440525));
#517 = CARTESIAN_POINT('',(1.55,1.25,2.440525));
#518 = ( BOUNDED_SURFACE() B_SPLINE_SURFACE(2,1,(
    (#519,#520)
    ,(#521,#522)
,(#523,#524
    )),.UNSPECIFIED.,.F.,.F.,.F.) B_SPLINE_SURFACE_WITH_KNOTS((3,3),(2,2
    ),(3.14159265359,4.712388980385),(-0.75,-0.5),
.PIECEWISE_BEZIER_KNOTS.) GEOMETRIC_REPRESENTATION_ITEM() 
RATIONAL_B_SPLINE_SURFACE((
    (1.,1.)
    ,(0.707106781187,0.707106781187)
,(1.,1.))) REPRESENTATION_ITEM('') SURFACE() );
#519 = CARTESIAN_POINT('',(1.55,1.2,2.50005));
#520 = CARTESIAN_POINT('',(1.3,1.2,2.50005));
#521 = CARTESIAN_POINT('',(1.55,1.25,2.50005));
#522 = CARTESIAN_POINT('',(1.3,1.25,2.50005));
#523 = CARTESIAN_POINT('',(1.55,1.25,2.440525));
#524 = CARTESIAN_POINT('',(1.3,1.25,2.440525));
#525 = ADVANCED_FACE('',(#526),#556,.T.);
#526 = FACE_BOUND('',#527,.T.);
#527 = EDGE_LOOP('',(#528,#538,#543,#551));
#528 = ORIENTED_EDGE('',*,*,#529,.F.);
#529 = EDGE_CURVE('',#530,#532,#534,.T.);
#530 = VERTEX_POINT('',#531);
#531 = CARTESIAN_POINT('',(1.55,1.25,5.9525E-02));
#532 = VERTEX_POINT('',#533);
#533 = CARTESIAN_POINT('',(1.6,1.2,5.9525E-02));
#534 = ( BOUNDED_CURVE() B_SPLINE_CURVE(2,(#535,#536,#537),
.UNSPECIFIED.,.F.,.F.) B_SPLINE_CURVE_WITH_KNOTS((3,3),(1.570796326795,
3.14159265359),.PIECEWISE_BEZIER_KNOTS.) CURVE() 
GEOMETRIC_REPRESENTATION_ITEM() RATIONAL_B_SPLINE_CURVE((1.,
0.707106781187,1.)) REPRESENTATION_ITEM('') );
#535 = CARTESIAN_POINT('',(1.55,1.25,5.9525E-02));
#536 = CARTESIAN_POINT('',(1.6,1.25,5.9525E-02));
#537 = CARTESIAN_POINT('',(1.6,1.2,5.9525E-02));
#538 = ORIENTED_EDGE('',*,*,#539,.F.);
#539 = EDGE_CURVE('',#507,#530,#540,.T.);
#540 = B_SPLINE_CURVE_WITH_KNOTS('',1,(#541,#542),.UNSPECIFIED.,.F.,.F.,
  (2,2),(-1.,1.),.PIECEWISE_BEZIER_KNOTS.);
#541 = CARTESIAN_POINT('',(1.55,1.25,2.440525));
#542 = CARTESIAN_POINT('',(1.55,1.25,5.9525E-02));
#543 = ORIENTED_EDGE('',*,*,#544,.F.);
#544 = EDGE_CURVE('',#545,#507,#547,.T.);
#545 = VERTEX_POINT('',#546);
#546 = CARTESIAN_POINT('',(1.6,1.2,2.440525));
#547 = ( BOUNDED_CURVE() B_SPLINE_CURVE(2,(#548,#549,#550),
.UNSPECIFIED.,.F.,.F.) B_SPLINE_CURVE_WITH_KNOTS((3,3),(0.,
1.570796326795),.PIECEWISE_BEZIER_KNOTS.) CURVE() 
GEOMETRIC_REPRESENTATION_ITEM() RATIONAL_B_SPLINE_CURVE((1.,
0.707106781187,1.)) REPRESENTATION_ITEM('') );
#548 = CARTESIAN_POINT('',(1.6,1.2,2.440525));
#549 = CARTESIAN_POINT('',(1.6,1.25,2.440525));
#550 = CARTESIAN_POINT('',(1.55,1.25,2.440525));
#551 = ORIENTED_EDGE('',*,*,#552,.T.);
#552 = EDGE_CURVE('',#545,#532,#553,.T.);
#553 = B_SPLINE_CURVE_WITH_KNOTS('',1,(#554,#555),.UNSPECIFIED.,.F.,.F.,
  (2,2),(-1.,1.),.PIECEWISE_BEZIER_KNOTS.);
#554 = CARTESIAN_POINT('',(1.6,1.2,2.440525));
#555 = CARTESIAN_POINT('',(1.6,1.2,5.9525E-02));
#556 = ( BOUNDED_SURFACE() B_SPLINE_SURFACE(2,1,(
    (#557,#558)
    ,(#559,#560)
,(#561,#562
    )),.UNSPECIFIED.,.F.,.F.,.F.) B_SPLINE_SURFACE_WITH_KNOTS((3,3),(2,2
    ),(3.14159265359,4.712388980385),(-1.,1.),.PIECEWISE_BEZIER_KNOTS.) 
GEOMETRIC_REPRESENTATION_ITEM() RATIONAL_B_SPLINE_SURFACE((
    (1.,1.)
    ,(0.707106781187,0.707106781187)
,(1.,1.))) REPRESENTATION_ITEM('') SURFACE() );
#557 = CARTESIAN_POINT('',(1.6,1.2,5.9525E-02));
#558 = CARTESIAN_POINT('',(1.6,1.2,2.440525));
#559 = CARTESIAN_POINT('',(1.6,1.25,5.9525E-02));
#560 = CARTESIAN_POINT('',(1.6,1.25,2.440525));
#561 = CARTESIAN_POINT('',(1.55,1.25,5.9525E-02));
#562 = CARTESIAN_POINT('',(1.55,1.25,2.440525));
#563 = ADVANCED_FACE('',(#564),#596,.T.);
#564 = FACE_BOUND('',#565,.T.);
#565 = EDGE_LOOP('',(#566,#576,#583,#591));
#566 = ORIENTED_EDGE('',*,*,#567,.T.);
#567 = EDGE_CURVE('',#568,#570,#572,.T.);
#568 = VERTEX_POINT('',#569);
#569 = CARTESIAN_POINT('',(1.3,-1.2,2.50005));
#570 = VERTEX_POINT('',#571);
#571 = CARTESIAN_POINT('',(1.3,-1.25,2.440525));
#572 = ( BOUNDED_CURVE() B_SPLINE_CURVE(2,(#573,#574,#575),
.UNSPECIFIED.,.F.,.F.) B_SPLINE_CURVE_WITH_KNOTS((3,3),(3.14159265359,
4.712388980385),.PIECEWISE_BEZIER_KNOTS.) CURVE() 
GEOMETRIC_REPRESENTATION_ITEM() RATIONAL_B_SPLINE_CURVE((1.,
0.707106781187,1.)) REPRESENTATION_ITEM('') );
#573 = CARTESIAN_POINT('',(1.3,-1.2,2.50005));
#574 = CARTESIAN_POINT('',(1.3,-1.25,2.50005));
#575 = CARTESIAN_POINT('',(1.3,-1.25,2.440525));
#576 = ORIENTED_EDGE('',*,*,#577,.T.);
#577 = EDGE_CURVE('',#570,#578,#580,.T.);
#578 = VERTEX_POINT('',#579);
#579 = CARTESIAN_POINT('',(1.55,-1.25,2.440525));
#580 = B_SPLINE_CURVE_WITH_KNOTS('',1,(#581,#582),.UNSPECIFIED.,.F.,.F.,
  (2,2),(0.,0.25),.PIECEWISE_BEZIER_KNOTS.);
#581 = CARTESIAN_POINT('',(1.3,-1.25,2.440525));
#582 = CARTESIAN_POINT('',(1.55,-1.25,2.440525));
#583 = ORIENTED_EDGE('',*,*,#584,.F.);
#584 = EDGE_CURVE('',#585,#578,#587,.T.);
#585 = VERTEX_POINT('',#586);
#586 = CARTESIAN_POINT('',(1.55,-1.2,2.50005));
#587 = ( BOUNDED_CURVE() B_SPLINE_CURVE(2,(#588,#589,#590),
.UNSPECIFIED.,.F.,.F.) B_SPLINE_CURVE_WITH_KNOTS((3,3),(3.14159265359,
4.712388980385),.PIECEWISE_BEZIER_KNOTS.) CURVE() 
GEOMETRIC_REPRESENTATION_ITEM() RATIONAL_B_SPLINE_CURVE((1.,
0.707106781187,1.)) REPRESENTATION_ITEM('') );
#588 = CARTESIAN_POINT('',(1.55,-1.2,2.50005));
#589 = CARTESIAN_POINT('',(1.55,-1.25,2.50005));
#590 = CARTESIAN_POINT('',(1.55,-1.25,2.440525));
#591 = ORIENTED_EDGE('',*,*,#592,.F.);
#592 = EDGE_CURVE('',#568,#585,#593,.T.);
#593 = B_SPLINE_CURVE_WITH_KNOTS('',1,(#594,#595),.UNSPECIFIED.,.F.,.F.,
  (2,2),(-0.3,-5.E-02),.PIECEWISE_BEZIER_KNOTS.);
#594 = CARTESIAN_POINT('',(1.3,-1.2,2.50005));
#595 = CARTESIAN_POINT('',(1.55,-1.2,2.50005));
#596 = ( BOUNDED_SURFACE() B_SPLINE_SURFACE(2,1,(
    (#597,#598)
    ,(#599,#600)
,(#601,#602
    )),.UNSPECIFIED.,.F.,.F.,.F.) B_SPLINE_SURFACE_WITH_KNOTS((3,3),(2,2
    ),(0.,1.570796326795),(-0.15,0.1),.PIECEWISE_BEZIER_KNOTS.) 
GEOMETRIC_REPRESENTATION_ITEM() RATIONAL_B_SPLINE_SURFACE((
    (1.,1.)
    ,(0.707106781187,0.707106781187)
,(1.,1.))) REPRESENTATION_ITEM('') SURFACE() );
#597 = CARTESIAN_POINT('',(1.3,-1.2,2.50005));
#598 = CARTESIAN_POINT('',(1.55,-1.2,2.50005));
#599 = CARTESIAN_POINT('',(1.3,-1.25,2.50005));
#600 = CARTESIAN_POINT('',(1.55,-1.25,2.50005));
#601 = CARTESIAN_POINT('',(1.3,-1.25,2.440525));
#602 = CARTESIAN_POINT('',(1.55,-1.25,2.440525));
#603 = ADVANCED_FACE('',(#604),#648,.F.);
#604 = FACE_BOUND('',#605,.F.);
#605 = EDGE_LOOP('',(#606,#616,#621,#622,#627,#628,#635,#643));
#606 = ORIENTED_EDGE('',*,*,#607,.T.);
#607 = EDGE_CURVE('',#608,#610,#612,.T.);
#608 = VERTEX_POINT('',#609);
#609 = CARTESIAN_POINT('',(1.3,1.2,0.));
#610 = VERTEX_POINT('',#611);
#611 = CARTESIAN_POINT('',(1.3,1.25,5.9525E-02));
#612 = ( BOUNDED_CURVE() B_SPLINE_CURVE(2,(#613,#614,#615),
.UNSPECIFIED.,.F.,.F.) B_SPLINE_CURVE_WITH_KNOTS((3,3),(0.,
1.570796326795),.PIECEWISE_BEZIER_KNOTS.) CURVE() 
GEOMETRIC_REPRESENTATION_ITEM() RATIONAL_B_SPLINE_CURVE((1.,
0.707106781187,1.)) REPRESENTATION_ITEM('') );
#613 = CARTESIAN_POINT('',(1.3,1.2,0.));
#614 = CARTESIAN_POINT('',(1.3,1.25,0.));
#615 = CARTESIAN_POINT('',(1.3,1.25,5.9525E-02));
#616 = ORIENTED_EDGE('',*,*,#617,.T.);
#617 = EDGE_CURVE('',#610,#490,#618,.T.);
#618 = B_SPLINE_CURVE_WITH_KNOTS('',1,(#619,#620),.UNSPECIFIED.,.F.,.F.,
  (2,2),(-1.224600008,0.775399992),.PIECEWISE_BEZIER_KNOTS.);
#619 = CARTESIAN_POINT('',(1.3,1.25,5.9525E-02));
#620 = CARTESIAN_POINT('',(1.3,1.25,2.440525));
#621 = ORIENTED_EDGE('',*,*,#489,.T.);
#622 = ORIENTED_EDGE('',*,*,#623,.F.);
#623 = EDGE_CURVE('',#568,#492,#624,.T.);
#624 = B_SPLINE_CURVE_WITH_KNOTS('',1,(#625,#626),.UNSPECIFIED.,.F.,.F.,
  (2,2),(5.E-02,2.45),.PIECEWISE_BEZIER_KNOTS.);
#625 = CARTESIAN_POINT('',(1.3,-1.2,2.50005));
#626 = CARTESIAN_POINT('',(1.3,1.2,2.50005));
#627 = ORIENTED_EDGE('',*,*,#567,.T.);
#628 = ORIENTED_EDGE('',*,*,#629,.F.);
#629 = EDGE_CURVE('',#630,#570,#632,.T.);
#630 = VERTEX_POINT('',#631);
#631 = CARTESIAN_POINT('',(1.3,-1.25,5.9525E-02));
#632 = B_SPLINE_CURVE_WITH_KNOTS('',1,(#633,#634),.UNSPECIFIED.,.F.,.F.,
  (2,2),(-1.224600008,0.775399992),.PIECEWISE_BEZIER_KNOTS.);
#633 = CARTESIAN_POINT('',(1.3,-1.25,5.9525E-02));
#634 = CARTESIAN_POINT('',(1.3,-1.25,2.440525));
#635 = ORIENTED_EDGE('',*,*,#636,.T.);
#636 = EDGE_CURVE('',#630,#637,#639,.T.);
#637 = VERTEX_POINT('',#638);
#638 = CARTESIAN_POINT('',(1.3,-1.2,0.));
#639 = ( BOUNDED_CURVE() B_SPLINE_CURVE(2,(#640,#641,#642),
.UNSPECIFIED.,.F.,.F.) B_SPLINE_CURVE_WITH_KNOTS((3,3),(4.712388980385,
6.28318530718),.PIECEWISE_BEZIER_KNOTS.) CURVE() 
GEOMETRIC_REPRESENTATION_ITEM() RATIONAL_B_SPLINE_CURVE((1.,
0.707106781187,1.)) REPRESENTATION_ITEM('') );
#640 = CARTESIAN_POINT('',(1.3,-1.25,5.9525E-02));
#641 = CARTESIAN_POINT('',(1.3,-1.25,1.65215063852E-17));
#642 = CARTESIAN_POINT('',(1.3,-1.2,0.));
#643 = ORIENTED_EDGE('',*,*,#644,.T.);
#644 = EDGE_CURVE('',#637,#608,#645,.T.);
#645 = B_SPLINE_CURVE_WITH_KNOTS('',1,(#646,#647),.UNSPECIFIED.,.F.,.F.,
  (2,2),(5.E-02,2.45),.PIECEWISE_BEZIER_KNOTS.);
#646 = CARTESIAN_POINT('',(1.3,-1.2,0.));
#647 = CARTESIAN_POINT('',(1.3,1.2,0.));
#648 = B_SPLINE_SURFACE_WITH_KNOTS('',1,1,(
    (#649,#650)
    ,(#651,#652
    )),.UNSPECIFIED.,.F.,.F.,.F.,(2,2),(2,2),(-1.274600008,0.825399992),
  (-2.5,0.),.PIECEWISE_BEZIER_KNOTS.);
#649 = CARTESIAN_POINT('',(1.3,1.25,0.));
#650 = CARTESIAN_POINT('',(1.3,-1.25,0.));
#651 = CARTESIAN_POINT('',(1.3,1.25,2.50005));
#652 = CARTESIAN_POINT('',(1.3,-1.25,2.50005));
#653 = ADVANCED_FACE('',(#654),#664,.F.);
#654 = FACE_BOUND('',#655,.F.);
#655 = EDGE_LOOP('',(#656,#657,#662,#663));
#656 = ORIENTED_EDGE('',*,*,#499,.T.);
#657 = ORIENTED_EDGE('',*,*,#658,.F.);
#658 = EDGE_CURVE('',#585,#500,#659,.T.);
#659 = B_SPLINE_CURVE_WITH_KNOTS('',1,(#660,#661),.UNSPECIFIED.,.F.,.F.,
  (2,2),(5.E-02,2.45),.PIECEWISE_BEZIER_KNOTS.);
#660 = CARTESIAN_POINT('',(1.55,-1.2,2.50005));
#661 = CARTESIAN_POINT('',(1.55,1.2,2.50005));
#662 = ORIENTED_EDGE('',*,*,#592,.F.);
#663 = ORIENTED_EDGE('',*,*,#623,.T.);
#664 = B_SPLINE_SURFACE_WITH_KNOTS('',1,1,(
    (#665,#666)
    ,(#667,#668
    )),.UNSPECIFIED.,.F.,.F.,.F.,(2,2),(2,2),(-0.15,0.1),(-2.45,-5.E-02)
  ,.PIECEWISE_BEZIER_KNOTS.);
#665 = CARTESIAN_POINT('',(1.3,1.2,2.50005));
#666 = CARTESIAN_POINT('',(1.3,-1.2,2.50005));
#667 = CARTESIAN_POINT('',(1.55,1.2,2.50005));
#668 = CARTESIAN_POINT('',(1.55,-1.2,2.50005));
#669 = ADVANCED_FACE('',(#670),#692,.T.);
#670 = FACE_BOUND('',#671,.T.);
#671 = EDGE_LOOP('',(#672,#680,#685,#691));
#672 = ORIENTED_EDGE('',*,*,#673,.F.);
#673 = EDGE_CURVE('',#674,#585,#676,.T.);
#674 = VERTEX_POINT('',#675);
#675 = CARTESIAN_POINT('',(1.6,-1.2,2.440525));
#676 = ( BOUNDED_CURVE() B_SPLINE_CURVE(2,(#677,#678,#679),
.UNSPECIFIED.,.F.,.F.) B_SPLINE_CURVE_WITH_KNOTS((3,3),(1.570796326795,
3.14159265359),.PIECEWISE_BEZIER_KNOTS.) CURVE() 
GEOMETRIC_REPRESENTATION_ITEM() RATIONAL_B_SPLINE_CURVE((1.,
0.707106781187,1.)) REPRESENTATION_ITEM('') );
#677 = CARTESIAN_POINT('',(1.6,-1.2,2.440525));
#678 = CARTESIAN_POINT('',(1.6,-1.2,2.50005));
#679 = CARTESIAN_POINT('',(1.55,-1.2,2.50005));
#680 = ORIENTED_EDGE('',*,*,#681,.T.);
#681 = EDGE_CURVE('',#674,#545,#682,.T.);
#682 = B_SPLINE_CURVE_WITH_KNOTS('',1,(#683,#684),.UNSPECIFIED.,.F.,.F.,
  (2,2),(5.E-02,2.45),.PIECEWISE_BEZIER_KNOTS.);
#683 = CARTESIAN_POINT('',(1.6,-1.2,2.440525));
#684 = CARTESIAN_POINT('',(1.6,1.2,2.440525));
#685 = ORIENTED_EDGE('',*,*,#686,.F.);
#686 = EDGE_CURVE('',#500,#545,#687,.T.);
#687 = ( BOUNDED_CURVE() B_SPLINE_CURVE(2,(#688,#689,#690),
.UNSPECIFIED.,.F.,.F.) B_SPLINE_CURVE_WITH_KNOTS((3,3),(0.,
1.570796326795),.PIECEWISE_BEZIER_KNOTS.) CURVE() 
GEOMETRIC_REPRESENTATION_ITEM() RATIONAL_B_SPLINE_CURVE((1.,
0.707106781187,1.)) REPRESENTATION_ITEM('') );
#688 = CARTESIAN_POINT('',(1.55,1.2,2.50005));
#689 = CARTESIAN_POINT('',(1.6,1.2,2.50005));
#690 = CARTESIAN_POINT('',(1.6,1.2,2.440525));
#691 = ORIENTED_EDGE('',*,*,#658,.F.);
#692 = ( BOUNDED_SURFACE() B_SPLINE_SURFACE(2,1,(
    (#693,#694)
    ,(#695,#696)
,(#697,#698
    )),.UNSPECIFIED.,.F.,.F.,.F.) B_SPLINE_SURFACE_WITH_KNOTS((3,3),(2,2
    ),(4.712388980385,6.28318530718),(-2.45,-5.E-02),
.PIECEWISE_BEZIER_KNOTS.) GEOMETRIC_REPRESENTATION_ITEM() 
RATIONAL_B_SPLINE_SURFACE((
    (1.,1.)
    ,(0.707106781187,0.707106781187)
,(1.,1.))) REPRESENTATION_ITEM('') SURFACE() );
#693 = CARTESIAN_POINT('',(1.6,1.2,2.440525));
#694 = CARTESIAN_POINT('',(1.6,-1.2,2.440525));
#695 = CARTESIAN_POINT('',(1.6,1.2,2.50005));
#696 = CARTESIAN_POINT('',(1.6,-1.2,2.50005));
#697 = CARTESIAN_POINT('',(1.55,1.2,2.50005));
#698 = CARTESIAN_POINT('',(1.55,-1.2,2.50005));
#699 = ADVANCED_FACE('',(#700),#705,.T.);
#700 = FACE_BOUND('',#701,.T.);
#701 = EDGE_LOOP('',(#702,#703,#704));
#702 = ORIENTED_EDGE('',*,*,#544,.T.);
#703 = ORIENTED_EDGE('',*,*,#506,.T.);
#704 = ORIENTED_EDGE('',*,*,#686,.T.);
#705 = ( BOUNDED_SURFACE() B_SPLINE_SURFACE(2,2,(
    (#706,#707,#708)
    ,(#709,#710,#711)
    ,(#712,#713,#714
)),.UNSPECIFIED.,.F.,.F.,.F.) B_SPLINE_SURFACE_WITH_KNOTS((3,3),(3,3),(
    0.,1.570796326795),(0.,1.570796326795),.PIECEWISE_BEZIER_KNOTS.) 
GEOMETRIC_REPRESENTATION_ITEM() RATIONAL_B_SPLINE_SURFACE((
    (1.,0.707106781187,1.)
    ,(0.707106781187,0.5,0.707106781187)
,(1.,0.707106781187,1.))) REPRESENTATION_ITEM('') SURFACE() );
#706 = CARTESIAN_POINT('',(1.6,1.2,2.440525));
#707 = CARTESIAN_POINT('',(1.6,1.2,2.50005));
#708 = CARTESIAN_POINT('',(1.55,1.2,2.50005));
#709 = CARTESIAN_POINT('',(1.6,1.25,2.440525));
#710 = CARTESIAN_POINT('',(1.6,1.25,2.50005));
#711 = CARTESIAN_POINT('',(1.55,1.2,2.50005));
#712 = CARTESIAN_POINT('',(1.55,1.25,2.440525));
#713 = CARTESIAN_POINT('',(1.55,1.25,2.50005));
#714 = CARTESIAN_POINT('',(1.55,1.2,2.50005));
#715 = ADVANCED_FACE('',(#716),#726,.T.);
#716 = FACE_BOUND('',#717,.T.);
#717 = EDGE_LOOP('',(#718,#719,#725));
#718 = ORIENTED_EDGE('',*,*,#584,.T.);
#719 = ORIENTED_EDGE('',*,*,#720,.T.);
#720 = EDGE_CURVE('',#578,#674,#721,.T.);
#721 = ( BOUNDED_CURVE() B_SPLINE_CURVE(2,(#722,#723,#724),
.UNSPECIFIED.,.F.,.F.) B_SPLINE_CURVE_WITH_KNOTS((3,3),(4.712388980385,
6.28318530718),.PIECEWISE_BEZIER_KNOTS.) CURVE() 
GEOMETRIC_REPRESENTATION_ITEM() RATIONAL_B_SPLINE_CURVE((1.,
0.707106781187,1.)) REPRESENTATION_ITEM('') );
#722 = CARTESIAN_POINT('',(1.55,-1.25,2.440525));
#723 = CARTESIAN_POINT('',(1.6,-1.25,2.440525));
#724 = CARTESIAN_POINT('',(1.6,-1.2,2.440525));
#725 = ORIENTED_EDGE('',*,*,#673,.T.);
#726 = ( BOUNDED_SURFACE() B_SPLINE_SURFACE(2,2,(
    (#727,#728,#729)
    ,(#730,#731,#732)
    ,(#733,#734,#735
)),.UNSPECIFIED.,.F.,.F.,.F.) B_SPLINE_SURFACE_WITH_KNOTS((3,3),(3,3),(
    4.712388980385,6.28318530718),(0.,1.570796326795),
.PIECEWISE_BEZIER_KNOTS.) GEOMETRIC_REPRESENTATION_ITEM() 
RATIONAL_B_SPLINE_SURFACE((
    (1.,0.707106781187,1.)
    ,(0.707106781187,0.5,0.707106781187)
,(1.,0.707106781187,1.))) REPRESENTATION_ITEM('') SURFACE() );
#727 = CARTESIAN_POINT('',(1.55,-1.25,2.440525));
#728 = CARTESIAN_POINT('',(1.55,-1.25,2.50005));
#729 = CARTESIAN_POINT('',(1.55,-1.2,2.50005));
#730 = CARTESIAN_POINT('',(1.6,-1.25,2.440525));
#731 = CARTESIAN_POINT('',(1.6,-1.25,2.50005));
#732 = CARTESIAN_POINT('',(1.55,-1.2,2.50005));
#733 = CARTESIAN_POINT('',(1.6,-1.2,2.440525));
#734 = CARTESIAN_POINT('',(1.6,-1.2,2.50005));
#735 = CARTESIAN_POINT('',(1.55,-1.2,2.50005));
#736 = ADVANCED_FACE('',(#737),#767,.T.);
#737 = FACE_BOUND('',#738,.T.);
#738 = EDGE_LOOP('',(#739,#749,#756,#762));
#739 = ORIENTED_EDGE('',*,*,#740,.F.);
#740 = EDGE_CURVE('',#741,#743,#745,.T.);
#741 = VERTEX_POINT('',#742);
#742 = CARTESIAN_POINT('',(1.55,-1.2,0.));
#743 = VERTEX_POINT('',#744);
#744 = CARTESIAN_POINT('',(1.6,-1.2,5.9525E-02));
#745 = ( BOUNDED_CURVE() B_SPLINE_CURVE(2,(#746,#747,#748),
.UNSPECIFIED.,.F.,.F.) B_SPLINE_CURVE_WITH_KNOTS((3,3),(0.,
1.570796326795),.PIECEWISE_BEZIER_KNOTS.) CURVE() 
GEOMETRIC_REPRESENTATION_ITEM() RATIONAL_B_SPLINE_CURVE((1.,
0.707106781187,1.)) REPRESENTATION_ITEM('') );
#746 = CARTESIAN_POINT('',(1.55,-1.2,0.));
#747 = CARTESIAN_POINT('',(1.6,-1.2,0.));
#748 = CARTESIAN_POINT('',(1.6,-1.2,5.9525E-02));
#749 = ORIENTED_EDGE('',*,*,#750,.T.);
#750 = EDGE_CURVE('',#741,#751,#753,.T.);
#751 = VERTEX_POINT('',#752);
#752 = CARTESIAN_POINT('',(1.55,1.2,0.));
#753 = B_SPLINE_CURVE_WITH_KNOTS('',1,(#754,#755),.UNSPECIFIED.,.F.,.F.,
  (2,2),(5.E-02,2.45),.PIECEWISE_BEZIER_KNOTS.);
#754 = CARTESIAN_POINT('',(1.55,-1.2,0.));
#755 = CARTESIAN_POINT('',(1.55,1.2,0.));
#756 = ORIENTED_EDGE('',*,*,#757,.F.);
#757 = EDGE_CURVE('',#532,#751,#758,.T.);
#758 = ( BOUNDED_CURVE() B_SPLINE_CURVE(2,(#759,#760,#761),
.UNSPECIFIED.,.F.,.F.) B_SPLINE_CURVE_WITH_KNOTS((3,3),(1.570796326795,
3.14159265359),.PIECEWISE_BEZIER_KNOTS.) CURVE() 
GEOMETRIC_REPRESENTATION_ITEM() RATIONAL_B_SPLINE_CURVE((1.,
0.707106781187,1.)) REPRESENTATION_ITEM('') );
#759 = CARTESIAN_POINT('',(1.6,1.2,5.9525E-02));
#760 = CARTESIAN_POINT('',(1.6,1.2,1.65215063852E-17));
#761 = CARTESIAN_POINT('',(1.55,1.2,0.));
#762 = ORIENTED_EDGE('',*,*,#763,.F.);
#763 = EDGE_CURVE('',#743,#532,#764,.T.);
#764 = B_SPLINE_CURVE_WITH_KNOTS('',1,(#765,#766),.UNSPECIFIED.,.F.,.F.,
  (2,2),(5.E-02,2.45),.PIECEWISE_BEZIER_KNOTS.);
#765 = CARTESIAN_POINT('',(1.6,-1.2,5.9525E-02));
#766 = CARTESIAN_POINT('',(1.6,1.2,5.9525E-02));
#767 = ( BOUNDED_SURFACE() B_SPLINE_SURFACE(2,1,(
    (#768,#769)
    ,(#770,#771)
,(#772,#773
    )),.UNSPECIFIED.,.F.,.F.,.F.) B_SPLINE_SURFACE_WITH_KNOTS((3,3),(2,2
    ),(3.14159265359,4.712388980385),(-2.45,-5.E-02),
.PIECEWISE_BEZIER_KNOTS.) GEOMETRIC_REPRESENTATION_ITEM() 
RATIONAL_B_SPLINE_SURFACE((
    (1.,1.)
    ,(0.707106781187,0.707106781187)
,(1.,1.))) REPRESENTATION_ITEM('') SURFACE() );
#768 = CARTESIAN_POINT('',(1.55,1.2,0.));
#769 = CARTESIAN_POINT('',(1.55,-1.2,0.));
#770 = CARTESIAN_POINT('',(1.6,1.2,0.));
#771 = CARTESIAN_POINT('',(1.6,-1.2,0.));
#772 = CARTESIAN_POINT('',(1.6,1.2,5.9525E-02));
#773 = CARTESIAN_POINT('',(1.6,-1.2,5.9525E-02));
#774 = ADVANCED_FACE('',(#775),#791,.T.);
#775 = FACE_BOUND('',#776,.T.);
#776 = EDGE_LOOP('',(#777,#778,#785,#790));
#777 = ORIENTED_EDGE('',*,*,#629,.F.);
#778 = ORIENTED_EDGE('',*,*,#779,.F.);
#779 = EDGE_CURVE('',#780,#630,#782,.T.);
#780 = VERTEX_POINT('',#781);
#781 = CARTESIAN_POINT('',(1.55,-1.25,5.9525E-02));
#782 = B_SPLINE_CURVE_WITH_KNOTS('',1,(#783,#784),.UNSPECIFIED.,.F.,.F.,
  (2,2),(5.E-02,0.3),.PIECEWISE_BEZIER_KNOTS.);
#783 = CARTESIAN_POINT('',(1.55,-1.25,5.9525E-02));
#784 = CARTESIAN_POINT('',(1.3,-1.25,5.9525E-02));
#785 = ORIENTED_EDGE('',*,*,#786,.F.);
#786 = EDGE_CURVE('',#578,#780,#787,.T.);
#787 = B_SPLINE_CURVE_WITH_KNOTS('',1,(#788,#789),.UNSPECIFIED.,.F.,.F.,
  (2,2),(5.E-02,2.05),.PIECEWISE_BEZIER_KNOTS.);
#788 = CARTESIAN_POINT('',(1.55,-1.25,2.440525));
#789 = CARTESIAN_POINT('',(1.55,-1.25,5.9525E-02));
#790 = ORIENTED_EDGE('',*,*,#577,.F.);
#791 = B_SPLINE_SURFACE_WITH_KNOTS('',1,1,(
    (#792,#793)
    ,(#794,#795
    )),.UNSPECIFIED.,.F.,.F.,.F.,(2,2),(2,2),(-0.75,-0.5),(-1.,1.),
  .PIECEWISE_BEZIER_KNOTS.);
#792 = CARTESIAN_POINT('',(1.55,-1.25,2.440525));
#793 = CARTESIAN_POINT('',(1.55,-1.25,5.9525E-02));
#794 = CARTESIAN_POINT('',(1.3,-1.25,2.440525));
#795 = CARTESIAN_POINT('',(1.3,-1.25,5.9525E-02));
#796 = ADVANCED_FACE('',(#797),#807,.F.);
#797 = FACE_BOUND('',#798,.F.);
#798 = EDGE_LOOP('',(#799,#800,#801,#806));
#799 = ORIENTED_EDGE('',*,*,#514,.F.);
#800 = ORIENTED_EDGE('',*,*,#617,.F.);
#801 = ORIENTED_EDGE('',*,*,#802,.F.);
#802 = EDGE_CURVE('',#530,#610,#803,.T.);
#803 = B_SPLINE_CURVE_WITH_KNOTS('',1,(#804,#805),.UNSPECIFIED.,.F.,.F.,
  (2,2),(-0.75,-0.5),.PIECEWISE_BEZIER_KNOTS.);
#804 = CARTESIAN_POINT('',(1.55,1.25,5.9525E-02));
#805 = CARTESIAN_POINT('',(1.3,1.25,5.9525E-02));
#806 = ORIENTED_EDGE('',*,*,#539,.F.);
#807 = B_SPLINE_SURFACE_WITH_KNOTS('',1,1,(
    (#808,#809)
    ,(#810,#811
    )),.UNSPECIFIED.,.F.,.F.,.F.,(2,2),(2,2),(-0.75,-0.5),(-1.,1.),
  .PIECEWISE_BEZIER_KNOTS.);
#808 = CARTESIAN_POINT('',(1.55,1.25,2.440525));
#809 = CARTESIAN_POINT('',(1.55,1.25,5.9525E-02));
#810 = CARTESIAN_POINT('',(1.3,1.25,2.440525));
#811 = CARTESIAN_POINT('',(1.3,1.25,5.9525E-02));
#812 = ADVANCED_FACE('',(#813),#823,.F.);
#813 = FACE_BOUND('',#814,.F.);
#814 = EDGE_LOOP('',(#815,#816,#817,#822));
#815 = ORIENTED_EDGE('',*,*,#552,.T.);
#816 = ORIENTED_EDGE('',*,*,#763,.F.);
#817 = ORIENTED_EDGE('',*,*,#818,.F.);
#818 = EDGE_CURVE('',#674,#743,#819,.T.);
#819 = B_SPLINE_CURVE_WITH_KNOTS('',1,(#820,#821),.UNSPECIFIED.,.F.,.F.,
  (2,2),(-2.05,-5.E-02),.PIECEWISE_BEZIER_KNOTS.);
#820 = CARTESIAN_POINT('',(1.6,-1.2,2.440525));
#821 = CARTESIAN_POINT('',(1.6,-1.2,5.9525E-02));
#822 = ORIENTED_EDGE('',*,*,#681,.T.);
#823 = B_SPLINE_SURFACE_WITH_KNOTS('',1,1,(
    (#824,#825)
    ,(#826,#827
    )),.UNSPECIFIED.,.F.,.F.,.F.,(2,2),(2,2),(-1.,1.),(-2.45,-5.E-02),
  .PIECEWISE_BEZIER_KNOTS.);
#824 = CARTESIAN_POINT('',(1.6,1.2,2.440525));
#825 = CARTESIAN_POINT('',(1.6,-1.2,2.440525));
#826 = CARTESIAN_POINT('',(1.6,1.2,5.9525E-02));
#827 = CARTESIAN_POINT('',(1.6,-1.2,5.9525E-02));
#828 = ADVANCED_FACE('',(#829),#843,.F.);
#829 = FACE_BOUND('',#830,.F.);
#830 = EDGE_LOOP('',(#831,#836,#837,#842));
#831 = ORIENTED_EDGE('',*,*,#832,.T.);
#832 = EDGE_CURVE('',#751,#608,#833,.T.);
#833 = B_SPLINE_CURVE_WITH_KNOTS('',1,(#834,#835),.UNSPECIFIED.,.F.,.F.,
  (2,2),(-0.1,0.15),.PIECEWISE_BEZIER_KNOTS.);
#834 = CARTESIAN_POINT('',(1.55,1.2,0.));
#835 = CARTESIAN_POINT('',(1.3,1.2,0.));
#836 = ORIENTED_EDGE('',*,*,#644,.F.);
#837 = ORIENTED_EDGE('',*,*,#838,.F.);
#838 = EDGE_CURVE('',#741,#637,#839,.T.);
#839 = B_SPLINE_CURVE_WITH_KNOTS('',1,(#840,#841),.UNSPECIFIED.,.F.,.F.,
  (2,2),(-0.25,0.),.PIECEWISE_BEZIER_KNOTS.);
#840 = CARTESIAN_POINT('',(1.55,-1.2,0.));
#841 = CARTESIAN_POINT('',(1.3,-1.2,0.));
#842 = ORIENTED_EDGE('',*,*,#750,.T.);
#843 = B_SPLINE_SURFACE_WITH_KNOTS('',1,1,(
    (#844,#845)
    ,(#846,#847
    )),.UNSPECIFIED.,.F.,.F.,.F.,(2,2),(2,2),(-0.1,0.15),(-2.45,-5.E-02)
  ,.PIECEWISE_BEZIER_KNOTS.);
#844 = CARTESIAN_POINT('',(1.55,1.2,0.));
#845 = CARTESIAN_POINT('',(1.55,-1.2,0.));
#846 = CARTESIAN_POINT('',(1.3,1.2,0.));
#847 = CARTESIAN_POINT('',(1.3,-1.2,0.));
#848 = ADVANCED_FACE('',(#849),#860,.T.);
#849 = FACE_BOUND('',#850,.T.);
#850 = EDGE_LOOP('',(#851,#852,#853,#859));
#851 = ORIENTED_EDGE('',*,*,#636,.T.);
#852 = ORIENTED_EDGE('',*,*,#838,.F.);
#853 = ORIENTED_EDGE('',*,*,#854,.F.);
#854 = EDGE_CURVE('',#780,#741,#855,.T.);
#855 = ( BOUNDED_CURVE() B_SPLINE_CURVE(2,(#856,#857,#858),
.UNSPECIFIED.,.F.,.F.) B_SPLINE_CURVE_WITH_KNOTS((3,3),(4.712388980385,
6.28318530718),.PIECEWISE_BEZIER_KNOTS.) CURVE() 
GEOMETRIC_REPRESENTATION_ITEM() RATIONAL_B_SPLINE_CURVE((1.,
0.707106781187,1.)) REPRESENTATION_ITEM('') );
#856 = CARTESIAN_POINT('',(1.55,-1.25,5.9525E-02));
#857 = CARTESIAN_POINT('',(1.55,-1.25,1.65215063852E-17));
#858 = CARTESIAN_POINT('',(1.55,-1.2,0.));
#859 = ORIENTED_EDGE('',*,*,#779,.T.);
#860 = ( BOUNDED_SURFACE() B_SPLINE_SURFACE(2,1,(
    (#861,#862)
    ,(#863,#864)
,(#865,#866
    )),.UNSPECIFIED.,.F.,.F.,.F.) B_SPLINE_SURFACE_WITH_KNOTS((3,3),(2,2
    ),(0.,1.570796326795),(-0.1,0.15),.PIECEWISE_BEZIER_KNOTS.) 
GEOMETRIC_REPRESENTATION_ITEM() RATIONAL_B_SPLINE_SURFACE((
    (1.,1.)
    ,(0.707106781187,0.707106781187)
,(1.,1.))) REPRESENTATION_ITEM('') SURFACE() );
#861 = CARTESIAN_POINT('',(1.55,-1.2,0.));
#862 = CARTESIAN_POINT('',(1.3,-1.2,0.));
#863 = CARTESIAN_POINT('',(1.55,-1.25,0.));
#864 = CARTESIAN_POINT('',(1.3,-1.25,0.));
#865 = CARTESIAN_POINT('',(1.55,-1.25,5.9525E-02));
#866 = CARTESIAN_POINT('',(1.3,-1.25,5.9525E-02));
#867 = ADVANCED_FACE('',(#868),#879,.T.);
#868 = FACE_BOUND('',#869,.T.);
#869 = EDGE_LOOP('',(#870,#871,#872,#878));
#870 = ORIENTED_EDGE('',*,*,#607,.T.);
#871 = ORIENTED_EDGE('',*,*,#802,.F.);
#872 = ORIENTED_EDGE('',*,*,#873,.F.);
#873 = EDGE_CURVE('',#751,#530,#874,.T.);
#874 = ( BOUNDED_CURVE() B_SPLINE_CURVE(2,(#875,#876,#877),
.UNSPECIFIED.,.F.,.F.) B_SPLINE_CURVE_WITH_KNOTS((3,3),(0.,
1.570796326795),.PIECEWISE_BEZIER_KNOTS.) CURVE() 
GEOMETRIC_REPRESENTATION_ITEM() RATIONAL_B_SPLINE_CURVE((1.,
0.707106781187,1.)) REPRESENTATION_ITEM('') );
#875 = CARTESIAN_POINT('',(1.55,1.2,0.));
#876 = CARTESIAN_POINT('',(1.55,1.25,0.));
#877 = CARTESIAN_POINT('',(1.55,1.25,5.9525E-02));
#878 = ORIENTED_EDGE('',*,*,#832,.T.);
#879 = ( BOUNDED_SURFACE() B_SPLINE_SURFACE(2,1,(
    (#880,#881)
    ,(#882,#883)
,(#884,#885
    )),.UNSPECIFIED.,.F.,.F.,.F.) B_SPLINE_SURFACE_WITH_KNOTS((3,3),(2,2
    ),(3.14159265359,4.712388980385),(0.5,0.75),
.PIECEWISE_BEZIER_KNOTS.) GEOMETRIC_REPRESENTATION_ITEM() 
RATIONAL_B_SPLINE_SURFACE((
    (1.,1.)
    ,(0.707106781187,0.707106781187)
,(1.,1.))) REPRESENTATION_ITEM('') SURFACE() );
#880 = CARTESIAN_POINT('',(1.3,1.2,0.));
#881 = CARTESIAN_POINT('',(1.55,1.2,0.));
#882 = CARTESIAN_POINT('',(1.3,1.25,0.));
#883 = CARTESIAN_POINT('',(1.55,1.25,0.));
#884 = CARTESIAN_POINT('',(1.3,1.25,5.9525E-02));
#885 = CARTESIAN_POINT('',(1.55,1.25,5.9525E-02));
#886 = ADVANCED_FACE('',(#887),#897,.T.);
#887 = FACE_BOUND('',#888,.T.);
#888 = EDGE_LOOP('',(#889,#890,#891));
#889 = ORIENTED_EDGE('',*,*,#854,.T.);
#890 = ORIENTED_EDGE('',*,*,#740,.T.);
#891 = ORIENTED_EDGE('',*,*,#892,.T.);
#892 = EDGE_CURVE('',#743,#780,#893,.T.);
#893 = ( BOUNDED_CURVE() B_SPLINE_CURVE(2,(#894,#895,#896),
.UNSPECIFIED.,.F.,.F.) B_SPLINE_CURVE_WITH_KNOTS((3,3),(1.570796326795,
3.14159265359),.PIECEWISE_BEZIER_KNOTS.) CURVE() 
GEOMETRIC_REPRESENTATION_ITEM() RATIONAL_B_SPLINE_CURVE((1.,
0.707106781187,1.)) REPRESENTATION_ITEM('') );
#894 = CARTESIAN_POINT('',(1.6,-1.2,5.9525E-02));
#895 = CARTESIAN_POINT('',(1.6,-1.25,5.9525E-02));
#896 = CARTESIAN_POINT('',(1.55,-1.25,5.9525E-02));
#897 = ( BOUNDED_SURFACE() B_SPLINE_SURFACE(2,2,(
    (#898,#899,#900)
    ,(#901,#902,#903)
    ,(#904,#905,#906
)),.UNSPECIFIED.,.F.,.F.,.F.) B_SPLINE_SURFACE_WITH_KNOTS((3,3),(3,3),(
    4.712388980385,6.28318530718),(-1.570796326795,1.7763568394E-15),
.PIECEWISE_BEZIER_KNOTS.) GEOMETRIC_REPRESENTATION_ITEM() 
RATIONAL_B_SPLINE_SURFACE((
    (1.,0.707106781187,1.)
    ,(0.707106781187,0.5,0.707106781187)
,(1.,0.707106781187,1.))) REPRESENTATION_ITEM('') SURFACE() );
#898 = CARTESIAN_POINT('',(1.55,-1.2,0.));
#899 = CARTESIAN_POINT('',(1.55,-1.25,0.));
#900 = CARTESIAN_POINT('',(1.55,-1.25,5.9525E-02));
#901 = CARTESIAN_POINT('',(1.55,-1.2,0.));
#902 = CARTESIAN_POINT('',(1.6,-1.25,0.));
#903 = CARTESIAN_POINT('',(1.6,-1.25,5.9525E-02));
#904 = CARTESIAN_POINT('',(1.55,-1.2,0.));
#905 = CARTESIAN_POINT('',(1.6,-1.2,0.));
#906 = CARTESIAN_POINT('',(1.6,-1.2,5.9525E-02));
#907 = ADVANCED_FACE('',(#908),#913,.T.);
#908 = FACE_BOUND('',#909,.T.);
#909 = EDGE_LOOP('',(#910,#911,#912));
#910 = ORIENTED_EDGE('',*,*,#757,.T.);
#911 = ORIENTED_EDGE('',*,*,#873,.T.);
#912 = ORIENTED_EDGE('',*,*,#529,.T.);
#913 = ( BOUNDED_SURFACE() B_SPLINE_SURFACE(2,2,(
    (#914,#915,#916)
    ,(#917,#918,#919)
    ,(#920,#921,#922
)),.UNSPECIFIED.,.F.,.F.,.F.) B_SPLINE_SURFACE_WITH_KNOTS((3,3),(3,3),(
    0.,1.570796326795),(-1.570796326795,0.),.PIECEWISE_BEZIER_KNOTS.) 
GEOMETRIC_REPRESENTATION_ITEM() RATIONAL_B_SPLINE_SURFACE((
    (1.,0.707106781187,1.)
    ,(0.707106781187,0.5,0.707106781187)
,(1.,0.707106781187,1.))) REPRESENTATION_ITEM('') SURFACE() );
#914 = CARTESIAN_POINT('',(1.55,1.2,0.));
#915 = CARTESIAN_POINT('',(1.6,1.2,0.));
#916 = CARTESIAN_POINT('',(1.6,1.2,5.9525E-02));
#917 = CARTESIAN_POINT('',(1.55,1.2,0.));
#918 = CARTESIAN_POINT('',(1.6,1.25,0.));
#919 = CARTESIAN_POINT('',(1.6,1.25,5.9525E-02));
#920 = CARTESIAN_POINT('',(1.55,1.2,0.));
#921 = CARTESIAN_POINT('',(1.55,1.25,0.));
#922 = CARTESIAN_POINT('',(1.55,1.25,5.9525E-02));
#923 = ADVANCED_FACE('',(#924),#930,.T.);
#924 = FACE_BOUND('',#925,.T.);
#925 = EDGE_LOOP('',(#926,#927,#928,#929));
#926 = ORIENTED_EDGE('',*,*,#892,.F.);
#927 = ORIENTED_EDGE('',*,*,#818,.F.);
#928 = ORIENTED_EDGE('',*,*,#720,.F.);
#929 = ORIENTED_EDGE('',*,*,#786,.T.);
#930 = ( BOUNDED_SURFACE() B_SPLINE_SURFACE(2,1,(
    (#931,#932)
    ,(#933,#934)
,(#935,#936
    )),.UNSPECIFIED.,.F.,.F.,.F.) B_SPLINE_SURFACE_WITH_KNOTS((3,3),(2,2
    ),(0.,1.570796326795),(-1.,1.),.PIECEWISE_BEZIER_KNOTS.) 
GEOMETRIC_REPRESENTATION_ITEM() RATIONAL_B_SPLINE_SURFACE((
    (1.,1.)
    ,(0.707106781187,0.707106781187)
,(1.,1.))) REPRESENTATION_ITEM('') SURFACE() );
#931 = CARTESIAN_POINT('',(1.6,-1.2,2.440525));
#932 = CARTESIAN_POINT('',(1.6,-1.2,5.9525E-02));
#933 = CARTESIAN_POINT('',(1.6,-1.25,2.440525));
#934 = CARTESIAN_POINT('',(1.6,-1.25,5.9525E-02));
#935 = CARTESIAN_POINT('',(1.55,-1.25,2.440525));
#936 = CARTESIAN_POINT('',(1.55,-1.25,5.9525E-02));
#937 = ( GEOMETRIC_REPRESENTATION_CONTEXT(3) 
GLOBAL_UNCERTAINTY_ASSIGNED_CONTEXT((#941)) GLOBAL_UNIT_ASSIGNED_CONTEXT
((#938,#939,#940)) REPRESENTATION_CONTEXT('Context #1',
  '3D Context with UNIT and UNCERTAINTY') );
#938 = ( LENGTH_UNIT() NAMED_UNIT(*) SI_UNIT(.MILLI.,.METRE.) );
#939 = ( NAMED_UNIT(*) PLANE_ANGLE_UNIT() SI_UNIT($,.RADIAN.) );
#940 = ( NAMED_UNIT(*) SI_UNIT($,.STERADIAN.) SOLID_ANGLE_UNIT() );
#941 = UNCERTAINTY_MEASURE_WITH_UNIT(LENGTH_MEASURE(1.E-07),#938,
  'distance_accuracy_value','confusion accuracy');
#942 = PRODUCT_RELATED_PRODUCT_CATEGORY('part',$,(#479));
#943 = SHAPE_DEFINITION_REPRESENTATION(#944,#950);
#944 = PRODUCT_DEFINITION_SHAPE('','',#945);
#945 = PRODUCT_DEFINITION('design','',#946,#949);
#946 = PRODUCT_DEFINITION_FORMATION('','',#947);
#947 = PRODUCT('Scale006','Scale006','',(#948));
#948 = PRODUCT_CONTEXT('',#2,'mechanical');
#949 = PRODUCT_DEFINITION_CONTEXT('part definition',#2,'design');
#950 = ADVANCED_BREP_SHAPE_REPRESENTATION('',(#11,#951),#1225);
#951 = MANIFOLD_SOLID_BREP('',#952);
#952 = CLOSED_SHELL('',(#953,#993,#1033,#1073,#1113,#1133,#1153,#1173,
    #1193,#1209));
#953 = ADVANCED_FACE('',(#954),#986,.T.);
#954 = FACE_BOUND('',#955,.T.);
#955 = EDGE_LOOP('',(#956,#966,#973,#981));
#956 = ORIENTED_EDGE('',*,*,#957,.F.);
#957 = EDGE_CURVE('',#958,#960,#962,.T.);
#958 = VERTEX_POINT('',#959);
#959 = CARTESIAN_POINT('',(1.45,-1.185,2.4821925));
#960 = VERTEX_POINT('',#961);
#961 = CARTESIAN_POINT('',(1.45,-1.235,2.4226675));
#962 = ( BOUNDED_CURVE() B_SPLINE_CURVE(2,(#963,#964,#965),
.UNSPECIFIED.,.F.,.F.) B_SPLINE_CURVE_WITH_KNOTS((3,3),(3.14159265359,
4.712388980385),.PIECEWISE_BEZIER_KNOTS.) CURVE() 
GEOMETRIC_REPRESENTATION_ITEM() RATIONAL_B_SPLINE_CURVE((1.,
0.707106781187,1.)) REPRESENTATION_ITEM('') );
#963 = CARTESIAN_POINT('',(1.45,-1.185,2.4821925));
#964 = CARTESIAN_POINT('',(1.45,-1.235,2.4821925));
#965 = CARTESIAN_POINT('',(1.45,-1.235,2.4226675));
#966 = ORIENTED_EDGE('',*,*,#967,.T.);
#967 = EDGE_CURVE('',#958,#968,#970,.T.);
#968 = VERTEX_POINT('',#969);
#969 = CARTESIAN_POINT('',(-1.45,-1.185,2.4821925));
#970 = B_SPLINE_CURVE_WITH_KNOTS('',1,(#971,#972),.UNSPECIFIED.,.F.,.F.,
  (2,2),(0.,2.9),.PIECEWISE_BEZIER_KNOTS.);
#971 = CARTESIAN_POINT('',(1.45,-1.185,2.4821925));
#972 = CARTESIAN_POINT('',(-1.45,-1.185,2.4821925));
#973 = ORIENTED_EDGE('',*,*,#974,.T.);
#974 = EDGE_CURVE('',#968,#975,#977,.T.);
#975 = VERTEX_POINT('',#976);
#976 = CARTESIAN_POINT('',(-1.45,-1.235,2.4226675));
#977 = ( BOUNDED_CURVE() B_SPLINE_CURVE(2,(#978,#979,#980),
.UNSPECIFIED.,.F.,.F.) B_SPLINE_CURVE_WITH_KNOTS((3,3),(3.14159265359,
4.712388980385),.PIECEWISE_BEZIER_KNOTS.) CURVE() 
GEOMETRIC_REPRESENTATION_ITEM() RATIONAL_B_SPLINE_CURVE((1.,
0.707106781187,1.)) REPRESENTATION_ITEM('') );
#978 = CARTESIAN_POINT('',(-1.45,-1.185,2.4821925));
#979 = CARTESIAN_POINT('',(-1.45,-1.235,2.4821925));
#980 = CARTESIAN_POINT('',(-1.45,-1.235,2.4226675));
#981 = ORIENTED_EDGE('',*,*,#982,.F.);
#982 = EDGE_CURVE('',#960,#975,#983,.T.);
#983 = B_SPLINE_CURVE_WITH_KNOTS('',1,(#984,#985),.UNSPECIFIED.,.F.,.F.,
  (2,2),(-2.9,0.),.PIECEWISE_BEZIER_KNOTS.);
#984 = CARTESIAN_POINT('',(1.45,-1.235,2.4226675));
#985 = CARTESIAN_POINT('',(-1.45,-1.235,2.4226675));
#986 = ( BOUNDED_SURFACE() B_SPLINE_SURFACE(2,1,(
    (#987,#988)
    ,(#989,#990)
,(#991,#992
    )),.UNSPECIFIED.,.F.,.F.,.F.) B_SPLINE_SURFACE_WITH_KNOTS((3,3),(2,2
    ),(1.570796326795,3.14159265359),(-1.45,1.45),
.PIECEWISE_BEZIER_KNOTS.) GEOMETRIC_REPRESENTATION_ITEM() 
RATIONAL_B_SPLINE_SURFACE((
    (1.,1.)
    ,(0.707106781187,0.707106781187)
,(1.,1.))) REPRESENTATION_ITEM('') SURFACE() );
#987 = CARTESIAN_POINT('',(1.45,-1.235,2.4226675));
#988 = CARTESIAN_POINT('',(-1.45,-1.235,2.4226675));
#989 = CARTESIAN_POINT('',(1.45,-1.235,2.4821925));
#990 = CARTESIAN_POINT('',(-1.45,-1.235,2.4821925));
#991 = CARTESIAN_POINT('',(1.45,-1.185,2.4821925));
#992 = CARTESIAN_POINT('',(-1.45,-1.185,2.4821925));
#993 = ADVANCED_FACE('',(#994),#1026,.T.);
#994 = FACE_BOUND('',#995,.T.);
#995 = EDGE_LOOP('',(#996,#1006,#1013,#1021));
#996 = ORIENTED_EDGE('',*,*,#997,.F.);
#997 = EDGE_CURVE('',#998,#1000,#1002,.T.);
#998 = VERTEX_POINT('',#999);
#999 = CARTESIAN_POINT('',(1.45,-1.235,7.73825E-02));
#1000 = VERTEX_POINT('',#1001);
#1001 = CARTESIAN_POINT('',(1.45,-1.185,1.78575E-02));
#1002 = ( BOUNDED_CURVE() B_SPLINE_CURVE(2,(#1003,#1004,#1005),
.UNSPECIFIED.,.F.,.F.) B_SPLINE_CURVE_WITH_KNOTS((3,3),(4.712388980385,
6.28318530718),.PIECEWISE_BEZIER_KNOTS.) CURVE() 
GEOMETRIC_REPRESENTATION_ITEM() RATIONAL_B_SPLINE_CURVE((1.,
0.707106781187,1.)) REPRESENTATION_ITEM('') );
#1003 = CARTESIAN_POINT('',(1.45,-1.235,7.73825E-02));
#1004 = CARTESIAN_POINT('',(1.45,-1.235,1.78575E-02));
#1005 = CARTESIAN_POINT('',(1.45,-1.185,1.78575E-02));
#1006 = ORIENTED_EDGE('',*,*,#1007,.T.);
#1007 = EDGE_CURVE('',#998,#1008,#1010,.T.);
#1008 = VERTEX_POINT('',#1009);
#1009 = CARTESIAN_POINT('',(-1.45,-1.235,7.73825E-02));
#1010 = B_SPLINE_CURVE_WITH_KNOTS('',1,(#1011,#1012),.UNSPECIFIED.,.F.,
  .F.,(2,2),(-1.45,1.45),.PIECEWISE_BEZIER_KNOTS.);
#1011 = CARTESIAN_POINT('',(1.45,-1.235,7.73825E-02));
#1012 = CARTESIAN_POINT('',(-1.45,-1.235,7.73825E-02));
#1013 = ORIENTED_EDGE('',*,*,#1014,.T.);
#1014 = EDGE_CURVE('',#1008,#1015,#1017,.T.);
#1015 = VERTEX_POINT('',#1016);
#1016 = CARTESIAN_POINT('',(-1.45,-1.185,1.78575E-02));
#1017 = ( BOUNDED_CURVE() B_SPLINE_CURVE(2,(#1018,#1019,#1020),
.UNSPECIFIED.,.F.,.F.) B_SPLINE_CURVE_WITH_KNOTS((3,3),(4.712388980385,
6.28318530718),.PIECEWISE_BEZIER_KNOTS.) CURVE() 
GEOMETRIC_REPRESENTATION_ITEM() RATIONAL_B_SPLINE_CURVE((1.,
0.707106781187,1.)) REPRESENTATION_ITEM('') );
#1018 = CARTESIAN_POINT('',(-1.45,-1.235,7.73825E-02));
#1019 = CARTESIAN_POINT('',(-1.45,-1.235,1.78575E-02));
#1020 = CARTESIAN_POINT('',(-1.45,-1.185,1.78575E-02));
#1021 = ORIENTED_EDGE('',*,*,#1022,.F.);
#1022 = EDGE_CURVE('',#1000,#1015,#1023,.T.);
#1023 = B_SPLINE_CURVE_WITH_KNOTS('',1,(#1024,#1025),.UNSPECIFIED.,.F.,
  .F.,(2,2),(-1.45,1.45),.PIECEWISE_BEZIER_KNOTS.);
#1024 = CARTESIAN_POINT('',(1.45,-1.185,1.78575E-02));
#1025 = CARTESIAN_POINT('',(-1.45,-1.185,1.78575E-02));
#1026 = ( BOUNDED_SURFACE() B_SPLINE_SURFACE(2,1,(
    (#1027,#1028)
    ,(#1029,#1030)
    ,(#1031,#1032
)),.UNSPECIFIED.,.F.,.F.,.F.) B_SPLINE_SURFACE_WITH_KNOTS((3,3),(2,2),(
    1.570796326795,3.14159265359),(-1.45,1.45),
.PIECEWISE_BEZIER_KNOTS.) GEOMETRIC_REPRESENTATION_ITEM() 
RATIONAL_B_SPLINE_SURFACE((
    (1.,1.)
    ,(0.707106781187,0.707106781187)
,(1.,1.))) REPRESENTATION_ITEM('') SURFACE() );
#1027 = CARTESIAN_POINT('',(-1.45,-1.235,7.73825E-02));
#1028 = CARTESIAN_POINT('',(1.45,-1.235,7.73825E-02));
#1029 = CARTESIAN_POINT('',(-1.45,-1.235,1.78575E-02));
#1030 = CARTESIAN_POINT('',(1.45,-1.235,1.78575E-02));
#1031 = CARTESIAN_POINT('',(-1.45,-1.185,1.78575E-02));
#1032 = CARTESIAN_POINT('',(1.45,-1.185,1.78575E-02));
#1033 = ADVANCED_FACE('',(#1034),#1066,.T.);
#1034 = FACE_BOUND('',#1035,.T.);
#1035 = EDGE_LOOP('',(#1036,#1046,#1053,#1061));
#1036 = ORIENTED_EDGE('',*,*,#1037,.F.);
#1037 = EDGE_CURVE('',#1038,#1040,#1042,.T.);
#1038 = VERTEX_POINT('',#1039);
#1039 = CARTESIAN_POINT('',(1.45,1.235,2.4226675));
#1040 = VERTEX_POINT('',#1041);
#1041 = CARTESIAN_POINT('',(1.45,1.185,2.4821925));
#1042 = ( BOUNDED_CURVE() B_SPLINE_CURVE(2,(#1043,#1044,#1045),
.UNSPECIFIED.,.F.,.F.) B_SPLINE_CURVE_WITH_KNOTS((3,3),(1.570796326795,
3.14159265359),.PIECEWISE_BEZIER_KNOTS.) CURVE() 
GEOMETRIC_REPRESENTATION_ITEM() RATIONAL_B_SPLINE_CURVE((1.,
0.707106781187,1.)) REPRESENTATION_ITEM('') );
#1043 = CARTESIAN_POINT('',(1.45,1.235,2.4226675));
#1044 = CARTESIAN_POINT('',(1.45,1.235,2.4821925));
#1045 = CARTESIAN_POINT('',(1.45,1.185,2.4821925));
#1046 = ORIENTED_EDGE('',*,*,#1047,.T.);
#1047 = EDGE_CURVE('',#1038,#1048,#1050,.T.);
#1048 = VERTEX_POINT('',#1049);
#1049 = CARTESIAN_POINT('',(-1.45,1.235,2.4226675));
#1050 = B_SPLINE_CURVE_WITH_KNOTS('',1,(#1051,#1052),.UNSPECIFIED.,.F.,
  .F.,(2,2),(0.,2.9),.PIECEWISE_BEZIER_KNOTS.);
#1051 = CARTESIAN_POINT('',(1.45,1.235,2.4226675));
#1052 = CARTESIAN_POINT('',(-1.45,1.235,2.4226675));
#1053 = ORIENTED_EDGE('',*,*,#1054,.T.);
#1054 = EDGE_CURVE('',#1048,#1055,#1057,.T.);
#1055 = VERTEX_POINT('',#1056);
#1056 = CARTESIAN_POINT('',(-1.45,1.185,2.4821925));
#1057 = ( BOUNDED_CURVE() B_SPLINE_CURVE(2,(#1058,#1059,#1060),
.UNSPECIFIED.,.F.,.F.) B_SPLINE_CURVE_WITH_KNOTS((3,3),(1.570796326795,
3.14159265359),.PIECEWISE_BEZIER_KNOTS.) CURVE() 
GEOMETRIC_REPRESENTATION_ITEM() RATIONAL_B_SPLINE_CURVE((1.,
0.707106781187,1.)) REPRESENTATION_ITEM('') );
#1058 = CARTESIAN_POINT('',(-1.45,1.235,2.4226675));
#1059 = CARTESIAN_POINT('',(-1.45,1.235,2.4821925));
#1060 = CARTESIAN_POINT('',(-1.45,1.185,2.4821925));
#1061 = ORIENTED_EDGE('',*,*,#1062,.F.);
#1062 = EDGE_CURVE('',#1040,#1055,#1063,.T.);
#1063 = B_SPLINE_CURVE_WITH_KNOTS('',1,(#1064,#1065),.UNSPECIFIED.,.F.,
  .F.,(2,2),(-2.9,0.),.PIECEWISE_BEZIER_KNOTS.);
#1064 = CARTESIAN_POINT('',(1.45,1.185,2.4821925));
#1065 = CARTESIAN_POINT('',(-1.45,1.185,2.4821925));
#1066 = ( BOUNDED_SURFACE() B_SPLINE_SURFACE(2,1,(
    (#1067,#1068)
    ,(#1069,#1070)
    ,(#1071,#1072
)),.UNSPECIFIED.,.F.,.F.,.F.) B_SPLINE_SURFACE_WITH_KNOTS((3,3),(2,2),(
    3.14159265359,4.712388980385),(-1.45,1.45),
.PIECEWISE_BEZIER_KNOTS.) GEOMETRIC_REPRESENTATION_ITEM() 
RATIONAL_B_SPLINE_SURFACE((
    (1.,1.)
    ,(0.707106781187,0.707106781187)
,(1.,1.))) REPRESENTATION_ITEM('') SURFACE() );
#1067 = CARTESIAN_POINT('',(1.45,1.185,2.4821925));
#1068 = CARTESIAN_POINT('',(-1.45,1.185,2.4821925));
#1069 = CARTESIAN_POINT('',(1.45,1.235,2.4821925));
#1070 = CARTESIAN_POINT('',(-1.45,1.235,2.4821925));
#1071 = CARTESIAN_POINT('',(1.45,1.235,2.4226675));
#1072 = CARTESIAN_POINT('',(-1.45,1.235,2.4226675));
#1073 = ADVANCED_FACE('',(#1074),#1106,.T.);
#1074 = FACE_BOUND('',#1075,.T.);
#1075 = EDGE_LOOP('',(#1076,#1086,#1093,#1101));
#1076 = ORIENTED_EDGE('',*,*,#1077,.F.);
#1077 = EDGE_CURVE('',#1078,#1080,#1082,.T.);
#1078 = VERTEX_POINT('',#1079);
#1079 = CARTESIAN_POINT('',(1.45,1.185,1.78575E-02));
#1080 = VERTEX_POINT('',#1081);
#1081 = CARTESIAN_POINT('',(1.45,1.235,7.73825E-02));
#1082 = ( BOUNDED_CURVE() B_SPLINE_CURVE(2,(#1083,#1084,#1085),
.UNSPECIFIED.,.F.,.F.) B_SPLINE_CURVE_WITH_KNOTS((3,3),(0.,
1.570796326795),.PIECEWISE_BEZIER_KNOTS.) CURVE() 
GEOMETRIC_REPRESENTATION_ITEM() RATIONAL_B_SPLINE_CURVE((1.,
0.707106781187,1.)) REPRESENTATION_ITEM('') );
#1083 = CARTESIAN_POINT('',(1.45,1.185,1.78575E-02));
#1084 = CARTESIAN_POINT('',(1.45,1.235,1.78575E-02));
#1085 = CARTESIAN_POINT('',(1.45,1.235,7.73825E-02));
#1086 = ORIENTED_EDGE('',*,*,#1087,.T.);
#1087 = EDGE_CURVE('',#1078,#1088,#1090,.T.);
#1088 = VERTEX_POINT('',#1089);
#1089 = CARTESIAN_POINT('',(-1.45,1.185,1.78575E-02));
#1090 = B_SPLINE_CURVE_WITH_KNOTS('',1,(#1091,#1092),.UNSPECIFIED.,.F.,
  .F.,(2,2),(-1.45,1.45),.PIECEWISE_BEZIER_KNOTS.);
#1091 = CARTESIAN_POINT('',(1.45,1.185,1.78575E-02));
#1092 = CARTESIAN_POINT('',(-1.45,1.185,1.78575E-02));
#1093 = ORIENTED_EDGE('',*,*,#1094,.T.);
#1094 = EDGE_CURVE('',#1088,#1095,#1097,.T.);
#1095 = VERTEX_POINT('',#1096);
#1096 = CARTESIAN_POINT('',(-1.45,1.235,7.73825E-02));
#1097 = ( BOUNDED_CURVE() B_SPLINE_CURVE(2,(#1098,#1099,#1100),
.UNSPECIFIED.,.F.,.F.) B_SPLINE_CURVE_WITH_KNOTS((3,3),(0.,
1.570796326795),.PIECEWISE_BEZIER_KNOTS.) CURVE() 
GEOMETRIC_REPRESENTATION_ITEM() RATIONAL_B_SPLINE_CURVE((1.,
0.707106781187,1.)) REPRESENTATION_ITEM('') );
#1098 = CARTESIAN_POINT('',(-1.45,1.185,1.78575E-02));
#1099 = CARTESIAN_POINT('',(-1.45,1.235,1.78575E-02));
#1100 = CARTESIAN_POINT('',(-1.45,1.235,7.73825E-02));
#1101 = ORIENTED_EDGE('',*,*,#1102,.F.);
#1102 = EDGE_CURVE('',#1080,#1095,#1103,.T.);
#1103 = B_SPLINE_CURVE_WITH_KNOTS('',1,(#1104,#1105),.UNSPECIFIED.,.F.,
  .F.,(2,2),(-1.45,1.45),.PIECEWISE_BEZIER_KNOTS.);
#1104 = CARTESIAN_POINT('',(1.45,1.235,7.73825E-02));
#1105 = CARTESIAN_POINT('',(-1.45,1.235,7.73825E-02));
#1106 = ( BOUNDED_SURFACE() B_SPLINE_SURFACE(2,1,(
    (#1107,#1108)
    ,(#1109,#1110)
    ,(#1111,#1112
)),.UNSPECIFIED.,.F.,.F.,.F.) B_SPLINE_SURFACE_WITH_KNOTS((3,3),(2,2),(
    3.14159265359,4.712388980385),(-1.45,1.45),
.PIECEWISE_BEZIER_KNOTS.) GEOMETRIC_REPRESENTATION_ITEM() 
RATIONAL_B_SPLINE_SURFACE((
    (1.,1.)
    ,(0.707106781187,0.707106781187)
,(1.,1.))) REPRESENTATION_ITEM('') SURFACE() );
#1107 = CARTESIAN_POINT('',(-1.45,1.185,1.78575E-02));
#1108 = CARTESIAN_POINT('',(1.45,1.185,1.78575E-02));
#1109 = CARTESIAN_POINT('',(-1.45,1.235,1.78575E-02));
#1110 = CARTESIAN_POINT('',(1.45,1.235,1.78575E-02));
#1111 = CARTESIAN_POINT('',(-1.45,1.235,7.73825E-02));
#1112 = CARTESIAN_POINT('',(1.45,1.235,7.73825E-02));
#1113 = ADVANCED_FACE('',(#1114),#1128,.T.);
#1114 = FACE_BOUND('',#1115,.T.);
#1115 = EDGE_LOOP('',(#1116,#1121,#1122,#1127));
#1116 = ORIENTED_EDGE('',*,*,#1117,.F.);
#1117 = EDGE_CURVE('',#960,#998,#1118,.T.);
#1118 = B_SPLINE_CURVE_WITH_KNOTS('',1,(#1119,#1120),.UNSPECIFIED.,.F.,
  .F.,(2,2),(-0.985,0.985),.PIECEWISE_BEZIER_KNOTS.);
#1119 = CARTESIAN_POINT('',(1.45,-1.235,2.4226675));
#1120 = CARTESIAN_POINT('',(1.45,-1.235,7.73825E-02));
#1121 = ORIENTED_EDGE('',*,*,#982,.T.);
#1122 = ORIENTED_EDGE('',*,*,#1123,.T.);
#1123 = EDGE_CURVE('',#975,#1008,#1124,.T.);
#1124 = B_SPLINE_CURVE_WITH_KNOTS('',1,(#1125,#1126),.UNSPECIFIED.,.F.,
  .F.,(2,2),(-0.985,0.985),.PIECEWISE_BEZIER_KNOTS.);
#1125 = CARTESIAN_POINT('',(-1.45,-1.235,2.4226675));
#1126 = CARTESIAN_POINT('',(-1.45,-1.235,7.73825E-02));
#1127 = ORIENTED_EDGE('',*,*,#1007,.F.);
#1128 = B_SPLINE_SURFACE_WITH_KNOTS('',1,1,(
    (#1129,#1130)
    ,(#1131,#1132
    )),.UNSPECIFIED.,.F.,.F.,.F.,(2,2),(2,2),(-1.45,1.45),(-0.985,0.985)
  ,.PIECEWISE_BEZIER_KNOTS.);
#1129 = CARTESIAN_POINT('',(-1.45,-1.235,7.73825E-02));
#1130 = CARTESIAN_POINT('',(-1.45,-1.235,2.4226675));
#1131 = CARTESIAN_POINT('',(1.45,-1.235,7.73825E-02));
#1132 = CARTESIAN_POINT('',(1.45,-1.235,2.4226675));
#1133 = ADVANCED_FACE('',(#1134),#1148,.T.);
#1134 = FACE_BOUND('',#1135,.T.);
#1135 = EDGE_LOOP('',(#1136,#1141,#1142,#1147));
#1136 = ORIENTED_EDGE('',*,*,#1137,.T.);
#1137 = EDGE_CURVE('',#1038,#1080,#1138,.T.);
#1138 = B_SPLINE_CURVE_WITH_KNOTS('',1,(#1139,#1140),.UNSPECIFIED.,.F.,
  .F.,(2,2),(-0.985,0.985),.PIECEWISE_BEZIER_KNOTS.);
#1139 = CARTESIAN_POINT('',(1.45,1.235,2.4226675));
#1140 = CARTESIAN_POINT('',(1.45,1.235,7.73825E-02));
#1141 = ORIENTED_EDGE('',*,*,#1102,.T.);
#1142 = ORIENTED_EDGE('',*,*,#1143,.F.);
#1143 = EDGE_CURVE('',#1048,#1095,#1144,.T.);
#1144 = B_SPLINE_CURVE_WITH_KNOTS('',1,(#1145,#1146),.UNSPECIFIED.,.F.,
  .F.,(2,2),(-0.985,0.985),.PIECEWISE_BEZIER_KNOTS.);
#1145 = CARTESIAN_POINT('',(-1.45,1.235,2.4226675));
#1146 = CARTESIAN_POINT('',(-1.45,1.235,7.73825E-02));
#1147 = ORIENTED_EDGE('',*,*,#1047,.F.);
#1148 = B_SPLINE_SURFACE_WITH_KNOTS('',1,1,(
    (#1149,#1150)
    ,(#1151,#1152
    )),.UNSPECIFIED.,.F.,.F.,.F.,(2,2),(2,2),(-1.45,1.45),(-0.985,0.985)
  ,.PIECEWISE_BEZIER_KNOTS.);
#1149 = CARTESIAN_POINT('',(-1.45,1.235,2.4226675));
#1150 = CARTESIAN_POINT('',(-1.45,1.235,7.73825E-02));
#1151 = CARTESIAN_POINT('',(1.45,1.235,2.4226675));
#1152 = CARTESIAN_POINT('',(1.45,1.235,7.73825E-02));
#1153 = ADVANCED_FACE('',(#1154),#1168,.F.);
#1154 = FACE_BOUND('',#1155,.F.);
#1155 = EDGE_LOOP('',(#1156,#1157,#1162,#1163));
#1156 = ORIENTED_EDGE('',*,*,#967,.T.);
#1157 = ORIENTED_EDGE('',*,*,#1158,.T.);
#1158 = EDGE_CURVE('',#968,#1055,#1159,.T.);
#1159 = B_SPLINE_CURVE_WITH_KNOTS('',1,(#1160,#1161),.UNSPECIFIED.,.F.,
  .F.,(2,2),(5.E-02,2.42),.PIECEWISE_BEZIER_KNOTS.);
#1160 = CARTESIAN_POINT('',(-1.45,-1.185,2.4821925));
#1161 = CARTESIAN_POINT('',(-1.45,1.185,2.4821925));
#1162 = ORIENTED_EDGE('',*,*,#1062,.F.);
#1163 = ORIENTED_EDGE('',*,*,#1164,.F.);
#1164 = EDGE_CURVE('',#958,#1040,#1165,.T.);
#1165 = B_SPLINE_CURVE_WITH_KNOTS('',1,(#1166,#1167),.UNSPECIFIED.,.F.,
  .F.,(2,2),(5.E-02,2.42),.PIECEWISE_BEZIER_KNOTS.);
#1166 = CARTESIAN_POINT('',(1.45,-1.185,2.4821925));
#1167 = CARTESIAN_POINT('',(1.45,1.185,2.4821925));
#1168 = B_SPLINE_SURFACE_WITH_KNOTS('',1,1,(
    (#1169,#1170)
    ,(#1171,#1172
    )),.UNSPECIFIED.,.F.,.F.,.F.,(2,2),(2,2),(-1.45,1.45),(5.E-02,2.42),
  .PIECEWISE_BEZIER_KNOTS.);
#1169 = CARTESIAN_POINT('',(1.45,-1.185,2.4821925));
#1170 = CARTESIAN_POINT('',(1.45,1.185,2.4821925));
#1171 = CARTESIAN_POINT('',(-1.45,-1.185,2.4821925));
#1172 = CARTESIAN_POINT('',(-1.45,1.185,2.4821925));
#1173 = ADVANCED_FACE('',(#1174),#1188,.T.);
#1174 = FACE_BOUND('',#1175,.T.);
#1175 = EDGE_LOOP('',(#1176,#1181,#1182,#1187));
#1176 = ORIENTED_EDGE('',*,*,#1177,.T.);
#1177 = EDGE_CURVE('',#1015,#1088,#1178,.T.);
#1178 = B_SPLINE_CURVE_WITH_KNOTS('',1,(#1179,#1180),.UNSPECIFIED.,.F.,
  .F.,(2,2),(5.E-02,2.42),.PIECEWISE_BEZIER_KNOTS.);
#1179 = CARTESIAN_POINT('',(-1.45,-1.185,1.78575E-02));
#1180 = CARTESIAN_POINT('',(-1.45,1.185,1.78575E-02));
#1181 = ORIENTED_EDGE('',*,*,#1087,.F.);
#1182 = ORIENTED_EDGE('',*,*,#1183,.F.);
#1183 = EDGE_CURVE('',#1000,#1078,#1184,.T.);
#1184 = B_SPLINE_CURVE_WITH_KNOTS('',1,(#1185,#1186),.UNSPECIFIED.,.F.,
  .F.,(2,2),(5.E-02,2.42),.PIECEWISE_BEZIER_KNOTS.);
#1185 = CARTESIAN_POINT('',(1.45,-1.185,1.78575E-02));
#1186 = CARTESIAN_POINT('',(1.45,1.185,1.78575E-02));
#1187 = ORIENTED_EDGE('',*,*,#1022,.T.);
#1188 = B_SPLINE_SURFACE_WITH_KNOTS('',1,1,(
    (#1189,#1190)
    ,(#1191,#1192
    )),.UNSPECIFIED.,.F.,.F.,.F.,(2,2),(2,2),(-1.45,1.45),(5.E-02,2.42),
  .PIECEWISE_BEZIER_KNOTS.);
#1189 = CARTESIAN_POINT('',(1.45,-1.185,1.78575E-02));
#1190 = CARTESIAN_POINT('',(1.45,1.185,1.78575E-02));
#1191 = CARTESIAN_POINT('',(-1.45,-1.185,1.78575E-02));
#1192 = CARTESIAN_POINT('',(-1.45,1.185,1.78575E-02));
#1193 = ADVANCED_FACE('',(#1194),#1204,.T.);
#1194 = FACE_BOUND('',#1195,.T.);
#1195 = EDGE_LOOP('',(#1196,#1197,#1198,#1199,#1200,#1201,#1202,#1203));
#1196 = ORIENTED_EDGE('',*,*,#1183,.T.);
#1197 = ORIENTED_EDGE('',*,*,#1077,.T.);
#1198 = ORIENTED_EDGE('',*,*,#1137,.F.);
#1199 = ORIENTED_EDGE('',*,*,#1037,.T.);
#1200 = ORIENTED_EDGE('',*,*,#1164,.F.);
#1201 = ORIENTED_EDGE('',*,*,#957,.T.);
#1202 = ORIENTED_EDGE('',*,*,#1117,.T.);
#1203 = ORIENTED_EDGE('',*,*,#997,.T.);
#1204 = B_SPLINE_SURFACE_WITH_KNOTS('',1,1,(
    (#1205,#1206)
    ,(#1207,#1208
  )),.UNSPECIFIED.,.F.,.F.,.F.,(2,2),(2,2),(-1.035,1.035),(
    -2.22044604925E-16,2.47),.PIECEWISE_BEZIER_KNOTS.);
#1205 = CARTESIAN_POINT('',(1.45,-1.235,2.4821925));
#1206 = CARTESIAN_POINT('',(1.45,1.235,2.4821925));
#1207 = CARTESIAN_POINT('',(1.45,-1.235,1.78575E-02));
#1208 = CARTESIAN_POINT('',(1.45,1.235,1.78575E-02));
#1209 = ADVANCED_FACE('',(#1210),#1220,.F.);
#1210 = FACE_BOUND('',#1211,.F.);
#1211 = EDGE_LOOP('',(#1212,#1213,#1214,#1215,#1216,#1217,#1218,#1219));
#1212 = ORIENTED_EDGE('',*,*,#1054,.T.);
#1213 = ORIENTED_EDGE('',*,*,#1158,.F.);
#1214 = ORIENTED_EDGE('',*,*,#974,.T.);
#1215 = ORIENTED_EDGE('',*,*,#1123,.T.);
#1216 = ORIENTED_EDGE('',*,*,#1014,.T.);
#1217 = ORIENTED_EDGE('',*,*,#1177,.T.);
#1218 = ORIENTED_EDGE('',*,*,#1094,.T.);
#1219 = ORIENTED_EDGE('',*,*,#1143,.F.);
#1220 = B_SPLINE_SURFACE_WITH_KNOTS('',1,1,(
    (#1221,#1222)
    ,(#1223,#1224
  )),.UNSPECIFIED.,.F.,.F.,.F.,(2,2),(2,2),(-1.035,1.035),(
    -2.22044604925E-16,2.47),.PIECEWISE_BEZIER_KNOTS.);
#1221 = CARTESIAN_POINT('',(-1.45,-1.235,2.4821925));
#1222 = CARTESIAN_POINT('',(-1.45,1.235,2.4821925));
#1223 = CARTESIAN_POINT('',(-1.45,-1.235,1.78575E-02));
#1224 = CARTESIAN_POINT('',(-1.45,1.235,1.78575E-02));
#1225 = ( GEOMETRIC_REPRESENTATION_CONTEXT(3) 
GLOBAL_UNCERTAINTY_ASSIGNED_CONTEXT((#1229)) 
GLOBAL_UNIT_ASSIGNED_CONTEXT((#1226,#1227,#1228)) REPRESENTATION_CONTEXT
('Context #1','3D Context with UNIT and UNCERTAINTY') );
#1226 = ( LENGTH_UNIT() NAMED_UNIT(*) SI_UNIT(.MILLI.,.METRE.) );
#1227 = ( NAMED_UNIT(*) PLANE_ANGLE_UNIT() SI_UNIT($,.RADIAN.) );
#1228 = ( NAMED_UNIT(*) SI_UNIT($,.STERADIAN.) SOLID_ANGLE_UNIT() );
#1229 = UNCERTAINTY_MEASURE_WITH_UNIT(LENGTH_MEASURE(1.E-07),#1226,
  'distance_accuracy_value','confusion accuracy');
#1230 = PRODUCT_RELATED_PRODUCT_CATEGORY('part',$,(#947));
#1231 = MECHANICAL_DESIGN_GEOMETRIC_PRESENTATION_REPRESENTATION('',(
    #1232,#1240,#1247,#1254,#1261,#1268,#1275,#1282,#1289,#1296,#1303,
    #1310,#1317,#1324,#1331,#1338,#1345,#1352),#469);
#1232 = STYLED_ITEM('color',(#1233),#17);
#1233 = PRESENTATION_STYLE_ASSIGNMENT((#1234));
#1234 = SURFACE_STYLE_USAGE(.BOTH.,#1235);
#1235 = SURFACE_SIDE_STYLE('',(#1236));
#1236 = SURFACE_STYLE_FILL_AREA(#1237);
#1237 = FILL_AREA_STYLE('',(#1238));
#1238 = FILL_AREA_STYLE_COLOUR('',#1239);
#1239 = COLOUR_RGB('',0.800000010877,0.800000010877,0.800000010877);
#1240 = STYLED_ITEM('color',(#1241),#53);
#1241 = PRESENTATION_STYLE_ASSIGNMENT((#1242));
#1242 = SURFACE_STYLE_USAGE(.BOTH.,#1243);
#1243 = SURFACE_SIDE_STYLE('',(#1244));
#1244 = SURFACE_STYLE_FILL_AREA(#1245);
#1245 = FILL_AREA_STYLE('',(#1246));
#1246 = FILL_AREA_STYLE_COLOUR('',#1239);
#1247 = STYLED_ITEM('color',(#1248),#89);
#1248 = PRESENTATION_STYLE_ASSIGNMENT((#1249));
#1249 = SURFACE_STYLE_USAGE(.BOTH.,#1250);
#1250 = SURFACE_SIDE_STYLE('',(#1251));
#1251 = SURFACE_STYLE_FILL_AREA(#1252);
#1252 = FILL_AREA_STYLE('',(#1253));
#1253 = FILL_AREA_STYLE_COLOUR('',#1239);
#1254 = STYLED_ITEM('color',(#1255),#149);
#1255 = PRESENTATION_STYLE_ASSIGNMENT((#1256));
#1256 = SURFACE_STYLE_USAGE(.BOTH.,#1257);
#1257 = SURFACE_SIDE_STYLE('',(#1258));
#1258 = SURFACE_STYLE_FILL_AREA(#1259);
#1259 = FILL_AREA_STYLE('',(#1260));
#1260 = FILL_AREA_STYLE_COLOUR('',#1239);
#1261 = STYLED_ITEM('color',(#1262),#181);
#1262 = PRESENTATION_STYLE_ASSIGNMENT((#1263));
#1263 = SURFACE_STYLE_USAGE(.BOTH.,#1264);
#1264 = SURFACE_SIDE_STYLE('',(#1265));
#1265 = SURFACE_STYLE_FILL_AREA(#1266);
#1266 = FILL_AREA_STYLE('',(#1267));
#1267 = FILL_AREA_STYLE_COLOUR('',#1239);
#1268 = STYLED_ITEM('color',(#1269),#209);
#1269 = PRESENTATION_STYLE_ASSIGNMENT((#1270));
#1270 = SURFACE_STYLE_USAGE(.BOTH.,#1271);
#1271 = SURFACE_SIDE_STYLE('',(#1272));
#1272 = SURFACE_STYLE_FILL_AREA(#1273);
#1273 = FILL_AREA_STYLE('',(#1274));
#1274 = FILL_AREA_STYLE_COLOUR('',#1239);
#1275 = STYLED_ITEM('color',(#1276),#235);
#1276 = PRESENTATION_STYLE_ASSIGNMENT((#1277));
#1277 = SURFACE_STYLE_USAGE(.BOTH.,#1278);
#1278 = SURFACE_SIDE_STYLE('',(#1279));
#1279 = SURFACE_STYLE_FILL_AREA(#1280);
#1280 = FILL_AREA_STYLE('',(#1281));
#1281 = FILL_AREA_STYLE_COLOUR('',#1239);
#1282 = STYLED_ITEM('color',(#1283),#257);
#1283 = PRESENTATION_STYLE_ASSIGNMENT((#1284));
#1284 = SURFACE_STYLE_USAGE(.BOTH.,#1285);
#1285 = SURFACE_SIDE_STYLE('',(#1286));
#1286 = SURFACE_STYLE_FILL_AREA(#1287);
#1287 = FILL_AREA_STYLE('',(#1288));
#1288 = FILL_AREA_STYLE_COLOUR('',#1239);
#1289 = STYLED_ITEM('color',(#1290),#282);
#1290 = PRESENTATION_STYLE_ASSIGNMENT((#1291));
#1291 = SURFACE_STYLE_USAGE(.BOTH.,#1292);
#1292 = SURFACE_SIDE_STYLE('',(#1293));
#1293 = SURFACE_STYLE_FILL_AREA(#1294);
#1294 = FILL_AREA_STYLE('',(#1295));
#1295 = FILL_AREA_STYLE_COLOUR('',#1239);
#1296 = STYLED_ITEM('color',(#1297),#301);
#1297 = PRESENTATION_STYLE_ASSIGNMENT((#1298));
#1298 = SURFACE_STYLE_USAGE(.BOTH.,#1299);
#1299 = SURFACE_SIDE_STYLE('',(#1300));
#1300 = SURFACE_STYLE_FILL_AREA(#1301);
#1301 = FILL_AREA_STYLE('',(#1302));
#1302 = FILL_AREA_STYLE_COLOUR('',#1239);
#1303 = STYLED_ITEM('color',(#1304),#319);
#1304 = PRESENTATION_STYLE_ASSIGNMENT((#1305));
#1305 = SURFACE_STYLE_USAGE(.BOTH.,#1306);
#1306 = SURFACE_SIDE_STYLE('',(#1307));
#1307 = SURFACE_STYLE_FILL_AREA(#1308);
#1308 = FILL_AREA_STYLE('',(#1309));
#1309 = FILL_AREA_STYLE_COLOUR('',#1239);
#1310 = STYLED_ITEM('color',(#1311),#347);
#1311 = PRESENTATION_STYLE_ASSIGNMENT((#1312));
#1312 = SURFACE_STYLE_USAGE(.BOTH.,#1313);
#1313 = SURFACE_SIDE_STYLE('',(#1314));
#1314 = SURFACE_STYLE_FILL_AREA(#1315);
#1315 = FILL_AREA_STYLE('',(#1316));
#1316 = FILL_AREA_STYLE_COLOUR('',#1239);
#1317 = STYLED_ITEM('color',(#1318),#375);
#1318 = PRESENTATION_STYLE_ASSIGNMENT((#1319));
#1319 = SURFACE_STYLE_USAGE(.BOTH.,#1320);
#1320 = SURFACE_SIDE_STYLE('',(#1321));
#1321 = SURFACE_STYLE_FILL_AREA(#1322);
#1322 = FILL_AREA_STYLE('',(#1323));
#1323 = FILL_AREA_STYLE_COLOUR('',#1239);
#1324 = STYLED_ITEM('color',(#1325),#397);
#1325 = PRESENTATION_STYLE_ASSIGNMENT((#1326));
#1326 = SURFACE_STYLE_USAGE(.BOTH.,#1327);
#1327 = SURFACE_SIDE_STYLE('',(#1328));
#1328 = SURFACE_STYLE_FILL_AREA(#1329);
#1329 = FILL_AREA_STYLE('',(#1330));
#1330 = FILL_AREA_STYLE_COLOUR('',#1239);
#1331 = STYLED_ITEM('color',(#1332),#415);
#1332 = PRESENTATION_STYLE_ASSIGNMENT((#1333));
#1333 = SURFACE_STYLE_USAGE(.BOTH.,#1334);
#1334 = SURFACE_SIDE_STYLE('',(#1335));
#1335 = SURFACE_STYLE_FILL_AREA(#1336);
#1336 = FILL_AREA_STYLE('',(#1337));
#1337 = FILL_AREA_STYLE_COLOUR('',#1239);
#1338 = STYLED_ITEM('color',(#1339),#433);
#1339 = PRESENTATION_STYLE_ASSIGNMENT((#1340));
#1340 = SURFACE_STYLE_USAGE(.BOTH.,#1341);
#1341 = SURFACE_SIDE_STYLE('',(#1342));
#1342 = SURFACE_STYLE_FILL_AREA(#1343);
#1343 = FILL_AREA_STYLE('',(#1344));
#1344 = FILL_AREA_STYLE_COLOUR('',#1239);
#1345 = STYLED_ITEM('color',(#1346),#445);
#1346 = PRESENTATION_STYLE_ASSIGNMENT((#1347));
#1347 = SURFACE_STYLE_USAGE(.BOTH.,#1348);
#1348 = SURFACE_SIDE_STYLE('',(#1349));
#1349 = SURFACE_STYLE_FILL_AREA(#1350);
#1350 = FILL_AREA_STYLE('',(#1351));
#1351 = FILL_AREA_STYLE_COLOUR('',#1239);
#1352 = STYLED_ITEM('color',(#1353),#457);
#1353 = PRESENTATION_STYLE_ASSIGNMENT((#1354));
#1354 = SURFACE_STYLE_USAGE(.BOTH.,#1355);
#1355 = SURFACE_SIDE_STYLE('',(#1356));
#1356 = SURFACE_STYLE_FILL_AREA(#1357);
#1357 = FILL_AREA_STYLE('',(#1358));
#1358 = FILL_AREA_STYLE_COLOUR('',#1239);
#1359 = MECHANICAL_DESIGN_GEOMETRIC_PRESENTATION_REPRESENTATION('',(
    #1360,#1368,#1375,#1382,#1389,#1396,#1403,#1410,#1417,#1424),#1225);
#1360 = STYLED_ITEM('color',(#1361),#953);
#1361 = PRESENTATION_STYLE_ASSIGNMENT((#1362));
#1362 = SURFACE_STYLE_USAGE(.BOTH.,#1363);
#1363 = SURFACE_SIDE_STYLE('',(#1364));
#1364 = SURFACE_STYLE_FILL_AREA(#1365);
#1365 = FILL_AREA_STYLE('',(#1366));
#1366 = FILL_AREA_STYLE_COLOUR('',#1367);
#1367 = COLOUR_RGB('',0.909803941505,0.572549045538,0.164705891073);
#1368 = STYLED_ITEM('color',(#1369),#993);
#1369 = PRESENTATION_STYLE_ASSIGNMENT((#1370));
#1370 = SURFACE_STYLE_USAGE(.BOTH.,#1371);
#1371 = SURFACE_SIDE_STYLE('',(#1372));
#1372 = SURFACE_STYLE_FILL_AREA(#1373);
#1373 = FILL_AREA_STYLE('',(#1374));
#1374 = FILL_AREA_STYLE_COLOUR('',#1367);
#1375 = STYLED_ITEM('color',(#1376),#1033);
#1376 = PRESENTATION_STYLE_ASSIGNMENT((#1377));
#1377 = SURFACE_STYLE_USAGE(.BOTH.,#1378);
#1378 = SURFACE_SIDE_STYLE('',(#1379));
#1379 = SURFACE_STYLE_FILL_AREA(#1380);
#1380 = FILL_AREA_STYLE('',(#1381));
#1381 = FILL_AREA_STYLE_COLOUR('',#1367);
#1382 = STYLED_ITEM('color',(#1383),#1073);
#1383 = PRESENTATION_STYLE_ASSIGNMENT((#1384));
#1384 = SURFACE_STYLE_USAGE(.BOTH.,#1385);
#1385 = SURFACE_SIDE_STYLE('',(#1386));
#1386 = SURFACE_STYLE_FILL_AREA(#1387);
#1387 = FILL_AREA_STYLE('',(#1388));
#1388 = FILL_AREA_STYLE_COLOUR('',#1367);
#1389 = STYLED_ITEM('color',(#1390),#1113);
#1390 = PRESENTATION_STYLE_ASSIGNMENT((#1391));
#1391 = SURFACE_STYLE_USAGE(.BOTH.,#1392);
#1392 = SURFACE_SIDE_STYLE('',(#1393));
#1393 = SURFACE_STYLE_FILL_AREA(#1394);
#1394 = FILL_AREA_STYLE('',(#1395));
#1395 = FILL_AREA_STYLE_COLOUR('',#1367);
#1396 = STYLED_ITEM('color',(#1397),#1133);
#1397 = PRESENTATION_STYLE_ASSIGNMENT((#1398));
#1398 = SURFACE_STYLE_USAGE(.BOTH.,#1399);
#1399 = SURFACE_SIDE_STYLE('',(#1400));
#1400 = SURFACE_STYLE_FILL_AREA(#1401);
#1401 = FILL_AREA_STYLE('',(#1402));
#1402 = FILL_AREA_STYLE_COLOUR('',#1367);
#1403 = STYLED_ITEM('color',(#1404),#1153);
#1404 = PRESENTATION_STYLE_ASSIGNMENT((#1405));
#1405 = SURFACE_STYLE_USAGE(.BOTH.,#1406);
#1406 = SURFACE_SIDE_STYLE('',(#1407));
#1407 = SURFACE_STYLE_FILL_AREA(#1408);
#1408 = FILL_AREA_STYLE('',(#1409));
#1409 = FILL_AREA_STYLE_COLOUR('',#1367);
#1410 = STYLED_ITEM('color',(#1411),#1173);
#1411 = PRESENTATION_STYLE_ASSIGNMENT((#1412));
#1412 = SURFACE_STYLE_USAGE(.BOTH.,#1413);
#1413 = SURFACE_SIDE_STYLE('',(#1414));
#1414 = SURFACE_STYLE_FILL_AREA(#1415);
#1415 = FILL_AREA_STYLE('',(#1416));
#1416 = FILL_AREA_STYLE_COLOUR('',#1367);
#1417 = STYLED_ITEM('color',(#1418),#1193);
#1418 = PRESENTATION_STYLE_ASSIGNMENT((#1419));
#1419 = SURFACE_STYLE_USAGE(.BOTH.,#1420);
#1420 = SURFACE_SIDE_STYLE('',(#1421));
#1421 = SURFACE_STYLE_FILL_AREA(#1422);
#1422 = FILL_AREA_STYLE('',(#1423));
#1423 = FILL_AREA_STYLE_COLOUR('',#1367);
#1424 = STYLED_ITEM('color',(#1425),#1209);
#1425 = PRESENTATION_STYLE_ASSIGNMENT((#1426));
#1426 = SURFACE_STYLE_USAGE(.BOTH.,#1427);
#1427 = SURFACE_SIDE_STYLE('',(#1428));
#1428 = SURFACE_STYLE_FILL_AREA(#1429);
#1429 = FILL_AREA_STYLE('',(#1430));
#1430 = FILL_AREA_STYLE_COLOUR('',#1367);
#1431 = MECHANICAL_DESIGN_GEOMETRIC_PRESENTATION_REPRESENTATION('',(
    #1432,#1439,#1446,#1453,#1460,#1467,#1474,#1481,#1488,#1495,#1502,
    #1509,#1516,#1523,#1530,#1537,#1544,#1551),#937);
#1432 = STYLED_ITEM('color',(#1433),#485);
#1433 = PRESENTATION_STYLE_ASSIGNMENT((#1434));
#1434 = SURFACE_STYLE_USAGE(.BOTH.,#1435);
#1435 = SURFACE_SIDE_STYLE('',(#1436));
#1436 = SURFACE_STYLE_FILL_AREA(#1437);
#1437 = FILL_AREA_STYLE('',(#1438));
#1438 = FILL_AREA_STYLE_COLOUR('',#1239);
#1439 = STYLED_ITEM('color',(#1440),#525);
#1440 = PRESENTATION_STYLE_ASSIGNMENT((#1441));
#1441 = SURFACE_STYLE_USAGE(.BOTH.,#1442);
#1442 = SURFACE_SIDE_STYLE('',(#1443));
#1443 = SURFACE_STYLE_FILL_AREA(#1444);
#1444 = FILL_AREA_STYLE('',(#1445));
#1445 = FILL_AREA_STYLE_COLOUR('',#1239);
#1446 = STYLED_ITEM('color',(#1447),#563);
#1447 = PRESENTATION_STYLE_ASSIGNMENT((#1448));
#1448 = SURFACE_STYLE_USAGE(.BOTH.,#1449);
#1449 = SURFACE_SIDE_STYLE('',(#1450));
#1450 = SURFACE_STYLE_FILL_AREA(#1451);
#1451 = FILL_AREA_STYLE('',(#1452));
#1452 = FILL_AREA_STYLE_COLOUR('',#1239);
#1453 = STYLED_ITEM('color',(#1454),#603);
#1454 = PRESENTATION_STYLE_ASSIGNMENT((#1455));
#1455 = SURFACE_STYLE_USAGE(.BOTH.,#1456);
#1456 = SURFACE_SIDE_STYLE('',(#1457));
#1457 = SURFACE_STYLE_FILL_AREA(#1458);
#1458 = FILL_AREA_STYLE('',(#1459));
#1459 = FILL_AREA_STYLE_COLOUR('',#1239);
#1460 = STYLED_ITEM('color',(#1461),#653);
#1461 = PRESENTATION_STYLE_ASSIGNMENT((#1462));
#1462 = SURFACE_STYLE_USAGE(.BOTH.,#1463);
#1463 = SURFACE_SIDE_STYLE('',(#1464));
#1464 = SURFACE_STYLE_FILL_AREA(#1465);
#1465 = FILL_AREA_STYLE('',(#1466));
#1466 = FILL_AREA_STYLE_COLOUR('',#1239);
#1467 = STYLED_ITEM('color',(#1468),#669);
#1468 = PRESENTATION_STYLE_ASSIGNMENT((#1469));
#1469 = SURFACE_STYLE_USAGE(.BOTH.,#1470);
#1470 = SURFACE_SIDE_STYLE('',(#1471));
#1471 = SURFACE_STYLE_FILL_AREA(#1472);
#1472 = FILL_AREA_STYLE('',(#1473));
#1473 = FILL_AREA_STYLE_COLOUR('',#1239);
#1474 = STYLED_ITEM('color',(#1475),#699);
#1475 = PRESENTATION_STYLE_ASSIGNMENT((#1476));
#1476 = SURFACE_STYLE_USAGE(.BOTH.,#1477);
#1477 = SURFACE_SIDE_STYLE('',(#1478));
#1478 = SURFACE_STYLE_FILL_AREA(#1479);
#1479 = FILL_AREA_STYLE('',(#1480));
#1480 = FILL_AREA_STYLE_COLOUR('',#1239);
#1481 = STYLED_ITEM('color',(#1482),#715);
#1482 = PRESENTATION_STYLE_ASSIGNMENT((#1483));
#1483 = SURFACE_STYLE_USAGE(.BOTH.,#1484);
#1484 = SURFACE_SIDE_STYLE('',(#1485));
#1485 = SURFACE_STYLE_FILL_AREA(#1486);
#1486 = FILL_AREA_STYLE('',(#1487));
#1487 = FILL_AREA_STYLE_COLOUR('',#1239);
#1488 = STYLED_ITEM('color',(#1489),#736);
#1489 = PRESENTATION_STYLE_ASSIGNMENT((#1490));
#1490 = SURFACE_STYLE_USAGE(.BOTH.,#1491);
#1491 = SURFACE_SIDE_STYLE('',(#1492));
#1492 = SURFACE_STYLE_FILL_AREA(#1493);
#1493 = FILL_AREA_STYLE('',(#1494));
#1494 = FILL_AREA_STYLE_COLOUR('',#1239);
#1495 = STYLED_ITEM('color',(#1496),#774);
#1496 = PRESENTATION_STYLE_ASSIGNMENT((#1497));
#1497 = SURFACE_STYLE_USAGE(.BOTH.,#1498);
#1498 = SURFACE_SIDE_STYLE('',(#1499));
#1499 = SURFACE_STYLE_FILL_AREA(#1500);
#1500 = FILL_AREA_STYLE('',(#1501));
#1501 = FILL_AREA_STYLE_COLOUR('',#1239);
#1502 = STYLED_ITEM('color',(#1503),#796);
#1503 = PRESENTATION_STYLE_ASSIGNMENT((#1504));
#1504 = SURFACE_STYLE_USAGE(.BOTH.,#1505);
#1505 = SURFACE_SIDE_STYLE('',(#1506));
#1506 = SURFACE_STYLE_FILL_AREA(#1507);
#1507 = FILL_AREA_STYLE('',(#1508));
#1508 = FILL_AREA_STYLE_COLOUR('',#1239);
#1509 = STYLED_ITEM('color',(#1510),#812);
#1510 = PRESENTATION_STYLE_ASSIGNMENT((#1511));
#1511 = SURFACE_STYLE_USAGE(.BOTH.,#1512);
#1512 = SURFACE_SIDE_STYLE('',(#1513));
#1513 = SURFACE_STYLE_FILL_AREA(#1514);
#1514 = FILL_AREA_STYLE('',(#1515));
#1515 = FILL_AREA_STYLE_COLOUR('',#1239);
#1516 = STYLED_ITEM('color',(#1517),#828);
#1517 = PRESENTATION_STYLE_ASSIGNMENT((#1518));
#1518 = SURFACE_STYLE_USAGE(.BOTH.,#1519);
#1519 = SURFACE_SIDE_STYLE('',(#1520));
#1520 = SURFACE_STYLE_FILL_AREA(#1521);
#1521 = FILL_AREA_STYLE('',(#1522));
#1522 = FILL_AREA_STYLE_COLOUR('',#1239);
#1523 = STYLED_ITEM('color',(#1524),#848);
#1524 = PRESENTATION_STYLE_ASSIGNMENT((#1525));
#1525 = SURFACE_STYLE_USAGE(.BOTH.,#1526);
#1526 = SURFACE_SIDE_STYLE('',(#1527));
#1527 = SURFACE_STYLE_FILL_AREA(#1528);
#1528 = FILL_AREA_STYLE('',(#1529));
#1529 = FILL_AREA_STYLE_COLOUR('',#1239);
#1530 = STYLED_ITEM('color',(#1531),#867);
#1531 = PRESENTATION_STYLE_ASSIGNMENT((#1532));
#1532 = SURFACE_STYLE_USAGE(.BOTH.,#1533);
#1533 = SURFACE_SIDE_STYLE('',(#1534));
#1534 = SURFACE_STYLE_FILL_AREA(#1535);
#1535 = FILL_AREA_STYLE('',(#1536));
#1536 = FILL_AREA_STYLE_COLOUR('',#1239);
#1537 = STYLED_ITEM('color',(#1538),#886);
#1538 = PRESENTATION_STYLE_ASSIGNMENT((#1539));
#1539 = SURFACE_STYLE_USAGE(.BOTH.,#1540);
#1540 = SURFACE_SIDE_STYLE('',(#1541));
#1541 = SURFACE_STYLE_FILL_AREA(#1542);
#1542 = FILL_AREA_STYLE('',(#1543));
#1543 = FILL_AREA_STYLE_COLOUR('',#1239);
#1544 = STYLED_ITEM('color',(#1545),#907);
#1545 = PRESENTATION_STYLE_ASSIGNMENT((#1546));
#1546 = SURFACE_STYLE_USAGE(.BOTH.,#1547);
#1547 = SURFACE_SIDE_STYLE('',(#1548));
#1548 = SURFACE_STYLE_FILL_AREA(#1549);
#1549 = FILL_AREA_STYLE('',(#1550));
#1550 = FILL_AREA_STYLE_COLOUR('',#1239);
#1551 = STYLED_ITEM('color',(#1552),#923);
#1552 = PRESENTATION_STYLE_ASSIGNMENT((#1553));
#1553 = SURFACE_STYLE_USAGE(.BOTH.,#1554);
#1554 = SURFACE_SIDE_STYLE('',(#1555));
#1555 = SURFACE_STYLE_FILL_AREA(#1556);
#1556 = FILL_AREA_STYLE('',(#1557));
#1557 = FILL_AREA_STYLE_COLOUR('',#1239);
ENDSEC;
END-ISO-10303-21;
