ISO-10303-21;
HEADER;
FILE_DESCRIPTION(('FreeCAD Model'),'2;1');
FILE_NAME('Open CASCADE Shape Model','2025-09-08T23:06:32',(''),(''),
  'Open CASCADE STEP processor 7.8','FreeCAD','Unknown');
FILE_SCHEMA(('AUTOMOTIVE_DESIGN { 1 0 10303 214 1 1 1 1 }'));
ENDSEC;
DATA;
#1 = APPLICATION_PROTOCOL_DEFINITION('international standard',
  'automotive_design',2000,#2);
#2 = APPLICATION_CONTEXT(
  'core data for automotive mechanical design processes');
#3 = SHAPE_DEFINITION_REPRESENTATION(#4,#10);
#4 = PRODUCT_DEFINITION_SHAPE('','',#5);
#5 = PRODUCT_DEFINITION('design','',#6,#9);
#6 = PRODUCT_DEFINITION_FORMATION('','',#7);
#7 = PRODUCT('WE-PMCI_201610','WE-PMCI_201610','',(#8));
#8 = PRODUCT_CONTEXT('',#2,'mechanical');
#9 = PRODUCT_DEFINITION_CONTEXT('part definition',#2,'design');
#10 = ADVANCED_BREP_SHAPE_REPRESENTATION('',(#11,#15),#905);
#11 = AXIS2_PLACEMENT_3D('',#12,#13,#14);
#12 = CARTESIAN_POINT('',(0.,0.,0.));
#13 = DIRECTION('',(0.,0.,1.));
#14 = DIRECTION('',(1.,0.,-0.));
#15 = MANIFOLD_SOLID_BREP('',#16);
#16 = CLOSED_SHELL('',(#17,#57,#97,#169,#241,#290,#321,#361,#410,#441,
    #481,#499,#522,#540,#558,#576,#599,#616,#634,#652,#670,#693,#710,
    #728,#746,#764,#782,#799,#816,#834,#852,#869,#881,#893));
#17 = ADVANCED_FACE('',(#18),#52,.T.);
#18 = FACE_BOUND('',#19,.T.);
#19 = EDGE_LOOP('',(#20,#30,#38,#46));
#20 = ORIENTED_EDGE('',*,*,#21,.F.);
#21 = EDGE_CURVE('',#22,#24,#26,.T.);
#22 = VERTEX_POINT('',#23);
#23 = CARTESIAN_POINT('',(-0.5,0.78,1.665334536938E-16));
#24 = VERTEX_POINT('',#25);
#25 = CARTESIAN_POINT('',(-0.5,-0.78,-2.22044604925E-16));
#26 = LINE('',#27,#28);
#27 = CARTESIAN_POINT('',(-0.5,0.8,1.665334536938E-16));
#28 = VECTOR('',#29,1.);
#29 = DIRECTION('',(-2.168404344971E-16,-1.,-2.22044604925E-16));
#30 = ORIENTED_EDGE('',*,*,#31,.T.);
#31 = EDGE_CURVE('',#22,#32,#34,.T.);
#32 = VERTEX_POINT('',#33);
#33 = CARTESIAN_POINT('',(0.5,0.78,1.665334536938E-16));
#34 = LINE('',#35,#36);
#35 = CARTESIAN_POINT('',(0.5,0.78,1.665334536938E-16));
#36 = VECTOR('',#37,1.);
#37 = DIRECTION('',(1.,0.,0.));
#38 = ORIENTED_EDGE('',*,*,#39,.T.);
#39 = EDGE_CURVE('',#32,#40,#42,.T.);
#40 = VERTEX_POINT('',#41);
#41 = CARTESIAN_POINT('',(0.5,-0.78,-2.22044604925E-16));
#42 = LINE('',#43,#44);
#43 = CARTESIAN_POINT('',(0.5,0.8,1.665334536938E-16));
#44 = VECTOR('',#45,1.);
#45 = DIRECTION('',(-2.168404344971E-16,-1.,-2.22044604925E-16));
#46 = ORIENTED_EDGE('',*,*,#47,.T.);
#47 = EDGE_CURVE('',#40,#24,#48,.T.);
#48 = LINE('',#49,#50);
#49 = CARTESIAN_POINT('',(-0.5,-0.78,-2.22044604925E-16));
#50 = VECTOR('',#51,1.);
#51 = DIRECTION('',(-1.,2.168404344971E-16,4.814824860968E-32));
#52 = PLANE('',#53);
#53 = AXIS2_PLACEMENT_3D('',#54,#55,#56);
#54 = CARTESIAN_POINT('',(0.,1.110223024625E-16,0.));
#55 = DIRECTION('',(0.,2.22044604925E-16,-1.));
#56 = DIRECTION('',(0.,-1.,-2.22044604925E-16));
#57 = ADVANCED_FACE('',(#58),#92,.F.);
#58 = FACE_BOUND('',#59,.T.);
#59 = EDGE_LOOP('',(#60,#70,#78,#86));
#60 = ORIENTED_EDGE('',*,*,#61,.F.);
#61 = EDGE_CURVE('',#62,#64,#66,.T.);
#62 = VERTEX_POINT('',#63);
#63 = CARTESIAN_POINT('',(0.9775,0.78,1.));
#64 = VERTEX_POINT('',#65);
#65 = CARTESIAN_POINT('',(0.9775,-0.78,1.));
#66 = LINE('',#67,#68);
#67 = CARTESIAN_POINT('',(0.9775,0.8,1.));
#68 = VECTOR('',#69,1.);
#69 = DIRECTION('',(-2.168404344971E-16,-1.,-2.22044604925E-16));
#70 = ORIENTED_EDGE('',*,*,#71,.F.);
#71 = EDGE_CURVE('',#72,#62,#74,.T.);
#72 = VERTEX_POINT('',#73);
#73 = CARTESIAN_POINT('',(-0.9775,0.78,1.));
#74 = LINE('',#75,#76);
#75 = CARTESIAN_POINT('',(0.,0.78,1.));
#76 = VECTOR('',#77,1.);
#77 = DIRECTION('',(1.,0.,0.));
#78 = ORIENTED_EDGE('',*,*,#79,.T.);
#79 = EDGE_CURVE('',#72,#80,#82,.T.);
#80 = VERTEX_POINT('',#81);
#81 = CARTESIAN_POINT('',(-0.9775,-0.78,1.));
#82 = LINE('',#83,#84);
#83 = CARTESIAN_POINT('',(-0.9775,1.009392222584E-16,1.));
#84 = VECTOR('',#85,1.);
#85 = DIRECTION('',(-2.168404344971E-16,-1.,-2.22044604925E-16));
#86 = ORIENTED_EDGE('',*,*,#87,.F.);
#87 = EDGE_CURVE('',#64,#80,#88,.T.);
#88 = LINE('',#89,#90);
#89 = CARTESIAN_POINT('',(-1.691355389077E-16,-0.78,1.));
#90 = VECTOR('',#91,1.);
#91 = DIRECTION('',(-1.,2.168404344971E-16,4.814824860968E-32));
#92 = PLANE('',#93);
#93 = AXIS2_PLACEMENT_3D('',#94,#95,#96);
#94 = CARTESIAN_POINT('',(0.,-1.110223024625E-16,1.));
#95 = DIRECTION('',(0.,2.22044604925E-16,-1.));
#96 = DIRECTION('',(0.,-1.,-2.22044604925E-16));
#97 = ADVANCED_FACE('',(#98),#164,.F.);
#98 = FACE_BOUND('',#99,.T.);
#99 = EDGE_LOOP('',(#100,#110,#118,#126,#134,#142,#150,#158));
#100 = ORIENTED_EDGE('',*,*,#101,.F.);
#101 = EDGE_CURVE('',#102,#104,#106,.T.);
#102 = VERTEX_POINT('',#103);
#103 = CARTESIAN_POINT('',(0.5,0.8,2.E-02));
#104 = VERTEX_POINT('',#105);
#105 = CARTESIAN_POINT('',(0.5,0.8,2.25E-02));
#106 = LINE('',#107,#108);
#107 = CARTESIAN_POINT('',(0.5,0.8,1.665334536938E-16));
#108 = VECTOR('',#109,1.);
#109 = DIRECTION('',(0.,-2.22044604925E-16,1.));
#110 = ORIENTED_EDGE('',*,*,#111,.F.);
#111 = EDGE_CURVE('',#112,#102,#114,.T.);
#112 = VERTEX_POINT('',#113);
#113 = CARTESIAN_POINT('',(-0.5,0.8,2.E-02));
#114 = LINE('',#115,#116);
#115 = CARTESIAN_POINT('',(-0.5,0.8,2.E-02));
#116 = VECTOR('',#117,1.);
#117 = DIRECTION('',(1.,0.,0.));
#118 = ORIENTED_EDGE('',*,*,#119,.T.);
#119 = EDGE_CURVE('',#112,#120,#122,.T.);
#120 = VERTEX_POINT('',#121);
#121 = CARTESIAN_POINT('',(-0.5,0.8,2.25E-02));
#122 = LINE('',#123,#124);
#123 = CARTESIAN_POINT('',(-0.5,0.8,1.665334536938E-16));
#124 = VECTOR('',#125,1.);
#125 = DIRECTION('',(0.,-2.22044604925E-16,1.));
#126 = ORIENTED_EDGE('',*,*,#127,.T.);
#127 = EDGE_CURVE('',#120,#128,#130,.T.);
#128 = VERTEX_POINT('',#129);
#129 = CARTESIAN_POINT('',(-0.9775,0.8,2.25E-02));
#130 = LINE('',#131,#132);
#131 = CARTESIAN_POINT('',(-1.,0.8,2.25E-02));
#132 = VECTOR('',#133,1.);
#133 = DIRECTION('',(-1.,0.,0.));
#134 = ORIENTED_EDGE('',*,*,#135,.T.);
#135 = EDGE_CURVE('',#128,#136,#138,.T.);
#136 = VERTEX_POINT('',#137);
#137 = CARTESIAN_POINT('',(-0.9775,0.8,0.98));
#138 = LINE('',#139,#140);
#139 = CARTESIAN_POINT('',(-0.9775,0.8,1.665334536938E-16));
#140 = VECTOR('',#141,1.);
#141 = DIRECTION('',(0.,-2.22044604925E-16,1.));
#142 = ORIENTED_EDGE('',*,*,#143,.T.);
#143 = EDGE_CURVE('',#136,#144,#146,.T.);
#144 = VERTEX_POINT('',#145);
#145 = CARTESIAN_POINT('',(0.9775,0.8,0.98));
#146 = LINE('',#147,#148);
#147 = CARTESIAN_POINT('',(-1.,0.8,0.98));
#148 = VECTOR('',#149,1.);
#149 = DIRECTION('',(1.,0.,0.));
#150 = ORIENTED_EDGE('',*,*,#151,.F.);
#151 = EDGE_CURVE('',#152,#144,#154,.T.);
#152 = VERTEX_POINT('',#153);
#153 = CARTESIAN_POINT('',(0.9775,0.8,2.25E-02));
#154 = LINE('',#155,#156);
#155 = CARTESIAN_POINT('',(0.9775,0.8,2.5E-03));
#156 = VECTOR('',#157,1.);
#157 = DIRECTION('',(0.,-2.22044604925E-16,1.));
#158 = ORIENTED_EDGE('',*,*,#159,.F.);
#159 = EDGE_CURVE('',#104,#152,#160,.T.);
#160 = LINE('',#161,#162);
#161 = CARTESIAN_POINT('',(0.5,0.8,2.25E-02));
#162 = VECTOR('',#163,1.);
#163 = DIRECTION('',(1.,0.,0.));
#164 = PLANE('',#165);
#165 = AXIS2_PLACEMENT_3D('',#166,#167,#168);
#166 = CARTESIAN_POINT('',(-1.,0.8,1.665334536938E-16));
#167 = DIRECTION('',(0.,-1.,-2.22044604925E-16));
#168 = DIRECTION('',(1.,0.,0.));
#169 = ADVANCED_FACE('',(#170),#236,.F.);
#170 = FACE_BOUND('',#171,.T.);
#171 = EDGE_LOOP('',(#172,#182,#190,#198,#206,#214,#222,#230));
#172 = ORIENTED_EDGE('',*,*,#173,.F.);
#173 = EDGE_CURVE('',#174,#176,#178,.T.);
#174 = VERTEX_POINT('',#175);
#175 = CARTESIAN_POINT('',(-0.5,-0.8,2.E-02));
#176 = VERTEX_POINT('',#177);
#177 = CARTESIAN_POINT('',(-0.5,-0.8,2.25E-02));
#178 = LINE('',#179,#180);
#179 = CARTESIAN_POINT('',(-0.5,-0.8,-2.22044604925E-16));
#180 = VECTOR('',#181,1.);
#181 = DIRECTION('',(0.,-2.22044604925E-16,1.));
#182 = ORIENTED_EDGE('',*,*,#183,.F.);
#183 = EDGE_CURVE('',#184,#174,#186,.T.);
#184 = VERTEX_POINT('',#185);
#185 = CARTESIAN_POINT('',(0.5,-0.8,2.E-02));
#186 = LINE('',#187,#188);
#187 = CARTESIAN_POINT('',(0.5,-0.8,2.E-02));
#188 = VECTOR('',#189,1.);
#189 = DIRECTION('',(-1.,2.168404344971E-16,4.814824860968E-32));
#190 = ORIENTED_EDGE('',*,*,#191,.T.);
#191 = EDGE_CURVE('',#184,#192,#194,.T.);
#192 = VERTEX_POINT('',#193);
#193 = CARTESIAN_POINT('',(0.5,-0.8,2.25E-02));
#194 = LINE('',#195,#196);
#195 = CARTESIAN_POINT('',(0.5,-0.8,-2.22044604925E-16));
#196 = VECTOR('',#197,1.);
#197 = DIRECTION('',(0.,-2.22044604925E-16,1.));
#198 = ORIENTED_EDGE('',*,*,#199,.T.);
#199 = EDGE_CURVE('',#192,#200,#202,.T.);
#200 = VERTEX_POINT('',#201);
#201 = CARTESIAN_POINT('',(0.9775,-0.8,2.25E-02));
#202 = LINE('',#203,#204);
#203 = CARTESIAN_POINT('',(0.9975,-0.8,2.25E-02));
#204 = VECTOR('',#205,1.);
#205 = DIRECTION('',(1.,-2.168404344971E-16,-4.814824860968E-32));
#206 = ORIENTED_EDGE('',*,*,#207,.T.);
#207 = EDGE_CURVE('',#200,#208,#210,.T.);
#208 = VERTEX_POINT('',#209);
#209 = CARTESIAN_POINT('',(0.9775,-0.8,0.98));
#210 = LINE('',#211,#212);
#211 = CARTESIAN_POINT('',(0.9775,-0.8,1.));
#212 = VECTOR('',#213,1.);
#213 = DIRECTION('',(0.,-2.22044604925E-16,1.));
#214 = ORIENTED_EDGE('',*,*,#215,.T.);
#215 = EDGE_CURVE('',#208,#216,#218,.T.);
#216 = VERTEX_POINT('',#217);
#217 = CARTESIAN_POINT('',(-0.9775,-0.8,0.98));
#218 = LINE('',#219,#220);
#219 = CARTESIAN_POINT('',(1.,-0.8,0.98));
#220 = VECTOR('',#221,1.);
#221 = DIRECTION('',(-1.,2.168404344971E-16,4.814824860968E-32));
#222 = ORIENTED_EDGE('',*,*,#223,.F.);
#223 = EDGE_CURVE('',#224,#216,#226,.T.);
#224 = VERTEX_POINT('',#225);
#225 = CARTESIAN_POINT('',(-0.9775,-0.8,2.25E-02));
#226 = LINE('',#227,#228);
#227 = CARTESIAN_POINT('',(-0.9775,-0.8,-2.22044604925E-16));
#228 = VECTOR('',#229,1.);
#229 = DIRECTION('',(0.,-2.22044604925E-16,1.));
#230 = ORIENTED_EDGE('',*,*,#231,.F.);
#231 = EDGE_CURVE('',#176,#224,#232,.T.);
#232 = LINE('',#233,#234);
#233 = CARTESIAN_POINT('',(1.,-0.8,2.25E-02));
#234 = VECTOR('',#235,1.);
#235 = DIRECTION('',(-1.,2.168404344971E-16,4.814824860968E-32));
#236 = PLANE('',#237);
#237 = AXIS2_PLACEMENT_3D('',#238,#239,#240);
#238 = CARTESIAN_POINT('',(1.,-0.8,-2.22044604925E-16));
#239 = DIRECTION('',(2.168404344971E-16,1.,2.22044604925E-16));
#240 = DIRECTION('',(-1.,2.168404344971E-16,4.814824860968E-32));
#241 = ADVANCED_FACE('',(#242),#285,.F.);
#242 = FACE_BOUND('',#243,.T.);
#243 = EDGE_LOOP('',(#244,#245,#252,#253,#260,#261,#270,#278));
#244 = ORIENTED_EDGE('',*,*,#119,.F.);
#245 = ORIENTED_EDGE('',*,*,#246,.F.);
#246 = EDGE_CURVE('',#22,#112,#247,.T.);
#247 = CIRCLE('',#248,2.E-02);
#248 = AXIS2_PLACEMENT_3D('',#249,#250,#251);
#249 = CARTESIAN_POINT('',(-0.5,0.78,2.E-02));
#250 = DIRECTION('',(1.,-2.168404344971E-16,-4.814824860968E-32));
#251 = DIRECTION('',(2.168404344971E-16,1.,2.22044604925E-16));
#252 = ORIENTED_EDGE('',*,*,#21,.T.);
#253 = ORIENTED_EDGE('',*,*,#254,.F.);
#254 = EDGE_CURVE('',#174,#24,#255,.T.);
#255 = CIRCLE('',#256,2.E-02);
#256 = AXIS2_PLACEMENT_3D('',#257,#258,#259);
#257 = CARTESIAN_POINT('',(-0.5,-0.78,2.E-02));
#258 = DIRECTION('',(1.,-2.168404344971E-16,-4.814824860968E-32));
#259 = DIRECTION('',(2.168404344971E-16,1.,2.22044604925E-16));
#260 = ORIENTED_EDGE('',*,*,#173,.T.);
#261 = ORIENTED_EDGE('',*,*,#262,.T.);
#262 = EDGE_CURVE('',#176,#263,#265,.T.);
#263 = VERTEX_POINT('',#264);
#264 = CARTESIAN_POINT('',(-0.5,-0.78,2.5E-03));
#265 = CIRCLE('',#266,2.E-02);
#266 = AXIS2_PLACEMENT_3D('',#267,#268,#269);
#267 = CARTESIAN_POINT('',(-0.5,-0.78,2.25E-02));
#268 = DIRECTION('',(1.,-2.168404344971E-16,-4.814824860968E-32));
#269 = DIRECTION('',(2.168404344971E-16,1.,2.22044604925E-16));
#270 = ORIENTED_EDGE('',*,*,#271,.F.);
#271 = EDGE_CURVE('',#272,#263,#274,.T.);
#272 = VERTEX_POINT('',#273);
#273 = CARTESIAN_POINT('',(-0.5,0.78,2.5E-03));
#274 = LINE('',#275,#276);
#275 = CARTESIAN_POINT('',(-0.5,0.8,2.5E-03));
#276 = VECTOR('',#277,1.);
#277 = DIRECTION('',(-2.168404344971E-16,-1.,-2.22044604925E-16));
#278 = ORIENTED_EDGE('',*,*,#279,.T.);
#279 = EDGE_CURVE('',#272,#120,#280,.T.);
#280 = CIRCLE('',#281,2.E-02);
#281 = AXIS2_PLACEMENT_3D('',#282,#283,#284);
#282 = CARTESIAN_POINT('',(-0.5,0.78,2.25E-02));
#283 = DIRECTION('',(1.,-2.168404344971E-16,-4.814824860968E-32));
#284 = DIRECTION('',(2.168404344971E-16,1.,2.22044604925E-16));
#285 = PLANE('',#286);
#286 = AXIS2_PLACEMENT_3D('',#287,#288,#289);
#287 = CARTESIAN_POINT('',(-0.5,0.8,1.665334536938E-16));
#288 = DIRECTION('',(1.,-2.168404344971E-16,-4.814824860968E-32));
#289 = DIRECTION('',(2.168404344971E-16,1.,2.22044604925E-16));
#290 = ADVANCED_FACE('',(#291),#316,.F.);
#291 = FACE_BOUND('',#292,.T.);
#292 = EDGE_LOOP('',(#293,#303,#309,#310));
#293 = ORIENTED_EDGE('',*,*,#294,.F.);
#294 = EDGE_CURVE('',#295,#297,#299,.T.);
#295 = VERTEX_POINT('',#296);
#296 = CARTESIAN_POINT('',(-0.9775,0.78,2.5E-03));
#297 = VERTEX_POINT('',#298);
#298 = CARTESIAN_POINT('',(-0.9775,-0.78,2.5E-03));
#299 = LINE('',#300,#301);
#300 = CARTESIAN_POINT('',(-0.9775,0.8,2.5E-03));
#301 = VECTOR('',#302,1.);
#302 = DIRECTION('',(-2.168404344971E-16,-1.,-2.22044604925E-16));
#303 = ORIENTED_EDGE('',*,*,#304,.F.);
#304 = EDGE_CURVE('',#272,#295,#305,.T.);
#305 = LINE('',#306,#307);
#306 = CARTESIAN_POINT('',(-0.5,0.78,2.5E-03));
#307 = VECTOR('',#308,1.);
#308 = DIRECTION('',(-1.,0.,0.));
#309 = ORIENTED_EDGE('',*,*,#271,.T.);
#310 = ORIENTED_EDGE('',*,*,#311,.T.);
#311 = EDGE_CURVE('',#263,#297,#312,.T.);
#312 = LINE('',#313,#314);
#313 = CARTESIAN_POINT('',(-0.5,-0.78,2.5E-03));
#314 = VECTOR('',#315,1.);
#315 = DIRECTION('',(-1.,2.168404344971E-16,4.814824860968E-32));
#316 = PLANE('',#317);
#317 = AXIS2_PLACEMENT_3D('',#318,#319,#320);
#318 = CARTESIAN_POINT('',(-0.5,0.8,2.5E-03));
#319 = DIRECTION('',(0.,-2.22044604925E-16,1.));
#320 = DIRECTION('',(0.,1.,2.22044604925E-16));
#321 = ADVANCED_FACE('',(#322),#356,.F.);
#322 = FACE_BOUND('',#323,.T.);
#323 = EDGE_LOOP('',(#324,#334,#342,#350));
#324 = ORIENTED_EDGE('',*,*,#325,.F.);
#325 = EDGE_CURVE('',#326,#328,#330,.T.);
#326 = VERTEX_POINT('',#327);
#327 = CARTESIAN_POINT('',(-0.9975,0.78,0.98));
#328 = VERTEX_POINT('',#329);
#329 = CARTESIAN_POINT('',(-0.9975,-0.78,0.98));
#330 = LINE('',#331,#332);
#331 = CARTESIAN_POINT('',(-0.9975,0.8,0.98));
#332 = VECTOR('',#333,1.);
#333 = DIRECTION('',(-2.168404344971E-16,-1.,-2.22044604925E-16));
#334 = ORIENTED_EDGE('',*,*,#335,.F.);
#335 = EDGE_CURVE('',#336,#326,#338,.T.);
#336 = VERTEX_POINT('',#337);
#337 = CARTESIAN_POINT('',(-0.9975,0.78,2.25E-02));
#338 = LINE('',#339,#340);
#339 = CARTESIAN_POINT('',(-0.9975,0.78,2.5E-03));
#340 = VECTOR('',#341,1.);
#341 = DIRECTION('',(0.,-2.22044604925E-16,1.));
#342 = ORIENTED_EDGE('',*,*,#343,.T.);
#343 = EDGE_CURVE('',#336,#344,#346,.T.);
#344 = VERTEX_POINT('',#345);
#345 = CARTESIAN_POINT('',(-0.9975,-0.78,2.25E-02));
#346 = LINE('',#347,#348);
#347 = CARTESIAN_POINT('',(-0.9975,0.8,2.25E-02));
#348 = VECTOR('',#349,1.);
#349 = DIRECTION('',(-2.168404344971E-16,-1.,-2.22044604925E-16));
#350 = ORIENTED_EDGE('',*,*,#351,.T.);
#351 = EDGE_CURVE('',#344,#328,#352,.T.);
#352 = LINE('',#353,#354);
#353 = CARTESIAN_POINT('',(-0.9975,-0.78,2.5E-03));
#354 = VECTOR('',#355,1.);
#355 = DIRECTION('',(0.,-2.22044604925E-16,1.));
#356 = PLANE('',#357);
#357 = AXIS2_PLACEMENT_3D('',#358,#359,#360);
#358 = CARTESIAN_POINT('',(-0.9975,0.8,2.5E-03));
#359 = DIRECTION('',(1.,-2.168404344971E-16,-4.814824860968E-32));
#360 = DIRECTION('',(2.168404344971E-16,1.,2.22044604925E-16));
#361 = ADVANCED_FACE('',(#362),#405,.T.);
#362 = FACE_BOUND('',#363,.T.);
#363 = EDGE_LOOP('',(#364,#365,#372,#373,#382,#390,#397,#398));
#364 = ORIENTED_EDGE('',*,*,#39,.F.);
#365 = ORIENTED_EDGE('',*,*,#366,.T.);
#366 = EDGE_CURVE('',#32,#102,#367,.T.);
#367 = CIRCLE('',#368,2.E-02);
#368 = AXIS2_PLACEMENT_3D('',#369,#370,#371);
#369 = CARTESIAN_POINT('',(0.5,0.78,2.E-02));
#370 = DIRECTION('',(1.,-2.168404344971E-16,-4.814824860968E-32));
#371 = DIRECTION('',(2.168404344971E-16,1.,2.22044604925E-16));
#372 = ORIENTED_EDGE('',*,*,#101,.T.);
#373 = ORIENTED_EDGE('',*,*,#374,.F.);
#374 = EDGE_CURVE('',#375,#104,#377,.T.);
#375 = VERTEX_POINT('',#376);
#376 = CARTESIAN_POINT('',(0.5,0.78,2.5E-03));
#377 = CIRCLE('',#378,2.E-02);
#378 = AXIS2_PLACEMENT_3D('',#379,#380,#381);
#379 = CARTESIAN_POINT('',(0.5,0.78,2.25E-02));
#380 = DIRECTION('',(1.,-2.168404344971E-16,-4.814824860968E-32));
#381 = DIRECTION('',(2.168404344971E-16,1.,2.22044604925E-16));
#382 = ORIENTED_EDGE('',*,*,#383,.T.);
#383 = EDGE_CURVE('',#375,#384,#386,.T.);
#384 = VERTEX_POINT('',#385);
#385 = CARTESIAN_POINT('',(0.5,-0.78,2.5E-03));
#386 = LINE('',#387,#388);
#387 = CARTESIAN_POINT('',(0.5,0.8,2.5E-03));
#388 = VECTOR('',#389,1.);
#389 = DIRECTION('',(-2.168404344971E-16,-1.,-2.22044604925E-16));
#390 = ORIENTED_EDGE('',*,*,#391,.F.);
#391 = EDGE_CURVE('',#192,#384,#392,.T.);
#392 = CIRCLE('',#393,2.E-02);
#393 = AXIS2_PLACEMENT_3D('',#394,#395,#396);
#394 = CARTESIAN_POINT('',(0.5,-0.78,2.25E-02));
#395 = DIRECTION('',(1.,-2.168404344971E-16,-4.814824860968E-32));
#396 = DIRECTION('',(2.168404344971E-16,1.,2.22044604925E-16));
#397 = ORIENTED_EDGE('',*,*,#191,.F.);
#398 = ORIENTED_EDGE('',*,*,#399,.T.);
#399 = EDGE_CURVE('',#184,#40,#400,.T.);
#400 = CIRCLE('',#401,2.E-02);
#401 = AXIS2_PLACEMENT_3D('',#402,#403,#404);
#402 = CARTESIAN_POINT('',(0.5,-0.78,2.E-02));
#403 = DIRECTION('',(1.,-2.168404344971E-16,-4.814824860968E-32));
#404 = DIRECTION('',(2.168404344971E-16,1.,2.22044604925E-16));
#405 = PLANE('',#406);
#406 = AXIS2_PLACEMENT_3D('',#407,#408,#409);
#407 = CARTESIAN_POINT('',(0.5,0.8,1.665334536938E-16));
#408 = DIRECTION('',(1.,-2.168404344971E-16,-4.814824860968E-32));
#409 = DIRECTION('',(2.168404344971E-16,1.,2.22044604925E-16));
#410 = ADVANCED_FACE('',(#411),#436,.T.);
#411 = FACE_BOUND('',#412,.T.);
#412 = EDGE_LOOP('',(#413,#414,#422,#430));
#413 = ORIENTED_EDGE('',*,*,#383,.F.);
#414 = ORIENTED_EDGE('',*,*,#415,.T.);
#415 = EDGE_CURVE('',#375,#416,#418,.T.);
#416 = VERTEX_POINT('',#417);
#417 = CARTESIAN_POINT('',(0.9775,0.78,2.5E-03));
#418 = LINE('',#419,#420);
#419 = CARTESIAN_POINT('',(0.9975,0.78,2.5E-03));
#420 = VECTOR('',#421,1.);
#421 = DIRECTION('',(1.,0.,0.));
#422 = ORIENTED_EDGE('',*,*,#423,.T.);
#423 = EDGE_CURVE('',#416,#424,#426,.T.);
#424 = VERTEX_POINT('',#425);
#425 = CARTESIAN_POINT('',(0.9775,-0.78,2.5E-03));
#426 = LINE('',#427,#428);
#427 = CARTESIAN_POINT('',(0.9775,0.8,2.5E-03));
#428 = VECTOR('',#429,1.);
#429 = DIRECTION('',(-2.168404344971E-16,-1.,-2.22044604925E-16));
#430 = ORIENTED_EDGE('',*,*,#431,.F.);
#431 = EDGE_CURVE('',#384,#424,#432,.T.);
#432 = LINE('',#433,#434);
#433 = CARTESIAN_POINT('',(0.5,-0.78,2.5E-03));
#434 = VECTOR('',#435,1.);
#435 = DIRECTION('',(1.,-2.168404344971E-16,-4.814824860968E-32));
#436 = PLANE('',#437);
#437 = AXIS2_PLACEMENT_3D('',#438,#439,#440);
#438 = CARTESIAN_POINT('',(0.5,0.8,2.5E-03));
#439 = DIRECTION('',(0.,2.22044604925E-16,-1.));
#440 = DIRECTION('',(0.,-1.,-2.22044604925E-16));
#441 = ADVANCED_FACE('',(#442),#476,.T.);
#442 = FACE_BOUND('',#443,.T.);
#443 = EDGE_LOOP('',(#444,#454,#462,#470));
#444 = ORIENTED_EDGE('',*,*,#445,.F.);
#445 = EDGE_CURVE('',#446,#448,#450,.T.);
#446 = VERTEX_POINT('',#447);
#447 = CARTESIAN_POINT('',(0.9975,-0.78,2.25E-02));
#448 = VERTEX_POINT('',#449);
#449 = CARTESIAN_POINT('',(0.9975,-0.78,0.98));
#450 = LINE('',#451,#452);
#451 = CARTESIAN_POINT('',(0.9975,-0.78,2.5E-03));
#452 = VECTOR('',#453,1.);
#453 = DIRECTION('',(0.,-2.22044604925E-16,1.));
#454 = ORIENTED_EDGE('',*,*,#455,.F.);
#455 = EDGE_CURVE('',#456,#446,#458,.T.);
#456 = VERTEX_POINT('',#457);
#457 = CARTESIAN_POINT('',(0.9975,0.78,2.25E-02));
#458 = LINE('',#459,#460);
#459 = CARTESIAN_POINT('',(0.9975,0.8,2.25E-02));
#460 = VECTOR('',#461,1.);
#461 = DIRECTION('',(-2.168404344971E-16,-1.,-2.22044604925E-16));
#462 = ORIENTED_EDGE('',*,*,#463,.T.);
#463 = EDGE_CURVE('',#456,#464,#466,.T.);
#464 = VERTEX_POINT('',#465);
#465 = CARTESIAN_POINT('',(0.9975,0.78,0.98));
#466 = LINE('',#467,#468);
#467 = CARTESIAN_POINT('',(0.9975,0.78,1.));
#468 = VECTOR('',#469,1.);
#469 = DIRECTION('',(0.,-2.22044604925E-16,1.));
#470 = ORIENTED_EDGE('',*,*,#471,.T.);
#471 = EDGE_CURVE('',#464,#448,#472,.T.);
#472 = LINE('',#473,#474);
#473 = CARTESIAN_POINT('',(0.9975,-0.8,0.98));
#474 = VECTOR('',#475,1.);
#475 = DIRECTION('',(-2.168404344971E-16,-1.,-2.22044604925E-16));
#476 = PLANE('',#477);
#477 = AXIS2_PLACEMENT_3D('',#478,#479,#480);
#478 = CARTESIAN_POINT('',(0.9975,0.8,2.5E-03));
#479 = DIRECTION('',(1.,-2.168404344971E-16,-4.814824860968E-32));
#480 = DIRECTION('',(2.168404344971E-16,1.,2.22044604925E-16));
#481 = ADVANCED_FACE('',(#482),#494,.T.);
#482 = FACE_BOUND('',#483,.T.);
#483 = EDGE_LOOP('',(#484,#491,#492,#493));
#484 = ORIENTED_EDGE('',*,*,#485,.F.);
#485 = EDGE_CURVE('',#297,#224,#486,.T.);
#486 = CIRCLE('',#487,2.E-02);
#487 = AXIS2_PLACEMENT_3D('',#488,#489,#490);
#488 = CARTESIAN_POINT('',(-0.9775,-0.78,2.25E-02));
#489 = DIRECTION('',(-1.,-0.,0.));
#490 = DIRECTION('',(0.,-1.,-2.22044604925E-16));
#491 = ORIENTED_EDGE('',*,*,#311,.F.);
#492 = ORIENTED_EDGE('',*,*,#262,.F.);
#493 = ORIENTED_EDGE('',*,*,#231,.T.);
#494 = CYLINDRICAL_SURFACE('',#495,2.E-02);
#495 = AXIS2_PLACEMENT_3D('',#496,#497,#498);
#496 = CARTESIAN_POINT('',(-0.5,-0.78,2.25E-02));
#497 = DIRECTION('',(-1.,2.168404344971E-16,4.814824860968E-32));
#498 = DIRECTION('',(-2.168404344971E-16,-1.,-2.22044604925E-16));
#499 = ADVANCED_FACE('',(#500),#517,.T.);
#500 = FACE_BOUND('',#501,.T.);
#501 = EDGE_LOOP('',(#502,#509,#510));
#502 = ORIENTED_EDGE('',*,*,#503,.T.);
#503 = EDGE_CURVE('',#344,#297,#504,.T.);
#504 = CIRCLE('',#505,2.E-02);
#505 = AXIS2_PLACEMENT_3D('',#506,#507,#508);
#506 = CARTESIAN_POINT('',(-0.9775,-0.78,2.25E-02));
#507 = DIRECTION('',(0.,-1.,-2.22044604925E-16));
#508 = DIRECTION('',(1.,0.,0.));
#509 = ORIENTED_EDGE('',*,*,#485,.T.);
#510 = ORIENTED_EDGE('',*,*,#511,.T.);
#511 = EDGE_CURVE('',#224,#344,#512,.T.);
#512 = CIRCLE('',#513,2.E-02);
#513 = AXIS2_PLACEMENT_3D('',#514,#515,#516);
#514 = CARTESIAN_POINT('',(-0.9775,-0.78,2.25E-02));
#515 = DIRECTION('',(0.,2.22044604925E-16,-1.));
#516 = DIRECTION('',(0.,-1.,-2.22044604925E-16));
#517 = SPHERICAL_SURFACE('',#518,2.E-02);
#518 = AXIS2_PLACEMENT_3D('',#519,#520,#521);
#519 = CARTESIAN_POINT('',(-0.9775,-0.78,2.25E-02));
#520 = DIRECTION('',(0.,-1.,-2.22044604925E-16));
#521 = DIRECTION('',(1.,0.,0.));
#522 = ADVANCED_FACE('',(#523),#535,.T.);
#523 = FACE_BOUND('',#524,.T.);
#524 = EDGE_LOOP('',(#525,#526,#527,#534));
#525 = ORIENTED_EDGE('',*,*,#511,.F.);
#526 = ORIENTED_EDGE('',*,*,#223,.T.);
#527 = ORIENTED_EDGE('',*,*,#528,.F.);
#528 = EDGE_CURVE('',#328,#216,#529,.T.);
#529 = CIRCLE('',#530,2.E-02);
#530 = AXIS2_PLACEMENT_3D('',#531,#532,#533);
#531 = CARTESIAN_POINT('',(-0.9775,-0.78,0.98));
#532 = DIRECTION('',(0.,-2.932550036139E-15,1.));
#533 = DIRECTION('',(0.,1.,2.932550036139E-15));
#534 = ORIENTED_EDGE('',*,*,#351,.F.);
#535 = CYLINDRICAL_SURFACE('',#536,2.E-02);
#536 = AXIS2_PLACEMENT_3D('',#537,#538,#539);
#537 = CARTESIAN_POINT('',(-0.9775,-0.78,2.5E-03));
#538 = DIRECTION('',(0.,-2.22044604925E-16,1.));
#539 = DIRECTION('',(0.,1.,2.22044604925E-16));
#540 = ADVANCED_FACE('',(#541),#553,.T.);
#541 = FACE_BOUND('',#542,.T.);
#542 = EDGE_LOOP('',(#543,#544,#545,#552));
#543 = ORIENTED_EDGE('',*,*,#503,.F.);
#544 = ORIENTED_EDGE('',*,*,#343,.F.);
#545 = ORIENTED_EDGE('',*,*,#546,.F.);
#546 = EDGE_CURVE('',#295,#336,#547,.T.);
#547 = CIRCLE('',#548,2.E-02);
#548 = AXIS2_PLACEMENT_3D('',#549,#550,#551);
#549 = CARTESIAN_POINT('',(-0.9775,0.78,2.25E-02));
#550 = DIRECTION('',(0.,1.,2.22044604925E-16));
#551 = DIRECTION('',(-1.,0.,0.));
#552 = ORIENTED_EDGE('',*,*,#294,.T.);
#553 = CYLINDRICAL_SURFACE('',#554,2.E-02);
#554 = AXIS2_PLACEMENT_3D('',#555,#556,#557);
#555 = CARTESIAN_POINT('',(-0.9775,0.8,2.25E-02));
#556 = DIRECTION('',(-2.168404344971E-16,-1.,-2.22044604925E-16));
#557 = DIRECTION('',(1.,-2.168404344971E-16,-4.814824860968E-32));
#558 = ADVANCED_FACE('',(#559),#571,.T.);
#559 = FACE_BOUND('',#560,.T.);
#560 = EDGE_LOOP('',(#561,#562,#563,#570));
#561 = ORIENTED_EDGE('',*,*,#279,.F.);
#562 = ORIENTED_EDGE('',*,*,#304,.T.);
#563 = ORIENTED_EDGE('',*,*,#564,.F.);
#564 = EDGE_CURVE('',#128,#295,#565,.T.);
#565 = CIRCLE('',#566,2.E-02);
#566 = AXIS2_PLACEMENT_3D('',#567,#568,#569);
#567 = CARTESIAN_POINT('',(-0.9775,0.78,2.25E-02));
#568 = DIRECTION('',(-1.,-0.,0.));
#569 = DIRECTION('',(0.,-1.,-2.22044604925E-16));
#570 = ORIENTED_EDGE('',*,*,#127,.F.);
#571 = CYLINDRICAL_SURFACE('',#572,2.E-02);
#572 = AXIS2_PLACEMENT_3D('',#573,#574,#575);
#573 = CARTESIAN_POINT('',(-1.,0.78,2.25E-02));
#574 = DIRECTION('',(-1.,0.,0.));
#575 = DIRECTION('',(0.,-1.,-2.22044604925E-16));
#576 = ADVANCED_FACE('',(#577),#594,.T.);
#577 = FACE_BOUND('',#578,.T.);
#578 = EDGE_LOOP('',(#579,#586,#587));
#579 = ORIENTED_EDGE('',*,*,#580,.T.);
#580 = EDGE_CURVE('',#80,#328,#581,.T.);
#581 = CIRCLE('',#582,2.E-02);
#582 = AXIS2_PLACEMENT_3D('',#583,#584,#585);
#583 = CARTESIAN_POINT('',(-0.9775,-0.78,0.98));
#584 = DIRECTION('',(0.,-1.,-2.22044604925E-16));
#585 = DIRECTION('',(1.,0.,0.));
#586 = ORIENTED_EDGE('',*,*,#528,.T.);
#587 = ORIENTED_EDGE('',*,*,#588,.T.);
#588 = EDGE_CURVE('',#216,#80,#589,.T.);
#589 = CIRCLE('',#590,2.E-02);
#590 = AXIS2_PLACEMENT_3D('',#591,#592,#593);
#591 = CARTESIAN_POINT('',(-0.9775,-0.78,0.98));
#592 = DIRECTION('',(-1.,-0.,0.));
#593 = DIRECTION('',(0.,-1.,-2.22044604925E-16));
#594 = SPHERICAL_SURFACE('',#595,2.E-02);
#595 = AXIS2_PLACEMENT_3D('',#596,#597,#598);
#596 = CARTESIAN_POINT('',(-0.9775,-0.78,0.98));
#597 = DIRECTION('',(-0.,-1.,-2.932550036139E-15));
#598 = DIRECTION('',(0.,-2.932550036139E-15,1.));
#599 = ADVANCED_FACE('',(#600),#611,.T.);
#600 = FACE_BOUND('',#601,.T.);
#601 = EDGE_LOOP('',(#602,#603,#604));
#602 = ORIENTED_EDGE('',*,*,#564,.T.);
#603 = ORIENTED_EDGE('',*,*,#546,.T.);
#604 = ORIENTED_EDGE('',*,*,#605,.T.);
#605 = EDGE_CURVE('',#336,#128,#606,.T.);
#606 = CIRCLE('',#607,2.E-02);
#607 = AXIS2_PLACEMENT_3D('',#608,#609,#610);
#608 = CARTESIAN_POINT('',(-0.9775,0.78,2.25E-02));
#609 = DIRECTION('',(0.,2.22044604925E-16,-1.));
#610 = DIRECTION('',(0.,-1.,-2.22044604925E-16));
#611 = SPHERICAL_SURFACE('',#612,2.E-02);
#612 = AXIS2_PLACEMENT_3D('',#613,#614,#615);
#613 = CARTESIAN_POINT('',(-0.9775,0.78,2.25E-02));
#614 = DIRECTION('',(0.,2.22044604925E-16,-1.));
#615 = DIRECTION('',(0.,-1.,-2.22044604925E-16));
#616 = ADVANCED_FACE('',(#617),#629,.T.);
#617 = FACE_BOUND('',#618,.T.);
#618 = EDGE_LOOP('',(#619,#620,#621,#628));
#619 = ORIENTED_EDGE('',*,*,#588,.F.);
#620 = ORIENTED_EDGE('',*,*,#215,.F.);
#621 = ORIENTED_EDGE('',*,*,#622,.F.);
#622 = EDGE_CURVE('',#64,#208,#623,.T.);
#623 = CIRCLE('',#624,2.E-02);
#624 = AXIS2_PLACEMENT_3D('',#625,#626,#627);
#625 = CARTESIAN_POINT('',(0.9775,-0.78,0.98));
#626 = DIRECTION('',(1.,0.,-0.));
#627 = DIRECTION('',(0.,1.,2.22044604925E-16));
#628 = ORIENTED_EDGE('',*,*,#87,.T.);
#629 = CYLINDRICAL_SURFACE('',#630,2.E-02);
#630 = AXIS2_PLACEMENT_3D('',#631,#632,#633);
#631 = CARTESIAN_POINT('',(1.,-0.78,0.98));
#632 = DIRECTION('',(-1.,2.168404344971E-16,4.814824860968E-32));
#633 = DIRECTION('',(-2.168404344971E-16,-1.,-2.22044604925E-16));
#634 = ADVANCED_FACE('',(#635),#647,.T.);
#635 = FACE_BOUND('',#636,.T.);
#636 = EDGE_LOOP('',(#637,#638,#639,#646));
#637 = ORIENTED_EDGE('',*,*,#580,.F.);
#638 = ORIENTED_EDGE('',*,*,#79,.F.);
#639 = ORIENTED_EDGE('',*,*,#640,.F.);
#640 = EDGE_CURVE('',#326,#72,#641,.T.);
#641 = CIRCLE('',#642,2.E-02);
#642 = AXIS2_PLACEMENT_3D('',#643,#644,#645);
#643 = CARTESIAN_POINT('',(-0.9775,0.78,0.98));
#644 = DIRECTION('',(0.,1.,2.22044604925E-16));
#645 = DIRECTION('',(-1.,0.,0.));
#646 = ORIENTED_EDGE('',*,*,#325,.T.);
#647 = CYLINDRICAL_SURFACE('',#648,2.E-02);
#648 = AXIS2_PLACEMENT_3D('',#649,#650,#651);
#649 = CARTESIAN_POINT('',(-0.9775,1.053801143569E-16,0.98));
#650 = DIRECTION('',(-2.168404344971E-16,-1.,-2.22044604925E-16));
#651 = DIRECTION('',(1.,-2.168404344971E-16,-4.814824860968E-32));
#652 = ADVANCED_FACE('',(#653),#665,.T.);
#653 = FACE_BOUND('',#654,.T.);
#654 = EDGE_LOOP('',(#655,#656,#657,#664));
#655 = ORIENTED_EDGE('',*,*,#605,.F.);
#656 = ORIENTED_EDGE('',*,*,#335,.T.);
#657 = ORIENTED_EDGE('',*,*,#658,.F.);
#658 = EDGE_CURVE('',#136,#326,#659,.T.);
#659 = CIRCLE('',#660,2.E-02);
#660 = AXIS2_PLACEMENT_3D('',#661,#662,#663);
#661 = CARTESIAN_POINT('',(-0.9775,0.78,0.98));
#662 = DIRECTION('',(2.710505431214E-15,-2.22044604925E-16,1.));
#663 = DIRECTION('',(1.,6.01853107621E-31,-2.710505431214E-15));
#664 = ORIENTED_EDGE('',*,*,#135,.F.);
#665 = CYLINDRICAL_SURFACE('',#666,2.E-02);
#666 = AXIS2_PLACEMENT_3D('',#667,#668,#669);
#667 = CARTESIAN_POINT('',(-0.9775,0.78,1.665334536938E-16));
#668 = DIRECTION('',(0.,-2.22044604925E-16,1.));
#669 = DIRECTION('',(0.,1.,2.22044604925E-16));
#670 = ADVANCED_FACE('',(#671),#688,.T.);
#671 = FACE_BOUND('',#672,.T.);
#672 = EDGE_LOOP('',(#673,#680,#681));
#673 = ORIENTED_EDGE('',*,*,#674,.T.);
#674 = EDGE_CURVE('',#448,#64,#675,.T.);
#675 = CIRCLE('',#676,2.E-02);
#676 = AXIS2_PLACEMENT_3D('',#677,#678,#679);
#677 = CARTESIAN_POINT('',(0.9775,-0.78,0.98));
#678 = DIRECTION('',(0.,-1.,-2.22044604925E-16));
#679 = DIRECTION('',(1.,0.,0.));
#680 = ORIENTED_EDGE('',*,*,#622,.T.);
#681 = ORIENTED_EDGE('',*,*,#682,.T.);
#682 = EDGE_CURVE('',#208,#448,#683,.T.);
#683 = CIRCLE('',#684,2.E-02);
#684 = AXIS2_PLACEMENT_3D('',#685,#686,#687);
#685 = CARTESIAN_POINT('',(0.9775,-0.78,0.98));
#686 = DIRECTION('',(-5.421010862428E-15,-2.22044604925E-16,1.));
#687 = DIRECTION('',(1.,-1.203706215242E-30,5.421010862428E-15));
#688 = SPHERICAL_SURFACE('',#689,2.E-02);
#689 = AXIS2_PLACEMENT_3D('',#690,#691,#692);
#690 = CARTESIAN_POINT('',(0.9775,-0.78,0.98));
#691 = DIRECTION('',(-0.,-1.,-2.932550036139E-15));
#692 = DIRECTION('',(0.,-2.932550036139E-15,1.));
#693 = ADVANCED_FACE('',(#694),#705,.T.);
#694 = FACE_BOUND('',#695,.T.);
#695 = EDGE_LOOP('',(#696,#697,#698));
#696 = ORIENTED_EDGE('',*,*,#658,.T.);
#697 = ORIENTED_EDGE('',*,*,#640,.T.);
#698 = ORIENTED_EDGE('',*,*,#699,.T.);
#699 = EDGE_CURVE('',#72,#136,#700,.T.);
#700 = CIRCLE('',#701,2.E-02);
#701 = AXIS2_PLACEMENT_3D('',#702,#703,#704);
#702 = CARTESIAN_POINT('',(-0.9775,0.78,0.98));
#703 = DIRECTION('',(-1.,-0.,0.));
#704 = DIRECTION('',(0.,-1.,-2.22044604925E-16));
#705 = SPHERICAL_SURFACE('',#706,2.E-02);
#706 = AXIS2_PLACEMENT_3D('',#707,#708,#709);
#707 = CARTESIAN_POINT('',(-0.9775,0.78,0.98));
#708 = DIRECTION('',(-1.,0.,0.));
#709 = DIRECTION('',(0.,-1.,-2.22044604925E-16));
#710 = ADVANCED_FACE('',(#711),#723,.T.);
#711 = FACE_BOUND('',#712,.T.);
#712 = EDGE_LOOP('',(#713,#714,#715,#722));
#713 = ORIENTED_EDGE('',*,*,#391,.T.);
#714 = ORIENTED_EDGE('',*,*,#431,.T.);
#715 = ORIENTED_EDGE('',*,*,#716,.F.);
#716 = EDGE_CURVE('',#200,#424,#717,.T.);
#717 = CIRCLE('',#718,2.E-02);
#718 = AXIS2_PLACEMENT_3D('',#719,#720,#721);
#719 = CARTESIAN_POINT('',(0.9775,-0.78,2.25E-02));
#720 = DIRECTION('',(1.,0.,-0.));
#721 = DIRECTION('',(0.,1.,2.22044604925E-16));
#722 = ORIENTED_EDGE('',*,*,#199,.F.);
#723 = CYLINDRICAL_SURFACE('',#724,2.E-02);
#724 = AXIS2_PLACEMENT_3D('',#725,#726,#727);
#725 = CARTESIAN_POINT('',(1.,-0.78,2.25E-02));
#726 = DIRECTION('',(-1.,2.168404344971E-16,4.814824860968E-32));
#727 = DIRECTION('',(-2.168404344971E-16,-1.,-2.22044604925E-16));
#728 = ADVANCED_FACE('',(#729),#741,.T.);
#729 = FACE_BOUND('',#730,.T.);
#730 = EDGE_LOOP('',(#731,#732,#733,#740));
#731 = ORIENTED_EDGE('',*,*,#682,.F.);
#732 = ORIENTED_EDGE('',*,*,#207,.F.);
#733 = ORIENTED_EDGE('',*,*,#734,.F.);
#734 = EDGE_CURVE('',#446,#200,#735,.T.);
#735 = CIRCLE('',#736,2.E-02);
#736 = AXIS2_PLACEMENT_3D('',#737,#738,#739);
#737 = CARTESIAN_POINT('',(0.9775,-0.78,2.25E-02));
#738 = DIRECTION('',(0.,2.22044604925E-16,-1.));
#739 = DIRECTION('',(0.,-1.,-2.22044604925E-16));
#740 = ORIENTED_EDGE('',*,*,#445,.T.);
#741 = CYLINDRICAL_SURFACE('',#742,2.E-02);
#742 = AXIS2_PLACEMENT_3D('',#743,#744,#745);
#743 = CARTESIAN_POINT('',(0.9775,-0.78,-2.22044604925E-16));
#744 = DIRECTION('',(0.,2.22044604925E-16,-1.));
#745 = DIRECTION('',(0.,-1.,-2.22044604925E-16));
#746 = ADVANCED_FACE('',(#747),#759,.T.);
#747 = FACE_BOUND('',#748,.T.);
#748 = EDGE_LOOP('',(#749,#750,#751,#758));
#749 = ORIENTED_EDGE('',*,*,#674,.F.);
#750 = ORIENTED_EDGE('',*,*,#471,.F.);
#751 = ORIENTED_EDGE('',*,*,#752,.F.);
#752 = EDGE_CURVE('',#62,#464,#753,.T.);
#753 = CIRCLE('',#754,2.E-02);
#754 = AXIS2_PLACEMENT_3D('',#755,#756,#757);
#755 = CARTESIAN_POINT('',(0.9775,0.78,0.98));
#756 = DIRECTION('',(0.,1.,2.22044604925E-16));
#757 = DIRECTION('',(-1.,0.,0.));
#758 = ORIENTED_EDGE('',*,*,#61,.T.);
#759 = CYLINDRICAL_SURFACE('',#760,2.E-02);
#760 = AXIS2_PLACEMENT_3D('',#761,#762,#763);
#761 = CARTESIAN_POINT('',(0.9775,0.8,0.98));
#762 = DIRECTION('',(2.168404344971E-16,1.,2.22044604925E-16));
#763 = DIRECTION('',(-1.,2.168404344971E-16,4.814824860968E-32));
#764 = ADVANCED_FACE('',(#765),#777,.T.);
#765 = FACE_BOUND('',#766,.T.);
#766 = EDGE_LOOP('',(#767,#768,#769,#776));
#767 = ORIENTED_EDGE('',*,*,#699,.F.);
#768 = ORIENTED_EDGE('',*,*,#71,.T.);
#769 = ORIENTED_EDGE('',*,*,#770,.F.);
#770 = EDGE_CURVE('',#144,#62,#771,.T.);
#771 = CIRCLE('',#772,2.E-02);
#772 = AXIS2_PLACEMENT_3D('',#773,#774,#775);
#773 = CARTESIAN_POINT('',(0.9775,0.78,0.98));
#774 = DIRECTION('',(1.,0.,-0.));
#775 = DIRECTION('',(0.,1.,2.22044604925E-16));
#776 = ORIENTED_EDGE('',*,*,#143,.F.);
#777 = CYLINDRICAL_SURFACE('',#778,2.E-02);
#778 = AXIS2_PLACEMENT_3D('',#779,#780,#781);
#779 = CARTESIAN_POINT('',(-1.,0.78,0.98));
#780 = DIRECTION('',(1.,0.,0.));
#781 = DIRECTION('',(0.,1.,2.22044604925E-16));
#782 = ADVANCED_FACE('',(#783),#794,.T.);
#783 = FACE_BOUND('',#784,.T.);
#784 = EDGE_LOOP('',(#785,#786,#787));
#785 = ORIENTED_EDGE('',*,*,#734,.T.);
#786 = ORIENTED_EDGE('',*,*,#716,.T.);
#787 = ORIENTED_EDGE('',*,*,#788,.T.);
#788 = EDGE_CURVE('',#424,#446,#789,.T.);
#789 = CIRCLE('',#790,2.E-02);
#790 = AXIS2_PLACEMENT_3D('',#791,#792,#793);
#791 = CARTESIAN_POINT('',(0.9775,-0.78,2.25E-02));
#792 = DIRECTION('',(0.,-1.,-2.22044604925E-16));
#793 = DIRECTION('',(1.,0.,0.));
#794 = SPHERICAL_SURFACE('',#795,2.E-02);
#795 = AXIS2_PLACEMENT_3D('',#796,#797,#798);
#796 = CARTESIAN_POINT('',(0.9775,-0.78,2.25E-02));
#797 = DIRECTION('',(0.,-1.,-2.22044604925E-16));
#798 = DIRECTION('',(1.,0.,0.));
#799 = ADVANCED_FACE('',(#800),#811,.T.);
#800 = FACE_BOUND('',#801,.T.);
#801 = EDGE_LOOP('',(#802,#803,#804));
#802 = ORIENTED_EDGE('',*,*,#770,.T.);
#803 = ORIENTED_EDGE('',*,*,#752,.T.);
#804 = ORIENTED_EDGE('',*,*,#805,.T.);
#805 = EDGE_CURVE('',#464,#144,#806,.T.);
#806 = CIRCLE('',#807,2.E-02);
#807 = AXIS2_PLACEMENT_3D('',#808,#809,#810);
#808 = CARTESIAN_POINT('',(0.9775,0.78,0.98));
#809 = DIRECTION('',(0.,5.198966257502E-15,1.));
#810 = DIRECTION('',(0.,1.,-5.198966257502E-15));
#811 = SPHERICAL_SURFACE('',#812,2.E-02);
#812 = AXIS2_PLACEMENT_3D('',#813,#814,#815);
#813 = CARTESIAN_POINT('',(0.9775,0.78,0.98));
#814 = DIRECTION('',(0.,-2.22044604925E-16,1.));
#815 = DIRECTION('',(0.,1.,2.22044604925E-16));
#816 = ADVANCED_FACE('',(#817),#829,.T.);
#817 = FACE_BOUND('',#818,.T.);
#818 = EDGE_LOOP('',(#819,#820,#821,#828));
#819 = ORIENTED_EDGE('',*,*,#788,.F.);
#820 = ORIENTED_EDGE('',*,*,#423,.F.);
#821 = ORIENTED_EDGE('',*,*,#822,.F.);
#822 = EDGE_CURVE('',#456,#416,#823,.T.);
#823 = CIRCLE('',#824,2.E-02);
#824 = AXIS2_PLACEMENT_3D('',#825,#826,#827);
#825 = CARTESIAN_POINT('',(0.9775,0.78,2.25E-02));
#826 = DIRECTION('',(0.,1.,2.22044604925E-16));
#827 = DIRECTION('',(-1.,0.,0.));
#828 = ORIENTED_EDGE('',*,*,#455,.T.);
#829 = CYLINDRICAL_SURFACE('',#830,2.E-02);
#830 = AXIS2_PLACEMENT_3D('',#831,#832,#833);
#831 = CARTESIAN_POINT('',(0.9775,0.8,2.25E-02));
#832 = DIRECTION('',(-2.168404344971E-16,-1.,-2.22044604925E-16));
#833 = DIRECTION('',(1.,-2.168404344971E-16,-4.814824860968E-32));
#834 = ADVANCED_FACE('',(#835),#847,.T.);
#835 = FACE_BOUND('',#836,.T.);
#836 = EDGE_LOOP('',(#837,#838,#839,#846));
#837 = ORIENTED_EDGE('',*,*,#805,.F.);
#838 = ORIENTED_EDGE('',*,*,#463,.F.);
#839 = ORIENTED_EDGE('',*,*,#840,.F.);
#840 = EDGE_CURVE('',#152,#456,#841,.T.);
#841 = CIRCLE('',#842,2.E-02);
#842 = AXIS2_PLACEMENT_3D('',#843,#844,#845);
#843 = CARTESIAN_POINT('',(0.9775,0.78,2.25E-02));
#844 = DIRECTION('',(0.,2.22044604925E-16,-1.));
#845 = DIRECTION('',(0.,-1.,-2.22044604925E-16));
#846 = ORIENTED_EDGE('',*,*,#151,.T.);
#847 = CYLINDRICAL_SURFACE('',#848,2.E-02);
#848 = AXIS2_PLACEMENT_3D('',#849,#850,#851);
#849 = CARTESIAN_POINT('',(0.9775,0.78,2.5E-03));
#850 = DIRECTION('',(0.,2.22044604925E-16,-1.));
#851 = DIRECTION('',(0.,-1.,-2.22044604925E-16));
#852 = ADVANCED_FACE('',(#853),#864,.T.);
#853 = FACE_BOUND('',#854,.T.);
#854 = EDGE_LOOP('',(#855,#856,#857));
#855 = ORIENTED_EDGE('',*,*,#840,.T.);
#856 = ORIENTED_EDGE('',*,*,#822,.T.);
#857 = ORIENTED_EDGE('',*,*,#858,.T.);
#858 = EDGE_CURVE('',#416,#152,#859,.T.);
#859 = CIRCLE('',#860,2.E-02);
#860 = AXIS2_PLACEMENT_3D('',#861,#862,#863);
#861 = CARTESIAN_POINT('',(0.9775,0.78,2.25E-02));
#862 = DIRECTION('',(1.,0.,-0.));
#863 = DIRECTION('',(0.,1.,2.22044604925E-16));
#864 = SPHERICAL_SURFACE('',#865,2.E-02);
#865 = AXIS2_PLACEMENT_3D('',#866,#867,#868);
#866 = CARTESIAN_POINT('',(0.9775,0.78,2.25E-02));
#867 = DIRECTION('',(1.,0.,0.));
#868 = DIRECTION('',(0.,1.,2.22044604925E-16));
#869 = ADVANCED_FACE('',(#870),#876,.T.);
#870 = FACE_BOUND('',#871,.T.);
#871 = EDGE_LOOP('',(#872,#873,#874,#875));
#872 = ORIENTED_EDGE('',*,*,#374,.T.);
#873 = ORIENTED_EDGE('',*,*,#159,.T.);
#874 = ORIENTED_EDGE('',*,*,#858,.F.);
#875 = ORIENTED_EDGE('',*,*,#415,.F.);
#876 = CYLINDRICAL_SURFACE('',#877,2.E-02);
#877 = AXIS2_PLACEMENT_3D('',#878,#879,#880);
#878 = CARTESIAN_POINT('',(0.5,0.78,2.25E-02));
#879 = DIRECTION('',(-1.,0.,0.));
#880 = DIRECTION('',(0.,-1.,-2.22044604925E-16));
#881 = ADVANCED_FACE('',(#882),#888,.T.);
#882 = FACE_BOUND('',#883,.T.);
#883 = EDGE_LOOP('',(#884,#885,#886,#887));
#884 = ORIENTED_EDGE('',*,*,#399,.F.);
#885 = ORIENTED_EDGE('',*,*,#183,.T.);
#886 = ORIENTED_EDGE('',*,*,#254,.T.);
#887 = ORIENTED_EDGE('',*,*,#47,.F.);
#888 = CYLINDRICAL_SURFACE('',#889,2.E-02);
#889 = AXIS2_PLACEMENT_3D('',#890,#891,#892);
#890 = CARTESIAN_POINT('',(-1.691355389077E-16,-0.78,2.E-02));
#891 = DIRECTION('',(1.,-2.168404344971E-16,-4.814824860968E-32));
#892 = DIRECTION('',(2.168404344971E-16,1.,2.22044604925E-16));
#893 = ADVANCED_FACE('',(#894),#900,.T.);
#894 = FACE_BOUND('',#895,.T.);
#895 = EDGE_LOOP('',(#896,#897,#898,#899));
#896 = ORIENTED_EDGE('',*,*,#246,.T.);
#897 = ORIENTED_EDGE('',*,*,#111,.T.);
#898 = ORIENTED_EDGE('',*,*,#366,.F.);
#899 = ORIENTED_EDGE('',*,*,#31,.F.);
#900 = CYLINDRICAL_SURFACE('',#901,2.E-02);
#901 = AXIS2_PLACEMENT_3D('',#902,#903,#904);
#902 = CARTESIAN_POINT('',(0.,0.78,2.E-02));
#903 = DIRECTION('',(-1.,0.,0.));
#904 = DIRECTION('',(0.,-1.,-2.22044604925E-16));
#905 = ( GEOMETRIC_REPRESENTATION_CONTEXT(3) 
GLOBAL_UNCERTAINTY_ASSIGNED_CONTEXT((#909)) GLOBAL_UNIT_ASSIGNED_CONTEXT
((#906,#907,#908)) REPRESENTATION_CONTEXT('Context #1',
  '3D Context with UNIT and UNCERTAINTY') );
#906 = ( LENGTH_UNIT() NAMED_UNIT(*) SI_UNIT(.MILLI.,.METRE.) );
#907 = ( NAMED_UNIT(*) PLANE_ANGLE_UNIT() SI_UNIT($,.RADIAN.) );
#908 = ( NAMED_UNIT(*) SI_UNIT($,.STERADIAN.) SOLID_ANGLE_UNIT() );
#909 = UNCERTAINTY_MEASURE_WITH_UNIT(LENGTH_MEASURE(1.E-07),#906,
  'distance_accuracy_value','confusion accuracy');
#910 = PRODUCT_RELATED_PRODUCT_CATEGORY('part',$,(#7));
#911 = MECHANICAL_DESIGN_GEOMETRIC_PRESENTATION_REPRESENTATION('',(#912,
    #920,#927,#934,#941,#948,#956,#963,#970,#977,#984,#991,#998,#1005,
    #1012,#1019,#1026,#1033,#1040,#1047,#1054,#1061,#1068,#1075,#1082,
    #1089,#1096,#1103,#1110,#1117,#1124,#1131,#1138,#1145),#905);
#912 = STYLED_ITEM('color',(#913),#17);
#913 = PRESENTATION_STYLE_ASSIGNMENT((#914));
#914 = SURFACE_STYLE_USAGE(.BOTH.,#915);
#915 = SURFACE_SIDE_STYLE('',(#916));
#916 = SURFACE_STYLE_FILL_AREA(#917);
#917 = FILL_AREA_STYLE('',(#918));
#918 = FILL_AREA_STYLE_COLOUR('',#919);
#919 = COLOUR_RGB('',0.199999998682,0.199999998682,0.199999998682);
#920 = STYLED_ITEM('color',(#921),#57);
#921 = PRESENTATION_STYLE_ASSIGNMENT((#922));
#922 = SURFACE_STYLE_USAGE(.BOTH.,#923);
#923 = SURFACE_SIDE_STYLE('',(#924));
#924 = SURFACE_STYLE_FILL_AREA(#925);
#925 = FILL_AREA_STYLE('',(#926));
#926 = FILL_AREA_STYLE_COLOUR('',#919);
#927 = STYLED_ITEM('color',(#928),#97);
#928 = PRESENTATION_STYLE_ASSIGNMENT((#929));
#929 = SURFACE_STYLE_USAGE(.BOTH.,#930);
#930 = SURFACE_SIDE_STYLE('',(#931));
#931 = SURFACE_STYLE_FILL_AREA(#932);
#932 = FILL_AREA_STYLE('',(#933));
#933 = FILL_AREA_STYLE_COLOUR('',#919);
#934 = STYLED_ITEM('color',(#935),#169);
#935 = PRESENTATION_STYLE_ASSIGNMENT((#936));
#936 = SURFACE_STYLE_USAGE(.BOTH.,#937);
#937 = SURFACE_SIDE_STYLE('',(#938));
#938 = SURFACE_STYLE_FILL_AREA(#939);
#939 = FILL_AREA_STYLE('',(#940));
#940 = FILL_AREA_STYLE_COLOUR('',#919);
#941 = STYLED_ITEM('color',(#942),#241);
#942 = PRESENTATION_STYLE_ASSIGNMENT((#943));
#943 = SURFACE_STYLE_USAGE(.BOTH.,#944);
#944 = SURFACE_SIDE_STYLE('',(#945));
#945 = SURFACE_STYLE_FILL_AREA(#946);
#946 = FILL_AREA_STYLE('',(#947));
#947 = FILL_AREA_STYLE_COLOUR('',#919);
#948 = STYLED_ITEM('color',(#949),#290);
#949 = PRESENTATION_STYLE_ASSIGNMENT((#950));
#950 = SURFACE_STYLE_USAGE(.BOTH.,#951);
#951 = SURFACE_SIDE_STYLE('',(#952));
#952 = SURFACE_STYLE_FILL_AREA(#953);
#953 = FILL_AREA_STYLE('',(#954));
#954 = FILL_AREA_STYLE_COLOUR('',#955);
#955 = COLOUR_RGB('',0.699999984889,0.699999984889,0.699999984889);
#956 = STYLED_ITEM('color',(#957),#321);
#957 = PRESENTATION_STYLE_ASSIGNMENT((#958));
#958 = SURFACE_STYLE_USAGE(.BOTH.,#959);
#959 = SURFACE_SIDE_STYLE('',(#960));
#960 = SURFACE_STYLE_FILL_AREA(#961);
#961 = FILL_AREA_STYLE('',(#962));
#962 = FILL_AREA_STYLE_COLOUR('',#955);
#963 = STYLED_ITEM('color',(#964),#361);
#964 = PRESENTATION_STYLE_ASSIGNMENT((#965));
#965 = SURFACE_STYLE_USAGE(.BOTH.,#966);
#966 = SURFACE_SIDE_STYLE('',(#967));
#967 = SURFACE_STYLE_FILL_AREA(#968);
#968 = FILL_AREA_STYLE('',(#969));
#969 = FILL_AREA_STYLE_COLOUR('',#919);
#970 = STYLED_ITEM('color',(#971),#410);
#971 = PRESENTATION_STYLE_ASSIGNMENT((#972));
#972 = SURFACE_STYLE_USAGE(.BOTH.,#973);
#973 = SURFACE_SIDE_STYLE('',(#974));
#974 = SURFACE_STYLE_FILL_AREA(#975);
#975 = FILL_AREA_STYLE('',(#976));
#976 = FILL_AREA_STYLE_COLOUR('',#955);
#977 = STYLED_ITEM('color',(#978),#441);
#978 = PRESENTATION_STYLE_ASSIGNMENT((#979));
#979 = SURFACE_STYLE_USAGE(.BOTH.,#980);
#980 = SURFACE_SIDE_STYLE('',(#981));
#981 = SURFACE_STYLE_FILL_AREA(#982);
#982 = FILL_AREA_STYLE('',(#983));
#983 = FILL_AREA_STYLE_COLOUR('',#955);
#984 = STYLED_ITEM('color',(#985),#481);
#985 = PRESENTATION_STYLE_ASSIGNMENT((#986));
#986 = SURFACE_STYLE_USAGE(.BOTH.,#987);
#987 = SURFACE_SIDE_STYLE('',(#988));
#988 = SURFACE_STYLE_FILL_AREA(#989);
#989 = FILL_AREA_STYLE('',(#990));
#990 = FILL_AREA_STYLE_COLOUR('',#955);
#991 = STYLED_ITEM('color',(#992),#499);
#992 = PRESENTATION_STYLE_ASSIGNMENT((#993));
#993 = SURFACE_STYLE_USAGE(.BOTH.,#994);
#994 = SURFACE_SIDE_STYLE('',(#995));
#995 = SURFACE_STYLE_FILL_AREA(#996);
#996 = FILL_AREA_STYLE('',(#997));
#997 = FILL_AREA_STYLE_COLOUR('',#955);
#998 = STYLED_ITEM('color',(#999),#522);
#999 = PRESENTATION_STYLE_ASSIGNMENT((#1000));
#1000 = SURFACE_STYLE_USAGE(.BOTH.,#1001);
#1001 = SURFACE_SIDE_STYLE('',(#1002));
#1002 = SURFACE_STYLE_FILL_AREA(#1003);
#1003 = FILL_AREA_STYLE('',(#1004));
#1004 = FILL_AREA_STYLE_COLOUR('',#955);
#1005 = STYLED_ITEM('color',(#1006),#540);
#1006 = PRESENTATION_STYLE_ASSIGNMENT((#1007));
#1007 = SURFACE_STYLE_USAGE(.BOTH.,#1008);
#1008 = SURFACE_SIDE_STYLE('',(#1009));
#1009 = SURFACE_STYLE_FILL_AREA(#1010);
#1010 = FILL_AREA_STYLE('',(#1011));
#1011 = FILL_AREA_STYLE_COLOUR('',#955);
#1012 = STYLED_ITEM('color',(#1013),#558);
#1013 = PRESENTATION_STYLE_ASSIGNMENT((#1014));
#1014 = SURFACE_STYLE_USAGE(.BOTH.,#1015);
#1015 = SURFACE_SIDE_STYLE('',(#1016));
#1016 = SURFACE_STYLE_FILL_AREA(#1017);
#1017 = FILL_AREA_STYLE('',(#1018));
#1018 = FILL_AREA_STYLE_COLOUR('',#955);
#1019 = STYLED_ITEM('color',(#1020),#576);
#1020 = PRESENTATION_STYLE_ASSIGNMENT((#1021));
#1021 = SURFACE_STYLE_USAGE(.BOTH.,#1022);
#1022 = SURFACE_SIDE_STYLE('',(#1023));
#1023 = SURFACE_STYLE_FILL_AREA(#1024);
#1024 = FILL_AREA_STYLE('',(#1025));
#1025 = FILL_AREA_STYLE_COLOUR('',#955);
#1026 = STYLED_ITEM('color',(#1027),#599);
#1027 = PRESENTATION_STYLE_ASSIGNMENT((#1028));
#1028 = SURFACE_STYLE_USAGE(.BOTH.,#1029);
#1029 = SURFACE_SIDE_STYLE('',(#1030));
#1030 = SURFACE_STYLE_FILL_AREA(#1031);
#1031 = FILL_AREA_STYLE('',(#1032));
#1032 = FILL_AREA_STYLE_COLOUR('',#955);
#1033 = STYLED_ITEM('color',(#1034),#616);
#1034 = PRESENTATION_STYLE_ASSIGNMENT((#1035));
#1035 = SURFACE_STYLE_USAGE(.BOTH.,#1036);
#1036 = SURFACE_SIDE_STYLE('',(#1037));
#1037 = SURFACE_STYLE_FILL_AREA(#1038);
#1038 = FILL_AREA_STYLE('',(#1039));
#1039 = FILL_AREA_STYLE_COLOUR('',#919);
#1040 = STYLED_ITEM('color',(#1041),#634);
#1041 = PRESENTATION_STYLE_ASSIGNMENT((#1042));
#1042 = SURFACE_STYLE_USAGE(.BOTH.,#1043);
#1043 = SURFACE_SIDE_STYLE('',(#1044));
#1044 = SURFACE_STYLE_FILL_AREA(#1045);
#1045 = FILL_AREA_STYLE('',(#1046));
#1046 = FILL_AREA_STYLE_COLOUR('',#955);
#1047 = STYLED_ITEM('color',(#1048),#652);
#1048 = PRESENTATION_STYLE_ASSIGNMENT((#1049));
#1049 = SURFACE_STYLE_USAGE(.BOTH.,#1050);
#1050 = SURFACE_SIDE_STYLE('',(#1051));
#1051 = SURFACE_STYLE_FILL_AREA(#1052);
#1052 = FILL_AREA_STYLE('',(#1053));
#1053 = FILL_AREA_STYLE_COLOUR('',#955);
#1054 = STYLED_ITEM('color',(#1055),#670);
#1055 = PRESENTATION_STYLE_ASSIGNMENT((#1056));
#1056 = SURFACE_STYLE_USAGE(.BOTH.,#1057);
#1057 = SURFACE_SIDE_STYLE('',(#1058));
#1058 = SURFACE_STYLE_FILL_AREA(#1059);
#1059 = FILL_AREA_STYLE('',(#1060));
#1060 = FILL_AREA_STYLE_COLOUR('',#955);
#1061 = STYLED_ITEM('color',(#1062),#693);
#1062 = PRESENTATION_STYLE_ASSIGNMENT((#1063));
#1063 = SURFACE_STYLE_USAGE(.BOTH.,#1064);
#1064 = SURFACE_SIDE_STYLE('',(#1065));
#1065 = SURFACE_STYLE_FILL_AREA(#1066);
#1066 = FILL_AREA_STYLE('',(#1067));
#1067 = FILL_AREA_STYLE_COLOUR('',#955);
#1068 = STYLED_ITEM('color',(#1069),#710);
#1069 = PRESENTATION_STYLE_ASSIGNMENT((#1070));
#1070 = SURFACE_STYLE_USAGE(.BOTH.,#1071);
#1071 = SURFACE_SIDE_STYLE('',(#1072));
#1072 = SURFACE_STYLE_FILL_AREA(#1073);
#1073 = FILL_AREA_STYLE('',(#1074));
#1074 = FILL_AREA_STYLE_COLOUR('',#955);
#1075 = STYLED_ITEM('color',(#1076),#728);
#1076 = PRESENTATION_STYLE_ASSIGNMENT((#1077));
#1077 = SURFACE_STYLE_USAGE(.BOTH.,#1078);
#1078 = SURFACE_SIDE_STYLE('',(#1079));
#1079 = SURFACE_STYLE_FILL_AREA(#1080);
#1080 = FILL_AREA_STYLE('',(#1081));
#1081 = FILL_AREA_STYLE_COLOUR('',#955);
#1082 = STYLED_ITEM('color',(#1083),#746);
#1083 = PRESENTATION_STYLE_ASSIGNMENT((#1084));
#1084 = SURFACE_STYLE_USAGE(.BOTH.,#1085);
#1085 = SURFACE_SIDE_STYLE('',(#1086));
#1086 = SURFACE_STYLE_FILL_AREA(#1087);
#1087 = FILL_AREA_STYLE('',(#1088));
#1088 = FILL_AREA_STYLE_COLOUR('',#955);
#1089 = STYLED_ITEM('color',(#1090),#764);
#1090 = PRESENTATION_STYLE_ASSIGNMENT((#1091));
#1091 = SURFACE_STYLE_USAGE(.BOTH.,#1092);
#1092 = SURFACE_SIDE_STYLE('',(#1093));
#1093 = SURFACE_STYLE_FILL_AREA(#1094);
#1094 = FILL_AREA_STYLE('',(#1095));
#1095 = FILL_AREA_STYLE_COLOUR('',#919);
#1096 = STYLED_ITEM('color',(#1097),#782);
#1097 = PRESENTATION_STYLE_ASSIGNMENT((#1098));
#1098 = SURFACE_STYLE_USAGE(.BOTH.,#1099);
#1099 = SURFACE_SIDE_STYLE('',(#1100));
#1100 = SURFACE_STYLE_FILL_AREA(#1101);
#1101 = FILL_AREA_STYLE('',(#1102));
#1102 = FILL_AREA_STYLE_COLOUR('',#955);
#1103 = STYLED_ITEM('color',(#1104),#799);
#1104 = PRESENTATION_STYLE_ASSIGNMENT((#1105));
#1105 = SURFACE_STYLE_USAGE(.BOTH.,#1106);
#1106 = SURFACE_SIDE_STYLE('',(#1107));
#1107 = SURFACE_STYLE_FILL_AREA(#1108);
#1108 = FILL_AREA_STYLE('',(#1109));
#1109 = FILL_AREA_STYLE_COLOUR('',#955);
#1110 = STYLED_ITEM('color',(#1111),#816);
#1111 = PRESENTATION_STYLE_ASSIGNMENT((#1112));
#1112 = SURFACE_STYLE_USAGE(.BOTH.,#1113);
#1113 = SURFACE_SIDE_STYLE('',(#1114));
#1114 = SURFACE_STYLE_FILL_AREA(#1115);
#1115 = FILL_AREA_STYLE('',(#1116));
#1116 = FILL_AREA_STYLE_COLOUR('',#955);
#1117 = STYLED_ITEM('color',(#1118),#834);
#1118 = PRESENTATION_STYLE_ASSIGNMENT((#1119));
#1119 = SURFACE_STYLE_USAGE(.BOTH.,#1120);
#1120 = SURFACE_SIDE_STYLE('',(#1121));
#1121 = SURFACE_STYLE_FILL_AREA(#1122);
#1122 = FILL_AREA_STYLE('',(#1123));
#1123 = FILL_AREA_STYLE_COLOUR('',#955);
#1124 = STYLED_ITEM('color',(#1125),#852);
#1125 = PRESENTATION_STYLE_ASSIGNMENT((#1126));
#1126 = SURFACE_STYLE_USAGE(.BOTH.,#1127);
#1127 = SURFACE_SIDE_STYLE('',(#1128));
#1128 = SURFACE_STYLE_FILL_AREA(#1129);
#1129 = FILL_AREA_STYLE('',(#1130));
#1130 = FILL_AREA_STYLE_COLOUR('',#955);
#1131 = STYLED_ITEM('color',(#1132),#869);
#1132 = PRESENTATION_STYLE_ASSIGNMENT((#1133));
#1133 = SURFACE_STYLE_USAGE(.BOTH.,#1134);
#1134 = SURFACE_SIDE_STYLE('',(#1135));
#1135 = SURFACE_STYLE_FILL_AREA(#1136);
#1136 = FILL_AREA_STYLE('',(#1137));
#1137 = FILL_AREA_STYLE_COLOUR('',#955);
#1138 = STYLED_ITEM('color',(#1139),#881);
#1139 = PRESENTATION_STYLE_ASSIGNMENT((#1140));
#1140 = SURFACE_STYLE_USAGE(.BOTH.,#1141);
#1141 = SURFACE_SIDE_STYLE('',(#1142));
#1142 = SURFACE_STYLE_FILL_AREA(#1143);
#1143 = FILL_AREA_STYLE('',(#1144));
#1144 = FILL_AREA_STYLE_COLOUR('',#919);
#1145 = STYLED_ITEM('color',(#1146),#893);
#1146 = PRESENTATION_STYLE_ASSIGNMENT((#1147));
#1147 = SURFACE_STYLE_USAGE(.BOTH.,#1148);
#1148 = SURFACE_SIDE_STYLE('',(#1149));
#1149 = SURFACE_STYLE_FILL_AREA(#1150);
#1150 = FILL_AREA_STYLE('',(#1151));
#1151 = FILL_AREA_STYLE_COLOUR('',#919);
ENDSEC;
END-ISO-10303-21;
