ISO-10303-21;
HEADER;
FILE_DESCRIPTION(('FreeCAD Model'),'2;1');
FILE_NAME('Open CASCADE Shape Model','2025-09-21T12:56:16',(''),(''),
  'Open CASCADE STEP processor 7.8','FreeCAD','Unknown');
FILE_SCHEMA(('AUTOMOTIVE_DESIGN { 1 0 10303 214 1 1 1 1 }'));
ENDSEC;
DATA;
#1 = APPLICATION_PROTOCOL_DEFINITION('international standard',
  'automotive_design',2000,#2);
#2 = APPLICATION_CONTEXT(
  'core data for automotive mechanical design processes');
#3 = SHAPE_DEFINITION_REPRESENTATION(#4,#10);
#4 = PRODUCT_DEFINITION_SHAPE('','',#5);
#5 = PRODUCT_DEFINITION('design','',#6,#9);
#6 = PRODUCT_DEFINITION_FORMATION('','',#7);
#7 = PRODUCT('20C18D5C-BA9D-4A52-8C92-54FD07511595',
  '20C18D5C-BA9D-4A52-8C92-54FD07511595','',(#8));
#8 = PRODUCT_CONTEXT('',#2,'mechanical');
#9 = PRODUCT_DEFINITION_CONTEXT('part definition',#2,'design');
#10 = SHAPE_REPRESENTATION('',(#11,#15,#19,#23),#27);
#11 = AXIS2_PLACEMENT_3D('',#12,#13,#14);
#12 = CARTESIAN_POINT('',(0.,0.,0.));
#13 = DIRECTION('',(0.,0.,1.));
#14 = DIRECTION('',(1.,0.,-0.));
#15 = AXIS2_PLACEMENT_3D('',#16,#17,#18);
#16 = CARTESIAN_POINT('',(0.,-0.9,0.9));
#17 = DIRECTION('',(0.,0.,1.));
#18 = DIRECTION('',(1.,0.,0.));
#19 = AXIS2_PLACEMENT_3D('',#20,#21,#22);
#20 = CARTESIAN_POINT('',(0.,-0.9,0.9));
#21 = DIRECTION('',(0.,0.,1.));
#22 = DIRECTION('',(1.,0.,0.));
#23 = AXIS2_PLACEMENT_3D('',#24,#25,#26);
#24 = CARTESIAN_POINT('',(0.,-0.9,0.9));
#25 = DIRECTION('',(0.,0.,1.));
#26 = DIRECTION('',(1.,0.,0.));
#27 = ( GEOMETRIC_REPRESENTATION_CONTEXT(3) 
GLOBAL_UNCERTAINTY_ASSIGNED_CONTEXT((#31)) GLOBAL_UNIT_ASSIGNED_CONTEXT(
(#28,#29,#30)) REPRESENTATION_CONTEXT('Context #1',
  '3D Context with UNIT and UNCERTAINTY') );
#28 = ( LENGTH_UNIT() NAMED_UNIT(*) SI_UNIT(.MILLI.,.METRE.) );
#29 = ( NAMED_UNIT(*) PLANE_ANGLE_UNIT() SI_UNIT($,.RADIAN.) );
#30 = ( NAMED_UNIT(*) SI_UNIT($,.STERADIAN.) SOLID_ANGLE_UNIT() );
#31 = UNCERTAINTY_MEASURE_WITH_UNIT(LENGTH_MEASURE(1.E-07),#28,
  'distance_accuracy_value','confusion accuracy');
#32 = PRODUCT_RELATED_PRODUCT_CATEGORY('part',$,(#7));
#33 = SHAPE_DEFINITION_REPRESENTATION(#34,#40);
#34 = PRODUCT_DEFINITION_SHAPE('','',#35);
#35 = PRODUCT_DEFINITION('design','',#36,#39);
#36 = PRODUCT_DEFINITION_FORMATION('','',#37);
#37 = PRODUCT('20C18D5C-BA9D-4A52-8C92-54FD07511592',
  '20C18D5C-BA9D-4A52-8C92-54FD07511592','',(#38));
#38 = PRODUCT_CONTEXT('',#2,'mechanical');
#39 = PRODUCT_DEFINITION_CONTEXT('part definition',#2,'design');
#40 = ADVANCED_BREP_SHAPE_REPRESENTATION('',(#11,#41),#331);
#41 = MANIFOLD_SOLID_BREP('',#42);
#42 = CLOSED_SHELL('',(#43,#119,#150,#217,#239,#261,#283,#295,#307,#319)
  );
#43 = ADVANCED_FACE('',(#44),#114,.F.);
#44 = FACE_BOUND('',#45,.T.);
#45 = EDGE_LOOP('',(#46,#56,#65,#73,#82,#90,#99,#107));
#46 = ORIENTED_EDGE('',*,*,#47,.F.);
#47 = EDGE_CURVE('',#48,#50,#52,.T.);
#48 = VERTEX_POINT('',#49);
#49 = CARTESIAN_POINT('',(0.75,1.8,0.8));
#50 = VERTEX_POINT('',#51);
#51 = CARTESIAN_POINT('',(0.75,1.8,-0.8));
#52 = LINE('',#53,#54);
#53 = CARTESIAN_POINT('',(0.75,1.8,0.9));
#54 = VECTOR('',#55,1.);
#55 = DIRECTION('',(0.,0.,-1.));
#56 = ORIENTED_EDGE('',*,*,#57,.T.);
#57 = EDGE_CURVE('',#48,#58,#60,.T.);
#58 = VERTEX_POINT('',#59);
#59 = CARTESIAN_POINT('',(0.75,1.7,0.9));
#60 = CIRCLE('',#61,0.1);
#61 = AXIS2_PLACEMENT_3D('',#62,#63,#64);
#62 = CARTESIAN_POINT('',(0.75,1.7,0.8));
#63 = DIRECTION('',(1.,0.,-0.));
#64 = DIRECTION('',(0.,0.,1.));
#65 = ORIENTED_EDGE('',*,*,#66,.T.);
#66 = EDGE_CURVE('',#58,#67,#69,.T.);
#67 = VERTEX_POINT('',#68);
#68 = CARTESIAN_POINT('',(0.75,0.1,0.9));
#69 = LINE('',#70,#71);
#70 = CARTESIAN_POINT('',(0.75,1.8,0.9));
#71 = VECTOR('',#72,1.);
#72 = DIRECTION('',(-0.,-1.,-0.));
#73 = ORIENTED_EDGE('',*,*,#74,.T.);
#74 = EDGE_CURVE('',#67,#75,#77,.T.);
#75 = VERTEX_POINT('',#76);
#76 = CARTESIAN_POINT('',(0.75,0.,0.8));
#77 = CIRCLE('',#78,0.1);
#78 = AXIS2_PLACEMENT_3D('',#79,#80,#81);
#79 = CARTESIAN_POINT('',(0.75,0.1,0.8));
#80 = DIRECTION('',(1.,0.,-0.));
#81 = DIRECTION('',(0.,0.,1.));
#82 = ORIENTED_EDGE('',*,*,#83,.T.);
#83 = EDGE_CURVE('',#75,#84,#86,.T.);
#84 = VERTEX_POINT('',#85);
#85 = CARTESIAN_POINT('',(0.75,0.,-0.8));
#86 = LINE('',#87,#88);
#87 = CARTESIAN_POINT('',(0.75,0.,0.9));
#88 = VECTOR('',#89,1.);
#89 = DIRECTION('',(0.,0.,-1.));
#90 = ORIENTED_EDGE('',*,*,#91,.T.);
#91 = EDGE_CURVE('',#84,#92,#94,.T.);
#92 = VERTEX_POINT('',#93);
#93 = CARTESIAN_POINT('',(0.75,0.1,-0.9));
#94 = CIRCLE('',#95,0.1);
#95 = AXIS2_PLACEMENT_3D('',#96,#97,#98);
#96 = CARTESIAN_POINT('',(0.75,0.1,-0.8));
#97 = DIRECTION('',(1.,0.,-0.));
#98 = DIRECTION('',(0.,0.,1.));
#99 = ORIENTED_EDGE('',*,*,#100,.F.);
#100 = EDGE_CURVE('',#101,#92,#103,.T.);
#101 = VERTEX_POINT('',#102);
#102 = CARTESIAN_POINT('',(0.75,1.7,-0.9));
#103 = LINE('',#104,#105);
#104 = CARTESIAN_POINT('',(0.75,1.8,-0.9));
#105 = VECTOR('',#106,1.);
#106 = DIRECTION('',(-0.,-1.,-0.));
#107 = ORIENTED_EDGE('',*,*,#108,.T.);
#108 = EDGE_CURVE('',#101,#50,#109,.T.);
#109 = CIRCLE('',#110,0.1);
#110 = AXIS2_PLACEMENT_3D('',#111,#112,#113);
#111 = CARTESIAN_POINT('',(0.75,1.7,-0.8));
#112 = DIRECTION('',(1.,0.,-0.));
#113 = DIRECTION('',(0.,0.,1.));
#114 = PLANE('',#115);
#115 = AXIS2_PLACEMENT_3D('',#116,#117,#118);
#116 = CARTESIAN_POINT('',(0.75,1.8,0.9));
#117 = DIRECTION('',(-1.,0.,0.));
#118 = DIRECTION('',(0.,0.,1.));
#119 = ADVANCED_FACE('',(#120),#145,.F.);
#120 = FACE_BOUND('',#121,.T.);
#121 = EDGE_LOOP('',(#122,#132,#138,#139));
#122 = ORIENTED_EDGE('',*,*,#123,.F.);
#123 = EDGE_CURVE('',#124,#126,#128,.T.);
#124 = VERTEX_POINT('',#125);
#125 = CARTESIAN_POINT('',(-0.75,1.7,-0.9));
#126 = VERTEX_POINT('',#127);
#127 = CARTESIAN_POINT('',(-0.75,0.1,-0.9));
#128 = LINE('',#129,#130);
#129 = CARTESIAN_POINT('',(-0.75,1.8,-0.9));
#130 = VECTOR('',#131,1.);
#131 = DIRECTION('',(-0.,-1.,-0.));
#132 = ORIENTED_EDGE('',*,*,#133,.T.);
#133 = EDGE_CURVE('',#124,#101,#134,.T.);
#134 = LINE('',#135,#136);
#135 = CARTESIAN_POINT('',(-0.75,1.7,-0.9));
#136 = VECTOR('',#137,1.);
#137 = DIRECTION('',(1.,-0.,-0.));
#138 = ORIENTED_EDGE('',*,*,#100,.T.);
#139 = ORIENTED_EDGE('',*,*,#140,.T.);
#140 = EDGE_CURVE('',#92,#126,#141,.T.);
#141 = LINE('',#142,#143);
#142 = CARTESIAN_POINT('',(-0.75,0.1,-0.9));
#143 = VECTOR('',#144,1.);
#144 = DIRECTION('',(-1.,0.,0.));
#145 = PLANE('',#146);
#146 = AXIS2_PLACEMENT_3D('',#147,#148,#149);
#147 = CARTESIAN_POINT('',(-0.75,1.8,-0.9));
#148 = DIRECTION('',(0.,0.,1.));
#149 = DIRECTION('',(1.,0.,-0.));
#150 = ADVANCED_FACE('',(#151),#212,.F.);
#151 = FACE_BOUND('',#152,.T.);
#152 = EDGE_LOOP('',(#153,#163,#172,#180,#187,#188,#197,#205));
#153 = ORIENTED_EDGE('',*,*,#154,.F.);
#154 = EDGE_CURVE('',#155,#157,#159,.T.);
#155 = VERTEX_POINT('',#156);
#156 = CARTESIAN_POINT('',(-0.75,1.7,0.9));
#157 = VERTEX_POINT('',#158);
#158 = CARTESIAN_POINT('',(-0.75,0.1,0.9));
#159 = LINE('',#160,#161);
#160 = CARTESIAN_POINT('',(-0.75,1.8,0.9));
#161 = VECTOR('',#162,1.);
#162 = DIRECTION('',(-0.,-1.,-0.));
#163 = ORIENTED_EDGE('',*,*,#164,.T.);
#164 = EDGE_CURVE('',#155,#165,#167,.T.);
#165 = VERTEX_POINT('',#166);
#166 = CARTESIAN_POINT('',(-0.75,1.8,0.8));
#167 = CIRCLE('',#168,0.1);
#168 = AXIS2_PLACEMENT_3D('',#169,#170,#171);
#169 = CARTESIAN_POINT('',(-0.75,1.7,0.8));
#170 = DIRECTION('',(-1.,0.,-0.));
#171 = DIRECTION('',(0.,0.,-1.));
#172 = ORIENTED_EDGE('',*,*,#173,.F.);
#173 = EDGE_CURVE('',#174,#165,#176,.T.);
#174 = VERTEX_POINT('',#175);
#175 = CARTESIAN_POINT('',(-0.75,1.8,-0.8));
#176 = LINE('',#177,#178);
#177 = CARTESIAN_POINT('',(-0.75,1.8,0.9));
#178 = VECTOR('',#179,1.);
#179 = DIRECTION('',(-0.,-0.,1.));
#180 = ORIENTED_EDGE('',*,*,#181,.T.);
#181 = EDGE_CURVE('',#174,#124,#182,.T.);
#182 = CIRCLE('',#183,0.1);
#183 = AXIS2_PLACEMENT_3D('',#184,#185,#186);
#184 = CARTESIAN_POINT('',(-0.75,1.7,-0.8));
#185 = DIRECTION('',(-1.,0.,-0.));
#186 = DIRECTION('',(0.,0.,-1.));
#187 = ORIENTED_EDGE('',*,*,#123,.T.);
#188 = ORIENTED_EDGE('',*,*,#189,.T.);
#189 = EDGE_CURVE('',#126,#190,#192,.T.);
#190 = VERTEX_POINT('',#191);
#191 = CARTESIAN_POINT('',(-0.75,0.,-0.8));
#192 = CIRCLE('',#193,0.1);
#193 = AXIS2_PLACEMENT_3D('',#194,#195,#196);
#194 = CARTESIAN_POINT('',(-0.75,0.1,-0.8));
#195 = DIRECTION('',(-1.,0.,-0.));
#196 = DIRECTION('',(0.,0.,-1.));
#197 = ORIENTED_EDGE('',*,*,#198,.T.);
#198 = EDGE_CURVE('',#190,#199,#201,.T.);
#199 = VERTEX_POINT('',#200);
#200 = CARTESIAN_POINT('',(-0.75,0.,0.8));
#201 = LINE('',#202,#203);
#202 = CARTESIAN_POINT('',(-0.75,0.,0.9));
#203 = VECTOR('',#204,1.);
#204 = DIRECTION('',(-0.,-0.,1.));
#205 = ORIENTED_EDGE('',*,*,#206,.T.);
#206 = EDGE_CURVE('',#199,#157,#207,.T.);
#207 = CIRCLE('',#208,0.1);
#208 = AXIS2_PLACEMENT_3D('',#209,#210,#211);
#209 = CARTESIAN_POINT('',(-0.75,0.1,0.8));
#210 = DIRECTION('',(-1.,0.,-0.));
#211 = DIRECTION('',(0.,0.,-1.));
#212 = PLANE('',#213);
#213 = AXIS2_PLACEMENT_3D('',#214,#215,#216);
#214 = CARTESIAN_POINT('',(-0.75,1.8,0.9));
#215 = DIRECTION('',(1.,-0.,0.));
#216 = DIRECTION('',(0.,0.,-1.));
#217 = ADVANCED_FACE('',(#218),#234,.F.);
#218 = FACE_BOUND('',#219,.T.);
#219 = EDGE_LOOP('',(#220,#221,#227,#228));
#220 = ORIENTED_EDGE('',*,*,#66,.F.);
#221 = ORIENTED_EDGE('',*,*,#222,.T.);
#222 = EDGE_CURVE('',#58,#155,#223,.T.);
#223 = LINE('',#224,#225);
#224 = CARTESIAN_POINT('',(-0.75,1.7,0.9));
#225 = VECTOR('',#226,1.);
#226 = DIRECTION('',(-1.,-0.,-0.));
#227 = ORIENTED_EDGE('',*,*,#154,.T.);
#228 = ORIENTED_EDGE('',*,*,#229,.T.);
#229 = EDGE_CURVE('',#157,#67,#230,.T.);
#230 = LINE('',#231,#232);
#231 = CARTESIAN_POINT('',(0.75,0.1,0.9));
#232 = VECTOR('',#233,1.);
#233 = DIRECTION('',(1.,0.,0.));
#234 = PLANE('',#235);
#235 = AXIS2_PLACEMENT_3D('',#236,#237,#238);
#236 = CARTESIAN_POINT('',(-0.75,1.8,0.9));
#237 = DIRECTION('',(0.,0.,-1.));
#238 = DIRECTION('',(-1.,0.,-0.));
#239 = ADVANCED_FACE('',(#240),#256,.F.);
#240 = FACE_BOUND('',#241,.T.);
#241 = EDGE_LOOP('',(#242,#243,#249,#250));
#242 = ORIENTED_EDGE('',*,*,#173,.T.);
#243 = ORIENTED_EDGE('',*,*,#244,.T.);
#244 = EDGE_CURVE('',#165,#48,#245,.T.);
#245 = LINE('',#246,#247);
#246 = CARTESIAN_POINT('',(0.,1.8,0.8));
#247 = VECTOR('',#248,1.);
#248 = DIRECTION('',(1.,0.,0.));
#249 = ORIENTED_EDGE('',*,*,#47,.T.);
#250 = ORIENTED_EDGE('',*,*,#251,.T.);
#251 = EDGE_CURVE('',#50,#174,#252,.T.);
#252 = LINE('',#253,#254);
#253 = CARTESIAN_POINT('',(0.,1.8,-0.8));
#254 = VECTOR('',#255,1.);
#255 = DIRECTION('',(-1.,0.,0.));
#256 = PLANE('',#257);
#257 = AXIS2_PLACEMENT_3D('',#258,#259,#260);
#258 = CARTESIAN_POINT('',(0.,1.8,0.));
#259 = DIRECTION('',(0.,-1.,0.));
#260 = DIRECTION('',(0.,-0.,-1.));
#261 = ADVANCED_FACE('',(#262),#278,.T.);
#262 = FACE_BOUND('',#263,.T.);
#263 = EDGE_LOOP('',(#264,#265,#271,#272));
#264 = ORIENTED_EDGE('',*,*,#198,.F.);
#265 = ORIENTED_EDGE('',*,*,#266,.T.);
#266 = EDGE_CURVE('',#190,#84,#267,.T.);
#267 = LINE('',#268,#269);
#268 = CARTESIAN_POINT('',(0.75,0.,-0.8));
#269 = VECTOR('',#270,1.);
#270 = DIRECTION('',(1.,-0.,-0.));
#271 = ORIENTED_EDGE('',*,*,#83,.F.);
#272 = ORIENTED_EDGE('',*,*,#273,.T.);
#273 = EDGE_CURVE('',#75,#199,#274,.T.);
#274 = LINE('',#275,#276);
#275 = CARTESIAN_POINT('',(-0.75,0.,0.8));
#276 = VECTOR('',#277,1.);
#277 = DIRECTION('',(-1.,-0.,0.));
#278 = PLANE('',#279);
#279 = AXIS2_PLACEMENT_3D('',#280,#281,#282);
#280 = CARTESIAN_POINT('',(0.,0.,0.));
#281 = DIRECTION('',(0.,-1.,0.));
#282 = DIRECTION('',(0.,-0.,-1.));
#283 = ADVANCED_FACE('',(#284),#290,.T.);
#284 = FACE_BOUND('',#285,.T.);
#285 = EDGE_LOOP('',(#286,#287,#288,#289));
#286 = ORIENTED_EDGE('',*,*,#164,.F.);
#287 = ORIENTED_EDGE('',*,*,#222,.F.);
#288 = ORIENTED_EDGE('',*,*,#57,.F.);
#289 = ORIENTED_EDGE('',*,*,#244,.F.);
#290 = CYLINDRICAL_SURFACE('',#291,0.1);
#291 = AXIS2_PLACEMENT_3D('',#292,#293,#294);
#292 = CARTESIAN_POINT('',(0.,1.7,0.8));
#293 = DIRECTION('',(1.,0.,0.));
#294 = DIRECTION('',(0.,0.,-1.));
#295 = ADVANCED_FACE('',(#296),#302,.T.);
#296 = FACE_BOUND('',#297,.T.);
#297 = EDGE_LOOP('',(#298,#299,#300,#301));
#298 = ORIENTED_EDGE('',*,*,#108,.F.);
#299 = ORIENTED_EDGE('',*,*,#133,.F.);
#300 = ORIENTED_EDGE('',*,*,#181,.F.);
#301 = ORIENTED_EDGE('',*,*,#251,.F.);
#302 = CYLINDRICAL_SURFACE('',#303,0.1);
#303 = AXIS2_PLACEMENT_3D('',#304,#305,#306);
#304 = CARTESIAN_POINT('',(0.,1.7,-0.8));
#305 = DIRECTION('',(-1.,0.,0.));
#306 = DIRECTION('',(0.,0.,1.));
#307 = ADVANCED_FACE('',(#308),#314,.T.);
#308 = FACE_BOUND('',#309,.T.);
#309 = EDGE_LOOP('',(#310,#311,#312,#313));
#310 = ORIENTED_EDGE('',*,*,#91,.F.);
#311 = ORIENTED_EDGE('',*,*,#266,.F.);
#312 = ORIENTED_EDGE('',*,*,#189,.F.);
#313 = ORIENTED_EDGE('',*,*,#140,.F.);
#314 = CYLINDRICAL_SURFACE('',#315,0.1);
#315 = AXIS2_PLACEMENT_3D('',#316,#317,#318);
#316 = CARTESIAN_POINT('',(-0.75,0.1,-0.8));
#317 = DIRECTION('',(1.,0.,-0.));
#318 = DIRECTION('',(0.,-0.,-1.));
#319 = ADVANCED_FACE('',(#320),#326,.T.);
#320 = FACE_BOUND('',#321,.T.);
#321 = EDGE_LOOP('',(#322,#323,#324,#325));
#322 = ORIENTED_EDGE('',*,*,#206,.F.);
#323 = ORIENTED_EDGE('',*,*,#273,.F.);
#324 = ORIENTED_EDGE('',*,*,#74,.F.);
#325 = ORIENTED_EDGE('',*,*,#229,.F.);
#326 = CYLINDRICAL_SURFACE('',#327,0.1);
#327 = AXIS2_PLACEMENT_3D('',#328,#329,#330);
#328 = CARTESIAN_POINT('',(-0.75,0.1,0.8));
#329 = DIRECTION('',(-1.,0.,0.));
#330 = DIRECTION('',(0.,0.,1.));
#331 = ( GEOMETRIC_REPRESENTATION_CONTEXT(3) 
GLOBAL_UNCERTAINTY_ASSIGNED_CONTEXT((#335)) GLOBAL_UNIT_ASSIGNED_CONTEXT
((#332,#333,#334)) REPRESENTATION_CONTEXT('Context #1',
  '3D Context with UNIT and UNCERTAINTY') );
#332 = ( LENGTH_UNIT() NAMED_UNIT(*) SI_UNIT(.MILLI.,.METRE.) );
#333 = ( NAMED_UNIT(*) PLANE_ANGLE_UNIT() SI_UNIT($,.RADIAN.) );
#334 = ( NAMED_UNIT(*) SI_UNIT($,.STERADIAN.) SOLID_ANGLE_UNIT() );
#335 = UNCERTAINTY_MEASURE_WITH_UNIT(LENGTH_MEASURE(1.E-07),#332,
  'distance_accuracy_value','confusion accuracy');
#336 = CONTEXT_DEPENDENT_SHAPE_REPRESENTATION(#337,#339);
#337 = ( REPRESENTATION_RELATIONSHIP('','',#40,#10) 
REPRESENTATION_RELATIONSHIP_WITH_TRANSFORMATION(#338) 
SHAPE_REPRESENTATION_RELATIONSHIP() );
#338 = ITEM_DEFINED_TRANSFORMATION('','',#11,#15);
#339 = PRODUCT_DEFINITION_SHAPE('Placement','Placement of an item',#340
  );
#340 = NEXT_ASSEMBLY_USAGE_OCCURRENCE('1','=>[0:1:1:1]','',#5,#35,$);
#341 = PRODUCT_RELATED_PRODUCT_CATEGORY('part',$,(#37));
#342 = SHAPE_DEFINITION_REPRESENTATION(#343,#349);
#343 = PRODUCT_DEFINITION_SHAPE('','',#344);
#344 = PRODUCT_DEFINITION('design','',#345,#348);
#345 = PRODUCT_DEFINITION_FORMATION('','',#346);
#346 = PRODUCT('20C18D5C-BA9D-4A52-8C92-54FD07511593',
  '20C18D5C-BA9D-4A52-8C92-54FD07511593','',(#347));
#347 = PRODUCT_CONTEXT('',#2,'mechanical');
#348 = PRODUCT_DEFINITION_CONTEXT('part definition',#2,'design');
#349 = ADVANCED_BREP_SHAPE_REPRESENTATION('',(#11,#350),#804);
#350 = MANIFOLD_SOLID_BREP('',#351);
#351 = CLOSED_SHELL('',(#352,#392,#432,#472,#512,#552,#592,#610,#634,
    #652,#669,#686,#704,#722,#740,#758,#775,#792));
#352 = ADVANCED_FACE('',(#353),#387,.F.);
#353 = FACE_BOUND('',#354,.T.);
#354 = EDGE_LOOP('',(#355,#365,#373,#381));
#355 = ORIENTED_EDGE('',*,*,#356,.T.);
#356 = EDGE_CURVE('',#357,#359,#361,.T.);
#357 = VERTEX_POINT('',#358);
#358 = CARTESIAN_POINT('',(-0.75,1.7,-0.9));
#359 = VERTEX_POINT('',#360);
#360 = CARTESIAN_POINT('',(-0.75,0.1,-0.9));
#361 = LINE('',#362,#363);
#362 = CARTESIAN_POINT('',(-0.75,0.,-0.9));
#363 = VECTOR('',#364,1.);
#364 = DIRECTION('',(-0.,-1.,-0.));
#365 = ORIENTED_EDGE('',*,*,#366,.T.);
#366 = EDGE_CURVE('',#359,#367,#369,.T.);
#367 = VERTEX_POINT('',#368);
#368 = CARTESIAN_POINT('',(-1.15,0.1,-0.9));
#369 = LINE('',#370,#371);
#370 = CARTESIAN_POINT('',(-1.25,0.1,-0.9));
#371 = VECTOR('',#372,1.);
#372 = DIRECTION('',(-1.,-0.,-0.));
#373 = ORIENTED_EDGE('',*,*,#374,.T.);
#374 = EDGE_CURVE('',#367,#375,#377,.T.);
#375 = VERTEX_POINT('',#376);
#376 = CARTESIAN_POINT('',(-1.15,1.7,-0.9));
#377 = LINE('',#378,#379);
#378 = CARTESIAN_POINT('',(-1.15,0.,-0.9));
#379 = VECTOR('',#380,1.);
#380 = DIRECTION('',(-0.,1.,0.));
#381 = ORIENTED_EDGE('',*,*,#382,.T.);
#382 = EDGE_CURVE('',#375,#357,#383,.T.);
#383 = LINE('',#384,#385);
#384 = CARTESIAN_POINT('',(-1.25,1.7,-0.9));
#385 = VECTOR('',#386,1.);
#386 = DIRECTION('',(1.,0.,0.));
#387 = PLANE('',#388);
#388 = AXIS2_PLACEMENT_3D('',#389,#390,#391);
#389 = CARTESIAN_POINT('',(-1.25,0.,-0.9));
#390 = DIRECTION('',(0.,-0.,1.));
#391 = DIRECTION('',(1.,0.,0.));
#392 = ADVANCED_FACE('',(#393),#427,.F.);
#393 = FACE_BOUND('',#394,.T.);
#394 = EDGE_LOOP('',(#395,#405,#413,#421));
#395 = ORIENTED_EDGE('',*,*,#396,.T.);
#396 = EDGE_CURVE('',#397,#399,#401,.T.);
#397 = VERTEX_POINT('',#398);
#398 = CARTESIAN_POINT('',(-1.15,0.,0.8));
#399 = VERTEX_POINT('',#400);
#400 = CARTESIAN_POINT('',(-1.15,0.,-0.8));
#401 = LINE('',#402,#403);
#402 = CARTESIAN_POINT('',(-1.15,0.,-0.9));
#403 = VECTOR('',#404,1.);
#404 = DIRECTION('',(-0.,-0.,-1.));
#405 = ORIENTED_EDGE('',*,*,#406,.T.);
#406 = EDGE_CURVE('',#399,#407,#409,.T.);
#407 = VERTEX_POINT('',#408);
#408 = CARTESIAN_POINT('',(-0.75,0.,-0.8));
#409 = LINE('',#410,#411);
#410 = CARTESIAN_POINT('',(-1.25,0.,-0.8));
#411 = VECTOR('',#412,1.);
#412 = DIRECTION('',(1.,0.,0.));
#413 = ORIENTED_EDGE('',*,*,#414,.T.);
#414 = EDGE_CURVE('',#407,#415,#417,.T.);
#415 = VERTEX_POINT('',#416);
#416 = CARTESIAN_POINT('',(-0.75,0.,0.8));
#417 = LINE('',#418,#419);
#418 = CARTESIAN_POINT('',(-0.75,0.,-0.9));
#419 = VECTOR('',#420,1.);
#420 = DIRECTION('',(0.,0.,1.));
#421 = ORIENTED_EDGE('',*,*,#422,.T.);
#422 = EDGE_CURVE('',#415,#397,#423,.T.);
#423 = LINE('',#424,#425);
#424 = CARTESIAN_POINT('',(-1.25,0.,0.8));
#425 = VECTOR('',#426,1.);
#426 = DIRECTION('',(-1.,-0.,-0.));
#427 = PLANE('',#428);
#428 = AXIS2_PLACEMENT_3D('',#429,#430,#431);
#429 = CARTESIAN_POINT('',(-1.25,0.,-0.9));
#430 = DIRECTION('',(0.,1.,-0.));
#431 = DIRECTION('',(0.,0.,1.));
#432 = ADVANCED_FACE('',(#433),#467,.F.);
#433 = FACE_BOUND('',#434,.T.);
#434 = EDGE_LOOP('',(#435,#445,#453,#461));
#435 = ORIENTED_EDGE('',*,*,#436,.T.);
#436 = EDGE_CURVE('',#437,#439,#441,.T.);
#437 = VERTEX_POINT('',#438);
#438 = CARTESIAN_POINT('',(-1.15,1.7,0.9));
#439 = VERTEX_POINT('',#440);
#440 = CARTESIAN_POINT('',(-1.15,0.1,0.9));
#441 = LINE('',#442,#443);
#442 = CARTESIAN_POINT('',(-1.15,0.,0.9));
#443 = VECTOR('',#444,1.);
#444 = DIRECTION('',(-0.,-1.,-0.));
#445 = ORIENTED_EDGE('',*,*,#446,.T.);
#446 = EDGE_CURVE('',#439,#447,#449,.T.);
#447 = VERTEX_POINT('',#448);
#448 = CARTESIAN_POINT('',(-0.75,0.1,0.9));
#449 = LINE('',#450,#451);
#450 = CARTESIAN_POINT('',(-1.25,0.1,0.9));
#451 = VECTOR('',#452,1.);
#452 = DIRECTION('',(1.,0.,0.));
#453 = ORIENTED_EDGE('',*,*,#454,.T.);
#454 = EDGE_CURVE('',#447,#455,#457,.T.);
#455 = VERTEX_POINT('',#456);
#456 = CARTESIAN_POINT('',(-0.75,1.7,0.9));
#457 = LINE('',#458,#459);
#458 = CARTESIAN_POINT('',(-0.75,0.,0.9));
#459 = VECTOR('',#460,1.);
#460 = DIRECTION('',(0.,1.,0.));
#461 = ORIENTED_EDGE('',*,*,#462,.T.);
#462 = EDGE_CURVE('',#455,#437,#463,.T.);
#463 = LINE('',#464,#465);
#464 = CARTESIAN_POINT('',(-1.25,1.7,0.9));
#465 = VECTOR('',#466,1.);
#466 = DIRECTION('',(-1.,-0.,-0.));
#467 = PLANE('',#468);
#468 = AXIS2_PLACEMENT_3D('',#469,#470,#471);
#469 = CARTESIAN_POINT('',(-1.25,0.,0.9));
#470 = DIRECTION('',(0.,0.,-1.));
#471 = DIRECTION('',(-1.,0.,-0.));
#472 = ADVANCED_FACE('',(#473),#507,.F.);
#473 = FACE_BOUND('',#474,.T.);
#474 = EDGE_LOOP('',(#475,#485,#493,#501));
#475 = ORIENTED_EDGE('',*,*,#476,.T.);
#476 = EDGE_CURVE('',#477,#479,#481,.T.);
#477 = VERTEX_POINT('',#478);
#478 = CARTESIAN_POINT('',(-1.15,1.8,-0.8));
#479 = VERTEX_POINT('',#480);
#480 = CARTESIAN_POINT('',(-1.15,1.8,0.8));
#481 = LINE('',#482,#483);
#482 = CARTESIAN_POINT('',(-1.15,1.8,-0.9));
#483 = VECTOR('',#484,1.);
#484 = DIRECTION('',(-0.,-0.,1.));
#485 = ORIENTED_EDGE('',*,*,#486,.T.);
#486 = EDGE_CURVE('',#479,#487,#489,.T.);
#487 = VERTEX_POINT('',#488);
#488 = CARTESIAN_POINT('',(-0.75,1.8,0.8));
#489 = LINE('',#490,#491);
#490 = CARTESIAN_POINT('',(-1.25,1.8,0.8));
#491 = VECTOR('',#492,1.);
#492 = DIRECTION('',(1.,0.,0.));
#493 = ORIENTED_EDGE('',*,*,#494,.T.);
#494 = EDGE_CURVE('',#487,#495,#497,.T.);
#495 = VERTEX_POINT('',#496);
#496 = CARTESIAN_POINT('',(-0.75,1.8,-0.8));
#497 = LINE('',#498,#499);
#498 = CARTESIAN_POINT('',(-0.75,1.8,-0.9));
#499 = VECTOR('',#500,1.);
#500 = DIRECTION('',(-0.,-0.,-1.));
#501 = ORIENTED_EDGE('',*,*,#502,.T.);
#502 = EDGE_CURVE('',#495,#477,#503,.T.);
#503 = LINE('',#504,#505);
#504 = CARTESIAN_POINT('',(-1.25,1.8,-0.8));
#505 = VECTOR('',#506,1.);
#506 = DIRECTION('',(-1.,-0.,-0.));
#507 = PLANE('',#508);
#508 = AXIS2_PLACEMENT_3D('',#509,#510,#511);
#509 = CARTESIAN_POINT('',(-1.25,1.8,-0.9));
#510 = DIRECTION('',(0.,-1.,0.));
#511 = DIRECTION('',(0.,-0.,-1.));
#512 = ADVANCED_FACE('',(#513),#547,.F.);
#513 = FACE_BOUND('',#514,.T.);
#514 = EDGE_LOOP('',(#515,#525,#533,#541));
#515 = ORIENTED_EDGE('',*,*,#516,.T.);
#516 = EDGE_CURVE('',#517,#519,#521,.T.);
#517 = VERTEX_POINT('',#518);
#518 = CARTESIAN_POINT('',(-1.25,0.1,0.8));
#519 = VERTEX_POINT('',#520);
#520 = CARTESIAN_POINT('',(-1.25,1.7,0.8));
#521 = LINE('',#522,#523);
#522 = CARTESIAN_POINT('',(-1.25,0.,0.8));
#523 = VECTOR('',#524,1.);
#524 = DIRECTION('',(-0.,1.,0.));
#525 = ORIENTED_EDGE('',*,*,#526,.T.);
#526 = EDGE_CURVE('',#519,#527,#529,.T.);
#527 = VERTEX_POINT('',#528);
#528 = CARTESIAN_POINT('',(-1.25,1.7,-0.8));
#529 = LINE('',#530,#531);
#530 = CARTESIAN_POINT('',(-1.25,1.7,0.));
#531 = VECTOR('',#532,1.);
#532 = DIRECTION('',(0.,0.,-1.));
#533 = ORIENTED_EDGE('',*,*,#534,.T.);
#534 = EDGE_CURVE('',#527,#535,#537,.T.);
#535 = VERTEX_POINT('',#536);
#536 = CARTESIAN_POINT('',(-1.25,0.1,-0.8));
#537 = LINE('',#538,#539);
#538 = CARTESIAN_POINT('',(-1.25,0.,-0.8));
#539 = VECTOR('',#540,1.);
#540 = DIRECTION('',(0.,-1.,-0.));
#541 = ORIENTED_EDGE('',*,*,#542,.T.);
#542 = EDGE_CURVE('',#535,#517,#543,.T.);
#543 = LINE('',#544,#545);
#544 = CARTESIAN_POINT('',(-1.25,0.1,0.));
#545 = VECTOR('',#546,1.);
#546 = DIRECTION('',(-0.,0.,1.));
#547 = PLANE('',#548);
#548 = AXIS2_PLACEMENT_3D('',#549,#550,#551);
#549 = CARTESIAN_POINT('',(-1.25,0.,0.));
#550 = DIRECTION('',(1.,0.,0.));
#551 = DIRECTION('',(0.,0.,-1.));
#552 = ADVANCED_FACE('',(#553),#587,.T.);
#553 = FACE_BOUND('',#554,.T.);
#554 = EDGE_LOOP('',(#555,#556,#563,#564,#571,#572,#579,#580));
#555 = ORIENTED_EDGE('',*,*,#414,.F.);
#556 = ORIENTED_EDGE('',*,*,#557,.T.);
#557 = EDGE_CURVE('',#407,#359,#558,.T.);
#558 = CIRCLE('',#559,0.1);
#559 = AXIS2_PLACEMENT_3D('',#560,#561,#562);
#560 = CARTESIAN_POINT('',(-0.75,0.1,-0.8));
#561 = DIRECTION('',(1.,0.,0.));
#562 = DIRECTION('',(0.,0.,-1.));
#563 = ORIENTED_EDGE('',*,*,#356,.F.);
#564 = ORIENTED_EDGE('',*,*,#565,.T.);
#565 = EDGE_CURVE('',#357,#495,#566,.T.);
#566 = CIRCLE('',#567,0.1);
#567 = AXIS2_PLACEMENT_3D('',#568,#569,#570);
#568 = CARTESIAN_POINT('',(-0.75,1.7,-0.8));
#569 = DIRECTION('',(1.,0.,0.));
#570 = DIRECTION('',(0.,0.,-1.));
#571 = ORIENTED_EDGE('',*,*,#494,.F.);
#572 = ORIENTED_EDGE('',*,*,#573,.T.);
#573 = EDGE_CURVE('',#487,#455,#574,.T.);
#574 = CIRCLE('',#575,0.1);
#575 = AXIS2_PLACEMENT_3D('',#576,#577,#578);
#576 = CARTESIAN_POINT('',(-0.75,1.7,0.8));
#577 = DIRECTION('',(1.,0.,0.));
#578 = DIRECTION('',(0.,0.,-1.));
#579 = ORIENTED_EDGE('',*,*,#454,.F.);
#580 = ORIENTED_EDGE('',*,*,#581,.T.);
#581 = EDGE_CURVE('',#447,#415,#582,.T.);
#582 = CIRCLE('',#583,0.1);
#583 = AXIS2_PLACEMENT_3D('',#584,#585,#586);
#584 = CARTESIAN_POINT('',(-0.75,0.1,0.8));
#585 = DIRECTION('',(1.,0.,0.));
#586 = DIRECTION('',(0.,0.,-1.));
#587 = PLANE('',#588);
#588 = AXIS2_PLACEMENT_3D('',#589,#590,#591);
#589 = CARTESIAN_POINT('',(-0.75,0.,0.));
#590 = DIRECTION('',(1.,0.,0.));
#591 = DIRECTION('',(0.,0.,-1.));
#592 = ADVANCED_FACE('',(#593),#605,.T.);
#593 = FACE_BOUND('',#594,.T.);
#594 = EDGE_LOOP('',(#595,#596,#597,#604));
#595 = ORIENTED_EDGE('',*,*,#581,.F.);
#596 = ORIENTED_EDGE('',*,*,#446,.F.);
#597 = ORIENTED_EDGE('',*,*,#598,.F.);
#598 = EDGE_CURVE('',#397,#439,#599,.T.);
#599 = CIRCLE('',#600,0.1);
#600 = AXIS2_PLACEMENT_3D('',#601,#602,#603);
#601 = CARTESIAN_POINT('',(-1.15,0.1,0.8));
#602 = DIRECTION('',(-1.,0.,0.));
#603 = DIRECTION('',(0.,0.,1.));
#604 = ORIENTED_EDGE('',*,*,#422,.F.);
#605 = CYLINDRICAL_SURFACE('',#606,0.1);
#606 = AXIS2_PLACEMENT_3D('',#607,#608,#609);
#607 = CARTESIAN_POINT('',(-1.25,0.1,0.8));
#608 = DIRECTION('',(1.,0.,0.));
#609 = DIRECTION('',(0.,0.,-1.));
#610 = ADVANCED_FACE('',(#611),#629,.T.);
#611 = FACE_BOUND('',#612,.T.);
#612 = EDGE_LOOP('',(#613,#620,#621,#628));
#613 = ORIENTED_EDGE('',*,*,#614,.F.);
#614 = EDGE_CURVE('',#399,#535,#615,.T.);
#615 = CIRCLE('',#616,0.1);
#616 = AXIS2_PLACEMENT_3D('',#617,#618,#619);
#617 = CARTESIAN_POINT('',(-1.15,0.1,-0.8));
#618 = DIRECTION('',(-0.,0.,-1.));
#619 = DIRECTION('',(-1.,0.,0.));
#620 = ORIENTED_EDGE('',*,*,#396,.F.);
#621 = ORIENTED_EDGE('',*,*,#622,.F.);
#622 = EDGE_CURVE('',#517,#397,#623,.T.);
#623 = CIRCLE('',#624,0.1);
#624 = AXIS2_PLACEMENT_3D('',#625,#626,#627);
#625 = CARTESIAN_POINT('',(-1.15,0.1,0.8));
#626 = DIRECTION('',(0.,0.,1.));
#627 = DIRECTION('',(1.,0.,-0.));
#628 = ORIENTED_EDGE('',*,*,#542,.F.);
#629 = CYLINDRICAL_SURFACE('',#630,0.1);
#630 = AXIS2_PLACEMENT_3D('',#631,#632,#633);
#631 = CARTESIAN_POINT('',(-1.15,0.1,0.));
#632 = DIRECTION('',(-0.,0.,1.));
#633 = DIRECTION('',(1.,0.,0.));
#634 = ADVANCED_FACE('',(#635),#647,.T.);
#635 = FACE_BOUND('',#636,.T.);
#636 = EDGE_LOOP('',(#637,#638,#639,#646));
#637 = ORIENTED_EDGE('',*,*,#557,.F.);
#638 = ORIENTED_EDGE('',*,*,#406,.F.);
#639 = ORIENTED_EDGE('',*,*,#640,.F.);
#640 = EDGE_CURVE('',#367,#399,#641,.T.);
#641 = CIRCLE('',#642,0.1);
#642 = AXIS2_PLACEMENT_3D('',#643,#644,#645);
#643 = CARTESIAN_POINT('',(-1.15,0.1,-0.8));
#644 = DIRECTION('',(-1.,0.,-0.));
#645 = DIRECTION('',(-0.,0.,1.));
#646 = ORIENTED_EDGE('',*,*,#366,.F.);
#647 = CYLINDRICAL_SURFACE('',#648,0.1);
#648 = AXIS2_PLACEMENT_3D('',#649,#650,#651);
#649 = CARTESIAN_POINT('',(-1.25,0.1,-0.8));
#650 = DIRECTION('',(1.,0.,0.));
#651 = DIRECTION('',(0.,0.,-1.));
#652 = ADVANCED_FACE('',(#653),#664,.T.);
#653 = FACE_BOUND('',#654,.T.);
#654 = EDGE_LOOP('',(#655,#656,#657));
#655 = ORIENTED_EDGE('',*,*,#622,.T.);
#656 = ORIENTED_EDGE('',*,*,#598,.T.);
#657 = ORIENTED_EDGE('',*,*,#658,.F.);
#658 = EDGE_CURVE('',#517,#439,#659,.T.);
#659 = CIRCLE('',#660,0.1);
#660 = AXIS2_PLACEMENT_3D('',#661,#662,#663);
#661 = CARTESIAN_POINT('',(-1.15,0.1,0.8));
#662 = DIRECTION('',(-0.,1.,0.));
#663 = DIRECTION('',(0.,0.,-1.));
#664 = SPHERICAL_SURFACE('',#665,0.1);
#665 = AXIS2_PLACEMENT_3D('',#666,#667,#668);
#666 = CARTESIAN_POINT('',(-1.15,0.1,0.8));
#667 = DIRECTION('',(0.,1.,0.));
#668 = DIRECTION('',(1.,0.,0.));
#669 = ADVANCED_FACE('',(#670),#681,.T.);
#670 = FACE_BOUND('',#671,.T.);
#671 = EDGE_LOOP('',(#672,#673,#674));
#672 = ORIENTED_EDGE('',*,*,#640,.T.);
#673 = ORIENTED_EDGE('',*,*,#614,.T.);
#674 = ORIENTED_EDGE('',*,*,#675,.F.);
#675 = EDGE_CURVE('',#367,#535,#676,.T.);
#676 = CIRCLE('',#677,0.1);
#677 = AXIS2_PLACEMENT_3D('',#678,#679,#680);
#678 = CARTESIAN_POINT('',(-1.15,0.1,-0.8));
#679 = DIRECTION('',(0.,1.,0.));
#680 = DIRECTION('',(0.,0.,-1.));
#681 = SPHERICAL_SURFACE('',#682,0.1);
#682 = AXIS2_PLACEMENT_3D('',#683,#684,#685);
#683 = CARTESIAN_POINT('',(-1.15,0.1,-0.8));
#684 = DIRECTION('',(0.,1.,0.));
#685 = DIRECTION('',(1.,0.,0.));
#686 = ADVANCED_FACE('',(#687),#699,.T.);
#687 = FACE_BOUND('',#688,.T.);
#688 = EDGE_LOOP('',(#689,#690,#691,#698));
#689 = ORIENTED_EDGE('',*,*,#573,.F.);
#690 = ORIENTED_EDGE('',*,*,#486,.F.);
#691 = ORIENTED_EDGE('',*,*,#692,.F.);
#692 = EDGE_CURVE('',#437,#479,#693,.T.);
#693 = CIRCLE('',#694,0.1);
#694 = AXIS2_PLACEMENT_3D('',#695,#696,#697);
#695 = CARTESIAN_POINT('',(-1.15,1.7,0.8));
#696 = DIRECTION('',(-1.,0.,0.));
#697 = DIRECTION('',(0.,0.,1.));
#698 = ORIENTED_EDGE('',*,*,#462,.F.);
#699 = CYLINDRICAL_SURFACE('',#700,0.1);
#700 = AXIS2_PLACEMENT_3D('',#701,#702,#703);
#701 = CARTESIAN_POINT('',(-1.25,1.7,0.8));
#702 = DIRECTION('',(1.,0.,0.));
#703 = DIRECTION('',(0.,0.,-1.));
#704 = ADVANCED_FACE('',(#705),#717,.T.);
#705 = FACE_BOUND('',#706,.T.);
#706 = EDGE_LOOP('',(#707,#708,#709,#716));
#707 = ORIENTED_EDGE('',*,*,#658,.T.);
#708 = ORIENTED_EDGE('',*,*,#436,.F.);
#709 = ORIENTED_EDGE('',*,*,#710,.F.);
#710 = EDGE_CURVE('',#519,#437,#711,.T.);
#711 = CIRCLE('',#712,0.1);
#712 = AXIS2_PLACEMENT_3D('',#713,#714,#715);
#713 = CARTESIAN_POINT('',(-1.15,1.7,0.8));
#714 = DIRECTION('',(0.,1.,-0.));
#715 = DIRECTION('',(0.,0.,1.));
#716 = ORIENTED_EDGE('',*,*,#516,.F.);
#717 = CYLINDRICAL_SURFACE('',#718,0.1);
#718 = AXIS2_PLACEMENT_3D('',#719,#720,#721);
#719 = CARTESIAN_POINT('',(-1.15,0.,0.8));
#720 = DIRECTION('',(-0.,1.,0.));
#721 = DIRECTION('',(0.,0.,1.));
#722 = ADVANCED_FACE('',(#723),#735,.T.);
#723 = FACE_BOUND('',#724,.T.);
#724 = EDGE_LOOP('',(#725,#726,#727,#734));
#725 = ORIENTED_EDGE('',*,*,#675,.T.);
#726 = ORIENTED_EDGE('',*,*,#534,.F.);
#727 = ORIENTED_EDGE('',*,*,#728,.F.);
#728 = EDGE_CURVE('',#375,#527,#729,.T.);
#729 = CIRCLE('',#730,0.1);
#730 = AXIS2_PLACEMENT_3D('',#731,#732,#733);
#731 = CARTESIAN_POINT('',(-1.15,1.7,-0.8));
#732 = DIRECTION('',(0.,1.,0.));
#733 = DIRECTION('',(0.,-0.,1.));
#734 = ORIENTED_EDGE('',*,*,#374,.F.);
#735 = CYLINDRICAL_SURFACE('',#736,0.1);
#736 = AXIS2_PLACEMENT_3D('',#737,#738,#739);
#737 = CARTESIAN_POINT('',(-1.15,0.,-0.8));
#738 = DIRECTION('',(0.,-1.,-0.));
#739 = DIRECTION('',(0.,0.,-1.));
#740 = ADVANCED_FACE('',(#741),#753,.T.);
#741 = FACE_BOUND('',#742,.T.);
#742 = EDGE_LOOP('',(#743,#744,#745,#752));
#743 = ORIENTED_EDGE('',*,*,#565,.F.);
#744 = ORIENTED_EDGE('',*,*,#382,.F.);
#745 = ORIENTED_EDGE('',*,*,#746,.F.);
#746 = EDGE_CURVE('',#477,#375,#747,.T.);
#747 = CIRCLE('',#748,0.1);
#748 = AXIS2_PLACEMENT_3D('',#749,#750,#751);
#749 = CARTESIAN_POINT('',(-1.15,1.7,-0.8));
#750 = DIRECTION('',(-1.,0.,0.));
#751 = DIRECTION('',(0.,0.,1.));
#752 = ORIENTED_EDGE('',*,*,#502,.F.);
#753 = CYLINDRICAL_SURFACE('',#754,0.1);
#754 = AXIS2_PLACEMENT_3D('',#755,#756,#757);
#755 = CARTESIAN_POINT('',(-1.25,1.7,-0.8));
#756 = DIRECTION('',(1.,0.,0.));
#757 = DIRECTION('',(0.,0.,-1.));
#758 = ADVANCED_FACE('',(#759),#770,.T.);
#759 = FACE_BOUND('',#760,.T.);
#760 = EDGE_LOOP('',(#761,#762,#763));
#761 = ORIENTED_EDGE('',*,*,#710,.T.);
#762 = ORIENTED_EDGE('',*,*,#692,.T.);
#763 = ORIENTED_EDGE('',*,*,#764,.F.);
#764 = EDGE_CURVE('',#519,#479,#765,.T.);
#765 = CIRCLE('',#766,0.1);
#766 = AXIS2_PLACEMENT_3D('',#767,#768,#769);
#767 = CARTESIAN_POINT('',(-1.15,1.7,0.8));
#768 = DIRECTION('',(0.,0.,-1.));
#769 = DIRECTION('',(1.,0.,0.));
#770 = SPHERICAL_SURFACE('',#771,0.1);
#771 = AXIS2_PLACEMENT_3D('',#772,#773,#774);
#772 = CARTESIAN_POINT('',(-1.15,1.7,0.8));
#773 = DIRECTION('',(0.,1.,0.));
#774 = DIRECTION('',(1.,0.,0.));
#775 = ADVANCED_FACE('',(#776),#787,.T.);
#776 = FACE_BOUND('',#777,.T.);
#777 = EDGE_LOOP('',(#778,#779,#780));
#778 = ORIENTED_EDGE('',*,*,#746,.T.);
#779 = ORIENTED_EDGE('',*,*,#728,.T.);
#780 = ORIENTED_EDGE('',*,*,#781,.F.);
#781 = EDGE_CURVE('',#477,#527,#782,.T.);
#782 = CIRCLE('',#783,0.1);
#783 = AXIS2_PLACEMENT_3D('',#784,#785,#786);
#784 = CARTESIAN_POINT('',(-1.15,1.7,-0.8));
#785 = DIRECTION('',(0.,-0.,1.));
#786 = DIRECTION('',(-1.,0.,0.));
#787 = SPHERICAL_SURFACE('',#788,0.1);
#788 = AXIS2_PLACEMENT_3D('',#789,#790,#791);
#789 = CARTESIAN_POINT('',(-1.15,1.7,-0.8));
#790 = DIRECTION('',(0.,1.,0.));
#791 = DIRECTION('',(1.,0.,0.));
#792 = ADVANCED_FACE('',(#793),#799,.T.);
#793 = FACE_BOUND('',#794,.T.);
#794 = EDGE_LOOP('',(#795,#796,#797,#798));
#795 = ORIENTED_EDGE('',*,*,#764,.T.);
#796 = ORIENTED_EDGE('',*,*,#476,.F.);
#797 = ORIENTED_EDGE('',*,*,#781,.T.);
#798 = ORIENTED_EDGE('',*,*,#526,.F.);
#799 = CYLINDRICAL_SURFACE('',#800,0.1);
#800 = AXIS2_PLACEMENT_3D('',#801,#802,#803);
#801 = CARTESIAN_POINT('',(-1.15,1.7,0.));
#802 = DIRECTION('',(0.,0.,-1.));
#803 = DIRECTION('',(-1.,0.,0.));
#804 = ( GEOMETRIC_REPRESENTATION_CONTEXT(3) 
GLOBAL_UNCERTAINTY_ASSIGNED_CONTEXT((#808)) GLOBAL_UNIT_ASSIGNED_CONTEXT
((#805,#806,#807)) REPRESENTATION_CONTEXT('Context #1',
  '3D Context with UNIT and UNCERTAINTY') );
#805 = ( LENGTH_UNIT() NAMED_UNIT(*) SI_UNIT(.MILLI.,.METRE.) );
#806 = ( NAMED_UNIT(*) PLANE_ANGLE_UNIT() SI_UNIT($,.RADIAN.) );
#807 = ( NAMED_UNIT(*) SI_UNIT($,.STERADIAN.) SOLID_ANGLE_UNIT() );
#808 = UNCERTAINTY_MEASURE_WITH_UNIT(LENGTH_MEASURE(1.E-07),#805,
  'distance_accuracy_value','confusion accuracy');
#809 = CONTEXT_DEPENDENT_SHAPE_REPRESENTATION(#810,#812);
#810 = ( REPRESENTATION_RELATIONSHIP('','',#349,#10) 
REPRESENTATION_RELATIONSHIP_WITH_TRANSFORMATION(#811) 
SHAPE_REPRESENTATION_RELATIONSHIP() );
#811 = ITEM_DEFINED_TRANSFORMATION('','',#11,#19);
#812 = PRODUCT_DEFINITION_SHAPE('Placement','Placement of an item',#813
  );
#813 = NEXT_ASSEMBLY_USAGE_OCCURRENCE('2','=>[0:1:1:2]','',#5,#344,$);
#814 = PRODUCT_RELATED_PRODUCT_CATEGORY('part',$,(#346));
#815 = SHAPE_DEFINITION_REPRESENTATION(#816,#822);
#816 = PRODUCT_DEFINITION_SHAPE('','',#817);
#817 = PRODUCT_DEFINITION('design','',#818,#821);
#818 = PRODUCT_DEFINITION_FORMATION('','',#819);
#819 = PRODUCT('20C18D5C-BA9D-4A52-8C92-54FD07511594',
  '20C18D5C-BA9D-4A52-8C92-54FD07511594','',(#820));
#820 = PRODUCT_CONTEXT('',#2,'mechanical');
#821 = PRODUCT_DEFINITION_CONTEXT('part definition',#2,'design');
#822 = ADVANCED_BREP_SHAPE_REPRESENTATION('',(#11,#823),#1277);
#823 = MANIFOLD_SOLID_BREP('',#824);
#824 = CLOSED_SHELL('',(#825,#865,#905,#945,#985,#1025,#1065,#1083,#1106
    ,#1124,#1142,#1160,#1178,#1195,#1212,#1230,#1248,#1265));
#825 = ADVANCED_FACE('',(#826),#860,.F.);
#826 = FACE_BOUND('',#827,.T.);
#827 = EDGE_LOOP('',(#828,#838,#846,#854));
#828 = ORIENTED_EDGE('',*,*,#829,.T.);
#829 = EDGE_CURVE('',#830,#832,#834,.T.);
#830 = VERTEX_POINT('',#831);
#831 = CARTESIAN_POINT('',(0.75,1.7,0.9));
#832 = VERTEX_POINT('',#833);
#833 = CARTESIAN_POINT('',(0.75,0.1,0.9));
#834 = LINE('',#835,#836);
#835 = CARTESIAN_POINT('',(0.75,1.8,0.9));
#836 = VECTOR('',#837,1.);
#837 = DIRECTION('',(0.,-1.,0.));
#838 = ORIENTED_EDGE('',*,*,#839,.T.);
#839 = EDGE_CURVE('',#832,#840,#842,.T.);
#840 = VERTEX_POINT('',#841);
#841 = CARTESIAN_POINT('',(1.15,0.1,0.9));
#842 = LINE('',#843,#844);
#843 = CARTESIAN_POINT('',(1.25,0.1,0.9));
#844 = VECTOR('',#845,1.);
#845 = DIRECTION('',(1.,-0.,-0.));
#846 = ORIENTED_EDGE('',*,*,#847,.T.);
#847 = EDGE_CURVE('',#840,#848,#850,.T.);
#848 = VERTEX_POINT('',#849);
#849 = CARTESIAN_POINT('',(1.15,1.7,0.9));
#850 = LINE('',#851,#852);
#851 = CARTESIAN_POINT('',(1.15,1.8,0.9));
#852 = VECTOR('',#853,1.);
#853 = DIRECTION('',(-0.,1.,-0.));
#854 = ORIENTED_EDGE('',*,*,#855,.T.);
#855 = EDGE_CURVE('',#848,#830,#856,.T.);
#856 = LINE('',#857,#858);
#857 = CARTESIAN_POINT('',(1.25,1.7,0.9));
#858 = VECTOR('',#859,1.);
#859 = DIRECTION('',(-1.,0.,0.));
#860 = PLANE('',#861);
#861 = AXIS2_PLACEMENT_3D('',#862,#863,#864);
#862 = CARTESIAN_POINT('',(1.25,1.8,0.9));
#863 = DIRECTION('',(0.,0.,-1.));
#864 = DIRECTION('',(-1.,0.,-0.));
#865 = ADVANCED_FACE('',(#866),#900,.F.);
#866 = FACE_BOUND('',#867,.T.);
#867 = EDGE_LOOP('',(#868,#878,#886,#894));
#868 = ORIENTED_EDGE('',*,*,#869,.T.);
#869 = EDGE_CURVE('',#870,#872,#874,.T.);
#870 = VERTEX_POINT('',#871);
#871 = CARTESIAN_POINT('',(0.75,0.,0.8));
#872 = VERTEX_POINT('',#873);
#873 = CARTESIAN_POINT('',(0.75,0.,-0.8));
#874 = LINE('',#875,#876);
#875 = CARTESIAN_POINT('',(0.75,0.,0.9));
#876 = VECTOR('',#877,1.);
#877 = DIRECTION('',(0.,0.,-1.));
#878 = ORIENTED_EDGE('',*,*,#879,.T.);
#879 = EDGE_CURVE('',#872,#880,#882,.T.);
#880 = VERTEX_POINT('',#881);
#881 = CARTESIAN_POINT('',(1.15,0.,-0.8));
#882 = LINE('',#883,#884);
#883 = CARTESIAN_POINT('',(1.25,0.,-0.8));
#884 = VECTOR('',#885,1.);
#885 = DIRECTION('',(1.,-0.,-0.));
#886 = ORIENTED_EDGE('',*,*,#887,.T.);
#887 = EDGE_CURVE('',#880,#888,#890,.T.);
#888 = VERTEX_POINT('',#889);
#889 = CARTESIAN_POINT('',(1.15,0.,0.8));
#890 = LINE('',#891,#892);
#891 = CARTESIAN_POINT('',(1.15,0.,0.9));
#892 = VECTOR('',#893,1.);
#893 = DIRECTION('',(-0.,-0.,1.));
#894 = ORIENTED_EDGE('',*,*,#895,.T.);
#895 = EDGE_CURVE('',#888,#870,#896,.T.);
#896 = LINE('',#897,#898);
#897 = CARTESIAN_POINT('',(1.25,0.,0.8));
#898 = VECTOR('',#899,1.);
#899 = DIRECTION('',(-1.,0.,0.));
#900 = PLANE('',#901);
#901 = AXIS2_PLACEMENT_3D('',#902,#903,#904);
#902 = CARTESIAN_POINT('',(1.25,0.,0.9));
#903 = DIRECTION('',(-0.,1.,0.));
#904 = DIRECTION('',(0.,0.,1.));
#905 = ADVANCED_FACE('',(#906),#940,.F.);
#906 = FACE_BOUND('',#907,.T.);
#907 = EDGE_LOOP('',(#908,#918,#926,#934));
#908 = ORIENTED_EDGE('',*,*,#909,.T.);
#909 = EDGE_CURVE('',#910,#912,#914,.T.);
#910 = VERTEX_POINT('',#911);
#911 = CARTESIAN_POINT('',(0.75,0.1,-0.9));
#912 = VERTEX_POINT('',#913);
#913 = CARTESIAN_POINT('',(0.75,1.7,-0.9));
#914 = LINE('',#915,#916);
#915 = CARTESIAN_POINT('',(0.75,1.8,-0.9));
#916 = VECTOR('',#917,1.);
#917 = DIRECTION('',(-0.,1.,-0.));
#918 = ORIENTED_EDGE('',*,*,#919,.T.);
#919 = EDGE_CURVE('',#912,#920,#922,.T.);
#920 = VERTEX_POINT('',#921);
#921 = CARTESIAN_POINT('',(1.15,1.7,-0.9));
#922 = LINE('',#923,#924);
#923 = CARTESIAN_POINT('',(1.25,1.7,-0.9));
#924 = VECTOR('',#925,1.);
#925 = DIRECTION('',(1.,-0.,0.));
#926 = ORIENTED_EDGE('',*,*,#927,.T.);
#927 = EDGE_CURVE('',#920,#928,#930,.T.);
#928 = VERTEX_POINT('',#929);
#929 = CARTESIAN_POINT('',(1.15,0.1,-0.9));
#930 = LINE('',#931,#932);
#931 = CARTESIAN_POINT('',(1.15,0.,-0.9));
#932 = VECTOR('',#933,1.);
#933 = DIRECTION('',(-0.,-1.,0.));
#934 = ORIENTED_EDGE('',*,*,#935,.T.);
#935 = EDGE_CURVE('',#928,#910,#936,.T.);
#936 = LINE('',#937,#938);
#937 = CARTESIAN_POINT('',(1.25,0.1,-0.9));
#938 = VECTOR('',#939,1.);
#939 = DIRECTION('',(-1.,0.,-0.));
#940 = PLANE('',#941);
#941 = AXIS2_PLACEMENT_3D('',#942,#943,#944);
#942 = CARTESIAN_POINT('',(1.25,1.8,-0.9));
#943 = DIRECTION('',(-0.,0.,1.));
#944 = DIRECTION('',(1.,0.,0.));
#945 = ADVANCED_FACE('',(#946),#980,.F.);
#946 = FACE_BOUND('',#947,.T.);
#947 = EDGE_LOOP('',(#948,#958,#966,#974));
#948 = ORIENTED_EDGE('',*,*,#949,.T.);
#949 = EDGE_CURVE('',#950,#952,#954,.T.);
#950 = VERTEX_POINT('',#951);
#951 = CARTESIAN_POINT('',(1.15,1.8,0.8));
#952 = VERTEX_POINT('',#953);
#953 = CARTESIAN_POINT('',(1.15,1.8,-0.8));
#954 = LINE('',#955,#956);
#955 = CARTESIAN_POINT('',(1.15,1.8,-0.9));
#956 = VECTOR('',#957,1.);
#957 = DIRECTION('',(-0.,-0.,-1.));
#958 = ORIENTED_EDGE('',*,*,#959,.T.);
#959 = EDGE_CURVE('',#952,#960,#962,.T.);
#960 = VERTEX_POINT('',#961);
#961 = CARTESIAN_POINT('',(0.75,1.8,-0.8));
#962 = LINE('',#963,#964);
#963 = CARTESIAN_POINT('',(1.25,1.8,-0.8));
#964 = VECTOR('',#965,1.);
#965 = DIRECTION('',(-1.,0.,0.));
#966 = ORIENTED_EDGE('',*,*,#967,.T.);
#967 = EDGE_CURVE('',#960,#968,#970,.T.);
#968 = VERTEX_POINT('',#969);
#969 = CARTESIAN_POINT('',(0.75,1.8,0.8));
#970 = LINE('',#971,#972);
#971 = CARTESIAN_POINT('',(0.75,1.8,0.9));
#972 = VECTOR('',#973,1.);
#973 = DIRECTION('',(-0.,-0.,1.));
#974 = ORIENTED_EDGE('',*,*,#975,.T.);
#975 = EDGE_CURVE('',#968,#950,#976,.T.);
#976 = LINE('',#977,#978);
#977 = CARTESIAN_POINT('',(1.25,1.8,0.8));
#978 = VECTOR('',#979,1.);
#979 = DIRECTION('',(1.,-0.,-0.));
#980 = PLANE('',#981);
#981 = AXIS2_PLACEMENT_3D('',#982,#983,#984);
#982 = CARTESIAN_POINT('',(1.25,1.8,0.9));
#983 = DIRECTION('',(0.,-1.,0.));
#984 = DIRECTION('',(0.,-0.,-1.));
#985 = ADVANCED_FACE('',(#986),#1020,.T.);
#986 = FACE_BOUND('',#987,.T.);
#987 = EDGE_LOOP('',(#988,#998,#1006,#1014));
#988 = ORIENTED_EDGE('',*,*,#989,.T.);
#989 = EDGE_CURVE('',#990,#992,#994,.T.);
#990 = VERTEX_POINT('',#991);
#991 = CARTESIAN_POINT('',(1.25,1.7,0.8));
#992 = VERTEX_POINT('',#993);
#993 = CARTESIAN_POINT('',(1.25,0.1,0.8));
#994 = LINE('',#995,#996);
#995 = CARTESIAN_POINT('',(1.25,0.,0.8));
#996 = VECTOR('',#997,1.);
#997 = DIRECTION('',(0.,-1.,0.));
#998 = ORIENTED_EDGE('',*,*,#999,.T.);
#999 = EDGE_CURVE('',#992,#1000,#1002,.T.);
#1000 = VERTEX_POINT('',#1001);
#1001 = CARTESIAN_POINT('',(1.25,0.1,-0.8));
#1002 = LINE('',#1003,#1004);
#1003 = CARTESIAN_POINT('',(1.25,0.1,-0.9));
#1004 = VECTOR('',#1005,1.);
#1005 = DIRECTION('',(0.,0.,-1.));
#1006 = ORIENTED_EDGE('',*,*,#1007,.T.);
#1007 = EDGE_CURVE('',#1000,#1008,#1010,.T.);
#1008 = VERTEX_POINT('',#1009);
#1009 = CARTESIAN_POINT('',(1.25,1.7,-0.8));
#1010 = LINE('',#1011,#1012);
#1011 = CARTESIAN_POINT('',(1.25,1.8,-0.8));
#1012 = VECTOR('',#1013,1.);
#1013 = DIRECTION('',(0.,1.,-0.));
#1014 = ORIENTED_EDGE('',*,*,#1015,.T.);
#1015 = EDGE_CURVE('',#1008,#990,#1016,.T.);
#1016 = LINE('',#1017,#1018);
#1017 = CARTESIAN_POINT('',(1.25,1.7,0.9));
#1018 = VECTOR('',#1019,1.);
#1019 = DIRECTION('',(-0.,0.,1.));
#1020 = PLANE('',#1021);
#1021 = AXIS2_PLACEMENT_3D('',#1022,#1023,#1024);
#1022 = CARTESIAN_POINT('',(1.25,0.,0.));
#1023 = DIRECTION('',(1.,0.,0.));
#1024 = DIRECTION('',(0.,0.,-1.));
#1025 = ADVANCED_FACE('',(#1026),#1060,.F.);
#1026 = FACE_BOUND('',#1027,.T.);
#1027 = EDGE_LOOP('',(#1028,#1029,#1036,#1037,#1044,#1045,#1052,#1053));
#1028 = ORIENTED_EDGE('',*,*,#967,.F.);
#1029 = ORIENTED_EDGE('',*,*,#1030,.T.);
#1030 = EDGE_CURVE('',#960,#912,#1031,.T.);
#1031 = CIRCLE('',#1032,0.1);
#1032 = AXIS2_PLACEMENT_3D('',#1033,#1034,#1035);
#1033 = CARTESIAN_POINT('',(0.75,1.7,-0.8));
#1034 = DIRECTION('',(-1.,-0.,-0.));
#1035 = DIRECTION('',(0.,0.,-1.));
#1036 = ORIENTED_EDGE('',*,*,#909,.F.);
#1037 = ORIENTED_EDGE('',*,*,#1038,.T.);
#1038 = EDGE_CURVE('',#910,#872,#1039,.T.);
#1039 = CIRCLE('',#1040,0.1);
#1040 = AXIS2_PLACEMENT_3D('',#1041,#1042,#1043);
#1041 = CARTESIAN_POINT('',(0.75,0.1,-0.8));
#1042 = DIRECTION('',(-1.,-0.,-0.));
#1043 = DIRECTION('',(0.,0.,-1.));
#1044 = ORIENTED_EDGE('',*,*,#869,.F.);
#1045 = ORIENTED_EDGE('',*,*,#1046,.T.);
#1046 = EDGE_CURVE('',#870,#832,#1047,.T.);
#1047 = CIRCLE('',#1048,0.1);
#1048 = AXIS2_PLACEMENT_3D('',#1049,#1050,#1051);
#1049 = CARTESIAN_POINT('',(0.75,0.1,0.8));
#1050 = DIRECTION('',(-1.,-0.,-0.));
#1051 = DIRECTION('',(0.,0.,-1.));
#1052 = ORIENTED_EDGE('',*,*,#829,.F.);
#1053 = ORIENTED_EDGE('',*,*,#1054,.T.);
#1054 = EDGE_CURVE('',#830,#968,#1055,.T.);
#1055 = CIRCLE('',#1056,0.1);
#1056 = AXIS2_PLACEMENT_3D('',#1057,#1058,#1059);
#1057 = CARTESIAN_POINT('',(0.75,1.7,0.8));
#1058 = DIRECTION('',(-1.,-0.,-0.));
#1059 = DIRECTION('',(0.,0.,-1.));
#1060 = PLANE('',#1061);
#1061 = AXIS2_PLACEMENT_3D('',#1062,#1063,#1064);
#1062 = CARTESIAN_POINT('',(0.75,0.,0.));
#1063 = DIRECTION('',(1.,0.,0.));
#1064 = DIRECTION('',(0.,0.,-1.));
#1065 = ADVANCED_FACE('',(#1066),#1078,.T.);
#1066 = FACE_BOUND('',#1067,.T.);
#1067 = EDGE_LOOP('',(#1068,#1075,#1076,#1077));
#1068 = ORIENTED_EDGE('',*,*,#1069,.F.);
#1069 = EDGE_CURVE('',#840,#888,#1070,.T.);
#1070 = CIRCLE('',#1071,0.1);
#1071 = AXIS2_PLACEMENT_3D('',#1072,#1073,#1074);
#1072 = CARTESIAN_POINT('',(1.15,0.1,0.8));
#1073 = DIRECTION('',(1.,0.,0.));
#1074 = DIRECTION('',(0.,-0.,-1.));
#1075 = ORIENTED_EDGE('',*,*,#839,.F.);
#1076 = ORIENTED_EDGE('',*,*,#1046,.F.);
#1077 = ORIENTED_EDGE('',*,*,#895,.F.);
#1078 = CYLINDRICAL_SURFACE('',#1079,0.1);
#1079 = AXIS2_PLACEMENT_3D('',#1080,#1081,#1082);
#1080 = CARTESIAN_POINT('',(1.25,0.1,0.8));
#1081 = DIRECTION('',(-1.,0.,0.));
#1082 = DIRECTION('',(0.,0.,1.));
#1083 = ADVANCED_FACE('',(#1084),#1101,.T.);
#1084 = FACE_BOUND('',#1085,.T.);
#1085 = EDGE_LOOP('',(#1086,#1093,#1094));
#1086 = ORIENTED_EDGE('',*,*,#1087,.F.);
#1087 = EDGE_CURVE('',#840,#992,#1088,.T.);
#1088 = CIRCLE('',#1089,0.1);
#1089 = AXIS2_PLACEMENT_3D('',#1090,#1091,#1092);
#1090 = CARTESIAN_POINT('',(1.15,0.1,0.8));
#1091 = DIRECTION('',(-0.,1.,0.));
#1092 = DIRECTION('',(0.,0.,-1.));
#1093 = ORIENTED_EDGE('',*,*,#1069,.T.);
#1094 = ORIENTED_EDGE('',*,*,#1095,.F.);
#1095 = EDGE_CURVE('',#992,#888,#1096,.T.);
#1096 = CIRCLE('',#1097,0.1);
#1097 = AXIS2_PLACEMENT_3D('',#1098,#1099,#1100);
#1098 = CARTESIAN_POINT('',(1.15,0.1,0.8));
#1099 = DIRECTION('',(0.,0.,-1.));
#1100 = DIRECTION('',(1.,0.,0.));
#1101 = SPHERICAL_SURFACE('',#1102,0.1);
#1102 = AXIS2_PLACEMENT_3D('',#1103,#1104,#1105);
#1103 = CARTESIAN_POINT('',(1.15,0.1,0.8));
#1104 = DIRECTION('',(0.,1.,0.));
#1105 = DIRECTION('',(1.,0.,0.));
#1106 = ADVANCED_FACE('',(#1107),#1119,.T.);
#1107 = FACE_BOUND('',#1108,.T.);
#1108 = EDGE_LOOP('',(#1109,#1110,#1111,#1118));
#1109 = ORIENTED_EDGE('',*,*,#1038,.F.);
#1110 = ORIENTED_EDGE('',*,*,#935,.F.);
#1111 = ORIENTED_EDGE('',*,*,#1112,.F.);
#1112 = EDGE_CURVE('',#880,#928,#1113,.T.);
#1113 = CIRCLE('',#1114,0.1);
#1114 = AXIS2_PLACEMENT_3D('',#1115,#1116,#1117);
#1115 = CARTESIAN_POINT('',(1.15,0.1,-0.8));
#1116 = DIRECTION('',(1.,0.,0.));
#1117 = DIRECTION('',(0.,0.,-1.));
#1118 = ORIENTED_EDGE('',*,*,#879,.F.);
#1119 = CYLINDRICAL_SURFACE('',#1120,0.1);
#1120 = AXIS2_PLACEMENT_3D('',#1121,#1122,#1123);
#1121 = CARTESIAN_POINT('',(1.25,0.1,-0.8));
#1122 = DIRECTION('',(-1.,0.,0.));
#1123 = DIRECTION('',(0.,0.,1.));
#1124 = ADVANCED_FACE('',(#1125),#1137,.T.);
#1125 = FACE_BOUND('',#1126,.T.);
#1126 = EDGE_LOOP('',(#1127,#1128,#1129,#1136));
#1127 = ORIENTED_EDGE('',*,*,#1095,.T.);
#1128 = ORIENTED_EDGE('',*,*,#887,.F.);
#1129 = ORIENTED_EDGE('',*,*,#1130,.F.);
#1130 = EDGE_CURVE('',#1000,#880,#1131,.T.);
#1131 = CIRCLE('',#1132,0.1);
#1132 = AXIS2_PLACEMENT_3D('',#1133,#1134,#1135);
#1133 = CARTESIAN_POINT('',(1.15,0.1,-0.8));
#1134 = DIRECTION('',(0.,0.,-1.));
#1135 = DIRECTION('',(-1.,0.,0.));
#1136 = ORIENTED_EDGE('',*,*,#999,.F.);
#1137 = CYLINDRICAL_SURFACE('',#1138,0.1);
#1138 = AXIS2_PLACEMENT_3D('',#1139,#1140,#1141);
#1139 = CARTESIAN_POINT('',(1.15,0.1,0.));
#1140 = DIRECTION('',(0.,-0.,1.));
#1141 = DIRECTION('',(1.,0.,0.));
#1142 = ADVANCED_FACE('',(#1143),#1155,.T.);
#1143 = FACE_BOUND('',#1144,.T.);
#1144 = EDGE_LOOP('',(#1145,#1146,#1147,#1154));
#1145 = ORIENTED_EDGE('',*,*,#1087,.T.);
#1146 = ORIENTED_EDGE('',*,*,#989,.F.);
#1147 = ORIENTED_EDGE('',*,*,#1148,.F.);
#1148 = EDGE_CURVE('',#848,#990,#1149,.T.);
#1149 = CIRCLE('',#1150,0.1);
#1150 = AXIS2_PLACEMENT_3D('',#1151,#1152,#1153);
#1151 = CARTESIAN_POINT('',(1.15,1.7,0.8));
#1152 = DIRECTION('',(0.,1.,0.));
#1153 = DIRECTION('',(0.,-0.,1.));
#1154 = ORIENTED_EDGE('',*,*,#847,.F.);
#1155 = CYLINDRICAL_SURFACE('',#1156,0.1);
#1156 = AXIS2_PLACEMENT_3D('',#1157,#1158,#1159);
#1157 = CARTESIAN_POINT('',(1.15,0.,0.8));
#1158 = DIRECTION('',(-0.,1.,0.));
#1159 = DIRECTION('',(0.,0.,1.));
#1160 = ADVANCED_FACE('',(#1161),#1173,.T.);
#1161 = FACE_BOUND('',#1162,.T.);
#1162 = EDGE_LOOP('',(#1163,#1164,#1165,#1172));
#1163 = ORIENTED_EDGE('',*,*,#1054,.F.);
#1164 = ORIENTED_EDGE('',*,*,#855,.F.);
#1165 = ORIENTED_EDGE('',*,*,#1166,.F.);
#1166 = EDGE_CURVE('',#950,#848,#1167,.T.);
#1167 = CIRCLE('',#1168,0.1);
#1168 = AXIS2_PLACEMENT_3D('',#1169,#1170,#1171);
#1169 = CARTESIAN_POINT('',(1.15,1.7,0.8));
#1170 = DIRECTION('',(1.,0.,0.));
#1171 = DIRECTION('',(0.,0.,-1.));
#1172 = ORIENTED_EDGE('',*,*,#975,.F.);
#1173 = CYLINDRICAL_SURFACE('',#1174,0.1);
#1174 = AXIS2_PLACEMENT_3D('',#1175,#1176,#1177);
#1175 = CARTESIAN_POINT('',(1.25,1.7,0.8));
#1176 = DIRECTION('',(-1.,0.,0.));
#1177 = DIRECTION('',(0.,0.,1.));
#1178 = ADVANCED_FACE('',(#1179),#1190,.T.);
#1179 = FACE_BOUND('',#1180,.T.);
#1180 = EDGE_LOOP('',(#1181,#1182,#1183));
#1181 = ORIENTED_EDGE('',*,*,#1130,.T.);
#1182 = ORIENTED_EDGE('',*,*,#1112,.T.);
#1183 = ORIENTED_EDGE('',*,*,#1184,.F.);
#1184 = EDGE_CURVE('',#1000,#928,#1185,.T.);
#1185 = CIRCLE('',#1186,0.1);
#1186 = AXIS2_PLACEMENT_3D('',#1187,#1188,#1189);
#1187 = CARTESIAN_POINT('',(1.15,0.1,-0.8));
#1188 = DIRECTION('',(4.065758146821E-16,1.,0.));
#1189 = DIRECTION('',(1.,-4.065758146821E-16,0.));
#1190 = SPHERICAL_SURFACE('',#1191,0.1);
#1191 = AXIS2_PLACEMENT_3D('',#1192,#1193,#1194);
#1192 = CARTESIAN_POINT('',(1.15,0.1,-0.8));
#1193 = DIRECTION('',(0.,1.,0.));
#1194 = DIRECTION('',(1.,0.,0.));
#1195 = ADVANCED_FACE('',(#1196),#1207,.T.);
#1196 = FACE_BOUND('',#1197,.T.);
#1197 = EDGE_LOOP('',(#1198,#1199,#1200));
#1198 = ORIENTED_EDGE('',*,*,#1166,.T.);
#1199 = ORIENTED_EDGE('',*,*,#1148,.T.);
#1200 = ORIENTED_EDGE('',*,*,#1201,.F.);
#1201 = EDGE_CURVE('',#950,#990,#1202,.T.);
#1202 = CIRCLE('',#1203,0.1);
#1203 = AXIS2_PLACEMENT_3D('',#1204,#1205,#1206);
#1204 = CARTESIAN_POINT('',(1.15,1.7,0.8));
#1205 = DIRECTION('',(0.,0.,-1.));
#1206 = DIRECTION('',(1.,0.,0.));
#1207 = SPHERICAL_SURFACE('',#1208,0.1);
#1208 = AXIS2_PLACEMENT_3D('',#1209,#1210,#1211);
#1209 = CARTESIAN_POINT('',(1.15,1.7,0.8));
#1210 = DIRECTION('',(0.,1.,0.));
#1211 = DIRECTION('',(1.,0.,0.));
#1212 = ADVANCED_FACE('',(#1213),#1225,.T.);
#1213 = FACE_BOUND('',#1214,.T.);
#1214 = EDGE_LOOP('',(#1215,#1216,#1217,#1224));
#1215 = ORIENTED_EDGE('',*,*,#1184,.T.);
#1216 = ORIENTED_EDGE('',*,*,#927,.F.);
#1217 = ORIENTED_EDGE('',*,*,#1218,.F.);
#1218 = EDGE_CURVE('',#1008,#920,#1219,.T.);
#1219 = CIRCLE('',#1220,0.1);
#1220 = AXIS2_PLACEMENT_3D('',#1221,#1222,#1223);
#1221 = CARTESIAN_POINT('',(1.15,1.7,-0.8));
#1222 = DIRECTION('',(-0.,1.,0.));
#1223 = DIRECTION('',(0.,0.,1.));
#1224 = ORIENTED_EDGE('',*,*,#1007,.F.);
#1225 = CYLINDRICAL_SURFACE('',#1226,0.1);
#1226 = AXIS2_PLACEMENT_3D('',#1227,#1228,#1229);
#1227 = CARTESIAN_POINT('',(1.15,0.,-0.8));
#1228 = DIRECTION('',(0.,-1.,0.));
#1229 = DIRECTION('',(0.,0.,-1.));
#1230 = ADVANCED_FACE('',(#1231),#1243,.T.);
#1231 = FACE_BOUND('',#1232,.T.);
#1232 = EDGE_LOOP('',(#1233,#1234,#1235,#1242));
#1233 = ORIENTED_EDGE('',*,*,#1201,.T.);
#1234 = ORIENTED_EDGE('',*,*,#1015,.F.);
#1235 = ORIENTED_EDGE('',*,*,#1236,.F.);
#1236 = EDGE_CURVE('',#952,#1008,#1237,.T.);
#1237 = CIRCLE('',#1238,0.1);
#1238 = AXIS2_PLACEMENT_3D('',#1239,#1240,#1241);
#1239 = CARTESIAN_POINT('',(1.15,1.7,-0.8));
#1240 = DIRECTION('',(0.,0.,-1.));
#1241 = DIRECTION('',(-1.,0.,0.));
#1242 = ORIENTED_EDGE('',*,*,#949,.F.);
#1243 = CYLINDRICAL_SURFACE('',#1244,0.1);
#1244 = AXIS2_PLACEMENT_3D('',#1245,#1246,#1247);
#1245 = CARTESIAN_POINT('',(1.15,1.7,0.));
#1246 = DIRECTION('',(0.,0.,-1.));
#1247 = DIRECTION('',(-1.,0.,0.));
#1248 = ADVANCED_FACE('',(#1249),#1260,.T.);
#1249 = FACE_BOUND('',#1250,.T.);
#1250 = EDGE_LOOP('',(#1251,#1252,#1253));
#1251 = ORIENTED_EDGE('',*,*,#1236,.T.);
#1252 = ORIENTED_EDGE('',*,*,#1218,.T.);
#1253 = ORIENTED_EDGE('',*,*,#1254,.F.);
#1254 = EDGE_CURVE('',#952,#920,#1255,.T.);
#1255 = CIRCLE('',#1256,0.1);
#1256 = AXIS2_PLACEMENT_3D('',#1257,#1258,#1259);
#1257 = CARTESIAN_POINT('',(1.15,1.7,-0.8));
#1258 = DIRECTION('',(-1.,0.,-0.));
#1259 = DIRECTION('',(0.,0.,-1.));
#1260 = SPHERICAL_SURFACE('',#1261,0.1);
#1261 = AXIS2_PLACEMENT_3D('',#1262,#1263,#1264);
#1262 = CARTESIAN_POINT('',(1.15,1.7,-0.8));
#1263 = DIRECTION('',(0.,1.,0.));
#1264 = DIRECTION('',(1.,0.,0.));
#1265 = ADVANCED_FACE('',(#1266),#1272,.T.);
#1266 = FACE_BOUND('',#1267,.T.);
#1267 = EDGE_LOOP('',(#1268,#1269,#1270,#1271));
#1268 = ORIENTED_EDGE('',*,*,#1254,.T.);
#1269 = ORIENTED_EDGE('',*,*,#919,.F.);
#1270 = ORIENTED_EDGE('',*,*,#1030,.F.);
#1271 = ORIENTED_EDGE('',*,*,#959,.F.);
#1272 = CYLINDRICAL_SURFACE('',#1273,0.1);
#1273 = AXIS2_PLACEMENT_3D('',#1274,#1275,#1276);
#1274 = CARTESIAN_POINT('',(1.25,1.7,-0.8));
#1275 = DIRECTION('',(-1.,0.,0.));
#1276 = DIRECTION('',(0.,0.,1.));
#1277 = ( GEOMETRIC_REPRESENTATION_CONTEXT(3) 
GLOBAL_UNCERTAINTY_ASSIGNED_CONTEXT((#1281)) 
GLOBAL_UNIT_ASSIGNED_CONTEXT((#1278,#1279,#1280)) REPRESENTATION_CONTEXT
('Context #1','3D Context with UNIT and UNCERTAINTY') );
#1278 = ( LENGTH_UNIT() NAMED_UNIT(*) SI_UNIT(.MILLI.,.METRE.) );
#1279 = ( NAMED_UNIT(*) PLANE_ANGLE_UNIT() SI_UNIT($,.RADIAN.) );
#1280 = ( NAMED_UNIT(*) SI_UNIT($,.STERADIAN.) SOLID_ANGLE_UNIT() );
#1281 = UNCERTAINTY_MEASURE_WITH_UNIT(LENGTH_MEASURE(1.E-07),#1278,
  'distance_accuracy_value','confusion accuracy');
#1282 = CONTEXT_DEPENDENT_SHAPE_REPRESENTATION(#1283,#1285);
#1283 = ( REPRESENTATION_RELATIONSHIP('','',#822,#10) 
REPRESENTATION_RELATIONSHIP_WITH_TRANSFORMATION(#1284) 
SHAPE_REPRESENTATION_RELATIONSHIP() );
#1284 = ITEM_DEFINED_TRANSFORMATION('','',#11,#23);
#1285 = PRODUCT_DEFINITION_SHAPE('Placement','Placement of an item',
  #1286);
#1286 = NEXT_ASSEMBLY_USAGE_OCCURRENCE('3','=>[0:1:1:3]','',#5,#817,$);
#1287 = PRODUCT_RELATED_PRODUCT_CATEGORY('part',$,(#819));
#1288 = MECHANICAL_DESIGN_GEOMETRIC_PRESENTATION_REPRESENTATION('',(
    #1289,#1297,#1304,#1311,#1318,#1325,#1332,#1339,#1346,#1353,#1360,
    #1367,#1374,#1381,#1388,#1395,#1402,#1409),#1277);
#1289 = STYLED_ITEM('color',(#1290),#825);
#1290 = PRESENTATION_STYLE_ASSIGNMENT((#1291));
#1291 = SURFACE_STYLE_USAGE(.BOTH.,#1292);
#1292 = SURFACE_SIDE_STYLE('',(#1293));
#1293 = SURFACE_STYLE_FILL_AREA(#1294);
#1294 = FILL_AREA_STYLE('',(#1295));
#1295 = FILL_AREA_STYLE_COLOUR('',#1296);
#1296 = COLOUR_RGB('',0.752941202324,0.752941202324,0.752941202324);
#1297 = STYLED_ITEM('color',(#1298),#865);
#1298 = PRESENTATION_STYLE_ASSIGNMENT((#1299));
#1299 = SURFACE_STYLE_USAGE(.BOTH.,#1300);
#1300 = SURFACE_SIDE_STYLE('',(#1301));
#1301 = SURFACE_STYLE_FILL_AREA(#1302);
#1302 = FILL_AREA_STYLE('',(#1303));
#1303 = FILL_AREA_STYLE_COLOUR('',#1296);
#1304 = STYLED_ITEM('color',(#1305),#905);
#1305 = PRESENTATION_STYLE_ASSIGNMENT((#1306));
#1306 = SURFACE_STYLE_USAGE(.BOTH.,#1307);
#1307 = SURFACE_SIDE_STYLE('',(#1308));
#1308 = SURFACE_STYLE_FILL_AREA(#1309);
#1309 = FILL_AREA_STYLE('',(#1310));
#1310 = FILL_AREA_STYLE_COLOUR('',#1296);
#1311 = STYLED_ITEM('color',(#1312),#945);
#1312 = PRESENTATION_STYLE_ASSIGNMENT((#1313));
#1313 = SURFACE_STYLE_USAGE(.BOTH.,#1314);
#1314 = SURFACE_SIDE_STYLE('',(#1315));
#1315 = SURFACE_STYLE_FILL_AREA(#1316);
#1316 = FILL_AREA_STYLE('',(#1317));
#1317 = FILL_AREA_STYLE_COLOUR('',#1296);
#1318 = STYLED_ITEM('color',(#1319),#985);
#1319 = PRESENTATION_STYLE_ASSIGNMENT((#1320));
#1320 = SURFACE_STYLE_USAGE(.BOTH.,#1321);
#1321 = SURFACE_SIDE_STYLE('',(#1322));
#1322 = SURFACE_STYLE_FILL_AREA(#1323);
#1323 = FILL_AREA_STYLE('',(#1324));
#1324 = FILL_AREA_STYLE_COLOUR('',#1296);
#1325 = STYLED_ITEM('color',(#1326),#1025);
#1326 = PRESENTATION_STYLE_ASSIGNMENT((#1327));
#1327 = SURFACE_STYLE_USAGE(.BOTH.,#1328);
#1328 = SURFACE_SIDE_STYLE('',(#1329));
#1329 = SURFACE_STYLE_FILL_AREA(#1330);
#1330 = FILL_AREA_STYLE('',(#1331));
#1331 = FILL_AREA_STYLE_COLOUR('',#1296);
#1332 = STYLED_ITEM('color',(#1333),#1065);
#1333 = PRESENTATION_STYLE_ASSIGNMENT((#1334));
#1334 = SURFACE_STYLE_USAGE(.BOTH.,#1335);
#1335 = SURFACE_SIDE_STYLE('',(#1336));
#1336 = SURFACE_STYLE_FILL_AREA(#1337);
#1337 = FILL_AREA_STYLE('',(#1338));
#1338 = FILL_AREA_STYLE_COLOUR('',#1296);
#1339 = STYLED_ITEM('color',(#1340),#1083);
#1340 = PRESENTATION_STYLE_ASSIGNMENT((#1341));
#1341 = SURFACE_STYLE_USAGE(.BOTH.,#1342);
#1342 = SURFACE_SIDE_STYLE('',(#1343));
#1343 = SURFACE_STYLE_FILL_AREA(#1344);
#1344 = FILL_AREA_STYLE('',(#1345));
#1345 = FILL_AREA_STYLE_COLOUR('',#1296);
#1346 = STYLED_ITEM('color',(#1347),#1106);
#1347 = PRESENTATION_STYLE_ASSIGNMENT((#1348));
#1348 = SURFACE_STYLE_USAGE(.BOTH.,#1349);
#1349 = SURFACE_SIDE_STYLE('',(#1350));
#1350 = SURFACE_STYLE_FILL_AREA(#1351);
#1351 = FILL_AREA_STYLE('',(#1352));
#1352 = FILL_AREA_STYLE_COLOUR('',#1296);
#1353 = STYLED_ITEM('color',(#1354),#1124);
#1354 = PRESENTATION_STYLE_ASSIGNMENT((#1355));
#1355 = SURFACE_STYLE_USAGE(.BOTH.,#1356);
#1356 = SURFACE_SIDE_STYLE('',(#1357));
#1357 = SURFACE_STYLE_FILL_AREA(#1358);
#1358 = FILL_AREA_STYLE('',(#1359));
#1359 = FILL_AREA_STYLE_COLOUR('',#1296);
#1360 = STYLED_ITEM('color',(#1361),#1142);
#1361 = PRESENTATION_STYLE_ASSIGNMENT((#1362));
#1362 = SURFACE_STYLE_USAGE(.BOTH.,#1363);
#1363 = SURFACE_SIDE_STYLE('',(#1364));
#1364 = SURFACE_STYLE_FILL_AREA(#1365);
#1365 = FILL_AREA_STYLE('',(#1366));
#1366 = FILL_AREA_STYLE_COLOUR('',#1296);
#1367 = STYLED_ITEM('color',(#1368),#1160);
#1368 = PRESENTATION_STYLE_ASSIGNMENT((#1369));
#1369 = SURFACE_STYLE_USAGE(.BOTH.,#1370);
#1370 = SURFACE_SIDE_STYLE('',(#1371));
#1371 = SURFACE_STYLE_FILL_AREA(#1372);
#1372 = FILL_AREA_STYLE('',(#1373));
#1373 = FILL_AREA_STYLE_COLOUR('',#1296);
#1374 = STYLED_ITEM('color',(#1375),#1178);
#1375 = PRESENTATION_STYLE_ASSIGNMENT((#1376));
#1376 = SURFACE_STYLE_USAGE(.BOTH.,#1377);
#1377 = SURFACE_SIDE_STYLE('',(#1378));
#1378 = SURFACE_STYLE_FILL_AREA(#1379);
#1379 = FILL_AREA_STYLE('',(#1380));
#1380 = FILL_AREA_STYLE_COLOUR('',#1296);
#1381 = STYLED_ITEM('color',(#1382),#1195);
#1382 = PRESENTATION_STYLE_ASSIGNMENT((#1383));
#1383 = SURFACE_STYLE_USAGE(.BOTH.,#1384);
#1384 = SURFACE_SIDE_STYLE('',(#1385));
#1385 = SURFACE_STYLE_FILL_AREA(#1386);
#1386 = FILL_AREA_STYLE('',(#1387));
#1387 = FILL_AREA_STYLE_COLOUR('',#1296);
#1388 = STYLED_ITEM('color',(#1389),#1212);
#1389 = PRESENTATION_STYLE_ASSIGNMENT((#1390));
#1390 = SURFACE_STYLE_USAGE(.BOTH.,#1391);
#1391 = SURFACE_SIDE_STYLE('',(#1392));
#1392 = SURFACE_STYLE_FILL_AREA(#1393);
#1393 = FILL_AREA_STYLE('',(#1394));
#1394 = FILL_AREA_STYLE_COLOUR('',#1296);
#1395 = STYLED_ITEM('color',(#1396),#1230);
#1396 = PRESENTATION_STYLE_ASSIGNMENT((#1397));
#1397 = SURFACE_STYLE_USAGE(.BOTH.,#1398);
#1398 = SURFACE_SIDE_STYLE('',(#1399));
#1399 = SURFACE_STYLE_FILL_AREA(#1400);
#1400 = FILL_AREA_STYLE('',(#1401));
#1401 = FILL_AREA_STYLE_COLOUR('',#1296);
#1402 = STYLED_ITEM('color',(#1403),#1248);
#1403 = PRESENTATION_STYLE_ASSIGNMENT((#1404));
#1404 = SURFACE_STYLE_USAGE(.BOTH.,#1405);
#1405 = SURFACE_SIDE_STYLE('',(#1406));
#1406 = SURFACE_STYLE_FILL_AREA(#1407);
#1407 = FILL_AREA_STYLE('',(#1408));
#1408 = FILL_AREA_STYLE_COLOUR('',#1296);
#1409 = STYLED_ITEM('color',(#1410),#1265);
#1410 = PRESENTATION_STYLE_ASSIGNMENT((#1411));
#1411 = SURFACE_STYLE_USAGE(.BOTH.,#1412);
#1412 = SURFACE_SIDE_STYLE('',(#1413));
#1413 = SURFACE_STYLE_FILL_AREA(#1414);
#1414 = FILL_AREA_STYLE('',(#1415));
#1415 = FILL_AREA_STYLE_COLOUR('',#1296);
#1416 = MECHANICAL_DESIGN_GEOMETRIC_PRESENTATION_REPRESENTATION('',(
    #1417,#1425,#1432,#1439,#1446,#1453,#1460,#1467,#1474,#1481),#331);
#1417 = STYLED_ITEM('color',(#1418),#43);
#1418 = PRESENTATION_STYLE_ASSIGNMENT((#1419));
#1419 = SURFACE_STYLE_USAGE(.BOTH.,#1420);
#1420 = SURFACE_SIDE_STYLE('',(#1421));
#1421 = SURFACE_STYLE_FILL_AREA(#1422);
#1422 = FILL_AREA_STYLE('',(#1423));
#1423 = FILL_AREA_STYLE_COLOUR('',#1424);
#1424 = COLOUR_RGB('',0.25098037884,0.25098037884,0.25098037884);
#1425 = STYLED_ITEM('color',(#1426),#119);
#1426 = PRESENTATION_STYLE_ASSIGNMENT((#1427));
#1427 = SURFACE_STYLE_USAGE(.BOTH.,#1428);
#1428 = SURFACE_SIDE_STYLE('',(#1429));
#1429 = SURFACE_STYLE_FILL_AREA(#1430);
#1430 = FILL_AREA_STYLE('',(#1431));
#1431 = FILL_AREA_STYLE_COLOUR('',#1424);
#1432 = STYLED_ITEM('color',(#1433),#150);
#1433 = PRESENTATION_STYLE_ASSIGNMENT((#1434));
#1434 = SURFACE_STYLE_USAGE(.BOTH.,#1435);
#1435 = SURFACE_SIDE_STYLE('',(#1436));
#1436 = SURFACE_STYLE_FILL_AREA(#1437);
#1437 = FILL_AREA_STYLE('',(#1438));
#1438 = FILL_AREA_STYLE_COLOUR('',#1424);
#1439 = STYLED_ITEM('color',(#1440),#217);
#1440 = PRESENTATION_STYLE_ASSIGNMENT((#1441));
#1441 = SURFACE_STYLE_USAGE(.BOTH.,#1442);
#1442 = SURFACE_SIDE_STYLE('',(#1443));
#1443 = SURFACE_STYLE_FILL_AREA(#1444);
#1444 = FILL_AREA_STYLE('',(#1445));
#1445 = FILL_AREA_STYLE_COLOUR('',#1424);
#1446 = STYLED_ITEM('color',(#1447),#239);
#1447 = PRESENTATION_STYLE_ASSIGNMENT((#1448));
#1448 = SURFACE_STYLE_USAGE(.BOTH.,#1449);
#1449 = SURFACE_SIDE_STYLE('',(#1450));
#1450 = SURFACE_STYLE_FILL_AREA(#1451);
#1451 = FILL_AREA_STYLE('',(#1452));
#1452 = FILL_AREA_STYLE_COLOUR('',#1424);
#1453 = STYLED_ITEM('color',(#1454),#261);
#1454 = PRESENTATION_STYLE_ASSIGNMENT((#1455));
#1455 = SURFACE_STYLE_USAGE(.BOTH.,#1456);
#1456 = SURFACE_SIDE_STYLE('',(#1457));
#1457 = SURFACE_STYLE_FILL_AREA(#1458);
#1458 = FILL_AREA_STYLE('',(#1459));
#1459 = FILL_AREA_STYLE_COLOUR('',#1424);
#1460 = STYLED_ITEM('color',(#1461),#283);
#1461 = PRESENTATION_STYLE_ASSIGNMENT((#1462));
#1462 = SURFACE_STYLE_USAGE(.BOTH.,#1463);
#1463 = SURFACE_SIDE_STYLE('',(#1464));
#1464 = SURFACE_STYLE_FILL_AREA(#1465);
#1465 = FILL_AREA_STYLE('',(#1466));
#1466 = FILL_AREA_STYLE_COLOUR('',#1424);
#1467 = STYLED_ITEM('color',(#1468),#295);
#1468 = PRESENTATION_STYLE_ASSIGNMENT((#1469));
#1469 = SURFACE_STYLE_USAGE(.BOTH.,#1470);
#1470 = SURFACE_SIDE_STYLE('',(#1471));
#1471 = SURFACE_STYLE_FILL_AREA(#1472);
#1472 = FILL_AREA_STYLE('',(#1473));
#1473 = FILL_AREA_STYLE_COLOUR('',#1424);
#1474 = STYLED_ITEM('color',(#1475),#307);
#1475 = PRESENTATION_STYLE_ASSIGNMENT((#1476));
#1476 = SURFACE_STYLE_USAGE(.BOTH.,#1477);
#1477 = SURFACE_SIDE_STYLE('',(#1478));
#1478 = SURFACE_STYLE_FILL_AREA(#1479);
#1479 = FILL_AREA_STYLE('',(#1480));
#1480 = FILL_AREA_STYLE_COLOUR('',#1424);
#1481 = STYLED_ITEM('color',(#1482),#319);
#1482 = PRESENTATION_STYLE_ASSIGNMENT((#1483));
#1483 = SURFACE_STYLE_USAGE(.BOTH.,#1484);
#1484 = SURFACE_SIDE_STYLE('',(#1485));
#1485 = SURFACE_STYLE_FILL_AREA(#1486);
#1486 = FILL_AREA_STYLE('',(#1487));
#1487 = FILL_AREA_STYLE_COLOUR('',#1424);
#1488 = MECHANICAL_DESIGN_GEOMETRIC_PRESENTATION_REPRESENTATION('',(
    #1489,#1496,#1503,#1510,#1517,#1524,#1531,#1538,#1545,#1552,#1559,
    #1566,#1573,#1580,#1587,#1594,#1601,#1608),#804);
#1489 = STYLED_ITEM('color',(#1490),#352);
#1490 = PRESENTATION_STYLE_ASSIGNMENT((#1491));
#1491 = SURFACE_STYLE_USAGE(.BOTH.,#1492);
#1492 = SURFACE_SIDE_STYLE('',(#1493));
#1493 = SURFACE_STYLE_FILL_AREA(#1494);
#1494 = FILL_AREA_STYLE('',(#1495));
#1495 = FILL_AREA_STYLE_COLOUR('',#1296);
#1496 = STYLED_ITEM('color',(#1497),#392);
#1497 = PRESENTATION_STYLE_ASSIGNMENT((#1498));
#1498 = SURFACE_STYLE_USAGE(.BOTH.,#1499);
#1499 = SURFACE_SIDE_STYLE('',(#1500));
#1500 = SURFACE_STYLE_FILL_AREA(#1501);
#1501 = FILL_AREA_STYLE('',(#1502));
#1502 = FILL_AREA_STYLE_COLOUR('',#1296);
#1503 = STYLED_ITEM('color',(#1504),#432);
#1504 = PRESENTATION_STYLE_ASSIGNMENT((#1505));
#1505 = SURFACE_STYLE_USAGE(.BOTH.,#1506);
#1506 = SURFACE_SIDE_STYLE('',(#1507));
#1507 = SURFACE_STYLE_FILL_AREA(#1508);
#1508 = FILL_AREA_STYLE('',(#1509));
#1509 = FILL_AREA_STYLE_COLOUR('',#1296);
#1510 = STYLED_ITEM('color',(#1511),#472);
#1511 = PRESENTATION_STYLE_ASSIGNMENT((#1512));
#1512 = SURFACE_STYLE_USAGE(.BOTH.,#1513);
#1513 = SURFACE_SIDE_STYLE('',(#1514));
#1514 = SURFACE_STYLE_FILL_AREA(#1515);
#1515 = FILL_AREA_STYLE('',(#1516));
#1516 = FILL_AREA_STYLE_COLOUR('',#1296);
#1517 = STYLED_ITEM('color',(#1518),#512);
#1518 = PRESENTATION_STYLE_ASSIGNMENT((#1519));
#1519 = SURFACE_STYLE_USAGE(.BOTH.,#1520);
#1520 = SURFACE_SIDE_STYLE('',(#1521));
#1521 = SURFACE_STYLE_FILL_AREA(#1522);
#1522 = FILL_AREA_STYLE('',(#1523));
#1523 = FILL_AREA_STYLE_COLOUR('',#1296);
#1524 = STYLED_ITEM('color',(#1525),#552);
#1525 = PRESENTATION_STYLE_ASSIGNMENT((#1526));
#1526 = SURFACE_STYLE_USAGE(.BOTH.,#1527);
#1527 = SURFACE_SIDE_STYLE('',(#1528));
#1528 = SURFACE_STYLE_FILL_AREA(#1529);
#1529 = FILL_AREA_STYLE('',(#1530));
#1530 = FILL_AREA_STYLE_COLOUR('',#1296);
#1531 = STYLED_ITEM('color',(#1532),#592);
#1532 = PRESENTATION_STYLE_ASSIGNMENT((#1533));
#1533 = SURFACE_STYLE_USAGE(.BOTH.,#1534);
#1534 = SURFACE_SIDE_STYLE('',(#1535));
#1535 = SURFACE_STYLE_FILL_AREA(#1536);
#1536 = FILL_AREA_STYLE('',(#1537));
#1537 = FILL_AREA_STYLE_COLOUR('',#1296);
#1538 = STYLED_ITEM('color',(#1539),#610);
#1539 = PRESENTATION_STYLE_ASSIGNMENT((#1540));
#1540 = SURFACE_STYLE_USAGE(.BOTH.,#1541);
#1541 = SURFACE_SIDE_STYLE('',(#1542));
#1542 = SURFACE_STYLE_FILL_AREA(#1543);
#1543 = FILL_AREA_STYLE('',(#1544));
#1544 = FILL_AREA_STYLE_COLOUR('',#1296);
#1545 = STYLED_ITEM('color',(#1546),#634);
#1546 = PRESENTATION_STYLE_ASSIGNMENT((#1547));
#1547 = SURFACE_STYLE_USAGE(.BOTH.,#1548);
#1548 = SURFACE_SIDE_STYLE('',(#1549));
#1549 = SURFACE_STYLE_FILL_AREA(#1550);
#1550 = FILL_AREA_STYLE('',(#1551));
#1551 = FILL_AREA_STYLE_COLOUR('',#1296);
#1552 = STYLED_ITEM('color',(#1553),#652);
#1553 = PRESENTATION_STYLE_ASSIGNMENT((#1554));
#1554 = SURFACE_STYLE_USAGE(.BOTH.,#1555);
#1555 = SURFACE_SIDE_STYLE('',(#1556));
#1556 = SURFACE_STYLE_FILL_AREA(#1557);
#1557 = FILL_AREA_STYLE('',(#1558));
#1558 = FILL_AREA_STYLE_COLOUR('',#1296);
#1559 = STYLED_ITEM('color',(#1560),#669);
#1560 = PRESENTATION_STYLE_ASSIGNMENT((#1561));
#1561 = SURFACE_STYLE_USAGE(.BOTH.,#1562);
#1562 = SURFACE_SIDE_STYLE('',(#1563));
#1563 = SURFACE_STYLE_FILL_AREA(#1564);
#1564 = FILL_AREA_STYLE('',(#1565));
#1565 = FILL_AREA_STYLE_COLOUR('',#1296);
#1566 = STYLED_ITEM('color',(#1567),#686);
#1567 = PRESENTATION_STYLE_ASSIGNMENT((#1568));
#1568 = SURFACE_STYLE_USAGE(.BOTH.,#1569);
#1569 = SURFACE_SIDE_STYLE('',(#1570));
#1570 = SURFACE_STYLE_FILL_AREA(#1571);
#1571 = FILL_AREA_STYLE('',(#1572));
#1572 = FILL_AREA_STYLE_COLOUR('',#1296);
#1573 = STYLED_ITEM('color',(#1574),#704);
#1574 = PRESENTATION_STYLE_ASSIGNMENT((#1575));
#1575 = SURFACE_STYLE_USAGE(.BOTH.,#1576);
#1576 = SURFACE_SIDE_STYLE('',(#1577));
#1577 = SURFACE_STYLE_FILL_AREA(#1578);
#1578 = FILL_AREA_STYLE('',(#1579));
#1579 = FILL_AREA_STYLE_COLOUR('',#1296);
#1580 = STYLED_ITEM('color',(#1581),#722);
#1581 = PRESENTATION_STYLE_ASSIGNMENT((#1582));
#1582 = SURFACE_STYLE_USAGE(.BOTH.,#1583);
#1583 = SURFACE_SIDE_STYLE('',(#1584));
#1584 = SURFACE_STYLE_FILL_AREA(#1585);
#1585 = FILL_AREA_STYLE('',(#1586));
#1586 = FILL_AREA_STYLE_COLOUR('',#1296);
#1587 = STYLED_ITEM('color',(#1588),#740);
#1588 = PRESENTATION_STYLE_ASSIGNMENT((#1589));
#1589 = SURFACE_STYLE_USAGE(.BOTH.,#1590);
#1590 = SURFACE_SIDE_STYLE('',(#1591));
#1591 = SURFACE_STYLE_FILL_AREA(#1592);
#1592 = FILL_AREA_STYLE('',(#1593));
#1593 = FILL_AREA_STYLE_COLOUR('',#1296);
#1594 = STYLED_ITEM('color',(#1595),#758);
#1595 = PRESENTATION_STYLE_ASSIGNMENT((#1596));
#1596 = SURFACE_STYLE_USAGE(.BOTH.,#1597);
#1597 = SURFACE_SIDE_STYLE('',(#1598));
#1598 = SURFACE_STYLE_FILL_AREA(#1599);
#1599 = FILL_AREA_STYLE('',(#1600));
#1600 = FILL_AREA_STYLE_COLOUR('',#1296);
#1601 = STYLED_ITEM('color',(#1602),#775);
#1602 = PRESENTATION_STYLE_ASSIGNMENT((#1603));
#1603 = SURFACE_STYLE_USAGE(.BOTH.,#1604);
#1604 = SURFACE_SIDE_STYLE('',(#1605));
#1605 = SURFACE_STYLE_FILL_AREA(#1606);
#1606 = FILL_AREA_STYLE('',(#1607));
#1607 = FILL_AREA_STYLE_COLOUR('',#1296);
#1608 = STYLED_ITEM('color',(#1609),#792);
#1609 = PRESENTATION_STYLE_ASSIGNMENT((#1610));
#1610 = SURFACE_STYLE_USAGE(.BOTH.,#1611);
#1611 = SURFACE_SIDE_STYLE('',(#1612));
#1612 = SURFACE_STYLE_FILL_AREA(#1613);
#1613 = FILL_AREA_STYLE('',(#1614));
#1614 = FILL_AREA_STYLE_COLOUR('',#1296);
ENDSEC;
END-ISO-10303-21;
