ISO-10303-21;
HEADER;
FILE_DESCRIPTION(('FreeCAD Model'),'2;1');
FILE_NAME('Open CASCADE Shape Model','2025-12-13T12:06:10',(''),(''),
  'Open CASCADE STEP processor 7.8','FreeCAD','Unknown');
FILE_SCHEMA(('AUTOMOTIVE_DESIGN { 1 0 10303 214 1 1 1 1 }'));
ENDSEC;
DATA;
#1 = APPLICATION_PROTOCOL_DEFINITION('international standard',
  'automotive_design',2000,#2);
#2 = APPLICATION_CONTEXT(
  'core data for automotive mechanical design processes');
#3 = SHAPE_DEFINITION_REPRESENTATION(#4,#10);
#4 = PRODUCT_DEFINITION_SHAPE('','',#5);
#5 = PRODUCT_DEFINITION('design','',#6,#9);
#6 = PRODUCT_DEFINITION_FORMATION('','',#7);
#7 = PRODUCT('ASSEMBLY','ASSEMBLY','',(#8));
#8 = PRODUCT_CONTEXT('',#2,'mechanical');
#9 = PRODUCT_DEFINITION_CONTEXT('part definition',#2,'design');
#10 = SHAPE_REPRESENTATION('',(#11,#15,#19),#23);
#11 = AXIS2_PLACEMENT_3D('',#12,#13,#14);
#12 = CARTESIAN_POINT('',(0.,0.,0.));
#13 = DIRECTION('',(0.,0.,1.));
#14 = DIRECTION('',(1.,0.,-0.));
#15 = AXIS2_PLACEMENT_3D('',#16,#17,#18);
#16 = CARTESIAN_POINT('',(-5.E-03,0.,0.1));
#17 = DIRECTION('',(0.,0.,1.));
#18 = DIRECTION('',(-2.22044604925E-16,-1.,0.));
#19 = AXIS2_PLACEMENT_3D('',#20,#21,#22);
#20 = CARTESIAN_POINT('',(-5.E-03,0.,0.));
#21 = DIRECTION('',(0.,0.,1.));
#22 = DIRECTION('',(-2.22044604925E-16,-1.,0.));
#23 = ( GEOMETRIC_REPRESENTATION_CONTEXT(3) 
GLOBAL_UNCERTAINTY_ASSIGNED_CONTEXT((#27)) GLOBAL_UNIT_ASSIGNED_CONTEXT(
(#24,#25,#26)) REPRESENTATION_CONTEXT('Context #1',
  '3D Context with UNIT and UNCERTAINTY') );
#24 = ( LENGTH_UNIT() NAMED_UNIT(*) SI_UNIT(.MILLI.,.METRE.) );
#25 = ( NAMED_UNIT(*) PLANE_ANGLE_UNIT() SI_UNIT($,.RADIAN.) );
#26 = ( NAMED_UNIT(*) SI_UNIT($,.STERADIAN.) SOLID_ANGLE_UNIT() );
#27 = UNCERTAINTY_MEASURE_WITH_UNIT(LENGTH_MEASURE(1.E-07),#24,
  'distance_accuracy_value','confusion accuracy');
#28 = PRODUCT_RELATED_PRODUCT_CATEGORY('part',$,(#7));
#29 = SHAPE_DEFINITION_REPRESENTATION(#30,#36);
#30 = PRODUCT_DEFINITION_SHAPE('','',#31);
#31 = PRODUCT_DEFINITION('design','',#32,#35);
#32 = PRODUCT_DEFINITION_FORMATION('','',#33);
#33 = PRODUCT('Body','Body','',(#34));
#34 = PRODUCT_CONTEXT('',#2,'mechanical');
#35 = PRODUCT_DEFINITION_CONTEXT('part definition',#2,'design');
#36 = ADVANCED_BREP_SHAPE_REPRESENTATION('',(#11,#37),#187);
#37 = MANIFOLD_SOLID_BREP('',#38);
#38 = CLOSED_SHELL('',(#39,#79,#110,#141,#163,#175));
#39 = ADVANCED_FACE('',(#40),#74,.T.);
#40 = FACE_BOUND('',#41,.T.);
#41 = EDGE_LOOP('',(#42,#52,#60,#68));
#42 = ORIENTED_EDGE('',*,*,#43,.T.);
#43 = EDGE_CURVE('',#44,#46,#48,.T.);
#44 = VERTEX_POINT('',#45);
#45 = CARTESIAN_POINT('',(-1.025,1.025,0.));
#46 = VERTEX_POINT('',#47);
#47 = CARTESIAN_POINT('',(-1.025,1.025,0.8));
#48 = LINE('',#49,#50);
#49 = CARTESIAN_POINT('',(-1.025,1.025,0.));
#50 = VECTOR('',#51,1.);
#51 = DIRECTION('',(0.,0.,1.));
#52 = ORIENTED_EDGE('',*,*,#53,.T.);
#53 = EDGE_CURVE('',#46,#54,#56,.T.);
#54 = VERTEX_POINT('',#55);
#55 = CARTESIAN_POINT('',(1.025,1.025,0.8));
#56 = LINE('',#57,#58);
#57 = CARTESIAN_POINT('',(-1.025,1.025,0.8));
#58 = VECTOR('',#59,1.);
#59 = DIRECTION('',(1.,0.,0.));
#60 = ORIENTED_EDGE('',*,*,#61,.F.);
#61 = EDGE_CURVE('',#62,#54,#64,.T.);
#62 = VERTEX_POINT('',#63);
#63 = CARTESIAN_POINT('',(1.025,1.025,0.));
#64 = LINE('',#65,#66);
#65 = CARTESIAN_POINT('',(1.025,1.025,0.));
#66 = VECTOR('',#67,1.);
#67 = DIRECTION('',(0.,0.,1.));
#68 = ORIENTED_EDGE('',*,*,#69,.F.);
#69 = EDGE_CURVE('',#44,#62,#70,.T.);
#70 = LINE('',#71,#72);
#71 = CARTESIAN_POINT('',(-1.025,1.025,0.));
#72 = VECTOR('',#73,1.);
#73 = DIRECTION('',(1.,0.,0.));
#74 = PLANE('',#75);
#75 = AXIS2_PLACEMENT_3D('',#76,#77,#78);
#76 = CARTESIAN_POINT('',(-1.025,1.025,0.));
#77 = DIRECTION('',(0.,1.,0.));
#78 = DIRECTION('',(1.,0.,0.));
#79 = ADVANCED_FACE('',(#80),#105,.T.);
#80 = FACE_BOUND('',#81,.T.);
#81 = EDGE_LOOP('',(#82,#83,#91,#99));
#82 = ORIENTED_EDGE('',*,*,#61,.T.);
#83 = ORIENTED_EDGE('',*,*,#84,.T.);
#84 = EDGE_CURVE('',#54,#85,#87,.T.);
#85 = VERTEX_POINT('',#86);
#86 = CARTESIAN_POINT('',(1.025,-1.025,0.8));
#87 = LINE('',#88,#89);
#88 = CARTESIAN_POINT('',(1.025,1.025,0.8));
#89 = VECTOR('',#90,1.);
#90 = DIRECTION('',(0.,-1.,0.));
#91 = ORIENTED_EDGE('',*,*,#92,.F.);
#92 = EDGE_CURVE('',#93,#85,#95,.T.);
#93 = VERTEX_POINT('',#94);
#94 = CARTESIAN_POINT('',(1.025,-1.025,0.));
#95 = LINE('',#96,#97);
#96 = CARTESIAN_POINT('',(1.025,-1.025,0.));
#97 = VECTOR('',#98,1.);
#98 = DIRECTION('',(0.,0.,1.));
#99 = ORIENTED_EDGE('',*,*,#100,.F.);
#100 = EDGE_CURVE('',#62,#93,#101,.T.);
#101 = LINE('',#102,#103);
#102 = CARTESIAN_POINT('',(1.025,1.025,0.));
#103 = VECTOR('',#104,1.);
#104 = DIRECTION('',(0.,-1.,0.));
#105 = PLANE('',#106);
#106 = AXIS2_PLACEMENT_3D('',#107,#108,#109);
#107 = CARTESIAN_POINT('',(1.025,1.025,0.));
#108 = DIRECTION('',(1.,0.,-0.));
#109 = DIRECTION('',(0.,-1.,0.));
#110 = ADVANCED_FACE('',(#111),#136,.T.);
#111 = FACE_BOUND('',#112,.T.);
#112 = EDGE_LOOP('',(#113,#114,#122,#130));
#113 = ORIENTED_EDGE('',*,*,#92,.T.);
#114 = ORIENTED_EDGE('',*,*,#115,.T.);
#115 = EDGE_CURVE('',#85,#116,#118,.T.);
#116 = VERTEX_POINT('',#117);
#117 = CARTESIAN_POINT('',(-1.025,-1.025,0.8));
#118 = LINE('',#119,#120);
#119 = CARTESIAN_POINT('',(1.025,-1.025,0.8));
#120 = VECTOR('',#121,1.);
#121 = DIRECTION('',(-1.,0.,0.));
#122 = ORIENTED_EDGE('',*,*,#123,.F.);
#123 = EDGE_CURVE('',#124,#116,#126,.T.);
#124 = VERTEX_POINT('',#125);
#125 = CARTESIAN_POINT('',(-1.025,-1.025,0.));
#126 = LINE('',#127,#128);
#127 = CARTESIAN_POINT('',(-1.025,-1.025,0.));
#128 = VECTOR('',#129,1.);
#129 = DIRECTION('',(0.,0.,1.));
#130 = ORIENTED_EDGE('',*,*,#131,.F.);
#131 = EDGE_CURVE('',#93,#124,#132,.T.);
#132 = LINE('',#133,#134);
#133 = CARTESIAN_POINT('',(1.025,-1.025,0.));
#134 = VECTOR('',#135,1.);
#135 = DIRECTION('',(-1.,0.,0.));
#136 = PLANE('',#137);
#137 = AXIS2_PLACEMENT_3D('',#138,#139,#140);
#138 = CARTESIAN_POINT('',(1.025,-1.025,0.));
#139 = DIRECTION('',(0.,-1.,0.));
#140 = DIRECTION('',(-1.,0.,0.));
#141 = ADVANCED_FACE('',(#142),#158,.T.);
#142 = FACE_BOUND('',#143,.T.);
#143 = EDGE_LOOP('',(#144,#145,#151,#152));
#144 = ORIENTED_EDGE('',*,*,#123,.T.);
#145 = ORIENTED_EDGE('',*,*,#146,.T.);
#146 = EDGE_CURVE('',#116,#46,#147,.T.);
#147 = LINE('',#148,#149);
#148 = CARTESIAN_POINT('',(-1.025,-1.025,0.8));
#149 = VECTOR('',#150,1.);
#150 = DIRECTION('',(0.,1.,0.));
#151 = ORIENTED_EDGE('',*,*,#43,.F.);
#152 = ORIENTED_EDGE('',*,*,#153,.F.);
#153 = EDGE_CURVE('',#124,#44,#154,.T.);
#154 = LINE('',#155,#156);
#155 = CARTESIAN_POINT('',(-1.025,-1.025,0.));
#156 = VECTOR('',#157,1.);
#157 = DIRECTION('',(0.,1.,0.));
#158 = PLANE('',#159);
#159 = AXIS2_PLACEMENT_3D('',#160,#161,#162);
#160 = CARTESIAN_POINT('',(-1.025,-1.025,0.));
#161 = DIRECTION('',(-1.,0.,0.));
#162 = DIRECTION('',(0.,1.,0.));
#163 = ADVANCED_FACE('',(#164),#170,.T.);
#164 = FACE_BOUND('',#165,.T.);
#165 = EDGE_LOOP('',(#166,#167,#168,#169));
#166 = ORIENTED_EDGE('',*,*,#69,.T.);
#167 = ORIENTED_EDGE('',*,*,#100,.T.);
#168 = ORIENTED_EDGE('',*,*,#131,.T.);
#169 = ORIENTED_EDGE('',*,*,#153,.T.);
#170 = PLANE('',#171);
#171 = AXIS2_PLACEMENT_3D('',#172,#173,#174);
#172 = CARTESIAN_POINT('',(-5.415722071342E-17,-5.415722071342E-17,
    -1.387778780781E-17));
#173 = DIRECTION('',(-0.,-0.,-1.));
#174 = DIRECTION('',(-1.,0.,0.));
#175 = ADVANCED_FACE('',(#176),#182,.F.);
#176 = FACE_BOUND('',#177,.F.);
#177 = EDGE_LOOP('',(#178,#179,#180,#181));
#178 = ORIENTED_EDGE('',*,*,#53,.T.);
#179 = ORIENTED_EDGE('',*,*,#84,.T.);
#180 = ORIENTED_EDGE('',*,*,#115,.T.);
#181 = ORIENTED_EDGE('',*,*,#146,.T.);
#182 = PLANE('',#183);
#183 = AXIS2_PLACEMENT_3D('',#184,#185,#186);
#184 = CARTESIAN_POINT('',(-5.415722071342E-17,-5.415722071342E-17,0.8)
  );
#185 = DIRECTION('',(-0.,-0.,-1.));
#186 = DIRECTION('',(-1.,0.,0.));
#187 = ( GEOMETRIC_REPRESENTATION_CONTEXT(3) 
GLOBAL_UNCERTAINTY_ASSIGNED_CONTEXT((#191)) GLOBAL_UNIT_ASSIGNED_CONTEXT
((#188,#189,#190)) REPRESENTATION_CONTEXT('Context #1',
  '3D Context with UNIT and UNCERTAINTY') );
#188 = ( LENGTH_UNIT() NAMED_UNIT(*) SI_UNIT(.MILLI.,.METRE.) );
#189 = ( NAMED_UNIT(*) PLANE_ANGLE_UNIT() SI_UNIT($,.RADIAN.) );
#190 = ( NAMED_UNIT(*) SI_UNIT($,.STERADIAN.) SOLID_ANGLE_UNIT() );
#191 = UNCERTAINTY_MEASURE_WITH_UNIT(LENGTH_MEASURE(1.E-07),#188,
  'distance_accuracy_value','confusion accuracy');
#192 = CONTEXT_DEPENDENT_SHAPE_REPRESENTATION(#193,#195);
#193 = ( REPRESENTATION_RELATIONSHIP('','',#36,#10) 
REPRESENTATION_RELATIONSHIP_WITH_TRANSFORMATION(#194) 
SHAPE_REPRESENTATION_RELATIONSHIP() );
#194 = ITEM_DEFINED_TRANSFORMATION('','',#11,#15);
#195 = PRODUCT_DEFINITION_SHAPE('Placement','Placement of an item',#196
  );
#196 = NEXT_ASSEMBLY_USAGE_OCCURRENCE('31','Body','',#5,#31,$);
#197 = PRODUCT_RELATED_PRODUCT_CATEGORY('part',$,(#33));
#198 = SHAPE_DEFINITION_REPRESENTATION(#199,#205);
#199 = PRODUCT_DEFINITION_SHAPE('','',#200);
#200 = PRODUCT_DEFINITION('design','',#201,#204);
#201 = PRODUCT_DEFINITION_FORMATION('','',#202);
#202 = PRODUCT('Pins008','Pins008','',(#203));
#203 = PRODUCT_CONTEXT('',#2,'mechanical');
#204 = PRODUCT_DEFINITION_CONTEXT('part definition',#2,'design');
#205 = SHAPE_REPRESENTATION('',(#11,#206,#210,#214,#218,#222,#226,#230,
    #234),#238);
#206 = AXIS2_PLACEMENT_3D('',#207,#208,#209);
#207 = CARTESIAN_POINT('',(0.,0.,0.));
#208 = DIRECTION('',(0.,0.,1.));
#209 = DIRECTION('',(1.,0.,0.));
#210 = AXIS2_PLACEMENT_3D('',#211,#212,#213);
#211 = CARTESIAN_POINT('',(0.,0.,0.));
#212 = DIRECTION('',(0.,0.,1.));
#213 = DIRECTION('',(1.,0.,0.));
#214 = AXIS2_PLACEMENT_3D('',#215,#216,#217);
#215 = CARTESIAN_POINT('',(0.,0.,0.));
#216 = DIRECTION('',(0.,0.,1.));
#217 = DIRECTION('',(1.,0.,0.));
#218 = AXIS2_PLACEMENT_3D('',#219,#220,#221);
#219 = CARTESIAN_POINT('',(0.,0.,0.));
#220 = DIRECTION('',(0.,0.,1.));
#221 = DIRECTION('',(1.,0.,0.));
#222 = AXIS2_PLACEMENT_3D('',#223,#224,#225);
#223 = CARTESIAN_POINT('',(0.,0.,0.));
#224 = DIRECTION('',(0.,0.,1.));
#225 = DIRECTION('',(1.,0.,0.));
#226 = AXIS2_PLACEMENT_3D('',#227,#228,#229);
#227 = CARTESIAN_POINT('',(0.,0.,0.));
#228 = DIRECTION('',(0.,0.,1.));
#229 = DIRECTION('',(1.,0.,0.));
#230 = AXIS2_PLACEMENT_3D('',#231,#232,#233);
#231 = CARTESIAN_POINT('',(0.,0.,0.));
#232 = DIRECTION('',(0.,0.,1.));
#233 = DIRECTION('',(1.,0.,0.));
#234 = AXIS2_PLACEMENT_3D('',#235,#236,#237);
#235 = CARTESIAN_POINT('',(0.,0.,0.));
#236 = DIRECTION('',(0.,0.,1.));
#237 = DIRECTION('',(1.,0.,0.));
#238 = ( GEOMETRIC_REPRESENTATION_CONTEXT(3) 
GLOBAL_UNCERTAINTY_ASSIGNED_CONTEXT((#242)) GLOBAL_UNIT_ASSIGNED_CONTEXT
((#239,#240,#241)) REPRESENTATION_CONTEXT('Context #1',
  '3D Context with UNIT and UNCERTAINTY') );
#239 = ( LENGTH_UNIT() NAMED_UNIT(*) SI_UNIT(.MILLI.,.METRE.) );
#240 = ( NAMED_UNIT(*) PLANE_ANGLE_UNIT() SI_UNIT($,.RADIAN.) );
#241 = ( NAMED_UNIT(*) SI_UNIT($,.STERADIAN.) SOLID_ANGLE_UNIT() );
#242 = UNCERTAINTY_MEASURE_WITH_UNIT(LENGTH_MEASURE(1.E-07),#239,
  'distance_accuracy_value','confusion accuracy');
#243 = CONTEXT_DEPENDENT_SHAPE_REPRESENTATION(#244,#246);
#244 = ( REPRESENTATION_RELATIONSHIP('','',#205,#10) 
REPRESENTATION_RELATIONSHIP_WITH_TRANSFORMATION(#245) 
SHAPE_REPRESENTATION_RELATIONSHIP() );
#245 = ITEM_DEFINED_TRANSFORMATION('','',#11,#19);
#246 = PRODUCT_DEFINITION_SHAPE('Placement','Placement of an item',#247
  );
#247 = NEXT_ASSEMBLY_USAGE_OCCURRENCE('40','Pins008','',#5,#200,$);
#248 = PRODUCT_RELATED_PRODUCT_CATEGORY('part',$,(#202));
#249 = SHAPE_DEFINITION_REPRESENTATION(#250,#256);
#250 = PRODUCT_DEFINITION_SHAPE('','',#251);
#251 = PRODUCT_DEFINITION('design','',#252,#255);
#252 = PRODUCT_DEFINITION_FORMATION('','',#253);
#253 = PRODUCT('Pins','Pins','',(#254));
#254 = PRODUCT_CONTEXT('',#2,'mechanical');
#255 = PRODUCT_DEFINITION_CONTEXT('part definition',#2,'design');
#256 = ADVANCED_BREP_SHAPE_REPRESENTATION('',(#11,#257),#407);
#257 = MANIFOLD_SOLID_BREP('',#258);
#258 = CLOSED_SHELL('',(#259,#299,#339,#361,#383,#395));
#259 = ADVANCED_FACE('',(#260),#294,.F.);
#260 = FACE_BOUND('',#261,.F.);
#261 = EDGE_LOOP('',(#262,#272,#280,#288));
#262 = ORIENTED_EDGE('',*,*,#263,.F.);
#263 = EDGE_CURVE('',#264,#266,#268,.T.);
#264 = VERTEX_POINT('',#265);
#265 = CARTESIAN_POINT('',(-0.779,-1.07,0.));
#266 = VERTEX_POINT('',#267);
#267 = CARTESIAN_POINT('',(-0.779,-1.07,0.1));
#268 = LINE('',#269,#270);
#269 = CARTESIAN_POINT('',(-0.779,-1.07,0.));
#270 = VECTOR('',#271,1.);
#271 = DIRECTION('',(0.,0.,1.));
#272 = ORIENTED_EDGE('',*,*,#273,.T.);
#273 = EDGE_CURVE('',#264,#274,#276,.T.);
#274 = VERTEX_POINT('',#275);
#275 = CARTESIAN_POINT('',(-0.779,-0.78,0.));
#276 = LINE('',#277,#278);
#277 = CARTESIAN_POINT('',(-0.779,-1.07,0.));
#278 = VECTOR('',#279,1.);
#279 = DIRECTION('',(0.,1.,0.));
#280 = ORIENTED_EDGE('',*,*,#281,.T.);
#281 = EDGE_CURVE('',#274,#282,#284,.T.);
#282 = VERTEX_POINT('',#283);
#283 = CARTESIAN_POINT('',(-0.779,-0.78,0.1));
#284 = LINE('',#285,#286);
#285 = CARTESIAN_POINT('',(-0.779,-0.78,0.));
#286 = VECTOR('',#287,1.);
#287 = DIRECTION('',(0.,0.,1.));
#288 = ORIENTED_EDGE('',*,*,#289,.F.);
#289 = EDGE_CURVE('',#266,#282,#290,.T.);
#290 = LINE('',#291,#292);
#291 = CARTESIAN_POINT('',(-0.779,-1.07,0.1));
#292 = VECTOR('',#293,1.);
#293 = DIRECTION('',(0.,1.,0.));
#294 = PLANE('',#295);
#295 = AXIS2_PLACEMENT_3D('',#296,#297,#298);
#296 = CARTESIAN_POINT('',(-0.779,-1.07,0.));
#297 = DIRECTION('',(1.,0.,0.));
#298 = DIRECTION('',(0.,0.,1.));
#299 = ADVANCED_FACE('',(#300),#334,.T.);
#300 = FACE_BOUND('',#301,.T.);
#301 = EDGE_LOOP('',(#302,#312,#320,#328));
#302 = ORIENTED_EDGE('',*,*,#303,.F.);
#303 = EDGE_CURVE('',#304,#306,#308,.T.);
#304 = VERTEX_POINT('',#305);
#305 = CARTESIAN_POINT('',(-0.539,-1.07,0.));
#306 = VERTEX_POINT('',#307);
#307 = CARTESIAN_POINT('',(-0.539,-1.07,0.1));
#308 = LINE('',#309,#310);
#309 = CARTESIAN_POINT('',(-0.539,-1.07,0.));
#310 = VECTOR('',#311,1.);
#311 = DIRECTION('',(0.,0.,1.));
#312 = ORIENTED_EDGE('',*,*,#313,.T.);
#313 = EDGE_CURVE('',#304,#314,#316,.T.);
#314 = VERTEX_POINT('',#315);
#315 = CARTESIAN_POINT('',(-0.539,-0.78,0.));
#316 = LINE('',#317,#318);
#317 = CARTESIAN_POINT('',(-0.539,-1.07,0.));
#318 = VECTOR('',#319,1.);
#319 = DIRECTION('',(0.,1.,0.));
#320 = ORIENTED_EDGE('',*,*,#321,.T.);
#321 = EDGE_CURVE('',#314,#322,#324,.T.);
#322 = VERTEX_POINT('',#323);
#323 = CARTESIAN_POINT('',(-0.539,-0.78,0.1));
#324 = LINE('',#325,#326);
#325 = CARTESIAN_POINT('',(-0.539,-0.78,0.));
#326 = VECTOR('',#327,1.);
#327 = DIRECTION('',(0.,0.,1.));
#328 = ORIENTED_EDGE('',*,*,#329,.F.);
#329 = EDGE_CURVE('',#306,#322,#330,.T.);
#330 = LINE('',#331,#332);
#331 = CARTESIAN_POINT('',(-0.539,-1.07,0.1));
#332 = VECTOR('',#333,1.);
#333 = DIRECTION('',(0.,1.,0.));
#334 = PLANE('',#335);
#335 = AXIS2_PLACEMENT_3D('',#336,#337,#338);
#336 = CARTESIAN_POINT('',(-0.539,-1.07,0.));
#337 = DIRECTION('',(1.,0.,0.));
#338 = DIRECTION('',(0.,0.,1.));
#339 = ADVANCED_FACE('',(#340),#356,.F.);
#340 = FACE_BOUND('',#341,.F.);
#341 = EDGE_LOOP('',(#342,#348,#349,#355));
#342 = ORIENTED_EDGE('',*,*,#343,.F.);
#343 = EDGE_CURVE('',#264,#304,#344,.T.);
#344 = LINE('',#345,#346);
#345 = CARTESIAN_POINT('',(-0.779,-1.07,0.));
#346 = VECTOR('',#347,1.);
#347 = DIRECTION('',(1.,0.,0.));
#348 = ORIENTED_EDGE('',*,*,#263,.T.);
#349 = ORIENTED_EDGE('',*,*,#350,.T.);
#350 = EDGE_CURVE('',#266,#306,#351,.T.);
#351 = LINE('',#352,#353);
#352 = CARTESIAN_POINT('',(-0.779,-1.07,0.1));
#353 = VECTOR('',#354,1.);
#354 = DIRECTION('',(1.,0.,0.));
#355 = ORIENTED_EDGE('',*,*,#303,.F.);
#356 = PLANE('',#357);
#357 = AXIS2_PLACEMENT_3D('',#358,#359,#360);
#358 = CARTESIAN_POINT('',(-0.779,-1.07,0.));
#359 = DIRECTION('',(0.,1.,0.));
#360 = DIRECTION('',(0.,-0.,1.));
#361 = ADVANCED_FACE('',(#362),#378,.T.);
#362 = FACE_BOUND('',#363,.T.);
#363 = EDGE_LOOP('',(#364,#370,#371,#377));
#364 = ORIENTED_EDGE('',*,*,#365,.F.);
#365 = EDGE_CURVE('',#274,#314,#366,.T.);
#366 = LINE('',#367,#368);
#367 = CARTESIAN_POINT('',(-0.779,-0.78,0.));
#368 = VECTOR('',#369,1.);
#369 = DIRECTION('',(1.,0.,0.));
#370 = ORIENTED_EDGE('',*,*,#281,.T.);
#371 = ORIENTED_EDGE('',*,*,#372,.T.);
#372 = EDGE_CURVE('',#282,#322,#373,.T.);
#373 = LINE('',#374,#375);
#374 = CARTESIAN_POINT('',(-0.779,-0.78,0.1));
#375 = VECTOR('',#376,1.);
#376 = DIRECTION('',(1.,0.,0.));
#377 = ORIENTED_EDGE('',*,*,#321,.F.);
#378 = PLANE('',#379);
#379 = AXIS2_PLACEMENT_3D('',#380,#381,#382);
#380 = CARTESIAN_POINT('',(-0.779,-0.78,0.));
#381 = DIRECTION('',(0.,1.,0.));
#382 = DIRECTION('',(0.,-0.,1.));
#383 = ADVANCED_FACE('',(#384),#390,.F.);
#384 = FACE_BOUND('',#385,.F.);
#385 = EDGE_LOOP('',(#386,#387,#388,#389));
#386 = ORIENTED_EDGE('',*,*,#273,.F.);
#387 = ORIENTED_EDGE('',*,*,#343,.T.);
#388 = ORIENTED_EDGE('',*,*,#313,.T.);
#389 = ORIENTED_EDGE('',*,*,#365,.F.);
#390 = PLANE('',#391);
#391 = AXIS2_PLACEMENT_3D('',#392,#393,#394);
#392 = CARTESIAN_POINT('',(-0.779,-1.07,0.));
#393 = DIRECTION('',(0.,0.,1.));
#394 = DIRECTION('',(1.,0.,-0.));
#395 = ADVANCED_FACE('',(#396),#402,.T.);
#396 = FACE_BOUND('',#397,.T.);
#397 = EDGE_LOOP('',(#398,#399,#400,#401));
#398 = ORIENTED_EDGE('',*,*,#289,.F.);
#399 = ORIENTED_EDGE('',*,*,#350,.T.);
#400 = ORIENTED_EDGE('',*,*,#329,.T.);
#401 = ORIENTED_EDGE('',*,*,#372,.F.);
#402 = PLANE('',#403);
#403 = AXIS2_PLACEMENT_3D('',#404,#405,#406);
#404 = CARTESIAN_POINT('',(-0.779,-1.07,0.1));
#405 = DIRECTION('',(0.,0.,1.));
#406 = DIRECTION('',(1.,0.,-0.));
#407 = ( GEOMETRIC_REPRESENTATION_CONTEXT(3) 
GLOBAL_UNCERTAINTY_ASSIGNED_CONTEXT((#411)) GLOBAL_UNIT_ASSIGNED_CONTEXT
((#408,#409,#410)) REPRESENTATION_CONTEXT('Context #1',
  '3D Context with UNIT and UNCERTAINTY') );
#408 = ( LENGTH_UNIT() NAMED_UNIT(*) SI_UNIT(.MILLI.,.METRE.) );
#409 = ( NAMED_UNIT(*) PLANE_ANGLE_UNIT() SI_UNIT($,.RADIAN.) );
#410 = ( NAMED_UNIT(*) SI_UNIT($,.STERADIAN.) SOLID_ANGLE_UNIT() );
#411 = UNCERTAINTY_MEASURE_WITH_UNIT(LENGTH_MEASURE(1.E-07),#408,
  'distance_accuracy_value','confusion accuracy');
#412 = CONTEXT_DEPENDENT_SHAPE_REPRESENTATION(#413,#415);
#413 = ( REPRESENTATION_RELATIONSHIP('','',#256,#205) 
REPRESENTATION_RELATIONSHIP_WITH_TRANSFORMATION(#414) 
SHAPE_REPRESENTATION_RELATIONSHIP() );
#414 = ITEM_DEFINED_TRANSFORMATION('','',#11,#206);
#415 = PRODUCT_DEFINITION_SHAPE('Placement','Placement of an item',#416
  );
#416 = NEXT_ASSEMBLY_USAGE_OCCURRENCE('32','Pins','',#200,#251,$);
#417 = PRODUCT_RELATED_PRODUCT_CATEGORY('part',$,(#253));
#418 = SHAPE_DEFINITION_REPRESENTATION(#419,#425);
#419 = PRODUCT_DEFINITION_SHAPE('','',#420);
#420 = PRODUCT_DEFINITION('design','',#421,#424);
#421 = PRODUCT_DEFINITION_FORMATION('','',#422);
#422 = PRODUCT('Pins001','Pins001','',(#423));
#423 = PRODUCT_CONTEXT('',#2,'mechanical');
#424 = PRODUCT_DEFINITION_CONTEXT('part definition',#2,'design');
#425 = ADVANCED_BREP_SHAPE_REPRESENTATION('',(#11,#426),#576);
#426 = MANIFOLD_SOLID_BREP('',#427);
#427 = CLOSED_SHELL('',(#428,#468,#508,#530,#552,#564));
#428 = ADVANCED_FACE('',(#429),#463,.F.);
#429 = FACE_BOUND('',#430,.F.);
#430 = EDGE_LOOP('',(#431,#441,#449,#457));
#431 = ORIENTED_EDGE('',*,*,#432,.F.);
#432 = EDGE_CURVE('',#433,#435,#437,.T.);
#433 = VERTEX_POINT('',#434);
#434 = CARTESIAN_POINT('',(-0.129,-1.07,0.));
#435 = VERTEX_POINT('',#436);
#436 = CARTESIAN_POINT('',(-0.129,-1.07,0.1));
#437 = LINE('',#438,#439);
#438 = CARTESIAN_POINT('',(-0.129,-1.07,0.));
#439 = VECTOR('',#440,1.);
#440 = DIRECTION('',(0.,0.,1.));
#441 = ORIENTED_EDGE('',*,*,#442,.T.);
#442 = EDGE_CURVE('',#433,#443,#445,.T.);
#443 = VERTEX_POINT('',#444);
#444 = CARTESIAN_POINT('',(-0.129,-0.78,0.));
#445 = LINE('',#446,#447);
#446 = CARTESIAN_POINT('',(-0.129,-1.07,0.));
#447 = VECTOR('',#448,1.);
#448 = DIRECTION('',(0.,1.,0.));
#449 = ORIENTED_EDGE('',*,*,#450,.T.);
#450 = EDGE_CURVE('',#443,#451,#453,.T.);
#451 = VERTEX_POINT('',#452);
#452 = CARTESIAN_POINT('',(-0.129,-0.78,0.1));
#453 = LINE('',#454,#455);
#454 = CARTESIAN_POINT('',(-0.129,-0.78,0.));
#455 = VECTOR('',#456,1.);
#456 = DIRECTION('',(0.,0.,1.));
#457 = ORIENTED_EDGE('',*,*,#458,.F.);
#458 = EDGE_CURVE('',#435,#451,#459,.T.);
#459 = LINE('',#460,#461);
#460 = CARTESIAN_POINT('',(-0.129,-1.07,0.1));
#461 = VECTOR('',#462,1.);
#462 = DIRECTION('',(0.,1.,0.));
#463 = PLANE('',#464);
#464 = AXIS2_PLACEMENT_3D('',#465,#466,#467);
#465 = CARTESIAN_POINT('',(-0.129,-1.07,0.));
#466 = DIRECTION('',(1.,0.,0.));
#467 = DIRECTION('',(0.,0.,1.));
#468 = ADVANCED_FACE('',(#469),#503,.T.);
#469 = FACE_BOUND('',#470,.T.);
#470 = EDGE_LOOP('',(#471,#481,#489,#497));
#471 = ORIENTED_EDGE('',*,*,#472,.F.);
#472 = EDGE_CURVE('',#473,#475,#477,.T.);
#473 = VERTEX_POINT('',#474);
#474 = CARTESIAN_POINT('',(0.111,-1.07,0.));
#475 = VERTEX_POINT('',#476);
#476 = CARTESIAN_POINT('',(0.111,-1.07,0.1));
#477 = LINE('',#478,#479);
#478 = CARTESIAN_POINT('',(0.111,-1.07,0.));
#479 = VECTOR('',#480,1.);
#480 = DIRECTION('',(0.,0.,1.));
#481 = ORIENTED_EDGE('',*,*,#482,.T.);
#482 = EDGE_CURVE('',#473,#483,#485,.T.);
#483 = VERTEX_POINT('',#484);
#484 = CARTESIAN_POINT('',(0.111,-0.78,0.));
#485 = LINE('',#486,#487);
#486 = CARTESIAN_POINT('',(0.111,-1.07,0.));
#487 = VECTOR('',#488,1.);
#488 = DIRECTION('',(0.,1.,0.));
#489 = ORIENTED_EDGE('',*,*,#490,.T.);
#490 = EDGE_CURVE('',#483,#491,#493,.T.);
#491 = VERTEX_POINT('',#492);
#492 = CARTESIAN_POINT('',(0.111,-0.78,0.1));
#493 = LINE('',#494,#495);
#494 = CARTESIAN_POINT('',(0.111,-0.78,0.));
#495 = VECTOR('',#496,1.);
#496 = DIRECTION('',(0.,0.,1.));
#497 = ORIENTED_EDGE('',*,*,#498,.F.);
#498 = EDGE_CURVE('',#475,#491,#499,.T.);
#499 = LINE('',#500,#501);
#500 = CARTESIAN_POINT('',(0.111,-1.07,0.1));
#501 = VECTOR('',#502,1.);
#502 = DIRECTION('',(0.,1.,0.));
#503 = PLANE('',#504);
#504 = AXIS2_PLACEMENT_3D('',#505,#506,#507);
#505 = CARTESIAN_POINT('',(0.111,-1.07,0.));
#506 = DIRECTION('',(1.,0.,0.));
#507 = DIRECTION('',(0.,0.,1.));
#508 = ADVANCED_FACE('',(#509),#525,.F.);
#509 = FACE_BOUND('',#510,.F.);
#510 = EDGE_LOOP('',(#511,#517,#518,#524));
#511 = ORIENTED_EDGE('',*,*,#512,.F.);
#512 = EDGE_CURVE('',#433,#473,#513,.T.);
#513 = LINE('',#514,#515);
#514 = CARTESIAN_POINT('',(-0.129,-1.07,0.));
#515 = VECTOR('',#516,1.);
#516 = DIRECTION('',(1.,0.,0.));
#517 = ORIENTED_EDGE('',*,*,#432,.T.);
#518 = ORIENTED_EDGE('',*,*,#519,.T.);
#519 = EDGE_CURVE('',#435,#475,#520,.T.);
#520 = LINE('',#521,#522);
#521 = CARTESIAN_POINT('',(-0.129,-1.07,0.1));
#522 = VECTOR('',#523,1.);
#523 = DIRECTION('',(1.,0.,0.));
#524 = ORIENTED_EDGE('',*,*,#472,.F.);
#525 = PLANE('',#526);
#526 = AXIS2_PLACEMENT_3D('',#527,#528,#529);
#527 = CARTESIAN_POINT('',(-0.129,-1.07,0.));
#528 = DIRECTION('',(0.,1.,0.));
#529 = DIRECTION('',(0.,-0.,1.));
#530 = ADVANCED_FACE('',(#531),#547,.T.);
#531 = FACE_BOUND('',#532,.T.);
#532 = EDGE_LOOP('',(#533,#539,#540,#546));
#533 = ORIENTED_EDGE('',*,*,#534,.F.);
#534 = EDGE_CURVE('',#443,#483,#535,.T.);
#535 = LINE('',#536,#537);
#536 = CARTESIAN_POINT('',(-0.129,-0.78,0.));
#537 = VECTOR('',#538,1.);
#538 = DIRECTION('',(1.,0.,0.));
#539 = ORIENTED_EDGE('',*,*,#450,.T.);
#540 = ORIENTED_EDGE('',*,*,#541,.T.);
#541 = EDGE_CURVE('',#451,#491,#542,.T.);
#542 = LINE('',#543,#544);
#543 = CARTESIAN_POINT('',(-0.129,-0.78,0.1));
#544 = VECTOR('',#545,1.);
#545 = DIRECTION('',(1.,0.,0.));
#546 = ORIENTED_EDGE('',*,*,#490,.F.);
#547 = PLANE('',#548);
#548 = AXIS2_PLACEMENT_3D('',#549,#550,#551);
#549 = CARTESIAN_POINT('',(-0.129,-0.78,0.));
#550 = DIRECTION('',(0.,1.,0.));
#551 = DIRECTION('',(0.,-0.,1.));
#552 = ADVANCED_FACE('',(#553),#559,.F.);
#553 = FACE_BOUND('',#554,.F.);
#554 = EDGE_LOOP('',(#555,#556,#557,#558));
#555 = ORIENTED_EDGE('',*,*,#442,.F.);
#556 = ORIENTED_EDGE('',*,*,#512,.T.);
#557 = ORIENTED_EDGE('',*,*,#482,.T.);
#558 = ORIENTED_EDGE('',*,*,#534,.F.);
#559 = PLANE('',#560);
#560 = AXIS2_PLACEMENT_3D('',#561,#562,#563);
#561 = CARTESIAN_POINT('',(-0.129,-1.07,0.));
#562 = DIRECTION('',(0.,0.,1.));
#563 = DIRECTION('',(1.,0.,-0.));
#564 = ADVANCED_FACE('',(#565),#571,.T.);
#565 = FACE_BOUND('',#566,.T.);
#566 = EDGE_LOOP('',(#567,#568,#569,#570));
#567 = ORIENTED_EDGE('',*,*,#458,.F.);
#568 = ORIENTED_EDGE('',*,*,#519,.T.);
#569 = ORIENTED_EDGE('',*,*,#498,.T.);
#570 = ORIENTED_EDGE('',*,*,#541,.F.);
#571 = PLANE('',#572);
#572 = AXIS2_PLACEMENT_3D('',#573,#574,#575);
#573 = CARTESIAN_POINT('',(-0.129,-1.07,0.1));
#574 = DIRECTION('',(0.,0.,1.));
#575 = DIRECTION('',(1.,0.,-0.));
#576 = ( GEOMETRIC_REPRESENTATION_CONTEXT(3) 
GLOBAL_UNCERTAINTY_ASSIGNED_CONTEXT((#580)) GLOBAL_UNIT_ASSIGNED_CONTEXT
((#577,#578,#579)) REPRESENTATION_CONTEXT('Context #1',
  '3D Context with UNIT and UNCERTAINTY') );
#577 = ( LENGTH_UNIT() NAMED_UNIT(*) SI_UNIT(.MILLI.,.METRE.) );
#578 = ( NAMED_UNIT(*) PLANE_ANGLE_UNIT() SI_UNIT($,.RADIAN.) );
#579 = ( NAMED_UNIT(*) SI_UNIT($,.STERADIAN.) SOLID_ANGLE_UNIT() );
#580 = UNCERTAINTY_MEASURE_WITH_UNIT(LENGTH_MEASURE(1.E-07),#577,
  'distance_accuracy_value','confusion accuracy');
#581 = CONTEXT_DEPENDENT_SHAPE_REPRESENTATION(#582,#584);
#582 = ( REPRESENTATION_RELATIONSHIP('','',#425,#205) 
REPRESENTATION_RELATIONSHIP_WITH_TRANSFORMATION(#583) 
SHAPE_REPRESENTATION_RELATIONSHIP() );
#583 = ITEM_DEFINED_TRANSFORMATION('','',#11,#210);
#584 = PRODUCT_DEFINITION_SHAPE('Placement','Placement of an item',#585
  );
#585 = NEXT_ASSEMBLY_USAGE_OCCURRENCE('33','Pins001','',#200,#420,$);
#586 = PRODUCT_RELATED_PRODUCT_CATEGORY('part',$,(#422));
#587 = SHAPE_DEFINITION_REPRESENTATION(#588,#594);
#588 = PRODUCT_DEFINITION_SHAPE('','',#589);
#589 = PRODUCT_DEFINITION('design','',#590,#593);
#590 = PRODUCT_DEFINITION_FORMATION('','',#591);
#591 = PRODUCT('Pins002','Pins002','',(#592));
#592 = PRODUCT_CONTEXT('',#2,'mechanical');
#593 = PRODUCT_DEFINITION_CONTEXT('part definition',#2,'design');
#594 = ADVANCED_BREP_SHAPE_REPRESENTATION('',(#11,#595),#745);
#595 = MANIFOLD_SOLID_BREP('',#596);
#596 = CLOSED_SHELL('',(#597,#637,#677,#699,#721,#733));
#597 = ADVANCED_FACE('',(#598),#632,.F.);
#598 = FACE_BOUND('',#599,.F.);
#599 = EDGE_LOOP('',(#600,#610,#618,#626));
#600 = ORIENTED_EDGE('',*,*,#601,.F.);
#601 = EDGE_CURVE('',#602,#604,#606,.T.);
#602 = VERTEX_POINT('',#603);
#603 = CARTESIAN_POINT('',(0.521,-1.07,0.));
#604 = VERTEX_POINT('',#605);
#605 = CARTESIAN_POINT('',(0.521,-1.07,0.1));
#606 = LINE('',#607,#608);
#607 = CARTESIAN_POINT('',(0.521,-1.07,0.));
#608 = VECTOR('',#609,1.);
#609 = DIRECTION('',(0.,0.,1.));
#610 = ORIENTED_EDGE('',*,*,#611,.T.);
#611 = EDGE_CURVE('',#602,#612,#614,.T.);
#612 = VERTEX_POINT('',#613);
#613 = CARTESIAN_POINT('',(0.521,-0.78,0.));
#614 = LINE('',#615,#616);
#615 = CARTESIAN_POINT('',(0.521,-1.07,0.));
#616 = VECTOR('',#617,1.);
#617 = DIRECTION('',(0.,1.,0.));
#618 = ORIENTED_EDGE('',*,*,#619,.T.);
#619 = EDGE_CURVE('',#612,#620,#622,.T.);
#620 = VERTEX_POINT('',#621);
#621 = CARTESIAN_POINT('',(0.521,-0.78,0.1));
#622 = LINE('',#623,#624);
#623 = CARTESIAN_POINT('',(0.521,-0.78,0.));
#624 = VECTOR('',#625,1.);
#625 = DIRECTION('',(0.,0.,1.));
#626 = ORIENTED_EDGE('',*,*,#627,.F.);
#627 = EDGE_CURVE('',#604,#620,#628,.T.);
#628 = LINE('',#629,#630);
#629 = CARTESIAN_POINT('',(0.521,-1.07,0.1));
#630 = VECTOR('',#631,1.);
#631 = DIRECTION('',(0.,1.,0.));
#632 = PLANE('',#633);
#633 = AXIS2_PLACEMENT_3D('',#634,#635,#636);
#634 = CARTESIAN_POINT('',(0.521,-1.07,0.));
#635 = DIRECTION('',(1.,0.,0.));
#636 = DIRECTION('',(0.,0.,1.));
#637 = ADVANCED_FACE('',(#638),#672,.T.);
#638 = FACE_BOUND('',#639,.T.);
#639 = EDGE_LOOP('',(#640,#650,#658,#666));
#640 = ORIENTED_EDGE('',*,*,#641,.F.);
#641 = EDGE_CURVE('',#642,#644,#646,.T.);
#642 = VERTEX_POINT('',#643);
#643 = CARTESIAN_POINT('',(0.761,-1.07,0.));
#644 = VERTEX_POINT('',#645);
#645 = CARTESIAN_POINT('',(0.761,-1.07,0.1));
#646 = LINE('',#647,#648);
#647 = CARTESIAN_POINT('',(0.761,-1.07,0.));
#648 = VECTOR('',#649,1.);
#649 = DIRECTION('',(0.,0.,1.));
#650 = ORIENTED_EDGE('',*,*,#651,.T.);
#651 = EDGE_CURVE('',#642,#652,#654,.T.);
#652 = VERTEX_POINT('',#653);
#653 = CARTESIAN_POINT('',(0.761,-0.78,0.));
#654 = LINE('',#655,#656);
#655 = CARTESIAN_POINT('',(0.761,-1.07,0.));
#656 = VECTOR('',#657,1.);
#657 = DIRECTION('',(0.,1.,0.));
#658 = ORIENTED_EDGE('',*,*,#659,.T.);
#659 = EDGE_CURVE('',#652,#660,#662,.T.);
#660 = VERTEX_POINT('',#661);
#661 = CARTESIAN_POINT('',(0.761,-0.78,0.1));
#662 = LINE('',#663,#664);
#663 = CARTESIAN_POINT('',(0.761,-0.78,0.));
#664 = VECTOR('',#665,1.);
#665 = DIRECTION('',(0.,0.,1.));
#666 = ORIENTED_EDGE('',*,*,#667,.F.);
#667 = EDGE_CURVE('',#644,#660,#668,.T.);
#668 = LINE('',#669,#670);
#669 = CARTESIAN_POINT('',(0.761,-1.07,0.1));
#670 = VECTOR('',#671,1.);
#671 = DIRECTION('',(0.,1.,0.));
#672 = PLANE('',#673);
#673 = AXIS2_PLACEMENT_3D('',#674,#675,#676);
#674 = CARTESIAN_POINT('',(0.761,-1.07,0.));
#675 = DIRECTION('',(1.,0.,0.));
#676 = DIRECTION('',(0.,0.,1.));
#677 = ADVANCED_FACE('',(#678),#694,.F.);
#678 = FACE_BOUND('',#679,.F.);
#679 = EDGE_LOOP('',(#680,#686,#687,#693));
#680 = ORIENTED_EDGE('',*,*,#681,.F.);
#681 = EDGE_CURVE('',#602,#642,#682,.T.);
#682 = LINE('',#683,#684);
#683 = CARTESIAN_POINT('',(0.521,-1.07,0.));
#684 = VECTOR('',#685,1.);
#685 = DIRECTION('',(1.,0.,0.));
#686 = ORIENTED_EDGE('',*,*,#601,.T.);
#687 = ORIENTED_EDGE('',*,*,#688,.T.);
#688 = EDGE_CURVE('',#604,#644,#689,.T.);
#689 = LINE('',#690,#691);
#690 = CARTESIAN_POINT('',(0.521,-1.07,0.1));
#691 = VECTOR('',#692,1.);
#692 = DIRECTION('',(1.,0.,0.));
#693 = ORIENTED_EDGE('',*,*,#641,.F.);
#694 = PLANE('',#695);
#695 = AXIS2_PLACEMENT_3D('',#696,#697,#698);
#696 = CARTESIAN_POINT('',(0.521,-1.07,0.));
#697 = DIRECTION('',(0.,1.,0.));
#698 = DIRECTION('',(0.,-0.,1.));
#699 = ADVANCED_FACE('',(#700),#716,.T.);
#700 = FACE_BOUND('',#701,.T.);
#701 = EDGE_LOOP('',(#702,#708,#709,#715));
#702 = ORIENTED_EDGE('',*,*,#703,.F.);
#703 = EDGE_CURVE('',#612,#652,#704,.T.);
#704 = LINE('',#705,#706);
#705 = CARTESIAN_POINT('',(0.521,-0.78,0.));
#706 = VECTOR('',#707,1.);
#707 = DIRECTION('',(1.,0.,0.));
#708 = ORIENTED_EDGE('',*,*,#619,.T.);
#709 = ORIENTED_EDGE('',*,*,#710,.T.);
#710 = EDGE_CURVE('',#620,#660,#711,.T.);
#711 = LINE('',#712,#713);
#712 = CARTESIAN_POINT('',(0.521,-0.78,0.1));
#713 = VECTOR('',#714,1.);
#714 = DIRECTION('',(1.,0.,0.));
#715 = ORIENTED_EDGE('',*,*,#659,.F.);
#716 = PLANE('',#717);
#717 = AXIS2_PLACEMENT_3D('',#718,#719,#720);
#718 = CARTESIAN_POINT('',(0.521,-0.78,0.));
#719 = DIRECTION('',(0.,1.,0.));
#720 = DIRECTION('',(0.,-0.,1.));
#721 = ADVANCED_FACE('',(#722),#728,.F.);
#722 = FACE_BOUND('',#723,.F.);
#723 = EDGE_LOOP('',(#724,#725,#726,#727));
#724 = ORIENTED_EDGE('',*,*,#611,.F.);
#725 = ORIENTED_EDGE('',*,*,#681,.T.);
#726 = ORIENTED_EDGE('',*,*,#651,.T.);
#727 = ORIENTED_EDGE('',*,*,#703,.F.);
#728 = PLANE('',#729);
#729 = AXIS2_PLACEMENT_3D('',#730,#731,#732);
#730 = CARTESIAN_POINT('',(0.521,-1.07,0.));
#731 = DIRECTION('',(0.,0.,1.));
#732 = DIRECTION('',(1.,0.,-0.));
#733 = ADVANCED_FACE('',(#734),#740,.T.);
#734 = FACE_BOUND('',#735,.T.);
#735 = EDGE_LOOP('',(#736,#737,#738,#739));
#736 = ORIENTED_EDGE('',*,*,#627,.F.);
#737 = ORIENTED_EDGE('',*,*,#688,.T.);
#738 = ORIENTED_EDGE('',*,*,#667,.T.);
#739 = ORIENTED_EDGE('',*,*,#710,.F.);
#740 = PLANE('',#741);
#741 = AXIS2_PLACEMENT_3D('',#742,#743,#744);
#742 = CARTESIAN_POINT('',(0.521,-1.07,0.1));
#743 = DIRECTION('',(0.,0.,1.));
#744 = DIRECTION('',(1.,0.,-0.));
#745 = ( GEOMETRIC_REPRESENTATION_CONTEXT(3) 
GLOBAL_UNCERTAINTY_ASSIGNED_CONTEXT((#749)) GLOBAL_UNIT_ASSIGNED_CONTEXT
((#746,#747,#748)) REPRESENTATION_CONTEXT('Context #1',
  '3D Context with UNIT and UNCERTAINTY') );
#746 = ( LENGTH_UNIT() NAMED_UNIT(*) SI_UNIT(.MILLI.,.METRE.) );
#747 = ( NAMED_UNIT(*) PLANE_ANGLE_UNIT() SI_UNIT($,.RADIAN.) );
#748 = ( NAMED_UNIT(*) SI_UNIT($,.STERADIAN.) SOLID_ANGLE_UNIT() );
#749 = UNCERTAINTY_MEASURE_WITH_UNIT(LENGTH_MEASURE(1.E-07),#746,
  'distance_accuracy_value','confusion accuracy');
#750 = CONTEXT_DEPENDENT_SHAPE_REPRESENTATION(#751,#753);
#751 = ( REPRESENTATION_RELATIONSHIP('','',#594,#205) 
REPRESENTATION_RELATIONSHIP_WITH_TRANSFORMATION(#752) 
SHAPE_REPRESENTATION_RELATIONSHIP() );
#752 = ITEM_DEFINED_TRANSFORMATION('','',#11,#214);
#753 = PRODUCT_DEFINITION_SHAPE('Placement','Placement of an item',#754
  );
#754 = NEXT_ASSEMBLY_USAGE_OCCURRENCE('34','Pins002','',#200,#589,$);
#755 = PRODUCT_RELATED_PRODUCT_CATEGORY('part',$,(#591));
#756 = SHAPE_DEFINITION_REPRESENTATION(#757,#763);
#757 = PRODUCT_DEFINITION_SHAPE('','',#758);
#758 = PRODUCT_DEFINITION('design','',#759,#762);
#759 = PRODUCT_DEFINITION_FORMATION('','',#760);
#760 = PRODUCT('Pins003','Pins003','',(#761));
#761 = PRODUCT_CONTEXT('',#2,'mechanical');
#762 = PRODUCT_DEFINITION_CONTEXT('part definition',#2,'design');
#763 = ADVANCED_BREP_SHAPE_REPRESENTATION('',(#11,#764),#914);
#764 = MANIFOLD_SOLID_BREP('',#765);
#765 = CLOSED_SHELL('',(#766,#806,#846,#868,#890,#902));
#766 = ADVANCED_FACE('',(#767),#801,.F.);
#767 = FACE_BOUND('',#768,.F.);
#768 = EDGE_LOOP('',(#769,#779,#787,#795));
#769 = ORIENTED_EDGE('',*,*,#770,.F.);
#770 = EDGE_CURVE('',#771,#773,#775,.T.);
#771 = VERTEX_POINT('',#772);
#772 = CARTESIAN_POINT('',(0.521,0.78,0.));
#773 = VERTEX_POINT('',#774);
#774 = CARTESIAN_POINT('',(0.521,0.78,0.1));
#775 = LINE('',#776,#777);
#776 = CARTESIAN_POINT('',(0.521,0.78,0.));
#777 = VECTOR('',#778,1.);
#778 = DIRECTION('',(0.,0.,1.));
#779 = ORIENTED_EDGE('',*,*,#780,.T.);
#780 = EDGE_CURVE('',#771,#781,#783,.T.);
#781 = VERTEX_POINT('',#782);
#782 = CARTESIAN_POINT('',(0.521,1.07,0.));
#783 = LINE('',#784,#785);
#784 = CARTESIAN_POINT('',(0.521,0.78,0.));
#785 = VECTOR('',#786,1.);
#786 = DIRECTION('',(0.,1.,0.));
#787 = ORIENTED_EDGE('',*,*,#788,.T.);
#788 = EDGE_CURVE('',#781,#789,#791,.T.);
#789 = VERTEX_POINT('',#790);
#790 = CARTESIAN_POINT('',(0.521,1.07,0.1));
#791 = LINE('',#792,#793);
#792 = CARTESIAN_POINT('',(0.521,1.07,0.));
#793 = VECTOR('',#794,1.);
#794 = DIRECTION('',(0.,0.,1.));
#795 = ORIENTED_EDGE('',*,*,#796,.F.);
#796 = EDGE_CURVE('',#773,#789,#797,.T.);
#797 = LINE('',#798,#799);
#798 = CARTESIAN_POINT('',(0.521,0.78,0.1));
#799 = VECTOR('',#800,1.);
#800 = DIRECTION('',(0.,1.,0.));
#801 = PLANE('',#802);
#802 = AXIS2_PLACEMENT_3D('',#803,#804,#805);
#803 = CARTESIAN_POINT('',(0.521,0.78,0.));
#804 = DIRECTION('',(1.,0.,0.));
#805 = DIRECTION('',(0.,0.,1.));
#806 = ADVANCED_FACE('',(#807),#841,.T.);
#807 = FACE_BOUND('',#808,.T.);
#808 = EDGE_LOOP('',(#809,#819,#827,#835));
#809 = ORIENTED_EDGE('',*,*,#810,.F.);
#810 = EDGE_CURVE('',#811,#813,#815,.T.);
#811 = VERTEX_POINT('',#812);
#812 = CARTESIAN_POINT('',(0.761,0.78,0.));
#813 = VERTEX_POINT('',#814);
#814 = CARTESIAN_POINT('',(0.761,0.78,0.1));
#815 = LINE('',#816,#817);
#816 = CARTESIAN_POINT('',(0.761,0.78,0.));
#817 = VECTOR('',#818,1.);
#818 = DIRECTION('',(0.,0.,1.));
#819 = ORIENTED_EDGE('',*,*,#820,.T.);
#820 = EDGE_CURVE('',#811,#821,#823,.T.);
#821 = VERTEX_POINT('',#822);
#822 = CARTESIAN_POINT('',(0.761,1.07,0.));
#823 = LINE('',#824,#825);
#824 = CARTESIAN_POINT('',(0.761,0.78,0.));
#825 = VECTOR('',#826,1.);
#826 = DIRECTION('',(0.,1.,0.));
#827 = ORIENTED_EDGE('',*,*,#828,.T.);
#828 = EDGE_CURVE('',#821,#829,#831,.T.);
#829 = VERTEX_POINT('',#830);
#830 = CARTESIAN_POINT('',(0.761,1.07,0.1));
#831 = LINE('',#832,#833);
#832 = CARTESIAN_POINT('',(0.761,1.07,0.));
#833 = VECTOR('',#834,1.);
#834 = DIRECTION('',(0.,0.,1.));
#835 = ORIENTED_EDGE('',*,*,#836,.F.);
#836 = EDGE_CURVE('',#813,#829,#837,.T.);
#837 = LINE('',#838,#839);
#838 = CARTESIAN_POINT('',(0.761,0.78,0.1));
#839 = VECTOR('',#840,1.);
#840 = DIRECTION('',(0.,1.,0.));
#841 = PLANE('',#842);
#842 = AXIS2_PLACEMENT_3D('',#843,#844,#845);
#843 = CARTESIAN_POINT('',(0.761,0.78,0.));
#844 = DIRECTION('',(1.,0.,0.));
#845 = DIRECTION('',(0.,0.,1.));
#846 = ADVANCED_FACE('',(#847),#863,.F.);
#847 = FACE_BOUND('',#848,.F.);
#848 = EDGE_LOOP('',(#849,#855,#856,#862));
#849 = ORIENTED_EDGE('',*,*,#850,.F.);
#850 = EDGE_CURVE('',#771,#811,#851,.T.);
#851 = LINE('',#852,#853);
#852 = CARTESIAN_POINT('',(0.521,0.78,0.));
#853 = VECTOR('',#854,1.);
#854 = DIRECTION('',(1.,0.,0.));
#855 = ORIENTED_EDGE('',*,*,#770,.T.);
#856 = ORIENTED_EDGE('',*,*,#857,.T.);
#857 = EDGE_CURVE('',#773,#813,#858,.T.);
#858 = LINE('',#859,#860);
#859 = CARTESIAN_POINT('',(0.521,0.78,0.1));
#860 = VECTOR('',#861,1.);
#861 = DIRECTION('',(1.,0.,0.));
#862 = ORIENTED_EDGE('',*,*,#810,.F.);
#863 = PLANE('',#864);
#864 = AXIS2_PLACEMENT_3D('',#865,#866,#867);
#865 = CARTESIAN_POINT('',(0.521,0.78,0.));
#866 = DIRECTION('',(0.,1.,0.));
#867 = DIRECTION('',(0.,-0.,1.));
#868 = ADVANCED_FACE('',(#869),#885,.T.);
#869 = FACE_BOUND('',#870,.T.);
#870 = EDGE_LOOP('',(#871,#877,#878,#884));
#871 = ORIENTED_EDGE('',*,*,#872,.F.);
#872 = EDGE_CURVE('',#781,#821,#873,.T.);
#873 = LINE('',#874,#875);
#874 = CARTESIAN_POINT('',(0.521,1.07,0.));
#875 = VECTOR('',#876,1.);
#876 = DIRECTION('',(1.,0.,0.));
#877 = ORIENTED_EDGE('',*,*,#788,.T.);
#878 = ORIENTED_EDGE('',*,*,#879,.T.);
#879 = EDGE_CURVE('',#789,#829,#880,.T.);
#880 = LINE('',#881,#882);
#881 = CARTESIAN_POINT('',(0.521,1.07,0.1));
#882 = VECTOR('',#883,1.);
#883 = DIRECTION('',(1.,0.,0.));
#884 = ORIENTED_EDGE('',*,*,#828,.F.);
#885 = PLANE('',#886);
#886 = AXIS2_PLACEMENT_3D('',#887,#888,#889);
#887 = CARTESIAN_POINT('',(0.521,1.07,0.));
#888 = DIRECTION('',(0.,1.,0.));
#889 = DIRECTION('',(0.,-0.,1.));
#890 = ADVANCED_FACE('',(#891),#897,.F.);
#891 = FACE_BOUND('',#892,.F.);
#892 = EDGE_LOOP('',(#893,#894,#895,#896));
#893 = ORIENTED_EDGE('',*,*,#780,.F.);
#894 = ORIENTED_EDGE('',*,*,#850,.T.);
#895 = ORIENTED_EDGE('',*,*,#820,.T.);
#896 = ORIENTED_EDGE('',*,*,#872,.F.);
#897 = PLANE('',#898);
#898 = AXIS2_PLACEMENT_3D('',#899,#900,#901);
#899 = CARTESIAN_POINT('',(0.521,0.78,0.));
#900 = DIRECTION('',(0.,0.,1.));
#901 = DIRECTION('',(1.,0.,-0.));
#902 = ADVANCED_FACE('',(#903),#909,.T.);
#903 = FACE_BOUND('',#904,.T.);
#904 = EDGE_LOOP('',(#905,#906,#907,#908));
#905 = ORIENTED_EDGE('',*,*,#796,.F.);
#906 = ORIENTED_EDGE('',*,*,#857,.T.);
#907 = ORIENTED_EDGE('',*,*,#836,.T.);
#908 = ORIENTED_EDGE('',*,*,#879,.F.);
#909 = PLANE('',#910);
#910 = AXIS2_PLACEMENT_3D('',#911,#912,#913);
#911 = CARTESIAN_POINT('',(0.521,0.78,0.1));
#912 = DIRECTION('',(0.,0.,1.));
#913 = DIRECTION('',(1.,0.,-0.));
#914 = ( GEOMETRIC_REPRESENTATION_CONTEXT(3) 
GLOBAL_UNCERTAINTY_ASSIGNED_CONTEXT((#918)) GLOBAL_UNIT_ASSIGNED_CONTEXT
((#915,#916,#917)) REPRESENTATION_CONTEXT('Context #1',
  '3D Context with UNIT and UNCERTAINTY') );
#915 = ( LENGTH_UNIT() NAMED_UNIT(*) SI_UNIT(.MILLI.,.METRE.) );
#916 = ( NAMED_UNIT(*) PLANE_ANGLE_UNIT() SI_UNIT($,.RADIAN.) );
#917 = ( NAMED_UNIT(*) SI_UNIT($,.STERADIAN.) SOLID_ANGLE_UNIT() );
#918 = UNCERTAINTY_MEASURE_WITH_UNIT(LENGTH_MEASURE(1.E-07),#915,
  'distance_accuracy_value','confusion accuracy');
#919 = CONTEXT_DEPENDENT_SHAPE_REPRESENTATION(#920,#922);
#920 = ( REPRESENTATION_RELATIONSHIP('','',#763,#205) 
REPRESENTATION_RELATIONSHIP_WITH_TRANSFORMATION(#921) 
SHAPE_REPRESENTATION_RELATIONSHIP() );
#921 = ITEM_DEFINED_TRANSFORMATION('','',#11,#218);
#922 = PRODUCT_DEFINITION_SHAPE('Placement','Placement of an item',#923
  );
#923 = NEXT_ASSEMBLY_USAGE_OCCURRENCE('35','Pins003','',#200,#758,$);
#924 = PRODUCT_RELATED_PRODUCT_CATEGORY('part',$,(#760));
#925 = SHAPE_DEFINITION_REPRESENTATION(#926,#932);
#926 = PRODUCT_DEFINITION_SHAPE('','',#927);
#927 = PRODUCT_DEFINITION('design','',#928,#931);
#928 = PRODUCT_DEFINITION_FORMATION('','',#929);
#929 = PRODUCT('Pins004','Pins004','',(#930));
#930 = PRODUCT_CONTEXT('',#2,'mechanical');
#931 = PRODUCT_DEFINITION_CONTEXT('part definition',#2,'design');
#932 = ADVANCED_BREP_SHAPE_REPRESENTATION('',(#11,#933),#1083);
#933 = MANIFOLD_SOLID_BREP('',#934);
#934 = CLOSED_SHELL('',(#935,#975,#1015,#1037,#1059,#1071));
#935 = ADVANCED_FACE('',(#936),#970,.F.);
#936 = FACE_BOUND('',#937,.F.);
#937 = EDGE_LOOP('',(#938,#948,#956,#964));
#938 = ORIENTED_EDGE('',*,*,#939,.F.);
#939 = EDGE_CURVE('',#940,#942,#944,.T.);
#940 = VERTEX_POINT('',#941);
#941 = CARTESIAN_POINT('',(-0.129,0.78,0.));
#942 = VERTEX_POINT('',#943);
#943 = CARTESIAN_POINT('',(-0.129,0.78,0.1));
#944 = LINE('',#945,#946);
#945 = CARTESIAN_POINT('',(-0.129,0.78,0.));
#946 = VECTOR('',#947,1.);
#947 = DIRECTION('',(0.,0.,1.));
#948 = ORIENTED_EDGE('',*,*,#949,.T.);
#949 = EDGE_CURVE('',#940,#950,#952,.T.);
#950 = VERTEX_POINT('',#951);
#951 = CARTESIAN_POINT('',(-0.129,1.07,0.));
#952 = LINE('',#953,#954);
#953 = CARTESIAN_POINT('',(-0.129,0.78,0.));
#954 = VECTOR('',#955,1.);
#955 = DIRECTION('',(0.,1.,0.));
#956 = ORIENTED_EDGE('',*,*,#957,.T.);
#957 = EDGE_CURVE('',#950,#958,#960,.T.);
#958 = VERTEX_POINT('',#959);
#959 = CARTESIAN_POINT('',(-0.129,1.07,0.1));
#960 = LINE('',#961,#962);
#961 = CARTESIAN_POINT('',(-0.129,1.07,0.));
#962 = VECTOR('',#963,1.);
#963 = DIRECTION('',(0.,0.,1.));
#964 = ORIENTED_EDGE('',*,*,#965,.F.);
#965 = EDGE_CURVE('',#942,#958,#966,.T.);
#966 = LINE('',#967,#968);
#967 = CARTESIAN_POINT('',(-0.129,0.78,0.1));
#968 = VECTOR('',#969,1.);
#969 = DIRECTION('',(0.,1.,0.));
#970 = PLANE('',#971);
#971 = AXIS2_PLACEMENT_3D('',#972,#973,#974);
#972 = CARTESIAN_POINT('',(-0.129,0.78,0.));
#973 = DIRECTION('',(1.,0.,0.));
#974 = DIRECTION('',(0.,0.,1.));
#975 = ADVANCED_FACE('',(#976),#1010,.T.);
#976 = FACE_BOUND('',#977,.T.);
#977 = EDGE_LOOP('',(#978,#988,#996,#1004));
#978 = ORIENTED_EDGE('',*,*,#979,.F.);
#979 = EDGE_CURVE('',#980,#982,#984,.T.);
#980 = VERTEX_POINT('',#981);
#981 = CARTESIAN_POINT('',(0.111,0.78,0.));
#982 = VERTEX_POINT('',#983);
#983 = CARTESIAN_POINT('',(0.111,0.78,0.1));
#984 = LINE('',#985,#986);
#985 = CARTESIAN_POINT('',(0.111,0.78,0.));
#986 = VECTOR('',#987,1.);
#987 = DIRECTION('',(0.,0.,1.));
#988 = ORIENTED_EDGE('',*,*,#989,.T.);
#989 = EDGE_CURVE('',#980,#990,#992,.T.);
#990 = VERTEX_POINT('',#991);
#991 = CARTESIAN_POINT('',(0.111,1.07,0.));
#992 = LINE('',#993,#994);
#993 = CARTESIAN_POINT('',(0.111,0.78,0.));
#994 = VECTOR('',#995,1.);
#995 = DIRECTION('',(0.,1.,0.));
#996 = ORIENTED_EDGE('',*,*,#997,.T.);
#997 = EDGE_CURVE('',#990,#998,#1000,.T.);
#998 = VERTEX_POINT('',#999);
#999 = CARTESIAN_POINT('',(0.111,1.07,0.1));
#1000 = LINE('',#1001,#1002);
#1001 = CARTESIAN_POINT('',(0.111,1.07,0.));
#1002 = VECTOR('',#1003,1.);
#1003 = DIRECTION('',(0.,0.,1.));
#1004 = ORIENTED_EDGE('',*,*,#1005,.F.);
#1005 = EDGE_CURVE('',#982,#998,#1006,.T.);
#1006 = LINE('',#1007,#1008);
#1007 = CARTESIAN_POINT('',(0.111,0.78,0.1));
#1008 = VECTOR('',#1009,1.);
#1009 = DIRECTION('',(0.,1.,0.));
#1010 = PLANE('',#1011);
#1011 = AXIS2_PLACEMENT_3D('',#1012,#1013,#1014);
#1012 = CARTESIAN_POINT('',(0.111,0.78,0.));
#1013 = DIRECTION('',(1.,0.,0.));
#1014 = DIRECTION('',(0.,0.,1.));
#1015 = ADVANCED_FACE('',(#1016),#1032,.F.);
#1016 = FACE_BOUND('',#1017,.F.);
#1017 = EDGE_LOOP('',(#1018,#1024,#1025,#1031));
#1018 = ORIENTED_EDGE('',*,*,#1019,.F.);
#1019 = EDGE_CURVE('',#940,#980,#1020,.T.);
#1020 = LINE('',#1021,#1022);
#1021 = CARTESIAN_POINT('',(-0.129,0.78,0.));
#1022 = VECTOR('',#1023,1.);
#1023 = DIRECTION('',(1.,0.,0.));
#1024 = ORIENTED_EDGE('',*,*,#939,.T.);
#1025 = ORIENTED_EDGE('',*,*,#1026,.T.);
#1026 = EDGE_CURVE('',#942,#982,#1027,.T.);
#1027 = LINE('',#1028,#1029);
#1028 = CARTESIAN_POINT('',(-0.129,0.78,0.1));
#1029 = VECTOR('',#1030,1.);
#1030 = DIRECTION('',(1.,0.,0.));
#1031 = ORIENTED_EDGE('',*,*,#979,.F.);
#1032 = PLANE('',#1033);
#1033 = AXIS2_PLACEMENT_3D('',#1034,#1035,#1036);
#1034 = CARTESIAN_POINT('',(-0.129,0.78,0.));
#1035 = DIRECTION('',(0.,1.,0.));
#1036 = DIRECTION('',(0.,-0.,1.));
#1037 = ADVANCED_FACE('',(#1038),#1054,.T.);
#1038 = FACE_BOUND('',#1039,.T.);
#1039 = EDGE_LOOP('',(#1040,#1046,#1047,#1053));
#1040 = ORIENTED_EDGE('',*,*,#1041,.F.);
#1041 = EDGE_CURVE('',#950,#990,#1042,.T.);
#1042 = LINE('',#1043,#1044);
#1043 = CARTESIAN_POINT('',(-0.129,1.07,0.));
#1044 = VECTOR('',#1045,1.);
#1045 = DIRECTION('',(1.,0.,0.));
#1046 = ORIENTED_EDGE('',*,*,#957,.T.);
#1047 = ORIENTED_EDGE('',*,*,#1048,.T.);
#1048 = EDGE_CURVE('',#958,#998,#1049,.T.);
#1049 = LINE('',#1050,#1051);
#1050 = CARTESIAN_POINT('',(-0.129,1.07,0.1));
#1051 = VECTOR('',#1052,1.);
#1052 = DIRECTION('',(1.,0.,0.));
#1053 = ORIENTED_EDGE('',*,*,#997,.F.);
#1054 = PLANE('',#1055);
#1055 = AXIS2_PLACEMENT_3D('',#1056,#1057,#1058);
#1056 = CARTESIAN_POINT('',(-0.129,1.07,0.));
#1057 = DIRECTION('',(0.,1.,0.));
#1058 = DIRECTION('',(0.,-0.,1.));
#1059 = ADVANCED_FACE('',(#1060),#1066,.F.);
#1060 = FACE_BOUND('',#1061,.F.);
#1061 = EDGE_LOOP('',(#1062,#1063,#1064,#1065));
#1062 = ORIENTED_EDGE('',*,*,#949,.F.);
#1063 = ORIENTED_EDGE('',*,*,#1019,.T.);
#1064 = ORIENTED_EDGE('',*,*,#989,.T.);
#1065 = ORIENTED_EDGE('',*,*,#1041,.F.);
#1066 = PLANE('',#1067);
#1067 = AXIS2_PLACEMENT_3D('',#1068,#1069,#1070);
#1068 = CARTESIAN_POINT('',(-0.129,0.78,0.));
#1069 = DIRECTION('',(0.,0.,1.));
#1070 = DIRECTION('',(1.,0.,-0.));
#1071 = ADVANCED_FACE('',(#1072),#1078,.T.);
#1072 = FACE_BOUND('',#1073,.T.);
#1073 = EDGE_LOOP('',(#1074,#1075,#1076,#1077));
#1074 = ORIENTED_EDGE('',*,*,#965,.F.);
#1075 = ORIENTED_EDGE('',*,*,#1026,.T.);
#1076 = ORIENTED_EDGE('',*,*,#1005,.T.);
#1077 = ORIENTED_EDGE('',*,*,#1048,.F.);
#1078 = PLANE('',#1079);
#1079 = AXIS2_PLACEMENT_3D('',#1080,#1081,#1082);
#1080 = CARTESIAN_POINT('',(-0.129,0.78,0.1));
#1081 = DIRECTION('',(0.,0.,1.));
#1082 = DIRECTION('',(1.,0.,-0.));
#1083 = ( GEOMETRIC_REPRESENTATION_CONTEXT(3) 
GLOBAL_UNCERTAINTY_ASSIGNED_CONTEXT((#1087)) 
GLOBAL_UNIT_ASSIGNED_CONTEXT((#1084,#1085,#1086)) REPRESENTATION_CONTEXT
('Context #1','3D Context with UNIT and UNCERTAINTY') );
#1084 = ( LENGTH_UNIT() NAMED_UNIT(*) SI_UNIT(.MILLI.,.METRE.) );
#1085 = ( NAMED_UNIT(*) PLANE_ANGLE_UNIT() SI_UNIT($,.RADIAN.) );
#1086 = ( NAMED_UNIT(*) SI_UNIT($,.STERADIAN.) SOLID_ANGLE_UNIT() );
#1087 = UNCERTAINTY_MEASURE_WITH_UNIT(LENGTH_MEASURE(1.E-07),#1084,
  'distance_accuracy_value','confusion accuracy');
#1088 = CONTEXT_DEPENDENT_SHAPE_REPRESENTATION(#1089,#1091);
#1089 = ( REPRESENTATION_RELATIONSHIP('','',#932,#205) 
REPRESENTATION_RELATIONSHIP_WITH_TRANSFORMATION(#1090) 
SHAPE_REPRESENTATION_RELATIONSHIP() );
#1090 = ITEM_DEFINED_TRANSFORMATION('','',#11,#222);
#1091 = PRODUCT_DEFINITION_SHAPE('Placement','Placement of an item',
  #1092);
#1092 = NEXT_ASSEMBLY_USAGE_OCCURRENCE('36','Pins004','',#200,#927,$);
#1093 = PRODUCT_RELATED_PRODUCT_CATEGORY('part',$,(#929));
#1094 = SHAPE_DEFINITION_REPRESENTATION(#1095,#1101);
#1095 = PRODUCT_DEFINITION_SHAPE('','',#1096);
#1096 = PRODUCT_DEFINITION('design','',#1097,#1100);
#1097 = PRODUCT_DEFINITION_FORMATION('','',#1098);
#1098 = PRODUCT('Pins005','Pins005','',(#1099));
#1099 = PRODUCT_CONTEXT('',#2,'mechanical');
#1100 = PRODUCT_DEFINITION_CONTEXT('part definition',#2,'design');
#1101 = ADVANCED_BREP_SHAPE_REPRESENTATION('',(#11,#1102),#1252);
#1102 = MANIFOLD_SOLID_BREP('',#1103);
#1103 = CLOSED_SHELL('',(#1104,#1144,#1184,#1206,#1228,#1240));
#1104 = ADVANCED_FACE('',(#1105),#1139,.F.);
#1105 = FACE_BOUND('',#1106,.F.);
#1106 = EDGE_LOOP('',(#1107,#1117,#1125,#1133));
#1107 = ORIENTED_EDGE('',*,*,#1108,.F.);
#1108 = EDGE_CURVE('',#1109,#1111,#1113,.T.);
#1109 = VERTEX_POINT('',#1110);
#1110 = CARTESIAN_POINT('',(-0.779,0.78,0.));
#1111 = VERTEX_POINT('',#1112);
#1112 = CARTESIAN_POINT('',(-0.779,0.78,0.1));
#1113 = LINE('',#1114,#1115);
#1114 = CARTESIAN_POINT('',(-0.779,0.78,0.));
#1115 = VECTOR('',#1116,1.);
#1116 = DIRECTION('',(0.,0.,1.));
#1117 = ORIENTED_EDGE('',*,*,#1118,.T.);
#1118 = EDGE_CURVE('',#1109,#1119,#1121,.T.);
#1119 = VERTEX_POINT('',#1120);
#1120 = CARTESIAN_POINT('',(-0.779,1.07,0.));
#1121 = LINE('',#1122,#1123);
#1122 = CARTESIAN_POINT('',(-0.779,0.78,0.));
#1123 = VECTOR('',#1124,1.);
#1124 = DIRECTION('',(0.,1.,0.));
#1125 = ORIENTED_EDGE('',*,*,#1126,.T.);
#1126 = EDGE_CURVE('',#1119,#1127,#1129,.T.);
#1127 = VERTEX_POINT('',#1128);
#1128 = CARTESIAN_POINT('',(-0.779,1.07,0.1));
#1129 = LINE('',#1130,#1131);
#1130 = CARTESIAN_POINT('',(-0.779,1.07,0.));
#1131 = VECTOR('',#1132,1.);
#1132 = DIRECTION('',(0.,0.,1.));
#1133 = ORIENTED_EDGE('',*,*,#1134,.F.);
#1134 = EDGE_CURVE('',#1111,#1127,#1135,.T.);
#1135 = LINE('',#1136,#1137);
#1136 = CARTESIAN_POINT('',(-0.779,0.78,0.1));
#1137 = VECTOR('',#1138,1.);
#1138 = DIRECTION('',(0.,1.,0.));
#1139 = PLANE('',#1140);
#1140 = AXIS2_PLACEMENT_3D('',#1141,#1142,#1143);
#1141 = CARTESIAN_POINT('',(-0.779,0.78,0.));
#1142 = DIRECTION('',(1.,0.,0.));
#1143 = DIRECTION('',(0.,0.,1.));
#1144 = ADVANCED_FACE('',(#1145),#1179,.T.);
#1145 = FACE_BOUND('',#1146,.T.);
#1146 = EDGE_LOOP('',(#1147,#1157,#1165,#1173));
#1147 = ORIENTED_EDGE('',*,*,#1148,.F.);
#1148 = EDGE_CURVE('',#1149,#1151,#1153,.T.);
#1149 = VERTEX_POINT('',#1150);
#1150 = CARTESIAN_POINT('',(-0.539,0.78,0.));
#1151 = VERTEX_POINT('',#1152);
#1152 = CARTESIAN_POINT('',(-0.539,0.78,0.1));
#1153 = LINE('',#1154,#1155);
#1154 = CARTESIAN_POINT('',(-0.539,0.78,0.));
#1155 = VECTOR('',#1156,1.);
#1156 = DIRECTION('',(0.,0.,1.));
#1157 = ORIENTED_EDGE('',*,*,#1158,.T.);
#1158 = EDGE_CURVE('',#1149,#1159,#1161,.T.);
#1159 = VERTEX_POINT('',#1160);
#1160 = CARTESIAN_POINT('',(-0.539,1.07,0.));
#1161 = LINE('',#1162,#1163);
#1162 = CARTESIAN_POINT('',(-0.539,0.78,0.));
#1163 = VECTOR('',#1164,1.);
#1164 = DIRECTION('',(0.,1.,0.));
#1165 = ORIENTED_EDGE('',*,*,#1166,.T.);
#1166 = EDGE_CURVE('',#1159,#1167,#1169,.T.);
#1167 = VERTEX_POINT('',#1168);
#1168 = CARTESIAN_POINT('',(-0.539,1.07,0.1));
#1169 = LINE('',#1170,#1171);
#1170 = CARTESIAN_POINT('',(-0.539,1.07,0.));
#1171 = VECTOR('',#1172,1.);
#1172 = DIRECTION('',(0.,0.,1.));
#1173 = ORIENTED_EDGE('',*,*,#1174,.F.);
#1174 = EDGE_CURVE('',#1151,#1167,#1175,.T.);
#1175 = LINE('',#1176,#1177);
#1176 = CARTESIAN_POINT('',(-0.539,0.78,0.1));
#1177 = VECTOR('',#1178,1.);
#1178 = DIRECTION('',(0.,1.,0.));
#1179 = PLANE('',#1180);
#1180 = AXIS2_PLACEMENT_3D('',#1181,#1182,#1183);
#1181 = CARTESIAN_POINT('',(-0.539,0.78,0.));
#1182 = DIRECTION('',(1.,0.,0.));
#1183 = DIRECTION('',(0.,0.,1.));
#1184 = ADVANCED_FACE('',(#1185),#1201,.F.);
#1185 = FACE_BOUND('',#1186,.F.);
#1186 = EDGE_LOOP('',(#1187,#1193,#1194,#1200));
#1187 = ORIENTED_EDGE('',*,*,#1188,.F.);
#1188 = EDGE_CURVE('',#1109,#1149,#1189,.T.);
#1189 = LINE('',#1190,#1191);
#1190 = CARTESIAN_POINT('',(-0.779,0.78,0.));
#1191 = VECTOR('',#1192,1.);
#1192 = DIRECTION('',(1.,0.,0.));
#1193 = ORIENTED_EDGE('',*,*,#1108,.T.);
#1194 = ORIENTED_EDGE('',*,*,#1195,.T.);
#1195 = EDGE_CURVE('',#1111,#1151,#1196,.T.);
#1196 = LINE('',#1197,#1198);
#1197 = CARTESIAN_POINT('',(-0.779,0.78,0.1));
#1198 = VECTOR('',#1199,1.);
#1199 = DIRECTION('',(1.,0.,0.));
#1200 = ORIENTED_EDGE('',*,*,#1148,.F.);
#1201 = PLANE('',#1202);
#1202 = AXIS2_PLACEMENT_3D('',#1203,#1204,#1205);
#1203 = CARTESIAN_POINT('',(-0.779,0.78,0.));
#1204 = DIRECTION('',(0.,1.,0.));
#1205 = DIRECTION('',(0.,-0.,1.));
#1206 = ADVANCED_FACE('',(#1207),#1223,.T.);
#1207 = FACE_BOUND('',#1208,.T.);
#1208 = EDGE_LOOP('',(#1209,#1215,#1216,#1222));
#1209 = ORIENTED_EDGE('',*,*,#1210,.F.);
#1210 = EDGE_CURVE('',#1119,#1159,#1211,.T.);
#1211 = LINE('',#1212,#1213);
#1212 = CARTESIAN_POINT('',(-0.779,1.07,0.));
#1213 = VECTOR('',#1214,1.);
#1214 = DIRECTION('',(1.,0.,0.));
#1215 = ORIENTED_EDGE('',*,*,#1126,.T.);
#1216 = ORIENTED_EDGE('',*,*,#1217,.T.);
#1217 = EDGE_CURVE('',#1127,#1167,#1218,.T.);
#1218 = LINE('',#1219,#1220);
#1219 = CARTESIAN_POINT('',(-0.779,1.07,0.1));
#1220 = VECTOR('',#1221,1.);
#1221 = DIRECTION('',(1.,0.,0.));
#1222 = ORIENTED_EDGE('',*,*,#1166,.F.);
#1223 = PLANE('',#1224);
#1224 = AXIS2_PLACEMENT_3D('',#1225,#1226,#1227);
#1225 = CARTESIAN_POINT('',(-0.779,1.07,0.));
#1226 = DIRECTION('',(0.,1.,0.));
#1227 = DIRECTION('',(0.,-0.,1.));
#1228 = ADVANCED_FACE('',(#1229),#1235,.F.);
#1229 = FACE_BOUND('',#1230,.F.);
#1230 = EDGE_LOOP('',(#1231,#1232,#1233,#1234));
#1231 = ORIENTED_EDGE('',*,*,#1118,.F.);
#1232 = ORIENTED_EDGE('',*,*,#1188,.T.);
#1233 = ORIENTED_EDGE('',*,*,#1158,.T.);
#1234 = ORIENTED_EDGE('',*,*,#1210,.F.);
#1235 = PLANE('',#1236);
#1236 = AXIS2_PLACEMENT_3D('',#1237,#1238,#1239);
#1237 = CARTESIAN_POINT('',(-0.779,0.78,0.));
#1238 = DIRECTION('',(0.,0.,1.));
#1239 = DIRECTION('',(1.,0.,-0.));
#1240 = ADVANCED_FACE('',(#1241),#1247,.T.);
#1241 = FACE_BOUND('',#1242,.T.);
#1242 = EDGE_LOOP('',(#1243,#1244,#1245,#1246));
#1243 = ORIENTED_EDGE('',*,*,#1134,.F.);
#1244 = ORIENTED_EDGE('',*,*,#1195,.T.);
#1245 = ORIENTED_EDGE('',*,*,#1174,.T.);
#1246 = ORIENTED_EDGE('',*,*,#1217,.F.);
#1247 = PLANE('',#1248);
#1248 = AXIS2_PLACEMENT_3D('',#1249,#1250,#1251);
#1249 = CARTESIAN_POINT('',(-0.779,0.78,0.1));
#1250 = DIRECTION('',(0.,0.,1.));
#1251 = DIRECTION('',(1.,0.,-0.));
#1252 = ( GEOMETRIC_REPRESENTATION_CONTEXT(3) 
GLOBAL_UNCERTAINTY_ASSIGNED_CONTEXT((#1256)) 
GLOBAL_UNIT_ASSIGNED_CONTEXT((#1253,#1254,#1255)) REPRESENTATION_CONTEXT
('Context #1','3D Context with UNIT and UNCERTAINTY') );
#1253 = ( LENGTH_UNIT() NAMED_UNIT(*) SI_UNIT(.MILLI.,.METRE.) );
#1254 = ( NAMED_UNIT(*) PLANE_ANGLE_UNIT() SI_UNIT($,.RADIAN.) );
#1255 = ( NAMED_UNIT(*) SI_UNIT($,.STERADIAN.) SOLID_ANGLE_UNIT() );
#1256 = UNCERTAINTY_MEASURE_WITH_UNIT(LENGTH_MEASURE(1.E-07),#1253,
  'distance_accuracy_value','confusion accuracy');
#1257 = CONTEXT_DEPENDENT_SHAPE_REPRESENTATION(#1258,#1260);
#1258 = ( REPRESENTATION_RELATIONSHIP('','',#1101,#205) 
REPRESENTATION_RELATIONSHIP_WITH_TRANSFORMATION(#1259) 
SHAPE_REPRESENTATION_RELATIONSHIP() );
#1259 = ITEM_DEFINED_TRANSFORMATION('','',#11,#226);
#1260 = PRODUCT_DEFINITION_SHAPE('Placement','Placement of an item',
  #1261);
#1261 = NEXT_ASSEMBLY_USAGE_OCCURRENCE('37','Pins005','',#200,#1096,$);
#1262 = PRODUCT_RELATED_PRODUCT_CATEGORY('part',$,(#1098));
#1263 = SHAPE_DEFINITION_REPRESENTATION(#1264,#1270);
#1264 = PRODUCT_DEFINITION_SHAPE('','',#1265);
#1265 = PRODUCT_DEFINITION('design','',#1266,#1269);
#1266 = PRODUCT_DEFINITION_FORMATION('','',#1267);
#1267 = PRODUCT('Pins006','Pins006','',(#1268));
#1268 = PRODUCT_CONTEXT('',#2,'mechanical');
#1269 = PRODUCT_DEFINITION_CONTEXT('part definition',#2,'design');
#1270 = ADVANCED_BREP_SHAPE_REPRESENTATION('',(#11,#1271),#1421);
#1271 = MANIFOLD_SOLID_BREP('',#1272);
#1272 = CLOSED_SHELL('',(#1273,#1313,#1353,#1375,#1397,#1409));
#1273 = ADVANCED_FACE('',(#1274),#1308,.F.);
#1274 = FACE_BOUND('',#1275,.F.);
#1275 = EDGE_LOOP('',(#1276,#1286,#1294,#1302));
#1276 = ORIENTED_EDGE('',*,*,#1277,.F.);
#1277 = EDGE_CURVE('',#1278,#1280,#1282,.T.);
#1278 = VERTEX_POINT('',#1279);
#1279 = CARTESIAN_POINT('',(-0.714,-0.655,0.));
#1280 = VERTEX_POINT('',#1281);
#1281 = CARTESIAN_POINT('',(-0.714,-0.655,0.1));
#1282 = LINE('',#1283,#1284);
#1283 = CARTESIAN_POINT('',(-0.714,-0.655,0.));
#1284 = VECTOR('',#1285,1.);
#1285 = DIRECTION('',(0.,0.,1.));
#1286 = ORIENTED_EDGE('',*,*,#1287,.T.);
#1287 = EDGE_CURVE('',#1278,#1288,#1290,.T.);
#1288 = VERTEX_POINT('',#1289);
#1289 = CARTESIAN_POINT('',(-0.714,0.655,0.));
#1290 = LINE('',#1291,#1292);
#1291 = CARTESIAN_POINT('',(-0.714,-0.655,0.));
#1292 = VECTOR('',#1293,1.);
#1293 = DIRECTION('',(0.,1.,0.));
#1294 = ORIENTED_EDGE('',*,*,#1295,.T.);
#1295 = EDGE_CURVE('',#1288,#1296,#1298,.T.);
#1296 = VERTEX_POINT('',#1297);
#1297 = CARTESIAN_POINT('',(-0.714,0.655,0.1));
#1298 = LINE('',#1299,#1300);
#1299 = CARTESIAN_POINT('',(-0.714,0.655,0.));
#1300 = VECTOR('',#1301,1.);
#1301 = DIRECTION('',(0.,0.,1.));
#1302 = ORIENTED_EDGE('',*,*,#1303,.F.);
#1303 = EDGE_CURVE('',#1280,#1296,#1304,.T.);
#1304 = LINE('',#1305,#1306);
#1305 = CARTESIAN_POINT('',(-0.714,-0.655,0.1));
#1306 = VECTOR('',#1307,1.);
#1307 = DIRECTION('',(0.,1.,0.));
#1308 = PLANE('',#1309);
#1309 = AXIS2_PLACEMENT_3D('',#1310,#1311,#1312);
#1310 = CARTESIAN_POINT('',(-0.714,-0.655,0.));
#1311 = DIRECTION('',(1.,0.,0.));
#1312 = DIRECTION('',(0.,0.,1.));
#1313 = ADVANCED_FACE('',(#1314),#1348,.T.);
#1314 = FACE_BOUND('',#1315,.T.);
#1315 = EDGE_LOOP('',(#1316,#1326,#1334,#1342));
#1316 = ORIENTED_EDGE('',*,*,#1317,.F.);
#1317 = EDGE_CURVE('',#1318,#1320,#1322,.T.);
#1318 = VERTEX_POINT('',#1319);
#1319 = CARTESIAN_POINT('',(4.6E-02,-0.655,0.));
#1320 = VERTEX_POINT('',#1321);
#1321 = CARTESIAN_POINT('',(4.6E-02,-0.655,0.1));
#1322 = LINE('',#1323,#1324);
#1323 = CARTESIAN_POINT('',(4.6E-02,-0.655,0.));
#1324 = VECTOR('',#1325,1.);
#1325 = DIRECTION('',(0.,0.,1.));
#1326 = ORIENTED_EDGE('',*,*,#1327,.T.);
#1327 = EDGE_CURVE('',#1318,#1328,#1330,.T.);
#1328 = VERTEX_POINT('',#1329);
#1329 = CARTESIAN_POINT('',(4.6E-02,0.655,0.));
#1330 = LINE('',#1331,#1332);
#1331 = CARTESIAN_POINT('',(4.6E-02,-0.655,0.));
#1332 = VECTOR('',#1333,1.);
#1333 = DIRECTION('',(0.,1.,0.));
#1334 = ORIENTED_EDGE('',*,*,#1335,.T.);
#1335 = EDGE_CURVE('',#1328,#1336,#1338,.T.);
#1336 = VERTEX_POINT('',#1337);
#1337 = CARTESIAN_POINT('',(4.6E-02,0.655,0.1));
#1338 = LINE('',#1339,#1340);
#1339 = CARTESIAN_POINT('',(4.6E-02,0.655,0.));
#1340 = VECTOR('',#1341,1.);
#1341 = DIRECTION('',(0.,0.,1.));
#1342 = ORIENTED_EDGE('',*,*,#1343,.F.);
#1343 = EDGE_CURVE('',#1320,#1336,#1344,.T.);
#1344 = LINE('',#1345,#1346);
#1345 = CARTESIAN_POINT('',(4.6E-02,-0.655,0.1));
#1346 = VECTOR('',#1347,1.);
#1347 = DIRECTION('',(0.,1.,0.));
#1348 = PLANE('',#1349);
#1349 = AXIS2_PLACEMENT_3D('',#1350,#1351,#1352);
#1350 = CARTESIAN_POINT('',(4.6E-02,-0.655,0.));
#1351 = DIRECTION('',(1.,0.,0.));
#1352 = DIRECTION('',(0.,0.,1.));
#1353 = ADVANCED_FACE('',(#1354),#1370,.F.);
#1354 = FACE_BOUND('',#1355,.F.);
#1355 = EDGE_LOOP('',(#1356,#1362,#1363,#1369));
#1356 = ORIENTED_EDGE('',*,*,#1357,.F.);
#1357 = EDGE_CURVE('',#1278,#1318,#1358,.T.);
#1358 = LINE('',#1359,#1360);
#1359 = CARTESIAN_POINT('',(-0.714,-0.655,0.));
#1360 = VECTOR('',#1361,1.);
#1361 = DIRECTION('',(1.,0.,0.));
#1362 = ORIENTED_EDGE('',*,*,#1277,.T.);
#1363 = ORIENTED_EDGE('',*,*,#1364,.T.);
#1364 = EDGE_CURVE('',#1280,#1320,#1365,.T.);
#1365 = LINE('',#1366,#1367);
#1366 = CARTESIAN_POINT('',(-0.714,-0.655,0.1));
#1367 = VECTOR('',#1368,1.);
#1368 = DIRECTION('',(1.,0.,0.));
#1369 = ORIENTED_EDGE('',*,*,#1317,.F.);
#1370 = PLANE('',#1371);
#1371 = AXIS2_PLACEMENT_3D('',#1372,#1373,#1374);
#1372 = CARTESIAN_POINT('',(-0.714,-0.655,0.));
#1373 = DIRECTION('',(0.,1.,0.));
#1374 = DIRECTION('',(0.,-0.,1.));
#1375 = ADVANCED_FACE('',(#1376),#1392,.T.);
#1376 = FACE_BOUND('',#1377,.T.);
#1377 = EDGE_LOOP('',(#1378,#1384,#1385,#1391));
#1378 = ORIENTED_EDGE('',*,*,#1379,.F.);
#1379 = EDGE_CURVE('',#1288,#1328,#1380,.T.);
#1380 = LINE('',#1381,#1382);
#1381 = CARTESIAN_POINT('',(-0.714,0.655,0.));
#1382 = VECTOR('',#1383,1.);
#1383 = DIRECTION('',(1.,0.,0.));
#1384 = ORIENTED_EDGE('',*,*,#1295,.T.);
#1385 = ORIENTED_EDGE('',*,*,#1386,.T.);
#1386 = EDGE_CURVE('',#1296,#1336,#1387,.T.);
#1387 = LINE('',#1388,#1389);
#1388 = CARTESIAN_POINT('',(-0.714,0.655,0.1));
#1389 = VECTOR('',#1390,1.);
#1390 = DIRECTION('',(1.,0.,0.));
#1391 = ORIENTED_EDGE('',*,*,#1335,.F.);
#1392 = PLANE('',#1393);
#1393 = AXIS2_PLACEMENT_3D('',#1394,#1395,#1396);
#1394 = CARTESIAN_POINT('',(-0.714,0.655,0.));
#1395 = DIRECTION('',(0.,1.,0.));
#1396 = DIRECTION('',(0.,-0.,1.));
#1397 = ADVANCED_FACE('',(#1398),#1404,.F.);
#1398 = FACE_BOUND('',#1399,.F.);
#1399 = EDGE_LOOP('',(#1400,#1401,#1402,#1403));
#1400 = ORIENTED_EDGE('',*,*,#1287,.F.);
#1401 = ORIENTED_EDGE('',*,*,#1357,.T.);
#1402 = ORIENTED_EDGE('',*,*,#1327,.T.);
#1403 = ORIENTED_EDGE('',*,*,#1379,.F.);
#1404 = PLANE('',#1405);
#1405 = AXIS2_PLACEMENT_3D('',#1406,#1407,#1408);
#1406 = CARTESIAN_POINT('',(-0.714,-0.655,0.));
#1407 = DIRECTION('',(0.,0.,1.));
#1408 = DIRECTION('',(1.,0.,-0.));
#1409 = ADVANCED_FACE('',(#1410),#1416,.T.);
#1410 = FACE_BOUND('',#1411,.T.);
#1411 = EDGE_LOOP('',(#1412,#1413,#1414,#1415));
#1412 = ORIENTED_EDGE('',*,*,#1303,.F.);
#1413 = ORIENTED_EDGE('',*,*,#1364,.T.);
#1414 = ORIENTED_EDGE('',*,*,#1343,.T.);
#1415 = ORIENTED_EDGE('',*,*,#1386,.F.);
#1416 = PLANE('',#1417);
#1417 = AXIS2_PLACEMENT_3D('',#1418,#1419,#1420);
#1418 = CARTESIAN_POINT('',(-0.714,-0.655,0.1));
#1419 = DIRECTION('',(0.,0.,1.));
#1420 = DIRECTION('',(1.,0.,-0.));
#1421 = ( GEOMETRIC_REPRESENTATION_CONTEXT(3) 
GLOBAL_UNCERTAINTY_ASSIGNED_CONTEXT((#1425)) 
GLOBAL_UNIT_ASSIGNED_CONTEXT((#1422,#1423,#1424)) REPRESENTATION_CONTEXT
('Context #1','3D Context with UNIT and UNCERTAINTY') );
#1422 = ( LENGTH_UNIT() NAMED_UNIT(*) SI_UNIT(.MILLI.,.METRE.) );
#1423 = ( NAMED_UNIT(*) PLANE_ANGLE_UNIT() SI_UNIT($,.RADIAN.) );
#1424 = ( NAMED_UNIT(*) SI_UNIT($,.STERADIAN.) SOLID_ANGLE_UNIT() );
#1425 = UNCERTAINTY_MEASURE_WITH_UNIT(LENGTH_MEASURE(1.E-07),#1422,
  'distance_accuracy_value','confusion accuracy');
#1426 = CONTEXT_DEPENDENT_SHAPE_REPRESENTATION(#1427,#1429);
#1427 = ( REPRESENTATION_RELATIONSHIP('','',#1270,#205) 
REPRESENTATION_RELATIONSHIP_WITH_TRANSFORMATION(#1428) 
SHAPE_REPRESENTATION_RELATIONSHIP() );
#1428 = ITEM_DEFINED_TRANSFORMATION('','',#11,#230);
#1429 = PRODUCT_DEFINITION_SHAPE('Placement','Placement of an item',
  #1430);
#1430 = NEXT_ASSEMBLY_USAGE_OCCURRENCE('38','Pins006','',#200,#1265,$);
#1431 = PRODUCT_RELATED_PRODUCT_CATEGORY('part',$,(#1267));
#1432 = SHAPE_DEFINITION_REPRESENTATION(#1433,#1439);
#1433 = PRODUCT_DEFINITION_SHAPE('','',#1434);
#1434 = PRODUCT_DEFINITION('design','',#1435,#1438);
#1435 = PRODUCT_DEFINITION_FORMATION('','',#1436);
#1436 = PRODUCT('Pins007','Pins007','',(#1437));
#1437 = PRODUCT_CONTEXT('',#2,'mechanical');
#1438 = PRODUCT_DEFINITION_CONTEXT('part definition',#2,'design');
#1439 = ADVANCED_BREP_SHAPE_REPRESENTATION('',(#11,#1440),#1590);
#1440 = MANIFOLD_SOLID_BREP('',#1441);
#1441 = CLOSED_SHELL('',(#1442,#1482,#1522,#1544,#1566,#1578));
#1442 = ADVANCED_FACE('',(#1443),#1477,.F.);
#1443 = FACE_BOUND('',#1444,.F.);
#1444 = EDGE_LOOP('',(#1445,#1455,#1463,#1471));
#1445 = ORIENTED_EDGE('',*,*,#1446,.F.);
#1446 = EDGE_CURVE('',#1447,#1449,#1451,.T.);
#1447 = VERTEX_POINT('',#1448);
#1448 = CARTESIAN_POINT('',(0.565,-0.3715,0.));
#1449 = VERTEX_POINT('',#1450);
#1450 = CARTESIAN_POINT('',(0.565,-0.3715,0.1));
#1451 = LINE('',#1452,#1453);
#1452 = CARTESIAN_POINT('',(0.565,-0.3715,0.));
#1453 = VECTOR('',#1454,1.);
#1454 = DIRECTION('',(0.,0.,1.));
#1455 = ORIENTED_EDGE('',*,*,#1456,.T.);
#1456 = EDGE_CURVE('',#1447,#1457,#1459,.T.);
#1457 = VERTEX_POINT('',#1458);
#1458 = CARTESIAN_POINT('',(0.565,0.4515,0.));
#1459 = LINE('',#1460,#1461);
#1460 = CARTESIAN_POINT('',(0.565,-0.3715,0.));
#1461 = VECTOR('',#1462,1.);
#1462 = DIRECTION('',(0.,1.,0.));
#1463 = ORIENTED_EDGE('',*,*,#1464,.T.);
#1464 = EDGE_CURVE('',#1457,#1465,#1467,.T.);
#1465 = VERTEX_POINT('',#1466);
#1466 = CARTESIAN_POINT('',(0.565,0.4515,0.1));
#1467 = LINE('',#1468,#1469);
#1468 = CARTESIAN_POINT('',(0.565,0.4515,0.));
#1469 = VECTOR('',#1470,1.);
#1470 = DIRECTION('',(0.,0.,1.));
#1471 = ORIENTED_EDGE('',*,*,#1472,.F.);
#1472 = EDGE_CURVE('',#1449,#1465,#1473,.T.);
#1473 = LINE('',#1474,#1475);
#1474 = CARTESIAN_POINT('',(0.565,-0.3715,0.1));
#1475 = VECTOR('',#1476,1.);
#1476 = DIRECTION('',(0.,1.,0.));
#1477 = PLANE('',#1478);
#1478 = AXIS2_PLACEMENT_3D('',#1479,#1480,#1481);
#1479 = CARTESIAN_POINT('',(0.565,-0.3715,0.));
#1480 = DIRECTION('',(1.,0.,0.));
#1481 = DIRECTION('',(0.,0.,1.));
#1482 = ADVANCED_FACE('',(#1483),#1517,.T.);
#1483 = FACE_BOUND('',#1484,.T.);
#1484 = EDGE_LOOP('',(#1485,#1495,#1503,#1511));
#1485 = ORIENTED_EDGE('',*,*,#1486,.F.);
#1486 = EDGE_CURVE('',#1487,#1489,#1491,.T.);
#1487 = VERTEX_POINT('',#1488);
#1488 = CARTESIAN_POINT('',(0.753,-0.3715,0.));
#1489 = VERTEX_POINT('',#1490);
#1490 = CARTESIAN_POINT('',(0.753,-0.3715,0.1));
#1491 = LINE('',#1492,#1493);
#1492 = CARTESIAN_POINT('',(0.753,-0.3715,0.));
#1493 = VECTOR('',#1494,1.);
#1494 = DIRECTION('',(0.,0.,1.));
#1495 = ORIENTED_EDGE('',*,*,#1496,.T.);
#1496 = EDGE_CURVE('',#1487,#1497,#1499,.T.);
#1497 = VERTEX_POINT('',#1498);
#1498 = CARTESIAN_POINT('',(0.753,0.4515,0.));
#1499 = LINE('',#1500,#1501);
#1500 = CARTESIAN_POINT('',(0.753,-0.3715,0.));
#1501 = VECTOR('',#1502,1.);
#1502 = DIRECTION('',(0.,1.,0.));
#1503 = ORIENTED_EDGE('',*,*,#1504,.T.);
#1504 = EDGE_CURVE('',#1497,#1505,#1507,.T.);
#1505 = VERTEX_POINT('',#1506);
#1506 = CARTESIAN_POINT('',(0.753,0.4515,0.1));
#1507 = LINE('',#1508,#1509);
#1508 = CARTESIAN_POINT('',(0.753,0.4515,0.));
#1509 = VECTOR('',#1510,1.);
#1510 = DIRECTION('',(0.,0.,1.));
#1511 = ORIENTED_EDGE('',*,*,#1512,.F.);
#1512 = EDGE_CURVE('',#1489,#1505,#1513,.T.);
#1513 = LINE('',#1514,#1515);
#1514 = CARTESIAN_POINT('',(0.753,-0.3715,0.1));
#1515 = VECTOR('',#1516,1.);
#1516 = DIRECTION('',(0.,1.,0.));
#1517 = PLANE('',#1518);
#1518 = AXIS2_PLACEMENT_3D('',#1519,#1520,#1521);
#1519 = CARTESIAN_POINT('',(0.753,-0.3715,0.));
#1520 = DIRECTION('',(1.,0.,0.));
#1521 = DIRECTION('',(0.,0.,1.));
#1522 = ADVANCED_FACE('',(#1523),#1539,.F.);
#1523 = FACE_BOUND('',#1524,.F.);
#1524 = EDGE_LOOP('',(#1525,#1531,#1532,#1538));
#1525 = ORIENTED_EDGE('',*,*,#1526,.F.);
#1526 = EDGE_CURVE('',#1447,#1487,#1527,.T.);
#1527 = LINE('',#1528,#1529);
#1528 = CARTESIAN_POINT('',(0.565,-0.3715,0.));
#1529 = VECTOR('',#1530,1.);
#1530 = DIRECTION('',(1.,0.,0.));
#1531 = ORIENTED_EDGE('',*,*,#1446,.T.);
#1532 = ORIENTED_EDGE('',*,*,#1533,.T.);
#1533 = EDGE_CURVE('',#1449,#1489,#1534,.T.);
#1534 = LINE('',#1535,#1536);
#1535 = CARTESIAN_POINT('',(0.565,-0.3715,0.1));
#1536 = VECTOR('',#1537,1.);
#1537 = DIRECTION('',(1.,0.,0.));
#1538 = ORIENTED_EDGE('',*,*,#1486,.F.);
#1539 = PLANE('',#1540);
#1540 = AXIS2_PLACEMENT_3D('',#1541,#1542,#1543);
#1541 = CARTESIAN_POINT('',(0.565,-0.3715,0.));
#1542 = DIRECTION('',(0.,1.,0.));
#1543 = DIRECTION('',(0.,-0.,1.));
#1544 = ADVANCED_FACE('',(#1545),#1561,.T.);
#1545 = FACE_BOUND('',#1546,.T.);
#1546 = EDGE_LOOP('',(#1547,#1553,#1554,#1560));
#1547 = ORIENTED_EDGE('',*,*,#1548,.F.);
#1548 = EDGE_CURVE('',#1457,#1497,#1549,.T.);
#1549 = LINE('',#1550,#1551);
#1550 = CARTESIAN_POINT('',(0.565,0.4515,0.));
#1551 = VECTOR('',#1552,1.);
#1552 = DIRECTION('',(1.,0.,0.));
#1553 = ORIENTED_EDGE('',*,*,#1464,.T.);
#1554 = ORIENTED_EDGE('',*,*,#1555,.T.);
#1555 = EDGE_CURVE('',#1465,#1505,#1556,.T.);
#1556 = LINE('',#1557,#1558);
#1557 = CARTESIAN_POINT('',(0.565,0.4515,0.1));
#1558 = VECTOR('',#1559,1.);
#1559 = DIRECTION('',(1.,0.,0.));
#1560 = ORIENTED_EDGE('',*,*,#1504,.F.);
#1561 = PLANE('',#1562);
#1562 = AXIS2_PLACEMENT_3D('',#1563,#1564,#1565);
#1563 = CARTESIAN_POINT('',(0.565,0.4515,0.));
#1564 = DIRECTION('',(0.,1.,0.));
#1565 = DIRECTION('',(0.,-0.,1.));
#1566 = ADVANCED_FACE('',(#1567),#1573,.F.);
#1567 = FACE_BOUND('',#1568,.F.);
#1568 = EDGE_LOOP('',(#1569,#1570,#1571,#1572));
#1569 = ORIENTED_EDGE('',*,*,#1456,.F.);
#1570 = ORIENTED_EDGE('',*,*,#1526,.T.);
#1571 = ORIENTED_EDGE('',*,*,#1496,.T.);
#1572 = ORIENTED_EDGE('',*,*,#1548,.F.);
#1573 = PLANE('',#1574);
#1574 = AXIS2_PLACEMENT_3D('',#1575,#1576,#1577);
#1575 = CARTESIAN_POINT('',(0.565,-0.3715,0.));
#1576 = DIRECTION('',(0.,0.,1.));
#1577 = DIRECTION('',(1.,0.,-0.));
#1578 = ADVANCED_FACE('',(#1579),#1585,.T.);
#1579 = FACE_BOUND('',#1580,.T.);
#1580 = EDGE_LOOP('',(#1581,#1582,#1583,#1584));
#1581 = ORIENTED_EDGE('',*,*,#1472,.F.);
#1582 = ORIENTED_EDGE('',*,*,#1533,.T.);
#1583 = ORIENTED_EDGE('',*,*,#1512,.T.);
#1584 = ORIENTED_EDGE('',*,*,#1555,.F.);
#1585 = PLANE('',#1586);
#1586 = AXIS2_PLACEMENT_3D('',#1587,#1588,#1589);
#1587 = CARTESIAN_POINT('',(0.565,-0.3715,0.1));
#1588 = DIRECTION('',(0.,0.,1.));
#1589 = DIRECTION('',(1.,0.,-0.));
#1590 = ( GEOMETRIC_REPRESENTATION_CONTEXT(3) 
GLOBAL_UNCERTAINTY_ASSIGNED_CONTEXT((#1594)) 
GLOBAL_UNIT_ASSIGNED_CONTEXT((#1591,#1592,#1593)) REPRESENTATION_CONTEXT
('Context #1','3D Context with UNIT and UNCERTAINTY') );
#1591 = ( LENGTH_UNIT() NAMED_UNIT(*) SI_UNIT(.MILLI.,.METRE.) );
#1592 = ( NAMED_UNIT(*) PLANE_ANGLE_UNIT() SI_UNIT($,.RADIAN.) );
#1593 = ( NAMED_UNIT(*) SI_UNIT($,.STERADIAN.) SOLID_ANGLE_UNIT() );
#1594 = UNCERTAINTY_MEASURE_WITH_UNIT(LENGTH_MEASURE(1.E-07),#1591,
  'distance_accuracy_value','confusion accuracy');
#1595 = CONTEXT_DEPENDENT_SHAPE_REPRESENTATION(#1596,#1598);
#1596 = ( REPRESENTATION_RELATIONSHIP('','',#1439,#205) 
REPRESENTATION_RELATIONSHIP_WITH_TRANSFORMATION(#1597) 
SHAPE_REPRESENTATION_RELATIONSHIP() );
#1597 = ITEM_DEFINED_TRANSFORMATION('','',#11,#234);
#1598 = PRODUCT_DEFINITION_SHAPE('Placement','Placement of an item',
  #1599);
#1599 = NEXT_ASSEMBLY_USAGE_OCCURRENCE('39','Pins007','',#200,#1434,$);
#1600 = PRODUCT_RELATED_PRODUCT_CATEGORY('part',$,(#1436));
#1601 = MECHANICAL_DESIGN_GEOMETRIC_PRESENTATION_REPRESENTATION('',(
    #1602),#1590);
#1602 = STYLED_ITEM('color',(#1603),#1440);
#1603 = PRESENTATION_STYLE_ASSIGNMENT((#1604,#1610));
#1604 = SURFACE_STYLE_USAGE(.BOTH.,#1605);
#1605 = SURFACE_SIDE_STYLE('',(#1606));
#1606 = SURFACE_STYLE_FILL_AREA(#1607);
#1607 = FILL_AREA_STYLE('',(#1608));
#1608 = FILL_AREA_STYLE_COLOUR('',#1609);
#1609 = COLOUR_RGB('',0.734000028196,0.773000013638,0.796999989372);
#1610 = CURVE_STYLE('',#1611,POSITIVE_LENGTH_MEASURE(0.1),#1612);
#1611 = DRAUGHTING_PRE_DEFINED_CURVE_FONT('continuous');
#1612 = COLOUR_RGB('',9.803921802644E-02,9.803921802644E-02,
  9.803921802644E-02);
#1613 = MECHANICAL_DESIGN_GEOMETRIC_PRESENTATION_REPRESENTATION('',(
    #1614),#745);
#1614 = STYLED_ITEM('color',(#1615),#595);
#1615 = PRESENTATION_STYLE_ASSIGNMENT((#1616,#1621));
#1616 = SURFACE_STYLE_USAGE(.BOTH.,#1617);
#1617 = SURFACE_SIDE_STYLE('',(#1618));
#1618 = SURFACE_STYLE_FILL_AREA(#1619);
#1619 = FILL_AREA_STYLE('',(#1620));
#1620 = FILL_AREA_STYLE_COLOUR('',#1609);
#1621 = CURVE_STYLE('',#1622,POSITIVE_LENGTH_MEASURE(0.1),#1612);
#1622 = DRAUGHTING_PRE_DEFINED_CURVE_FONT('continuous');
#1623 = MECHANICAL_DESIGN_GEOMETRIC_PRESENTATION_REPRESENTATION('',(
    #1624),#1421);
#1624 = STYLED_ITEM('color',(#1625),#1271);
#1625 = PRESENTATION_STYLE_ASSIGNMENT((#1626,#1631));
#1626 = SURFACE_STYLE_USAGE(.BOTH.,#1627);
#1627 = SURFACE_SIDE_STYLE('',(#1628));
#1628 = SURFACE_STYLE_FILL_AREA(#1629);
#1629 = FILL_AREA_STYLE('',(#1630));
#1630 = FILL_AREA_STYLE_COLOUR('',#1609);
#1631 = CURVE_STYLE('',#1632,POSITIVE_LENGTH_MEASURE(0.1),#1612);
#1632 = DRAUGHTING_PRE_DEFINED_CURVE_FONT('continuous');
#1633 = MECHANICAL_DESIGN_GEOMETRIC_PRESENTATION_REPRESENTATION('',(
    #1634),#1083);
#1634 = STYLED_ITEM('color',(#1635),#933);
#1635 = PRESENTATION_STYLE_ASSIGNMENT((#1636,#1641));
#1636 = SURFACE_STYLE_USAGE(.BOTH.,#1637);
#1637 = SURFACE_SIDE_STYLE('',(#1638));
#1638 = SURFACE_STYLE_FILL_AREA(#1639);
#1639 = FILL_AREA_STYLE('',(#1640));
#1640 = FILL_AREA_STYLE_COLOUR('',#1609);
#1641 = CURVE_STYLE('',#1642,POSITIVE_LENGTH_MEASURE(0.1),#1612);
#1642 = DRAUGHTING_PRE_DEFINED_CURVE_FONT('continuous');
#1643 = MECHANICAL_DESIGN_GEOMETRIC_PRESENTATION_REPRESENTATION('',(
    #1644),#1252);
#1644 = STYLED_ITEM('color',(#1645),#1102);
#1645 = PRESENTATION_STYLE_ASSIGNMENT((#1646,#1651));
#1646 = SURFACE_STYLE_USAGE(.BOTH.,#1647);
#1647 = SURFACE_SIDE_STYLE('',(#1648));
#1648 = SURFACE_STYLE_FILL_AREA(#1649);
#1649 = FILL_AREA_STYLE('',(#1650));
#1650 = FILL_AREA_STYLE_COLOUR('',#1609);
#1651 = CURVE_STYLE('',#1652,POSITIVE_LENGTH_MEASURE(0.1),#1612);
#1652 = DRAUGHTING_PRE_DEFINED_CURVE_FONT('continuous');
#1653 = MECHANICAL_DESIGN_GEOMETRIC_PRESENTATION_REPRESENTATION('',(
    #1654),#187);
#1654 = STYLED_ITEM('color',(#1655),#37);
#1655 = PRESENTATION_STYLE_ASSIGNMENT((#1656,#1662));
#1656 = SURFACE_STYLE_USAGE(.BOTH.,#1657);
#1657 = SURFACE_SIDE_STYLE('',(#1658));
#1658 = SURFACE_STYLE_FILL_AREA(#1659);
#1659 = FILL_AREA_STYLE('',(#1660));
#1660 = FILL_AREA_STYLE_COLOUR('',#1661);
#1661 = COLOUR_RGB('',0.109800004037,0.109800004037,0.109800004037);
#1662 = CURVE_STYLE('',#1663,POSITIVE_LENGTH_MEASURE(0.1),#1612);
#1663 = DRAUGHTING_PRE_DEFINED_CURVE_FONT('continuous');
#1664 = MECHANICAL_DESIGN_GEOMETRIC_PRESENTATION_REPRESENTATION('',(
    #1665),#407);
#1665 = STYLED_ITEM('color',(#1666),#257);
#1666 = PRESENTATION_STYLE_ASSIGNMENT((#1667,#1672));
#1667 = SURFACE_STYLE_USAGE(.BOTH.,#1668);
#1668 = SURFACE_SIDE_STYLE('',(#1669));
#1669 = SURFACE_STYLE_FILL_AREA(#1670);
#1670 = FILL_AREA_STYLE('',(#1671));
#1671 = FILL_AREA_STYLE_COLOUR('',#1609);
#1672 = CURVE_STYLE('',#1673,POSITIVE_LENGTH_MEASURE(0.1),#1612);
#1673 = DRAUGHTING_PRE_DEFINED_CURVE_FONT('continuous');
#1674 = MECHANICAL_DESIGN_GEOMETRIC_PRESENTATION_REPRESENTATION('',(
    #1675),#576);
#1675 = STYLED_ITEM('color',(#1676),#426);
#1676 = PRESENTATION_STYLE_ASSIGNMENT((#1677,#1682));
#1677 = SURFACE_STYLE_USAGE(.BOTH.,#1678);
#1678 = SURFACE_SIDE_STYLE('',(#1679));
#1679 = SURFACE_STYLE_FILL_AREA(#1680);
#1680 = FILL_AREA_STYLE('',(#1681));
#1681 = FILL_AREA_STYLE_COLOUR('',#1609);
#1682 = CURVE_STYLE('',#1683,POSITIVE_LENGTH_MEASURE(0.1),#1612);
#1683 = DRAUGHTING_PRE_DEFINED_CURVE_FONT('continuous');
#1684 = MECHANICAL_DESIGN_GEOMETRIC_PRESENTATION_REPRESENTATION('',(
    #1685),#914);
#1685 = STYLED_ITEM('color',(#1686),#764);
#1686 = PRESENTATION_STYLE_ASSIGNMENT((#1687,#1692));
#1687 = SURFACE_STYLE_USAGE(.BOTH.,#1688);
#1688 = SURFACE_SIDE_STYLE('',(#1689));
#1689 = SURFACE_STYLE_FILL_AREA(#1690);
#1690 = FILL_AREA_STYLE('',(#1691));
#1691 = FILL_AREA_STYLE_COLOUR('',#1609);
#1692 = CURVE_STYLE('',#1693,POSITIVE_LENGTH_MEASURE(0.1),#1612);
#1693 = DRAUGHTING_PRE_DEFINED_CURVE_FONT('continuous');
ENDSEC;
END-ISO-10303-21;
