ISO-10303-21;
HEADER;
FILE_DESCRIPTION(('FreeCAD Model'),'2;1');
FILE_NAME('Open CASCADE Shape Model','2025-11-19T20:22:44',(''),(''),
  'Open CASCADE STEP processor 7.8','FreeCAD','Unknown');
FILE_SCHEMA(('AUTOMOTIVE_DESIGN { 1 0 10303 214 1 1 1 1 }'));
ENDSEC;
DATA;
#1 = APPLICATION_PROTOCOL_DEFINITION('international standard',
  'automotive_design',2000,#2);
#2 = APPLICATION_CONTEXT(
  'core data for automotive mechanical design processes');
#3 = SHAPE_DEFINITION_REPRESENTATION(#4,#10);
#4 = PRODUCT_DEFINITION_SHAPE('','',#5);
#5 = PRODUCT_DEFINITION('design','',#6,#9);
#6 = PRODUCT_DEFINITION_FORMATION('','',#7);
#7 = PRODUCT('BC849C004','BC849C004','',(#8));
#8 = PRODUCT_CONTEXT('',#2,'mechanical');
#9 = PRODUCT_DEFINITION_CONTEXT('part definition',#2,'design');
#10 = SHAPE_REPRESENTATION('',(#11,#15,#19,#23,#27),#31);
#11 = AXIS2_PLACEMENT_3D('',#12,#13,#14);
#12 = CARTESIAN_POINT('',(0.,0.,0.));
#13 = DIRECTION('',(0.,0.,1.));
#14 = DIRECTION('',(1.,0.,-0.));
#15 = AXIS2_PLACEMENT_3D('',#16,#17,#18);
#16 = CARTESIAN_POINT('',(0.,0.,0.));
#17 = DIRECTION('',(1.,0.,0.));
#18 = DIRECTION('',(0.,1.,0.));
#19 = AXIS2_PLACEMENT_3D('',#20,#21,#22);
#20 = CARTESIAN_POINT('',(0.,0.,0.));
#21 = DIRECTION('',(1.,0.,0.));
#22 = DIRECTION('',(0.,1.,0.));
#23 = AXIS2_PLACEMENT_3D('',#24,#25,#26);
#24 = CARTESIAN_POINT('',(0.,0.,0.));
#25 = DIRECTION('',(1.,0.,0.));
#26 = DIRECTION('',(0.,1.,0.));
#27 = AXIS2_PLACEMENT_3D('',#28,#29,#30);
#28 = CARTESIAN_POINT('',(0.,0.,0.));
#29 = DIRECTION('',(1.,0.,0.));
#30 = DIRECTION('',(0.,1.,0.));
#31 = ( GEOMETRIC_REPRESENTATION_CONTEXT(3) 
GLOBAL_UNCERTAINTY_ASSIGNED_CONTEXT((#35)) GLOBAL_UNIT_ASSIGNED_CONTEXT(
(#32,#33,#34)) REPRESENTATION_CONTEXT('Context #1',
  '3D Context with UNIT and UNCERTAINTY') );
#32 = ( LENGTH_UNIT() NAMED_UNIT(*) SI_UNIT(.MILLI.,.METRE.) );
#33 = ( NAMED_UNIT(*) PLANE_ANGLE_UNIT() SI_UNIT($,.RADIAN.) );
#34 = ( NAMED_UNIT(*) SI_UNIT($,.STERADIAN.) SOLID_ANGLE_UNIT() );
#35 = UNCERTAINTY_MEASURE_WITH_UNIT(LENGTH_MEASURE(1.E-07),#32,
  'distance_accuracy_value','confusion accuracy');
#36 = PRODUCT_RELATED_PRODUCT_CATEGORY('part',$,(#7));
#37 = SHAPE_DEFINITION_REPRESENTATION(#38,#44);
#38 = PRODUCT_DEFINITION_SHAPE('','',#39);
#39 = PRODUCT_DEFINITION('design','',#40,#43);
#40 = PRODUCT_DEFINITION_FORMATION('','',#41);
#41 = PRODUCT('BC849C','BC849C','',(#42));
#42 = PRODUCT_CONTEXT('',#2,'mechanical');
#43 = PRODUCT_DEFINITION_CONTEXT('part definition',#2,'design');
#44 = ADVANCED_BREP_SHAPE_REPRESENTATION('',(#11,#45),#291);
#45 = MANIFOLD_SOLID_BREP('',#46);
#46 = CLOSED_SHELL('',(#47,#87,#127,#158,#182,#206,#228,#245,#262,#279)
  );
#47 = ADVANCED_FACE('',(#48),#82,.T.);
#48 = FACE_BOUND('',#49,.T.);
#49 = EDGE_LOOP('',(#50,#60,#68,#76));
#50 = ORIENTED_EDGE('',*,*,#51,.T.);
#51 = EDGE_CURVE('',#52,#54,#56,.T.);
#52 = VERTEX_POINT('',#53);
#53 = CARTESIAN_POINT('',(-0.601881235061,1.E-01,1.401881235061));
#54 = VERTEX_POINT('',#55);
#55 = CARTESIAN_POINT('',(-0.601881235061,1.E-01,-1.401881235061));
#56 = LINE('',#57,#58);
#57 = CARTESIAN_POINT('',(-0.601881235061,1.E-01,-0.));
#58 = VECTOR('',#59,1.);
#59 = DIRECTION('',(0.,0.,-1.));
#60 = ORIENTED_EDGE('',*,*,#61,.T.);
#61 = EDGE_CURVE('',#54,#62,#64,.T.);
#62 = VERTEX_POINT('',#63);
#63 = CARTESIAN_POINT('',(0.601881235061,1.E-01,-1.401881235061));
#64 = LINE('',#65,#66);
#65 = CARTESIAN_POINT('',(0.,1.E-01,-1.401881235061));
#66 = VECTOR('',#67,1.);
#67 = DIRECTION('',(1.,0.,0.));
#68 = ORIENTED_EDGE('',*,*,#69,.T.);
#69 = EDGE_CURVE('',#62,#70,#72,.T.);
#70 = VERTEX_POINT('',#71);
#71 = CARTESIAN_POINT('',(0.601881235061,1.E-01,1.401881235061));
#72 = LINE('',#73,#74);
#73 = CARTESIAN_POINT('',(0.601881235061,1.E-01,-0.));
#74 = VECTOR('',#75,1.);
#75 = DIRECTION('',(0.,0.,1.));
#76 = ORIENTED_EDGE('',*,*,#77,.T.);
#77 = EDGE_CURVE('',#70,#52,#78,.T.);
#78 = LINE('',#79,#80);
#79 = CARTESIAN_POINT('',(0.,1.E-01,1.401881235061));
#80 = VECTOR('',#81,1.);
#81 = DIRECTION('',(-1.,0.,0.));
#82 = PLANE('',#83);
#83 = AXIS2_PLACEMENT_3D('',#84,#85,#86);
#84 = CARTESIAN_POINT('',(0.,1.E-01,0.));
#85 = DIRECTION('',(0.,-1.,0.));
#86 = DIRECTION('',(0.,-0.,-1.));
#87 = ADVANCED_FACE('',(#88),#122,.F.);
#88 = FACE_BOUND('',#89,.T.);
#89 = EDGE_LOOP('',(#90,#100,#108,#116));
#90 = ORIENTED_EDGE('',*,*,#91,.T.);
#91 = EDGE_CURVE('',#92,#94,#96,.T.);
#92 = VERTEX_POINT('',#93);
#93 = CARTESIAN_POINT('',(-0.601881235061,1.2,-1.401881235061));
#94 = VERTEX_POINT('',#95);
#95 = CARTESIAN_POINT('',(-0.601881235061,1.2,1.401881235061));
#96 = LINE('',#97,#98);
#97 = CARTESIAN_POINT('',(-0.601881235061,1.2,1.45));
#98 = VECTOR('',#99,1.);
#99 = DIRECTION('',(0.,0.,1.));
#100 = ORIENTED_EDGE('',*,*,#101,.T.);
#101 = EDGE_CURVE('',#94,#102,#104,.T.);
#102 = VERTEX_POINT('',#103);
#103 = CARTESIAN_POINT('',(0.601881235061,1.2,1.401881235061));
#104 = LINE('',#105,#106);
#105 = CARTESIAN_POINT('',(0.65,1.2,1.401881235061));
#106 = VECTOR('',#107,1.);
#107 = DIRECTION('',(1.,0.,-0.));
#108 = ORIENTED_EDGE('',*,*,#109,.T.);
#109 = EDGE_CURVE('',#102,#110,#112,.T.);
#110 = VERTEX_POINT('',#111);
#111 = CARTESIAN_POINT('',(0.601881235061,1.2,-1.401881235061));
#112 = LINE('',#113,#114);
#113 = CARTESIAN_POINT('',(0.601881235061,1.2,-1.45));
#114 = VECTOR('',#115,1.);
#115 = DIRECTION('',(0.,0.,-1.));
#116 = ORIENTED_EDGE('',*,*,#117,.T.);
#117 = EDGE_CURVE('',#110,#92,#118,.T.);
#118 = LINE('',#119,#120);
#119 = CARTESIAN_POINT('',(-0.65,1.2,-1.401881235061));
#120 = VECTOR('',#121,1.);
#121 = DIRECTION('',(-1.,0.,0.));
#122 = PLANE('',#123);
#123 = AXIS2_PLACEMENT_3D('',#124,#125,#126);
#124 = CARTESIAN_POINT('',(0.,1.2,0.));
#125 = DIRECTION('',(0.,-1.,0.));
#126 = DIRECTION('',(0.,-0.,-1.));
#127 = ADVANCED_FACE('',(#128),#153,.T.);
#128 = FACE_BOUND('',#129,.T.);
#129 = EDGE_LOOP('',(#130,#138,#139,#147));
#130 = ORIENTED_EDGE('',*,*,#131,.F.);
#131 = EDGE_CURVE('',#102,#132,#134,.T.);
#132 = VERTEX_POINT('',#133);
#133 = CARTESIAN_POINT('',(0.65,0.65,1.45));
#134 = LINE('',#135,#136);
#135 = CARTESIAN_POINT('',(0.591312652335,1.320799453321,1.391312652335)
  );
#136 = VECTOR('',#137,1.);
#137 = DIRECTION('',(8.682659386424E-02,-0.992432509139,
    8.682659386424E-02));
#138 = ORIENTED_EDGE('',*,*,#101,.F.);
#139 = ORIENTED_EDGE('',*,*,#140,.F.);
#140 = EDGE_CURVE('',#141,#94,#143,.T.);
#141 = VERTEX_POINT('',#142);
#142 = CARTESIAN_POINT('',(-0.65,0.65,1.45));
#143 = LINE('',#144,#145);
#144 = CARTESIAN_POINT('',(-0.591312652335,1.320799453321,1.391312652335
    ));
#145 = VECTOR('',#146,1.);
#146 = DIRECTION('',(8.682659386424E-02,0.992432509139,
    -8.682659386424E-02));
#147 = ORIENTED_EDGE('',*,*,#148,.F.);
#148 = EDGE_CURVE('',#132,#141,#149,.T.);
#149 = LINE('',#150,#151);
#150 = CARTESIAN_POINT('',(-0.65,0.65,1.45));
#151 = VECTOR('',#152,1.);
#152 = DIRECTION('',(-1.,0.,0.));
#153 = PLANE('',#154);
#154 = AXIS2_PLACEMENT_3D('',#155,#156,#157);
#155 = CARTESIAN_POINT('',(0.,1.2,1.401881235061));
#156 = DIRECTION('',(0.,8.715574274765E-02,0.996194698092));
#157 = DIRECTION('',(-1.,0.,0.));
#158 = ADVANCED_FACE('',(#159),#177,.T.);
#159 = FACE_BOUND('',#160,.T.);
#160 = EDGE_LOOP('',(#161,#162,#163,#171));
#161 = ORIENTED_EDGE('',*,*,#109,.F.);
#162 = ORIENTED_EDGE('',*,*,#131,.T.);
#163 = ORIENTED_EDGE('',*,*,#164,.F.);
#164 = EDGE_CURVE('',#165,#132,#167,.T.);
#165 = VERTEX_POINT('',#166);
#166 = CARTESIAN_POINT('',(0.65,0.65,-1.45));
#167 = LINE('',#168,#169);
#168 = CARTESIAN_POINT('',(0.65,0.65,1.45));
#169 = VECTOR('',#170,1.);
#170 = DIRECTION('',(0.,0.,1.));
#171 = ORIENTED_EDGE('',*,*,#172,.F.);
#172 = EDGE_CURVE('',#110,#165,#173,.T.);
#173 = LINE('',#174,#175);
#174 = CARTESIAN_POINT('',(0.591312652335,1.320799453321,-1.391312652335
    ));
#175 = VECTOR('',#176,1.);
#176 = DIRECTION('',(8.682659386424E-02,-0.992432509139,
    -8.682659386424E-02));
#177 = PLANE('',#178);
#178 = AXIS2_PLACEMENT_3D('',#179,#180,#181);
#179 = CARTESIAN_POINT('',(0.601881235061,1.2,0.));
#180 = DIRECTION('',(0.996194698092,8.715574274765E-02,-0.));
#181 = DIRECTION('',(0.,0.,1.));
#182 = ADVANCED_FACE('',(#183),#201,.T.);
#183 = FACE_BOUND('',#184,.T.);
#184 = EDGE_LOOP('',(#185,#186,#187,#195));
#185 = ORIENTED_EDGE('',*,*,#140,.T.);
#186 = ORIENTED_EDGE('',*,*,#91,.F.);
#187 = ORIENTED_EDGE('',*,*,#188,.F.);
#188 = EDGE_CURVE('',#189,#92,#191,.T.);
#189 = VERTEX_POINT('',#190);
#190 = CARTESIAN_POINT('',(-0.65,0.65,-1.45));
#191 = LINE('',#192,#193);
#192 = CARTESIAN_POINT('',(-0.597343738257,1.251863825795,
    -1.397343738257));
#193 = VECTOR('',#194,1.);
#194 = DIRECTION('',(8.682659386424E-02,0.992432509139,
    8.682659386424E-02));
#195 = ORIENTED_EDGE('',*,*,#196,.F.);
#196 = EDGE_CURVE('',#141,#189,#197,.T.);
#197 = LINE('',#198,#199);
#198 = CARTESIAN_POINT('',(-0.65,0.65,-1.45));
#199 = VECTOR('',#200,1.);
#200 = DIRECTION('',(0.,0.,-1.));
#201 = PLANE('',#202);
#202 = AXIS2_PLACEMENT_3D('',#203,#204,#205);
#203 = CARTESIAN_POINT('',(-0.601881235061,1.2,-0.));
#204 = DIRECTION('',(-0.996194698092,8.715574274765E-02,0.));
#205 = DIRECTION('',(0.,0.,-1.));
#206 = ADVANCED_FACE('',(#207),#223,.F.);
#207 = FACE_BOUND('',#208,.T.);
#208 = EDGE_LOOP('',(#209,#215,#216,#222));
#209 = ORIENTED_EDGE('',*,*,#210,.F.);
#210 = EDGE_CURVE('',#52,#141,#211,.T.);
#211 = LINE('',#212,#213);
#212 = CARTESIAN_POINT('',(-0.65,0.65,1.45));
#213 = VECTOR('',#214,1.);
#214 = DIRECTION('',(-8.682659386424E-02,0.992432509139,
    8.682659386424E-02));
#215 = ORIENTED_EDGE('',*,*,#77,.F.);
#216 = ORIENTED_EDGE('',*,*,#217,.F.);
#217 = EDGE_CURVE('',#132,#70,#218,.T.);
#218 = LINE('',#219,#220);
#219 = CARTESIAN_POINT('',(0.65,0.65,1.45));
#220 = VECTOR('',#221,1.);
#221 = DIRECTION('',(-8.682659386424E-02,-0.992432509139,
    -8.682659386424E-02));
#222 = ORIENTED_EDGE('',*,*,#148,.T.);
#223 = PLANE('',#224);
#224 = AXIS2_PLACEMENT_3D('',#225,#226,#227);
#225 = CARTESIAN_POINT('',(-0.65,0.65,1.45));
#226 = DIRECTION('',(-0.,8.715574274765E-02,-0.996194698092));
#227 = DIRECTION('',(1.,0.,-0.));
#228 = ADVANCED_FACE('',(#229),#240,.F.);
#229 = FACE_BOUND('',#230,.T.);
#230 = EDGE_LOOP('',(#231,#232,#233,#239));
#231 = ORIENTED_EDGE('',*,*,#217,.T.);
#232 = ORIENTED_EDGE('',*,*,#69,.F.);
#233 = ORIENTED_EDGE('',*,*,#234,.F.);
#234 = EDGE_CURVE('',#165,#62,#235,.T.);
#235 = LINE('',#236,#237);
#236 = CARTESIAN_POINT('',(0.628137313534,0.400108350215,-1.428137313534
    ));
#237 = VECTOR('',#238,1.);
#238 = DIRECTION('',(-8.682659386424E-02,-0.992432509139,
    8.682659386424E-02));
#239 = ORIENTED_EDGE('',*,*,#164,.T.);
#240 = PLANE('',#241);
#241 = AXIS2_PLACEMENT_3D('',#242,#243,#244);
#242 = CARTESIAN_POINT('',(0.65,0.65,1.45));
#243 = DIRECTION('',(-0.996194698092,8.715574274765E-02,0.));
#244 = DIRECTION('',(0.,0.,-1.));
#245 = ADVANCED_FACE('',(#246),#257,.T.);
#246 = FACE_BOUND('',#247,.T.);
#247 = EDGE_LOOP('',(#248,#249,#250,#256));
#248 = ORIENTED_EDGE('',*,*,#117,.F.);
#249 = ORIENTED_EDGE('',*,*,#172,.T.);
#250 = ORIENTED_EDGE('',*,*,#251,.F.);
#251 = EDGE_CURVE('',#189,#165,#252,.T.);
#252 = LINE('',#253,#254);
#253 = CARTESIAN_POINT('',(0.65,0.65,-1.45));
#254 = VECTOR('',#255,1.);
#255 = DIRECTION('',(1.,0.,0.));
#256 = ORIENTED_EDGE('',*,*,#188,.T.);
#257 = PLANE('',#258);
#258 = AXIS2_PLACEMENT_3D('',#259,#260,#261);
#259 = CARTESIAN_POINT('',(0.,1.2,-1.401881235061));
#260 = DIRECTION('',(0.,8.715574274765E-02,-0.996194698092));
#261 = DIRECTION('',(1.,0.,0.));
#262 = ADVANCED_FACE('',(#263),#274,.F.);
#263 = FACE_BOUND('',#264,.T.);
#264 = EDGE_LOOP('',(#265,#266,#267,#273));
#265 = ORIENTED_EDGE('',*,*,#210,.T.);
#266 = ORIENTED_EDGE('',*,*,#196,.T.);
#267 = ORIENTED_EDGE('',*,*,#268,.F.);
#268 = EDGE_CURVE('',#54,#189,#269,.T.);
#269 = LINE('',#270,#271);
#270 = CARTESIAN_POINT('',(-0.628137313534,0.400108350215,
    -1.428137313534));
#271 = VECTOR('',#272,1.);
#272 = DIRECTION('',(-8.682659386424E-02,0.992432509139,
    -8.682659386424E-02));
#273 = ORIENTED_EDGE('',*,*,#51,.F.);
#274 = PLANE('',#275);
#275 = AXIS2_PLACEMENT_3D('',#276,#277,#278);
#276 = CARTESIAN_POINT('',(-0.65,0.65,1.45));
#277 = DIRECTION('',(0.996194698092,8.715574274765E-02,-0.));
#278 = DIRECTION('',(0.,0.,1.));
#279 = ADVANCED_FACE('',(#280),#286,.F.);
#280 = FACE_BOUND('',#281,.T.);
#281 = EDGE_LOOP('',(#282,#283,#284,#285));
#282 = ORIENTED_EDGE('',*,*,#234,.T.);
#283 = ORIENTED_EDGE('',*,*,#61,.F.);
#284 = ORIENTED_EDGE('',*,*,#268,.T.);
#285 = ORIENTED_EDGE('',*,*,#251,.T.);
#286 = PLANE('',#287);
#287 = AXIS2_PLACEMENT_3D('',#288,#289,#290);
#288 = CARTESIAN_POINT('',(-0.65,0.65,-1.45));
#289 = DIRECTION('',(0.,8.715574274765E-02,0.996194698092));
#290 = DIRECTION('',(-1.,0.,0.));
#291 = ( GEOMETRIC_REPRESENTATION_CONTEXT(3) 
GLOBAL_UNCERTAINTY_ASSIGNED_CONTEXT((#295)) GLOBAL_UNIT_ASSIGNED_CONTEXT
((#292,#293,#294)) REPRESENTATION_CONTEXT('Context #1',
  '3D Context with UNIT and UNCERTAINTY') );
#292 = ( LENGTH_UNIT() NAMED_UNIT(*) SI_UNIT(.MILLI.,.METRE.) );
#293 = ( NAMED_UNIT(*) PLANE_ANGLE_UNIT() SI_UNIT($,.RADIAN.) );
#294 = ( NAMED_UNIT(*) SI_UNIT($,.STERADIAN.) SOLID_ANGLE_UNIT() );
#295 = UNCERTAINTY_MEASURE_WITH_UNIT(LENGTH_MEASURE(1.E-07),#292,
  'distance_accuracy_value','confusion accuracy');
#296 = CONTEXT_DEPENDENT_SHAPE_REPRESENTATION(#297,#299);
#297 = ( REPRESENTATION_RELATIONSHIP('','',#44,#10) 
REPRESENTATION_RELATIONSHIP_WITH_TRANSFORMATION(#298) 
SHAPE_REPRESENTATION_RELATIONSHIP() );
#298 = ITEM_DEFINED_TRANSFORMATION('','',#11,#15);
#299 = PRODUCT_DEFINITION_SHAPE('Placement','Placement of an item',#300
  );
#300 = NEXT_ASSEMBLY_USAGE_OCCURRENCE('1','BC849C','',#5,#39,$);
#301 = PRODUCT_RELATED_PRODUCT_CATEGORY('part',$,(#41));
#302 = SHAPE_DEFINITION_REPRESENTATION(#303,#309);
#303 = PRODUCT_DEFINITION_SHAPE('','',#304);
#304 = PRODUCT_DEFINITION('design','',#305,#308);
#305 = PRODUCT_DEFINITION_FORMATION('','',#306);
#306 = PRODUCT('BC849C001','BC849C001','',(#307));
#307 = PRODUCT_CONTEXT('',#2,'mechanical');
#308 = PRODUCT_DEFINITION_CONTEXT('part definition',#2,'design');
#309 = ADVANCED_BREP_SHAPE_REPRESENTATION('',(#11,#310),#732);
#310 = MANIFOLD_SOLID_BREP('',#311);
#311 = CLOSED_SHELL('',(#312,#352,#383,#416,#447,#480,#511,#542,#573,
    #606,#637,#670,#692,#712));
#312 = ADVANCED_FACE('',(#313),#347,.F.);
#313 = FACE_BOUND('',#314,.T.);
#314 = EDGE_LOOP('',(#315,#325,#333,#341));
#315 = ORIENTED_EDGE('',*,*,#316,.T.);
#316 = EDGE_CURVE('',#317,#319,#321,.T.);
#317 = VERTEX_POINT('',#318);
#318 = CARTESIAN_POINT('',(-0.642126020283,0.56,-1.15));
#319 = VERTEX_POINT('',#320);
#320 = CARTESIAN_POINT('',(-0.65,0.65,-1.15));
#321 = LINE('',#322,#323);
#322 = CARTESIAN_POINT('',(-0.642126020283,0.56,-1.15));
#323 = VECTOR('',#324,1.);
#324 = DIRECTION('',(-8.715574274766E-02,0.996194698092,0.));
#325 = ORIENTED_EDGE('',*,*,#326,.F.);
#326 = EDGE_CURVE('',#327,#319,#329,.T.);
#327 = VERTEX_POINT('',#328);
#328 = CARTESIAN_POINT('',(-0.65,0.65,-0.75));
#329 = LINE('',#330,#331);
#330 = CARTESIAN_POINT('',(-0.65,0.65,-0.75));
#331 = VECTOR('',#332,1.);
#332 = DIRECTION('',(-0.,-0.,-1.));
#333 = ORIENTED_EDGE('',*,*,#334,.F.);
#334 = EDGE_CURVE('',#335,#327,#337,.T.);
#335 = VERTEX_POINT('',#336);
#336 = CARTESIAN_POINT('',(-0.642126020283,0.56,-0.75));
#337 = LINE('',#338,#339);
#338 = CARTESIAN_POINT('',(-0.642126020283,0.56,-0.75));
#339 = VECTOR('',#340,1.);
#340 = DIRECTION('',(-8.715574274766E-02,0.996194698092,0.));
#341 = ORIENTED_EDGE('',*,*,#342,.T.);
#342 = EDGE_CURVE('',#335,#317,#343,.T.);
#343 = LINE('',#344,#345);
#344 = CARTESIAN_POINT('',(-0.642126020283,0.56,-0.75));
#345 = VECTOR('',#346,1.);
#346 = DIRECTION('',(-0.,-0.,-1.));
#347 = PLANE('',#348);
#348 = AXIS2_PLACEMENT_3D('',#349,#350,#351);
#349 = CARTESIAN_POINT('',(-0.642126020283,0.56,-0.75));
#350 = DIRECTION('',(-0.996194698092,-8.715574274766E-02,0.));
#351 = DIRECTION('',(8.715574274766E-02,-0.996194698092,0.));
#352 = ADVANCED_FACE('',(#353),#378,.F.);
#353 = FACE_BOUND('',#354,.T.);
#354 = EDGE_LOOP('',(#355,#363,#371,#377));
#355 = ORIENTED_EDGE('',*,*,#356,.T.);
#356 = EDGE_CURVE('',#319,#357,#359,.T.);
#357 = VERTEX_POINT('',#358);
#358 = CARTESIAN_POINT('',(-0.728046885441,0.65,-1.15));
#359 = LINE('',#360,#361);
#360 = CARTESIAN_POINT('',(-0.65,0.65,-1.15));
#361 = VECTOR('',#362,1.);
#362 = DIRECTION('',(-1.,0.,0.));
#363 = ORIENTED_EDGE('',*,*,#364,.F.);
#364 = EDGE_CURVE('',#365,#357,#367,.T.);
#365 = VERTEX_POINT('',#366);
#366 = CARTESIAN_POINT('',(-0.728046885441,0.65,-0.75));
#367 = LINE('',#368,#369);
#368 = CARTESIAN_POINT('',(-0.728046885441,0.65,-0.75));
#369 = VECTOR('',#370,1.);
#370 = DIRECTION('',(-0.,-0.,-1.));
#371 = ORIENTED_EDGE('',*,*,#372,.F.);
#372 = EDGE_CURVE('',#327,#365,#373,.T.);
#373 = LINE('',#374,#375);
#374 = CARTESIAN_POINT('',(-0.65,0.65,-0.75));
#375 = VECTOR('',#376,1.);
#376 = DIRECTION('',(-1.,0.,0.));
#377 = ORIENTED_EDGE('',*,*,#326,.T.);
#378 = PLANE('',#379);
#379 = AXIS2_PLACEMENT_3D('',#380,#381,#382);
#380 = CARTESIAN_POINT('',(-0.65,0.65,-0.75));
#381 = DIRECTION('',(0.,-1.,0.));
#382 = DIRECTION('',(0.,-0.,-1.));
#383 = ADVANCED_FACE('',(#384),#411,.T.);
#384 = FACE_BOUND('',#385,.T.);
#385 = EDGE_LOOP('',(#386,#395,#403,#410));
#386 = ORIENTED_EDGE('',*,*,#387,.T.);
#387 = EDGE_CURVE('',#357,#388,#390,.T.);
#388 = VERTEX_POINT('',#389);
#389 = CARTESIAN_POINT('',(-0.867514143174,0.522201803985,-1.15));
#390 = CIRCLE('',#391,0.14);
#391 = AXIS2_PLACEMENT_3D('',#392,#393,#394);
#392 = CARTESIAN_POINT('',(-0.728046885441,0.51,-1.15));
#393 = DIRECTION('',(0.,0.,1.));
#394 = DIRECTION('',(1.,0.,-0.));
#395 = ORIENTED_EDGE('',*,*,#396,.F.);
#396 = EDGE_CURVE('',#397,#388,#399,.T.);
#397 = VERTEX_POINT('',#398);
#398 = CARTESIAN_POINT('',(-0.867514143174,0.522201803985,-0.75));
#399 = LINE('',#400,#401);
#400 = CARTESIAN_POINT('',(-0.867514143174,0.522201803985,-0.75));
#401 = VECTOR('',#402,1.);
#402 = DIRECTION('',(-0.,-0.,-1.));
#403 = ORIENTED_EDGE('',*,*,#404,.F.);
#404 = EDGE_CURVE('',#365,#397,#405,.T.);
#405 = CIRCLE('',#406,0.14);
#406 = AXIS2_PLACEMENT_3D('',#407,#408,#409);
#407 = CARTESIAN_POINT('',(-0.728046885441,0.51,-0.75));
#408 = DIRECTION('',(0.,0.,1.));
#409 = DIRECTION('',(1.,0.,-0.));
#410 = ORIENTED_EDGE('',*,*,#364,.T.);
#411 = CYLINDRICAL_SURFACE('',#412,0.14);
#412 = AXIS2_PLACEMENT_3D('',#413,#414,#415);
#413 = CARTESIAN_POINT('',(-0.728046885441,0.51,-0.75));
#414 = DIRECTION('',(-0.,-0.,-1.));
#415 = DIRECTION('',(-1.,0.,0.));
#416 = ADVANCED_FACE('',(#417),#442,.F.);
#417 = FACE_BOUND('',#418,.T.);
#418 = EDGE_LOOP('',(#419,#427,#435,#441));
#419 = ORIENTED_EDGE('',*,*,#420,.T.);
#420 = EDGE_CURVE('',#388,#421,#423,.T.);
#421 = VERTEX_POINT('',#422);
#422 = CARTESIAN_POINT('',(-0.898463932006,0.168444098875,-1.15));
#423 = LINE('',#424,#425);
#424 = CARTESIAN_POINT('',(-0.867514143174,0.522201803985,-1.15));
#425 = VECTOR('',#426,1.);
#426 = DIRECTION('',(-8.715574274766E-02,-0.996194698092,0.));
#427 = ORIENTED_EDGE('',*,*,#428,.F.);
#428 = EDGE_CURVE('',#429,#421,#431,.T.);
#429 = VERTEX_POINT('',#430);
#430 = CARTESIAN_POINT('',(-0.898463932006,0.168444098875,-0.75));
#431 = LINE('',#432,#433);
#432 = CARTESIAN_POINT('',(-0.898463932006,0.168444098875,-0.75));
#433 = VECTOR('',#434,1.);
#434 = DIRECTION('',(-0.,-0.,-1.));
#435 = ORIENTED_EDGE('',*,*,#436,.F.);
#436 = EDGE_CURVE('',#397,#429,#437,.T.);
#437 = LINE('',#438,#439);
#438 = CARTESIAN_POINT('',(-0.867514143174,0.522201803985,-0.75));
#439 = VECTOR('',#440,1.);
#440 = DIRECTION('',(-8.715574274766E-02,-0.996194698092,0.));
#441 = ORIENTED_EDGE('',*,*,#396,.T.);
#442 = PLANE('',#443);
#443 = AXIS2_PLACEMENT_3D('',#444,#445,#446);
#444 = CARTESIAN_POINT('',(-0.867514143174,0.522201803985,-0.75));
#445 = DIRECTION('',(0.996194698092,-8.715574274766E-02,0.));
#446 = DIRECTION('',(8.715574274766E-02,0.996194698092,0.));
#447 = ADVANCED_FACE('',(#448),#475,.F.);
#448 = FACE_BOUND('',#449,.F.);
#449 = EDGE_LOOP('',(#450,#451,#460,#468));
#450 = ORIENTED_EDGE('',*,*,#428,.F.);
#451 = ORIENTED_EDGE('',*,*,#452,.T.);
#452 = EDGE_CURVE('',#429,#453,#455,.T.);
#453 = VERTEX_POINT('',#454);
#454 = CARTESIAN_POINT('',(-0.9417473573,0.123229642944,-0.75));
#455 = CIRCLE('',#456,5.E-02);
#456 = AXIS2_PLACEMENT_3D('',#457,#458,#459);
#457 = CARTESIAN_POINT('',(-0.948273666911,0.172801886012,-0.75));
#458 = DIRECTION('',(-0.,0.,-1.));
#459 = DIRECTION('',(-1.,0.,0.));
#460 = ORIENTED_EDGE('',*,*,#461,.T.);
#461 = EDGE_CURVE('',#453,#462,#464,.T.);
#462 = VERTEX_POINT('',#463);
#463 = CARTESIAN_POINT('',(-0.9417473573,0.123229642944,-1.15));
#464 = LINE('',#465,#466);
#465 = CARTESIAN_POINT('',(-0.9417473573,0.123229642944,-0.75));
#466 = VECTOR('',#467,1.);
#467 = DIRECTION('',(-0.,-0.,-1.));
#468 = ORIENTED_EDGE('',*,*,#469,.F.);
#469 = EDGE_CURVE('',#421,#462,#470,.T.);
#470 = CIRCLE('',#471,5.E-02);
#471 = AXIS2_PLACEMENT_3D('',#472,#473,#474);
#472 = CARTESIAN_POINT('',(-0.948273666911,0.172801886012,-1.15));
#473 = DIRECTION('',(-0.,0.,-1.));
#474 = DIRECTION('',(-1.,0.,0.));
#475 = CYLINDRICAL_SURFACE('',#476,5.E-02);
#476 = AXIS2_PLACEMENT_3D('',#477,#478,#479);
#477 = CARTESIAN_POINT('',(-0.948273666911,0.172801886012,-0.75));
#478 = DIRECTION('',(-0.,-0.,-1.));
#479 = DIRECTION('',(-1.,0.,0.));
#480 = ADVANCED_FACE('',(#481),#506,.F.);
#481 = FACE_BOUND('',#482,.T.);
#482 = EDGE_LOOP('',(#483,#491,#499,#505));
#483 = ORIENTED_EDGE('',*,*,#484,.T.);
#484 = EDGE_CURVE('',#462,#485,#487,.T.);
#485 = VERTEX_POINT('',#486);
#486 = CARTESIAN_POINT('',(-1.2,8.923003752364E-02,-1.15));
#487 = LINE('',#488,#489);
#488 = CARTESIAN_POINT('',(-0.9417473573,0.123229642944,-1.15));
#489 = VECTOR('',#490,1.);
#490 = DIRECTION('',(-0.991444861374,-0.13052619222,0.));
#491 = ORIENTED_EDGE('',*,*,#492,.F.);
#492 = EDGE_CURVE('',#493,#485,#495,.T.);
#493 = VERTEX_POINT('',#494);
#494 = CARTESIAN_POINT('',(-1.2,8.923003752364E-02,-0.75));
#495 = LINE('',#496,#497);
#496 = CARTESIAN_POINT('',(-1.2,8.923003752364E-02,-0.75));
#497 = VECTOR('',#498,1.);
#498 = DIRECTION('',(-0.,-0.,-1.));
#499 = ORIENTED_EDGE('',*,*,#500,.F.);
#500 = EDGE_CURVE('',#453,#493,#501,.T.);
#501 = LINE('',#502,#503);
#502 = CARTESIAN_POINT('',(-0.9417473573,0.123229642944,-0.75));
#503 = VECTOR('',#504,1.);
#504 = DIRECTION('',(-0.991444861374,-0.13052619222,0.));
#505 = ORIENTED_EDGE('',*,*,#461,.T.);
#506 = PLANE('',#507);
#507 = AXIS2_PLACEMENT_3D('',#508,#509,#510);
#508 = CARTESIAN_POINT('',(-0.9417473573,0.123229642944,-0.75));
#509 = DIRECTION('',(0.13052619222,-0.991444861374,0.));
#510 = DIRECTION('',(0.991444861374,0.13052619222,0.));
#511 = ADVANCED_FACE('',(#512),#537,.F.);
#512 = FACE_BOUND('',#513,.T.);
#513 = EDGE_LOOP('',(#514,#522,#530,#536));
#514 = ORIENTED_EDGE('',*,*,#515,.T.);
#515 = EDGE_CURVE('',#485,#516,#518,.T.);
#516 = VERTEX_POINT('',#517);
#517 = CARTESIAN_POINT('',(-1.1882526427,9.853474924563E-21,-1.15));
#518 = LINE('',#519,#520);
#519 = CARTESIAN_POINT('',(-1.2,8.923003752364E-02,-1.15));
#520 = VECTOR('',#521,1.);
#521 = DIRECTION('',(0.13052619222,-0.991444861374,0.));
#522 = ORIENTED_EDGE('',*,*,#523,.F.);
#523 = EDGE_CURVE('',#524,#516,#526,.T.);
#524 = VERTEX_POINT('',#525);
#525 = CARTESIAN_POINT('',(-1.1882526427,9.853474924563E-21,-0.75));
#526 = LINE('',#527,#528);
#527 = CARTESIAN_POINT('',(-1.1882526427,9.853474924563E-21,-0.75));
#528 = VECTOR('',#529,1.);
#529 = DIRECTION('',(-0.,-0.,-1.));
#530 = ORIENTED_EDGE('',*,*,#531,.F.);
#531 = EDGE_CURVE('',#493,#524,#532,.T.);
#532 = LINE('',#533,#534);
#533 = CARTESIAN_POINT('',(-1.2,8.923003752364E-02,-0.75));
#534 = VECTOR('',#535,1.);
#535 = DIRECTION('',(0.13052619222,-0.991444861374,0.));
#536 = ORIENTED_EDGE('',*,*,#492,.T.);
#537 = PLANE('',#538);
#538 = AXIS2_PLACEMENT_3D('',#539,#540,#541);
#539 = CARTESIAN_POINT('',(-1.2,8.923003752364E-02,-0.75));
#540 = DIRECTION('',(0.991444861374,0.13052619222,-0.));
#541 = DIRECTION('',(-0.13052619222,0.991444861374,0.));
#542 = ADVANCED_FACE('',(#543),#568,.F.);
#543 = FACE_BOUND('',#544,.T.);
#544 = EDGE_LOOP('',(#545,#553,#561,#567));
#545 = ORIENTED_EDGE('',*,*,#546,.T.);
#546 = EDGE_CURVE('',#516,#547,#549,.T.);
#547 = VERTEX_POINT('',#548);
#548 = CARTESIAN_POINT('',(-0.93,3.399960542002E-02,-1.15));
#549 = LINE('',#550,#551);
#550 = CARTESIAN_POINT('',(-1.1882526427,9.853474924563E-21,-1.15));
#551 = VECTOR('',#552,1.);
#552 = DIRECTION('',(0.991444861374,0.13052619222,0.));
#553 = ORIENTED_EDGE('',*,*,#554,.F.);
#554 = EDGE_CURVE('',#555,#547,#557,.T.);
#555 = VERTEX_POINT('',#556);
#556 = CARTESIAN_POINT('',(-0.93,3.399960542002E-02,-0.75));
#557 = LINE('',#558,#559);
#558 = CARTESIAN_POINT('',(-0.93,3.399960542002E-02,-0.75));
#559 = VECTOR('',#560,1.);
#560 = DIRECTION('',(-0.,-0.,-1.));
#561 = ORIENTED_EDGE('',*,*,#562,.F.);
#562 = EDGE_CURVE('',#524,#555,#563,.T.);
#563 = LINE('',#564,#565);
#564 = CARTESIAN_POINT('',(-1.1882526427,9.853474924563E-21,-0.75));
#565 = VECTOR('',#566,1.);
#566 = DIRECTION('',(0.991444861374,0.13052619222,0.));
#567 = ORIENTED_EDGE('',*,*,#523,.T.);
#568 = PLANE('',#569);
#569 = AXIS2_PLACEMENT_3D('',#570,#571,#572);
#570 = CARTESIAN_POINT('',(-1.1882526427,9.853474924563E-21,-0.75));
#571 = DIRECTION('',(-0.13052619222,0.991444861374,0.));
#572 = DIRECTION('',(-0.991444861374,-0.13052619222,0.));
#573 = ADVANCED_FACE('',(#574),#601,.T.);
#574 = FACE_BOUND('',#575,.T.);
#575 = EDGE_LOOP('',(#576,#585,#593,#600));
#576 = ORIENTED_EDGE('',*,*,#577,.T.);
#577 = EDGE_CURVE('',#547,#578,#580,.T.);
#578 = VERTEX_POINT('',#579);
#579 = CARTESIAN_POINT('',(-0.808806409178,0.160600082028,-1.15));
#580 = CIRCLE('',#581,0.14);
#581 = AXIS2_PLACEMENT_3D('',#582,#583,#584);
#582 = CARTESIAN_POINT('',(-0.948273666911,0.172801886012,-1.15));
#583 = DIRECTION('',(0.,0.,1.));
#584 = DIRECTION('',(1.,0.,-0.));
#585 = ORIENTED_EDGE('',*,*,#586,.F.);
#586 = EDGE_CURVE('',#587,#578,#589,.T.);
#587 = VERTEX_POINT('',#588);
#588 = CARTESIAN_POINT('',(-0.808806409178,0.160600082028,-0.75));
#589 = LINE('',#590,#591);
#590 = CARTESIAN_POINT('',(-0.808806409178,0.160600082028,-0.75));
#591 = VECTOR('',#592,1.);
#592 = DIRECTION('',(-0.,-0.,-1.));
#593 = ORIENTED_EDGE('',*,*,#594,.F.);
#594 = EDGE_CURVE('',#555,#587,#595,.T.);
#595 = CIRCLE('',#596,0.14);
#596 = AXIS2_PLACEMENT_3D('',#597,#598,#599);
#597 = CARTESIAN_POINT('',(-0.948273666911,0.172801886012,-0.75));
#598 = DIRECTION('',(0.,0.,1.));
#599 = DIRECTION('',(1.,0.,-0.));
#600 = ORIENTED_EDGE('',*,*,#554,.T.);
#601 = CYLINDRICAL_SURFACE('',#602,0.14);
#602 = AXIS2_PLACEMENT_3D('',#603,#604,#605);
#603 = CARTESIAN_POINT('',(-0.948273666911,0.172801886012,-0.75));
#604 = DIRECTION('',(-0.,-0.,-1.));
#605 = DIRECTION('',(-1.,0.,0.));
#606 = ADVANCED_FACE('',(#607),#632,.F.);
#607 = FACE_BOUND('',#608,.T.);
#608 = EDGE_LOOP('',(#609,#617,#625,#631));
#609 = ORIENTED_EDGE('',*,*,#610,.T.);
#610 = EDGE_CURVE('',#578,#611,#613,.T.);
#611 = VERTEX_POINT('',#612);
#612 = CARTESIAN_POINT('',(-0.777856620346,0.514357787137,-1.15));
#613 = LINE('',#614,#615);
#614 = CARTESIAN_POINT('',(-0.808806409178,0.160600082028,-1.15));
#615 = VECTOR('',#616,1.);
#616 = DIRECTION('',(8.715574274766E-02,0.996194698092,0.));
#617 = ORIENTED_EDGE('',*,*,#618,.F.);
#618 = EDGE_CURVE('',#619,#611,#621,.T.);
#619 = VERTEX_POINT('',#620);
#620 = CARTESIAN_POINT('',(-0.777856620346,0.514357787137,-0.75));
#621 = LINE('',#622,#623);
#622 = CARTESIAN_POINT('',(-0.777856620346,0.514357787137,-0.75));
#623 = VECTOR('',#624,1.);
#624 = DIRECTION('',(-0.,-0.,-1.));
#625 = ORIENTED_EDGE('',*,*,#626,.F.);
#626 = EDGE_CURVE('',#587,#619,#627,.T.);
#627 = LINE('',#628,#629);
#628 = CARTESIAN_POINT('',(-0.808806409178,0.160600082028,-0.75));
#629 = VECTOR('',#630,1.);
#630 = DIRECTION('',(8.715574274766E-02,0.996194698092,0.));
#631 = ORIENTED_EDGE('',*,*,#586,.T.);
#632 = PLANE('',#633);
#633 = AXIS2_PLACEMENT_3D('',#634,#635,#636);
#634 = CARTESIAN_POINT('',(-0.808806409178,0.160600082028,-0.75));
#635 = DIRECTION('',(-0.996194698092,8.715574274766E-02,0.));
#636 = DIRECTION('',(-8.715574274766E-02,-0.996194698092,0.));
#637 = ADVANCED_FACE('',(#638),#665,.F.);
#638 = FACE_BOUND('',#639,.F.);
#639 = EDGE_LOOP('',(#640,#641,#650,#658));
#640 = ORIENTED_EDGE('',*,*,#618,.F.);
#641 = ORIENTED_EDGE('',*,*,#642,.T.);
#642 = EDGE_CURVE('',#619,#643,#645,.T.);
#643 = VERTEX_POINT('',#644);
#644 = CARTESIAN_POINT('',(-0.728046885441,0.56,-0.75));
#645 = CIRCLE('',#646,5.E-02);
#646 = AXIS2_PLACEMENT_3D('',#647,#648,#649);
#647 = CARTESIAN_POINT('',(-0.728046885441,0.51,-0.75));
#648 = DIRECTION('',(-0.,0.,-1.));
#649 = DIRECTION('',(-1.,0.,0.));
#650 = ORIENTED_EDGE('',*,*,#651,.T.);
#651 = EDGE_CURVE('',#643,#652,#654,.T.);
#652 = VERTEX_POINT('',#653);
#653 = CARTESIAN_POINT('',(-0.728046885441,0.56,-1.15));
#654 = LINE('',#655,#656);
#655 = CARTESIAN_POINT('',(-0.728046885441,0.56,-0.75));
#656 = VECTOR('',#657,1.);
#657 = DIRECTION('',(-0.,-0.,-1.));
#658 = ORIENTED_EDGE('',*,*,#659,.F.);
#659 = EDGE_CURVE('',#611,#652,#660,.T.);
#660 = CIRCLE('',#661,5.E-02);
#661 = AXIS2_PLACEMENT_3D('',#662,#663,#664);
#662 = CARTESIAN_POINT('',(-0.728046885441,0.51,-1.15));
#663 = DIRECTION('',(-0.,0.,-1.));
#664 = DIRECTION('',(-1.,0.,0.));
#665 = CYLINDRICAL_SURFACE('',#666,5.E-02);
#666 = AXIS2_PLACEMENT_3D('',#667,#668,#669);
#667 = CARTESIAN_POINT('',(-0.728046885441,0.51,-0.75));
#668 = DIRECTION('',(-0.,-0.,-1.));
#669 = DIRECTION('',(-1.,0.,0.));
#670 = ADVANCED_FACE('',(#671),#687,.F.);
#671 = FACE_BOUND('',#672,.T.);
#672 = EDGE_LOOP('',(#673,#679,#680,#686));
#673 = ORIENTED_EDGE('',*,*,#674,.T.);
#674 = EDGE_CURVE('',#652,#317,#675,.T.);
#675 = LINE('',#676,#677);
#676 = CARTESIAN_POINT('',(-0.728046885441,0.56,-1.15));
#677 = VECTOR('',#678,1.);
#678 = DIRECTION('',(1.,0.,0.));
#679 = ORIENTED_EDGE('',*,*,#342,.F.);
#680 = ORIENTED_EDGE('',*,*,#681,.F.);
#681 = EDGE_CURVE('',#643,#335,#682,.T.);
#682 = LINE('',#683,#684);
#683 = CARTESIAN_POINT('',(-0.728046885441,0.56,-0.75));
#684 = VECTOR('',#685,1.);
#685 = DIRECTION('',(1.,0.,0.));
#686 = ORIENTED_EDGE('',*,*,#651,.T.);
#687 = PLANE('',#688);
#688 = AXIS2_PLACEMENT_3D('',#689,#690,#691);
#689 = CARTESIAN_POINT('',(-0.728046885441,0.56,-0.75));
#690 = DIRECTION('',(0.,1.,0.));
#691 = DIRECTION('',(0.,-0.,1.));
#692 = ADVANCED_FACE('',(#693),#707,.T.);
#693 = FACE_BOUND('',#694,.T.);
#694 = EDGE_LOOP('',(#695,#696,#697,#698,#699,#700,#701,#702,#703,#704,
    #705,#706));
#695 = ORIENTED_EDGE('',*,*,#334,.T.);
#696 = ORIENTED_EDGE('',*,*,#372,.T.);
#697 = ORIENTED_EDGE('',*,*,#404,.T.);
#698 = ORIENTED_EDGE('',*,*,#436,.T.);
#699 = ORIENTED_EDGE('',*,*,#452,.T.);
#700 = ORIENTED_EDGE('',*,*,#500,.T.);
#701 = ORIENTED_EDGE('',*,*,#531,.T.);
#702 = ORIENTED_EDGE('',*,*,#562,.T.);
#703 = ORIENTED_EDGE('',*,*,#594,.T.);
#704 = ORIENTED_EDGE('',*,*,#626,.T.);
#705 = ORIENTED_EDGE('',*,*,#642,.T.);
#706 = ORIENTED_EDGE('',*,*,#681,.T.);
#707 = PLANE('',#708);
#708 = AXIS2_PLACEMENT_3D('',#709,#710,#711);
#709 = CARTESIAN_POINT('',(-0.728046885441,0.51,-0.75));
#710 = DIRECTION('',(0.,0.,1.));
#711 = DIRECTION('',(1.,0.,-0.));
#712 = ADVANCED_FACE('',(#713),#727,.F.);
#713 = FACE_BOUND('',#714,.T.);
#714 = EDGE_LOOP('',(#715,#716,#717,#718,#719,#720,#721,#722,#723,#724,
    #725,#726));
#715 = ORIENTED_EDGE('',*,*,#316,.F.);
#716 = ORIENTED_EDGE('',*,*,#674,.F.);
#717 = ORIENTED_EDGE('',*,*,#659,.F.);
#718 = ORIENTED_EDGE('',*,*,#610,.F.);
#719 = ORIENTED_EDGE('',*,*,#577,.F.);
#720 = ORIENTED_EDGE('',*,*,#546,.F.);
#721 = ORIENTED_EDGE('',*,*,#515,.F.);
#722 = ORIENTED_EDGE('',*,*,#484,.F.);
#723 = ORIENTED_EDGE('',*,*,#469,.F.);
#724 = ORIENTED_EDGE('',*,*,#420,.F.);
#725 = ORIENTED_EDGE('',*,*,#387,.F.);
#726 = ORIENTED_EDGE('',*,*,#356,.F.);
#727 = PLANE('',#728);
#728 = AXIS2_PLACEMENT_3D('',#729,#730,#731);
#729 = CARTESIAN_POINT('',(-0.728046885441,0.51,-1.15));
#730 = DIRECTION('',(0.,0.,1.));
#731 = DIRECTION('',(1.,0.,-0.));
#732 = ( GEOMETRIC_REPRESENTATION_CONTEXT(3) 
GLOBAL_UNCERTAINTY_ASSIGNED_CONTEXT((#736)) GLOBAL_UNIT_ASSIGNED_CONTEXT
((#733,#734,#735)) REPRESENTATION_CONTEXT('Context #1',
  '3D Context with UNIT and UNCERTAINTY') );
#733 = ( LENGTH_UNIT() NAMED_UNIT(*) SI_UNIT(.MILLI.,.METRE.) );
#734 = ( NAMED_UNIT(*) PLANE_ANGLE_UNIT() SI_UNIT($,.RADIAN.) );
#735 = ( NAMED_UNIT(*) SI_UNIT($,.STERADIAN.) SOLID_ANGLE_UNIT() );
#736 = UNCERTAINTY_MEASURE_WITH_UNIT(LENGTH_MEASURE(1.E-07),#733,
  'distance_accuracy_value','confusion accuracy');
#737 = CONTEXT_DEPENDENT_SHAPE_REPRESENTATION(#738,#740);
#738 = ( REPRESENTATION_RELATIONSHIP('','',#309,#10) 
REPRESENTATION_RELATIONSHIP_WITH_TRANSFORMATION(#739) 
SHAPE_REPRESENTATION_RELATIONSHIP() );
#739 = ITEM_DEFINED_TRANSFORMATION('','',#11,#19);
#740 = PRODUCT_DEFINITION_SHAPE('Placement','Placement of an item',#741
  );
#741 = NEXT_ASSEMBLY_USAGE_OCCURRENCE('2','BC849C001','',#5,#304,$);
#742 = PRODUCT_RELATED_PRODUCT_CATEGORY('part',$,(#306));
#743 = SHAPE_DEFINITION_REPRESENTATION(#744,#750);
#744 = PRODUCT_DEFINITION_SHAPE('','',#745);
#745 = PRODUCT_DEFINITION('design','',#746,#749);
#746 = PRODUCT_DEFINITION_FORMATION('','',#747);
#747 = PRODUCT('BC849C002','BC849C002','',(#748));
#748 = PRODUCT_CONTEXT('',#2,'mechanical');
#749 = PRODUCT_DEFINITION_CONTEXT('part definition',#2,'design');
#750 = ADVANCED_BREP_SHAPE_REPRESENTATION('',(#11,#751),#1173);
#751 = MANIFOLD_SOLID_BREP('',#752);
#752 = CLOSED_SHELL('',(#753,#795,#826,#857,#888,#921,#952,#985,#1016,
    #1047,#1078,#1111,#1133,#1153));
#753 = ADVANCED_FACE('',(#754),#790,.T.);
#754 = FACE_BOUND('',#755,.T.);
#755 = EDGE_LOOP('',(#756,#767,#775,#784));
#756 = ORIENTED_EDGE('',*,*,#757,.T.);
#757 = EDGE_CURVE('',#758,#760,#762,.T.);
#758 = VERTEX_POINT('',#759);
#759 = CARTESIAN_POINT('',(0.867514143174,0.522201803985,-0.2));
#760 = VERTEX_POINT('',#761);
#761 = CARTESIAN_POINT('',(0.728046885441,0.65,-0.2));
#762 = CIRCLE('',#763,0.14);
#763 = AXIS2_PLACEMENT_3D('',#764,#765,#766);
#764 = CARTESIAN_POINT('',(0.728046885441,0.51,-0.2));
#765 = DIRECTION('',(0.,0.,1.));
#766 = DIRECTION('',(-1.,0.,0.));
#767 = ORIENTED_EDGE('',*,*,#768,.F.);
#768 = EDGE_CURVE('',#769,#760,#771,.T.);
#769 = VERTEX_POINT('',#770);
#770 = CARTESIAN_POINT('',(0.728046885441,0.65,0.2));
#771 = LINE('',#772,#773);
#772 = CARTESIAN_POINT('',(0.728046885441,0.65,0.2));
#773 = VECTOR('',#774,1.);
#774 = DIRECTION('',(-0.,-0.,-1.));
#775 = ORIENTED_EDGE('',*,*,#776,.F.);
#776 = EDGE_CURVE('',#777,#769,#779,.T.);
#777 = VERTEX_POINT('',#778);
#778 = CARTESIAN_POINT('',(0.867514143174,0.522201803985,0.2));
#779 = CIRCLE('',#780,0.14);
#780 = AXIS2_PLACEMENT_3D('',#781,#782,#783);
#781 = CARTESIAN_POINT('',(0.728046885441,0.51,0.2));
#782 = DIRECTION('',(0.,0.,1.));
#783 = DIRECTION('',(-1.,0.,0.));
#784 = ORIENTED_EDGE('',*,*,#785,.T.);
#785 = EDGE_CURVE('',#777,#758,#786,.T.);
#786 = LINE('',#787,#788);
#787 = CARTESIAN_POINT('',(0.867514143174,0.522201803985,0.2));
#788 = VECTOR('',#789,1.);
#789 = DIRECTION('',(-0.,-0.,-1.));
#790 = CYLINDRICAL_SURFACE('',#791,0.14);
#791 = AXIS2_PLACEMENT_3D('',#792,#793,#794);
#792 = CARTESIAN_POINT('',(0.728046885441,0.51,0.2));
#793 = DIRECTION('',(-0.,-0.,-1.));
#794 = DIRECTION('',(-1.,0.,0.));
#795 = ADVANCED_FACE('',(#796),#821,.F.);
#796 = FACE_BOUND('',#797,.T.);
#797 = EDGE_LOOP('',(#798,#806,#814,#820));
#798 = ORIENTED_EDGE('',*,*,#799,.T.);
#799 = EDGE_CURVE('',#760,#800,#802,.T.);
#800 = VERTEX_POINT('',#801);
#801 = CARTESIAN_POINT('',(0.65,0.65,-0.2));
#802 = LINE('',#803,#804);
#803 = CARTESIAN_POINT('',(0.65,0.65,-0.2));
#804 = VECTOR('',#805,1.);
#805 = DIRECTION('',(-1.,-5.556671051534E-15,-0.));
#806 = ORIENTED_EDGE('',*,*,#807,.F.);
#807 = EDGE_CURVE('',#808,#800,#810,.T.);
#808 = VERTEX_POINT('',#809);
#809 = CARTESIAN_POINT('',(0.65,0.65,0.2));
#810 = LINE('',#811,#812);
#811 = CARTESIAN_POINT('',(0.65,0.65,0.2));
#812 = VECTOR('',#813,1.);
#813 = DIRECTION('',(-0.,-0.,-1.));
#814 = ORIENTED_EDGE('',*,*,#815,.F.);
#815 = EDGE_CURVE('',#769,#808,#816,.T.);
#816 = LINE('',#817,#818);
#817 = CARTESIAN_POINT('',(0.65,0.65,0.2));
#818 = VECTOR('',#819,1.);
#819 = DIRECTION('',(-1.,-5.556671051534E-15,-0.));
#820 = ORIENTED_EDGE('',*,*,#768,.T.);
#821 = PLANE('',#822);
#822 = AXIS2_PLACEMENT_3D('',#823,#824,#825);
#823 = CARTESIAN_POINT('',(0.65,0.65,0.2));
#824 = DIRECTION('',(5.556671051534E-15,-1.,0.));
#825 = DIRECTION('',(1.,5.556671051534E-15,0.));
#826 = ADVANCED_FACE('',(#827),#852,.F.);
#827 = FACE_BOUND('',#828,.T.);
#828 = EDGE_LOOP('',(#829,#837,#845,#851));
#829 = ORIENTED_EDGE('',*,*,#830,.T.);
#830 = EDGE_CURVE('',#800,#831,#833,.T.);
#831 = VERTEX_POINT('',#832);
#832 = CARTESIAN_POINT('',(0.642126020283,0.56,-0.2));
#833 = LINE('',#834,#835);
#834 = CARTESIAN_POINT('',(0.642126020283,0.56,-0.2));
#835 = VECTOR('',#836,1.);
#836 = DIRECTION('',(-8.715574274766E-02,-0.996194698092,-0.));
#837 = ORIENTED_EDGE('',*,*,#838,.F.);
#838 = EDGE_CURVE('',#839,#831,#841,.T.);
#839 = VERTEX_POINT('',#840);
#840 = CARTESIAN_POINT('',(0.642126020283,0.56,0.2));
#841 = LINE('',#842,#843);
#842 = CARTESIAN_POINT('',(0.642126020283,0.56,0.2));
#843 = VECTOR('',#844,1.);
#844 = DIRECTION('',(-0.,-0.,-1.));
#845 = ORIENTED_EDGE('',*,*,#846,.F.);
#846 = EDGE_CURVE('',#808,#839,#847,.T.);
#847 = LINE('',#848,#849);
#848 = CARTESIAN_POINT('',(0.642126020283,0.56,0.2));
#849 = VECTOR('',#850,1.);
#850 = DIRECTION('',(-8.715574274766E-02,-0.996194698092,-0.));
#851 = ORIENTED_EDGE('',*,*,#807,.T.);
#852 = PLANE('',#853);
#853 = AXIS2_PLACEMENT_3D('',#854,#855,#856);
#854 = CARTESIAN_POINT('',(0.642126020283,0.56,0.2));
#855 = DIRECTION('',(0.996194698092,-8.715574274766E-02,0.));
#856 = DIRECTION('',(8.715574274766E-02,0.996194698092,0.));
#857 = ADVANCED_FACE('',(#858),#883,.F.);
#858 = FACE_BOUND('',#859,.T.);
#859 = EDGE_LOOP('',(#860,#868,#876,#882));
#860 = ORIENTED_EDGE('',*,*,#861,.T.);
#861 = EDGE_CURVE('',#831,#862,#864,.T.);
#862 = VERTEX_POINT('',#863);
#863 = CARTESIAN_POINT('',(0.728046885441,0.56,-0.2));
#864 = LINE('',#865,#866);
#865 = CARTESIAN_POINT('',(0.728046885441,0.56,-0.2));
#866 = VECTOR('',#867,1.);
#867 = DIRECTION('',(1.,-0.,-0.));
#868 = ORIENTED_EDGE('',*,*,#869,.F.);
#869 = EDGE_CURVE('',#870,#862,#872,.T.);
#870 = VERTEX_POINT('',#871);
#871 = CARTESIAN_POINT('',(0.728046885441,0.56,0.2));
#872 = LINE('',#873,#874);
#873 = CARTESIAN_POINT('',(0.728046885441,0.56,0.2));
#874 = VECTOR('',#875,1.);
#875 = DIRECTION('',(-0.,-0.,-1.));
#876 = ORIENTED_EDGE('',*,*,#877,.F.);
#877 = EDGE_CURVE('',#839,#870,#878,.T.);
#878 = LINE('',#879,#880);
#879 = CARTESIAN_POINT('',(0.728046885441,0.56,0.2));
#880 = VECTOR('',#881,1.);
#881 = DIRECTION('',(1.,-0.,-0.));
#882 = ORIENTED_EDGE('',*,*,#838,.T.);
#883 = PLANE('',#884);
#884 = AXIS2_PLACEMENT_3D('',#885,#886,#887);
#885 = CARTESIAN_POINT('',(0.728046885441,0.56,0.2));
#886 = DIRECTION('',(0.,1.,-0.));
#887 = DIRECTION('',(0.,0.,1.));
#888 = ADVANCED_FACE('',(#889),#916,.F.);
#889 = FACE_BOUND('',#890,.F.);
#890 = EDGE_LOOP('',(#891,#892,#901,#909));
#891 = ORIENTED_EDGE('',*,*,#869,.F.);
#892 = ORIENTED_EDGE('',*,*,#893,.T.);
#893 = EDGE_CURVE('',#870,#894,#896,.T.);
#894 = VERTEX_POINT('',#895);
#895 = CARTESIAN_POINT('',(0.777856620346,0.514357787137,0.2));
#896 = CIRCLE('',#897,5.E-02);
#897 = AXIS2_PLACEMENT_3D('',#898,#899,#900);
#898 = CARTESIAN_POINT('',(0.728046885441,0.51,0.2));
#899 = DIRECTION('',(0.,0.,-1.));
#900 = DIRECTION('',(1.,0.,0.));
#901 = ORIENTED_EDGE('',*,*,#902,.T.);
#902 = EDGE_CURVE('',#894,#903,#905,.T.);
#903 = VERTEX_POINT('',#904);
#904 = CARTESIAN_POINT('',(0.777856620346,0.514357787137,-0.2));
#905 = LINE('',#906,#907);
#906 = CARTESIAN_POINT('',(0.777856620346,0.514357787137,0.2));
#907 = VECTOR('',#908,1.);
#908 = DIRECTION('',(-0.,-0.,-1.));
#909 = ORIENTED_EDGE('',*,*,#910,.F.);
#910 = EDGE_CURVE('',#862,#903,#911,.T.);
#911 = CIRCLE('',#912,5.E-02);
#912 = AXIS2_PLACEMENT_3D('',#913,#914,#915);
#913 = CARTESIAN_POINT('',(0.728046885441,0.51,-0.2));
#914 = DIRECTION('',(0.,0.,-1.));
#915 = DIRECTION('',(1.,0.,0.));
#916 = CYLINDRICAL_SURFACE('',#917,5.E-02);
#917 = AXIS2_PLACEMENT_3D('',#918,#919,#920);
#918 = CARTESIAN_POINT('',(0.728046885441,0.51,0.2));
#919 = DIRECTION('',(-0.,-0.,-1.));
#920 = DIRECTION('',(-1.,0.,0.));
#921 = ADVANCED_FACE('',(#922),#947,.F.);
#922 = FACE_BOUND('',#923,.T.);
#923 = EDGE_LOOP('',(#924,#932,#940,#946));
#924 = ORIENTED_EDGE('',*,*,#925,.T.);
#925 = EDGE_CURVE('',#903,#926,#928,.T.);
#926 = VERTEX_POINT('',#927);
#927 = CARTESIAN_POINT('',(0.808806409178,0.160600082028,-0.2));
#928 = LINE('',#929,#930);
#929 = CARTESIAN_POINT('',(0.808806409178,0.160600082028,-0.2));
#930 = VECTOR('',#931,1.);
#931 = DIRECTION('',(8.715574274766E-02,-0.996194698092,-0.));
#932 = ORIENTED_EDGE('',*,*,#933,.F.);
#933 = EDGE_CURVE('',#934,#926,#936,.T.);
#934 = VERTEX_POINT('',#935);
#935 = CARTESIAN_POINT('',(0.808806409178,0.160600082028,0.2));
#936 = LINE('',#937,#938);
#937 = CARTESIAN_POINT('',(0.808806409178,0.160600082028,0.2));
#938 = VECTOR('',#939,1.);
#939 = DIRECTION('',(-0.,-0.,-1.));
#940 = ORIENTED_EDGE('',*,*,#941,.F.);
#941 = EDGE_CURVE('',#894,#934,#942,.T.);
#942 = LINE('',#943,#944);
#943 = CARTESIAN_POINT('',(0.808806409178,0.160600082028,0.2));
#944 = VECTOR('',#945,1.);
#945 = DIRECTION('',(8.715574274766E-02,-0.996194698092,-0.));
#946 = ORIENTED_EDGE('',*,*,#902,.T.);
#947 = PLANE('',#948);
#948 = AXIS2_PLACEMENT_3D('',#949,#950,#951);
#949 = CARTESIAN_POINT('',(0.808806409178,0.160600082028,0.2));
#950 = DIRECTION('',(0.996194698092,8.715574274766E-02,-0.));
#951 = DIRECTION('',(-8.715574274766E-02,0.996194698092,0.));
#952 = ADVANCED_FACE('',(#953),#980,.T.);
#953 = FACE_BOUND('',#954,.T.);
#954 = EDGE_LOOP('',(#955,#964,#972,#979));
#955 = ORIENTED_EDGE('',*,*,#956,.T.);
#956 = EDGE_CURVE('',#926,#957,#959,.T.);
#957 = VERTEX_POINT('',#958);
#958 = CARTESIAN_POINT('',(0.93,3.399960542002E-02,-0.2));
#959 = CIRCLE('',#960,0.14);
#960 = AXIS2_PLACEMENT_3D('',#961,#962,#963);
#961 = CARTESIAN_POINT('',(0.948273666911,0.172801886012,-0.2));
#962 = DIRECTION('',(0.,0.,1.));
#963 = DIRECTION('',(-1.,0.,0.));
#964 = ORIENTED_EDGE('',*,*,#965,.F.);
#965 = EDGE_CURVE('',#966,#957,#968,.T.);
#966 = VERTEX_POINT('',#967);
#967 = CARTESIAN_POINT('',(0.93,3.399960542002E-02,0.2));
#968 = LINE('',#969,#970);
#969 = CARTESIAN_POINT('',(0.93,3.399960542002E-02,0.2));
#970 = VECTOR('',#971,1.);
#971 = DIRECTION('',(-0.,-0.,-1.));
#972 = ORIENTED_EDGE('',*,*,#973,.F.);
#973 = EDGE_CURVE('',#934,#966,#974,.T.);
#974 = CIRCLE('',#975,0.14);
#975 = AXIS2_PLACEMENT_3D('',#976,#977,#978);
#976 = CARTESIAN_POINT('',(0.948273666911,0.172801886012,0.2));
#977 = DIRECTION('',(0.,0.,1.));
#978 = DIRECTION('',(-1.,0.,0.));
#979 = ORIENTED_EDGE('',*,*,#933,.T.);
#980 = CYLINDRICAL_SURFACE('',#981,0.14);
#981 = AXIS2_PLACEMENT_3D('',#982,#983,#984);
#982 = CARTESIAN_POINT('',(0.948273666911,0.172801886012,0.2));
#983 = DIRECTION('',(-0.,-0.,-1.));
#984 = DIRECTION('',(-1.,0.,0.));
#985 = ADVANCED_FACE('',(#986),#1011,.F.);
#986 = FACE_BOUND('',#987,.T.);
#987 = EDGE_LOOP('',(#988,#996,#1004,#1010));
#988 = ORIENTED_EDGE('',*,*,#989,.T.);
#989 = EDGE_CURVE('',#957,#990,#992,.T.);
#990 = VERTEX_POINT('',#991);
#991 = CARTESIAN_POINT('',(1.1882526427,9.853474924563E-21,-0.2));
#992 = LINE('',#993,#994);
#993 = CARTESIAN_POINT('',(1.1882526427,9.853474924563E-21,-0.2));
#994 = VECTOR('',#995,1.);
#995 = DIRECTION('',(0.991444861374,-0.13052619222,-0.));
#996 = ORIENTED_EDGE('',*,*,#997,.F.);
#997 = EDGE_CURVE('',#998,#990,#1000,.T.);
#998 = VERTEX_POINT('',#999);
#999 = CARTESIAN_POINT('',(1.1882526427,9.853474924563E-21,0.2));
#1000 = LINE('',#1001,#1002);
#1001 = CARTESIAN_POINT('',(1.1882526427,9.853474924563E-21,0.2));
#1002 = VECTOR('',#1003,1.);
#1003 = DIRECTION('',(-0.,-0.,-1.));
#1004 = ORIENTED_EDGE('',*,*,#1005,.F.);
#1005 = EDGE_CURVE('',#966,#998,#1006,.T.);
#1006 = LINE('',#1007,#1008);
#1007 = CARTESIAN_POINT('',(1.1882526427,9.853474924563E-21,0.2));
#1008 = VECTOR('',#1009,1.);
#1009 = DIRECTION('',(0.991444861374,-0.13052619222,-0.));
#1010 = ORIENTED_EDGE('',*,*,#965,.T.);
#1011 = PLANE('',#1012);
#1012 = AXIS2_PLACEMENT_3D('',#1013,#1014,#1015);
#1013 = CARTESIAN_POINT('',(1.1882526427,9.853474924563E-21,0.2));
#1014 = DIRECTION('',(0.13052619222,0.991444861374,-0.));
#1015 = DIRECTION('',(-0.991444861374,0.13052619222,0.));
#1016 = ADVANCED_FACE('',(#1017),#1042,.F.);
#1017 = FACE_BOUND('',#1018,.T.);
#1018 = EDGE_LOOP('',(#1019,#1027,#1035,#1041));
#1019 = ORIENTED_EDGE('',*,*,#1020,.T.);
#1020 = EDGE_CURVE('',#990,#1021,#1023,.T.);
#1021 = VERTEX_POINT('',#1022);
#1022 = CARTESIAN_POINT('',(1.2,8.923003752364E-02,-0.2));
#1023 = LINE('',#1024,#1025);
#1024 = CARTESIAN_POINT('',(1.2,8.923003752364E-02,-0.2));
#1025 = VECTOR('',#1026,1.);
#1026 = DIRECTION('',(0.13052619222,0.991444861374,-0.));
#1027 = ORIENTED_EDGE('',*,*,#1028,.F.);
#1028 = EDGE_CURVE('',#1029,#1021,#1031,.T.);
#1029 = VERTEX_POINT('',#1030);
#1030 = CARTESIAN_POINT('',(1.2,8.923003752364E-02,0.2));
#1031 = LINE('',#1032,#1033);
#1032 = CARTESIAN_POINT('',(1.2,8.923003752364E-02,0.2));
#1033 = VECTOR('',#1034,1.);
#1034 = DIRECTION('',(-0.,-0.,-1.));
#1035 = ORIENTED_EDGE('',*,*,#1036,.F.);
#1036 = EDGE_CURVE('',#998,#1029,#1037,.T.);
#1037 = LINE('',#1038,#1039);
#1038 = CARTESIAN_POINT('',(1.2,8.923003752364E-02,0.2));
#1039 = VECTOR('',#1040,1.);
#1040 = DIRECTION('',(0.13052619222,0.991444861374,-0.));
#1041 = ORIENTED_EDGE('',*,*,#997,.T.);
#1042 = PLANE('',#1043);
#1043 = AXIS2_PLACEMENT_3D('',#1044,#1045,#1046);
#1044 = CARTESIAN_POINT('',(1.2,8.923003752364E-02,0.2));
#1045 = DIRECTION('',(-0.991444861374,0.13052619222,0.));
#1046 = DIRECTION('',(-0.13052619222,-0.991444861374,0.));
#1047 = ADVANCED_FACE('',(#1048),#1073,.F.);
#1048 = FACE_BOUND('',#1049,.T.);
#1049 = EDGE_LOOP('',(#1050,#1058,#1066,#1072));
#1050 = ORIENTED_EDGE('',*,*,#1051,.T.);
#1051 = EDGE_CURVE('',#1021,#1052,#1054,.T.);
#1052 = VERTEX_POINT('',#1053);
#1053 = CARTESIAN_POINT('',(0.9417473573,0.123229642944,-0.2));
#1054 = LINE('',#1055,#1056);
#1055 = CARTESIAN_POINT('',(0.9417473573,0.123229642944,-0.2));
#1056 = VECTOR('',#1057,1.);
#1057 = DIRECTION('',(-0.991444861374,0.13052619222,-0.));
#1058 = ORIENTED_EDGE('',*,*,#1059,.F.);
#1059 = EDGE_CURVE('',#1060,#1052,#1062,.T.);
#1060 = VERTEX_POINT('',#1061);
#1061 = CARTESIAN_POINT('',(0.9417473573,0.123229642944,0.2));
#1062 = LINE('',#1063,#1064);
#1063 = CARTESIAN_POINT('',(0.9417473573,0.123229642944,0.2));
#1064 = VECTOR('',#1065,1.);
#1065 = DIRECTION('',(-0.,-0.,-1.));
#1066 = ORIENTED_EDGE('',*,*,#1067,.F.);
#1067 = EDGE_CURVE('',#1029,#1060,#1068,.T.);
#1068 = LINE('',#1069,#1070);
#1069 = CARTESIAN_POINT('',(0.9417473573,0.123229642944,0.2));
#1070 = VECTOR('',#1071,1.);
#1071 = DIRECTION('',(-0.991444861374,0.13052619222,-0.));
#1072 = ORIENTED_EDGE('',*,*,#1028,.T.);
#1073 = PLANE('',#1074);
#1074 = AXIS2_PLACEMENT_3D('',#1075,#1076,#1077);
#1075 = CARTESIAN_POINT('',(0.9417473573,0.123229642944,0.2));
#1076 = DIRECTION('',(-0.13052619222,-0.991444861374,0.));
#1077 = DIRECTION('',(0.991444861374,-0.13052619222,0.));
#1078 = ADVANCED_FACE('',(#1079),#1106,.F.);
#1079 = FACE_BOUND('',#1080,.F.);
#1080 = EDGE_LOOP('',(#1081,#1082,#1091,#1099));
#1081 = ORIENTED_EDGE('',*,*,#1059,.F.);
#1082 = ORIENTED_EDGE('',*,*,#1083,.T.);
#1083 = EDGE_CURVE('',#1060,#1084,#1086,.T.);
#1084 = VERTEX_POINT('',#1085);
#1085 = CARTESIAN_POINT('',(0.898463932006,0.168444098875,0.2));
#1086 = CIRCLE('',#1087,5.E-02);
#1087 = AXIS2_PLACEMENT_3D('',#1088,#1089,#1090);
#1088 = CARTESIAN_POINT('',(0.948273666911,0.172801886012,0.2));
#1089 = DIRECTION('',(0.,0.,-1.));
#1090 = DIRECTION('',(1.,0.,0.));
#1091 = ORIENTED_EDGE('',*,*,#1092,.T.);
#1092 = EDGE_CURVE('',#1084,#1093,#1095,.T.);
#1093 = VERTEX_POINT('',#1094);
#1094 = CARTESIAN_POINT('',(0.898463932006,0.168444098875,-0.2));
#1095 = LINE('',#1096,#1097);
#1096 = CARTESIAN_POINT('',(0.898463932006,0.168444098875,0.2));
#1097 = VECTOR('',#1098,1.);
#1098 = DIRECTION('',(-0.,-0.,-1.));
#1099 = ORIENTED_EDGE('',*,*,#1100,.F.);
#1100 = EDGE_CURVE('',#1052,#1093,#1101,.T.);
#1101 = CIRCLE('',#1102,5.E-02);
#1102 = AXIS2_PLACEMENT_3D('',#1103,#1104,#1105);
#1103 = CARTESIAN_POINT('',(0.948273666911,0.172801886012,-0.2));
#1104 = DIRECTION('',(0.,0.,-1.));
#1105 = DIRECTION('',(1.,0.,0.));
#1106 = CYLINDRICAL_SURFACE('',#1107,5.E-02);
#1107 = AXIS2_PLACEMENT_3D('',#1108,#1109,#1110);
#1108 = CARTESIAN_POINT('',(0.948273666911,0.172801886012,0.2));
#1109 = DIRECTION('',(-0.,-0.,-1.));
#1110 = DIRECTION('',(-1.,0.,0.));
#1111 = ADVANCED_FACE('',(#1112),#1128,.F.);
#1112 = FACE_BOUND('',#1113,.T.);
#1113 = EDGE_LOOP('',(#1114,#1120,#1121,#1127));
#1114 = ORIENTED_EDGE('',*,*,#1115,.T.);
#1115 = EDGE_CURVE('',#1093,#758,#1116,.T.);
#1116 = LINE('',#1117,#1118);
#1117 = CARTESIAN_POINT('',(0.867514143174,0.522201803985,-0.2));
#1118 = VECTOR('',#1119,1.);
#1119 = DIRECTION('',(-8.715574274766E-02,0.996194698092,-0.));
#1120 = ORIENTED_EDGE('',*,*,#785,.F.);
#1121 = ORIENTED_EDGE('',*,*,#1122,.F.);
#1122 = EDGE_CURVE('',#1084,#777,#1123,.T.);
#1123 = LINE('',#1124,#1125);
#1124 = CARTESIAN_POINT('',(0.867514143174,0.522201803985,0.2));
#1125 = VECTOR('',#1126,1.);
#1126 = DIRECTION('',(-8.715574274766E-02,0.996194698092,-0.));
#1127 = ORIENTED_EDGE('',*,*,#1092,.T.);
#1128 = PLANE('',#1129);
#1129 = AXIS2_PLACEMENT_3D('',#1130,#1131,#1132);
#1130 = CARTESIAN_POINT('',(0.867514143174,0.522201803985,0.2));
#1131 = DIRECTION('',(-0.996194698092,-8.715574274766E-02,0.));
#1132 = DIRECTION('',(8.715574274766E-02,-0.996194698092,0.));
#1133 = ADVANCED_FACE('',(#1134),#1148,.F.);
#1134 = FACE_BOUND('',#1135,.T.);
#1135 = EDGE_LOOP('',(#1136,#1137,#1138,#1139,#1140,#1141,#1142,#1143,
    #1144,#1145,#1146,#1147));
#1136 = ORIENTED_EDGE('',*,*,#776,.T.);
#1137 = ORIENTED_EDGE('',*,*,#815,.T.);
#1138 = ORIENTED_EDGE('',*,*,#846,.T.);
#1139 = ORIENTED_EDGE('',*,*,#877,.T.);
#1140 = ORIENTED_EDGE('',*,*,#893,.T.);
#1141 = ORIENTED_EDGE('',*,*,#941,.T.);
#1142 = ORIENTED_EDGE('',*,*,#973,.T.);
#1143 = ORIENTED_EDGE('',*,*,#1005,.T.);
#1144 = ORIENTED_EDGE('',*,*,#1036,.T.);
#1145 = ORIENTED_EDGE('',*,*,#1067,.T.);
#1146 = ORIENTED_EDGE('',*,*,#1083,.T.);
#1147 = ORIENTED_EDGE('',*,*,#1122,.T.);
#1148 = PLANE('',#1149);
#1149 = AXIS2_PLACEMENT_3D('',#1150,#1151,#1152);
#1150 = CARTESIAN_POINT('',(0.728046885441,0.51,0.2));
#1151 = DIRECTION('',(-0.,0.,-1.));
#1152 = DIRECTION('',(-1.,0.,0.));
#1153 = ADVANCED_FACE('',(#1154),#1168,.T.);
#1154 = FACE_BOUND('',#1155,.T.);
#1155 = EDGE_LOOP('',(#1156,#1157,#1158,#1159,#1160,#1161,#1162,#1163,
    #1164,#1165,#1166,#1167));
#1156 = ORIENTED_EDGE('',*,*,#757,.F.);
#1157 = ORIENTED_EDGE('',*,*,#1115,.F.);
#1158 = ORIENTED_EDGE('',*,*,#1100,.F.);
#1159 = ORIENTED_EDGE('',*,*,#1051,.F.);
#1160 = ORIENTED_EDGE('',*,*,#1020,.F.);
#1161 = ORIENTED_EDGE('',*,*,#989,.F.);
#1162 = ORIENTED_EDGE('',*,*,#956,.F.);
#1163 = ORIENTED_EDGE('',*,*,#925,.F.);
#1164 = ORIENTED_EDGE('',*,*,#910,.F.);
#1165 = ORIENTED_EDGE('',*,*,#861,.F.);
#1166 = ORIENTED_EDGE('',*,*,#830,.F.);
#1167 = ORIENTED_EDGE('',*,*,#799,.F.);
#1168 = PLANE('',#1169);
#1169 = AXIS2_PLACEMENT_3D('',#1170,#1171,#1172);
#1170 = CARTESIAN_POINT('',(0.728046885441,0.51,-0.2));
#1171 = DIRECTION('',(-0.,0.,-1.));
#1172 = DIRECTION('',(-1.,0.,0.));
#1173 = ( GEOMETRIC_REPRESENTATION_CONTEXT(3) 
GLOBAL_UNCERTAINTY_ASSIGNED_CONTEXT((#1177)) 
GLOBAL_UNIT_ASSIGNED_CONTEXT((#1174,#1175,#1176)) REPRESENTATION_CONTEXT
('Context #1','3D Context with UNIT and UNCERTAINTY') );
#1174 = ( LENGTH_UNIT() NAMED_UNIT(*) SI_UNIT(.MILLI.,.METRE.) );
#1175 = ( NAMED_UNIT(*) PLANE_ANGLE_UNIT() SI_UNIT($,.RADIAN.) );
#1176 = ( NAMED_UNIT(*) SI_UNIT($,.STERADIAN.) SOLID_ANGLE_UNIT() );
#1177 = UNCERTAINTY_MEASURE_WITH_UNIT(LENGTH_MEASURE(1.E-07),#1174,
  'distance_accuracy_value','confusion accuracy');
#1178 = CONTEXT_DEPENDENT_SHAPE_REPRESENTATION(#1179,#1181);
#1179 = ( REPRESENTATION_RELATIONSHIP('','',#750,#10) 
REPRESENTATION_RELATIONSHIP_WITH_TRANSFORMATION(#1180) 
SHAPE_REPRESENTATION_RELATIONSHIP() );
#1180 = ITEM_DEFINED_TRANSFORMATION('','',#11,#23);
#1181 = PRODUCT_DEFINITION_SHAPE('Placement','Placement of an item',
  #1182);
#1182 = NEXT_ASSEMBLY_USAGE_OCCURRENCE('3','BC849C002','',#5,#745,$);
#1183 = PRODUCT_RELATED_PRODUCT_CATEGORY('part',$,(#747));
#1184 = SHAPE_DEFINITION_REPRESENTATION(#1185,#1191);
#1185 = PRODUCT_DEFINITION_SHAPE('','',#1186);
#1186 = PRODUCT_DEFINITION('design','',#1187,#1190);
#1187 = PRODUCT_DEFINITION_FORMATION('','',#1188);
#1188 = PRODUCT('BC849C003','BC849C003','',(#1189));
#1189 = PRODUCT_CONTEXT('',#2,'mechanical');
#1190 = PRODUCT_DEFINITION_CONTEXT('part definition',#2,'design');
#1191 = ADVANCED_BREP_SHAPE_REPRESENTATION('',(#11,#1192),#1614);
#1192 = MANIFOLD_SOLID_BREP('',#1193);
#1193 = CLOSED_SHELL('',(#1194,#1234,#1265,#1298,#1329,#1362,#1393,#1424
    ,#1455,#1488,#1519,#1552,#1574,#1594));
#1194 = ADVANCED_FACE('',(#1195),#1229,.F.);
#1195 = FACE_BOUND('',#1196,.T.);
#1196 = EDGE_LOOP('',(#1197,#1207,#1215,#1223));
#1197 = ORIENTED_EDGE('',*,*,#1198,.T.);
#1198 = EDGE_CURVE('',#1199,#1201,#1203,.T.);
#1199 = VERTEX_POINT('',#1200);
#1200 = CARTESIAN_POINT('',(-0.642126020283,0.56,0.75));
#1201 = VERTEX_POINT('',#1202);
#1202 = CARTESIAN_POINT('',(-0.65,0.65,0.75));
#1203 = LINE('',#1204,#1205);
#1204 = CARTESIAN_POINT('',(-0.642126020283,0.56,0.75));
#1205 = VECTOR('',#1206,1.);
#1206 = DIRECTION('',(-8.715574274766E-02,0.996194698092,0.));
#1207 = ORIENTED_EDGE('',*,*,#1208,.F.);
#1208 = EDGE_CURVE('',#1209,#1201,#1211,.T.);
#1209 = VERTEX_POINT('',#1210);
#1210 = CARTESIAN_POINT('',(-0.65,0.65,1.15));
#1211 = LINE('',#1212,#1213);
#1212 = CARTESIAN_POINT('',(-0.65,0.65,1.15));
#1213 = VECTOR('',#1214,1.);
#1214 = DIRECTION('',(-0.,-0.,-1.));
#1215 = ORIENTED_EDGE('',*,*,#1216,.F.);
#1216 = EDGE_CURVE('',#1217,#1209,#1219,.T.);
#1217 = VERTEX_POINT('',#1218);
#1218 = CARTESIAN_POINT('',(-0.642126020283,0.56,1.15));
#1219 = LINE('',#1220,#1221);
#1220 = CARTESIAN_POINT('',(-0.642126020283,0.56,1.15));
#1221 = VECTOR('',#1222,1.);
#1222 = DIRECTION('',(-8.715574274766E-02,0.996194698092,0.));
#1223 = ORIENTED_EDGE('',*,*,#1224,.T.);
#1224 = EDGE_CURVE('',#1217,#1199,#1225,.T.);
#1225 = LINE('',#1226,#1227);
#1226 = CARTESIAN_POINT('',(-0.642126020283,0.56,1.15));
#1227 = VECTOR('',#1228,1.);
#1228 = DIRECTION('',(-0.,-0.,-1.));
#1229 = PLANE('',#1230);
#1230 = AXIS2_PLACEMENT_3D('',#1231,#1232,#1233);
#1231 = CARTESIAN_POINT('',(-0.642126020283,0.56,1.15));
#1232 = DIRECTION('',(-0.996194698092,-8.715574274766E-02,0.));
#1233 = DIRECTION('',(8.715574274766E-02,-0.996194698092,0.));
#1234 = ADVANCED_FACE('',(#1235),#1260,.F.);
#1235 = FACE_BOUND('',#1236,.T.);
#1236 = EDGE_LOOP('',(#1237,#1245,#1253,#1259));
#1237 = ORIENTED_EDGE('',*,*,#1238,.T.);
#1238 = EDGE_CURVE('',#1201,#1239,#1241,.T.);
#1239 = VERTEX_POINT('',#1240);
#1240 = CARTESIAN_POINT('',(-0.728046885441,0.65,0.75));
#1241 = LINE('',#1242,#1243);
#1242 = CARTESIAN_POINT('',(-0.65,0.65,0.75));
#1243 = VECTOR('',#1244,1.);
#1244 = DIRECTION('',(-1.,0.,0.));
#1245 = ORIENTED_EDGE('',*,*,#1246,.F.);
#1246 = EDGE_CURVE('',#1247,#1239,#1249,.T.);
#1247 = VERTEX_POINT('',#1248);
#1248 = CARTESIAN_POINT('',(-0.728046885441,0.65,1.15));
#1249 = LINE('',#1250,#1251);
#1250 = CARTESIAN_POINT('',(-0.728046885441,0.65,1.15));
#1251 = VECTOR('',#1252,1.);
#1252 = DIRECTION('',(-0.,-0.,-1.));
#1253 = ORIENTED_EDGE('',*,*,#1254,.F.);
#1254 = EDGE_CURVE('',#1209,#1247,#1255,.T.);
#1255 = LINE('',#1256,#1257);
#1256 = CARTESIAN_POINT('',(-0.65,0.65,1.15));
#1257 = VECTOR('',#1258,1.);
#1258 = DIRECTION('',(-1.,0.,0.));
#1259 = ORIENTED_EDGE('',*,*,#1208,.T.);
#1260 = PLANE('',#1261);
#1261 = AXIS2_PLACEMENT_3D('',#1262,#1263,#1264);
#1262 = CARTESIAN_POINT('',(-0.65,0.65,1.15));
#1263 = DIRECTION('',(0.,-1.,0.));
#1264 = DIRECTION('',(0.,-0.,-1.));
#1265 = ADVANCED_FACE('',(#1266),#1293,.T.);
#1266 = FACE_BOUND('',#1267,.T.);
#1267 = EDGE_LOOP('',(#1268,#1277,#1285,#1292));
#1268 = ORIENTED_EDGE('',*,*,#1269,.T.);
#1269 = EDGE_CURVE('',#1239,#1270,#1272,.T.);
#1270 = VERTEX_POINT('',#1271);
#1271 = CARTESIAN_POINT('',(-0.867514143174,0.522201803985,0.75));
#1272 = CIRCLE('',#1273,0.14);
#1273 = AXIS2_PLACEMENT_3D('',#1274,#1275,#1276);
#1274 = CARTESIAN_POINT('',(-0.728046885441,0.51,0.75));
#1275 = DIRECTION('',(0.,0.,1.));
#1276 = DIRECTION('',(1.,0.,-0.));
#1277 = ORIENTED_EDGE('',*,*,#1278,.F.);
#1278 = EDGE_CURVE('',#1279,#1270,#1281,.T.);
#1279 = VERTEX_POINT('',#1280);
#1280 = CARTESIAN_POINT('',(-0.867514143174,0.522201803985,1.15));
#1281 = LINE('',#1282,#1283);
#1282 = CARTESIAN_POINT('',(-0.867514143174,0.522201803985,1.15));
#1283 = VECTOR('',#1284,1.);
#1284 = DIRECTION('',(-0.,-0.,-1.));
#1285 = ORIENTED_EDGE('',*,*,#1286,.F.);
#1286 = EDGE_CURVE('',#1247,#1279,#1287,.T.);
#1287 = CIRCLE('',#1288,0.14);
#1288 = AXIS2_PLACEMENT_3D('',#1289,#1290,#1291);
#1289 = CARTESIAN_POINT('',(-0.728046885441,0.51,1.15));
#1290 = DIRECTION('',(0.,0.,1.));
#1291 = DIRECTION('',(1.,0.,-0.));
#1292 = ORIENTED_EDGE('',*,*,#1246,.T.);
#1293 = CYLINDRICAL_SURFACE('',#1294,0.14);
#1294 = AXIS2_PLACEMENT_3D('',#1295,#1296,#1297);
#1295 = CARTESIAN_POINT('',(-0.728046885441,0.51,1.15));
#1296 = DIRECTION('',(-0.,-0.,-1.));
#1297 = DIRECTION('',(-1.,0.,0.));
#1298 = ADVANCED_FACE('',(#1299),#1324,.F.);
#1299 = FACE_BOUND('',#1300,.T.);
#1300 = EDGE_LOOP('',(#1301,#1309,#1317,#1323));
#1301 = ORIENTED_EDGE('',*,*,#1302,.T.);
#1302 = EDGE_CURVE('',#1270,#1303,#1305,.T.);
#1303 = VERTEX_POINT('',#1304);
#1304 = CARTESIAN_POINT('',(-0.898463932006,0.168444098875,0.75));
#1305 = LINE('',#1306,#1307);
#1306 = CARTESIAN_POINT('',(-0.867514143174,0.522201803985,0.75));
#1307 = VECTOR('',#1308,1.);
#1308 = DIRECTION('',(-8.715574274766E-02,-0.996194698092,0.));
#1309 = ORIENTED_EDGE('',*,*,#1310,.F.);
#1310 = EDGE_CURVE('',#1311,#1303,#1313,.T.);
#1311 = VERTEX_POINT('',#1312);
#1312 = CARTESIAN_POINT('',(-0.898463932006,0.168444098875,1.15));
#1313 = LINE('',#1314,#1315);
#1314 = CARTESIAN_POINT('',(-0.898463932006,0.168444098875,1.15));
#1315 = VECTOR('',#1316,1.);
#1316 = DIRECTION('',(-0.,-0.,-1.));
#1317 = ORIENTED_EDGE('',*,*,#1318,.F.);
#1318 = EDGE_CURVE('',#1279,#1311,#1319,.T.);
#1319 = LINE('',#1320,#1321);
#1320 = CARTESIAN_POINT('',(-0.867514143174,0.522201803985,1.15));
#1321 = VECTOR('',#1322,1.);
#1322 = DIRECTION('',(-8.715574274766E-02,-0.996194698092,0.));
#1323 = ORIENTED_EDGE('',*,*,#1278,.T.);
#1324 = PLANE('',#1325);
#1325 = AXIS2_PLACEMENT_3D('',#1326,#1327,#1328);
#1326 = CARTESIAN_POINT('',(-0.867514143174,0.522201803985,1.15));
#1327 = DIRECTION('',(0.996194698092,-8.715574274766E-02,0.));
#1328 = DIRECTION('',(8.715574274766E-02,0.996194698092,0.));
#1329 = ADVANCED_FACE('',(#1330),#1357,.F.);
#1330 = FACE_BOUND('',#1331,.F.);
#1331 = EDGE_LOOP('',(#1332,#1333,#1342,#1350));
#1332 = ORIENTED_EDGE('',*,*,#1310,.F.);
#1333 = ORIENTED_EDGE('',*,*,#1334,.T.);
#1334 = EDGE_CURVE('',#1311,#1335,#1337,.T.);
#1335 = VERTEX_POINT('',#1336);
#1336 = CARTESIAN_POINT('',(-0.9417473573,0.123229642944,1.15));
#1337 = CIRCLE('',#1338,5.E-02);
#1338 = AXIS2_PLACEMENT_3D('',#1339,#1340,#1341);
#1339 = CARTESIAN_POINT('',(-0.948273666911,0.172801886012,1.15));
#1340 = DIRECTION('',(-0.,0.,-1.));
#1341 = DIRECTION('',(-1.,0.,0.));
#1342 = ORIENTED_EDGE('',*,*,#1343,.T.);
#1343 = EDGE_CURVE('',#1335,#1344,#1346,.T.);
#1344 = VERTEX_POINT('',#1345);
#1345 = CARTESIAN_POINT('',(-0.9417473573,0.123229642944,0.75));
#1346 = LINE('',#1347,#1348);
#1347 = CARTESIAN_POINT('',(-0.9417473573,0.123229642944,1.15));
#1348 = VECTOR('',#1349,1.);
#1349 = DIRECTION('',(-0.,-0.,-1.));
#1350 = ORIENTED_EDGE('',*,*,#1351,.F.);
#1351 = EDGE_CURVE('',#1303,#1344,#1352,.T.);
#1352 = CIRCLE('',#1353,5.E-02);
#1353 = AXIS2_PLACEMENT_3D('',#1354,#1355,#1356);
#1354 = CARTESIAN_POINT('',(-0.948273666911,0.172801886012,0.75));
#1355 = DIRECTION('',(-0.,0.,-1.));
#1356 = DIRECTION('',(-1.,0.,0.));
#1357 = CYLINDRICAL_SURFACE('',#1358,5.E-02);
#1358 = AXIS2_PLACEMENT_3D('',#1359,#1360,#1361);
#1359 = CARTESIAN_POINT('',(-0.948273666911,0.172801886012,1.15));
#1360 = DIRECTION('',(-0.,-0.,-1.));
#1361 = DIRECTION('',(-1.,0.,0.));
#1362 = ADVANCED_FACE('',(#1363),#1388,.F.);
#1363 = FACE_BOUND('',#1364,.T.);
#1364 = EDGE_LOOP('',(#1365,#1373,#1381,#1387));
#1365 = ORIENTED_EDGE('',*,*,#1366,.T.);
#1366 = EDGE_CURVE('',#1344,#1367,#1369,.T.);
#1367 = VERTEX_POINT('',#1368);
#1368 = CARTESIAN_POINT('',(-1.2,8.923003752364E-02,0.75));
#1369 = LINE('',#1370,#1371);
#1370 = CARTESIAN_POINT('',(-0.9417473573,0.123229642944,0.75));
#1371 = VECTOR('',#1372,1.);
#1372 = DIRECTION('',(-0.991444861374,-0.13052619222,0.));
#1373 = ORIENTED_EDGE('',*,*,#1374,.F.);
#1374 = EDGE_CURVE('',#1375,#1367,#1377,.T.);
#1375 = VERTEX_POINT('',#1376);
#1376 = CARTESIAN_POINT('',(-1.2,8.923003752364E-02,1.15));
#1377 = LINE('',#1378,#1379);
#1378 = CARTESIAN_POINT('',(-1.2,8.923003752364E-02,1.15));
#1379 = VECTOR('',#1380,1.);
#1380 = DIRECTION('',(-0.,-0.,-1.));
#1381 = ORIENTED_EDGE('',*,*,#1382,.F.);
#1382 = EDGE_CURVE('',#1335,#1375,#1383,.T.);
#1383 = LINE('',#1384,#1385);
#1384 = CARTESIAN_POINT('',(-0.9417473573,0.123229642944,1.15));
#1385 = VECTOR('',#1386,1.);
#1386 = DIRECTION('',(-0.991444861374,-0.13052619222,0.));
#1387 = ORIENTED_EDGE('',*,*,#1343,.T.);
#1388 = PLANE('',#1389);
#1389 = AXIS2_PLACEMENT_3D('',#1390,#1391,#1392);
#1390 = CARTESIAN_POINT('',(-0.9417473573,0.123229642944,1.15));
#1391 = DIRECTION('',(0.13052619222,-0.991444861374,0.));
#1392 = DIRECTION('',(0.991444861374,0.13052619222,0.));
#1393 = ADVANCED_FACE('',(#1394),#1419,.F.);
#1394 = FACE_BOUND('',#1395,.T.);
#1395 = EDGE_LOOP('',(#1396,#1404,#1412,#1418));
#1396 = ORIENTED_EDGE('',*,*,#1397,.T.);
#1397 = EDGE_CURVE('',#1367,#1398,#1400,.T.);
#1398 = VERTEX_POINT('',#1399);
#1399 = CARTESIAN_POINT('',(-1.1882526427,9.853474924563E-21,0.75));
#1400 = LINE('',#1401,#1402);
#1401 = CARTESIAN_POINT('',(-1.2,8.923003752364E-02,0.75));
#1402 = VECTOR('',#1403,1.);
#1403 = DIRECTION('',(0.13052619222,-0.991444861374,0.));
#1404 = ORIENTED_EDGE('',*,*,#1405,.F.);
#1405 = EDGE_CURVE('',#1406,#1398,#1408,.T.);
#1406 = VERTEX_POINT('',#1407);
#1407 = CARTESIAN_POINT('',(-1.1882526427,9.853474924563E-21,1.15));
#1408 = LINE('',#1409,#1410);
#1409 = CARTESIAN_POINT('',(-1.1882526427,9.853474924563E-21,1.15));
#1410 = VECTOR('',#1411,1.);
#1411 = DIRECTION('',(-0.,-0.,-1.));
#1412 = ORIENTED_EDGE('',*,*,#1413,.F.);
#1413 = EDGE_CURVE('',#1375,#1406,#1414,.T.);
#1414 = LINE('',#1415,#1416);
#1415 = CARTESIAN_POINT('',(-1.2,8.923003752364E-02,1.15));
#1416 = VECTOR('',#1417,1.);
#1417 = DIRECTION('',(0.13052619222,-0.991444861374,0.));
#1418 = ORIENTED_EDGE('',*,*,#1374,.T.);
#1419 = PLANE('',#1420);
#1420 = AXIS2_PLACEMENT_3D('',#1421,#1422,#1423);
#1421 = CARTESIAN_POINT('',(-1.2,8.923003752364E-02,1.15));
#1422 = DIRECTION('',(0.991444861374,0.13052619222,-0.));
#1423 = DIRECTION('',(-0.13052619222,0.991444861374,0.));
#1424 = ADVANCED_FACE('',(#1425),#1450,.F.);
#1425 = FACE_BOUND('',#1426,.T.);
#1426 = EDGE_LOOP('',(#1427,#1435,#1443,#1449));
#1427 = ORIENTED_EDGE('',*,*,#1428,.T.);
#1428 = EDGE_CURVE('',#1398,#1429,#1431,.T.);
#1429 = VERTEX_POINT('',#1430);
#1430 = CARTESIAN_POINT('',(-0.93,3.399960542002E-02,0.75));
#1431 = LINE('',#1432,#1433);
#1432 = CARTESIAN_POINT('',(-1.1882526427,9.853474924563E-21,0.75));
#1433 = VECTOR('',#1434,1.);
#1434 = DIRECTION('',(0.991444861374,0.13052619222,0.));
#1435 = ORIENTED_EDGE('',*,*,#1436,.F.);
#1436 = EDGE_CURVE('',#1437,#1429,#1439,.T.);
#1437 = VERTEX_POINT('',#1438);
#1438 = CARTESIAN_POINT('',(-0.93,3.399960542002E-02,1.15));
#1439 = LINE('',#1440,#1441);
#1440 = CARTESIAN_POINT('',(-0.93,3.399960542002E-02,1.15));
#1441 = VECTOR('',#1442,1.);
#1442 = DIRECTION('',(-0.,-0.,-1.));
#1443 = ORIENTED_EDGE('',*,*,#1444,.F.);
#1444 = EDGE_CURVE('',#1406,#1437,#1445,.T.);
#1445 = LINE('',#1446,#1447);
#1446 = CARTESIAN_POINT('',(-1.1882526427,9.853474924563E-21,1.15));
#1447 = VECTOR('',#1448,1.);
#1448 = DIRECTION('',(0.991444861374,0.13052619222,0.));
#1449 = ORIENTED_EDGE('',*,*,#1405,.T.);
#1450 = PLANE('',#1451);
#1451 = AXIS2_PLACEMENT_3D('',#1452,#1453,#1454);
#1452 = CARTESIAN_POINT('',(-1.1882526427,9.853474924563E-21,1.15));
#1453 = DIRECTION('',(-0.13052619222,0.991444861374,0.));
#1454 = DIRECTION('',(-0.991444861374,-0.13052619222,0.));
#1455 = ADVANCED_FACE('',(#1456),#1483,.T.);
#1456 = FACE_BOUND('',#1457,.T.);
#1457 = EDGE_LOOP('',(#1458,#1467,#1475,#1482));
#1458 = ORIENTED_EDGE('',*,*,#1459,.T.);
#1459 = EDGE_CURVE('',#1429,#1460,#1462,.T.);
#1460 = VERTEX_POINT('',#1461);
#1461 = CARTESIAN_POINT('',(-0.808806409178,0.160600082028,0.75));
#1462 = CIRCLE('',#1463,0.14);
#1463 = AXIS2_PLACEMENT_3D('',#1464,#1465,#1466);
#1464 = CARTESIAN_POINT('',(-0.948273666911,0.172801886012,0.75));
#1465 = DIRECTION('',(0.,0.,1.));
#1466 = DIRECTION('',(1.,0.,-0.));
#1467 = ORIENTED_EDGE('',*,*,#1468,.F.);
#1468 = EDGE_CURVE('',#1469,#1460,#1471,.T.);
#1469 = VERTEX_POINT('',#1470);
#1470 = CARTESIAN_POINT('',(-0.808806409178,0.160600082028,1.15));
#1471 = LINE('',#1472,#1473);
#1472 = CARTESIAN_POINT('',(-0.808806409178,0.160600082028,1.15));
#1473 = VECTOR('',#1474,1.);
#1474 = DIRECTION('',(-0.,-0.,-1.));
#1475 = ORIENTED_EDGE('',*,*,#1476,.F.);
#1476 = EDGE_CURVE('',#1437,#1469,#1477,.T.);
#1477 = CIRCLE('',#1478,0.14);
#1478 = AXIS2_PLACEMENT_3D('',#1479,#1480,#1481);
#1479 = CARTESIAN_POINT('',(-0.948273666911,0.172801886012,1.15));
#1480 = DIRECTION('',(0.,0.,1.));
#1481 = DIRECTION('',(1.,0.,-0.));
#1482 = ORIENTED_EDGE('',*,*,#1436,.T.);
#1483 = CYLINDRICAL_SURFACE('',#1484,0.14);
#1484 = AXIS2_PLACEMENT_3D('',#1485,#1486,#1487);
#1485 = CARTESIAN_POINT('',(-0.948273666911,0.172801886012,1.15));
#1486 = DIRECTION('',(-0.,-0.,-1.));
#1487 = DIRECTION('',(-1.,0.,0.));
#1488 = ADVANCED_FACE('',(#1489),#1514,.F.);
#1489 = FACE_BOUND('',#1490,.T.);
#1490 = EDGE_LOOP('',(#1491,#1499,#1507,#1513));
#1491 = ORIENTED_EDGE('',*,*,#1492,.T.);
#1492 = EDGE_CURVE('',#1460,#1493,#1495,.T.);
#1493 = VERTEX_POINT('',#1494);
#1494 = CARTESIAN_POINT('',(-0.777856620346,0.514357787137,0.75));
#1495 = LINE('',#1496,#1497);
#1496 = CARTESIAN_POINT('',(-0.808806409178,0.160600082028,0.75));
#1497 = VECTOR('',#1498,1.);
#1498 = DIRECTION('',(8.715574274766E-02,0.996194698092,0.));
#1499 = ORIENTED_EDGE('',*,*,#1500,.F.);
#1500 = EDGE_CURVE('',#1501,#1493,#1503,.T.);
#1501 = VERTEX_POINT('',#1502);
#1502 = CARTESIAN_POINT('',(-0.777856620346,0.514357787137,1.15));
#1503 = LINE('',#1504,#1505);
#1504 = CARTESIAN_POINT('',(-0.777856620346,0.514357787137,1.15));
#1505 = VECTOR('',#1506,1.);
#1506 = DIRECTION('',(-0.,-0.,-1.));
#1507 = ORIENTED_EDGE('',*,*,#1508,.F.);
#1508 = EDGE_CURVE('',#1469,#1501,#1509,.T.);
#1509 = LINE('',#1510,#1511);
#1510 = CARTESIAN_POINT('',(-0.808806409178,0.160600082028,1.15));
#1511 = VECTOR('',#1512,1.);
#1512 = DIRECTION('',(8.715574274766E-02,0.996194698092,0.));
#1513 = ORIENTED_EDGE('',*,*,#1468,.T.);
#1514 = PLANE('',#1515);
#1515 = AXIS2_PLACEMENT_3D('',#1516,#1517,#1518);
#1516 = CARTESIAN_POINT('',(-0.808806409178,0.160600082028,1.15));
#1517 = DIRECTION('',(-0.996194698092,8.715574274766E-02,0.));
#1518 = DIRECTION('',(-8.715574274766E-02,-0.996194698092,0.));
#1519 = ADVANCED_FACE('',(#1520),#1547,.F.);
#1520 = FACE_BOUND('',#1521,.F.);
#1521 = EDGE_LOOP('',(#1522,#1523,#1532,#1540));
#1522 = ORIENTED_EDGE('',*,*,#1500,.F.);
#1523 = ORIENTED_EDGE('',*,*,#1524,.T.);
#1524 = EDGE_CURVE('',#1501,#1525,#1527,.T.);
#1525 = VERTEX_POINT('',#1526);
#1526 = CARTESIAN_POINT('',(-0.728046885441,0.56,1.15));
#1527 = CIRCLE('',#1528,5.E-02);
#1528 = AXIS2_PLACEMENT_3D('',#1529,#1530,#1531);
#1529 = CARTESIAN_POINT('',(-0.728046885441,0.51,1.15));
#1530 = DIRECTION('',(-0.,0.,-1.));
#1531 = DIRECTION('',(-1.,0.,0.));
#1532 = ORIENTED_EDGE('',*,*,#1533,.T.);
#1533 = EDGE_CURVE('',#1525,#1534,#1536,.T.);
#1534 = VERTEX_POINT('',#1535);
#1535 = CARTESIAN_POINT('',(-0.728046885441,0.56,0.75));
#1536 = LINE('',#1537,#1538);
#1537 = CARTESIAN_POINT('',(-0.728046885441,0.56,1.15));
#1538 = VECTOR('',#1539,1.);
#1539 = DIRECTION('',(-0.,-0.,-1.));
#1540 = ORIENTED_EDGE('',*,*,#1541,.F.);
#1541 = EDGE_CURVE('',#1493,#1534,#1542,.T.);
#1542 = CIRCLE('',#1543,5.E-02);
#1543 = AXIS2_PLACEMENT_3D('',#1544,#1545,#1546);
#1544 = CARTESIAN_POINT('',(-0.728046885441,0.51,0.75));
#1545 = DIRECTION('',(-0.,0.,-1.));
#1546 = DIRECTION('',(-1.,0.,0.));
#1547 = CYLINDRICAL_SURFACE('',#1548,5.E-02);
#1548 = AXIS2_PLACEMENT_3D('',#1549,#1550,#1551);
#1549 = CARTESIAN_POINT('',(-0.728046885441,0.51,1.15));
#1550 = DIRECTION('',(-0.,-0.,-1.));
#1551 = DIRECTION('',(-1.,0.,0.));
#1552 = ADVANCED_FACE('',(#1553),#1569,.F.);
#1553 = FACE_BOUND('',#1554,.T.);
#1554 = EDGE_LOOP('',(#1555,#1561,#1562,#1568));
#1555 = ORIENTED_EDGE('',*,*,#1556,.T.);
#1556 = EDGE_CURVE('',#1534,#1199,#1557,.T.);
#1557 = LINE('',#1558,#1559);
#1558 = CARTESIAN_POINT('',(-0.728046885441,0.56,0.75));
#1559 = VECTOR('',#1560,1.);
#1560 = DIRECTION('',(1.,0.,0.));
#1561 = ORIENTED_EDGE('',*,*,#1224,.F.);
#1562 = ORIENTED_EDGE('',*,*,#1563,.F.);
#1563 = EDGE_CURVE('',#1525,#1217,#1564,.T.);
#1564 = LINE('',#1565,#1566);
#1565 = CARTESIAN_POINT('',(-0.728046885441,0.56,1.15));
#1566 = VECTOR('',#1567,1.);
#1567 = DIRECTION('',(1.,0.,0.));
#1568 = ORIENTED_EDGE('',*,*,#1533,.T.);
#1569 = PLANE('',#1570);
#1570 = AXIS2_PLACEMENT_3D('',#1571,#1572,#1573);
#1571 = CARTESIAN_POINT('',(-0.728046885441,0.56,1.15));
#1572 = DIRECTION('',(0.,1.,0.));
#1573 = DIRECTION('',(0.,-0.,1.));
#1574 = ADVANCED_FACE('',(#1575),#1589,.T.);
#1575 = FACE_BOUND('',#1576,.T.);
#1576 = EDGE_LOOP('',(#1577,#1578,#1579,#1580,#1581,#1582,#1583,#1584,
    #1585,#1586,#1587,#1588));
#1577 = ORIENTED_EDGE('',*,*,#1216,.T.);
#1578 = ORIENTED_EDGE('',*,*,#1254,.T.);
#1579 = ORIENTED_EDGE('',*,*,#1286,.T.);
#1580 = ORIENTED_EDGE('',*,*,#1318,.T.);
#1581 = ORIENTED_EDGE('',*,*,#1334,.T.);
#1582 = ORIENTED_EDGE('',*,*,#1382,.T.);
#1583 = ORIENTED_EDGE('',*,*,#1413,.T.);
#1584 = ORIENTED_EDGE('',*,*,#1444,.T.);
#1585 = ORIENTED_EDGE('',*,*,#1476,.T.);
#1586 = ORIENTED_EDGE('',*,*,#1508,.T.);
#1587 = ORIENTED_EDGE('',*,*,#1524,.T.);
#1588 = ORIENTED_EDGE('',*,*,#1563,.T.);
#1589 = PLANE('',#1590);
#1590 = AXIS2_PLACEMENT_3D('',#1591,#1592,#1593);
#1591 = CARTESIAN_POINT('',(-0.728046885441,0.51,1.15));
#1592 = DIRECTION('',(0.,0.,1.));
#1593 = DIRECTION('',(1.,0.,-0.));
#1594 = ADVANCED_FACE('',(#1595),#1609,.F.);
#1595 = FACE_BOUND('',#1596,.T.);
#1596 = EDGE_LOOP('',(#1597,#1598,#1599,#1600,#1601,#1602,#1603,#1604,
    #1605,#1606,#1607,#1608));
#1597 = ORIENTED_EDGE('',*,*,#1198,.F.);
#1598 = ORIENTED_EDGE('',*,*,#1556,.F.);
#1599 = ORIENTED_EDGE('',*,*,#1541,.F.);
#1600 = ORIENTED_EDGE('',*,*,#1492,.F.);
#1601 = ORIENTED_EDGE('',*,*,#1459,.F.);
#1602 = ORIENTED_EDGE('',*,*,#1428,.F.);
#1603 = ORIENTED_EDGE('',*,*,#1397,.F.);
#1604 = ORIENTED_EDGE('',*,*,#1366,.F.);
#1605 = ORIENTED_EDGE('',*,*,#1351,.F.);
#1606 = ORIENTED_EDGE('',*,*,#1302,.F.);
#1607 = ORIENTED_EDGE('',*,*,#1269,.F.);
#1608 = ORIENTED_EDGE('',*,*,#1238,.F.);
#1609 = PLANE('',#1610);
#1610 = AXIS2_PLACEMENT_3D('',#1611,#1612,#1613);
#1611 = CARTESIAN_POINT('',(-0.728046885441,0.51,0.75));
#1612 = DIRECTION('',(0.,0.,1.));
#1613 = DIRECTION('',(1.,0.,-0.));
#1614 = ( GEOMETRIC_REPRESENTATION_CONTEXT(3) 
GLOBAL_UNCERTAINTY_ASSIGNED_CONTEXT((#1618)) 
GLOBAL_UNIT_ASSIGNED_CONTEXT((#1615,#1616,#1617)) REPRESENTATION_CONTEXT
('Context #1','3D Context with UNIT and UNCERTAINTY') );
#1615 = ( LENGTH_UNIT() NAMED_UNIT(*) SI_UNIT(.MILLI.,.METRE.) );
#1616 = ( NAMED_UNIT(*) PLANE_ANGLE_UNIT() SI_UNIT($,.RADIAN.) );
#1617 = ( NAMED_UNIT(*) SI_UNIT($,.STERADIAN.) SOLID_ANGLE_UNIT() );
#1618 = UNCERTAINTY_MEASURE_WITH_UNIT(LENGTH_MEASURE(1.E-07),#1615,
  'distance_accuracy_value','confusion accuracy');
#1619 = CONTEXT_DEPENDENT_SHAPE_REPRESENTATION(#1620,#1622);
#1620 = ( REPRESENTATION_RELATIONSHIP('','',#1191,#10) 
REPRESENTATION_RELATIONSHIP_WITH_TRANSFORMATION(#1621) 
SHAPE_REPRESENTATION_RELATIONSHIP() );
#1621 = ITEM_DEFINED_TRANSFORMATION('','',#11,#27);
#1622 = PRODUCT_DEFINITION_SHAPE('Placement','Placement of an item',
  #1623);
#1623 = NEXT_ASSEMBLY_USAGE_OCCURRENCE('4','BC849C003','',#5,#1186,$);
#1624 = PRODUCT_RELATED_PRODUCT_CATEGORY('part',$,(#1188));
#1625 = MECHANICAL_DESIGN_GEOMETRIC_PRESENTATION_REPRESENTATION('',(
    #1626),#1173);
#1626 = STYLED_ITEM('color',(#1627),#751);
#1627 = PRESENTATION_STYLE_ASSIGNMENT((#1628,#1634));
#1628 = SURFACE_STYLE_USAGE(.BOTH.,#1629);
#1629 = SURFACE_SIDE_STYLE('',(#1630));
#1630 = SURFACE_STYLE_FILL_AREA(#1631);
#1631 = FILL_AREA_STYLE('',(#1632));
#1632 = FILL_AREA_STYLE_COLOUR('',#1633);
#1633 = COLOUR_RGB('',0.792156867455,0.819607860991,0.933333342953);
#1634 = CURVE_STYLE('',#1635,POSITIVE_LENGTH_MEASURE(0.1),#1636);
#1635 = DRAUGHTING_PRE_DEFINED_CURVE_FONT('continuous');
#1636 = COLOUR_RGB('',9.803921802644E-02,9.803921802644E-02,
  9.803921802644E-02);
#1637 = MECHANICAL_DESIGN_GEOMETRIC_PRESENTATION_REPRESENTATION('',(
    #1638),#291);
#1638 = STYLED_ITEM('color',(#1639),#45);
#1639 = PRESENTATION_STYLE_ASSIGNMENT((#1640,#1646));
#1640 = SURFACE_STYLE_USAGE(.BOTH.,#1641);
#1641 = SURFACE_SIDE_STYLE('',(#1642));
#1642 = SURFACE_STYLE_FILL_AREA(#1643);
#1643 = FILL_AREA_STYLE('',(#1644));
#1644 = FILL_AREA_STYLE_COLOUR('',#1645);
#1645 = COLOUR_RGB('',0.25098037884,0.25098037884,0.25098037884);
#1646 = CURVE_STYLE('',#1647,POSITIVE_LENGTH_MEASURE(0.1),#1636);
#1647 = DRAUGHTING_PRE_DEFINED_CURVE_FONT('continuous');
#1648 = MECHANICAL_DESIGN_GEOMETRIC_PRESENTATION_REPRESENTATION('',(
    #1649),#1614);
#1649 = STYLED_ITEM('color',(#1650),#1192);
#1650 = PRESENTATION_STYLE_ASSIGNMENT((#1651,#1656));
#1651 = SURFACE_STYLE_USAGE(.BOTH.,#1652);
#1652 = SURFACE_SIDE_STYLE('',(#1653));
#1653 = SURFACE_STYLE_FILL_AREA(#1654);
#1654 = FILL_AREA_STYLE('',(#1655));
#1655 = FILL_AREA_STYLE_COLOUR('',#1633);
#1656 = CURVE_STYLE('',#1657,POSITIVE_LENGTH_MEASURE(0.1),#1636);
#1657 = DRAUGHTING_PRE_DEFINED_CURVE_FONT('continuous');
#1658 = MECHANICAL_DESIGN_GEOMETRIC_PRESENTATION_REPRESENTATION('',(
    #1659),#732);
#1659 = STYLED_ITEM('color',(#1660),#310);
#1660 = PRESENTATION_STYLE_ASSIGNMENT((#1661,#1666));
#1661 = SURFACE_STYLE_USAGE(.BOTH.,#1662);
#1662 = SURFACE_SIDE_STYLE('',(#1663));
#1663 = SURFACE_STYLE_FILL_AREA(#1664);
#1664 = FILL_AREA_STYLE('',(#1665));
#1665 = FILL_AREA_STYLE_COLOUR('',#1633);
#1666 = CURVE_STYLE('',#1667,POSITIVE_LENGTH_MEASURE(0.1),#1636);
#1667 = DRAUGHTING_PRE_DEFINED_CURVE_FONT('continuous');
ENDSEC;
END-ISO-10303-21;
