ISO-10303-21;
HEADER;
FILE_DESCRIPTION(('FreeCAD Model'),'2;1');
FILE_NAME('Open CASCADE Shape Model','2025-03-26T19:46:18',(''),(''),
  'Open CASCADE STEP processor 7.8','FreeCAD','Unknown');
FILE_SCHEMA(('AUTOMOTIVE_DESIGN { 1 0 10303 214 1 1 1 1 }'));
ENDSEC;
DATA;
#1 = APPLICATION_PROTOCOL_DEFINITION('international standard',
  'automotive_design',2000,#2);
#2 = APPLICATION_CONTEXT(
  'core data for automotive mechanical design processes');
#3 = SHAPE_DEFINITION_REPRESENTATION(#4,#10);
#4 = PRODUCT_DEFINITION_SHAPE('','',#5);
#5 = PRODUCT_DEFINITION('design','',#6,#9);
#6 = PRODUCT_DEFINITION_FORMATION('','',#7);
#7 = PRODUCT('part005','part005','',(#8));
#8 = PRODUCT_CONTEXT('',#2,'mechanical');
#9 = PRODUCT_DEFINITION_CONTEXT('part definition',#2,'design');
#10 = SHAPE_REPRESENTATION('',(#11,#15,#19,#23,#27,#31),#35);
#11 = AXIS2_PLACEMENT_3D('',#12,#13,#14);
#12 = CARTESIAN_POINT('',(0.,0.,0.));
#13 = DIRECTION('',(0.,0.,1.));
#14 = DIRECTION('',(1.,0.,-0.));
#15 = AXIS2_PLACEMENT_3D('',#16,#17,#18);
#16 = CARTESIAN_POINT('',(0.,0.,0.));
#17 = DIRECTION('',(0.,0.,1.));
#18 = DIRECTION('',(1.,0.,0.));
#19 = AXIS2_PLACEMENT_3D('',#20,#21,#22);
#20 = CARTESIAN_POINT('',(0.,0.,0.));
#21 = DIRECTION('',(0.,0.,1.));
#22 = DIRECTION('',(1.,0.,0.));
#23 = AXIS2_PLACEMENT_3D('',#24,#25,#26);
#24 = CARTESIAN_POINT('',(0.,0.,0.));
#25 = DIRECTION('',(0.,0.,1.));
#26 = DIRECTION('',(1.,0.,0.));
#27 = AXIS2_PLACEMENT_3D('',#28,#29,#30);
#28 = CARTESIAN_POINT('',(0.,0.,0.));
#29 = DIRECTION('',(0.,0.,1.));
#30 = DIRECTION('',(1.,0.,0.));
#31 = AXIS2_PLACEMENT_3D('',#32,#33,#34);
#32 = CARTESIAN_POINT('',(0.,0.,0.));
#33 = DIRECTION('',(0.,0.,1.));
#34 = DIRECTION('',(1.,0.,0.));
#35 = ( GEOMETRIC_REPRESENTATION_CONTEXT(3) 
GLOBAL_UNCERTAINTY_ASSIGNED_CONTEXT((#39)) GLOBAL_UNIT_ASSIGNED_CONTEXT(
(#36,#37,#38)) REPRESENTATION_CONTEXT('Context #1',
  '3D Context with UNIT and UNCERTAINTY') );
#36 = ( LENGTH_UNIT() NAMED_UNIT(*) SI_UNIT(.MILLI.,.METRE.) );
#37 = ( NAMED_UNIT(*) PLANE_ANGLE_UNIT() SI_UNIT($,.RADIAN.) );
#38 = ( NAMED_UNIT(*) SI_UNIT($,.STERADIAN.) SOLID_ANGLE_UNIT() );
#39 = UNCERTAINTY_MEASURE_WITH_UNIT(LENGTH_MEASURE(2.E-04),#36,
  'distance_accuracy_value','confusion accuracy');
#40 = PRODUCT_RELATED_PRODUCT_CATEGORY('part',$,(#7));
#41 = SHAPE_DEFINITION_REPRESENTATION(#42,#48);
#42 = PRODUCT_DEFINITION_SHAPE('','',#43);
#43 = PRODUCT_DEFINITION('design','',#44,#47);
#44 = PRODUCT_DEFINITION_FORMATION('','',#45);
#45 = PRODUCT('part','part','',(#46));
#46 = PRODUCT_CONTEXT('',#2,'mechanical');
#47 = PRODUCT_DEFINITION_CONTEXT('part definition',#2,'design');
#48 = ADVANCED_BREP_SHAPE_REPRESENTATION('',(#11,#49),#101);
#49 = MANIFOLD_SOLID_BREP('',#50);
#50 = CLOSED_SHELL('',(#51,#83,#92));
#51 = ADVANCED_FACE('',(#52),#78,.T.);
#52 = FACE_BOUND('',#53,.T.);
#53 = EDGE_LOOP('',(#54,#63,#70,#77));
#54 = ORIENTED_EDGE('',*,*,#55,.F.);
#55 = EDGE_CURVE('',#56,#56,#58,.T.);
#56 = VERTEX_POINT('',#57);
#57 = CARTESIAN_POINT('',(-1.029,-0.398,1.12));
#58 = CIRCLE('',#59,7.62E-02);
#59 = AXIS2_PLACEMENT_3D('',#60,#61,#62);
#60 = CARTESIAN_POINT('',(-0.952,-0.398,1.12));
#61 = DIRECTION('',(0.,0.,1.));
#62 = DIRECTION('',(1.,0.,-0.));
#63 = ORIENTED_EDGE('',*,*,#64,.F.);
#64 = EDGE_CURVE('',#65,#56,#67,.T.);
#65 = VERTEX_POINT('',#66);
#66 = CARTESIAN_POINT('',(-1.029,-0.398,1.118));
#67 = B_SPLINE_CURVE_WITH_KNOTS('',1,(#68,#69),.UNSPECIFIED.,.F.,.F.,(2,
    2),(0.,2.E-03),.PIECEWISE_BEZIER_KNOTS.);
#68 = CARTESIAN_POINT('',(-1.0282,-0.398,1.118));
#69 = CARTESIAN_POINT('',(-1.0282,-0.398,1.12));
#70 = ORIENTED_EDGE('',*,*,#71,.F.);
#71 = EDGE_CURVE('',#65,#65,#72,.T.);
#72 = CIRCLE('',#73,7.62E-02);
#73 = AXIS2_PLACEMENT_3D('',#74,#75,#76);
#74 = CARTESIAN_POINT('',(-0.952,-0.398,1.118));
#75 = DIRECTION('',(0.,0.,-1.));
#76 = DIRECTION('',(1.,0.,0.));
#77 = ORIENTED_EDGE('',*,*,#64,.T.);
#78 = CYLINDRICAL_SURFACE('',#79,7.62E-02);
#79 = AXIS2_PLACEMENT_3D('',#80,#81,#82);
#80 = CARTESIAN_POINT('',(-0.952,-0.398,1.118));
#81 = DIRECTION('',(0.,0.,1.));
#82 = DIRECTION('',(1.,0.,-0.));
#83 = ADVANCED_FACE('',(#84),#87,.F.);
#84 = FACE_BOUND('',#85,.T.);
#85 = EDGE_LOOP('',(#86));
#86 = ORIENTED_EDGE('',*,*,#71,.T.);
#87 = PLANE('',#88);
#88 = AXIS2_PLACEMENT_3D('',#89,#90,#91);
#89 = CARTESIAN_POINT('',(-0.952,-0.398,1.118));
#90 = DIRECTION('',(0.,0.,1.));
#91 = DIRECTION('',(0.,1.,0.));
#92 = ADVANCED_FACE('',(#93),#96,.T.);
#93 = FACE_BOUND('',#94,.T.);
#94 = EDGE_LOOP('',(#95));
#95 = ORIENTED_EDGE('',*,*,#55,.T.);
#96 = PLANE('',#97);
#97 = AXIS2_PLACEMENT_3D('',#98,#99,#100);
#98 = CARTESIAN_POINT('',(-0.952,-0.398,1.12));
#99 = DIRECTION('',(0.,0.,1.));
#100 = DIRECTION('',(0.,1.,0.));
#101 = ( GEOMETRIC_REPRESENTATION_CONTEXT(3) 
GLOBAL_UNCERTAINTY_ASSIGNED_CONTEXT((#105)) GLOBAL_UNIT_ASSIGNED_CONTEXT
((#102,#103,#104)) REPRESENTATION_CONTEXT('Context #1',
  '3D Context with UNIT and UNCERTAINTY') );
#102 = ( LENGTH_UNIT() NAMED_UNIT(*) SI_UNIT(.MILLI.,.METRE.) );
#103 = ( NAMED_UNIT(*) PLANE_ANGLE_UNIT() SI_UNIT($,.RADIAN.) );
#104 = ( NAMED_UNIT(*) SI_UNIT($,.STERADIAN.) SOLID_ANGLE_UNIT() );
#105 = UNCERTAINTY_MEASURE_WITH_UNIT(LENGTH_MEASURE(5.E-04),#102,
  'distance_accuracy_value','confusion accuracy');
#106 = CONTEXT_DEPENDENT_SHAPE_REPRESENTATION(#107,#109);
#107 = ( REPRESENTATION_RELATIONSHIP('','',#48,#10) 
REPRESENTATION_RELATIONSHIP_WITH_TRANSFORMATION(#108) 
SHAPE_REPRESENTATION_RELATIONSHIP() );
#108 = ITEM_DEFINED_TRANSFORMATION('','',#11,#15);
#109 = PRODUCT_DEFINITION_SHAPE('Placement','Placement of an item',#110
  );
#110 = NEXT_ASSEMBLY_USAGE_OCCURRENCE('1','=>[0:1:1:1]','',#5,#43,$);
#111 = PRODUCT_RELATED_PRODUCT_CATEGORY('part',$,(#45));
#112 = SHAPE_DEFINITION_REPRESENTATION(#113,#119);
#113 = PRODUCT_DEFINITION_SHAPE('','',#114);
#114 = PRODUCT_DEFINITION('design','',#115,#118);
#115 = PRODUCT_DEFINITION_FORMATION('','',#116);
#116 = PRODUCT('part001','part001','',(#117));
#117 = PRODUCT_CONTEXT('',#2,'mechanical');
#118 = PRODUCT_DEFINITION_CONTEXT('part definition',#2,'design');
#119 = ADVANCED_BREP_SHAPE_REPRESENTATION('',(#11,#120),#462);
#120 = MANIFOLD_SOLID_BREP('',#121);
#121 = CLOSED_SHELL('',(#122,#162,#193,#217,#241,#258,#289,#313,#337,
    #354,#385,#409,#433,#450));
#122 = ADVANCED_FACE('',(#123),#157,.T.);
#123 = FACE_BOUND('',#124,.T.);
#124 = EDGE_LOOP('',(#125,#135,#143,#151));
#125 = ORIENTED_EDGE('',*,*,#126,.F.);
#126 = EDGE_CURVE('',#127,#129,#131,.T.);
#127 = VERTEX_POINT('',#128);
#128 = CARTESIAN_POINT('',(1.372,-0.546,1.118));
#129 = VERTEX_POINT('',#130);
#130 = CARTESIAN_POINT('',(-1.372,-0.546,1.118));
#131 = LINE('',#132,#133);
#132 = CARTESIAN_POINT('',(1.372,-0.546,1.118));
#133 = VECTOR('',#134,1.);
#134 = DIRECTION('',(-1.,0.,0.));
#135 = ORIENTED_EDGE('',*,*,#136,.F.);
#136 = EDGE_CURVE('',#137,#127,#139,.T.);
#137 = VERTEX_POINT('',#138);
#138 = CARTESIAN_POINT('',(1.372,0.546,1.118));
#139 = LINE('',#140,#141);
#140 = CARTESIAN_POINT('',(1.372,0.546,1.118));
#141 = VECTOR('',#142,1.);
#142 = DIRECTION('',(0.,-1.,0.));
#143 = ORIENTED_EDGE('',*,*,#144,.F.);
#144 = EDGE_CURVE('',#145,#137,#147,.T.);
#145 = VERTEX_POINT('',#146);
#146 = CARTESIAN_POINT('',(-1.372,0.546,1.118));
#147 = LINE('',#148,#149);
#148 = CARTESIAN_POINT('',(-1.372,0.546,1.118));
#149 = VECTOR('',#150,1.);
#150 = DIRECTION('',(1.,0.,0.));
#151 = ORIENTED_EDGE('',*,*,#152,.F.);
#152 = EDGE_CURVE('',#129,#145,#153,.T.);
#153 = LINE('',#154,#155);
#154 = CARTESIAN_POINT('',(-1.372,-0.546,1.118));
#155 = VECTOR('',#156,1.);
#156 = DIRECTION('',(0.,1.,0.));
#157 = PLANE('',#158);
#158 = AXIS2_PLACEMENT_3D('',#159,#160,#161);
#159 = CARTESIAN_POINT('',(-1.372,-0.546,1.118));
#160 = DIRECTION('',(0.,0.,1.));
#161 = DIRECTION('',(0.,1.,0.));
#162 = ADVANCED_FACE('',(#163),#188,.T.);
#163 = FACE_BOUND('',#164,.T.);
#164 = EDGE_LOOP('',(#165,#175,#181,#182));
#165 = ORIENTED_EDGE('',*,*,#166,.F.);
#166 = EDGE_CURVE('',#167,#169,#171,.T.);
#167 = VERTEX_POINT('',#168);
#168 = CARTESIAN_POINT('',(1.524,-0.698,0.625));
#169 = VERTEX_POINT('',#170);
#170 = CARTESIAN_POINT('',(-1.524,-0.698,0.625));
#171 = LINE('',#172,#173);
#172 = CARTESIAN_POINT('',(1.524,-0.698,0.625));
#173 = VECTOR('',#174,1.);
#174 = DIRECTION('',(-1.,0.,0.));
#175 = ORIENTED_EDGE('',*,*,#176,.F.);
#176 = EDGE_CURVE('',#127,#167,#177,.T.);
#177 = LINE('',#178,#179);
#178 = CARTESIAN_POINT('',(1.372,-0.546,1.118));
#179 = VECTOR('',#180,1.);
#180 = DIRECTION('',(0.283108451309,-0.283108451309,-0.916351029679));
#181 = ORIENTED_EDGE('',*,*,#126,.T.);
#182 = ORIENTED_EDGE('',*,*,#183,.F.);
#183 = EDGE_CURVE('',#169,#129,#184,.T.);
#184 = LINE('',#185,#186);
#185 = CARTESIAN_POINT('',(-1.524,-0.698,0.625));
#186 = VECTOR('',#187,1.);
#187 = DIRECTION('',(0.283108451309,0.283108451309,0.916351029679));
#188 = PLANE('',#189);
#189 = AXIS2_PLACEMENT_3D('',#190,#191,#192);
#190 = CARTESIAN_POINT('',(-1.524,-0.698,0.625));
#191 = DIRECTION('',(0.,-0.955453948464,0.295140224918));
#192 = DIRECTION('',(0.,0.295140224918,0.955453948464));
#193 = ADVANCED_FACE('',(#194),#212,.T.);
#194 = FACE_BOUND('',#195,.T.);
#195 = EDGE_LOOP('',(#196,#204,#210,#211));
#196 = ORIENTED_EDGE('',*,*,#197,.F.);
#197 = EDGE_CURVE('',#198,#167,#200,.T.);
#198 = VERTEX_POINT('',#199);
#199 = CARTESIAN_POINT('',(1.524,0.698,0.625));
#200 = LINE('',#201,#202);
#201 = CARTESIAN_POINT('',(1.524,0.698,0.625));
#202 = VECTOR('',#203,1.);
#203 = DIRECTION('',(0.,-1.,0.));
#204 = ORIENTED_EDGE('',*,*,#205,.F.);
#205 = EDGE_CURVE('',#137,#198,#206,.T.);
#206 = LINE('',#207,#208);
#207 = CARTESIAN_POINT('',(1.372,0.546,1.118));
#208 = VECTOR('',#209,1.);
#209 = DIRECTION('',(0.283108451309,0.283108451309,-0.916351029679));
#210 = ORIENTED_EDGE('',*,*,#136,.T.);
#211 = ORIENTED_EDGE('',*,*,#176,.T.);
#212 = PLANE('',#213);
#213 = AXIS2_PLACEMENT_3D('',#214,#215,#216);
#214 = CARTESIAN_POINT('',(1.524,-0.698,0.625));
#215 = DIRECTION('',(0.955453948464,0.,0.295140224918));
#216 = DIRECTION('',(-0.295140224918,0.,0.955453948464));
#217 = ADVANCED_FACE('',(#218),#236,.T.);
#218 = FACE_BOUND('',#219,.T.);
#219 = EDGE_LOOP('',(#220,#228,#234,#235));
#220 = ORIENTED_EDGE('',*,*,#221,.F.);
#221 = EDGE_CURVE('',#222,#198,#224,.T.);
#222 = VERTEX_POINT('',#223);
#223 = CARTESIAN_POINT('',(-1.524,0.698,0.625));
#224 = LINE('',#225,#226);
#225 = CARTESIAN_POINT('',(-1.524,0.698,0.625));
#226 = VECTOR('',#227,1.);
#227 = DIRECTION('',(1.,0.,0.));
#228 = ORIENTED_EDGE('',*,*,#229,.F.);
#229 = EDGE_CURVE('',#145,#222,#230,.T.);
#230 = LINE('',#231,#232);
#231 = CARTESIAN_POINT('',(-1.372,0.546,1.118));
#232 = VECTOR('',#233,1.);
#233 = DIRECTION('',(-0.283108451309,0.283108451309,-0.916351029679));
#234 = ORIENTED_EDGE('',*,*,#144,.T.);
#235 = ORIENTED_EDGE('',*,*,#205,.T.);
#236 = PLANE('',#237);
#237 = AXIS2_PLACEMENT_3D('',#238,#239,#240);
#238 = CARTESIAN_POINT('',(1.524,0.698,0.625));
#239 = DIRECTION('',(0.,0.955453948464,0.295140224918));
#240 = DIRECTION('',(0.,-0.295140224918,0.955453948464));
#241 = ADVANCED_FACE('',(#242),#253,.T.);
#242 = FACE_BOUND('',#243,.T.);
#243 = EDGE_LOOP('',(#244,#250,#251,#252));
#244 = ORIENTED_EDGE('',*,*,#245,.F.);
#245 = EDGE_CURVE('',#169,#222,#246,.T.);
#246 = LINE('',#247,#248);
#247 = CARTESIAN_POINT('',(-1.524,-0.698,0.625));
#248 = VECTOR('',#249,1.);
#249 = DIRECTION('',(0.,1.,0.));
#250 = ORIENTED_EDGE('',*,*,#183,.T.);
#251 = ORIENTED_EDGE('',*,*,#152,.T.);
#252 = ORIENTED_EDGE('',*,*,#229,.T.);
#253 = PLANE('',#254);
#254 = AXIS2_PLACEMENT_3D('',#255,#256,#257);
#255 = CARTESIAN_POINT('',(-1.524,0.698,0.625));
#256 = DIRECTION('',(-0.955453948464,0.,0.295140224918));
#257 = DIRECTION('',(0.295140224918,0.,0.955453948464));
#258 = ADVANCED_FACE('',(#259),#284,.T.);
#259 = FACE_BOUND('',#260,.T.);
#260 = EDGE_LOOP('',(#261,#271,#277,#278));
#261 = ORIENTED_EDGE('',*,*,#262,.F.);
#262 = EDGE_CURVE('',#263,#265,#267,.T.);
#263 = VERTEX_POINT('',#264);
#264 = CARTESIAN_POINT('',(1.524,-0.698,0.34));
#265 = VERTEX_POINT('',#266);
#266 = CARTESIAN_POINT('',(-1.524,-0.698,0.34));
#267 = LINE('',#268,#269);
#268 = CARTESIAN_POINT('',(1.524,-0.698,0.34));
#269 = VECTOR('',#270,1.);
#270 = DIRECTION('',(-1.,0.,0.));
#271 = ORIENTED_EDGE('',*,*,#272,.F.);
#272 = EDGE_CURVE('',#167,#263,#273,.T.);
#273 = LINE('',#274,#275);
#274 = CARTESIAN_POINT('',(1.524,-0.698,0.625));
#275 = VECTOR('',#276,1.);
#276 = DIRECTION('',(0.,0.,-1.));
#277 = ORIENTED_EDGE('',*,*,#166,.T.);
#278 = ORIENTED_EDGE('',*,*,#279,.F.);
#279 = EDGE_CURVE('',#265,#169,#280,.T.);
#280 = LINE('',#281,#282);
#281 = CARTESIAN_POINT('',(-1.524,-0.698,0.34));
#282 = VECTOR('',#283,1.);
#283 = DIRECTION('',(0.,0.,1.));
#284 = PLANE('',#285);
#285 = AXIS2_PLACEMENT_3D('',#286,#287,#288);
#286 = CARTESIAN_POINT('',(-1.524,-0.698,0.34));
#287 = DIRECTION('',(0.,-1.,0.));
#288 = DIRECTION('',(0.,0.,1.));
#289 = ADVANCED_FACE('',(#290),#308,.T.);
#290 = FACE_BOUND('',#291,.T.);
#291 = EDGE_LOOP('',(#292,#300,#306,#307));
#292 = ORIENTED_EDGE('',*,*,#293,.F.);
#293 = EDGE_CURVE('',#294,#263,#296,.T.);
#294 = VERTEX_POINT('',#295);
#295 = CARTESIAN_POINT('',(1.524,0.698,0.34));
#296 = LINE('',#297,#298);
#297 = CARTESIAN_POINT('',(1.524,0.698,0.34));
#298 = VECTOR('',#299,1.);
#299 = DIRECTION('',(0.,-1.,0.));
#300 = ORIENTED_EDGE('',*,*,#301,.F.);
#301 = EDGE_CURVE('',#198,#294,#302,.T.);
#302 = LINE('',#303,#304);
#303 = CARTESIAN_POINT('',(1.524,0.698,0.625));
#304 = VECTOR('',#305,1.);
#305 = DIRECTION('',(0.,0.,-1.));
#306 = ORIENTED_EDGE('',*,*,#197,.T.);
#307 = ORIENTED_EDGE('',*,*,#272,.T.);
#308 = PLANE('',#309);
#309 = AXIS2_PLACEMENT_3D('',#310,#311,#312);
#310 = CARTESIAN_POINT('',(1.524,-0.698,0.34));
#311 = DIRECTION('',(1.,0.,0.));
#312 = DIRECTION('',(0.,0.,1.));
#313 = ADVANCED_FACE('',(#314),#332,.T.);
#314 = FACE_BOUND('',#315,.T.);
#315 = EDGE_LOOP('',(#316,#324,#330,#331));
#316 = ORIENTED_EDGE('',*,*,#317,.F.);
#317 = EDGE_CURVE('',#318,#294,#320,.T.);
#318 = VERTEX_POINT('',#319);
#319 = CARTESIAN_POINT('',(-1.524,0.698,0.34));
#320 = LINE('',#321,#322);
#321 = CARTESIAN_POINT('',(-1.524,0.698,0.34));
#322 = VECTOR('',#323,1.);
#323 = DIRECTION('',(1.,0.,0.));
#324 = ORIENTED_EDGE('',*,*,#325,.F.);
#325 = EDGE_CURVE('',#222,#318,#326,.T.);
#326 = LINE('',#327,#328);
#327 = CARTESIAN_POINT('',(-1.524,0.698,0.625));
#328 = VECTOR('',#329,1.);
#329 = DIRECTION('',(0.,0.,-1.));
#330 = ORIENTED_EDGE('',*,*,#221,.T.);
#331 = ORIENTED_EDGE('',*,*,#301,.T.);
#332 = PLANE('',#333);
#333 = AXIS2_PLACEMENT_3D('',#334,#335,#336);
#334 = CARTESIAN_POINT('',(1.524,0.698,0.34));
#335 = DIRECTION('',(0.,1.,0.));
#336 = DIRECTION('',(0.,-0.,1.));
#337 = ADVANCED_FACE('',(#338),#349,.T.);
#338 = FACE_BOUND('',#339,.T.);
#339 = EDGE_LOOP('',(#340,#346,#347,#348));
#340 = ORIENTED_EDGE('',*,*,#341,.F.);
#341 = EDGE_CURVE('',#265,#318,#342,.T.);
#342 = LINE('',#343,#344);
#343 = CARTESIAN_POINT('',(-1.524,-0.698,0.34));
#344 = VECTOR('',#345,1.);
#345 = DIRECTION('',(0.,1.,0.));
#346 = ORIENTED_EDGE('',*,*,#279,.T.);
#347 = ORIENTED_EDGE('',*,*,#245,.T.);
#348 = ORIENTED_EDGE('',*,*,#325,.T.);
#349 = PLANE('',#350);
#350 = AXIS2_PLACEMENT_3D('',#351,#352,#353);
#351 = CARTESIAN_POINT('',(-1.524,0.698,0.34));
#352 = DIRECTION('',(-1.,0.,0.));
#353 = DIRECTION('',(0.,0.,1.));
#354 = ADVANCED_FACE('',(#355),#380,.T.);
#355 = FACE_BOUND('',#356,.T.);
#356 = EDGE_LOOP('',(#357,#367,#373,#374));
#357 = ORIENTED_EDGE('',*,*,#358,.F.);
#358 = EDGE_CURVE('',#359,#361,#363,.T.);
#359 = VERTEX_POINT('',#360);
#360 = CARTESIAN_POINT('',(1.346,-0.521,0.102));
#361 = VERTEX_POINT('',#362);
#362 = CARTESIAN_POINT('',(-1.346,-0.521,0.102));
#363 = LINE('',#364,#365);
#364 = CARTESIAN_POINT('',(1.346,-0.521,0.102));
#365 = VECTOR('',#366,1.);
#366 = DIRECTION('',(-1.,0.,0.));
#367 = ORIENTED_EDGE('',*,*,#368,.F.);
#368 = EDGE_CURVE('',#263,#359,#369,.T.);
#369 = LINE('',#370,#371);
#370 = CARTESIAN_POINT('',(1.524,-0.698,0.34));
#371 = VECTOR('',#372,1.);
#372 = DIRECTION('',(-0.512728582055,0.512728582055,-0.688635464007));
#373 = ORIENTED_EDGE('',*,*,#262,.T.);
#374 = ORIENTED_EDGE('',*,*,#375,.F.);
#375 = EDGE_CURVE('',#361,#265,#376,.T.);
#376 = LINE('',#377,#378);
#377 = CARTESIAN_POINT('',(-1.346,-0.521,0.102));
#378 = VECTOR('',#379,1.);
#379 = DIRECTION('',(-0.512728582055,-0.512728582055,0.688635464007));
#380 = PLANE('',#381);
#381 = AXIS2_PLACEMENT_3D('',#382,#383,#384);
#382 = CARTESIAN_POINT('',(-1.346,-0.521,0.102));
#383 = DIRECTION('',(0.,-0.802155232058,-0.59711555304));
#384 = DIRECTION('',(0.,-0.59711555304,0.802155232058));
#385 = ADVANCED_FACE('',(#386),#404,.T.);
#386 = FACE_BOUND('',#387,.T.);
#387 = EDGE_LOOP('',(#388,#396,#402,#403));
#388 = ORIENTED_EDGE('',*,*,#389,.F.);
#389 = EDGE_CURVE('',#390,#359,#392,.T.);
#390 = VERTEX_POINT('',#391);
#391 = CARTESIAN_POINT('',(1.346,0.521,0.102));
#392 = LINE('',#393,#394);
#393 = CARTESIAN_POINT('',(1.346,0.521,0.102));
#394 = VECTOR('',#395,1.);
#395 = DIRECTION('',(0.,-1.,0.));
#396 = ORIENTED_EDGE('',*,*,#397,.F.);
#397 = EDGE_CURVE('',#294,#390,#398,.T.);
#398 = LINE('',#399,#400);
#399 = CARTESIAN_POINT('',(1.524,0.698,0.34));
#400 = VECTOR('',#401,1.);
#401 = DIRECTION('',(-0.512728582055,-0.512728582055,-0.688635464007));
#402 = ORIENTED_EDGE('',*,*,#293,.T.);
#403 = ORIENTED_EDGE('',*,*,#368,.T.);
#404 = PLANE('',#405);
#405 = AXIS2_PLACEMENT_3D('',#406,#407,#408);
#406 = CARTESIAN_POINT('',(1.346,-0.521,0.102));
#407 = DIRECTION('',(0.802155232058,0.,-0.59711555304));
#408 = DIRECTION('',(0.59711555304,0.,0.802155232058));
#409 = ADVANCED_FACE('',(#410),#428,.T.);
#410 = FACE_BOUND('',#411,.T.);
#411 = EDGE_LOOP('',(#412,#420,#426,#427));
#412 = ORIENTED_EDGE('',*,*,#413,.F.);
#413 = EDGE_CURVE('',#414,#390,#416,.T.);
#414 = VERTEX_POINT('',#415);
#415 = CARTESIAN_POINT('',(-1.346,0.521,0.102));
#416 = LINE('',#417,#418);
#417 = CARTESIAN_POINT('',(-1.346,0.521,0.102));
#418 = VECTOR('',#419,1.);
#419 = DIRECTION('',(1.,0.,0.));
#420 = ORIENTED_EDGE('',*,*,#421,.F.);
#421 = EDGE_CURVE('',#318,#414,#422,.T.);
#422 = LINE('',#423,#424);
#423 = CARTESIAN_POINT('',(-1.524,0.698,0.34));
#424 = VECTOR('',#425,1.);
#425 = DIRECTION('',(0.512728582055,-0.512728582055,-0.688635464007));
#426 = ORIENTED_EDGE('',*,*,#317,.T.);
#427 = ORIENTED_EDGE('',*,*,#397,.T.);
#428 = PLANE('',#429);
#429 = AXIS2_PLACEMENT_3D('',#430,#431,#432);
#430 = CARTESIAN_POINT('',(1.346,0.521,0.102));
#431 = DIRECTION('',(0.,0.802155232058,-0.59711555304));
#432 = DIRECTION('',(0.,0.59711555304,0.802155232058));
#433 = ADVANCED_FACE('',(#434),#445,.T.);
#434 = FACE_BOUND('',#435,.T.);
#435 = EDGE_LOOP('',(#436,#442,#443,#444));
#436 = ORIENTED_EDGE('',*,*,#437,.F.);
#437 = EDGE_CURVE('',#361,#414,#438,.T.);
#438 = LINE('',#439,#440);
#439 = CARTESIAN_POINT('',(-1.346,-0.521,0.102));
#440 = VECTOR('',#441,1.);
#441 = DIRECTION('',(0.,1.,0.));
#442 = ORIENTED_EDGE('',*,*,#375,.T.);
#443 = ORIENTED_EDGE('',*,*,#341,.T.);
#444 = ORIENTED_EDGE('',*,*,#421,.T.);
#445 = PLANE('',#446);
#446 = AXIS2_PLACEMENT_3D('',#447,#448,#449);
#447 = CARTESIAN_POINT('',(-1.346,0.521,0.102));
#448 = DIRECTION('',(-0.802155232058,0.,-0.59711555304));
#449 = DIRECTION('',(-0.59711555304,0.,0.802155232058));
#450 = ADVANCED_FACE('',(#451),#457,.T.);
#451 = FACE_BOUND('',#452,.T.);
#452 = EDGE_LOOP('',(#453,#454,#455,#456));
#453 = ORIENTED_EDGE('',*,*,#413,.T.);
#454 = ORIENTED_EDGE('',*,*,#389,.T.);
#455 = ORIENTED_EDGE('',*,*,#358,.T.);
#456 = ORIENTED_EDGE('',*,*,#437,.T.);
#457 = PLANE('',#458);
#458 = AXIS2_PLACEMENT_3D('',#459,#460,#461);
#459 = CARTESIAN_POINT('',(-1.346,0.521,0.102));
#460 = DIRECTION('',(0.,0.,-1.));
#461 = DIRECTION('',(0.,1.,0.));
#462 = ( GEOMETRIC_REPRESENTATION_CONTEXT(3) 
GLOBAL_UNCERTAINTY_ASSIGNED_CONTEXT((#466)) GLOBAL_UNIT_ASSIGNED_CONTEXT
((#463,#464,#465)) REPRESENTATION_CONTEXT('Context #1',
  '3D Context with UNIT and UNCERTAINTY') );
#463 = ( LENGTH_UNIT() NAMED_UNIT(*) SI_UNIT(.MILLI.,.METRE.) );
#464 = ( NAMED_UNIT(*) PLANE_ANGLE_UNIT() SI_UNIT($,.RADIAN.) );
#465 = ( NAMED_UNIT(*) SI_UNIT($,.STERADIAN.) SOLID_ANGLE_UNIT() );
#466 = UNCERTAINTY_MEASURE_WITH_UNIT(LENGTH_MEASURE(5.E-04),#463,
  'distance_accuracy_value','confusion accuracy');
#467 = CONTEXT_DEPENDENT_SHAPE_REPRESENTATION(#468,#470);
#468 = ( REPRESENTATION_RELATIONSHIP('','',#119,#10) 
REPRESENTATION_RELATIONSHIP_WITH_TRANSFORMATION(#469) 
SHAPE_REPRESENTATION_RELATIONSHIP() );
#469 = ITEM_DEFINED_TRANSFORMATION('','',#11,#19);
#470 = PRODUCT_DEFINITION_SHAPE('Placement','Placement of an item',#471
  );
#471 = NEXT_ASSEMBLY_USAGE_OCCURRENCE('2','=>[0:1:1:2]','',#5,#114,$);
#472 = PRODUCT_RELATED_PRODUCT_CATEGORY('part',$,(#116));
#473 = SHAPE_DEFINITION_REPRESENTATION(#474,#480);
#474 = PRODUCT_DEFINITION_SHAPE('','',#475);
#475 = PRODUCT_DEFINITION('design','',#476,#479);
#476 = PRODUCT_DEFINITION_FORMATION('','',#477);
#477 = PRODUCT('part002','part002','',(#478));
#478 = PRODUCT_CONTEXT('',#2,'mechanical');
#479 = PRODUCT_DEFINITION_CONTEXT('part definition',#2,'design');
#480 = ADVANCED_BREP_SHAPE_REPRESENTATION('',(#11,#481),#903);
#481 = MANIFOLD_SOLID_BREP('',#482);
#482 = CLOSED_SHELL('',(#483,#523,#554,#585,#625,#665,#705,#745,#767,
    #791,#815,#839,#863,#883));
#483 = ADVANCED_FACE('',(#484),#518,.T.);
#484 = FACE_BOUND('',#485,.T.);
#485 = EDGE_LOOP('',(#486,#496,#504,#512));
#486 = ORIENTED_EDGE('',*,*,#487,.F.);
#487 = EDGE_CURVE('',#488,#490,#492,.T.);
#488 = VERTEX_POINT('',#489);
#489 = CARTESIAN_POINT('',(0.699,-0.698,0.457));
#490 = VERTEX_POINT('',#491);
#491 = CARTESIAN_POINT('',(1.207,-0.699,0.457));
#492 = LINE('',#493,#494);
#493 = CARTESIAN_POINT('',(0.699,-0.698,0.457));
#494 = VECTOR('',#495,1.);
#495 = DIRECTION('',(1.,0.,0.));
#496 = ORIENTED_EDGE('',*,*,#497,.F.);
#497 = EDGE_CURVE('',#498,#488,#500,.T.);
#498 = VERTEX_POINT('',#499);
#499 = CARTESIAN_POINT('',(0.699,-0.698,0.61));
#500 = LINE('',#501,#502);
#501 = CARTESIAN_POINT('',(0.699,-0.698,0.61));
#502 = VECTOR('',#503,1.);
#503 = DIRECTION('',(0.,0.,-1.));
#504 = ORIENTED_EDGE('',*,*,#505,.F.);
#505 = EDGE_CURVE('',#506,#498,#508,.T.);
#506 = VERTEX_POINT('',#507);
#507 = CARTESIAN_POINT('',(1.207,-0.699,0.61));
#508 = LINE('',#509,#510);
#509 = CARTESIAN_POINT('',(1.207,-0.699,0.61));
#510 = VECTOR('',#511,1.);
#511 = DIRECTION('',(-1.,0.,0.));
#512 = ORIENTED_EDGE('',*,*,#513,.F.);
#513 = EDGE_CURVE('',#490,#506,#514,.T.);
#514 = LINE('',#515,#516);
#515 = CARTESIAN_POINT('',(1.207,-0.699,0.457));
#516 = VECTOR('',#517,1.);
#517 = DIRECTION('',(0.,0.,1.));
#518 = PLANE('',#519);
#519 = AXIS2_PLACEMENT_3D('',#520,#521,#522);
#520 = CARTESIAN_POINT('',(1.207,-0.699,0.457));
#521 = DIRECTION('',(0.,1.,0.));
#522 = DIRECTION('',(0.,-0.,1.));
#523 = ADVANCED_FACE('',(#524),#549,.T.);
#524 = FACE_BOUND('',#525,.T.);
#525 = EDGE_LOOP('',(#526,#527,#535,#543));
#526 = ORIENTED_EDGE('',*,*,#505,.T.);
#527 = ORIENTED_EDGE('',*,*,#528,.F.);
#528 = EDGE_CURVE('',#529,#498,#531,.T.);
#529 = VERTEX_POINT('',#530);
#530 = CARTESIAN_POINT('',(0.699,-0.773,0.61));
#531 = LINE('',#532,#533);
#532 = CARTESIAN_POINT('',(0.699,-0.773,0.61));
#533 = VECTOR('',#534,1.);
#534 = DIRECTION('',(0.,1.,0.));
#535 = ORIENTED_EDGE('',*,*,#536,.F.);
#536 = EDGE_CURVE('',#537,#529,#539,.T.);
#537 = VERTEX_POINT('',#538);
#538 = CARTESIAN_POINT('',(1.207,-0.773,0.61));
#539 = LINE('',#540,#541);
#540 = CARTESIAN_POINT('',(1.207,-0.773,0.61));
#541 = VECTOR('',#542,1.);
#542 = DIRECTION('',(-1.,0.,0.));
#543 = ORIENTED_EDGE('',*,*,#544,.F.);
#544 = EDGE_CURVE('',#506,#537,#545,.T.);
#545 = LINE('',#546,#547);
#546 = CARTESIAN_POINT('',(1.207,-0.699,0.61));
#547 = VECTOR('',#548,1.);
#548 = DIRECTION('',(0.,-1.,0.));
#549 = PLANE('',#550);
#550 = AXIS2_PLACEMENT_3D('',#551,#552,#553);
#551 = CARTESIAN_POINT('',(1.207,-0.699,0.61));
#552 = DIRECTION('',(0.,0.,1.));
#553 = DIRECTION('',(0.,1.,0.));
#554 = ADVANCED_FACE('',(#555),#580,.T.);
#555 = FACE_BOUND('',#556,.T.);
#556 = EDGE_LOOP('',(#557,#558,#566,#574));
#557 = ORIENTED_EDGE('',*,*,#487,.T.);
#558 = ORIENTED_EDGE('',*,*,#559,.F.);
#559 = EDGE_CURVE('',#560,#490,#562,.T.);
#560 = VERTEX_POINT('',#561);
#561 = CARTESIAN_POINT('',(1.207,-0.773,0.457));
#562 = LINE('',#563,#564);
#563 = CARTESIAN_POINT('',(1.207,-0.773,0.457));
#564 = VECTOR('',#565,1.);
#565 = DIRECTION('',(0.,1.,0.));
#566 = ORIENTED_EDGE('',*,*,#567,.F.);
#567 = EDGE_CURVE('',#568,#560,#570,.T.);
#568 = VERTEX_POINT('',#569);
#569 = CARTESIAN_POINT('',(0.699,-0.773,0.457));
#570 = LINE('',#571,#572);
#571 = CARTESIAN_POINT('',(0.699,-0.773,0.457));
#572 = VECTOR('',#573,1.);
#573 = DIRECTION('',(1.,0.,0.));
#574 = ORIENTED_EDGE('',*,*,#575,.F.);
#575 = EDGE_CURVE('',#488,#568,#576,.T.);
#576 = LINE('',#577,#578);
#577 = CARTESIAN_POINT('',(0.699,-0.698,0.457));
#578 = VECTOR('',#579,1.);
#579 = DIRECTION('',(0.,-1.,0.));
#580 = PLANE('',#581);
#581 = AXIS2_PLACEMENT_3D('',#582,#583,#584);
#582 = CARTESIAN_POINT('',(0.699,-0.698,0.457));
#583 = DIRECTION('',(0.,0.,-1.));
#584 = DIRECTION('',(0.,1.,0.));
#585 = ADVANCED_FACE('',(#586),#620,.T.);
#586 = FACE_BOUND('',#587,.T.);
#587 = EDGE_LOOP('',(#588,#598,#606,#614));
#588 = ORIENTED_EDGE('',*,*,#589,.F.);
#589 = EDGE_CURVE('',#590,#592,#594,.T.);
#590 = VERTEX_POINT('',#591);
#591 = CARTESIAN_POINT('',(1.207,-1.099,0.265));
#592 = VERTEX_POINT('',#593);
#593 = CARTESIAN_POINT('',(0.699,-1.099,0.265));
#594 = LINE('',#595,#596);
#595 = CARTESIAN_POINT('',(1.207,-1.099,0.265));
#596 = VECTOR('',#597,1.);
#597 = DIRECTION('',(-1.,0.,0.));
#598 = ORIENTED_EDGE('',*,*,#599,.F.);
#599 = EDGE_CURVE('',#600,#590,#602,.T.);
#600 = VERTEX_POINT('',#601);
#601 = CARTESIAN_POINT('',(1.207,-1.067,0.384));
#602 = LINE('',#603,#604);
#603 = CARTESIAN_POINT('',(1.207,-1.067,0.384));
#604 = VECTOR('',#605,1.);
#605 = DIRECTION('',(0.,-0.258969313954,-0.965885549343));
#606 = ORIENTED_EDGE('',*,*,#607,.F.);
#607 = EDGE_CURVE('',#608,#600,#610,.T.);
#608 = VERTEX_POINT('',#609);
#609 = CARTESIAN_POINT('',(0.699,-1.067,0.384));
#610 = LINE('',#611,#612);
#611 = CARTESIAN_POINT('',(0.699,-1.067,0.384));
#612 = VECTOR('',#613,1.);
#613 = DIRECTION('',(1.,0.,0.));
#614 = ORIENTED_EDGE('',*,*,#615,.F.);
#615 = EDGE_CURVE('',#592,#608,#616,.T.);
#616 = LINE('',#617,#618);
#617 = CARTESIAN_POINT('',(0.699,-1.099,0.265));
#618 = VECTOR('',#619,1.);
#619 = DIRECTION('',(0.,0.258969313954,0.965885549343));
#620 = PLANE('',#621);
#621 = AXIS2_PLACEMENT_3D('',#622,#623,#624);
#622 = CARTESIAN_POINT('',(0.699,-1.099,0.265));
#623 = DIRECTION('',(0.,-0.965885549343,0.258969313954));
#624 = DIRECTION('',(0.,0.258969313954,0.965885549343));
#625 = ADVANCED_FACE('',(#626),#660,.T.);
#626 = FACE_BOUND('',#627,.T.);
#627 = EDGE_LOOP('',(#628,#638,#646,#654));
#628 = ORIENTED_EDGE('',*,*,#629,.F.);
#629 = EDGE_CURVE('',#630,#632,#634,.T.);
#630 = VERTEX_POINT('',#631);
#631 = CARTESIAN_POINT('',(0.699,-0.952,0.226));
#632 = VERTEX_POINT('',#633);
#633 = CARTESIAN_POINT('',(1.207,-0.952,0.226));
#634 = LINE('',#635,#636);
#635 = CARTESIAN_POINT('',(0.699,-0.952,0.226));
#636 = VECTOR('',#637,1.);
#637 = DIRECTION('',(1.,0.,0.));
#638 = ORIENTED_EDGE('',*,*,#639,.F.);
#639 = EDGE_CURVE('',#640,#630,#642,.T.);
#640 = VERTEX_POINT('',#641);
#641 = CARTESIAN_POINT('',(0.699,-0.92,0.344));
#642 = LINE('',#643,#644);
#643 = CARTESIAN_POINT('',(0.699,-0.92,0.344));
#644 = VECTOR('',#645,1.);
#645 = DIRECTION('',(0.,-0.258969313954,-0.965885549343));
#646 = ORIENTED_EDGE('',*,*,#647,.F.);
#647 = EDGE_CURVE('',#648,#640,#650,.T.);
#648 = VERTEX_POINT('',#649);
#649 = CARTESIAN_POINT('',(1.207,-0.92,0.344));
#650 = LINE('',#651,#652);
#651 = CARTESIAN_POINT('',(1.207,-0.92,0.344));
#652 = VECTOR('',#653,1.);
#653 = DIRECTION('',(-1.,0.,0.));
#654 = ORIENTED_EDGE('',*,*,#655,.F.);
#655 = EDGE_CURVE('',#632,#648,#656,.T.);
#656 = LINE('',#657,#658);
#657 = CARTESIAN_POINT('',(1.207,-0.952,0.226));
#658 = VECTOR('',#659,1.);
#659 = DIRECTION('',(0.,0.258969313954,0.965885549343));
#660 = PLANE('',#661);
#661 = AXIS2_PLACEMENT_3D('',#662,#663,#664);
#662 = CARTESIAN_POINT('',(1.207,-0.952,0.226));
#663 = DIRECTION('',(0.,0.965885549343,-0.258969313954));
#664 = DIRECTION('',(0.,0.258969313954,0.965885549343));
#665 = ADVANCED_FACE('',(#666),#700,.T.);
#666 = FACE_BOUND('',#667,.T.);
#667 = EDGE_LOOP('',(#668,#678,#686,#694));
#668 = ORIENTED_EDGE('',*,*,#669,.F.);
#669 = EDGE_CURVE('',#670,#672,#674,.T.);
#670 = VERTEX_POINT('',#671);
#671 = CARTESIAN_POINT('',(1.206,-1.321,0.152));
#672 = VERTEX_POINT('',#673);
#673 = CARTESIAN_POINT('',(0.699,-1.321,0.152));
#674 = LINE('',#675,#676);
#675 = CARTESIAN_POINT('',(1.206,-1.321,0.152));
#676 = VECTOR('',#677,1.);
#677 = DIRECTION('',(-1.,0.,0.));
#678 = ORIENTED_EDGE('',*,*,#679,.F.);
#679 = EDGE_CURVE('',#680,#670,#682,.T.);
#680 = VERTEX_POINT('',#681);
#681 = CARTESIAN_POINT('',(1.207,-1.246,0.152));
#682 = LINE('',#683,#684);
#683 = CARTESIAN_POINT('',(1.207,-1.246,0.152));
#684 = VECTOR('',#685,1.);
#685 = DIRECTION('',(0.,-1.,0.));
#686 = ORIENTED_EDGE('',*,*,#687,.F.);
#687 = EDGE_CURVE('',#688,#680,#690,.T.);
#688 = VERTEX_POINT('',#689);
#689 = CARTESIAN_POINT('',(0.699,-1.246,0.152));
#690 = LINE('',#691,#692);
#691 = CARTESIAN_POINT('',(0.699,-1.246,0.152));
#692 = VECTOR('',#693,1.);
#693 = DIRECTION('',(1.,0.,0.));
#694 = ORIENTED_EDGE('',*,*,#695,.F.);
#695 = EDGE_CURVE('',#672,#688,#696,.T.);
#696 = LINE('',#697,#698);
#697 = CARTESIAN_POINT('',(0.699,-1.321,0.152));
#698 = VECTOR('',#699,1.);
#699 = DIRECTION('',(0.,1.,0.));
#700 = PLANE('',#701);
#701 = AXIS2_PLACEMENT_3D('',#702,#703,#704);
#702 = CARTESIAN_POINT('',(0.699,-1.321,0.152));
#703 = DIRECTION('',(0.,0.,1.));
#704 = DIRECTION('',(0.,1.,0.));
#705 = ADVANCED_FACE('',(#706),#740,.T.);
#706 = FACE_BOUND('',#707,.T.);
#707 = EDGE_LOOP('',(#708,#718,#726,#734));
#708 = ORIENTED_EDGE('',*,*,#709,.F.);
#709 = EDGE_CURVE('',#710,#712,#714,.T.);
#710 = VERTEX_POINT('',#711);
#711 = CARTESIAN_POINT('',(1.207,-1.246,0.));
#712 = VERTEX_POINT('',#713);
#713 = CARTESIAN_POINT('',(0.699,-1.246,0.));
#714 = LINE('',#715,#716);
#715 = CARTESIAN_POINT('',(1.207,-1.246,0.));
#716 = VECTOR('',#717,1.);
#717 = DIRECTION('',(-1.,0.,0.));
#718 = ORIENTED_EDGE('',*,*,#719,.F.);
#719 = EDGE_CURVE('',#720,#710,#722,.T.);
#720 = VERTEX_POINT('',#721);
#721 = CARTESIAN_POINT('',(1.206,-1.321,0.));
#722 = LINE('',#723,#724);
#723 = CARTESIAN_POINT('',(1.206,-1.321,0.));
#724 = VECTOR('',#725,1.);
#725 = DIRECTION('',(0.,1.,0.));
#726 = ORIENTED_EDGE('',*,*,#727,.F.);
#727 = EDGE_CURVE('',#728,#720,#730,.T.);
#728 = VERTEX_POINT('',#729);
#729 = CARTESIAN_POINT('',(0.699,-1.321,0.));
#730 = LINE('',#731,#732);
#731 = CARTESIAN_POINT('',(0.699,-1.321,0.));
#732 = VECTOR('',#733,1.);
#733 = DIRECTION('',(1.,0.,0.));
#734 = ORIENTED_EDGE('',*,*,#735,.F.);
#735 = EDGE_CURVE('',#712,#728,#736,.T.);
#736 = LINE('',#737,#738);
#737 = CARTESIAN_POINT('',(0.699,-1.246,0.));
#738 = VECTOR('',#739,1.);
#739 = DIRECTION('',(0.,-1.,0.));
#740 = PLANE('',#741);
#741 = AXIS2_PLACEMENT_3D('',#742,#743,#744);
#742 = CARTESIAN_POINT('',(0.699,-1.246,0.));
#743 = DIRECTION('',(0.,0.,-1.));
#744 = DIRECTION('',(0.,1.,0.));
#745 = ADVANCED_FACE('',(#746),#762,.T.);
#746 = FACE_BOUND('',#747,.T.);
#747 = EDGE_LOOP('',(#748,#749,#755,#756));
#748 = ORIENTED_EDGE('',*,*,#727,.T.);
#749 = ORIENTED_EDGE('',*,*,#750,.F.);
#750 = EDGE_CURVE('',#670,#720,#751,.T.);
#751 = LINE('',#752,#753);
#752 = CARTESIAN_POINT('',(1.206,-1.321,0.152));
#753 = VECTOR('',#754,1.);
#754 = DIRECTION('',(0.,0.,-1.));
#755 = ORIENTED_EDGE('',*,*,#669,.T.);
#756 = ORIENTED_EDGE('',*,*,#757,.F.);
#757 = EDGE_CURVE('',#728,#672,#758,.T.);
#758 = LINE('',#759,#760);
#759 = CARTESIAN_POINT('',(0.699,-1.321,0.));
#760 = VECTOR('',#761,1.);
#761 = DIRECTION('',(0.,0.,1.));
#762 = PLANE('',#763);
#763 = AXIS2_PLACEMENT_3D('',#764,#765,#766);
#764 = CARTESIAN_POINT('',(0.699,-1.321,0.));
#765 = DIRECTION('',(0.,-1.,0.));
#766 = DIRECTION('',(0.,0.,1.));
#767 = ADVANCED_FACE('',(#768),#786,.T.);
#768 = FACE_BOUND('',#769,.T.);
#769 = EDGE_LOOP('',(#770,#771,#778,#779));
#770 = ORIENTED_EDGE('',*,*,#536,.T.);
#771 = ORIENTED_EDGE('',*,*,#772,.F.);
#772 = EDGE_CURVE('',#608,#529,#773,.T.);
#773 = CIRCLE('',#774,0.3048);
#774 = AXIS2_PLACEMENT_3D('',#775,#776,#777);
#775 = CARTESIAN_POINT('',(0.699,-0.773,0.305));
#776 = DIRECTION('',(-1.,0.,0.));
#777 = DIRECTION('',(0.,0.793107076684,0.609082231652));
#778 = ORIENTED_EDGE('',*,*,#607,.T.);
#779 = ORIENTED_EDGE('',*,*,#780,.F.);
#780 = EDGE_CURVE('',#537,#600,#781,.T.);
#781 = CIRCLE('',#782,0.3048);
#782 = AXIS2_PLACEMENT_3D('',#783,#784,#785);
#783 = CARTESIAN_POINT('',(1.207,-0.773,0.305));
#784 = DIRECTION('',(1.,0.,0.));
#785 = DIRECTION('',(0.,-0.793107076684,-0.609082231652));
#786 = CYLINDRICAL_SURFACE('',#787,0.3048);
#787 = AXIS2_PLACEMENT_3D('',#788,#789,#790);
#788 = CARTESIAN_POINT('',(1.207,-0.773,0.305));
#789 = DIRECTION('',(1.,0.,0.));
#790 = DIRECTION('',(0.,0.,1.));
#791 = ADVANCED_FACE('',(#792),#810,.F.);
#792 = FACE_BOUND('',#793,.F.);
#793 = EDGE_LOOP('',(#794,#801,#802,#809));
#794 = ORIENTED_EDGE('',*,*,#795,.T.);
#795 = EDGE_CURVE('',#568,#640,#796,.T.);
#796 = CIRCLE('',#797,0.1524);
#797 = AXIS2_PLACEMENT_3D('',#798,#799,#800);
#798 = CARTESIAN_POINT('',(0.699,-0.773,0.305));
#799 = DIRECTION('',(1.,0.,0.));
#800 = DIRECTION('',(0.,-0.793107076684,-0.609082231652));
#801 = ORIENTED_EDGE('',*,*,#647,.F.);
#802 = ORIENTED_EDGE('',*,*,#803,.T.);
#803 = EDGE_CURVE('',#648,#560,#804,.T.);
#804 = CIRCLE('',#805,0.1524);
#805 = AXIS2_PLACEMENT_3D('',#806,#807,#808);
#806 = CARTESIAN_POINT('',(1.207,-0.773,0.305));
#807 = DIRECTION('',(-1.,0.,0.));
#808 = DIRECTION('',(0.,0.793107076684,0.609082231652));
#809 = ORIENTED_EDGE('',*,*,#567,.F.);
#810 = CYLINDRICAL_SURFACE('',#811,0.1524);
#811 = AXIS2_PLACEMENT_3D('',#812,#813,#814);
#812 = CARTESIAN_POINT('',(0.699,-0.773,0.305));
#813 = DIRECTION('',(1.,0.,0.));
#814 = DIRECTION('',(0.,0.,-1.));
#815 = ADVANCED_FACE('',(#816),#834,.F.);
#816 = FACE_BOUND('',#817,.F.);
#817 = EDGE_LOOP('',(#818,#825,#826,#833));
#818 = ORIENTED_EDGE('',*,*,#819,.T.);
#819 = EDGE_CURVE('',#688,#592,#820,.T.);
#820 = CIRCLE('',#821,0.1524);
#821 = AXIS2_PLACEMENT_3D('',#822,#823,#824);
#822 = CARTESIAN_POINT('',(0.699,-1.246,0.305));
#823 = DIRECTION('',(1.,0.,0.));
#824 = DIRECTION('',(-0.,0.793107076684,0.609082231652));
#825 = ORIENTED_EDGE('',*,*,#589,.F.);
#826 = ORIENTED_EDGE('',*,*,#827,.T.);
#827 = EDGE_CURVE('',#590,#680,#828,.T.);
#828 = CIRCLE('',#829,0.1524);
#829 = AXIS2_PLACEMENT_3D('',#830,#831,#832);
#830 = CARTESIAN_POINT('',(1.207,-1.246,0.305));
#831 = DIRECTION('',(-1.,0.,0.));
#832 = DIRECTION('',(-0.,-0.793107076684,-0.609082231652));
#833 = ORIENTED_EDGE('',*,*,#687,.F.);
#834 = CYLINDRICAL_SURFACE('',#835,0.1524);
#835 = AXIS2_PLACEMENT_3D('',#836,#837,#838);
#836 = CARTESIAN_POINT('',(0.699,-1.246,0.305));
#837 = DIRECTION('',(1.,0.,0.));
#838 = DIRECTION('',(0.,0.,1.));
#839 = ADVANCED_FACE('',(#840),#858,.T.);
#840 = FACE_BOUND('',#841,.T.);
#841 = EDGE_LOOP('',(#842,#843,#850,#851));
#842 = ORIENTED_EDGE('',*,*,#709,.T.);
#843 = ORIENTED_EDGE('',*,*,#844,.F.);
#844 = EDGE_CURVE('',#630,#712,#845,.T.);
#845 = CIRCLE('',#846,0.3048);
#846 = AXIS2_PLACEMENT_3D('',#847,#848,#849);
#847 = CARTESIAN_POINT('',(0.699,-1.246,0.305));
#848 = DIRECTION('',(-1.,0.,0.));
#849 = DIRECTION('',(-0.,-0.793107076684,-0.609082231652));
#850 = ORIENTED_EDGE('',*,*,#629,.T.);
#851 = ORIENTED_EDGE('',*,*,#852,.F.);
#852 = EDGE_CURVE('',#710,#632,#853,.T.);
#853 = CIRCLE('',#854,0.3048);
#854 = AXIS2_PLACEMENT_3D('',#855,#856,#857);
#855 = CARTESIAN_POINT('',(1.207,-1.246,0.305));
#856 = DIRECTION('',(1.,0.,0.));
#857 = DIRECTION('',(-0.,0.793107076684,0.609082231652));
#858 = CYLINDRICAL_SURFACE('',#859,0.3048);
#859 = AXIS2_PLACEMENT_3D('',#860,#861,#862);
#860 = CARTESIAN_POINT('',(0.699,-1.246,0.305));
#861 = DIRECTION('',(1.,0.,0.));
#862 = DIRECTION('',(0.,0.,-1.));
#863 = ADVANCED_FACE('',(#864),#878,.T.);
#864 = FACE_BOUND('',#865,.T.);
#865 = EDGE_LOOP('',(#866,#867,#868,#869,#870,#871,#872,#873,#874,#875,
    #876,#877));
#866 = ORIENTED_EDGE('',*,*,#528,.T.);
#867 = ORIENTED_EDGE('',*,*,#497,.T.);
#868 = ORIENTED_EDGE('',*,*,#575,.T.);
#869 = ORIENTED_EDGE('',*,*,#795,.T.);
#870 = ORIENTED_EDGE('',*,*,#639,.T.);
#871 = ORIENTED_EDGE('',*,*,#844,.T.);
#872 = ORIENTED_EDGE('',*,*,#735,.T.);
#873 = ORIENTED_EDGE('',*,*,#757,.T.);
#874 = ORIENTED_EDGE('',*,*,#695,.T.);
#875 = ORIENTED_EDGE('',*,*,#819,.T.);
#876 = ORIENTED_EDGE('',*,*,#615,.T.);
#877 = ORIENTED_EDGE('',*,*,#772,.T.);
#878 = PLANE('',#879);
#879 = AXIS2_PLACEMENT_3D('',#880,#881,#882);
#880 = CARTESIAN_POINT('',(0.699,-0.698,0.457));
#881 = DIRECTION('',(-1.,0.,0.));
#882 = DIRECTION('',(0.,0.,-1.));
#883 = ADVANCED_FACE('',(#884),#898,.T.);
#884 = FACE_BOUND('',#885,.T.);
#885 = EDGE_LOOP('',(#886,#887,#888,#889,#890,#891,#892,#893,#894,#895,
    #896,#897));
#886 = ORIENTED_EDGE('',*,*,#559,.T.);
#887 = ORIENTED_EDGE('',*,*,#513,.T.);
#888 = ORIENTED_EDGE('',*,*,#544,.T.);
#889 = ORIENTED_EDGE('',*,*,#780,.T.);
#890 = ORIENTED_EDGE('',*,*,#599,.T.);
#891 = ORIENTED_EDGE('',*,*,#827,.T.);
#892 = ORIENTED_EDGE('',*,*,#679,.T.);
#893 = ORIENTED_EDGE('',*,*,#750,.T.);
#894 = ORIENTED_EDGE('',*,*,#719,.T.);
#895 = ORIENTED_EDGE('',*,*,#852,.T.);
#896 = ORIENTED_EDGE('',*,*,#655,.T.);
#897 = ORIENTED_EDGE('',*,*,#803,.T.);
#898 = PLANE('',#899);
#899 = AXIS2_PLACEMENT_3D('',#900,#901,#902);
#900 = CARTESIAN_POINT('',(1.207,-1.246,0.152));
#901 = DIRECTION('',(1.,0.,0.));
#902 = DIRECTION('',(-0.,0.,1.));
#903 = ( GEOMETRIC_REPRESENTATION_CONTEXT(3) 
GLOBAL_UNCERTAINTY_ASSIGNED_CONTEXT((#907)) GLOBAL_UNIT_ASSIGNED_CONTEXT
((#904,#905,#906)) REPRESENTATION_CONTEXT('Context #1',
  '3D Context with UNIT and UNCERTAINTY') );
#904 = ( LENGTH_UNIT() NAMED_UNIT(*) SI_UNIT(.MILLI.,.METRE.) );
#905 = ( NAMED_UNIT(*) PLANE_ANGLE_UNIT() SI_UNIT($,.RADIAN.) );
#906 = ( NAMED_UNIT(*) SI_UNIT($,.STERADIAN.) SOLID_ANGLE_UNIT() );
#907 = UNCERTAINTY_MEASURE_WITH_UNIT(LENGTH_MEASURE(5.E-04),#904,
  'distance_accuracy_value','confusion accuracy');
#908 = CONTEXT_DEPENDENT_SHAPE_REPRESENTATION(#909,#911);
#909 = ( REPRESENTATION_RELATIONSHIP('','',#480,#10) 
REPRESENTATION_RELATIONSHIP_WITH_TRANSFORMATION(#910) 
SHAPE_REPRESENTATION_RELATIONSHIP() );
#910 = ITEM_DEFINED_TRANSFORMATION('','',#11,#23);
#911 = PRODUCT_DEFINITION_SHAPE('Placement','Placement of an item',#912
  );
#912 = NEXT_ASSEMBLY_USAGE_OCCURRENCE('3','=>[0:1:1:3]','',#5,#475,$);
#913 = PRODUCT_RELATED_PRODUCT_CATEGORY('part',$,(#477));
#914 = SHAPE_DEFINITION_REPRESENTATION(#915,#921);
#915 = PRODUCT_DEFINITION_SHAPE('','',#916);
#916 = PRODUCT_DEFINITION('design','',#917,#920);
#917 = PRODUCT_DEFINITION_FORMATION('','',#918);
#918 = PRODUCT('part003','part003','',(#919));
#919 = PRODUCT_CONTEXT('',#2,'mechanical');
#920 = PRODUCT_DEFINITION_CONTEXT('part definition',#2,'design');
#921 = ADVANCED_BREP_SHAPE_REPRESENTATION('',(#11,#922),#1344);
#922 = MANIFOLD_SOLID_BREP('',#923);
#923 = CLOSED_SHELL('',(#924,#964,#995,#1026,#1066,#1106,#1146,#1186,
    #1208,#1232,#1256,#1280,#1304,#1324));
#924 = ADVANCED_FACE('',(#925),#959,.T.);
#925 = FACE_BOUND('',#926,.T.);
#926 = EDGE_LOOP('',(#927,#937,#945,#953));
#927 = ORIENTED_EDGE('',*,*,#928,.F.);
#928 = EDGE_CURVE('',#929,#931,#933,.T.);
#929 = VERTEX_POINT('',#930);
#930 = CARTESIAN_POINT('',(-1.206,-0.698,0.457));
#931 = VERTEX_POINT('',#932);
#932 = CARTESIAN_POINT('',(-0.698,-0.699,0.457));
#933 = LINE('',#934,#935);
#934 = CARTESIAN_POINT('',(-1.206,-0.698,0.457));
#935 = VECTOR('',#936,1.);
#936 = DIRECTION('',(1.,0.,0.));
#937 = ORIENTED_EDGE('',*,*,#938,.F.);
#938 = EDGE_CURVE('',#939,#929,#941,.T.);
#939 = VERTEX_POINT('',#940);
#940 = CARTESIAN_POINT('',(-1.206,-0.698,0.61));
#941 = LINE('',#942,#943);
#942 = CARTESIAN_POINT('',(-1.206,-0.698,0.61));
#943 = VECTOR('',#944,1.);
#944 = DIRECTION('',(0.,0.,-1.));
#945 = ORIENTED_EDGE('',*,*,#946,.F.);
#946 = EDGE_CURVE('',#947,#939,#949,.T.);
#947 = VERTEX_POINT('',#948);
#948 = CARTESIAN_POINT('',(-0.698,-0.699,0.61));
#949 = LINE('',#950,#951);
#950 = CARTESIAN_POINT('',(-0.698,-0.699,0.61));
#951 = VECTOR('',#952,1.);
#952 = DIRECTION('',(-1.,0.,0.));
#953 = ORIENTED_EDGE('',*,*,#954,.F.);
#954 = EDGE_CURVE('',#931,#947,#955,.T.);
#955 = LINE('',#956,#957);
#956 = CARTESIAN_POINT('',(-0.698,-0.699,0.457));
#957 = VECTOR('',#958,1.);
#958 = DIRECTION('',(0.,0.,1.));
#959 = PLANE('',#960);
#960 = AXIS2_PLACEMENT_3D('',#961,#962,#963);
#961 = CARTESIAN_POINT('',(-0.698,-0.699,0.457));
#962 = DIRECTION('',(0.,1.,0.));
#963 = DIRECTION('',(0.,-0.,1.));
#964 = ADVANCED_FACE('',(#965),#990,.T.);
#965 = FACE_BOUND('',#966,.T.);
#966 = EDGE_LOOP('',(#967,#968,#976,#984));
#967 = ORIENTED_EDGE('',*,*,#946,.T.);
#968 = ORIENTED_EDGE('',*,*,#969,.F.);
#969 = EDGE_CURVE('',#970,#939,#972,.T.);
#970 = VERTEX_POINT('',#971);
#971 = CARTESIAN_POINT('',(-1.206,-0.773,0.61));
#972 = LINE('',#973,#974);
#973 = CARTESIAN_POINT('',(-1.206,-0.773,0.61));
#974 = VECTOR('',#975,1.);
#975 = DIRECTION('',(0.,1.,0.));
#976 = ORIENTED_EDGE('',*,*,#977,.F.);
#977 = EDGE_CURVE('',#978,#970,#980,.T.);
#978 = VERTEX_POINT('',#979);
#979 = CARTESIAN_POINT('',(-0.698,-0.773,0.61));
#980 = LINE('',#981,#982);
#981 = CARTESIAN_POINT('',(-0.698,-0.773,0.61));
#982 = VECTOR('',#983,1.);
#983 = DIRECTION('',(-1.,0.,0.));
#984 = ORIENTED_EDGE('',*,*,#985,.F.);
#985 = EDGE_CURVE('',#947,#978,#986,.T.);
#986 = LINE('',#987,#988);
#987 = CARTESIAN_POINT('',(-0.698,-0.699,0.61));
#988 = VECTOR('',#989,1.);
#989 = DIRECTION('',(0.,-1.,0.));
#990 = PLANE('',#991);
#991 = AXIS2_PLACEMENT_3D('',#992,#993,#994);
#992 = CARTESIAN_POINT('',(-0.698,-0.699,0.61));
#993 = DIRECTION('',(0.,0.,1.));
#994 = DIRECTION('',(0.,1.,0.));
#995 = ADVANCED_FACE('',(#996),#1021,.T.);
#996 = FACE_BOUND('',#997,.T.);
#997 = EDGE_LOOP('',(#998,#999,#1007,#1015));
#998 = ORIENTED_EDGE('',*,*,#928,.T.);
#999 = ORIENTED_EDGE('',*,*,#1000,.F.);
#1000 = EDGE_CURVE('',#1001,#931,#1003,.T.);
#1001 = VERTEX_POINT('',#1002);
#1002 = CARTESIAN_POINT('',(-0.698,-0.773,0.457));
#1003 = LINE('',#1004,#1005);
#1004 = CARTESIAN_POINT('',(-0.698,-0.773,0.457));
#1005 = VECTOR('',#1006,1.);
#1006 = DIRECTION('',(0.,1.,0.));
#1007 = ORIENTED_EDGE('',*,*,#1008,.F.);
#1008 = EDGE_CURVE('',#1009,#1001,#1011,.T.);
#1009 = VERTEX_POINT('',#1010);
#1010 = CARTESIAN_POINT('',(-1.206,-0.773,0.457));
#1011 = LINE('',#1012,#1013);
#1012 = CARTESIAN_POINT('',(-1.206,-0.773,0.457));
#1013 = VECTOR('',#1014,1.);
#1014 = DIRECTION('',(1.,0.,0.));
#1015 = ORIENTED_EDGE('',*,*,#1016,.F.);
#1016 = EDGE_CURVE('',#929,#1009,#1017,.T.);
#1017 = LINE('',#1018,#1019);
#1018 = CARTESIAN_POINT('',(-1.206,-0.698,0.457));
#1019 = VECTOR('',#1020,1.);
#1020 = DIRECTION('',(0.,-1.,0.));
#1021 = PLANE('',#1022);
#1022 = AXIS2_PLACEMENT_3D('',#1023,#1024,#1025);
#1023 = CARTESIAN_POINT('',(-1.206,-0.698,0.457));
#1024 = DIRECTION('',(0.,0.,-1.));
#1025 = DIRECTION('',(0.,1.,0.));
#1026 = ADVANCED_FACE('',(#1027),#1061,.T.);
#1027 = FACE_BOUND('',#1028,.T.);
#1028 = EDGE_LOOP('',(#1029,#1039,#1047,#1055));
#1029 = ORIENTED_EDGE('',*,*,#1030,.F.);
#1030 = EDGE_CURVE('',#1031,#1033,#1035,.T.);
#1031 = VERTEX_POINT('',#1032);
#1032 = CARTESIAN_POINT('',(-0.698,-1.099,0.265));
#1033 = VERTEX_POINT('',#1034);
#1034 = CARTESIAN_POINT('',(-1.206,-1.099,0.265));
#1035 = LINE('',#1036,#1037);
#1036 = CARTESIAN_POINT('',(-0.698,-1.099,0.265));
#1037 = VECTOR('',#1038,1.);
#1038 = DIRECTION('',(-1.,0.,0.));
#1039 = ORIENTED_EDGE('',*,*,#1040,.F.);
#1040 = EDGE_CURVE('',#1041,#1031,#1043,.T.);
#1041 = VERTEX_POINT('',#1042);
#1042 = CARTESIAN_POINT('',(-0.698,-1.067,0.384));
#1043 = LINE('',#1044,#1045);
#1044 = CARTESIAN_POINT('',(-0.698,-1.067,0.384));
#1045 = VECTOR('',#1046,1.);
#1046 = DIRECTION('',(0.,-0.258969313954,-0.965885549343));
#1047 = ORIENTED_EDGE('',*,*,#1048,.F.);
#1048 = EDGE_CURVE('',#1049,#1041,#1051,.T.);
#1049 = VERTEX_POINT('',#1050);
#1050 = CARTESIAN_POINT('',(-1.206,-1.067,0.384));
#1051 = LINE('',#1052,#1053);
#1052 = CARTESIAN_POINT('',(-1.206,-1.067,0.384));
#1053 = VECTOR('',#1054,1.);
#1054 = DIRECTION('',(1.,0.,0.));
#1055 = ORIENTED_EDGE('',*,*,#1056,.F.);
#1056 = EDGE_CURVE('',#1033,#1049,#1057,.T.);
#1057 = LINE('',#1058,#1059);
#1058 = CARTESIAN_POINT('',(-1.206,-1.099,0.265));
#1059 = VECTOR('',#1060,1.);
#1060 = DIRECTION('',(0.,0.258969313954,0.965885549343));
#1061 = PLANE('',#1062);
#1062 = AXIS2_PLACEMENT_3D('',#1063,#1064,#1065);
#1063 = CARTESIAN_POINT('',(-1.206,-1.099,0.265));
#1064 = DIRECTION('',(0.,-0.965885549343,0.258969313954));
#1065 = DIRECTION('',(0.,0.258969313954,0.965885549343));
#1066 = ADVANCED_FACE('',(#1067),#1101,.T.);
#1067 = FACE_BOUND('',#1068,.T.);
#1068 = EDGE_LOOP('',(#1069,#1079,#1087,#1095));
#1069 = ORIENTED_EDGE('',*,*,#1070,.F.);
#1070 = EDGE_CURVE('',#1071,#1073,#1075,.T.);
#1071 = VERTEX_POINT('',#1072);
#1072 = CARTESIAN_POINT('',(-1.206,-0.952,0.226));
#1073 = VERTEX_POINT('',#1074);
#1074 = CARTESIAN_POINT('',(-0.698,-0.952,0.226));
#1075 = LINE('',#1076,#1077);
#1076 = CARTESIAN_POINT('',(-1.206,-0.952,0.226));
#1077 = VECTOR('',#1078,1.);
#1078 = DIRECTION('',(1.,0.,0.));
#1079 = ORIENTED_EDGE('',*,*,#1080,.F.);
#1080 = EDGE_CURVE('',#1081,#1071,#1083,.T.);
#1081 = VERTEX_POINT('',#1082);
#1082 = CARTESIAN_POINT('',(-1.206,-0.92,0.344));
#1083 = LINE('',#1084,#1085);
#1084 = CARTESIAN_POINT('',(-1.206,-0.92,0.344));
#1085 = VECTOR('',#1086,1.);
#1086 = DIRECTION('',(0.,-0.258969313954,-0.965885549343));
#1087 = ORIENTED_EDGE('',*,*,#1088,.F.);
#1088 = EDGE_CURVE('',#1089,#1081,#1091,.T.);
#1089 = VERTEX_POINT('',#1090);
#1090 = CARTESIAN_POINT('',(-0.698,-0.92,0.344));
#1091 = LINE('',#1092,#1093);
#1092 = CARTESIAN_POINT('',(-0.698,-0.92,0.344));
#1093 = VECTOR('',#1094,1.);
#1094 = DIRECTION('',(-1.,0.,0.));
#1095 = ORIENTED_EDGE('',*,*,#1096,.F.);
#1096 = EDGE_CURVE('',#1073,#1089,#1097,.T.);
#1097 = LINE('',#1098,#1099);
#1098 = CARTESIAN_POINT('',(-0.698,-0.952,0.226));
#1099 = VECTOR('',#1100,1.);
#1100 = DIRECTION('',(0.,0.258969313954,0.965885549343));
#1101 = PLANE('',#1102);
#1102 = AXIS2_PLACEMENT_3D('',#1103,#1104,#1105);
#1103 = CARTESIAN_POINT('',(-0.698,-0.952,0.226));
#1104 = DIRECTION('',(0.,0.965885549343,-0.258969313954));
#1105 = DIRECTION('',(0.,0.258969313954,0.965885549343));
#1106 = ADVANCED_FACE('',(#1107),#1141,.T.);
#1107 = FACE_BOUND('',#1108,.T.);
#1108 = EDGE_LOOP('',(#1109,#1119,#1127,#1135));
#1109 = ORIENTED_EDGE('',*,*,#1110,.F.);
#1110 = EDGE_CURVE('',#1111,#1113,#1115,.T.);
#1111 = VERTEX_POINT('',#1112);
#1112 = CARTESIAN_POINT('',(-0.699,-1.321,0.152));
#1113 = VERTEX_POINT('',#1114);
#1114 = CARTESIAN_POINT('',(-1.206,-1.321,0.152));
#1115 = LINE('',#1116,#1117);
#1116 = CARTESIAN_POINT('',(-0.699,-1.321,0.152));
#1117 = VECTOR('',#1118,1.);
#1118 = DIRECTION('',(-1.,0.,0.));
#1119 = ORIENTED_EDGE('',*,*,#1120,.F.);
#1120 = EDGE_CURVE('',#1121,#1111,#1123,.T.);
#1121 = VERTEX_POINT('',#1122);
#1122 = CARTESIAN_POINT('',(-0.698,-1.246,0.152));
#1123 = LINE('',#1124,#1125);
#1124 = CARTESIAN_POINT('',(-0.698,-1.246,0.152));
#1125 = VECTOR('',#1126,1.);
#1126 = DIRECTION('',(0.,-1.,0.));
#1127 = ORIENTED_EDGE('',*,*,#1128,.F.);
#1128 = EDGE_CURVE('',#1129,#1121,#1131,.T.);
#1129 = VERTEX_POINT('',#1130);
#1130 = CARTESIAN_POINT('',(-1.206,-1.246,0.152));
#1131 = LINE('',#1132,#1133);
#1132 = CARTESIAN_POINT('',(-1.206,-1.246,0.152));
#1133 = VECTOR('',#1134,1.);
#1134 = DIRECTION('',(1.,0.,0.));
#1135 = ORIENTED_EDGE('',*,*,#1136,.F.);
#1136 = EDGE_CURVE('',#1113,#1129,#1137,.T.);
#1137 = LINE('',#1138,#1139);
#1138 = CARTESIAN_POINT('',(-1.206,-1.321,0.152));
#1139 = VECTOR('',#1140,1.);
#1140 = DIRECTION('',(0.,1.,0.));
#1141 = PLANE('',#1142);
#1142 = AXIS2_PLACEMENT_3D('',#1143,#1144,#1145);
#1143 = CARTESIAN_POINT('',(-1.206,-1.321,0.152));
#1144 = DIRECTION('',(0.,0.,1.));
#1145 = DIRECTION('',(0.,1.,0.));
#1146 = ADVANCED_FACE('',(#1147),#1181,.T.);
#1147 = FACE_BOUND('',#1148,.T.);
#1148 = EDGE_LOOP('',(#1149,#1159,#1167,#1175));
#1149 = ORIENTED_EDGE('',*,*,#1150,.F.);
#1150 = EDGE_CURVE('',#1151,#1153,#1155,.T.);
#1151 = VERTEX_POINT('',#1152);
#1152 = CARTESIAN_POINT('',(-0.698,-1.246,0.));
#1153 = VERTEX_POINT('',#1154);
#1154 = CARTESIAN_POINT('',(-1.206,-1.246,0.));
#1155 = LINE('',#1156,#1157);
#1156 = CARTESIAN_POINT('',(-0.698,-1.246,0.));
#1157 = VECTOR('',#1158,1.);
#1158 = DIRECTION('',(-1.,0.,0.));
#1159 = ORIENTED_EDGE('',*,*,#1160,.F.);
#1160 = EDGE_CURVE('',#1161,#1151,#1163,.T.);
#1161 = VERTEX_POINT('',#1162);
#1162 = CARTESIAN_POINT('',(-0.699,-1.321,0.));
#1163 = LINE('',#1164,#1165);
#1164 = CARTESIAN_POINT('',(-0.699,-1.321,0.));
#1165 = VECTOR('',#1166,1.);
#1166 = DIRECTION('',(0.,1.,0.));
#1167 = ORIENTED_EDGE('',*,*,#1168,.F.);
#1168 = EDGE_CURVE('',#1169,#1161,#1171,.T.);
#1169 = VERTEX_POINT('',#1170);
#1170 = CARTESIAN_POINT('',(-1.206,-1.321,0.));
#1171 = LINE('',#1172,#1173);
#1172 = CARTESIAN_POINT('',(-1.206,-1.321,0.));
#1173 = VECTOR('',#1174,1.);
#1174 = DIRECTION('',(1.,0.,0.));
#1175 = ORIENTED_EDGE('',*,*,#1176,.F.);
#1176 = EDGE_CURVE('',#1153,#1169,#1177,.T.);
#1177 = LINE('',#1178,#1179);
#1178 = CARTESIAN_POINT('',(-1.206,-1.246,0.));
#1179 = VECTOR('',#1180,1.);
#1180 = DIRECTION('',(0.,-1.,0.));
#1181 = PLANE('',#1182);
#1182 = AXIS2_PLACEMENT_3D('',#1183,#1184,#1185);
#1183 = CARTESIAN_POINT('',(-1.206,-1.246,0.));
#1184 = DIRECTION('',(0.,0.,-1.));
#1185 = DIRECTION('',(0.,1.,0.));
#1186 = ADVANCED_FACE('',(#1187),#1203,.T.);
#1187 = FACE_BOUND('',#1188,.T.);
#1188 = EDGE_LOOP('',(#1189,#1190,#1196,#1197));
#1189 = ORIENTED_EDGE('',*,*,#1168,.T.);
#1190 = ORIENTED_EDGE('',*,*,#1191,.F.);
#1191 = EDGE_CURVE('',#1111,#1161,#1192,.T.);
#1192 = LINE('',#1193,#1194);
#1193 = CARTESIAN_POINT('',(-0.699,-1.321,0.152));
#1194 = VECTOR('',#1195,1.);
#1195 = DIRECTION('',(0.,0.,-1.));
#1196 = ORIENTED_EDGE('',*,*,#1110,.T.);
#1197 = ORIENTED_EDGE('',*,*,#1198,.F.);
#1198 = EDGE_CURVE('',#1169,#1113,#1199,.T.);
#1199 = LINE('',#1200,#1201);
#1200 = CARTESIAN_POINT('',(-1.206,-1.321,0.));
#1201 = VECTOR('',#1202,1.);
#1202 = DIRECTION('',(0.,0.,1.));
#1203 = PLANE('',#1204);
#1204 = AXIS2_PLACEMENT_3D('',#1205,#1206,#1207);
#1205 = CARTESIAN_POINT('',(-1.206,-1.321,0.));
#1206 = DIRECTION('',(0.,-1.,0.));
#1207 = DIRECTION('',(0.,0.,1.));
#1208 = ADVANCED_FACE('',(#1209),#1227,.T.);
#1209 = FACE_BOUND('',#1210,.T.);
#1210 = EDGE_LOOP('',(#1211,#1212,#1219,#1220));
#1211 = ORIENTED_EDGE('',*,*,#977,.T.);
#1212 = ORIENTED_EDGE('',*,*,#1213,.F.);
#1213 = EDGE_CURVE('',#1049,#970,#1214,.T.);
#1214 = CIRCLE('',#1215,0.3048);
#1215 = AXIS2_PLACEMENT_3D('',#1216,#1217,#1218);
#1216 = CARTESIAN_POINT('',(-1.206,-0.773,0.305));
#1217 = DIRECTION('',(-1.,0.,0.));
#1218 = DIRECTION('',(0.,0.793107076684,0.609082231652));
#1219 = ORIENTED_EDGE('',*,*,#1048,.T.);
#1220 = ORIENTED_EDGE('',*,*,#1221,.F.);
#1221 = EDGE_CURVE('',#978,#1041,#1222,.T.);
#1222 = CIRCLE('',#1223,0.3048);
#1223 = AXIS2_PLACEMENT_3D('',#1224,#1225,#1226);
#1224 = CARTESIAN_POINT('',(-0.698,-0.773,0.305));
#1225 = DIRECTION('',(1.,0.,0.));
#1226 = DIRECTION('',(0.,-0.793107076684,-0.609082231652));
#1227 = CYLINDRICAL_SURFACE('',#1228,0.3048);
#1228 = AXIS2_PLACEMENT_3D('',#1229,#1230,#1231);
#1229 = CARTESIAN_POINT('',(-0.698,-0.773,0.305));
#1230 = DIRECTION('',(1.,0.,0.));
#1231 = DIRECTION('',(0.,0.,1.));
#1232 = ADVANCED_FACE('',(#1233),#1251,.F.);
#1233 = FACE_BOUND('',#1234,.F.);
#1234 = EDGE_LOOP('',(#1235,#1242,#1243,#1250));
#1235 = ORIENTED_EDGE('',*,*,#1236,.T.);
#1236 = EDGE_CURVE('',#1009,#1081,#1237,.T.);
#1237 = CIRCLE('',#1238,0.1524);
#1238 = AXIS2_PLACEMENT_3D('',#1239,#1240,#1241);
#1239 = CARTESIAN_POINT('',(-1.206,-0.773,0.305));
#1240 = DIRECTION('',(1.,0.,0.));
#1241 = DIRECTION('',(0.,-0.793107076684,-0.609082231652));
#1242 = ORIENTED_EDGE('',*,*,#1088,.F.);
#1243 = ORIENTED_EDGE('',*,*,#1244,.T.);
#1244 = EDGE_CURVE('',#1089,#1001,#1245,.T.);
#1245 = CIRCLE('',#1246,0.1524);
#1246 = AXIS2_PLACEMENT_3D('',#1247,#1248,#1249);
#1247 = CARTESIAN_POINT('',(-0.698,-0.773,0.305));
#1248 = DIRECTION('',(-1.,0.,0.));
#1249 = DIRECTION('',(0.,0.793107076684,0.609082231652));
#1250 = ORIENTED_EDGE('',*,*,#1008,.F.);
#1251 = CYLINDRICAL_SURFACE('',#1252,0.1524);
#1252 = AXIS2_PLACEMENT_3D('',#1253,#1254,#1255);
#1253 = CARTESIAN_POINT('',(-1.206,-0.773,0.305));
#1254 = DIRECTION('',(1.,0.,0.));
#1255 = DIRECTION('',(0.,0.,-1.));
#1256 = ADVANCED_FACE('',(#1257),#1275,.F.);
#1257 = FACE_BOUND('',#1258,.F.);
#1258 = EDGE_LOOP('',(#1259,#1266,#1267,#1274));
#1259 = ORIENTED_EDGE('',*,*,#1260,.T.);
#1260 = EDGE_CURVE('',#1129,#1033,#1261,.T.);
#1261 = CIRCLE('',#1262,0.1524);
#1262 = AXIS2_PLACEMENT_3D('',#1263,#1264,#1265);
#1263 = CARTESIAN_POINT('',(-1.206,-1.246,0.305));
#1264 = DIRECTION('',(1.,0.,0.));
#1265 = DIRECTION('',(-0.,0.793107076684,0.609082231652));
#1266 = ORIENTED_EDGE('',*,*,#1030,.F.);
#1267 = ORIENTED_EDGE('',*,*,#1268,.T.);
#1268 = EDGE_CURVE('',#1031,#1121,#1269,.T.);
#1269 = CIRCLE('',#1270,0.1524);
#1270 = AXIS2_PLACEMENT_3D('',#1271,#1272,#1273);
#1271 = CARTESIAN_POINT('',(-0.698,-1.246,0.305));
#1272 = DIRECTION('',(-1.,0.,0.));
#1273 = DIRECTION('',(-0.,-0.793107076684,-0.609082231652));
#1274 = ORIENTED_EDGE('',*,*,#1128,.F.);
#1275 = CYLINDRICAL_SURFACE('',#1276,0.1524);
#1276 = AXIS2_PLACEMENT_3D('',#1277,#1278,#1279);
#1277 = CARTESIAN_POINT('',(-1.206,-1.246,0.305));
#1278 = DIRECTION('',(1.,0.,0.));
#1279 = DIRECTION('',(0.,0.,1.));
#1280 = ADVANCED_FACE('',(#1281),#1299,.T.);
#1281 = FACE_BOUND('',#1282,.T.);
#1282 = EDGE_LOOP('',(#1283,#1284,#1291,#1292));
#1283 = ORIENTED_EDGE('',*,*,#1150,.T.);
#1284 = ORIENTED_EDGE('',*,*,#1285,.F.);
#1285 = EDGE_CURVE('',#1071,#1153,#1286,.T.);
#1286 = CIRCLE('',#1287,0.3048);
#1287 = AXIS2_PLACEMENT_3D('',#1288,#1289,#1290);
#1288 = CARTESIAN_POINT('',(-1.206,-1.246,0.305));
#1289 = DIRECTION('',(-1.,0.,0.));
#1290 = DIRECTION('',(-0.,-0.793107076684,-0.609082231652));
#1291 = ORIENTED_EDGE('',*,*,#1070,.T.);
#1292 = ORIENTED_EDGE('',*,*,#1293,.F.);
#1293 = EDGE_CURVE('',#1151,#1073,#1294,.T.);
#1294 = CIRCLE('',#1295,0.3048);
#1295 = AXIS2_PLACEMENT_3D('',#1296,#1297,#1298);
#1296 = CARTESIAN_POINT('',(-0.698,-1.246,0.305));
#1297 = DIRECTION('',(1.,0.,0.));
#1298 = DIRECTION('',(-0.,0.793107076684,0.609082231652));
#1299 = CYLINDRICAL_SURFACE('',#1300,0.3048);
#1300 = AXIS2_PLACEMENT_3D('',#1301,#1302,#1303);
#1301 = CARTESIAN_POINT('',(-1.206,-1.246,0.305));
#1302 = DIRECTION('',(1.,0.,0.));
#1303 = DIRECTION('',(0.,0.,-1.));
#1304 = ADVANCED_FACE('',(#1305),#1319,.T.);
#1305 = FACE_BOUND('',#1306,.T.);
#1306 = EDGE_LOOP('',(#1307,#1308,#1309,#1310,#1311,#1312,#1313,#1314,
    #1315,#1316,#1317,#1318));
#1307 = ORIENTED_EDGE('',*,*,#969,.T.);
#1308 = ORIENTED_EDGE('',*,*,#938,.T.);
#1309 = ORIENTED_EDGE('',*,*,#1016,.T.);
#1310 = ORIENTED_EDGE('',*,*,#1236,.T.);
#1311 = ORIENTED_EDGE('',*,*,#1080,.T.);
#1312 = ORIENTED_EDGE('',*,*,#1285,.T.);
#1313 = ORIENTED_EDGE('',*,*,#1176,.T.);
#1314 = ORIENTED_EDGE('',*,*,#1198,.T.);
#1315 = ORIENTED_EDGE('',*,*,#1136,.T.);
#1316 = ORIENTED_EDGE('',*,*,#1260,.T.);
#1317 = ORIENTED_EDGE('',*,*,#1056,.T.);
#1318 = ORIENTED_EDGE('',*,*,#1213,.T.);
#1319 = PLANE('',#1320);
#1320 = AXIS2_PLACEMENT_3D('',#1321,#1322,#1323);
#1321 = CARTESIAN_POINT('',(-1.206,-0.698,0.457));
#1322 = DIRECTION('',(-1.,0.,0.));
#1323 = DIRECTION('',(0.,0.,-1.));
#1324 = ADVANCED_FACE('',(#1325),#1339,.T.);
#1325 = FACE_BOUND('',#1326,.T.);
#1326 = EDGE_LOOP('',(#1327,#1328,#1329,#1330,#1331,#1332,#1333,#1334,
    #1335,#1336,#1337,#1338));
#1327 = ORIENTED_EDGE('',*,*,#1000,.T.);
#1328 = ORIENTED_EDGE('',*,*,#954,.T.);
#1329 = ORIENTED_EDGE('',*,*,#985,.T.);
#1330 = ORIENTED_EDGE('',*,*,#1221,.T.);
#1331 = ORIENTED_EDGE('',*,*,#1040,.T.);
#1332 = ORIENTED_EDGE('',*,*,#1268,.T.);
#1333 = ORIENTED_EDGE('',*,*,#1120,.T.);
#1334 = ORIENTED_EDGE('',*,*,#1191,.T.);
#1335 = ORIENTED_EDGE('',*,*,#1160,.T.);
#1336 = ORIENTED_EDGE('',*,*,#1293,.T.);
#1337 = ORIENTED_EDGE('',*,*,#1096,.T.);
#1338 = ORIENTED_EDGE('',*,*,#1244,.T.);
#1339 = PLANE('',#1340);
#1340 = AXIS2_PLACEMENT_3D('',#1341,#1342,#1343);
#1341 = CARTESIAN_POINT('',(-0.698,-1.246,0.152));
#1342 = DIRECTION('',(1.,0.,0.));
#1343 = DIRECTION('',(-0.,0.,1.));
#1344 = ( GEOMETRIC_REPRESENTATION_CONTEXT(3) 
GLOBAL_UNCERTAINTY_ASSIGNED_CONTEXT((#1348)) 
GLOBAL_UNIT_ASSIGNED_CONTEXT((#1345,#1346,#1347)) REPRESENTATION_CONTEXT
('Context #1','3D Context with UNIT and UNCERTAINTY') );
#1345 = ( LENGTH_UNIT() NAMED_UNIT(*) SI_UNIT(.MILLI.,.METRE.) );
#1346 = ( NAMED_UNIT(*) PLANE_ANGLE_UNIT() SI_UNIT($,.RADIAN.) );
#1347 = ( NAMED_UNIT(*) SI_UNIT($,.STERADIAN.) SOLID_ANGLE_UNIT() );
#1348 = UNCERTAINTY_MEASURE_WITH_UNIT(LENGTH_MEASURE(5.E-04),#1345,
  'distance_accuracy_value','confusion accuracy');
#1349 = CONTEXT_DEPENDENT_SHAPE_REPRESENTATION(#1350,#1352);
#1350 = ( REPRESENTATION_RELATIONSHIP('','',#921,#10) 
REPRESENTATION_RELATIONSHIP_WITH_TRANSFORMATION(#1351) 
SHAPE_REPRESENTATION_RELATIONSHIP() );
#1351 = ITEM_DEFINED_TRANSFORMATION('','',#11,#27);
#1352 = PRODUCT_DEFINITION_SHAPE('Placement','Placement of an item',
  #1353);
#1353 = NEXT_ASSEMBLY_USAGE_OCCURRENCE('4','=>[0:1:1:4]','',#5,#916,$);
#1354 = PRODUCT_RELATED_PRODUCT_CATEGORY('part',$,(#918));
#1355 = SHAPE_DEFINITION_REPRESENTATION(#1356,#1362);
#1356 = PRODUCT_DEFINITION_SHAPE('','',#1357);
#1357 = PRODUCT_DEFINITION('design','',#1358,#1361);
#1358 = PRODUCT_DEFINITION_FORMATION('','',#1359);
#1359 = PRODUCT('part004','part004','',(#1360));
#1360 = PRODUCT_CONTEXT('',#2,'mechanical');
#1361 = PRODUCT_DEFINITION_CONTEXT('part definition',#2,'design');
#1362 = ADVANCED_BREP_SHAPE_REPRESENTATION('',(#11,#1363),#1785);
#1363 = MANIFOLD_SOLID_BREP('',#1364);
#1364 = CLOSED_SHELL('',(#1365,#1405,#1436,#1467,#1507,#1547,#1587,#1627
    ,#1649,#1673,#1697,#1721,#1745,#1765));
#1365 = ADVANCED_FACE('',(#1366),#1400,.T.);
#1366 = FACE_BOUND('',#1367,.T.);
#1367 = EDGE_LOOP('',(#1368,#1378,#1386,#1394));
#1368 = ORIENTED_EDGE('',*,*,#1369,.F.);
#1369 = EDGE_CURVE('',#1370,#1372,#1374,.T.);
#1370 = VERTEX_POINT('',#1371);
#1371 = CARTESIAN_POINT('',(0.254,0.698,0.457));
#1372 = VERTEX_POINT('',#1373);
#1373 = CARTESIAN_POINT('',(-0.254,0.699,0.457));
#1374 = LINE('',#1375,#1376);
#1375 = CARTESIAN_POINT('',(0.254,0.698,0.457));
#1376 = VECTOR('',#1377,1.);
#1377 = DIRECTION('',(-1.,0.,0.));
#1378 = ORIENTED_EDGE('',*,*,#1379,.F.);
#1379 = EDGE_CURVE('',#1380,#1370,#1382,.T.);
#1380 = VERTEX_POINT('',#1381);
#1381 = CARTESIAN_POINT('',(0.254,0.698,0.61));
#1382 = LINE('',#1383,#1384);
#1383 = CARTESIAN_POINT('',(0.254,0.698,0.61));
#1384 = VECTOR('',#1385,1.);
#1385 = DIRECTION('',(0.,0.,-1.));
#1386 = ORIENTED_EDGE('',*,*,#1387,.F.);
#1387 = EDGE_CURVE('',#1388,#1380,#1390,.T.);
#1388 = VERTEX_POINT('',#1389);
#1389 = CARTESIAN_POINT('',(-0.254,0.699,0.61));
#1390 = LINE('',#1391,#1392);
#1391 = CARTESIAN_POINT('',(-0.254,0.699,0.61));
#1392 = VECTOR('',#1393,1.);
#1393 = DIRECTION('',(1.,0.,0.));
#1394 = ORIENTED_EDGE('',*,*,#1395,.F.);
#1395 = EDGE_CURVE('',#1372,#1388,#1396,.T.);
#1396 = LINE('',#1397,#1398);
#1397 = CARTESIAN_POINT('',(-0.254,0.699,0.457));
#1398 = VECTOR('',#1399,1.);
#1399 = DIRECTION('',(0.,0.,1.));
#1400 = PLANE('',#1401);
#1401 = AXIS2_PLACEMENT_3D('',#1402,#1403,#1404);
#1402 = CARTESIAN_POINT('',(-0.254,0.699,0.457));
#1403 = DIRECTION('',(0.,-1.,0.));
#1404 = DIRECTION('',(0.,0.,1.));
#1405 = ADVANCED_FACE('',(#1406),#1431,.T.);
#1406 = FACE_BOUND('',#1407,.T.);
#1407 = EDGE_LOOP('',(#1408,#1409,#1417,#1425));
#1408 = ORIENTED_EDGE('',*,*,#1387,.T.);
#1409 = ORIENTED_EDGE('',*,*,#1410,.F.);
#1410 = EDGE_CURVE('',#1411,#1380,#1413,.T.);
#1411 = VERTEX_POINT('',#1412);
#1412 = CARTESIAN_POINT('',(0.254,0.773,0.61));
#1413 = LINE('',#1414,#1415);
#1414 = CARTESIAN_POINT('',(0.254,0.773,0.61));
#1415 = VECTOR('',#1416,1.);
#1416 = DIRECTION('',(0.,-1.,0.));
#1417 = ORIENTED_EDGE('',*,*,#1418,.F.);
#1418 = EDGE_CURVE('',#1419,#1411,#1421,.T.);
#1419 = VERTEX_POINT('',#1420);
#1420 = CARTESIAN_POINT('',(-0.254,0.773,0.61));
#1421 = LINE('',#1422,#1423);
#1422 = CARTESIAN_POINT('',(-0.254,0.773,0.61));
#1423 = VECTOR('',#1424,1.);
#1424 = DIRECTION('',(1.,0.,0.));
#1425 = ORIENTED_EDGE('',*,*,#1426,.F.);
#1426 = EDGE_CURVE('',#1388,#1419,#1427,.T.);
#1427 = LINE('',#1428,#1429);
#1428 = CARTESIAN_POINT('',(-0.254,0.699,0.61));
#1429 = VECTOR('',#1430,1.);
#1430 = DIRECTION('',(0.,1.,0.));
#1431 = PLANE('',#1432);
#1432 = AXIS2_PLACEMENT_3D('',#1433,#1434,#1435);
#1433 = CARTESIAN_POINT('',(-0.254,0.699,0.61));
#1434 = DIRECTION('',(0.,0.,1.));
#1435 = DIRECTION('',(0.,1.,0.));
#1436 = ADVANCED_FACE('',(#1437),#1462,.T.);
#1437 = FACE_BOUND('',#1438,.T.);
#1438 = EDGE_LOOP('',(#1439,#1440,#1448,#1456));
#1439 = ORIENTED_EDGE('',*,*,#1369,.T.);
#1440 = ORIENTED_EDGE('',*,*,#1441,.F.);
#1441 = EDGE_CURVE('',#1442,#1372,#1444,.T.);
#1442 = VERTEX_POINT('',#1443);
#1443 = CARTESIAN_POINT('',(-0.254,0.773,0.457));
#1444 = LINE('',#1445,#1446);
#1445 = CARTESIAN_POINT('',(-0.254,0.773,0.457));
#1446 = VECTOR('',#1447,1.);
#1447 = DIRECTION('',(0.,-1.,0.));
#1448 = ORIENTED_EDGE('',*,*,#1449,.F.);
#1449 = EDGE_CURVE('',#1450,#1442,#1452,.T.);
#1450 = VERTEX_POINT('',#1451);
#1451 = CARTESIAN_POINT('',(0.254,0.773,0.457));
#1452 = LINE('',#1453,#1454);
#1453 = CARTESIAN_POINT('',(0.254,0.773,0.457));
#1454 = VECTOR('',#1455,1.);
#1455 = DIRECTION('',(-1.,0.,0.));
#1456 = ORIENTED_EDGE('',*,*,#1457,.F.);
#1457 = EDGE_CURVE('',#1370,#1450,#1458,.T.);
#1458 = LINE('',#1459,#1460);
#1459 = CARTESIAN_POINT('',(0.254,0.698,0.457));
#1460 = VECTOR('',#1461,1.);
#1461 = DIRECTION('',(0.,1.,0.));
#1462 = PLANE('',#1463);
#1463 = AXIS2_PLACEMENT_3D('',#1464,#1465,#1466);
#1464 = CARTESIAN_POINT('',(0.254,0.698,0.457));
#1465 = DIRECTION('',(0.,0.,-1.));
#1466 = DIRECTION('',(0.,1.,0.));
#1467 = ADVANCED_FACE('',(#1468),#1502,.T.);
#1468 = FACE_BOUND('',#1469,.T.);
#1469 = EDGE_LOOP('',(#1470,#1480,#1488,#1496));
#1470 = ORIENTED_EDGE('',*,*,#1471,.F.);
#1471 = EDGE_CURVE('',#1472,#1474,#1476,.T.);
#1472 = VERTEX_POINT('',#1473);
#1473 = CARTESIAN_POINT('',(-0.254,1.099,0.265));
#1474 = VERTEX_POINT('',#1475);
#1475 = CARTESIAN_POINT('',(0.254,1.099,0.265));
#1476 = LINE('',#1477,#1478);
#1477 = CARTESIAN_POINT('',(-0.254,1.099,0.265));
#1478 = VECTOR('',#1479,1.);
#1479 = DIRECTION('',(1.,0.,0.));
#1480 = ORIENTED_EDGE('',*,*,#1481,.F.);
#1481 = EDGE_CURVE('',#1482,#1472,#1484,.T.);
#1482 = VERTEX_POINT('',#1483);
#1483 = CARTESIAN_POINT('',(-0.254,1.067,0.384));
#1484 = LINE('',#1485,#1486);
#1485 = CARTESIAN_POINT('',(-0.254,1.067,0.384));
#1486 = VECTOR('',#1487,1.);
#1487 = DIRECTION('',(0.,0.258969313954,-0.965885549343));
#1488 = ORIENTED_EDGE('',*,*,#1489,.F.);
#1489 = EDGE_CURVE('',#1490,#1482,#1492,.T.);
#1490 = VERTEX_POINT('',#1491);
#1491 = CARTESIAN_POINT('',(0.254,1.067,0.384));
#1492 = LINE('',#1493,#1494);
#1493 = CARTESIAN_POINT('',(0.254,1.067,0.384));
#1494 = VECTOR('',#1495,1.);
#1495 = DIRECTION('',(-1.,0.,0.));
#1496 = ORIENTED_EDGE('',*,*,#1497,.F.);
#1497 = EDGE_CURVE('',#1474,#1490,#1498,.T.);
#1498 = LINE('',#1499,#1500);
#1499 = CARTESIAN_POINT('',(0.254,1.099,0.265));
#1500 = VECTOR('',#1501,1.);
#1501 = DIRECTION('',(0.,-0.258969313954,0.965885549343));
#1502 = PLANE('',#1503);
#1503 = AXIS2_PLACEMENT_3D('',#1504,#1505,#1506);
#1504 = CARTESIAN_POINT('',(0.254,1.099,0.265));
#1505 = DIRECTION('',(0.,0.965885549343,0.258969313954));
#1506 = DIRECTION('',(0.,-0.258969313954,0.965885549343));
#1507 = ADVANCED_FACE('',(#1508),#1542,.T.);
#1508 = FACE_BOUND('',#1509,.T.);
#1509 = EDGE_LOOP('',(#1510,#1520,#1528,#1536));
#1510 = ORIENTED_EDGE('',*,*,#1511,.F.);
#1511 = EDGE_CURVE('',#1512,#1514,#1516,.T.);
#1512 = VERTEX_POINT('',#1513);
#1513 = CARTESIAN_POINT('',(0.254,0.952,0.226));
#1514 = VERTEX_POINT('',#1515);
#1515 = CARTESIAN_POINT('',(-0.254,0.952,0.226));
#1516 = LINE('',#1517,#1518);
#1517 = CARTESIAN_POINT('',(0.254,0.952,0.226));
#1518 = VECTOR('',#1519,1.);
#1519 = DIRECTION('',(-1.,0.,0.));
#1520 = ORIENTED_EDGE('',*,*,#1521,.F.);
#1521 = EDGE_CURVE('',#1522,#1512,#1524,.T.);
#1522 = VERTEX_POINT('',#1523);
#1523 = CARTESIAN_POINT('',(0.254,0.92,0.344));
#1524 = LINE('',#1525,#1526);
#1525 = CARTESIAN_POINT('',(0.254,0.92,0.344));
#1526 = VECTOR('',#1527,1.);
#1527 = DIRECTION('',(0.,0.258969313954,-0.965885549343));
#1528 = ORIENTED_EDGE('',*,*,#1529,.F.);
#1529 = EDGE_CURVE('',#1530,#1522,#1532,.T.);
#1530 = VERTEX_POINT('',#1531);
#1531 = CARTESIAN_POINT('',(-0.254,0.92,0.344));
#1532 = LINE('',#1533,#1534);
#1533 = CARTESIAN_POINT('',(-0.254,0.92,0.344));
#1534 = VECTOR('',#1535,1.);
#1535 = DIRECTION('',(1.,0.,0.));
#1536 = ORIENTED_EDGE('',*,*,#1537,.F.);
#1537 = EDGE_CURVE('',#1514,#1530,#1538,.T.);
#1538 = LINE('',#1539,#1540);
#1539 = CARTESIAN_POINT('',(-0.254,0.952,0.226));
#1540 = VECTOR('',#1541,1.);
#1541 = DIRECTION('',(0.,-0.258969313954,0.965885549343));
#1542 = PLANE('',#1543);
#1543 = AXIS2_PLACEMENT_3D('',#1544,#1545,#1546);
#1544 = CARTESIAN_POINT('',(-0.254,0.952,0.226));
#1545 = DIRECTION('',(0.,-0.965885549343,-0.258969313954));
#1546 = DIRECTION('',(0.,-0.258969313954,0.965885549343));
#1547 = ADVANCED_FACE('',(#1548),#1582,.T.);
#1548 = FACE_BOUND('',#1549,.T.);
#1549 = EDGE_LOOP('',(#1550,#1560,#1568,#1576));
#1550 = ORIENTED_EDGE('',*,*,#1551,.F.);
#1551 = EDGE_CURVE('',#1552,#1554,#1556,.T.);
#1552 = VERTEX_POINT('',#1553);
#1553 = CARTESIAN_POINT('',(-0.254,1.321,0.152));
#1554 = VERTEX_POINT('',#1555);
#1555 = CARTESIAN_POINT('',(0.254,1.321,0.152));
#1556 = LINE('',#1557,#1558);
#1557 = CARTESIAN_POINT('',(-0.254,1.321,0.152));
#1558 = VECTOR('',#1559,1.);
#1559 = DIRECTION('',(1.,0.,0.));
#1560 = ORIENTED_EDGE('',*,*,#1561,.F.);
#1561 = EDGE_CURVE('',#1562,#1552,#1564,.T.);
#1562 = VERTEX_POINT('',#1563);
#1563 = CARTESIAN_POINT('',(-0.254,1.246,0.152));
#1564 = LINE('',#1565,#1566);
#1565 = CARTESIAN_POINT('',(-0.254,1.246,0.152));
#1566 = VECTOR('',#1567,1.);
#1567 = DIRECTION('',(0.,1.,0.));
#1568 = ORIENTED_EDGE('',*,*,#1569,.F.);
#1569 = EDGE_CURVE('',#1570,#1562,#1572,.T.);
#1570 = VERTEX_POINT('',#1571);
#1571 = CARTESIAN_POINT('',(0.254,1.246,0.152));
#1572 = LINE('',#1573,#1574);
#1573 = CARTESIAN_POINT('',(0.254,1.246,0.152));
#1574 = VECTOR('',#1575,1.);
#1575 = DIRECTION('',(-1.,0.,0.));
#1576 = ORIENTED_EDGE('',*,*,#1577,.F.);
#1577 = EDGE_CURVE('',#1554,#1570,#1578,.T.);
#1578 = LINE('',#1579,#1580);
#1579 = CARTESIAN_POINT('',(0.254,1.321,0.152));
#1580 = VECTOR('',#1581,1.);
#1581 = DIRECTION('',(0.,-1.,0.));
#1582 = PLANE('',#1583);
#1583 = AXIS2_PLACEMENT_3D('',#1584,#1585,#1586);
#1584 = CARTESIAN_POINT('',(0.254,1.321,0.152));
#1585 = DIRECTION('',(0.,0.,1.));
#1586 = DIRECTION('',(0.,1.,0.));
#1587 = ADVANCED_FACE('',(#1588),#1622,.T.);
#1588 = FACE_BOUND('',#1589,.T.);
#1589 = EDGE_LOOP('',(#1590,#1600,#1608,#1616));
#1590 = ORIENTED_EDGE('',*,*,#1591,.F.);
#1591 = EDGE_CURVE('',#1592,#1594,#1596,.T.);
#1592 = VERTEX_POINT('',#1593);
#1593 = CARTESIAN_POINT('',(-0.254,1.246,0.));
#1594 = VERTEX_POINT('',#1595);
#1595 = CARTESIAN_POINT('',(0.254,1.246,0.));
#1596 = LINE('',#1597,#1598);
#1597 = CARTESIAN_POINT('',(-0.254,1.246,0.));
#1598 = VECTOR('',#1599,1.);
#1599 = DIRECTION('',(1.,0.,0.));
#1600 = ORIENTED_EDGE('',*,*,#1601,.F.);
#1601 = EDGE_CURVE('',#1602,#1592,#1604,.T.);
#1602 = VERTEX_POINT('',#1603);
#1603 = CARTESIAN_POINT('',(-0.254,1.321,0.));
#1604 = LINE('',#1605,#1606);
#1605 = CARTESIAN_POINT('',(-0.254,1.321,0.));
#1606 = VECTOR('',#1607,1.);
#1607 = DIRECTION('',(0.,-1.,0.));
#1608 = ORIENTED_EDGE('',*,*,#1609,.F.);
#1609 = EDGE_CURVE('',#1610,#1602,#1612,.T.);
#1610 = VERTEX_POINT('',#1611);
#1611 = CARTESIAN_POINT('',(0.254,1.321,0.));
#1612 = LINE('',#1613,#1614);
#1613 = CARTESIAN_POINT('',(0.254,1.321,0.));
#1614 = VECTOR('',#1615,1.);
#1615 = DIRECTION('',(-1.,0.,0.));
#1616 = ORIENTED_EDGE('',*,*,#1617,.F.);
#1617 = EDGE_CURVE('',#1594,#1610,#1618,.T.);
#1618 = LINE('',#1619,#1620);
#1619 = CARTESIAN_POINT('',(0.254,1.246,0.));
#1620 = VECTOR('',#1621,1.);
#1621 = DIRECTION('',(0.,1.,0.));
#1622 = PLANE('',#1623);
#1623 = AXIS2_PLACEMENT_3D('',#1624,#1625,#1626);
#1624 = CARTESIAN_POINT('',(0.254,1.246,0.));
#1625 = DIRECTION('',(0.,0.,-1.));
#1626 = DIRECTION('',(0.,1.,0.));
#1627 = ADVANCED_FACE('',(#1628),#1644,.T.);
#1628 = FACE_BOUND('',#1629,.T.);
#1629 = EDGE_LOOP('',(#1630,#1631,#1637,#1638));
#1630 = ORIENTED_EDGE('',*,*,#1609,.T.);
#1631 = ORIENTED_EDGE('',*,*,#1632,.F.);
#1632 = EDGE_CURVE('',#1552,#1602,#1633,.T.);
#1633 = LINE('',#1634,#1635);
#1634 = CARTESIAN_POINT('',(-0.254,1.321,0.152));
#1635 = VECTOR('',#1636,1.);
#1636 = DIRECTION('',(0.,0.,-1.));
#1637 = ORIENTED_EDGE('',*,*,#1551,.T.);
#1638 = ORIENTED_EDGE('',*,*,#1639,.F.);
#1639 = EDGE_CURVE('',#1610,#1554,#1640,.T.);
#1640 = LINE('',#1641,#1642);
#1641 = CARTESIAN_POINT('',(0.254,1.321,0.));
#1642 = VECTOR('',#1643,1.);
#1643 = DIRECTION('',(0.,0.,1.));
#1644 = PLANE('',#1645);
#1645 = AXIS2_PLACEMENT_3D('',#1646,#1647,#1648);
#1646 = CARTESIAN_POINT('',(0.254,1.321,0.));
#1647 = DIRECTION('',(0.,1.,0.));
#1648 = DIRECTION('',(0.,-0.,1.));
#1649 = ADVANCED_FACE('',(#1650),#1668,.T.);
#1650 = FACE_BOUND('',#1651,.T.);
#1651 = EDGE_LOOP('',(#1652,#1653,#1660,#1661));
#1652 = ORIENTED_EDGE('',*,*,#1418,.T.);
#1653 = ORIENTED_EDGE('',*,*,#1654,.F.);
#1654 = EDGE_CURVE('',#1490,#1411,#1655,.T.);
#1655 = CIRCLE('',#1656,0.3048);
#1656 = AXIS2_PLACEMENT_3D('',#1657,#1658,#1659);
#1657 = CARTESIAN_POINT('',(0.254,0.773,0.305));
#1658 = DIRECTION('',(1.,0.,0.));
#1659 = DIRECTION('',(0.,-0.793107076684,0.609082231652));
#1660 = ORIENTED_EDGE('',*,*,#1489,.T.);
#1661 = ORIENTED_EDGE('',*,*,#1662,.F.);
#1662 = EDGE_CURVE('',#1419,#1482,#1663,.T.);
#1663 = CIRCLE('',#1664,0.3048);
#1664 = AXIS2_PLACEMENT_3D('',#1665,#1666,#1667);
#1665 = CARTESIAN_POINT('',(-0.254,0.773,0.305));
#1666 = DIRECTION('',(-1.,0.,0.));
#1667 = DIRECTION('',(0.,0.793107076684,-0.609082231652));
#1668 = CYLINDRICAL_SURFACE('',#1669,0.3048);
#1669 = AXIS2_PLACEMENT_3D('',#1670,#1671,#1672);
#1670 = CARTESIAN_POINT('',(-0.254,0.773,0.305));
#1671 = DIRECTION('',(-1.,0.,0.));
#1672 = DIRECTION('',(0.,0.,1.));
#1673 = ADVANCED_FACE('',(#1674),#1692,.F.);
#1674 = FACE_BOUND('',#1675,.F.);
#1675 = EDGE_LOOP('',(#1676,#1683,#1684,#1691));
#1676 = ORIENTED_EDGE('',*,*,#1677,.T.);
#1677 = EDGE_CURVE('',#1450,#1522,#1678,.T.);
#1678 = CIRCLE('',#1679,0.1524);
#1679 = AXIS2_PLACEMENT_3D('',#1680,#1681,#1682);
#1680 = CARTESIAN_POINT('',(0.254,0.773,0.305));
#1681 = DIRECTION('',(-1.,0.,0.));
#1682 = DIRECTION('',(0.,0.793107076684,-0.609082231652));
#1683 = ORIENTED_EDGE('',*,*,#1529,.F.);
#1684 = ORIENTED_EDGE('',*,*,#1685,.T.);
#1685 = EDGE_CURVE('',#1530,#1442,#1686,.T.);
#1686 = CIRCLE('',#1687,0.1524);
#1687 = AXIS2_PLACEMENT_3D('',#1688,#1689,#1690);
#1688 = CARTESIAN_POINT('',(-0.254,0.773,0.305));
#1689 = DIRECTION('',(1.,0.,0.));
#1690 = DIRECTION('',(0.,-0.793107076684,0.609082231652));
#1691 = ORIENTED_EDGE('',*,*,#1449,.F.);
#1692 = CYLINDRICAL_SURFACE('',#1693,0.1524);
#1693 = AXIS2_PLACEMENT_3D('',#1694,#1695,#1696);
#1694 = CARTESIAN_POINT('',(0.254,0.773,0.305));
#1695 = DIRECTION('',(-1.,0.,0.));
#1696 = DIRECTION('',(0.,0.,-1.));
#1697 = ADVANCED_FACE('',(#1698),#1716,.F.);
#1698 = FACE_BOUND('',#1699,.F.);
#1699 = EDGE_LOOP('',(#1700,#1707,#1708,#1715));
#1700 = ORIENTED_EDGE('',*,*,#1701,.T.);
#1701 = EDGE_CURVE('',#1570,#1474,#1702,.T.);
#1702 = CIRCLE('',#1703,0.1524);
#1703 = AXIS2_PLACEMENT_3D('',#1704,#1705,#1706);
#1704 = CARTESIAN_POINT('',(0.254,1.246,0.305));
#1705 = DIRECTION('',(-1.,0.,0.));
#1706 = DIRECTION('',(0.,-0.793107076684,0.609082231652));
#1707 = ORIENTED_EDGE('',*,*,#1471,.F.);
#1708 = ORIENTED_EDGE('',*,*,#1709,.T.);
#1709 = EDGE_CURVE('',#1472,#1562,#1710,.T.);
#1710 = CIRCLE('',#1711,0.1524);
#1711 = AXIS2_PLACEMENT_3D('',#1712,#1713,#1714);
#1712 = CARTESIAN_POINT('',(-0.254,1.246,0.305));
#1713 = DIRECTION('',(1.,0.,0.));
#1714 = DIRECTION('',(0.,0.793107076684,-0.609082231652));
#1715 = ORIENTED_EDGE('',*,*,#1569,.F.);
#1716 = CYLINDRICAL_SURFACE('',#1717,0.1524);
#1717 = AXIS2_PLACEMENT_3D('',#1718,#1719,#1720);
#1718 = CARTESIAN_POINT('',(0.254,1.246,0.305));
#1719 = DIRECTION('',(-1.,0.,0.));
#1720 = DIRECTION('',(0.,0.,1.));
#1721 = ADVANCED_FACE('',(#1722),#1740,.T.);
#1722 = FACE_BOUND('',#1723,.T.);
#1723 = EDGE_LOOP('',(#1724,#1725,#1732,#1733));
#1724 = ORIENTED_EDGE('',*,*,#1591,.T.);
#1725 = ORIENTED_EDGE('',*,*,#1726,.F.);
#1726 = EDGE_CURVE('',#1512,#1594,#1727,.T.);
#1727 = CIRCLE('',#1728,0.3048);
#1728 = AXIS2_PLACEMENT_3D('',#1729,#1730,#1731);
#1729 = CARTESIAN_POINT('',(0.254,1.246,0.305));
#1730 = DIRECTION('',(1.,0.,0.));
#1731 = DIRECTION('',(0.,0.793107076684,-0.609082231652));
#1732 = ORIENTED_EDGE('',*,*,#1511,.T.);
#1733 = ORIENTED_EDGE('',*,*,#1734,.F.);
#1734 = EDGE_CURVE('',#1592,#1514,#1735,.T.);
#1735 = CIRCLE('',#1736,0.3048);
#1736 = AXIS2_PLACEMENT_3D('',#1737,#1738,#1739);
#1737 = CARTESIAN_POINT('',(-0.254,1.246,0.305));
#1738 = DIRECTION('',(-1.,0.,0.));
#1739 = DIRECTION('',(0.,-0.793107076684,0.609082231652));
#1740 = CYLINDRICAL_SURFACE('',#1741,0.3048);
#1741 = AXIS2_PLACEMENT_3D('',#1742,#1743,#1744);
#1742 = CARTESIAN_POINT('',(0.254,1.246,0.305));
#1743 = DIRECTION('',(-1.,0.,0.));
#1744 = DIRECTION('',(0.,0.,-1.));
#1745 = ADVANCED_FACE('',(#1746),#1760,.T.);
#1746 = FACE_BOUND('',#1747,.T.);
#1747 = EDGE_LOOP('',(#1748,#1749,#1750,#1751,#1752,#1753,#1754,#1755,
    #1756,#1757,#1758,#1759));
#1748 = ORIENTED_EDGE('',*,*,#1410,.T.);
#1749 = ORIENTED_EDGE('',*,*,#1379,.T.);
#1750 = ORIENTED_EDGE('',*,*,#1457,.T.);
#1751 = ORIENTED_EDGE('',*,*,#1677,.T.);
#1752 = ORIENTED_EDGE('',*,*,#1521,.T.);
#1753 = ORIENTED_EDGE('',*,*,#1726,.T.);
#1754 = ORIENTED_EDGE('',*,*,#1617,.T.);
#1755 = ORIENTED_EDGE('',*,*,#1639,.T.);
#1756 = ORIENTED_EDGE('',*,*,#1577,.T.);
#1757 = ORIENTED_EDGE('',*,*,#1701,.T.);
#1758 = ORIENTED_EDGE('',*,*,#1497,.T.);
#1759 = ORIENTED_EDGE('',*,*,#1654,.T.);
#1760 = PLANE('',#1761);
#1761 = AXIS2_PLACEMENT_3D('',#1762,#1763,#1764);
#1762 = CARTESIAN_POINT('',(0.254,0.698,0.457));
#1763 = DIRECTION('',(1.,0.,0.));
#1764 = DIRECTION('',(-0.,0.,1.));
#1765 = ADVANCED_FACE('',(#1766),#1780,.T.);
#1766 = FACE_BOUND('',#1767,.T.);
#1767 = EDGE_LOOP('',(#1768,#1769,#1770,#1771,#1772,#1773,#1774,#1775,
    #1776,#1777,#1778,#1779));
#1768 = ORIENTED_EDGE('',*,*,#1441,.T.);
#1769 = ORIENTED_EDGE('',*,*,#1395,.T.);
#1770 = ORIENTED_EDGE('',*,*,#1426,.T.);
#1771 = ORIENTED_EDGE('',*,*,#1662,.T.);
#1772 = ORIENTED_EDGE('',*,*,#1481,.T.);
#1773 = ORIENTED_EDGE('',*,*,#1709,.T.);
#1774 = ORIENTED_EDGE('',*,*,#1561,.T.);
#1775 = ORIENTED_EDGE('',*,*,#1632,.T.);
#1776 = ORIENTED_EDGE('',*,*,#1601,.T.);
#1777 = ORIENTED_EDGE('',*,*,#1734,.T.);
#1778 = ORIENTED_EDGE('',*,*,#1537,.T.);
#1779 = ORIENTED_EDGE('',*,*,#1685,.T.);
#1780 = PLANE('',#1781);
#1781 = AXIS2_PLACEMENT_3D('',#1782,#1783,#1784);
#1782 = CARTESIAN_POINT('',(-0.254,1.246,0.152));
#1783 = DIRECTION('',(-1.,0.,0.));
#1784 = DIRECTION('',(0.,0.,-1.));
#1785 = ( GEOMETRIC_REPRESENTATION_CONTEXT(3) 
GLOBAL_UNCERTAINTY_ASSIGNED_CONTEXT((#1789)) 
GLOBAL_UNIT_ASSIGNED_CONTEXT((#1786,#1787,#1788)) REPRESENTATION_CONTEXT
('Context #1','3D Context with UNIT and UNCERTAINTY') );
#1786 = ( LENGTH_UNIT() NAMED_UNIT(*) SI_UNIT(.MILLI.,.METRE.) );
#1787 = ( NAMED_UNIT(*) PLANE_ANGLE_UNIT() SI_UNIT($,.RADIAN.) );
#1788 = ( NAMED_UNIT(*) SI_UNIT($,.STERADIAN.) SOLID_ANGLE_UNIT() );
#1789 = UNCERTAINTY_MEASURE_WITH_UNIT(LENGTH_MEASURE(2.E-04),#1786,
  'distance_accuracy_value','confusion accuracy');
#1790 = CONTEXT_DEPENDENT_SHAPE_REPRESENTATION(#1791,#1793);
#1791 = ( REPRESENTATION_RELATIONSHIP('','',#1362,#10) 
REPRESENTATION_RELATIONSHIP_WITH_TRANSFORMATION(#1792) 
SHAPE_REPRESENTATION_RELATIONSHIP() );
#1792 = ITEM_DEFINED_TRANSFORMATION('','',#11,#31);
#1793 = PRODUCT_DEFINITION_SHAPE('Placement','Placement of an item',
  #1794);
#1794 = NEXT_ASSEMBLY_USAGE_OCCURRENCE('5','=>[0:1:1:5]','',#5,#1357,$);
#1795 = PRODUCT_RELATED_PRODUCT_CATEGORY('part',$,(#1359));
#1796 = MECHANICAL_DESIGN_GEOMETRIC_PRESENTATION_REPRESENTATION('',(
    #1797,#1805,#1812),#101);
#1797 = STYLED_ITEM('color',(#1798),#51);
#1798 = PRESENTATION_STYLE_ASSIGNMENT((#1799));
#1799 = SURFACE_STYLE_USAGE(.BOTH.,#1800);
#1800 = SURFACE_SIDE_STYLE('',(#1801));
#1801 = SURFACE_STYLE_FILL_AREA(#1802);
#1802 = FILL_AREA_STYLE('',(#1803));
#1803 = FILL_AREA_STYLE_COLOUR('',#1804);
#1804 = COLOUR_RGB('',0.587999997538,0.587999997538,0.587999997538);
#1805 = STYLED_ITEM('color',(#1806),#83);
#1806 = PRESENTATION_STYLE_ASSIGNMENT((#1807));
#1807 = SURFACE_STYLE_USAGE(.BOTH.,#1808);
#1808 = SURFACE_SIDE_STYLE('',(#1809));
#1809 = SURFACE_STYLE_FILL_AREA(#1810);
#1810 = FILL_AREA_STYLE('',(#1811));
#1811 = FILL_AREA_STYLE_COLOUR('',#1804);
#1812 = STYLED_ITEM('color',(#1813),#92);
#1813 = PRESENTATION_STYLE_ASSIGNMENT((#1814));
#1814 = SURFACE_STYLE_USAGE(.BOTH.,#1815);
#1815 = SURFACE_SIDE_STYLE('',(#1816));
#1816 = SURFACE_STYLE_FILL_AREA(#1817);
#1817 = FILL_AREA_STYLE('',(#1818));
#1818 = FILL_AREA_STYLE_COLOUR('',#1804);
#1819 = MECHANICAL_DESIGN_GEOMETRIC_PRESENTATION_REPRESENTATION('',(
    #1820,#1828,#1835,#1842,#1849,#1856,#1863,#1870,#1877,#1884,#1891,
    #1898,#1905,#1912),#462);
#1820 = STYLED_ITEM('color',(#1821),#122);
#1821 = PRESENTATION_STYLE_ASSIGNMENT((#1822));
#1822 = SURFACE_STYLE_USAGE(.BOTH.,#1823);
#1823 = SURFACE_SIDE_STYLE('',(#1824));
#1824 = SURFACE_STYLE_FILL_AREA(#1825);
#1825 = FILL_AREA_STYLE('',(#1826));
#1826 = FILL_AREA_STYLE_COLOUR('',#1827);
#1827 = COLOUR_RGB('',0.196000005209,0.196000005209,0.196000005209);
#1828 = STYLED_ITEM('color',(#1829),#162);
#1829 = PRESENTATION_STYLE_ASSIGNMENT((#1830));
#1830 = SURFACE_STYLE_USAGE(.BOTH.,#1831);
#1831 = SURFACE_SIDE_STYLE('',(#1832));
#1832 = SURFACE_STYLE_FILL_AREA(#1833);
#1833 = FILL_AREA_STYLE('',(#1834));
#1834 = FILL_AREA_STYLE_COLOUR('',#1827);
#1835 = STYLED_ITEM('color',(#1836),#193);
#1836 = PRESENTATION_STYLE_ASSIGNMENT((#1837));
#1837 = SURFACE_STYLE_USAGE(.BOTH.,#1838);
#1838 = SURFACE_SIDE_STYLE('',(#1839));
#1839 = SURFACE_STYLE_FILL_AREA(#1840);
#1840 = FILL_AREA_STYLE('',(#1841));
#1841 = FILL_AREA_STYLE_COLOUR('',#1827);
#1842 = STYLED_ITEM('color',(#1843),#217);
#1843 = PRESENTATION_STYLE_ASSIGNMENT((#1844));
#1844 = SURFACE_STYLE_USAGE(.BOTH.,#1845);
#1845 = SURFACE_SIDE_STYLE('',(#1846));
#1846 = SURFACE_STYLE_FILL_AREA(#1847);
#1847 = FILL_AREA_STYLE('',(#1848));
#1848 = FILL_AREA_STYLE_COLOUR('',#1827);
#1849 = STYLED_ITEM('color',(#1850),#241);
#1850 = PRESENTATION_STYLE_ASSIGNMENT((#1851));
#1851 = SURFACE_STYLE_USAGE(.BOTH.,#1852);
#1852 = SURFACE_SIDE_STYLE('',(#1853));
#1853 = SURFACE_STYLE_FILL_AREA(#1854);
#1854 = FILL_AREA_STYLE('',(#1855));
#1855 = FILL_AREA_STYLE_COLOUR('',#1827);
#1856 = STYLED_ITEM('color',(#1857),#258);
#1857 = PRESENTATION_STYLE_ASSIGNMENT((#1858));
#1858 = SURFACE_STYLE_USAGE(.BOTH.,#1859);
#1859 = SURFACE_SIDE_STYLE('',(#1860));
#1860 = SURFACE_STYLE_FILL_AREA(#1861);
#1861 = FILL_AREA_STYLE('',(#1862));
#1862 = FILL_AREA_STYLE_COLOUR('',#1827);
#1863 = STYLED_ITEM('color',(#1864),#289);
#1864 = PRESENTATION_STYLE_ASSIGNMENT((#1865));
#1865 = SURFACE_STYLE_USAGE(.BOTH.,#1866);
#1866 = SURFACE_SIDE_STYLE('',(#1867));
#1867 = SURFACE_STYLE_FILL_AREA(#1868);
#1868 = FILL_AREA_STYLE('',(#1869));
#1869 = FILL_AREA_STYLE_COLOUR('',#1827);
#1870 = STYLED_ITEM('color',(#1871),#313);
#1871 = PRESENTATION_STYLE_ASSIGNMENT((#1872));
#1872 = SURFACE_STYLE_USAGE(.BOTH.,#1873);
#1873 = SURFACE_SIDE_STYLE('',(#1874));
#1874 = SURFACE_STYLE_FILL_AREA(#1875);
#1875 = FILL_AREA_STYLE('',(#1876));
#1876 = FILL_AREA_STYLE_COLOUR('',#1827);
#1877 = STYLED_ITEM('color',(#1878),#337);
#1878 = PRESENTATION_STYLE_ASSIGNMENT((#1879));
#1879 = SURFACE_STYLE_USAGE(.BOTH.,#1880);
#1880 = SURFACE_SIDE_STYLE('',(#1881));
#1881 = SURFACE_STYLE_FILL_AREA(#1882);
#1882 = FILL_AREA_STYLE('',(#1883));
#1883 = FILL_AREA_STYLE_COLOUR('',#1827);
#1884 = STYLED_ITEM('color',(#1885),#354);
#1885 = PRESENTATION_STYLE_ASSIGNMENT((#1886));
#1886 = SURFACE_STYLE_USAGE(.BOTH.,#1887);
#1887 = SURFACE_SIDE_STYLE('',(#1888));
#1888 = SURFACE_STYLE_FILL_AREA(#1889);
#1889 = FILL_AREA_STYLE('',(#1890));
#1890 = FILL_AREA_STYLE_COLOUR('',#1827);
#1891 = STYLED_ITEM('color',(#1892),#385);
#1892 = PRESENTATION_STYLE_ASSIGNMENT((#1893));
#1893 = SURFACE_STYLE_USAGE(.BOTH.,#1894);
#1894 = SURFACE_SIDE_STYLE('',(#1895));
#1895 = SURFACE_STYLE_FILL_AREA(#1896);
#1896 = FILL_AREA_STYLE('',(#1897));
#1897 = FILL_AREA_STYLE_COLOUR('',#1827);
#1898 = STYLED_ITEM('color',(#1899),#409);
#1899 = PRESENTATION_STYLE_ASSIGNMENT((#1900));
#1900 = SURFACE_STYLE_USAGE(.BOTH.,#1901);
#1901 = SURFACE_SIDE_STYLE('',(#1902));
#1902 = SURFACE_STYLE_FILL_AREA(#1903);
#1903 = FILL_AREA_STYLE('',(#1904));
#1904 = FILL_AREA_STYLE_COLOUR('',#1827);
#1905 = STYLED_ITEM('color',(#1906),#433);
#1906 = PRESENTATION_STYLE_ASSIGNMENT((#1907));
#1907 = SURFACE_STYLE_USAGE(.BOTH.,#1908);
#1908 = SURFACE_SIDE_STYLE('',(#1909));
#1909 = SURFACE_STYLE_FILL_AREA(#1910);
#1910 = FILL_AREA_STYLE('',(#1911));
#1911 = FILL_AREA_STYLE_COLOUR('',#1827);
#1912 = STYLED_ITEM('color',(#1913),#450);
#1913 = PRESENTATION_STYLE_ASSIGNMENT((#1914));
#1914 = SURFACE_STYLE_USAGE(.BOTH.,#1915);
#1915 = SURFACE_SIDE_STYLE('',(#1916));
#1916 = SURFACE_STYLE_FILL_AREA(#1917);
#1917 = FILL_AREA_STYLE('',(#1918));
#1918 = FILL_AREA_STYLE_COLOUR('',#1827);
#1919 = MECHANICAL_DESIGN_GEOMETRIC_PRESENTATION_REPRESENTATION('',(
    #1920,#1928,#1935,#1942,#1949,#1956,#1963,#1970,#1977,#1984,#1991,
    #1998,#2005,#2012),#1785);
#1920 = STYLED_ITEM('color',(#1921),#1365);
#1921 = PRESENTATION_STYLE_ASSIGNMENT((#1922));
#1922 = SURFACE_STYLE_USAGE(.BOTH.,#1923);
#1923 = SURFACE_SIDE_STYLE('',(#1924));
#1924 = SURFACE_STYLE_FILL_AREA(#1925);
#1925 = FILL_AREA_STYLE('',(#1926));
#1926 = FILL_AREA_STYLE_COLOUR('',#1927);
#1927 = COLOUR_RGB('',0.724999971175,0.724999971175,0.724999971175);
#1928 = STYLED_ITEM('color',(#1929),#1405);
#1929 = PRESENTATION_STYLE_ASSIGNMENT((#1930));
#1930 = SURFACE_STYLE_USAGE(.BOTH.,#1931);
#1931 = SURFACE_SIDE_STYLE('',(#1932));
#1932 = SURFACE_STYLE_FILL_AREA(#1933);
#1933 = FILL_AREA_STYLE('',(#1934));
#1934 = FILL_AREA_STYLE_COLOUR('',#1927);
#1935 = STYLED_ITEM('color',(#1936),#1436);
#1936 = PRESENTATION_STYLE_ASSIGNMENT((#1937));
#1937 = SURFACE_STYLE_USAGE(.BOTH.,#1938);
#1938 = SURFACE_SIDE_STYLE('',(#1939));
#1939 = SURFACE_STYLE_FILL_AREA(#1940);
#1940 = FILL_AREA_STYLE('',(#1941));
#1941 = FILL_AREA_STYLE_COLOUR('',#1927);
#1942 = STYLED_ITEM('color',(#1943),#1467);
#1943 = PRESENTATION_STYLE_ASSIGNMENT((#1944));
#1944 = SURFACE_STYLE_USAGE(.BOTH.,#1945);
#1945 = SURFACE_SIDE_STYLE('',(#1946));
#1946 = SURFACE_STYLE_FILL_AREA(#1947);
#1947 = FILL_AREA_STYLE('',(#1948));
#1948 = FILL_AREA_STYLE_COLOUR('',#1927);
#1949 = STYLED_ITEM('color',(#1950),#1507);
#1950 = PRESENTATION_STYLE_ASSIGNMENT((#1951));
#1951 = SURFACE_STYLE_USAGE(.BOTH.,#1952);
#1952 = SURFACE_SIDE_STYLE('',(#1953));
#1953 = SURFACE_STYLE_FILL_AREA(#1954);
#1954 = FILL_AREA_STYLE('',(#1955));
#1955 = FILL_AREA_STYLE_COLOUR('',#1927);
#1956 = STYLED_ITEM('color',(#1957),#1547);
#1957 = PRESENTATION_STYLE_ASSIGNMENT((#1958));
#1958 = SURFACE_STYLE_USAGE(.BOTH.,#1959);
#1959 = SURFACE_SIDE_STYLE('',(#1960));
#1960 = SURFACE_STYLE_FILL_AREA(#1961);
#1961 = FILL_AREA_STYLE('',(#1962));
#1962 = FILL_AREA_STYLE_COLOUR('',#1927);
#1963 = STYLED_ITEM('color',(#1964),#1587);
#1964 = PRESENTATION_STYLE_ASSIGNMENT((#1965));
#1965 = SURFACE_STYLE_USAGE(.BOTH.,#1966);
#1966 = SURFACE_SIDE_STYLE('',(#1967));
#1967 = SURFACE_STYLE_FILL_AREA(#1968);
#1968 = FILL_AREA_STYLE('',(#1969));
#1969 = FILL_AREA_STYLE_COLOUR('',#1927);
#1970 = STYLED_ITEM('color',(#1971),#1627);
#1971 = PRESENTATION_STYLE_ASSIGNMENT((#1972));
#1972 = SURFACE_STYLE_USAGE(.BOTH.,#1973);
#1973 = SURFACE_SIDE_STYLE('',(#1974));
#1974 = SURFACE_STYLE_FILL_AREA(#1975);
#1975 = FILL_AREA_STYLE('',(#1976));
#1976 = FILL_AREA_STYLE_COLOUR('',#1927);
#1977 = STYLED_ITEM('color',(#1978),#1649);
#1978 = PRESENTATION_STYLE_ASSIGNMENT((#1979));
#1979 = SURFACE_STYLE_USAGE(.BOTH.,#1980);
#1980 = SURFACE_SIDE_STYLE('',(#1981));
#1981 = SURFACE_STYLE_FILL_AREA(#1982);
#1982 = FILL_AREA_STYLE('',(#1983));
#1983 = FILL_AREA_STYLE_COLOUR('',#1927);
#1984 = STYLED_ITEM('color',(#1985),#1673);
#1985 = PRESENTATION_STYLE_ASSIGNMENT((#1986));
#1986 = SURFACE_STYLE_USAGE(.BOTH.,#1987);
#1987 = SURFACE_SIDE_STYLE('',(#1988));
#1988 = SURFACE_STYLE_FILL_AREA(#1989);
#1989 = FILL_AREA_STYLE('',(#1990));
#1990 = FILL_AREA_STYLE_COLOUR('',#1927);
#1991 = STYLED_ITEM('color',(#1992),#1697);
#1992 = PRESENTATION_STYLE_ASSIGNMENT((#1993));
#1993 = SURFACE_STYLE_USAGE(.BOTH.,#1994);
#1994 = SURFACE_SIDE_STYLE('',(#1995));
#1995 = SURFACE_STYLE_FILL_AREA(#1996);
#1996 = FILL_AREA_STYLE('',(#1997));
#1997 = FILL_AREA_STYLE_COLOUR('',#1927);
#1998 = STYLED_ITEM('color',(#1999),#1721);
#1999 = PRESENTATION_STYLE_ASSIGNMENT((#2000));
#2000 = SURFACE_STYLE_USAGE(.BOTH.,#2001);
#2001 = SURFACE_SIDE_STYLE('',(#2002));
#2002 = SURFACE_STYLE_FILL_AREA(#2003);
#2003 = FILL_AREA_STYLE('',(#2004));
#2004 = FILL_AREA_STYLE_COLOUR('',#1927);
#2005 = STYLED_ITEM('color',(#2006),#1745);
#2006 = PRESENTATION_STYLE_ASSIGNMENT((#2007));
#2007 = SURFACE_STYLE_USAGE(.BOTH.,#2008);
#2008 = SURFACE_SIDE_STYLE('',(#2009));
#2009 = SURFACE_STYLE_FILL_AREA(#2010);
#2010 = FILL_AREA_STYLE('',(#2011));
#2011 = FILL_AREA_STYLE_COLOUR('',#1927);
#2012 = STYLED_ITEM('color',(#2013),#1765);
#2013 = PRESENTATION_STYLE_ASSIGNMENT((#2014));
#2014 = SURFACE_STYLE_USAGE(.BOTH.,#2015);
#2015 = SURFACE_SIDE_STYLE('',(#2016));
#2016 = SURFACE_STYLE_FILL_AREA(#2017);
#2017 = FILL_AREA_STYLE('',(#2018));
#2018 = FILL_AREA_STYLE_COLOUR('',#1927);
#2019 = MECHANICAL_DESIGN_GEOMETRIC_PRESENTATION_REPRESENTATION('',(
    #2020,#2027,#2034,#2041,#2048,#2055,#2062,#2069,#2076,#2083,#2090,
    #2097,#2104,#2111),#1344);
#2020 = STYLED_ITEM('color',(#2021),#924);
#2021 = PRESENTATION_STYLE_ASSIGNMENT((#2022));
#2022 = SURFACE_STYLE_USAGE(.BOTH.,#2023);
#2023 = SURFACE_SIDE_STYLE('',(#2024));
#2024 = SURFACE_STYLE_FILL_AREA(#2025);
#2025 = FILL_AREA_STYLE('',(#2026));
#2026 = FILL_AREA_STYLE_COLOUR('',#1927);
#2027 = STYLED_ITEM('color',(#2028),#964);
#2028 = PRESENTATION_STYLE_ASSIGNMENT((#2029));
#2029 = SURFACE_STYLE_USAGE(.BOTH.,#2030);
#2030 = SURFACE_SIDE_STYLE('',(#2031));
#2031 = SURFACE_STYLE_FILL_AREA(#2032);
#2032 = FILL_AREA_STYLE('',(#2033));
#2033 = FILL_AREA_STYLE_COLOUR('',#1927);
#2034 = STYLED_ITEM('color',(#2035),#995);
#2035 = PRESENTATION_STYLE_ASSIGNMENT((#2036));
#2036 = SURFACE_STYLE_USAGE(.BOTH.,#2037);
#2037 = SURFACE_SIDE_STYLE('',(#2038));
#2038 = SURFACE_STYLE_FILL_AREA(#2039);
#2039 = FILL_AREA_STYLE('',(#2040));
#2040 = FILL_AREA_STYLE_COLOUR('',#1927);
#2041 = STYLED_ITEM('color',(#2042),#1026);
#2042 = PRESENTATION_STYLE_ASSIGNMENT((#2043));
#2043 = SURFACE_STYLE_USAGE(.BOTH.,#2044);
#2044 = SURFACE_SIDE_STYLE('',(#2045));
#2045 = SURFACE_STYLE_FILL_AREA(#2046);
#2046 = FILL_AREA_STYLE('',(#2047));
#2047 = FILL_AREA_STYLE_COLOUR('',#1927);
#2048 = STYLED_ITEM('color',(#2049),#1066);
#2049 = PRESENTATION_STYLE_ASSIGNMENT((#2050));
#2050 = SURFACE_STYLE_USAGE(.BOTH.,#2051);
#2051 = SURFACE_SIDE_STYLE('',(#2052));
#2052 = SURFACE_STYLE_FILL_AREA(#2053);
#2053 = FILL_AREA_STYLE('',(#2054));
#2054 = FILL_AREA_STYLE_COLOUR('',#1927);
#2055 = STYLED_ITEM('color',(#2056),#1106);
#2056 = PRESENTATION_STYLE_ASSIGNMENT((#2057));
#2057 = SURFACE_STYLE_USAGE(.BOTH.,#2058);
#2058 = SURFACE_SIDE_STYLE('',(#2059));
#2059 = SURFACE_STYLE_FILL_AREA(#2060);
#2060 = FILL_AREA_STYLE('',(#2061));
#2061 = FILL_AREA_STYLE_COLOUR('',#1927);
#2062 = STYLED_ITEM('color',(#2063),#1146);
#2063 = PRESENTATION_STYLE_ASSIGNMENT((#2064));
#2064 = SURFACE_STYLE_USAGE(.BOTH.,#2065);
#2065 = SURFACE_SIDE_STYLE('',(#2066));
#2066 = SURFACE_STYLE_FILL_AREA(#2067);
#2067 = FILL_AREA_STYLE('',(#2068));
#2068 = FILL_AREA_STYLE_COLOUR('',#1927);
#2069 = STYLED_ITEM('color',(#2070),#1186);
#2070 = PRESENTATION_STYLE_ASSIGNMENT((#2071));
#2071 = SURFACE_STYLE_USAGE(.BOTH.,#2072);
#2072 = SURFACE_SIDE_STYLE('',(#2073));
#2073 = SURFACE_STYLE_FILL_AREA(#2074);
#2074 = FILL_AREA_STYLE('',(#2075));
#2075 = FILL_AREA_STYLE_COLOUR('',#1927);
#2076 = STYLED_ITEM('color',(#2077),#1208);
#2077 = PRESENTATION_STYLE_ASSIGNMENT((#2078));
#2078 = SURFACE_STYLE_USAGE(.BOTH.,#2079);
#2079 = SURFACE_SIDE_STYLE('',(#2080));
#2080 = SURFACE_STYLE_FILL_AREA(#2081);
#2081 = FILL_AREA_STYLE('',(#2082));
#2082 = FILL_AREA_STYLE_COLOUR('',#1927);
#2083 = STYLED_ITEM('color',(#2084),#1232);
#2084 = PRESENTATION_STYLE_ASSIGNMENT((#2085));
#2085 = SURFACE_STYLE_USAGE(.BOTH.,#2086);
#2086 = SURFACE_SIDE_STYLE('',(#2087));
#2087 = SURFACE_STYLE_FILL_AREA(#2088);
#2088 = FILL_AREA_STYLE('',(#2089));
#2089 = FILL_AREA_STYLE_COLOUR('',#1927);
#2090 = STYLED_ITEM('color',(#2091),#1256);
#2091 = PRESENTATION_STYLE_ASSIGNMENT((#2092));
#2092 = SURFACE_STYLE_USAGE(.BOTH.,#2093);
#2093 = SURFACE_SIDE_STYLE('',(#2094));
#2094 = SURFACE_STYLE_FILL_AREA(#2095);
#2095 = FILL_AREA_STYLE('',(#2096));
#2096 = FILL_AREA_STYLE_COLOUR('',#1927);
#2097 = STYLED_ITEM('color',(#2098),#1280);
#2098 = PRESENTATION_STYLE_ASSIGNMENT((#2099));
#2099 = SURFACE_STYLE_USAGE(.BOTH.,#2100);
#2100 = SURFACE_SIDE_STYLE('',(#2101));
#2101 = SURFACE_STYLE_FILL_AREA(#2102);
#2102 = FILL_AREA_STYLE('',(#2103));
#2103 = FILL_AREA_STYLE_COLOUR('',#1927);
#2104 = STYLED_ITEM('color',(#2105),#1304);
#2105 = PRESENTATION_STYLE_ASSIGNMENT((#2106));
#2106 = SURFACE_STYLE_USAGE(.BOTH.,#2107);
#2107 = SURFACE_SIDE_STYLE('',(#2108));
#2108 = SURFACE_STYLE_FILL_AREA(#2109);
#2109 = FILL_AREA_STYLE('',(#2110));
#2110 = FILL_AREA_STYLE_COLOUR('',#1927);
#2111 = STYLED_ITEM('color',(#2112),#1324);
#2112 = PRESENTATION_STYLE_ASSIGNMENT((#2113));
#2113 = SURFACE_STYLE_USAGE(.BOTH.,#2114);
#2114 = SURFACE_SIDE_STYLE('',(#2115));
#2115 = SURFACE_STYLE_FILL_AREA(#2116);
#2116 = FILL_AREA_STYLE('',(#2117));
#2117 = FILL_AREA_STYLE_COLOUR('',#1927);
#2118 = MECHANICAL_DESIGN_GEOMETRIC_PRESENTATION_REPRESENTATION('',(
    #2119,#2126,#2133,#2140,#2147,#2154,#2161,#2168,#2175,#2182,#2189,
    #2196,#2203,#2210),#903);
#2119 = STYLED_ITEM('color',(#2120),#483);
#2120 = PRESENTATION_STYLE_ASSIGNMENT((#2121));
#2121 = SURFACE_STYLE_USAGE(.BOTH.,#2122);
#2122 = SURFACE_SIDE_STYLE('',(#2123));
#2123 = SURFACE_STYLE_FILL_AREA(#2124);
#2124 = FILL_AREA_STYLE('',(#2125));
#2125 = FILL_AREA_STYLE_COLOUR('',#1927);
#2126 = STYLED_ITEM('color',(#2127),#523);
#2127 = PRESENTATION_STYLE_ASSIGNMENT((#2128));
#2128 = SURFACE_STYLE_USAGE(.BOTH.,#2129);
#2129 = SURFACE_SIDE_STYLE('',(#2130));
#2130 = SURFACE_STYLE_FILL_AREA(#2131);
#2131 = FILL_AREA_STYLE('',(#2132));
#2132 = FILL_AREA_STYLE_COLOUR('',#1927);
#2133 = STYLED_ITEM('color',(#2134),#554);
#2134 = PRESENTATION_STYLE_ASSIGNMENT((#2135));
#2135 = SURFACE_STYLE_USAGE(.BOTH.,#2136);
#2136 = SURFACE_SIDE_STYLE('',(#2137));
#2137 = SURFACE_STYLE_FILL_AREA(#2138);
#2138 = FILL_AREA_STYLE('',(#2139));
#2139 = FILL_AREA_STYLE_COLOUR('',#1927);
#2140 = STYLED_ITEM('color',(#2141),#585);
#2141 = PRESENTATION_STYLE_ASSIGNMENT((#2142));
#2142 = SURFACE_STYLE_USAGE(.BOTH.,#2143);
#2143 = SURFACE_SIDE_STYLE('',(#2144));
#2144 = SURFACE_STYLE_FILL_AREA(#2145);
#2145 = FILL_AREA_STYLE('',(#2146));
#2146 = FILL_AREA_STYLE_COLOUR('',#1927);
#2147 = STYLED_ITEM('color',(#2148),#625);
#2148 = PRESENTATION_STYLE_ASSIGNMENT((#2149));
#2149 = SURFACE_STYLE_USAGE(.BOTH.,#2150);
#2150 = SURFACE_SIDE_STYLE('',(#2151));
#2151 = SURFACE_STYLE_FILL_AREA(#2152);
#2152 = FILL_AREA_STYLE('',(#2153));
#2153 = FILL_AREA_STYLE_COLOUR('',#1927);
#2154 = STYLED_ITEM('color',(#2155),#665);
#2155 = PRESENTATION_STYLE_ASSIGNMENT((#2156));
#2156 = SURFACE_STYLE_USAGE(.BOTH.,#2157);
#2157 = SURFACE_SIDE_STYLE('',(#2158));
#2158 = SURFACE_STYLE_FILL_AREA(#2159);
#2159 = FILL_AREA_STYLE('',(#2160));
#2160 = FILL_AREA_STYLE_COLOUR('',#1927);
#2161 = STYLED_ITEM('color',(#2162),#705);
#2162 = PRESENTATION_STYLE_ASSIGNMENT((#2163));
#2163 = SURFACE_STYLE_USAGE(.BOTH.,#2164);
#2164 = SURFACE_SIDE_STYLE('',(#2165));
#2165 = SURFACE_STYLE_FILL_AREA(#2166);
#2166 = FILL_AREA_STYLE('',(#2167));
#2167 = FILL_AREA_STYLE_COLOUR('',#1927);
#2168 = STYLED_ITEM('color',(#2169),#745);
#2169 = PRESENTATION_STYLE_ASSIGNMENT((#2170));
#2170 = SURFACE_STYLE_USAGE(.BOTH.,#2171);
#2171 = SURFACE_SIDE_STYLE('',(#2172));
#2172 = SURFACE_STYLE_FILL_AREA(#2173);
#2173 = FILL_AREA_STYLE('',(#2174));
#2174 = FILL_AREA_STYLE_COLOUR('',#1927);
#2175 = STYLED_ITEM('color',(#2176),#767);
#2176 = PRESENTATION_STYLE_ASSIGNMENT((#2177));
#2177 = SURFACE_STYLE_USAGE(.BOTH.,#2178);
#2178 = SURFACE_SIDE_STYLE('',(#2179));
#2179 = SURFACE_STYLE_FILL_AREA(#2180);
#2180 = FILL_AREA_STYLE('',(#2181));
#2181 = FILL_AREA_STYLE_COLOUR('',#1927);
#2182 = STYLED_ITEM('color',(#2183),#791);
#2183 = PRESENTATION_STYLE_ASSIGNMENT((#2184));
#2184 = SURFACE_STYLE_USAGE(.BOTH.,#2185);
#2185 = SURFACE_SIDE_STYLE('',(#2186));
#2186 = SURFACE_STYLE_FILL_AREA(#2187);
#2187 = FILL_AREA_STYLE('',(#2188));
#2188 = FILL_AREA_STYLE_COLOUR('',#1927);
#2189 = STYLED_ITEM('color',(#2190),#815);
#2190 = PRESENTATION_STYLE_ASSIGNMENT((#2191));
#2191 = SURFACE_STYLE_USAGE(.BOTH.,#2192);
#2192 = SURFACE_SIDE_STYLE('',(#2193));
#2193 = SURFACE_STYLE_FILL_AREA(#2194);
#2194 = FILL_AREA_STYLE('',(#2195));
#2195 = FILL_AREA_STYLE_COLOUR('',#1927);
#2196 = STYLED_ITEM('color',(#2197),#839);
#2197 = PRESENTATION_STYLE_ASSIGNMENT((#2198));
#2198 = SURFACE_STYLE_USAGE(.BOTH.,#2199);
#2199 = SURFACE_SIDE_STYLE('',(#2200));
#2200 = SURFACE_STYLE_FILL_AREA(#2201);
#2201 = FILL_AREA_STYLE('',(#2202));
#2202 = FILL_AREA_STYLE_COLOUR('',#1927);
#2203 = STYLED_ITEM('color',(#2204),#863);
#2204 = PRESENTATION_STYLE_ASSIGNMENT((#2205));
#2205 = SURFACE_STYLE_USAGE(.BOTH.,#2206);
#2206 = SURFACE_SIDE_STYLE('',(#2207));
#2207 = SURFACE_STYLE_FILL_AREA(#2208);
#2208 = FILL_AREA_STYLE('',(#2209));
#2209 = FILL_AREA_STYLE_COLOUR('',#1927);
#2210 = STYLED_ITEM('color',(#2211),#883);
#2211 = PRESENTATION_STYLE_ASSIGNMENT((#2212));
#2212 = SURFACE_STYLE_USAGE(.BOTH.,#2213);
#2213 = SURFACE_SIDE_STYLE('',(#2214));
#2214 = SURFACE_STYLE_FILL_AREA(#2215);
#2215 = FILL_AREA_STYLE('',(#2216));
#2216 = FILL_AREA_STYLE_COLOUR('',#1927);
ENDSEC;
END-ISO-10303-21;
