ISO-10303-21;
HEADER;
FILE_DESCRIPTION(('FreeCAD Model'),'2;1');
FILE_NAME('Open CASCADE Shape Model','2025-10-24T17:39:08',(''),(''),
  'Open CASCADE STEP processor 7.8','FreeCAD','Unknown');
FILE_SCHEMA(('AUTOMOTIVE_DESIGN { 1 0 10303 214 1 1 1 1 }'));
ENDSEC;
DATA;
#1 = APPLICATION_PROTOCOL_DEFINITION('international standard',
  'automotive_design',2000,#2);
#2 = APPLICATION_CONTEXT(
  'core data for automotive mechanical design processes');
#3 = SHAPE_DEFINITION_REPRESENTATION(#4,#10);
#4 = PRODUCT_DEFINITION_SHAPE('','',#5);
#5 = PRODUCT_DEFINITION('design','',#6,#9);
#6 = PRODUCT_DEFINITION_FORMATION('','',#7);
#7 = PRODUCT('Body002','Body002','',(#8));
#8 = PRODUCT_CONTEXT('',#2,'mechanical');
#9 = PRODUCT_DEFINITION_CONTEXT('part definition',#2,'design');
#10 = ADVANCED_BREP_SHAPE_REPRESENTATION('',(#11,#15),#1653);
#11 = AXIS2_PLACEMENT_3D('',#12,#13,#14);
#12 = CARTESIAN_POINT('',(0.,0.,0.));
#13 = DIRECTION('',(0.,0.,1.));
#14 = DIRECTION('',(1.,0.,-0.));
#15 = MANIFOLD_SOLID_BREP('',#16);
#16 = CLOSED_SHELL('',(#17,#57,#88,#119,#506,#893,#910,#927,#944,#961,
    #978,#995,#1012,#1029,#1041,#1063,#1080,#1097,#1109,#1131,#1148,
    #1165,#1177,#1199,#1216,#1233,#1245,#1267,#1284,#1301,#1313,#1335,
    #1352,#1369,#1381,#1403,#1420,#1437,#1449,#1471,#1488,#1505,#1517,
    #1539,#1556,#1573,#1585,#1607,#1624,#1641));
#17 = ADVANCED_FACE('',(#18),#52,.F.);
#18 = FACE_BOUND('',#19,.F.);
#19 = EDGE_LOOP('',(#20,#30,#38,#46));
#20 = ORIENTED_EDGE('',*,*,#21,.T.);
#21 = EDGE_CURVE('',#22,#24,#26,.T.);
#22 = VERTEX_POINT('',#23);
#23 = CARTESIAN_POINT('',(-48.,1.,59.4));
#24 = VERTEX_POINT('',#25);
#25 = CARTESIAN_POINT('',(-48.,-1.,59.4));
#26 = LINE('',#27,#28);
#27 = CARTESIAN_POINT('',(-48.,1.,59.4));
#28 = VECTOR('',#29,1.);
#29 = DIRECTION('',(0.,-1.,4.4E-16));
#30 = ORIENTED_EDGE('',*,*,#31,.T.);
#31 = EDGE_CURVE('',#24,#32,#34,.T.);
#32 = VERTEX_POINT('',#33);
#33 = CARTESIAN_POINT('',(-48.,-1.,1.E-15));
#34 = LINE('',#35,#36);
#35 = CARTESIAN_POINT('',(-48.,-1.,59.4));
#36 = VECTOR('',#37,1.);
#37 = DIRECTION('',(0.,0.,-1.));
#38 = ORIENTED_EDGE('',*,*,#39,.F.);
#39 = EDGE_CURVE('',#40,#32,#42,.T.);
#40 = VERTEX_POINT('',#41);
#41 = CARTESIAN_POINT('',(-48.,1.,0.));
#42 = LINE('',#43,#44);
#43 = CARTESIAN_POINT('',(-48.,1.,-4.4E-16));
#44 = VECTOR('',#45,1.);
#45 = DIRECTION('',(0.,-1.,4.4E-16));
#46 = ORIENTED_EDGE('',*,*,#47,.F.);
#47 = EDGE_CURVE('',#22,#40,#48,.T.);
#48 = LINE('',#49,#50);
#49 = CARTESIAN_POINT('',(-48.,1.,59.4));
#50 = VECTOR('',#51,1.);
#51 = DIRECTION('',(0.,0.,-1.));
#52 = PLANE('',#53);
#53 = AXIS2_PLACEMENT_3D('',#54,#55,#56);
#54 = CARTESIAN_POINT('',(-48.,1.,59.4));
#55 = DIRECTION('',(1.,0.,0.));
#56 = DIRECTION('',(0.,-4.4E-16,-1.));
#57 = ADVANCED_FACE('',(#58),#83,.T.);
#58 = FACE_BOUND('',#59,.T.);
#59 = EDGE_LOOP('',(#60,#61,#69,#77));
#60 = ORIENTED_EDGE('',*,*,#21,.T.);
#61 = ORIENTED_EDGE('',*,*,#62,.T.);
#62 = EDGE_CURVE('',#24,#63,#65,.T.);
#63 = VERTEX_POINT('',#64);
#64 = CARTESIAN_POINT('',(-0.9,-1.,59.4));
#65 = LINE('',#66,#67);
#66 = CARTESIAN_POINT('',(-48.,-1.,59.4));
#67 = VECTOR('',#68,1.);
#68 = DIRECTION('',(1.,0.,0.));
#69 = ORIENTED_EDGE('',*,*,#70,.F.);
#70 = EDGE_CURVE('',#71,#63,#73,.T.);
#71 = VERTEX_POINT('',#72);
#72 = CARTESIAN_POINT('',(-0.9,1.,59.4));
#73 = LINE('',#74,#75);
#74 = CARTESIAN_POINT('',(-0.9,1.,59.4));
#75 = VECTOR('',#76,1.);
#76 = DIRECTION('',(0.,-1.,4.4E-16));
#77 = ORIENTED_EDGE('',*,*,#78,.F.);
#78 = EDGE_CURVE('',#22,#71,#79,.T.);
#79 = LINE('',#80,#81);
#80 = CARTESIAN_POINT('',(-48.,1.,59.4));
#81 = VECTOR('',#82,1.);
#82 = DIRECTION('',(1.,0.,0.));
#83 = PLANE('',#84);
#84 = AXIS2_PLACEMENT_3D('',#85,#86,#87);
#85 = CARTESIAN_POINT('',(-48.,1.,59.4));
#86 = DIRECTION('',(0.,4.4E-16,1.));
#87 = DIRECTION('',(1.,0.,0.));
#88 = ADVANCED_FACE('',(#89),#114,.F.);
#89 = FACE_BOUND('',#90,.F.);
#90 = EDGE_LOOP('',(#91,#92,#100,#108));
#91 = ORIENTED_EDGE('',*,*,#39,.T.);
#92 = ORIENTED_EDGE('',*,*,#93,.T.);
#93 = EDGE_CURVE('',#32,#94,#96,.T.);
#94 = VERTEX_POINT('',#95);
#95 = CARTESIAN_POINT('',(-0.9,-1.,1.E-15));
#96 = LINE('',#97,#98);
#97 = CARTESIAN_POINT('',(-48.,-1.,9.992007221626E-16));
#98 = VECTOR('',#99,1.);
#99 = DIRECTION('',(1.,0.,0.));
#100 = ORIENTED_EDGE('',*,*,#101,.F.);
#101 = EDGE_CURVE('',#102,#94,#104,.T.);
#102 = VERTEX_POINT('',#103);
#103 = CARTESIAN_POINT('',(-0.9,1.,0.));
#104 = LINE('',#105,#106);
#105 = CARTESIAN_POINT('',(-0.9,1.,-4.4E-16));
#106 = VECTOR('',#107,1.);
#107 = DIRECTION('',(0.,-1.,4.4E-16));
#108 = ORIENTED_EDGE('',*,*,#109,.F.);
#109 = EDGE_CURVE('',#40,#102,#110,.T.);
#110 = LINE('',#111,#112);
#111 = CARTESIAN_POINT('',(-48.,1.,0.));
#112 = VECTOR('',#113,1.);
#113 = DIRECTION('',(1.,0.,0.));
#114 = PLANE('',#115);
#115 = AXIS2_PLACEMENT_3D('',#116,#117,#118);
#116 = CARTESIAN_POINT('',(-48.,1.,-4.4E-16));
#117 = DIRECTION('',(0.,4.4E-16,1.));
#118 = DIRECTION('',(1.,0.,0.));
#119 = ADVANCED_FACE('',(#120,#195,#229,#263,#297,#331,#365,#399,#433,
    #467),#501,.T.);
#120 = FACE_BOUND('',#121,.T.);
#121 = EDGE_LOOP('',(#122,#123,#124,#132,#140,#148,#156,#164,#172,#180,
    #188,#194));
#122 = ORIENTED_EDGE('',*,*,#47,.F.);
#123 = ORIENTED_EDGE('',*,*,#78,.T.);
#124 = ORIENTED_EDGE('',*,*,#125,.T.);
#125 = EDGE_CURVE('',#71,#126,#128,.T.);
#126 = VERTEX_POINT('',#127);
#127 = CARTESIAN_POINT('',(-0.9,1.,57.3));
#128 = LINE('',#129,#130);
#129 = CARTESIAN_POINT('',(-0.9,1.,59.4));
#130 = VECTOR('',#131,1.);
#131 = DIRECTION('',(0.,0.,-1.));
#132 = ORIENTED_EDGE('',*,*,#133,.T.);
#133 = EDGE_CURVE('',#126,#134,#136,.T.);
#134 = VERTEX_POINT('',#135);
#135 = CARTESIAN_POINT('',(0.9,1.,57.3));
#136 = LINE('',#137,#138);
#137 = CARTESIAN_POINT('',(-0.9,1.,57.3));
#138 = VECTOR('',#139,1.);
#139 = DIRECTION('',(1.,0.,0.));
#140 = ORIENTED_EDGE('',*,*,#141,.T.);
#141 = EDGE_CURVE('',#134,#142,#144,.T.);
#142 = VERTEX_POINT('',#143);
#143 = CARTESIAN_POINT('',(0.9,1.,59.4));
#144 = LINE('',#145,#146);
#145 = CARTESIAN_POINT('',(0.9,1.,57.3));
#146 = VECTOR('',#147,1.);
#147 = DIRECTION('',(0.,0.,1.));
#148 = ORIENTED_EDGE('',*,*,#149,.T.);
#149 = EDGE_CURVE('',#142,#150,#152,.T.);
#150 = VERTEX_POINT('',#151);
#151 = CARTESIAN_POINT('',(48.,1.,59.4));
#152 = LINE('',#153,#154);
#153 = CARTESIAN_POINT('',(0.9,1.,59.4));
#154 = VECTOR('',#155,1.);
#155 = DIRECTION('',(1.,0.,0.));
#156 = ORIENTED_EDGE('',*,*,#157,.F.);
#157 = EDGE_CURVE('',#158,#150,#160,.T.);
#158 = VERTEX_POINT('',#159);
#159 = CARTESIAN_POINT('',(48.,1.,0.));
#160 = LINE('',#161,#162);
#161 = CARTESIAN_POINT('',(48.,1.,0.));
#162 = VECTOR('',#163,1.);
#163 = DIRECTION('',(0.,0.,1.));
#164 = ORIENTED_EDGE('',*,*,#165,.F.);
#165 = EDGE_CURVE('',#166,#158,#168,.T.);
#166 = VERTEX_POINT('',#167);
#167 = CARTESIAN_POINT('',(0.9,1.,0.));
#168 = LINE('',#169,#170);
#169 = CARTESIAN_POINT('',(0.9,1.,0.));
#170 = VECTOR('',#171,1.);
#171 = DIRECTION('',(1.,0.,0.));
#172 = ORIENTED_EDGE('',*,*,#173,.F.);
#173 = EDGE_CURVE('',#174,#166,#176,.T.);
#174 = VERTEX_POINT('',#175);
#175 = CARTESIAN_POINT('',(0.9,1.,2.1));
#176 = LINE('',#177,#178);
#177 = CARTESIAN_POINT('',(0.9,1.,2.1));
#178 = VECTOR('',#179,1.);
#179 = DIRECTION('',(0.,0.,-1.));
#180 = ORIENTED_EDGE('',*,*,#181,.F.);
#181 = EDGE_CURVE('',#182,#174,#184,.T.);
#182 = VERTEX_POINT('',#183);
#183 = CARTESIAN_POINT('',(-0.9,1.,2.1));
#184 = LINE('',#185,#186);
#185 = CARTESIAN_POINT('',(-0.9,1.,2.1));
#186 = VECTOR('',#187,1.);
#187 = DIRECTION('',(1.,0.,0.));
#188 = ORIENTED_EDGE('',*,*,#189,.F.);
#189 = EDGE_CURVE('',#102,#182,#190,.T.);
#190 = LINE('',#191,#192);
#191 = CARTESIAN_POINT('',(-0.9,1.,0.));
#192 = VECTOR('',#193,1.);
#193 = DIRECTION('',(0.,0.,1.));
#194 = ORIENTED_EDGE('',*,*,#109,.F.);
#195 = FACE_BOUND('',#196,.T.);
#196 = EDGE_LOOP('',(#197,#207,#215,#223));
#197 = ORIENTED_EDGE('',*,*,#198,.T.);
#198 = EDGE_CURVE('',#199,#201,#203,.T.);
#199 = VERTEX_POINT('',#200);
#200 = CARTESIAN_POINT('',(-31.5,1.,9.));
#201 = VERTEX_POINT('',#202);
#202 = CARTESIAN_POINT('',(-23.5,1.,9.));
#203 = LINE('',#204,#205);
#204 = CARTESIAN_POINT('',(-11.75,1.,9.));
#205 = VECTOR('',#206,1.);
#206 = DIRECTION('',(1.,0.,0.));
#207 = ORIENTED_EDGE('',*,*,#208,.T.);
#208 = EDGE_CURVE('',#201,#209,#211,.T.);
#209 = VERTEX_POINT('',#210);
#210 = CARTESIAN_POINT('',(-23.5,1.,18.2));
#211 = LINE('',#212,#213);
#212 = CARTESIAN_POINT('',(-23.5,1.,23.95));
#213 = VECTOR('',#214,1.);
#214 = DIRECTION('',(0.,0.,1.));
#215 = ORIENTED_EDGE('',*,*,#216,.F.);
#216 = EDGE_CURVE('',#217,#209,#219,.T.);
#217 = VERTEX_POINT('',#218);
#218 = CARTESIAN_POINT('',(-31.5,1.,18.2));
#219 = LINE('',#220,#221);
#220 = CARTESIAN_POINT('',(-11.75,1.,18.2));
#221 = VECTOR('',#222,1.);
#222 = DIRECTION('',(1.,0.,0.));
#223 = ORIENTED_EDGE('',*,*,#224,.F.);
#224 = EDGE_CURVE('',#199,#217,#225,.T.);
#225 = LINE('',#226,#227);
#226 = CARTESIAN_POINT('',(-31.5,1.,23.95));
#227 = VECTOR('',#228,1.);
#228 = DIRECTION('',(0.,0.,1.));
#229 = FACE_BOUND('',#230,.T.);
#230 = EDGE_LOOP('',(#231,#241,#249,#257));
#231 = ORIENTED_EDGE('',*,*,#232,.F.);
#232 = EDGE_CURVE('',#233,#235,#237,.T.);
#233 = VERTEX_POINT('',#234);
#234 = CARTESIAN_POINT('',(16.7,1.,18.8));
#235 = VERTEX_POINT('',#236);
#236 = CARTESIAN_POINT('',(16.7,1.,10.8));
#237 = LINE('',#238,#239);
#238 = CARTESIAN_POINT('',(16.7,1.,20.25));
#239 = VECTOR('',#240,1.);
#240 = DIRECTION('',(0.,0.,-1.));
#241 = ORIENTED_EDGE('',*,*,#242,.F.);
#242 = EDGE_CURVE('',#243,#233,#245,.T.);
#243 = VERTEX_POINT('',#244);
#244 = CARTESIAN_POINT('',(0.,1.,18.8));
#245 = LINE('',#246,#247);
#246 = CARTESIAN_POINT('',(8.35,1.,18.8));
#247 = VECTOR('',#248,1.);
#248 = DIRECTION('',(1.,0.,0.));
#249 = ORIENTED_EDGE('',*,*,#250,.F.);
#250 = EDGE_CURVE('',#251,#243,#253,.T.);
#251 = VERTEX_POINT('',#252);
#252 = CARTESIAN_POINT('',(0.,1.,10.8));
#253 = LINE('',#254,#255);
#254 = CARTESIAN_POINT('',(0.,1.,24.25));
#255 = VECTOR('',#256,1.);
#256 = DIRECTION('',(0.,0.,1.));
#257 = ORIENTED_EDGE('',*,*,#258,.F.);
#258 = EDGE_CURVE('',#235,#251,#259,.T.);
#259 = LINE('',#260,#261);
#260 = CARTESIAN_POINT('',(-5.E-17,1.,10.8));
#261 = VECTOR('',#262,1.);
#262 = DIRECTION('',(-1.,0.,0.));
#263 = FACE_BOUND('',#264,.T.);
#264 = EDGE_LOOP('',(#265,#275,#283,#291));
#265 = ORIENTED_EDGE('',*,*,#266,.F.);
#266 = EDGE_CURVE('',#267,#269,#271,.T.);
#267 = VERTEX_POINT('',#268);
#268 = CARTESIAN_POINT('',(16.699999999999,1.,30.1));
#269 = VERTEX_POINT('',#270);
#270 = CARTESIAN_POINT('',(16.699999999999,1.,22.1));
#271 = LINE('',#272,#273);
#272 = CARTESIAN_POINT('',(16.699999999999,1.,25.9));
#273 = VECTOR('',#274,1.);
#274 = DIRECTION('',(0.,0.,-1.));
#275 = ORIENTED_EDGE('',*,*,#276,.F.);
#276 = EDGE_CURVE('',#277,#267,#279,.T.);
#277 = VERTEX_POINT('',#278);
#278 = CARTESIAN_POINT('',(-1.06581410364E-14,1.,30.1));
#279 = LINE('',#280,#281);
#280 = CARTESIAN_POINT('',(8.349999999999,1.,30.1));
#281 = VECTOR('',#282,1.);
#282 = DIRECTION('',(1.,0.,0.));
#283 = ORIENTED_EDGE('',*,*,#284,.F.);
#284 = EDGE_CURVE('',#285,#277,#287,.T.);
#285 = VERTEX_POINT('',#286);
#286 = CARTESIAN_POINT('',(-1.06581410364E-14,1.,22.1));
#287 = LINE('',#288,#289);
#288 = CARTESIAN_POINT('',(-1.06581410364E-14,1.,29.9));
#289 = VECTOR('',#290,1.);
#290 = DIRECTION('',(0.,0.,1.));
#291 = ORIENTED_EDGE('',*,*,#292,.F.);
#292 = EDGE_CURVE('',#269,#285,#293,.T.);
#293 = LINE('',#294,#295);
#294 = CARTESIAN_POINT('',(3.908303480332E-14,1.,22.1));
#295 = VECTOR('',#296,1.);
#296 = DIRECTION('',(-1.,0.,-1.170055403198E-14));
#297 = FACE_BOUND('',#298,.T.);
#298 = EDGE_LOOP('',(#299,#309,#317,#325));
#299 = ORIENTED_EDGE('',*,*,#300,.F.);
#300 = EDGE_CURVE('',#301,#303,#305,.T.);
#301 = VERTEX_POINT('',#302);
#302 = CARTESIAN_POINT('',(39.6,1.,18.8));
#303 = VERTEX_POINT('',#304);
#304 = CARTESIAN_POINT('',(39.6,1.,10.8));
#305 = LINE('',#306,#307);
#306 = CARTESIAN_POINT('',(39.6,1.,20.25));
#307 = VECTOR('',#308,1.);
#308 = DIRECTION('',(0.,0.,-1.));
#309 = ORIENTED_EDGE('',*,*,#310,.F.);
#310 = EDGE_CURVE('',#311,#301,#313,.T.);
#311 = VERTEX_POINT('',#312);
#312 = CARTESIAN_POINT('',(22.9,1.,18.8));
#313 = LINE('',#314,#315);
#314 = CARTESIAN_POINT('',(19.8,1.,18.8));
#315 = VECTOR('',#316,1.);
#316 = DIRECTION('',(1.,0.,0.));
#317 = ORIENTED_EDGE('',*,*,#318,.F.);
#318 = EDGE_CURVE('',#319,#311,#321,.T.);
#319 = VERTEX_POINT('',#320);
#320 = CARTESIAN_POINT('',(22.9,1.,10.8));
#321 = LINE('',#322,#323);
#322 = CARTESIAN_POINT('',(22.9,1.,24.25));
#323 = VECTOR('',#324,1.);
#324 = DIRECTION('',(0.,0.,1.));
#325 = ORIENTED_EDGE('',*,*,#326,.F.);
#326 = EDGE_CURVE('',#303,#319,#327,.T.);
#327 = LINE('',#328,#329);
#328 = CARTESIAN_POINT('',(11.45,1.,10.8));
#329 = VECTOR('',#330,1.);
#330 = DIRECTION('',(-1.,0.,0.));
#331 = FACE_BOUND('',#332,.T.);
#332 = EDGE_LOOP('',(#333,#343,#351,#359));
#333 = ORIENTED_EDGE('',*,*,#334,.F.);
#334 = EDGE_CURVE('',#335,#337,#339,.T.);
#335 = VERTEX_POINT('',#336);
#336 = CARTESIAN_POINT('',(39.6,1.,30.1));
#337 = VERTEX_POINT('',#338);
#338 = CARTESIAN_POINT('',(39.6,1.,22.1));
#339 = LINE('',#340,#341);
#340 = CARTESIAN_POINT('',(39.6,1.,25.9));
#341 = VECTOR('',#342,1.);
#342 = DIRECTION('',(0.,0.,-1.));
#343 = ORIENTED_EDGE('',*,*,#344,.F.);
#344 = EDGE_CURVE('',#345,#335,#347,.T.);
#345 = VERTEX_POINT('',#346);
#346 = CARTESIAN_POINT('',(22.9,1.,30.1));
#347 = LINE('',#348,#349);
#348 = CARTESIAN_POINT('',(19.8,1.,30.1));
#349 = VECTOR('',#350,1.);
#350 = DIRECTION('',(1.,0.,0.));
#351 = ORIENTED_EDGE('',*,*,#352,.F.);
#352 = EDGE_CURVE('',#353,#345,#355,.T.);
#353 = VERTEX_POINT('',#354);
#354 = CARTESIAN_POINT('',(22.9,1.,22.1));
#355 = LINE('',#356,#357);
#356 = CARTESIAN_POINT('',(22.9,1.,29.9));
#357 = VECTOR('',#358,1.);
#358 = DIRECTION('',(0.,0.,1.));
#359 = ORIENTED_EDGE('',*,*,#360,.F.);
#360 = EDGE_CURVE('',#337,#353,#361,.T.);
#361 = LINE('',#362,#363);
#362 = CARTESIAN_POINT('',(11.45,1.,22.1));
#363 = VECTOR('',#364,1.);
#364 = DIRECTION('',(-1.,0.,0.));
#365 = FACE_BOUND('',#366,.T.);
#366 = EDGE_LOOP('',(#367,#377,#385,#393));
#367 = ORIENTED_EDGE('',*,*,#368,.F.);
#368 = EDGE_CURVE('',#369,#371,#373,.T.);
#369 = VERTEX_POINT('',#370);
#370 = CARTESIAN_POINT('',(16.699999999999,1.,41.4));
#371 = VERTEX_POINT('',#372);
#372 = CARTESIAN_POINT('',(16.699999999999,1.,33.4));
#373 = LINE('',#374,#375);
#374 = CARTESIAN_POINT('',(16.699999999999,1.,31.55));
#375 = VECTOR('',#376,1.);
#376 = DIRECTION('',(0.,0.,-1.));
#377 = ORIENTED_EDGE('',*,*,#378,.F.);
#378 = EDGE_CURVE('',#379,#369,#381,.T.);
#379 = VERTEX_POINT('',#380);
#380 = CARTESIAN_POINT('',(6.394884621841E-14,1.,41.4));
#381 = LINE('',#382,#383);
#382 = CARTESIAN_POINT('',(8.349999999999,1.,41.4));
#383 = VECTOR('',#384,1.);
#384 = DIRECTION('',(1.,0.,0.));
#385 = ORIENTED_EDGE('',*,*,#386,.F.);
#386 = EDGE_CURVE('',#387,#379,#389,.T.);
#387 = VERTEX_POINT('',#388);
#388 = CARTESIAN_POINT('',(6.394884621841E-14,1.,33.4));
#389 = LINE('',#390,#391);
#390 = CARTESIAN_POINT('',(6.394884621841E-14,1.,35.55));
#391 = VECTOR('',#392,1.);
#392 = DIRECTION('',(0.,0.,1.));
#393 = ORIENTED_EDGE('',*,*,#394,.F.);
#394 = EDGE_CURVE('',#371,#387,#395,.T.);
#395 = LINE('',#396,#397);
#396 = CARTESIAN_POINT('',(9.884834059878E-15,1.,33.4));
#397 = VECTOR('',#398,1.);
#398 = DIRECTION('',(-1.,0.,-1.191329137801E-14));
#399 = FACE_BOUND('',#400,.T.);
#400 = EDGE_LOOP('',(#401,#411,#419,#427));
#401 = ORIENTED_EDGE('',*,*,#402,.F.);
#402 = EDGE_CURVE('',#403,#405,#407,.T.);
#403 = VERTEX_POINT('',#404);
#404 = CARTESIAN_POINT('',(16.7,1.,52.7));
#405 = VERTEX_POINT('',#406);
#406 = CARTESIAN_POINT('',(16.7,1.,44.7));
#407 = LINE('',#408,#409);
#408 = CARTESIAN_POINT('',(16.7,1.,37.2));
#409 = VECTOR('',#410,1.);
#410 = DIRECTION('',(0.,0.,-1.));
#411 = ORIENTED_EDGE('',*,*,#412,.F.);
#412 = EDGE_CURVE('',#413,#403,#415,.T.);
#413 = VERTEX_POINT('',#414);
#414 = CARTESIAN_POINT('',(0.,1.,52.7));
#415 = LINE('',#416,#417);
#416 = CARTESIAN_POINT('',(8.35,1.,52.7));
#417 = VECTOR('',#418,1.);
#418 = DIRECTION('',(1.,0.,0.));
#419 = ORIENTED_EDGE('',*,*,#420,.F.);
#420 = EDGE_CURVE('',#421,#413,#423,.T.);
#421 = VERTEX_POINT('',#422);
#422 = CARTESIAN_POINT('',(0.,1.,44.7));
#423 = LINE('',#424,#425);
#424 = CARTESIAN_POINT('',(0.,1.,41.2));
#425 = VECTOR('',#426,1.);
#426 = DIRECTION('',(0.,0.,1.));
#427 = ORIENTED_EDGE('',*,*,#428,.F.);
#428 = EDGE_CURVE('',#405,#421,#429,.T.);
#429 = LINE('',#430,#431);
#430 = CARTESIAN_POINT('',(-5.E-17,1.,44.7));
#431 = VECTOR('',#432,1.);
#432 = DIRECTION('',(-1.,0.,0.));
#433 = FACE_BOUND('',#434,.T.);
#434 = EDGE_LOOP('',(#435,#445,#453,#461));
#435 = ORIENTED_EDGE('',*,*,#436,.F.);
#436 = EDGE_CURVE('',#437,#439,#441,.T.);
#437 = VERTEX_POINT('',#438);
#438 = CARTESIAN_POINT('',(39.6,1.,41.4));
#439 = VERTEX_POINT('',#440);
#440 = CARTESIAN_POINT('',(39.6,1.,33.4));
#441 = LINE('',#442,#443);
#442 = CARTESIAN_POINT('',(39.6,1.,31.55));
#443 = VECTOR('',#444,1.);
#444 = DIRECTION('',(0.,0.,-1.));
#445 = ORIENTED_EDGE('',*,*,#446,.F.);
#446 = EDGE_CURVE('',#447,#437,#449,.T.);
#447 = VERTEX_POINT('',#448);
#448 = CARTESIAN_POINT('',(22.9,1.,41.4));
#449 = LINE('',#450,#451);
#450 = CARTESIAN_POINT('',(19.8,1.,41.4));
#451 = VECTOR('',#452,1.);
#452 = DIRECTION('',(1.,0.,0.));
#453 = ORIENTED_EDGE('',*,*,#454,.F.);
#454 = EDGE_CURVE('',#455,#447,#457,.T.);
#455 = VERTEX_POINT('',#456);
#456 = CARTESIAN_POINT('',(22.9,1.,33.4));
#457 = LINE('',#458,#459);
#458 = CARTESIAN_POINT('',(22.9,1.,35.55));
#459 = VECTOR('',#460,1.);
#460 = DIRECTION('',(0.,0.,1.));
#461 = ORIENTED_EDGE('',*,*,#462,.F.);
#462 = EDGE_CURVE('',#439,#455,#463,.T.);
#463 = LINE('',#464,#465);
#464 = CARTESIAN_POINT('',(11.45,1.,33.4));
#465 = VECTOR('',#466,1.);
#466 = DIRECTION('',(-1.,0.,0.));
#467 = FACE_BOUND('',#468,.T.);
#468 = EDGE_LOOP('',(#469,#479,#487,#495));
#469 = ORIENTED_EDGE('',*,*,#470,.F.);
#470 = EDGE_CURVE('',#471,#473,#475,.T.);
#471 = VERTEX_POINT('',#472);
#472 = CARTESIAN_POINT('',(39.6,1.,52.700000000001));
#473 = VERTEX_POINT('',#474);
#474 = CARTESIAN_POINT('',(39.6,1.,44.7));
#475 = LINE('',#476,#477);
#476 = CARTESIAN_POINT('',(39.6,1.,37.2));
#477 = VECTOR('',#478,1.);
#478 = DIRECTION('',(0.,0.,-1.));
#479 = ORIENTED_EDGE('',*,*,#480,.F.);
#480 = EDGE_CURVE('',#481,#471,#483,.T.);
#481 = VERTEX_POINT('',#482);
#482 = CARTESIAN_POINT('',(22.9,1.,52.700000000001));
#483 = LINE('',#484,#485);
#484 = CARTESIAN_POINT('',(19.8,1.,52.700000000001));
#485 = VECTOR('',#486,1.);
#486 = DIRECTION('',(1.,0.,0.));
#487 = ORIENTED_EDGE('',*,*,#488,.F.);
#488 = EDGE_CURVE('',#489,#481,#491,.T.);
#489 = VERTEX_POINT('',#490);
#490 = CARTESIAN_POINT('',(22.9,1.,44.7));
#491 = LINE('',#492,#493);
#492 = CARTESIAN_POINT('',(22.9,1.,41.2));
#493 = VECTOR('',#494,1.);
#494 = DIRECTION('',(0.,0.,1.));
#495 = ORIENTED_EDGE('',*,*,#496,.F.);
#496 = EDGE_CURVE('',#473,#489,#497,.T.);
#497 = LINE('',#498,#499);
#498 = CARTESIAN_POINT('',(11.45,1.,44.7));
#499 = VECTOR('',#500,1.);
#500 = DIRECTION('',(-1.,0.,0.));
#501 = PLANE('',#502);
#502 = AXIS2_PLACEMENT_3D('',#503,#504,#505);
#503 = CARTESIAN_POINT('',(-1.E-16,1.,29.7));
#504 = DIRECTION('',(0.,1.,0.));
#505 = DIRECTION('',(0.,0.,1.));
#506 = ADVANCED_FACE('',(#507,#582,#616,#650,#684,#718,#752,#786,#820,
    #854),#888,.F.);
#507 = FACE_BOUND('',#508,.F.);
#508 = EDGE_LOOP('',(#509,#510,#511,#519,#527,#535,#543,#551,#559,#567,
    #575,#581));
#509 = ORIENTED_EDGE('',*,*,#31,.F.);
#510 = ORIENTED_EDGE('',*,*,#62,.T.);
#511 = ORIENTED_EDGE('',*,*,#512,.T.);
#512 = EDGE_CURVE('',#63,#513,#515,.T.);
#513 = VERTEX_POINT('',#514);
#514 = CARTESIAN_POINT('',(-0.9,-1.,57.3));
#515 = LINE('',#516,#517);
#516 = CARTESIAN_POINT('',(-0.9,-1.,59.4));
#517 = VECTOR('',#518,1.);
#518 = DIRECTION('',(0.,0.,-1.));
#519 = ORIENTED_EDGE('',*,*,#520,.T.);
#520 = EDGE_CURVE('',#513,#521,#523,.T.);
#521 = VERTEX_POINT('',#522);
#522 = CARTESIAN_POINT('',(0.9,-1.,57.3));
#523 = LINE('',#524,#525);
#524 = CARTESIAN_POINT('',(-0.9,-1.,57.3));
#525 = VECTOR('',#526,1.);
#526 = DIRECTION('',(1.,0.,0.));
#527 = ORIENTED_EDGE('',*,*,#528,.T.);
#528 = EDGE_CURVE('',#521,#529,#531,.T.);
#529 = VERTEX_POINT('',#530);
#530 = CARTESIAN_POINT('',(0.9,-1.,59.4));
#531 = LINE('',#532,#533);
#532 = CARTESIAN_POINT('',(0.9,-1.,57.3));
#533 = VECTOR('',#534,1.);
#534 = DIRECTION('',(0.,0.,1.));
#535 = ORIENTED_EDGE('',*,*,#536,.T.);
#536 = EDGE_CURVE('',#529,#537,#539,.T.);
#537 = VERTEX_POINT('',#538);
#538 = CARTESIAN_POINT('',(48.,-1.,59.4));
#539 = LINE('',#540,#541);
#540 = CARTESIAN_POINT('',(0.9,-1.,59.4));
#541 = VECTOR('',#542,1.);
#542 = DIRECTION('',(1.,0.,0.));
#543 = ORIENTED_EDGE('',*,*,#544,.F.);
#544 = EDGE_CURVE('',#545,#537,#547,.T.);
#545 = VERTEX_POINT('',#546);
#546 = CARTESIAN_POINT('',(48.,-1.,1.E-15));
#547 = LINE('',#548,#549);
#548 = CARTESIAN_POINT('',(48.,-1.,9.992007221626E-16));
#549 = VECTOR('',#550,1.);
#550 = DIRECTION('',(0.,0.,1.));
#551 = ORIENTED_EDGE('',*,*,#552,.F.);
#552 = EDGE_CURVE('',#553,#545,#555,.T.);
#553 = VERTEX_POINT('',#554);
#554 = CARTESIAN_POINT('',(0.9,-1.,1.E-15));
#555 = LINE('',#556,#557);
#556 = CARTESIAN_POINT('',(0.9,-1.,9.992007221626E-16));
#557 = VECTOR('',#558,1.);
#558 = DIRECTION('',(1.,0.,0.));
#559 = ORIENTED_EDGE('',*,*,#560,.F.);
#560 = EDGE_CURVE('',#561,#553,#563,.T.);
#561 = VERTEX_POINT('',#562);
#562 = CARTESIAN_POINT('',(0.9,-1.,2.1));
#563 = LINE('',#564,#565);
#564 = CARTESIAN_POINT('',(0.9,-1.,2.1));
#565 = VECTOR('',#566,1.);
#566 = DIRECTION('',(0.,0.,-1.));
#567 = ORIENTED_EDGE('',*,*,#568,.F.);
#568 = EDGE_CURVE('',#569,#561,#571,.T.);
#569 = VERTEX_POINT('',#570);
#570 = CARTESIAN_POINT('',(-0.9,-1.,2.1));
#571 = LINE('',#572,#573);
#572 = CARTESIAN_POINT('',(-0.9,-1.,2.1));
#573 = VECTOR('',#574,1.);
#574 = DIRECTION('',(1.,0.,0.));
#575 = ORIENTED_EDGE('',*,*,#576,.F.);
#576 = EDGE_CURVE('',#94,#569,#577,.T.);
#577 = LINE('',#578,#579);
#578 = CARTESIAN_POINT('',(-0.9,-1.,9.992007221626E-16));
#579 = VECTOR('',#580,1.);
#580 = DIRECTION('',(0.,0.,1.));
#581 = ORIENTED_EDGE('',*,*,#93,.F.);
#582 = FACE_BOUND('',#583,.F.);
#583 = EDGE_LOOP('',(#584,#594,#602,#610));
#584 = ORIENTED_EDGE('',*,*,#585,.F.);
#585 = EDGE_CURVE('',#586,#588,#590,.T.);
#586 = VERTEX_POINT('',#587);
#587 = CARTESIAN_POINT('',(-23.5,-1.,18.2));
#588 = VERTEX_POINT('',#589);
#589 = CARTESIAN_POINT('',(-23.5,-1.,9.));
#590 = LINE('',#591,#592);
#591 = CARTESIAN_POINT('',(-23.5,-1.,18.2));
#592 = VECTOR('',#593,1.);
#593 = DIRECTION('',(0.,-2.22044604925E-16,-1.));
#594 = ORIENTED_EDGE('',*,*,#595,.T.);
#595 = EDGE_CURVE('',#586,#596,#598,.T.);
#596 = VERTEX_POINT('',#597);
#597 = CARTESIAN_POINT('',(-31.5,-1.,18.2));
#598 = LINE('',#599,#600);
#599 = CARTESIAN_POINT('',(-23.5,-1.,18.2));
#600 = VECTOR('',#601,1.);
#601 = DIRECTION('',(-1.,0.,0.));
#602 = ORIENTED_EDGE('',*,*,#603,.T.);
#603 = EDGE_CURVE('',#596,#604,#606,.T.);
#604 = VERTEX_POINT('',#605);
#605 = CARTESIAN_POINT('',(-31.5,-1.,9.));
#606 = LINE('',#607,#608);
#607 = CARTESIAN_POINT('',(-31.5,-1.,18.2));
#608 = VECTOR('',#609,1.);
#609 = DIRECTION('',(0.,-2.22044604925E-16,-1.));
#610 = ORIENTED_EDGE('',*,*,#611,.F.);
#611 = EDGE_CURVE('',#588,#604,#612,.T.);
#612 = LINE('',#613,#614);
#613 = CARTESIAN_POINT('',(-23.5,-1.,9.));
#614 = VECTOR('',#615,1.);
#615 = DIRECTION('',(-1.,0.,0.));
#616 = FACE_BOUND('',#617,.F.);
#617 = EDGE_LOOP('',(#618,#628,#636,#644));
#618 = ORIENTED_EDGE('',*,*,#619,.T.);
#619 = EDGE_CURVE('',#620,#622,#624,.T.);
#620 = VERTEX_POINT('',#621);
#621 = CARTESIAN_POINT('',(0.,-1.,10.8));
#622 = VERTEX_POINT('',#623);
#623 = CARTESIAN_POINT('',(16.7,-1.,10.8));
#624 = LINE('',#625,#626);
#625 = CARTESIAN_POINT('',(0.,-1.,10.8));
#626 = VECTOR('',#627,1.);
#627 = DIRECTION('',(1.,0.,0.));
#628 = ORIENTED_EDGE('',*,*,#629,.T.);
#629 = EDGE_CURVE('',#622,#630,#632,.T.);
#630 = VERTEX_POINT('',#631);
#631 = CARTESIAN_POINT('',(16.7,-1.,18.8));
#632 = LINE('',#633,#634);
#633 = CARTESIAN_POINT('',(16.7,-1.,10.8));
#634 = VECTOR('',#635,1.);
#635 = DIRECTION('',(0.,2.22044604925E-16,1.));
#636 = ORIENTED_EDGE('',*,*,#637,.T.);
#637 = EDGE_CURVE('',#630,#638,#640,.T.);
#638 = VERTEX_POINT('',#639);
#639 = CARTESIAN_POINT('',(0.,-1.,18.8));
#640 = LINE('',#641,#642);
#641 = CARTESIAN_POINT('',(16.7,-1.,18.8));
#642 = VECTOR('',#643,1.);
#643 = DIRECTION('',(-1.,0.,0.));
#644 = ORIENTED_EDGE('',*,*,#645,.T.);
#645 = EDGE_CURVE('',#638,#620,#646,.T.);
#646 = LINE('',#647,#648);
#647 = CARTESIAN_POINT('',(0.,-1.,18.8));
#648 = VECTOR('',#649,1.);
#649 = DIRECTION('',(0.,-2.22044604925E-16,-1.));
#650 = FACE_BOUND('',#651,.F.);
#651 = EDGE_LOOP('',(#652,#662,#670,#678));
#652 = ORIENTED_EDGE('',*,*,#653,.T.);
#653 = EDGE_CURVE('',#654,#656,#658,.T.);
#654 = VERTEX_POINT('',#655);
#655 = CARTESIAN_POINT('',(-1.06581410364E-14,-1.,22.1));
#656 = VERTEX_POINT('',#657);
#657 = CARTESIAN_POINT('',(16.699999999999,-1.,22.1));
#658 = LINE('',#659,#660);
#659 = CARTESIAN_POINT('',(-1.06581410364E-14,-1.,22.1));
#660 = VECTOR('',#661,1.);
#661 = DIRECTION('',(1.,2.598044897435E-30,1.170055403198E-14));
#662 = ORIENTED_EDGE('',*,*,#663,.T.);
#663 = EDGE_CURVE('',#656,#664,#666,.T.);
#664 = VERTEX_POINT('',#665);
#665 = CARTESIAN_POINT('',(16.699999999999,-1.,30.1));
#666 = LINE('',#667,#668);
#667 = CARTESIAN_POINT('',(16.699999999999,-1.,22.1));
#668 = VECTOR('',#669,1.);
#669 = DIRECTION('',(0.,2.22044604925E-16,1.));
#670 = ORIENTED_EDGE('',*,*,#671,.T.);
#671 = EDGE_CURVE('',#664,#672,#674,.T.);
#672 = VERTEX_POINT('',#673);
#673 = CARTESIAN_POINT('',(-1.06581410364E-14,-1.,30.1));
#674 = LINE('',#675,#676);
#675 = CARTESIAN_POINT('',(16.699999999999,-1.,30.1));
#676 = VECTOR('',#677,1.);
#677 = DIRECTION('',(-1.,0.,0.));
#678 = ORIENTED_EDGE('',*,*,#679,.T.);
#679 = EDGE_CURVE('',#672,#654,#680,.T.);
#680 = LINE('',#681,#682);
#681 = CARTESIAN_POINT('',(-1.06581410364E-14,-1.,30.1));
#682 = VECTOR('',#683,1.);
#683 = DIRECTION('',(0.,-2.22044604925E-16,-1.));
#684 = FACE_BOUND('',#685,.F.);
#685 = EDGE_LOOP('',(#686,#696,#704,#712));
#686 = ORIENTED_EDGE('',*,*,#687,.T.);
#687 = EDGE_CURVE('',#688,#690,#692,.T.);
#688 = VERTEX_POINT('',#689);
#689 = CARTESIAN_POINT('',(22.9,-1.,10.8));
#690 = VERTEX_POINT('',#691);
#691 = CARTESIAN_POINT('',(39.6,-1.,10.8));
#692 = LINE('',#693,#694);
#693 = CARTESIAN_POINT('',(22.9,-1.,10.8));
#694 = VECTOR('',#695,1.);
#695 = DIRECTION('',(1.,0.,0.));
#696 = ORIENTED_EDGE('',*,*,#697,.T.);
#697 = EDGE_CURVE('',#690,#698,#700,.T.);
#698 = VERTEX_POINT('',#699);
#699 = CARTESIAN_POINT('',(39.6,-1.,18.8));
#700 = LINE('',#701,#702);
#701 = CARTESIAN_POINT('',(39.6,-1.,10.8));
#702 = VECTOR('',#703,1.);
#703 = DIRECTION('',(0.,2.22044604925E-16,1.));
#704 = ORIENTED_EDGE('',*,*,#705,.T.);
#705 = EDGE_CURVE('',#698,#706,#708,.T.);
#706 = VERTEX_POINT('',#707);
#707 = CARTESIAN_POINT('',(22.9,-1.,18.8));
#708 = LINE('',#709,#710);
#709 = CARTESIAN_POINT('',(39.6,-1.,18.8));
#710 = VECTOR('',#711,1.);
#711 = DIRECTION('',(-1.,0.,0.));
#712 = ORIENTED_EDGE('',*,*,#713,.T.);
#713 = EDGE_CURVE('',#706,#688,#714,.T.);
#714 = LINE('',#715,#716);
#715 = CARTESIAN_POINT('',(22.9,-1.,18.8));
#716 = VECTOR('',#717,1.);
#717 = DIRECTION('',(0.,-2.22044604925E-16,-1.));
#718 = FACE_BOUND('',#719,.F.);
#719 = EDGE_LOOP('',(#720,#730,#738,#746));
#720 = ORIENTED_EDGE('',*,*,#721,.T.);
#721 = EDGE_CURVE('',#722,#724,#726,.T.);
#722 = VERTEX_POINT('',#723);
#723 = CARTESIAN_POINT('',(22.9,-1.,22.1));
#724 = VERTEX_POINT('',#725);
#725 = CARTESIAN_POINT('',(39.6,-1.,22.1));
#726 = LINE('',#727,#728);
#727 = CARTESIAN_POINT('',(22.9,-1.,22.1));
#728 = VECTOR('',#729,1.);
#729 = DIRECTION('',(1.,0.,0.));
#730 = ORIENTED_EDGE('',*,*,#731,.T.);
#731 = EDGE_CURVE('',#724,#732,#734,.T.);
#732 = VERTEX_POINT('',#733);
#733 = CARTESIAN_POINT('',(39.6,-1.,30.1));
#734 = LINE('',#735,#736);
#735 = CARTESIAN_POINT('',(39.6,-1.,22.1));
#736 = VECTOR('',#737,1.);
#737 = DIRECTION('',(0.,2.22044604925E-16,1.));
#738 = ORIENTED_EDGE('',*,*,#739,.T.);
#739 = EDGE_CURVE('',#732,#740,#742,.T.);
#740 = VERTEX_POINT('',#741);
#741 = CARTESIAN_POINT('',(22.9,-1.,30.1));
#742 = LINE('',#743,#744);
#743 = CARTESIAN_POINT('',(39.6,-1.,30.1));
#744 = VECTOR('',#745,1.);
#745 = DIRECTION('',(-1.,0.,0.));
#746 = ORIENTED_EDGE('',*,*,#747,.T.);
#747 = EDGE_CURVE('',#740,#722,#748,.T.);
#748 = LINE('',#749,#750);
#749 = CARTESIAN_POINT('',(22.9,-1.,30.1));
#750 = VECTOR('',#751,1.);
#751 = DIRECTION('',(0.,-2.22044604925E-16,-1.));
#752 = FACE_BOUND('',#753,.F.);
#753 = EDGE_LOOP('',(#754,#764,#772,#780));
#754 = ORIENTED_EDGE('',*,*,#755,.T.);
#755 = EDGE_CURVE('',#756,#758,#760,.T.);
#756 = VERTEX_POINT('',#757);
#757 = CARTESIAN_POINT('',(6.394884621841E-14,-1.,33.4));
#758 = VERTEX_POINT('',#759);
#759 = CARTESIAN_POINT('',(16.699999999999,-1.,33.4));
#760 = LINE('',#761,#762);
#761 = CARTESIAN_POINT('',(6.394884621841E-14,-1.,33.4));
#762 = VECTOR('',#763,1.);
#763 = DIRECTION('',(1.,2.645282077388E-30,1.191329137801E-14));
#764 = ORIENTED_EDGE('',*,*,#765,.T.);
#765 = EDGE_CURVE('',#758,#766,#768,.T.);
#766 = VERTEX_POINT('',#767);
#767 = CARTESIAN_POINT('',(16.699999999999,-1.,41.4));
#768 = LINE('',#769,#770);
#769 = CARTESIAN_POINT('',(16.699999999999,-1.,33.4));
#770 = VECTOR('',#771,1.);
#771 = DIRECTION('',(0.,2.22044604925E-16,1.));
#772 = ORIENTED_EDGE('',*,*,#773,.T.);
#773 = EDGE_CURVE('',#766,#774,#776,.T.);
#774 = VERTEX_POINT('',#775);
#775 = CARTESIAN_POINT('',(6.394884621841E-14,-1.,41.4));
#776 = LINE('',#777,#778);
#777 = CARTESIAN_POINT('',(16.699999999999,-1.,41.4));
#778 = VECTOR('',#779,1.);
#779 = DIRECTION('',(-1.,0.,0.));
#780 = ORIENTED_EDGE('',*,*,#781,.T.);
#781 = EDGE_CURVE('',#774,#756,#782,.T.);
#782 = LINE('',#783,#784);
#783 = CARTESIAN_POINT('',(6.394884621841E-14,-1.,41.4));
#784 = VECTOR('',#785,1.);
#785 = DIRECTION('',(0.,-2.22044604925E-16,-1.));
#786 = FACE_BOUND('',#787,.F.);
#787 = EDGE_LOOP('',(#788,#798,#806,#814));
#788 = ORIENTED_EDGE('',*,*,#789,.T.);
#789 = EDGE_CURVE('',#790,#792,#794,.T.);
#790 = VERTEX_POINT('',#791);
#791 = CARTESIAN_POINT('',(0.,-1.,44.7));
#792 = VERTEX_POINT('',#793);
#793 = CARTESIAN_POINT('',(16.7,-1.,44.7));
#794 = LINE('',#795,#796);
#795 = CARTESIAN_POINT('',(0.,-1.,44.7));
#796 = VECTOR('',#797,1.);
#797 = DIRECTION('',(1.,0.,0.));
#798 = ORIENTED_EDGE('',*,*,#799,.T.);
#799 = EDGE_CURVE('',#792,#800,#802,.T.);
#800 = VERTEX_POINT('',#801);
#801 = CARTESIAN_POINT('',(16.7,-1.,52.7));
#802 = LINE('',#803,#804);
#803 = CARTESIAN_POINT('',(16.7,-1.,44.7));
#804 = VECTOR('',#805,1.);
#805 = DIRECTION('',(0.,2.22044604925E-16,1.));
#806 = ORIENTED_EDGE('',*,*,#807,.T.);
#807 = EDGE_CURVE('',#800,#808,#810,.T.);
#808 = VERTEX_POINT('',#809);
#809 = CARTESIAN_POINT('',(0.,-1.,52.7));
#810 = LINE('',#811,#812);
#811 = CARTESIAN_POINT('',(16.7,-1.,52.7));
#812 = VECTOR('',#813,1.);
#813 = DIRECTION('',(-1.,0.,0.));
#814 = ORIENTED_EDGE('',*,*,#815,.T.);
#815 = EDGE_CURVE('',#808,#790,#816,.T.);
#816 = LINE('',#817,#818);
#817 = CARTESIAN_POINT('',(0.,-1.,52.7));
#818 = VECTOR('',#819,1.);
#819 = DIRECTION('',(0.,-2.22044604925E-16,-1.));
#820 = FACE_BOUND('',#821,.F.);
#821 = EDGE_LOOP('',(#822,#832,#840,#848));
#822 = ORIENTED_EDGE('',*,*,#823,.T.);
#823 = EDGE_CURVE('',#824,#826,#828,.T.);
#824 = VERTEX_POINT('',#825);
#825 = CARTESIAN_POINT('',(22.9,-1.,33.4));
#826 = VERTEX_POINT('',#827);
#827 = CARTESIAN_POINT('',(39.6,-1.,33.4));
#828 = LINE('',#829,#830);
#829 = CARTESIAN_POINT('',(22.9,-1.,33.4));
#830 = VECTOR('',#831,1.);
#831 = DIRECTION('',(1.,0.,0.));
#832 = ORIENTED_EDGE('',*,*,#833,.T.);
#833 = EDGE_CURVE('',#826,#834,#836,.T.);
#834 = VERTEX_POINT('',#835);
#835 = CARTESIAN_POINT('',(39.6,-1.,41.4));
#836 = LINE('',#837,#838);
#837 = CARTESIAN_POINT('',(39.6,-1.,33.4));
#838 = VECTOR('',#839,1.);
#839 = DIRECTION('',(0.,2.22044604925E-16,1.));
#840 = ORIENTED_EDGE('',*,*,#841,.T.);
#841 = EDGE_CURVE('',#834,#842,#844,.T.);
#842 = VERTEX_POINT('',#843);
#843 = CARTESIAN_POINT('',(22.9,-1.,41.4));
#844 = LINE('',#845,#846);
#845 = CARTESIAN_POINT('',(39.6,-1.,41.4));
#846 = VECTOR('',#847,1.);
#847 = DIRECTION('',(-1.,0.,0.));
#848 = ORIENTED_EDGE('',*,*,#849,.T.);
#849 = EDGE_CURVE('',#842,#824,#850,.T.);
#850 = LINE('',#851,#852);
#851 = CARTESIAN_POINT('',(22.9,-1.,41.4));
#852 = VECTOR('',#853,1.);
#853 = DIRECTION('',(0.,-2.22044604925E-16,-1.));
#854 = FACE_BOUND('',#855,.F.);
#855 = EDGE_LOOP('',(#856,#866,#874,#882));
#856 = ORIENTED_EDGE('',*,*,#857,.T.);
#857 = EDGE_CURVE('',#858,#860,#862,.T.);
#858 = VERTEX_POINT('',#859);
#859 = CARTESIAN_POINT('',(22.9,-1.,44.7));
#860 = VERTEX_POINT('',#861);
#861 = CARTESIAN_POINT('',(39.6,-1.,44.7));
#862 = LINE('',#863,#864);
#863 = CARTESIAN_POINT('',(22.9,-1.,44.7));
#864 = VECTOR('',#865,1.);
#865 = DIRECTION('',(1.,0.,0.));
#866 = ORIENTED_EDGE('',*,*,#867,.T.);
#867 = EDGE_CURVE('',#860,#868,#870,.T.);
#868 = VERTEX_POINT('',#869);
#869 = CARTESIAN_POINT('',(39.6,-1.,52.700000000001));
#870 = LINE('',#871,#872);
#871 = CARTESIAN_POINT('',(39.6,-1.,44.7));
#872 = VECTOR('',#873,1.);
#873 = DIRECTION('',(0.,2.22044604925E-16,1.));
#874 = ORIENTED_EDGE('',*,*,#875,.T.);
#875 = EDGE_CURVE('',#868,#876,#878,.T.);
#876 = VERTEX_POINT('',#877);
#877 = CARTESIAN_POINT('',(22.9,-1.,52.700000000001));
#878 = LINE('',#879,#880);
#879 = CARTESIAN_POINT('',(39.6,-1.,52.700000000001));
#880 = VECTOR('',#881,1.);
#881 = DIRECTION('',(-1.,0.,0.));
#882 = ORIENTED_EDGE('',*,*,#883,.T.);
#883 = EDGE_CURVE('',#876,#858,#884,.T.);
#884 = LINE('',#885,#886);
#885 = CARTESIAN_POINT('',(22.9,-1.,52.700000000001));
#886 = VECTOR('',#887,1.);
#887 = DIRECTION('',(0.,-2.22044604925E-16,-1.));
#888 = PLANE('',#889);
#889 = AXIS2_PLACEMENT_3D('',#890,#891,#892);
#890 = CARTESIAN_POINT('',(-1.E-16,-1.,29.7));
#891 = DIRECTION('',(0.,1.,0.));
#892 = DIRECTION('',(0.,0.,1.));
#893 = ADVANCED_FACE('',(#894),#905,.T.);
#894 = FACE_BOUND('',#895,.T.);
#895 = EDGE_LOOP('',(#896,#897,#898,#904));
#896 = ORIENTED_EDGE('',*,*,#70,.T.);
#897 = ORIENTED_EDGE('',*,*,#512,.T.);
#898 = ORIENTED_EDGE('',*,*,#899,.F.);
#899 = EDGE_CURVE('',#126,#513,#900,.T.);
#900 = LINE('',#901,#902);
#901 = CARTESIAN_POINT('',(-0.9,1.,57.3));
#902 = VECTOR('',#903,1.);
#903 = DIRECTION('',(0.,-1.,4.4E-16));
#904 = ORIENTED_EDGE('',*,*,#125,.F.);
#905 = PLANE('',#906);
#906 = AXIS2_PLACEMENT_3D('',#907,#908,#909);
#907 = CARTESIAN_POINT('',(-0.9,1.,59.4));
#908 = DIRECTION('',(1.,0.,0.));
#909 = DIRECTION('',(0.,-4.4E-16,-1.));
#910 = ADVANCED_FACE('',(#911),#922,.F.);
#911 = FACE_BOUND('',#912,.F.);
#912 = EDGE_LOOP('',(#913,#914,#915,#921));
#913 = ORIENTED_EDGE('',*,*,#101,.T.);
#914 = ORIENTED_EDGE('',*,*,#576,.T.);
#915 = ORIENTED_EDGE('',*,*,#916,.F.);
#916 = EDGE_CURVE('',#182,#569,#917,.T.);
#917 = LINE('',#918,#919);
#918 = CARTESIAN_POINT('',(-0.9,1.,2.1));
#919 = VECTOR('',#920,1.);
#920 = DIRECTION('',(0.,-1.,4.4E-16));
#921 = ORIENTED_EDGE('',*,*,#189,.F.);
#922 = PLANE('',#923);
#923 = AXIS2_PLACEMENT_3D('',#924,#925,#926);
#924 = CARTESIAN_POINT('',(-0.9,1.,-4.4E-16));
#925 = DIRECTION('',(-1.,0.,0.));
#926 = DIRECTION('',(0.,4.4E-16,1.));
#927 = ADVANCED_FACE('',(#928),#939,.T.);
#928 = FACE_BOUND('',#929,.T.);
#929 = EDGE_LOOP('',(#930,#931,#932,#938));
#930 = ORIENTED_EDGE('',*,*,#899,.T.);
#931 = ORIENTED_EDGE('',*,*,#520,.T.);
#932 = ORIENTED_EDGE('',*,*,#933,.F.);
#933 = EDGE_CURVE('',#134,#521,#934,.T.);
#934 = LINE('',#935,#936);
#935 = CARTESIAN_POINT('',(0.9,1.,57.3));
#936 = VECTOR('',#937,1.);
#937 = DIRECTION('',(0.,-1.,4.4E-16));
#938 = ORIENTED_EDGE('',*,*,#133,.F.);
#939 = PLANE('',#940);
#940 = AXIS2_PLACEMENT_3D('',#941,#942,#943);
#941 = CARTESIAN_POINT('',(-0.9,1.,57.3));
#942 = DIRECTION('',(0.,4.4E-16,1.));
#943 = DIRECTION('',(1.,0.,0.));
#944 = ADVANCED_FACE('',(#945),#956,.F.);
#945 = FACE_BOUND('',#946,.F.);
#946 = EDGE_LOOP('',(#947,#948,#949,#955));
#947 = ORIENTED_EDGE('',*,*,#916,.T.);
#948 = ORIENTED_EDGE('',*,*,#568,.T.);
#949 = ORIENTED_EDGE('',*,*,#950,.F.);
#950 = EDGE_CURVE('',#174,#561,#951,.T.);
#951 = LINE('',#952,#953);
#952 = CARTESIAN_POINT('',(0.9,1.,2.1));
#953 = VECTOR('',#954,1.);
#954 = DIRECTION('',(0.,-1.,4.4E-16));
#955 = ORIENTED_EDGE('',*,*,#181,.F.);
#956 = PLANE('',#957);
#957 = AXIS2_PLACEMENT_3D('',#958,#959,#960);
#958 = CARTESIAN_POINT('',(-0.9,1.,2.1));
#959 = DIRECTION('',(0.,4.4E-16,1.));
#960 = DIRECTION('',(1.,0.,0.));
#961 = ADVANCED_FACE('',(#962),#973,.T.);
#962 = FACE_BOUND('',#963,.T.);
#963 = EDGE_LOOP('',(#964,#965,#966,#972));
#964 = ORIENTED_EDGE('',*,*,#933,.T.);
#965 = ORIENTED_EDGE('',*,*,#528,.T.);
#966 = ORIENTED_EDGE('',*,*,#967,.F.);
#967 = EDGE_CURVE('',#142,#529,#968,.T.);
#968 = LINE('',#969,#970);
#969 = CARTESIAN_POINT('',(0.9,1.,59.4));
#970 = VECTOR('',#971,1.);
#971 = DIRECTION('',(0.,-1.,4.4E-16));
#972 = ORIENTED_EDGE('',*,*,#141,.F.);
#973 = PLANE('',#974);
#974 = AXIS2_PLACEMENT_3D('',#975,#976,#977);
#975 = CARTESIAN_POINT('',(0.9,1.,57.3));
#976 = DIRECTION('',(-1.,0.,0.));
#977 = DIRECTION('',(0.,4.4E-16,1.));
#978 = ADVANCED_FACE('',(#979),#990,.F.);
#979 = FACE_BOUND('',#980,.F.);
#980 = EDGE_LOOP('',(#981,#982,#983,#989));
#981 = ORIENTED_EDGE('',*,*,#950,.T.);
#982 = ORIENTED_EDGE('',*,*,#560,.T.);
#983 = ORIENTED_EDGE('',*,*,#984,.F.);
#984 = EDGE_CURVE('',#166,#553,#985,.T.);
#985 = LINE('',#986,#987);
#986 = CARTESIAN_POINT('',(0.9,1.,-4.4E-16));
#987 = VECTOR('',#988,1.);
#988 = DIRECTION('',(0.,-1.,4.4E-16));
#989 = ORIENTED_EDGE('',*,*,#173,.F.);
#990 = PLANE('',#991);
#991 = AXIS2_PLACEMENT_3D('',#992,#993,#994);
#992 = CARTESIAN_POINT('',(0.9,1.,2.1));
#993 = DIRECTION('',(1.,0.,0.));
#994 = DIRECTION('',(0.,-4.4E-16,-1.));
#995 = ADVANCED_FACE('',(#996),#1007,.T.);
#996 = FACE_BOUND('',#997,.T.);
#997 = EDGE_LOOP('',(#998,#999,#1000,#1006));
#998 = ORIENTED_EDGE('',*,*,#967,.T.);
#999 = ORIENTED_EDGE('',*,*,#536,.T.);
#1000 = ORIENTED_EDGE('',*,*,#1001,.F.);
#1001 = EDGE_CURVE('',#150,#537,#1002,.T.);
#1002 = LINE('',#1003,#1004);
#1003 = CARTESIAN_POINT('',(48.,1.,59.4));
#1004 = VECTOR('',#1005,1.);
#1005 = DIRECTION('',(0.,-1.,4.4E-16));
#1006 = ORIENTED_EDGE('',*,*,#149,.F.);
#1007 = PLANE('',#1008);
#1008 = AXIS2_PLACEMENT_3D('',#1009,#1010,#1011);
#1009 = CARTESIAN_POINT('',(0.9,1.,59.4));
#1010 = DIRECTION('',(0.,4.4E-16,1.));
#1011 = DIRECTION('',(1.,0.,0.));
#1012 = ADVANCED_FACE('',(#1013),#1024,.F.);
#1013 = FACE_BOUND('',#1014,.F.);
#1014 = EDGE_LOOP('',(#1015,#1016,#1017,#1023));
#1015 = ORIENTED_EDGE('',*,*,#984,.T.);
#1016 = ORIENTED_EDGE('',*,*,#552,.T.);
#1017 = ORIENTED_EDGE('',*,*,#1018,.F.);
#1018 = EDGE_CURVE('',#158,#545,#1019,.T.);
#1019 = LINE('',#1020,#1021);
#1020 = CARTESIAN_POINT('',(48.,1.,-4.4E-16));
#1021 = VECTOR('',#1022,1.);
#1022 = DIRECTION('',(0.,-1.,4.4E-16));
#1023 = ORIENTED_EDGE('',*,*,#165,.F.);
#1024 = PLANE('',#1025);
#1025 = AXIS2_PLACEMENT_3D('',#1026,#1027,#1028);
#1026 = CARTESIAN_POINT('',(0.9,1.,-4.4E-16));
#1027 = DIRECTION('',(0.,4.4E-16,1.));
#1028 = DIRECTION('',(1.,0.,0.));
#1029 = ADVANCED_FACE('',(#1030),#1036,.F.);
#1030 = FACE_BOUND('',#1031,.F.);
#1031 = EDGE_LOOP('',(#1032,#1033,#1034,#1035));
#1032 = ORIENTED_EDGE('',*,*,#1018,.T.);
#1033 = ORIENTED_EDGE('',*,*,#544,.T.);
#1034 = ORIENTED_EDGE('',*,*,#1001,.F.);
#1035 = ORIENTED_EDGE('',*,*,#157,.F.);
#1036 = PLANE('',#1037);
#1037 = AXIS2_PLACEMENT_3D('',#1038,#1039,#1040);
#1038 = CARTESIAN_POINT('',(48.,1.,-4.4E-16));
#1039 = DIRECTION('',(-1.,0.,0.));
#1040 = DIRECTION('',(0.,4.4E-16,1.));
#1041 = ADVANCED_FACE('',(#1042),#1058,.T.);
#1042 = FACE_BOUND('',#1043,.T.);
#1043 = EDGE_LOOP('',(#1044,#1045,#1051,#1052));
#1044 = ORIENTED_EDGE('',*,*,#611,.F.);
#1045 = ORIENTED_EDGE('',*,*,#1046,.T.);
#1046 = EDGE_CURVE('',#588,#201,#1047,.T.);
#1047 = LINE('',#1048,#1049);
#1048 = CARTESIAN_POINT('',(-23.5,-1.,9.));
#1049 = VECTOR('',#1050,1.);
#1050 = DIRECTION('',(0.,1.,-2.22044604925E-16));
#1051 = ORIENTED_EDGE('',*,*,#198,.F.);
#1052 = ORIENTED_EDGE('',*,*,#1053,.F.);
#1053 = EDGE_CURVE('',#604,#199,#1054,.T.);
#1054 = LINE('',#1055,#1056);
#1055 = CARTESIAN_POINT('',(-31.5,-1.,9.));
#1056 = VECTOR('',#1057,1.);
#1057 = DIRECTION('',(0.,1.,-2.22044604925E-16));
#1058 = PLANE('',#1059);
#1059 = AXIS2_PLACEMENT_3D('',#1060,#1061,#1062);
#1060 = CARTESIAN_POINT('',(-23.5,-1.,9.));
#1061 = DIRECTION('',(0.,2.22044604925E-16,1.));
#1062 = DIRECTION('',(-1.,0.,0.));
#1063 = ADVANCED_FACE('',(#1064),#1075,.F.);
#1064 = FACE_BOUND('',#1065,.F.);
#1065 = EDGE_LOOP('',(#1066,#1067,#1073,#1074));
#1066 = ORIENTED_EDGE('',*,*,#603,.F.);
#1067 = ORIENTED_EDGE('',*,*,#1068,.T.);
#1068 = EDGE_CURVE('',#596,#217,#1069,.T.);
#1069 = LINE('',#1070,#1071);
#1070 = CARTESIAN_POINT('',(-31.5,-1.,18.2));
#1071 = VECTOR('',#1072,1.);
#1072 = DIRECTION('',(0.,1.,-2.22044604925E-16));
#1073 = ORIENTED_EDGE('',*,*,#224,.F.);
#1074 = ORIENTED_EDGE('',*,*,#1053,.F.);
#1075 = PLANE('',#1076);
#1076 = AXIS2_PLACEMENT_3D('',#1077,#1078,#1079);
#1077 = CARTESIAN_POINT('',(-31.5,-1.,18.2));
#1078 = DIRECTION('',(-1.,0.,0.));
#1079 = DIRECTION('',(0.,-2.22044604925E-16,-1.));
#1080 = ADVANCED_FACE('',(#1081),#1092,.F.);
#1081 = FACE_BOUND('',#1082,.F.);
#1082 = EDGE_LOOP('',(#1083,#1084,#1090,#1091));
#1083 = ORIENTED_EDGE('',*,*,#595,.F.);
#1084 = ORIENTED_EDGE('',*,*,#1085,.T.);
#1085 = EDGE_CURVE('',#586,#209,#1086,.T.);
#1086 = LINE('',#1087,#1088);
#1087 = CARTESIAN_POINT('',(-23.5,-1.,18.2));
#1088 = VECTOR('',#1089,1.);
#1089 = DIRECTION('',(0.,1.,-2.22044604925E-16));
#1090 = ORIENTED_EDGE('',*,*,#216,.F.);
#1091 = ORIENTED_EDGE('',*,*,#1068,.F.);
#1092 = PLANE('',#1093);
#1093 = AXIS2_PLACEMENT_3D('',#1094,#1095,#1096);
#1094 = CARTESIAN_POINT('',(-23.5,-1.,18.2));
#1095 = DIRECTION('',(0.,2.22044604925E-16,1.));
#1096 = DIRECTION('',(-1.,0.,0.));
#1097 = ADVANCED_FACE('',(#1098),#1104,.T.);
#1098 = FACE_BOUND('',#1099,.T.);
#1099 = EDGE_LOOP('',(#1100,#1101,#1102,#1103));
#1100 = ORIENTED_EDGE('',*,*,#585,.F.);
#1101 = ORIENTED_EDGE('',*,*,#1085,.T.);
#1102 = ORIENTED_EDGE('',*,*,#208,.F.);
#1103 = ORIENTED_EDGE('',*,*,#1046,.F.);
#1104 = PLANE('',#1105);
#1105 = AXIS2_PLACEMENT_3D('',#1106,#1107,#1108);
#1106 = CARTESIAN_POINT('',(-23.5,-1.,18.2));
#1107 = DIRECTION('',(-1.,0.,0.));
#1108 = DIRECTION('',(0.,-2.22044604925E-16,-1.));
#1109 = ADVANCED_FACE('',(#1110),#1126,.F.);
#1110 = FACE_BOUND('',#1111,.F.);
#1111 = EDGE_LOOP('',(#1112,#1113,#1119,#1120));
#1112 = ORIENTED_EDGE('',*,*,#629,.F.);
#1113 = ORIENTED_EDGE('',*,*,#1114,.T.);
#1114 = EDGE_CURVE('',#622,#235,#1115,.T.);
#1115 = LINE('',#1116,#1117);
#1116 = CARTESIAN_POINT('',(16.7,-1.,10.8));
#1117 = VECTOR('',#1118,1.);
#1118 = DIRECTION('',(0.,1.,-2.22044604925E-16));
#1119 = ORIENTED_EDGE('',*,*,#232,.F.);
#1120 = ORIENTED_EDGE('',*,*,#1121,.F.);
#1121 = EDGE_CURVE('',#630,#233,#1122,.T.);
#1122 = LINE('',#1123,#1124);
#1123 = CARTESIAN_POINT('',(16.7,-1.,18.8));
#1124 = VECTOR('',#1125,1.);
#1125 = DIRECTION('',(0.,1.,-2.22044604925E-16));
#1126 = PLANE('',#1127);
#1127 = AXIS2_PLACEMENT_3D('',#1128,#1129,#1130);
#1128 = CARTESIAN_POINT('',(16.7,-1.,10.8));
#1129 = DIRECTION('',(1.,0.,0.));
#1130 = DIRECTION('',(0.,2.22044604925E-16,1.));
#1131 = ADVANCED_FACE('',(#1132),#1143,.F.);
#1132 = FACE_BOUND('',#1133,.F.);
#1133 = EDGE_LOOP('',(#1134,#1135,#1141,#1142));
#1134 = ORIENTED_EDGE('',*,*,#619,.F.);
#1135 = ORIENTED_EDGE('',*,*,#1136,.T.);
#1136 = EDGE_CURVE('',#620,#251,#1137,.T.);
#1137 = LINE('',#1138,#1139);
#1138 = CARTESIAN_POINT('',(0.,-1.,10.8));
#1139 = VECTOR('',#1140,1.);
#1140 = DIRECTION('',(0.,1.,-2.22044604925E-16));
#1141 = ORIENTED_EDGE('',*,*,#258,.F.);
#1142 = ORIENTED_EDGE('',*,*,#1114,.F.);
#1143 = PLANE('',#1144);
#1144 = AXIS2_PLACEMENT_3D('',#1145,#1146,#1147);
#1145 = CARTESIAN_POINT('',(0.,-1.,10.8));
#1146 = DIRECTION('',(0.,-2.22044604925E-16,-1.));
#1147 = DIRECTION('',(1.,0.,0.));
#1148 = ADVANCED_FACE('',(#1149),#1160,.F.);
#1149 = FACE_BOUND('',#1150,.F.);
#1150 = EDGE_LOOP('',(#1151,#1152,#1158,#1159));
#1151 = ORIENTED_EDGE('',*,*,#645,.F.);
#1152 = ORIENTED_EDGE('',*,*,#1153,.T.);
#1153 = EDGE_CURVE('',#638,#243,#1154,.T.);
#1154 = LINE('',#1155,#1156);
#1155 = CARTESIAN_POINT('',(0.,-1.,18.8));
#1156 = VECTOR('',#1157,1.);
#1157 = DIRECTION('',(0.,1.,-2.22044604925E-16));
#1158 = ORIENTED_EDGE('',*,*,#250,.F.);
#1159 = ORIENTED_EDGE('',*,*,#1136,.F.);
#1160 = PLANE('',#1161);
#1161 = AXIS2_PLACEMENT_3D('',#1162,#1163,#1164);
#1162 = CARTESIAN_POINT('',(0.,-1.,18.8));
#1163 = DIRECTION('',(-1.,0.,0.));
#1164 = DIRECTION('',(0.,-2.22044604925E-16,-1.));
#1165 = ADVANCED_FACE('',(#1166),#1172,.F.);
#1166 = FACE_BOUND('',#1167,.F.);
#1167 = EDGE_LOOP('',(#1168,#1169,#1170,#1171));
#1168 = ORIENTED_EDGE('',*,*,#637,.F.);
#1169 = ORIENTED_EDGE('',*,*,#1121,.T.);
#1170 = ORIENTED_EDGE('',*,*,#242,.F.);
#1171 = ORIENTED_EDGE('',*,*,#1153,.F.);
#1172 = PLANE('',#1173);
#1173 = AXIS2_PLACEMENT_3D('',#1174,#1175,#1176);
#1174 = CARTESIAN_POINT('',(16.7,-1.,18.8));
#1175 = DIRECTION('',(0.,2.22044604925E-16,1.));
#1176 = DIRECTION('',(-1.,0.,0.));
#1177 = ADVANCED_FACE('',(#1178),#1194,.F.);
#1178 = FACE_BOUND('',#1179,.F.);
#1179 = EDGE_LOOP('',(#1180,#1181,#1187,#1188));
#1180 = ORIENTED_EDGE('',*,*,#663,.F.);
#1181 = ORIENTED_EDGE('',*,*,#1182,.T.);
#1182 = EDGE_CURVE('',#656,#269,#1183,.T.);
#1183 = LINE('',#1184,#1185);
#1184 = CARTESIAN_POINT('',(16.699999999999,-1.,22.1));
#1185 = VECTOR('',#1186,1.);
#1186 = DIRECTION('',(0.,1.,-2.22044604925E-16));
#1187 = ORIENTED_EDGE('',*,*,#266,.F.);
#1188 = ORIENTED_EDGE('',*,*,#1189,.F.);
#1189 = EDGE_CURVE('',#664,#267,#1190,.T.);
#1190 = LINE('',#1191,#1192);
#1191 = CARTESIAN_POINT('',(16.699999999999,-1.,30.1));
#1192 = VECTOR('',#1193,1.);
#1193 = DIRECTION('',(0.,1.,-2.22044604925E-16));
#1194 = PLANE('',#1195);
#1195 = AXIS2_PLACEMENT_3D('',#1196,#1197,#1198);
#1196 = CARTESIAN_POINT('',(16.699999999999,-1.,22.1));
#1197 = DIRECTION('',(1.,0.,0.));
#1198 = DIRECTION('',(0.,2.22044604925E-16,1.));
#1199 = ADVANCED_FACE('',(#1200),#1211,.F.);
#1200 = FACE_BOUND('',#1201,.F.);
#1201 = EDGE_LOOP('',(#1202,#1203,#1209,#1210));
#1202 = ORIENTED_EDGE('',*,*,#653,.F.);
#1203 = ORIENTED_EDGE('',*,*,#1204,.T.);
#1204 = EDGE_CURVE('',#654,#285,#1205,.T.);
#1205 = LINE('',#1206,#1207);
#1206 = CARTESIAN_POINT('',(-1.06581410364E-14,-1.,22.1));
#1207 = VECTOR('',#1208,1.);
#1208 = DIRECTION('',(0.,1.,-2.22044604925E-16));
#1209 = ORIENTED_EDGE('',*,*,#292,.F.);
#1210 = ORIENTED_EDGE('',*,*,#1182,.F.);
#1211 = PLANE('',#1212);
#1212 = AXIS2_PLACEMENT_3D('',#1213,#1214,#1215);
#1213 = CARTESIAN_POINT('',(-1.06581410364E-14,-1.,22.1));
#1214 = DIRECTION('',(1.170055403198E-14,-2.22044604925E-16,-1.));
#1215 = DIRECTION('',(1.,2.598044897435E-30,1.170055403198E-14));
#1216 = ADVANCED_FACE('',(#1217),#1228,.F.);
#1217 = FACE_BOUND('',#1218,.F.);
#1218 = EDGE_LOOP('',(#1219,#1220,#1226,#1227));
#1219 = ORIENTED_EDGE('',*,*,#679,.F.);
#1220 = ORIENTED_EDGE('',*,*,#1221,.T.);
#1221 = EDGE_CURVE('',#672,#277,#1222,.T.);
#1222 = LINE('',#1223,#1224);
#1223 = CARTESIAN_POINT('',(-1.06581410364E-14,-1.,30.1));
#1224 = VECTOR('',#1225,1.);
#1225 = DIRECTION('',(0.,1.,-2.22044604925E-16));
#1226 = ORIENTED_EDGE('',*,*,#284,.F.);
#1227 = ORIENTED_EDGE('',*,*,#1204,.F.);
#1228 = PLANE('',#1229);
#1229 = AXIS2_PLACEMENT_3D('',#1230,#1231,#1232);
#1230 = CARTESIAN_POINT('',(-1.06581410364E-14,-1.,30.1));
#1231 = DIRECTION('',(-1.,0.,0.));
#1232 = DIRECTION('',(0.,-2.22044604925E-16,-1.));
#1233 = ADVANCED_FACE('',(#1234),#1240,.F.);
#1234 = FACE_BOUND('',#1235,.F.);
#1235 = EDGE_LOOP('',(#1236,#1237,#1238,#1239));
#1236 = ORIENTED_EDGE('',*,*,#671,.F.);
#1237 = ORIENTED_EDGE('',*,*,#1189,.T.);
#1238 = ORIENTED_EDGE('',*,*,#276,.F.);
#1239 = ORIENTED_EDGE('',*,*,#1221,.F.);
#1240 = PLANE('',#1241);
#1241 = AXIS2_PLACEMENT_3D('',#1242,#1243,#1244);
#1242 = CARTESIAN_POINT('',(16.699999999999,-1.,30.1));
#1243 = DIRECTION('',(0.,2.22044604925E-16,1.));
#1244 = DIRECTION('',(-1.,0.,0.));
#1245 = ADVANCED_FACE('',(#1246),#1262,.F.);
#1246 = FACE_BOUND('',#1247,.F.);
#1247 = EDGE_LOOP('',(#1248,#1249,#1255,#1256));
#1248 = ORIENTED_EDGE('',*,*,#697,.F.);
#1249 = ORIENTED_EDGE('',*,*,#1250,.T.);
#1250 = EDGE_CURVE('',#690,#303,#1251,.T.);
#1251 = LINE('',#1252,#1253);
#1252 = CARTESIAN_POINT('',(39.6,-1.,10.8));
#1253 = VECTOR('',#1254,1.);
#1254 = DIRECTION('',(0.,1.,-2.22044604925E-16));
#1255 = ORIENTED_EDGE('',*,*,#300,.F.);
#1256 = ORIENTED_EDGE('',*,*,#1257,.F.);
#1257 = EDGE_CURVE('',#698,#301,#1258,.T.);
#1258 = LINE('',#1259,#1260);
#1259 = CARTESIAN_POINT('',(39.6,-1.,18.8));
#1260 = VECTOR('',#1261,1.);
#1261 = DIRECTION('',(0.,1.,-2.22044604925E-16));
#1262 = PLANE('',#1263);
#1263 = AXIS2_PLACEMENT_3D('',#1264,#1265,#1266);
#1264 = CARTESIAN_POINT('',(39.6,-1.,10.8));
#1265 = DIRECTION('',(1.,0.,0.));
#1266 = DIRECTION('',(0.,2.22044604925E-16,1.));
#1267 = ADVANCED_FACE('',(#1268),#1279,.F.);
#1268 = FACE_BOUND('',#1269,.F.);
#1269 = EDGE_LOOP('',(#1270,#1271,#1277,#1278));
#1270 = ORIENTED_EDGE('',*,*,#687,.F.);
#1271 = ORIENTED_EDGE('',*,*,#1272,.T.);
#1272 = EDGE_CURVE('',#688,#319,#1273,.T.);
#1273 = LINE('',#1274,#1275);
#1274 = CARTESIAN_POINT('',(22.9,-1.,10.8));
#1275 = VECTOR('',#1276,1.);
#1276 = DIRECTION('',(0.,1.,-2.22044604925E-16));
#1277 = ORIENTED_EDGE('',*,*,#326,.F.);
#1278 = ORIENTED_EDGE('',*,*,#1250,.F.);
#1279 = PLANE('',#1280);
#1280 = AXIS2_PLACEMENT_3D('',#1281,#1282,#1283);
#1281 = CARTESIAN_POINT('',(22.9,-1.,10.8));
#1282 = DIRECTION('',(0.,-2.22044604925E-16,-1.));
#1283 = DIRECTION('',(1.,0.,0.));
#1284 = ADVANCED_FACE('',(#1285),#1296,.F.);
#1285 = FACE_BOUND('',#1286,.F.);
#1286 = EDGE_LOOP('',(#1287,#1288,#1294,#1295));
#1287 = ORIENTED_EDGE('',*,*,#713,.F.);
#1288 = ORIENTED_EDGE('',*,*,#1289,.T.);
#1289 = EDGE_CURVE('',#706,#311,#1290,.T.);
#1290 = LINE('',#1291,#1292);
#1291 = CARTESIAN_POINT('',(22.9,-1.,18.8));
#1292 = VECTOR('',#1293,1.);
#1293 = DIRECTION('',(0.,1.,-2.22044604925E-16));
#1294 = ORIENTED_EDGE('',*,*,#318,.F.);
#1295 = ORIENTED_EDGE('',*,*,#1272,.F.);
#1296 = PLANE('',#1297);
#1297 = AXIS2_PLACEMENT_3D('',#1298,#1299,#1300);
#1298 = CARTESIAN_POINT('',(22.9,-1.,18.8));
#1299 = DIRECTION('',(-1.,0.,0.));
#1300 = DIRECTION('',(0.,-2.22044604925E-16,-1.));
#1301 = ADVANCED_FACE('',(#1302),#1308,.F.);
#1302 = FACE_BOUND('',#1303,.F.);
#1303 = EDGE_LOOP('',(#1304,#1305,#1306,#1307));
#1304 = ORIENTED_EDGE('',*,*,#705,.F.);
#1305 = ORIENTED_EDGE('',*,*,#1257,.T.);
#1306 = ORIENTED_EDGE('',*,*,#310,.F.);
#1307 = ORIENTED_EDGE('',*,*,#1289,.F.);
#1308 = PLANE('',#1309);
#1309 = AXIS2_PLACEMENT_3D('',#1310,#1311,#1312);
#1310 = CARTESIAN_POINT('',(39.6,-1.,18.8));
#1311 = DIRECTION('',(0.,2.22044604925E-16,1.));
#1312 = DIRECTION('',(-1.,0.,0.));
#1313 = ADVANCED_FACE('',(#1314),#1330,.F.);
#1314 = FACE_BOUND('',#1315,.F.);
#1315 = EDGE_LOOP('',(#1316,#1317,#1323,#1324));
#1316 = ORIENTED_EDGE('',*,*,#731,.F.);
#1317 = ORIENTED_EDGE('',*,*,#1318,.T.);
#1318 = EDGE_CURVE('',#724,#337,#1319,.T.);
#1319 = LINE('',#1320,#1321);
#1320 = CARTESIAN_POINT('',(39.6,-1.,22.1));
#1321 = VECTOR('',#1322,1.);
#1322 = DIRECTION('',(0.,1.,-2.22044604925E-16));
#1323 = ORIENTED_EDGE('',*,*,#334,.F.);
#1324 = ORIENTED_EDGE('',*,*,#1325,.F.);
#1325 = EDGE_CURVE('',#732,#335,#1326,.T.);
#1326 = LINE('',#1327,#1328);
#1327 = CARTESIAN_POINT('',(39.6,-1.,30.1));
#1328 = VECTOR('',#1329,1.);
#1329 = DIRECTION('',(0.,1.,-2.22044604925E-16));
#1330 = PLANE('',#1331);
#1331 = AXIS2_PLACEMENT_3D('',#1332,#1333,#1334);
#1332 = CARTESIAN_POINT('',(39.6,-1.,22.1));
#1333 = DIRECTION('',(1.,0.,0.));
#1334 = DIRECTION('',(0.,2.22044604925E-16,1.));
#1335 = ADVANCED_FACE('',(#1336),#1347,.F.);
#1336 = FACE_BOUND('',#1337,.F.);
#1337 = EDGE_LOOP('',(#1338,#1339,#1345,#1346));
#1338 = ORIENTED_EDGE('',*,*,#721,.F.);
#1339 = ORIENTED_EDGE('',*,*,#1340,.T.);
#1340 = EDGE_CURVE('',#722,#353,#1341,.T.);
#1341 = LINE('',#1342,#1343);
#1342 = CARTESIAN_POINT('',(22.9,-1.,22.1));
#1343 = VECTOR('',#1344,1.);
#1344 = DIRECTION('',(0.,1.,-2.22044604925E-16));
#1345 = ORIENTED_EDGE('',*,*,#360,.F.);
#1346 = ORIENTED_EDGE('',*,*,#1318,.F.);
#1347 = PLANE('',#1348);
#1348 = AXIS2_PLACEMENT_3D('',#1349,#1350,#1351);
#1349 = CARTESIAN_POINT('',(22.9,-1.,22.1));
#1350 = DIRECTION('',(0.,-2.22044604925E-16,-1.));
#1351 = DIRECTION('',(1.,0.,0.));
#1352 = ADVANCED_FACE('',(#1353),#1364,.F.);
#1353 = FACE_BOUND('',#1354,.F.);
#1354 = EDGE_LOOP('',(#1355,#1356,#1362,#1363));
#1355 = ORIENTED_EDGE('',*,*,#747,.F.);
#1356 = ORIENTED_EDGE('',*,*,#1357,.T.);
#1357 = EDGE_CURVE('',#740,#345,#1358,.T.);
#1358 = LINE('',#1359,#1360);
#1359 = CARTESIAN_POINT('',(22.9,-1.,30.1));
#1360 = VECTOR('',#1361,1.);
#1361 = DIRECTION('',(0.,1.,-2.22044604925E-16));
#1362 = ORIENTED_EDGE('',*,*,#352,.F.);
#1363 = ORIENTED_EDGE('',*,*,#1340,.F.);
#1364 = PLANE('',#1365);
#1365 = AXIS2_PLACEMENT_3D('',#1366,#1367,#1368);
#1366 = CARTESIAN_POINT('',(22.9,-1.,30.1));
#1367 = DIRECTION('',(-1.,0.,0.));
#1368 = DIRECTION('',(0.,-2.22044604925E-16,-1.));
#1369 = ADVANCED_FACE('',(#1370),#1376,.F.);
#1370 = FACE_BOUND('',#1371,.F.);
#1371 = EDGE_LOOP('',(#1372,#1373,#1374,#1375));
#1372 = ORIENTED_EDGE('',*,*,#739,.F.);
#1373 = ORIENTED_EDGE('',*,*,#1325,.T.);
#1374 = ORIENTED_EDGE('',*,*,#344,.F.);
#1375 = ORIENTED_EDGE('',*,*,#1357,.F.);
#1376 = PLANE('',#1377);
#1377 = AXIS2_PLACEMENT_3D('',#1378,#1379,#1380);
#1378 = CARTESIAN_POINT('',(39.6,-1.,30.1));
#1379 = DIRECTION('',(0.,2.22044604925E-16,1.));
#1380 = DIRECTION('',(-1.,0.,0.));
#1381 = ADVANCED_FACE('',(#1382),#1398,.F.);
#1382 = FACE_BOUND('',#1383,.F.);
#1383 = EDGE_LOOP('',(#1384,#1385,#1391,#1392));
#1384 = ORIENTED_EDGE('',*,*,#765,.F.);
#1385 = ORIENTED_EDGE('',*,*,#1386,.T.);
#1386 = EDGE_CURVE('',#758,#371,#1387,.T.);
#1387 = LINE('',#1388,#1389);
#1388 = CARTESIAN_POINT('',(16.699999999999,-1.,33.4));
#1389 = VECTOR('',#1390,1.);
#1390 = DIRECTION('',(0.,1.,-2.22044604925E-16));
#1391 = ORIENTED_EDGE('',*,*,#368,.F.);
#1392 = ORIENTED_EDGE('',*,*,#1393,.F.);
#1393 = EDGE_CURVE('',#766,#369,#1394,.T.);
#1394 = LINE('',#1395,#1396);
#1395 = CARTESIAN_POINT('',(16.699999999999,-1.,41.4));
#1396 = VECTOR('',#1397,1.);
#1397 = DIRECTION('',(0.,1.,-2.22044604925E-16));
#1398 = PLANE('',#1399);
#1399 = AXIS2_PLACEMENT_3D('',#1400,#1401,#1402);
#1400 = CARTESIAN_POINT('',(16.699999999999,-1.,33.4));
#1401 = DIRECTION('',(1.,0.,0.));
#1402 = DIRECTION('',(0.,2.22044604925E-16,1.));
#1403 = ADVANCED_FACE('',(#1404),#1415,.F.);
#1404 = FACE_BOUND('',#1405,.F.);
#1405 = EDGE_LOOP('',(#1406,#1407,#1413,#1414));
#1406 = ORIENTED_EDGE('',*,*,#755,.F.);
#1407 = ORIENTED_EDGE('',*,*,#1408,.T.);
#1408 = EDGE_CURVE('',#756,#387,#1409,.T.);
#1409 = LINE('',#1410,#1411);
#1410 = CARTESIAN_POINT('',(6.394884621841E-14,-1.,33.4));
#1411 = VECTOR('',#1412,1.);
#1412 = DIRECTION('',(0.,1.,-2.22044604925E-16));
#1413 = ORIENTED_EDGE('',*,*,#394,.F.);
#1414 = ORIENTED_EDGE('',*,*,#1386,.F.);
#1415 = PLANE('',#1416);
#1416 = AXIS2_PLACEMENT_3D('',#1417,#1418,#1419);
#1417 = CARTESIAN_POINT('',(6.394884621841E-14,-1.,33.4));
#1418 = DIRECTION('',(1.191329137801E-14,-2.22044604925E-16,-1.));
#1419 = DIRECTION('',(1.,2.645282077388E-30,1.191329137801E-14));
#1420 = ADVANCED_FACE('',(#1421),#1432,.F.);
#1421 = FACE_BOUND('',#1422,.F.);
#1422 = EDGE_LOOP('',(#1423,#1424,#1430,#1431));
#1423 = ORIENTED_EDGE('',*,*,#781,.F.);
#1424 = ORIENTED_EDGE('',*,*,#1425,.T.);
#1425 = EDGE_CURVE('',#774,#379,#1426,.T.);
#1426 = LINE('',#1427,#1428);
#1427 = CARTESIAN_POINT('',(6.394884621841E-14,-1.,41.4));
#1428 = VECTOR('',#1429,1.);
#1429 = DIRECTION('',(0.,1.,-2.22044604925E-16));
#1430 = ORIENTED_EDGE('',*,*,#386,.F.);
#1431 = ORIENTED_EDGE('',*,*,#1408,.F.);
#1432 = PLANE('',#1433);
#1433 = AXIS2_PLACEMENT_3D('',#1434,#1435,#1436);
#1434 = CARTESIAN_POINT('',(6.394884621841E-14,-1.,41.4));
#1435 = DIRECTION('',(-1.,0.,0.));
#1436 = DIRECTION('',(0.,-2.22044604925E-16,-1.));
#1437 = ADVANCED_FACE('',(#1438),#1444,.F.);
#1438 = FACE_BOUND('',#1439,.F.);
#1439 = EDGE_LOOP('',(#1440,#1441,#1442,#1443));
#1440 = ORIENTED_EDGE('',*,*,#773,.F.);
#1441 = ORIENTED_EDGE('',*,*,#1393,.T.);
#1442 = ORIENTED_EDGE('',*,*,#378,.F.);
#1443 = ORIENTED_EDGE('',*,*,#1425,.F.);
#1444 = PLANE('',#1445);
#1445 = AXIS2_PLACEMENT_3D('',#1446,#1447,#1448);
#1446 = CARTESIAN_POINT('',(16.699999999999,-1.,41.4));
#1447 = DIRECTION('',(0.,2.22044604925E-16,1.));
#1448 = DIRECTION('',(-1.,0.,0.));
#1449 = ADVANCED_FACE('',(#1450),#1466,.F.);
#1450 = FACE_BOUND('',#1451,.F.);
#1451 = EDGE_LOOP('',(#1452,#1453,#1459,#1460));
#1452 = ORIENTED_EDGE('',*,*,#799,.F.);
#1453 = ORIENTED_EDGE('',*,*,#1454,.T.);
#1454 = EDGE_CURVE('',#792,#405,#1455,.T.);
#1455 = LINE('',#1456,#1457);
#1456 = CARTESIAN_POINT('',(16.7,-1.,44.7));
#1457 = VECTOR('',#1458,1.);
#1458 = DIRECTION('',(0.,1.,-2.22044604925E-16));
#1459 = ORIENTED_EDGE('',*,*,#402,.F.);
#1460 = ORIENTED_EDGE('',*,*,#1461,.F.);
#1461 = EDGE_CURVE('',#800,#403,#1462,.T.);
#1462 = LINE('',#1463,#1464);
#1463 = CARTESIAN_POINT('',(16.7,-1.,52.7));
#1464 = VECTOR('',#1465,1.);
#1465 = DIRECTION('',(0.,1.,-2.22044604925E-16));
#1466 = PLANE('',#1467);
#1467 = AXIS2_PLACEMENT_3D('',#1468,#1469,#1470);
#1468 = CARTESIAN_POINT('',(16.7,-1.,44.7));
#1469 = DIRECTION('',(1.,0.,0.));
#1470 = DIRECTION('',(0.,2.22044604925E-16,1.));
#1471 = ADVANCED_FACE('',(#1472),#1483,.F.);
#1472 = FACE_BOUND('',#1473,.F.);
#1473 = EDGE_LOOP('',(#1474,#1475,#1481,#1482));
#1474 = ORIENTED_EDGE('',*,*,#789,.F.);
#1475 = ORIENTED_EDGE('',*,*,#1476,.T.);
#1476 = EDGE_CURVE('',#790,#421,#1477,.T.);
#1477 = LINE('',#1478,#1479);
#1478 = CARTESIAN_POINT('',(0.,-1.,44.7));
#1479 = VECTOR('',#1480,1.);
#1480 = DIRECTION('',(0.,1.,-2.22044604925E-16));
#1481 = ORIENTED_EDGE('',*,*,#428,.F.);
#1482 = ORIENTED_EDGE('',*,*,#1454,.F.);
#1483 = PLANE('',#1484);
#1484 = AXIS2_PLACEMENT_3D('',#1485,#1486,#1487);
#1485 = CARTESIAN_POINT('',(0.,-1.,44.7));
#1486 = DIRECTION('',(0.,-2.22044604925E-16,-1.));
#1487 = DIRECTION('',(1.,0.,0.));
#1488 = ADVANCED_FACE('',(#1489),#1500,.F.);
#1489 = FACE_BOUND('',#1490,.F.);
#1490 = EDGE_LOOP('',(#1491,#1492,#1498,#1499));
#1491 = ORIENTED_EDGE('',*,*,#815,.F.);
#1492 = ORIENTED_EDGE('',*,*,#1493,.T.);
#1493 = EDGE_CURVE('',#808,#413,#1494,.T.);
#1494 = LINE('',#1495,#1496);
#1495 = CARTESIAN_POINT('',(0.,-1.,52.7));
#1496 = VECTOR('',#1497,1.);
#1497 = DIRECTION('',(0.,1.,-2.22044604925E-16));
#1498 = ORIENTED_EDGE('',*,*,#420,.F.);
#1499 = ORIENTED_EDGE('',*,*,#1476,.F.);
#1500 = PLANE('',#1501);
#1501 = AXIS2_PLACEMENT_3D('',#1502,#1503,#1504);
#1502 = CARTESIAN_POINT('',(0.,-1.,52.7));
#1503 = DIRECTION('',(-1.,0.,0.));
#1504 = DIRECTION('',(0.,-2.22044604925E-16,-1.));
#1505 = ADVANCED_FACE('',(#1506),#1512,.F.);
#1506 = FACE_BOUND('',#1507,.F.);
#1507 = EDGE_LOOP('',(#1508,#1509,#1510,#1511));
#1508 = ORIENTED_EDGE('',*,*,#807,.F.);
#1509 = ORIENTED_EDGE('',*,*,#1461,.T.);
#1510 = ORIENTED_EDGE('',*,*,#412,.F.);
#1511 = ORIENTED_EDGE('',*,*,#1493,.F.);
#1512 = PLANE('',#1513);
#1513 = AXIS2_PLACEMENT_3D('',#1514,#1515,#1516);
#1514 = CARTESIAN_POINT('',(16.7,-1.,52.7));
#1515 = DIRECTION('',(0.,2.22044604925E-16,1.));
#1516 = DIRECTION('',(-1.,0.,0.));
#1517 = ADVANCED_FACE('',(#1518),#1534,.F.);
#1518 = FACE_BOUND('',#1519,.F.);
#1519 = EDGE_LOOP('',(#1520,#1521,#1527,#1528));
#1520 = ORIENTED_EDGE('',*,*,#833,.F.);
#1521 = ORIENTED_EDGE('',*,*,#1522,.T.);
#1522 = EDGE_CURVE('',#826,#439,#1523,.T.);
#1523 = LINE('',#1524,#1525);
#1524 = CARTESIAN_POINT('',(39.6,-1.,33.4));
#1525 = VECTOR('',#1526,1.);
#1526 = DIRECTION('',(0.,1.,-2.22044604925E-16));
#1527 = ORIENTED_EDGE('',*,*,#436,.F.);
#1528 = ORIENTED_EDGE('',*,*,#1529,.F.);
#1529 = EDGE_CURVE('',#834,#437,#1530,.T.);
#1530 = LINE('',#1531,#1532);
#1531 = CARTESIAN_POINT('',(39.6,-1.,41.4));
#1532 = VECTOR('',#1533,1.);
#1533 = DIRECTION('',(0.,1.,-2.22044604925E-16));
#1534 = PLANE('',#1535);
#1535 = AXIS2_PLACEMENT_3D('',#1536,#1537,#1538);
#1536 = CARTESIAN_POINT('',(39.6,-1.,33.4));
#1537 = DIRECTION('',(1.,0.,0.));
#1538 = DIRECTION('',(0.,2.22044604925E-16,1.));
#1539 = ADVANCED_FACE('',(#1540),#1551,.F.);
#1540 = FACE_BOUND('',#1541,.F.);
#1541 = EDGE_LOOP('',(#1542,#1543,#1549,#1550));
#1542 = ORIENTED_EDGE('',*,*,#823,.F.);
#1543 = ORIENTED_EDGE('',*,*,#1544,.T.);
#1544 = EDGE_CURVE('',#824,#455,#1545,.T.);
#1545 = LINE('',#1546,#1547);
#1546 = CARTESIAN_POINT('',(22.9,-1.,33.4));
#1547 = VECTOR('',#1548,1.);
#1548 = DIRECTION('',(0.,1.,-2.22044604925E-16));
#1549 = ORIENTED_EDGE('',*,*,#462,.F.);
#1550 = ORIENTED_EDGE('',*,*,#1522,.F.);
#1551 = PLANE('',#1552);
#1552 = AXIS2_PLACEMENT_3D('',#1553,#1554,#1555);
#1553 = CARTESIAN_POINT('',(22.9,-1.,33.4));
#1554 = DIRECTION('',(0.,-2.22044604925E-16,-1.));
#1555 = DIRECTION('',(1.,0.,0.));
#1556 = ADVANCED_FACE('',(#1557),#1568,.F.);
#1557 = FACE_BOUND('',#1558,.F.);
#1558 = EDGE_LOOP('',(#1559,#1560,#1566,#1567));
#1559 = ORIENTED_EDGE('',*,*,#849,.F.);
#1560 = ORIENTED_EDGE('',*,*,#1561,.T.);
#1561 = EDGE_CURVE('',#842,#447,#1562,.T.);
#1562 = LINE('',#1563,#1564);
#1563 = CARTESIAN_POINT('',(22.9,-1.,41.4));
#1564 = VECTOR('',#1565,1.);
#1565 = DIRECTION('',(0.,1.,-2.22044604925E-16));
#1566 = ORIENTED_EDGE('',*,*,#454,.F.);
#1567 = ORIENTED_EDGE('',*,*,#1544,.F.);
#1568 = PLANE('',#1569);
#1569 = AXIS2_PLACEMENT_3D('',#1570,#1571,#1572);
#1570 = CARTESIAN_POINT('',(22.9,-1.,41.4));
#1571 = DIRECTION('',(-1.,0.,0.));
#1572 = DIRECTION('',(0.,-2.22044604925E-16,-1.));
#1573 = ADVANCED_FACE('',(#1574),#1580,.F.);
#1574 = FACE_BOUND('',#1575,.F.);
#1575 = EDGE_LOOP('',(#1576,#1577,#1578,#1579));
#1576 = ORIENTED_EDGE('',*,*,#841,.F.);
#1577 = ORIENTED_EDGE('',*,*,#1529,.T.);
#1578 = ORIENTED_EDGE('',*,*,#446,.F.);
#1579 = ORIENTED_EDGE('',*,*,#1561,.F.);
#1580 = PLANE('',#1581);
#1581 = AXIS2_PLACEMENT_3D('',#1582,#1583,#1584);
#1582 = CARTESIAN_POINT('',(39.6,-1.,41.4));
#1583 = DIRECTION('',(0.,2.22044604925E-16,1.));
#1584 = DIRECTION('',(-1.,0.,0.));
#1585 = ADVANCED_FACE('',(#1586),#1602,.F.);
#1586 = FACE_BOUND('',#1587,.F.);
#1587 = EDGE_LOOP('',(#1588,#1589,#1595,#1596));
#1588 = ORIENTED_EDGE('',*,*,#867,.F.);
#1589 = ORIENTED_EDGE('',*,*,#1590,.T.);
#1590 = EDGE_CURVE('',#860,#473,#1591,.T.);
#1591 = LINE('',#1592,#1593);
#1592 = CARTESIAN_POINT('',(39.6,-1.,44.7));
#1593 = VECTOR('',#1594,1.);
#1594 = DIRECTION('',(0.,1.,-2.22044604925E-16));
#1595 = ORIENTED_EDGE('',*,*,#470,.F.);
#1596 = ORIENTED_EDGE('',*,*,#1597,.F.);
#1597 = EDGE_CURVE('',#868,#471,#1598,.T.);
#1598 = LINE('',#1599,#1600);
#1599 = CARTESIAN_POINT('',(39.6,-1.,52.700000000001));
#1600 = VECTOR('',#1601,1.);
#1601 = DIRECTION('',(0.,1.,-2.22044604925E-16));
#1602 = PLANE('',#1603);
#1603 = AXIS2_PLACEMENT_3D('',#1604,#1605,#1606);
#1604 = CARTESIAN_POINT('',(39.6,-1.,44.7));
#1605 = DIRECTION('',(1.,0.,0.));
#1606 = DIRECTION('',(0.,2.22044604925E-16,1.));
#1607 = ADVANCED_FACE('',(#1608),#1619,.F.);
#1608 = FACE_BOUND('',#1609,.F.);
#1609 = EDGE_LOOP('',(#1610,#1611,#1617,#1618));
#1610 = ORIENTED_EDGE('',*,*,#857,.F.);
#1611 = ORIENTED_EDGE('',*,*,#1612,.T.);
#1612 = EDGE_CURVE('',#858,#489,#1613,.T.);
#1613 = LINE('',#1614,#1615);
#1614 = CARTESIAN_POINT('',(22.9,-1.,44.7));
#1615 = VECTOR('',#1616,1.);
#1616 = DIRECTION('',(0.,1.,-2.22044604925E-16));
#1617 = ORIENTED_EDGE('',*,*,#496,.F.);
#1618 = ORIENTED_EDGE('',*,*,#1590,.F.);
#1619 = PLANE('',#1620);
#1620 = AXIS2_PLACEMENT_3D('',#1621,#1622,#1623);
#1621 = CARTESIAN_POINT('',(22.9,-1.,44.7));
#1622 = DIRECTION('',(0.,-2.22044604925E-16,-1.));
#1623 = DIRECTION('',(1.,0.,0.));
#1624 = ADVANCED_FACE('',(#1625),#1636,.F.);
#1625 = FACE_BOUND('',#1626,.F.);
#1626 = EDGE_LOOP('',(#1627,#1628,#1634,#1635));
#1627 = ORIENTED_EDGE('',*,*,#883,.F.);
#1628 = ORIENTED_EDGE('',*,*,#1629,.T.);
#1629 = EDGE_CURVE('',#876,#481,#1630,.T.);
#1630 = LINE('',#1631,#1632);
#1631 = CARTESIAN_POINT('',(22.9,-1.,52.700000000001));
#1632 = VECTOR('',#1633,1.);
#1633 = DIRECTION('',(0.,1.,-2.22044604925E-16));
#1634 = ORIENTED_EDGE('',*,*,#488,.F.);
#1635 = ORIENTED_EDGE('',*,*,#1612,.F.);
#1636 = PLANE('',#1637);
#1637 = AXIS2_PLACEMENT_3D('',#1638,#1639,#1640);
#1638 = CARTESIAN_POINT('',(22.9,-1.,52.700000000001));
#1639 = DIRECTION('',(-1.,0.,0.));
#1640 = DIRECTION('',(0.,-2.22044604925E-16,-1.));
#1641 = ADVANCED_FACE('',(#1642),#1648,.F.);
#1642 = FACE_BOUND('',#1643,.F.);
#1643 = EDGE_LOOP('',(#1644,#1645,#1646,#1647));
#1644 = ORIENTED_EDGE('',*,*,#875,.F.);
#1645 = ORIENTED_EDGE('',*,*,#1597,.T.);
#1646 = ORIENTED_EDGE('',*,*,#480,.F.);
#1647 = ORIENTED_EDGE('',*,*,#1629,.F.);
#1648 = PLANE('',#1649);
#1649 = AXIS2_PLACEMENT_3D('',#1650,#1651,#1652);
#1650 = CARTESIAN_POINT('',(39.6,-1.,52.700000000001));
#1651 = DIRECTION('',(0.,2.22044604925E-16,1.));
#1652 = DIRECTION('',(-1.,0.,0.));
#1653 = ( GEOMETRIC_REPRESENTATION_CONTEXT(3) 
GLOBAL_UNCERTAINTY_ASSIGNED_CONTEXT((#1657)) 
GLOBAL_UNIT_ASSIGNED_CONTEXT((#1654,#1655,#1656)) REPRESENTATION_CONTEXT
('Context #1','3D Context with UNIT and UNCERTAINTY') );
#1654 = ( LENGTH_UNIT() NAMED_UNIT(*) SI_UNIT(.MILLI.,.METRE.) );
#1655 = ( NAMED_UNIT(*) PLANE_ANGLE_UNIT() SI_UNIT($,.RADIAN.) );
#1656 = ( NAMED_UNIT(*) SI_UNIT($,.STERADIAN.) SOLID_ANGLE_UNIT() );
#1657 = UNCERTAINTY_MEASURE_WITH_UNIT(LENGTH_MEASURE(5.E-05),#1654,
  'distance_accuracy_value','confusion accuracy');
#1658 = PRODUCT_RELATED_PRODUCT_CATEGORY('part',$,(#7));
#1659 = MECHANICAL_DESIGN_GEOMETRIC_PRESENTATION_REPRESENTATION('',(
    #1660),#1653);
#1660 = STYLED_ITEM('color',(#1661),#15);
#1661 = PRESENTATION_STYLE_ASSIGNMENT((#1662,#1668));
#1662 = SURFACE_STYLE_USAGE(.BOTH.,#1663);
#1663 = SURFACE_SIDE_STYLE('',(#1664));
#1664 = SURFACE_STYLE_FILL_AREA(#1665);
#1665 = FILL_AREA_STYLE('',(#1666));
#1666 = FILL_AREA_STYLE_COLOUR('',#1667);
#1667 = COLOUR_RGB('',3.921568724327E-02,3.921568724327E-02,
  3.921568724327E-02);
#1668 = CURVE_STYLE('',#1669,POSITIVE_LENGTH_MEASURE(0.1),#1667);
#1669 = DRAUGHTING_PRE_DEFINED_CURVE_FONT('continuous');
ENDSEC;
END-ISO-10303-21;
